<?xml version="1.0"?>
<svg xmlns="http://www.w3.org/2000/svg" xmlns:xlink="http://www.w3.org/1999/xlink" xmlns:svgjs="http://svgjs.com/svgjs" version="1.1" width="512" height="512" x="0" y="0" viewBox="0 0 512 512" style="enable-background:new 0 0 512 512" xml:space="preserve" class=""><g><path xmlns="http://www.w3.org/2000/svg" d="M410.34277,18.34277,388.68555,40H360a8.00039,8.00039,0,0,0-8,8V76.68555L324.68555,104H296a8.00039,8.00039,0,0,0-8,8v28.68555L260.68555,168H232a8.00039,8.00039,0,0,0-8,8v28.68555L188.68652,240H161.33423a95.64587,95.64587,0,0,1,42.97925-64.91309l-8.627-13.47461A112.00943,112.00943,0,0,0,256,368H358.75293A152.11931,152.11931,0,0,1,256,408c-83.81348,0-152-68.18652-152-152H88a167.79394,167.79394,0,0,0,4.82446,40H32V216H96a8,8,0,0,0,7.39062-4.93848l12.92188-31.19629a8.00028,8.00028,0,0,0-1.7334-8.71875l-45.25586-45.2539,56.56934-56.56934,45.2539,45.25586a7.99745,7.99745,0,0,0,8.71875,1.7334l31.19629-12.92188A8,8,0,0,0,216,96V32h80V80h16V24a8.00039,8.00039,0,0,0-8-8H208a8.00039,8.00039,0,0,0-8,8V90.6543l-21.31934,8.831L131.5498,52.35254a8.0018,8.0018,0,0,0-11.31445,0L52.35254,120.23535a8.0018,8.0018,0,0,0,0,11.31445l47.13281,47.13086L90.6543,200H24a8.00039,8.00039,0,0,0-8,8v96a8.00039,8.00039,0,0,0,8,8H90.6543l8.831,21.31934L52.35254,380.4502a8.0018,8.0018,0,0,0,0,11.31445l67.88281,67.88281a8.0018,8.0018,0,0,0,11.31445,0l47.13086-47.13281L200,421.3457V488a8.00039,8.00039,0,0,0,8,8h96a8.00039,8.00039,0,0,0,8-8V421.3457l21.31934-8.83105,47.13086,47.13281a8.0018,8.0018,0,0,0,11.31445,0l67.88281-67.88281a8.00062,8.00062,0,0,0-.001-11.31445L447.19629,368H488a8.00039,8.00039,0,0,0,8-8V88a8.00039,8.00039,0,0,0-8-8H424a8.00039,8.00039,0,0,0-8,8v56H360a8.00039,8.00039,0,0,0-8,8v40H296a8.00039,8.00039,0,0,0-8,8v48H232a8.00039,8.00039,0,0,0-8,8v32H165.491A95.5652,95.5652,0,0,1,160,256h32a8.00235,8.00235,0,0,0,5.65723-2.34277L235.31445,216H264a8.00039,8.00039,0,0,0,8-8V179.31445L299.31445,152H328a8.00039,8.00039,0,0,0,8-8V115.31445L363.31445,88H392a8.00039,8.00039,0,0,0,8-8V51.31445L419.31348,32H496V16H416A8.00235,8.00235,0,0,0,410.34277,18.34277Zm-284.45019,424.334L69.32324,386.10742l43.04395-43.042a169.30277,169.30277,0,0,0,56.56738,56.56738ZM216,480V419.17554a167.97791,167.97791,0,0,0,80-.01514V480Zm226.67676-93.89258-56.56934,56.56934-43.032-43.03369A168.05664,168.05664,0,0,0,381.20654,368h43.36182ZM432,96h48V352H432V96Zm-64,64h48V352H368V160Zm-64,48h48V352H304V208Zm-64,56h48v88H256a96.21362,96.21362,0,0,1-16-1.34082V264Zm-16,40v42.509A96.52,96.52,0,0,1,172.887,304Zm32-104H240V184h16Zm64-64H304V120h16Zm64-64H368V56h16Z" fill="#98999a" data-original="#000000" style=""/></g></svg>
