<?xml version="1.0"?>
<svg xmlns="http://www.w3.org/2000/svg" xmlns:xlink="http://www.w3.org/1999/xlink" xmlns:svgjs="http://svgjs.com/svgjs" version="1.1" width="512" height="512" x="0" y="0" viewBox="0 0 512 512" style="enable-background:new 0 0 512 512" xml:space="preserve" class=""><g><g xmlns="http://www.w3.org/2000/svg"><path d="m158.971 22.921h-53.309c-4.142 0-7.5 3.358-7.5 7.5s3.358 7.5 7.5 7.5h53.309c1.378 0 2.5 1.122 2.5 2.5v141.471c0 1.378-1.122 2.5-2.5 2.5h-42.819c-2.739 0-5.261 1.494-6.577 3.896l-19.146 34.938c-.619 1.129-1.639 1.298-2.192 1.298s-1.573-.168-2.192-1.299l-19.146-34.938c-1.316-2.402-3.838-3.896-6.577-3.896h-42.822c-1.378 0-2.5-1.122-2.5-2.5v-141.47c0-1.378 1.122-2.5 2.5-2.5h53.31c4.142 0 7.5-3.358 7.5-7.5s-3.358-7.5-7.5-7.5h-53.31c-9.649 0-17.5 7.851-17.5 17.5v141.471c0 9.649 7.851 17.5 17.5 17.5h38.377l17.012 31.042c3.072 5.607 8.952 9.09 15.346 9.09 6.393 0 12.274-3.483 15.347-9.089l17.012-31.043h38.377c9.649 0 17.5-7.851 17.5-17.5v-141.471c0-9.649-7.851-17.5-17.5-17.5z" fill="#98999a" data-original="#000000" style="" class=""/><path d="m394.104 230.434c3.072 5.607 8.953 9.09 15.347 9.09s12.274-3.483 15.347-9.089l17.012-31.043h38.377c9.649 0 17.5-7.851 17.5-17.5v-141.471c0-9.649-7.851-17.5-17.5-17.5h-53.31c-4.143 0-7.5 3.358-7.5 7.5s3.357 7.5 7.5 7.5h53.31c1.379 0 2.5 1.122 2.5 2.5v141.471c0 1.378-1.121 2.5-2.5 2.5h-42.819c-2.739 0-5.261 1.494-6.577 3.896l-19.146 34.939c-.619 1.129-1.639 1.298-2.192 1.298s-1.573-.168-2.192-1.299l-19.146-34.938c-1.316-2.402-3.838-3.896-6.577-3.896h-42.819c-1.379 0-2.5-1.122-2.5-2.5v-141.471c0-1.378 1.121-2.5 2.5-2.5h53.31c4.143 0 7.5-3.358 7.5-7.5s-3.357-7.5-7.5-7.5h-53.31c-9.649 0-17.5 7.851-17.5 17.5v141.471c0 9.649 7.851 17.5 17.5 17.5h38.377z" fill="#98999a" data-original="#000000" style="" class=""/><path d="m124.75 74.643c-2.929-2.929-7.678-2.929-10.606 0l-25.909 25.907-25.907-25.907c-2.929-2.929-7.678-2.929-10.606 0-2.929 2.929-2.929 7.678 0 10.606l25.908 25.908-25.908 25.908c-2.929 2.929-2.929 7.678 0 10.606 1.464 1.464 3.384 2.197 5.303 2.197s3.839-.732 5.303-2.197l25.908-25.908 25.908 25.908c1.464 1.464 3.384 2.197 5.303 2.197s3.839-.732 5.303-2.197c2.929-2.929 2.929-7.678 0-10.606l-25.908-25.908 25.908-25.908c2.929-2.929 2.929-7.678 0-10.606z" fill="#98999a" data-original="#000000" style="" class=""/><path d="m362.702 98.712c-2.929 2.929-2.929 7.678 0 10.606l31.547 31.546c1.465 1.464 3.385 2.197 5.304 2.197s3.839-.732 5.304-2.197l51.343-51.343c2.929-2.929 2.929-7.678 0-10.606-2.93-2.929-7.678-2.929-10.607 0l-46.04 46.041-26.243-26.244c-2.93-2.929-7.678-2.929-10.608 0z" fill="#98999a" data-original="#000000" style="" class=""/><path d="m455.771 356.017v-33.24c0-4.142-3.357-7.5-7.5-7.5h-96.513c-4.143 0-7.5 3.358-7.5 7.5v96.513c0 4.142 3.357 7.5 7.5 7.5h33.24c3.726 31.617 30.671 56.229 63.273 56.229 35.141 0 63.729-28.589 63.729-63.729 0-32.602-24.613-59.548-56.229-63.273zm-96.513-25.74h81.513v25.74c-29.155 3.435-52.338 26.618-55.773 55.773h-25.74zm81.513 40.862v40.651h-40.651c3.238-20.876 19.775-37.412 40.651-40.651zm7.5 96.88c-24.319 0-44.533-17.908-48.151-41.229h48.151c4.143 0 7.5-3.358 7.5-7.5v-48.151c23.321 3.618 41.229 23.832 41.229 48.151 0 26.869-21.86 48.729-48.729 48.729z" fill="#98999a" data-original="#000000" style="" class=""/><path d="m108.377 361.62c-6.556 0-12.883.997-18.84 2.844l-22.563-50.792c-1.203-2.709-3.89-4.455-6.854-4.455s-5.651 1.746-6.854 4.455l-48.256 108.632c-1.031 2.32-.818 5.004.566 7.132 1.383 2.128 3.75 3.413 6.288 3.413h33.24c3.726 31.617 30.671 56.229 63.273 56.229 35.141 0 63.729-28.589 63.729-63.729s-28.588-63.729-63.729-63.729zm-26.39 22.797 14.851 33.432h-36.603c2.121-13.571 9.889-25.757 21.752-33.432zm-21.866-49.225 15.715 35.376c-.152.09-.302.184-.453.276-.018.011-.035.022-.053.032-16.521 10.033-27.892 27.269-30.231 46.973h-21.696zm48.256 138.887c-24.319 0-44.532-17.908-48.151-41.229h48.151c2.539 0 4.905-1.284 6.288-3.413 1.384-2.128 1.597-4.812.566-7.132l-19.545-43.998c4.049-1.094 8.301-1.687 12.691-1.687 26.87 0 48.729 21.86 48.729 48.729s-21.859 48.73-48.729 48.73z" fill="#98999a" data-original="#000000" style="" class=""/><path d="m256 60.014c-4.142 0-7.5 3.358-7.5 7.5v15.787c0 4.142 3.358 7.5 7.5 7.5 4.143 0 7.5-3.358 7.5-7.5v-15.787c0-4.142-3.357-7.5-7.5-7.5z" fill="#98999a" data-original="#000000" style="" class=""/><path d="m256 120.211c-4.142 0-7.5 3.358-7.5 7.5v15.788c0 4.142 3.358 7.5 7.5 7.5 4.143 0 7.5-3.358 7.5-7.5v-15.788c0-4.142-3.357-7.5-7.5-7.5z" fill="#98999a" data-original="#000000" style="" class=""/><path d="m256 180.409c-4.142 0-7.5 3.358-7.5 7.5v15.788c0 4.142 3.358 7.5 7.5 7.5 4.143 0 7.5-3.358 7.5-7.5v-15.788c0-4.142-3.357-7.5-7.5-7.5z" fill="#98999a" data-original="#000000" style="" class=""/><path d="m256 240.606c-4.142 0-7.5 3.358-7.5 7.5v15.787c0 4.142 3.358 7.5 7.5 7.5 4.143 0 7.5-3.358 7.5-7.5v-15.787c0-4.142-3.357-7.5-7.5-7.5z" fill="#98999a" data-original="#000000" style="" class=""/><path d="m256 300.804c-4.142 0-7.5 3.358-7.5 7.5v15.788c0 4.142 3.358 7.5 7.5 7.5 4.143 0 7.5-3.358 7.5-7.5v-15.788c0-4.142-3.357-7.5-7.5-7.5z" fill="#98999a" data-original="#000000" style="" class=""/><path d="m256 361.001c-4.142 0-7.5 3.358-7.5 7.5v15.788c0 4.142 3.358 7.5 7.5 7.5 4.143 0 7.5-3.358 7.5-7.5v-15.788c0-4.142-3.357-7.5-7.5-7.5z" fill="#98999a" data-original="#000000" style="" class=""/><path d="m256 421.199c-4.142 0-7.5 3.358-7.5 7.5v15.787c0 4.142 3.358 7.5 7.5 7.5 4.143 0 7.5-3.358 7.5-7.5v-15.787c0-4.142-3.357-7.5-7.5-7.5z" fill="#98999a" data-original="#000000" style="" class=""/></g></g></svg>
