<?xml version="1.0"?>
<svg xmlns="http://www.w3.org/2000/svg" xmlns:xlink="http://www.w3.org/1999/xlink" xmlns:svgjs="http://svgjs.com/svgjs" version="1.1" width="512" height="512" x="0" y="0" viewBox="0 0 512 512" style="enable-background:new 0 0 512 512" xml:space="preserve" class=""><g><g xmlns="http://www.w3.org/2000/svg"><path d="m504.5 448.903h-32.581v-273.064c0-17.396-14.152-31.548-31.548-31.548h-96.19c-4.142 0-7.5 3.358-7.5 7.5s3.358 7.5 7.5 7.5h96.19c9.125 0 16.548 7.424 16.548 16.548v273.065h-25.671c.387-2.832.59-5.682.59-8.532 0-35.076-28.537-63.613-63.613-63.613-4.716 0-9.425.539-14.067 1.606-8.092-15.592-24.211-25.655-42.045-25.655-5.818 0-11.469 1.061-16.789 3.122-2.185-19.764-18.987-35.187-39.324-35.187s-37.139 15.423-39.324 35.187c-5.32-2.061-10.971-3.122-16.789-3.122-17.834 0-33.954 10.063-42.045 25.655-4.643-1.068-9.351-1.606-14.067-1.606-35.077 0-63.613 28.537-63.613 63.613 0 2.851.203 5.7.59 8.532h-25.671v-273.065c0-9.125 7.423-16.548 16.548-16.548h96.193c4.142 0 7.5-3.358 7.5-7.5s-3.358-7.5-7.5-7.5h-96.193c-17.396 0-31.548 14.153-31.548 31.548v273.065h-32.581c-4.142 0-7.5 3.358-7.5 7.5v16.032c0 12.976 10.557 23.532 23.532 23.532h464.936c12.976 0 23.532-10.557 23.532-23.532v-16.032c0-4.143-3.358-7.501-7.5-7.501zm-7.5 23.533c0 4.705-3.828 8.532-8.532 8.532h-464.936c-4.705 0-8.532-3.828-8.532-8.532v-8.532h96.707c4.142 0 7.5-3.358 7.5-7.5s-3.358-7.5-7.5-7.5h-15.778c-.509-2.827-.768-5.681-.768-8.532 0-26.805 21.808-48.613 48.613-48.613 5.339 0 10.685.914 15.89 2.716 1.885.653 3.951.528 5.744-.346 1.792-.875 3.162-2.427 3.808-4.314 4.521-13.221 16.847-22.104 30.672-22.104 7.581 0 14.781 2.683 20.823 7.76 2.551 2.143 6.209 2.347 8.982.5s3.995-5.301 3.001-8.48c-.858-2.746-1.258-5.059-1.258-7.28 0-13.545 11.02-24.564 24.564-24.564s24.564 11.02 24.564 24.564c0 2.221-.4 4.534-1.258 7.28-.994 3.18.229 6.634 3.001 8.48 2.773 1.846 6.431 1.643 8.982-.5 6.042-5.076 13.243-7.76 20.823-7.76 13.825 0 26.151 8.883 30.672 22.104.646 1.887 2.016 3.439 3.808 4.314 1.793.875 3.86 1 5.744.346 5.205-1.802 10.55-2.716 15.89-2.716 26.806 0 48.613 21.808 48.613 48.613 0 2.851-.26 5.705-.768 8.532h-272.294c-4.142 0-7.5 3.358-7.5 7.5s3.358 7.5 7.5 7.5h353.223z" fill="#98999a" data-original="#000000" style=""/><path d="m159.619 236.494c-4.715 5.658-7.312 12.831-7.312 20.197v23.358c0 2.666 1.416 5.132 3.718 6.477 1.168.682 2.475 1.023 3.782 1.023 1.271 0 2.542-.322 3.686-.968l53.41-30.137c2.035 3.716 4.193 7.372 6.472 10.961l-6.714 26.857c-.561 2.241-.057 4.614 1.364 6.435s3.602 2.885 5.912 2.885h64.129c2.31 0 4.49-1.064 5.912-2.885 1.421-1.82 1.925-4.194 1.364-6.435l-6.714-26.857c2.279-3.589 4.437-7.244 6.472-10.961l53.41 30.137c1.145.646 2.415.968 3.686.968 1.307 0 2.614-.342 3.782-1.023 2.302-1.344 3.718-3.81 3.718-6.477v-23.358c0-7.366-2.597-14.539-7.312-20.197l-35.604-42.711c1.875-11.141 2.835-22.5 2.835-33.976 0-27.351-5.295-53.789-15.738-78.578-10.072-23.908-24.409-45.118-42.613-63.041-2.919-2.874-7.604-2.874-10.523 0-18.204 17.922-32.541 39.132-42.613 63.041-10.443 24.79-15.738 51.227-15.738 78.578 0 11.458.957 22.8 2.826 33.924zm7.688 30.711v-10.514c0-3.864 1.362-7.626 3.835-10.594l28.112-33.734c2.809 10.508 6.46 20.756 10.936 30.646zm66.235 21.376 4.266-17.064h36.385l4.266 17.064zm107.316-42.484c2.473 2.968 3.835 6.73 3.835 10.594v10.514l-42.883-24.197c4.475-9.89 8.127-20.137 10.936-30.646zm-84.858-211.807c12.595 13.539 22.983 29.063 30.878 45.872h-61.756c7.895-16.809 18.283-32.333 30.878-45.872zm-37.128 60.871h74.255c7.499 20.445 11.485 42.364 11.485 64.645 0 34.488-9.278 67.833-26.872 96.71h-43.481c-17.594-28.877-26.872-62.222-26.872-96.71 0-22.281 3.987-44.199 11.485-64.645z" fill="#98999a" data-original="#000000" style=""/><path d="m287.548 151.79c0-17.396-14.152-31.548-31.548-31.548s-31.548 14.153-31.548 31.548 14.152 31.548 31.548 31.548 31.548-14.152 31.548-31.548zm-48.096 0c0-9.125 7.423-16.548 16.548-16.548s16.548 7.424 16.548 16.548-7.423 16.548-16.548 16.548-16.548-7.423-16.548-16.548z" fill="#98999a" data-original="#000000" style=""/></g></g></svg>
