<svg width="113" height="42" viewBox="0 0 113 42" fill="none" xmlns="http://www.w3.org/2000/svg">
<path d="M11.7056 30.0815L17.7465 24.0747L19.365 11.8034L20.9081 0.197266L13.4746 7.64152C13.0605 8.13494 12.6089 12.5757 12.4772 17.51C12.3078 22.0581 12.0631 27.3355 11.7056 30.0815Z" fill="#98999A" fill-opacity="0.5"/>
<path d="M30.0543 22.809C26.6857 20.3419 22.8465 17.4457 20.9458 15.6865L22.4325 24.6754L30.9012 32.4629L38.8994 39.8428L36.9986 28.7944C36.8481 28.1079 33.7241 25.4263 30.0543 22.809Z" fill="#98999A" fill-opacity="0.5"/>
<path d="M27.2126 32.0982L19.7414 29.0732L9.5978 33.5784L0 37.8047L9.35315 41.4303C9.93654 41.602 13.531 39.8428 17.3513 37.5258C22.903 34.2435 25.7447 32.7418 27.2126 32.0982Z" fill="#98999A" fill-opacity="0.5"/>
<path d="M28.5486 19.4194L22.3007 2.14941L21.0398 13.5841L28.5486 19.4194Z" fill="#98999A" fill-opacity="0.5"/>
<path d="M20.7012 37.311L36.7351 40.2285L28.9063 33.085L20.7012 37.311Z" fill="#98999A" fill-opacity="0.5"/>
<path d="M10.8963 21.0283L0.771606 35.4658L10.2376 31.1324L10.8963 21.0283Z" fill="#98999A" fill-opacity="0.5"/>
<path d="M55.8178 18.5396C55.7048 18.0248 55.5919 17.5313 55.4602 17.0379C55.2156 16.0082 54.9709 14.9998 54.7451 13.9701C54.4628 12.7902 54.1993 11.6102 53.8982 10.4303C53.8606 10.3016 53.7665 10.1729 53.6724 10.1085C53.4842 9.97977 53.2019 10.087 53.1078 10.4947C52.4868 13.1334 51.8657 15.7722 51.2447 18.3895C51.2259 18.4324 51.2447 18.4753 51.2447 18.5182H55.8178V18.5396ZM59.7133 27.3569C59.2617 27.3569 58.8288 27.3569 58.3772 27.3569C58.0572 27.3569 57.8691 27.2068 57.7938 26.8421C57.4174 25.2331 57.0222 23.6026 56.6458 21.9722C56.5893 21.7576 56.5329 21.6933 56.3259 21.6933C54.444 21.6933 52.5621 21.6933 50.6801 21.6933C50.5296 21.6933 50.4543 21.7362 50.4167 21.9293C50.0591 23.5168 49.6827 25.0829 49.3063 26.649C49.1746 27.2068 49.0241 27.3569 48.5159 27.3569C47.6879 27.3569 46.841 27.3569 46.013 27.3569C45.9189 27.3569 45.8248 27.3355 45.7495 27.314C45.4861 27.2282 45.392 27.0351 45.4672 26.7348C45.8813 25.1258 46.2953 23.4953 46.7093 21.8863C47.4621 18.9687 48.196 16.0511 48.9488 13.112C49.2499 11.9535 49.5322 10.795 49.8333 9.63653C50.2473 8.02753 51.2071 7.14794 52.6373 6.91196C53.4466 6.78324 54.2558 6.80469 55.065 7.06213C55.9871 7.36248 56.6646 8.00607 57.0222 9.01438C57.2668 9.72233 57.4362 10.4517 57.6244 11.1812C58.1137 13.0905 58.5842 14.9784 59.0735 16.8877C59.6757 19.2047 60.2591 21.5216 60.8613 23.8386C61.0871 24.7396 61.3318 25.6407 61.5576 26.5417C61.6893 27.0566 61.52 27.314 61.0495 27.314C60.579 27.3569 60.1462 27.3569 59.7133 27.3569Z" fill="#98999A" fill-opacity="0.5"/>
<path d="M71.9646 24.246V22.7872C71.9646 21.0066 71.9646 19.2474 71.9646 17.4668C71.9646 16.8661 72.0963 16.716 72.6232 16.716C73.4136 16.716 74.2229 16.716 75.0321 16.716C75.4649 16.716 75.6531 16.909 75.6531 17.4025V26.2841C75.6531 26.8419 75.5214 27.0135 75.0321 27.0993C73.4701 27.3997 71.8893 27.5284 70.2897 27.5284C69.6498 27.5284 69.01 27.5498 68.3889 27.464C66.9022 27.2709 65.5472 26.6488 64.4181 25.5118C63.2325 24.3104 62.5738 22.7872 62.348 21.0281C62.2539 20.363 62.2162 19.6765 62.2162 18.99C62.1974 17.5097 62.1974 16.0295 62.235 14.5492C62.2539 13.4551 62.4609 12.3824 62.8373 11.3527C63.6653 9.14298 65.1708 7.83433 67.1469 7.16928C68.2948 6.78312 69.4804 6.78312 70.666 6.86893C71.607 6.93329 72.548 6.99765 73.4701 7.08346C74.0159 7.12637 74.5428 7.21218 75.0886 7.31945C75.5402 7.40526 75.6343 7.53398 75.6343 8.04886C75.6343 8.64955 75.6343 9.25024 75.6343 9.85093C75.6343 10.0869 75.5214 10.2371 75.3144 10.2585C75.2015 10.28 75.0697 10.28 74.9568 10.28C73.9406 10.2371 72.9432 10.1513 71.9269 10.1298C71.0801 10.1084 70.2332 10.0869 69.3863 10.0869C67.8243 10.0869 66.6576 11.1381 66.2247 12.8329C66.0177 13.6267 65.9424 14.4205 65.9424 15.2357C65.9424 16.6516 65.9424 18.0675 65.9612 19.4834C65.9801 20.5561 66.1494 21.6073 66.6387 22.5298C67.2598 23.6882 68.2007 24.2889 69.3863 24.2889C70.2332 24.3104 71.0801 24.2675 71.9646 24.246Z" fill="#98999A" fill-opacity="0.5"/>
<path d="M100.927 15.3861H101.21H107.796C107.891 15.3861 107.985 15.3861 108.098 15.3861C108.512 15.4076 108.662 15.6007 108.662 16.0727C108.662 16.6519 108.662 17.2526 108.662 17.8318C108.662 18.1965 108.493 18.4111 108.173 18.4325C108.098 18.4325 108.041 18.4325 107.966 18.4325H101.172H100.946C100.946 18.5398 100.927 18.6256 100.927 18.69C100.927 19.827 100.927 20.9855 100.927 22.1225C100.927 22.4443 100.984 22.7661 101.04 23.0879C101.172 23.7315 101.586 24.0748 102.132 24.1821C102.489 24.2464 102.847 24.2893 103.205 24.2893C104.917 24.2893 106.611 24.2893 108.323 24.2893C108.813 24.2893 108.963 24.4824 108.982 25.0402C108.982 25.5551 108.982 26.0485 108.982 26.5634C108.982 26.9496 108.869 27.0997 108.53 27.1426C107.006 27.4215 105.463 27.5288 103.92 27.5288C102.885 27.5288 101.868 27.5288 100.852 27.2714C99.9111 27.0568 99.0455 26.6492 98.368 25.834C97.7846 25.126 97.4458 24.2679 97.3705 23.3239C97.2764 22.2942 97.2765 21.2644 97.2576 20.2346C97.2388 17.5529 97.2576 14.8713 97.2576 12.1896C97.2576 11.2027 97.4082 10.2373 97.8222 9.35771C98.2551 8.43521 98.9514 7.79161 99.7982 7.4269C100.589 7.08365 101.417 6.89056 102.264 6.86911C103.506 6.84766 104.767 6.8262 106.009 6.89056C106.874 6.93347 107.74 7.1051 108.606 7.23382C108.888 7.27673 108.982 7.4269 108.982 7.7487C108.982 8.32795 108.982 8.92865 108.982 9.50789C108.982 9.80824 108.775 10.0442 108.493 10.0657C108.436 10.0657 108.38 10.0657 108.323 10.0657C106.479 10.0657 104.635 10.0657 102.791 10.0657C102.489 10.0657 102.188 10.13 101.906 10.2373C101.285 10.4518 101.021 11.0096 100.984 11.6747C100.946 12.7045 100.946 13.7128 100.946 14.7425C100.927 14.9785 100.927 15.1716 100.927 15.3861Z" fill="#98999A" fill-opacity="0.5"/>
<path d="M84.5922 15.107C84.5922 12.6827 84.5922 10.2584 84.5922 7.83416C84.5922 7.34072 84.7993 7.06182 85.3074 7.08327C86.079 7.12618 86.8505 7.10472 87.6221 7.08327C88.1114 7.06182 88.2996 7.31926 88.2996 7.83416C88.2996 12.5755 88.2996 17.3382 88.2996 22.0795C88.2996 22.5086 88.3373 22.9377 88.4878 23.3668C88.676 23.8817 89.0336 24.1391 89.4852 24.2249C89.7863 24.2893 90.1063 24.3107 90.4262 24.3107C92.007 24.3107 93.5878 24.3107 95.1686 24.3107C95.6203 24.3107 95.7897 24.5253 95.7897 25.0402C95.7897 25.5551 95.7897 26.0914 95.7897 26.6063C95.7897 26.9281 95.7144 27.0568 95.4321 27.1212C94.9804 27.2285 94.5476 27.3143 94.0959 27.3357C93.0421 27.4216 91.9694 27.5288 90.9155 27.5503C89.617 27.5717 88.3373 27.4859 87.114 26.9496C85.7778 26.3489 85.0251 25.2118 84.724 23.6242C84.5358 22.6588 84.5922 21.6719 84.5922 20.685C84.5734 18.84 84.5734 16.9735 84.5922 15.107Z" fill="#98999A" fill-opacity="0.5"/>
<path d="M78.2315 17.2095V7.70565C78.2315 7.27658 78.4197 7.06204 78.7961 7.0835C79.6241 7.0835 80.4333 7.0835 81.2614 7.0835C81.3178 7.0835 81.3931 7.0835 81.4496 7.0835C81.6942 7.0835 81.92 7.34094 81.92 7.66274C81.92 9.9797 81.92 12.2967 81.92 14.6136C81.92 18.5396 81.92 22.4655 81.92 26.37C81.92 26.5202 81.9389 26.6918 81.9012 26.842C81.8448 27.1853 81.6754 27.3354 81.3743 27.3354C80.4898 27.3354 79.6241 27.3354 78.7396 27.3354C78.4385 27.3354 78.1938 27.0995 78.1938 26.7133C78.2315 23.5597 78.2315 20.3846 78.2315 17.2095Z" fill="#98999A" fill-opacity="0.5"/>
<path d="M82.5033 34.6942C82.5221 34.5869 82.5597 34.5011 82.5785 34.3938C82.9737 32.6775 83.3689 30.9827 83.7453 29.2664C83.783 29.0948 83.8394 29.0304 84.0088 29.0519C84.1593 29.0733 84.3287 29.0519 84.5169 29.0519C84.4793 29.202 84.4605 29.3308 84.4416 29.4595C83.99 31.4547 83.5195 33.4284 83.0678 35.4236C83.0302 35.6167 82.9737 35.7239 82.7856 35.681C82.6162 35.6596 82.428 35.6596 82.2398 35.681C81.9952 35.7239 81.9199 35.5952 81.8822 35.3592C81.5435 33.6429 81.1859 31.9481 80.8472 30.2318C80.8284 30.1246 80.8096 30.0387 80.7907 29.9529C80.7719 29.9529 80.7531 29.9529 80.7343 29.9529C80.7155 30.0387 80.6966 30.146 80.6778 30.2318C80.3203 31.991 79.9627 33.7288 79.6051 35.488C79.5675 35.6381 79.511 35.7025 79.3793 35.681C79.1535 35.6596 78.9276 35.6596 78.7018 35.681C78.5324 35.7025 78.476 35.6381 78.4383 35.445C78.1372 34.0935 77.8173 32.7204 77.4974 31.3689C77.328 30.618 77.1398 29.8457 76.9705 29.0733H77.7044C78.1372 30.9398 78.5701 32.8277 78.9841 34.6942C79.0029 34.6942 79.0217 34.6942 79.0406 34.6942C79.1158 34.3509 79.1911 33.9862 79.2664 33.6429C79.5675 32.1841 79.8686 30.7038 80.1697 29.245C80.2073 29.0948 80.2638 29.0304 80.3955 29.0519C80.6214 29.0733 80.8472 29.0733 81.0918 29.0519C81.2236 29.0519 81.28 29.0948 81.3177 29.245C81.487 30.1246 81.6752 30.9827 81.8634 31.8623C82.0516 32.7633 82.2398 33.6429 82.428 34.544C82.4468 34.5869 82.4656 34.6513 82.4656 34.6942C82.4656 34.6942 82.4844 34.6942 82.5033 34.6942Z" fill="#98999A" fill-opacity="0.5"/>
<path d="M64.7569 30.5322C64.7192 32.2269 64.6816 33.9431 64.644 35.6592H63.9288C64.0041 33.4711 64.0606 31.2831 64.1358 29.0735C64.4369 29.0735 64.7192 29.0735 65.0203 29.0735C65.058 29.0735 65.1144 29.1379 65.1333 29.2022C65.5285 30.3821 65.9048 31.5619 66.3 32.7418C66.4506 33.1922 66.6011 33.6427 66.7893 34.0932C66.8834 33.8143 66.9775 33.5355 67.0716 33.2566C67.5045 31.9266 67.9373 30.5966 68.3701 29.2666C68.4266 29.1164 68.4831 29.0306 68.6336 29.0521C68.8783 29.0735 69.1229 29.0521 69.3864 29.0521C69.4428 31.2616 69.5181 33.4497 69.5934 35.6377H68.8594C68.8218 33.9216 68.7842 32.2269 68.7465 30.5108C68.7277 30.5108 68.7089 30.4893 68.6901 30.4893C68.6524 30.5751 68.6336 30.661 68.596 30.7253C68.1819 31.991 67.7491 33.2566 67.3539 34.5437C67.2974 34.7153 67.2222 34.8226 67.0528 34.8011C66.8458 34.7797 66.6576 34.7797 66.4506 34.8011C66.3 34.8226 66.2436 34.7582 66.1871 34.6081C65.7731 33.321 65.3591 32.0553 64.9451 30.7897C64.9074 30.7039 64.8886 30.5966 64.851 30.5108C64.7945 30.5108 64.7757 30.5322 64.7569 30.5322Z" fill="#98999A" fill-opacity="0.5"/>
<path d="M51.6775 32.5271C52.1668 32.5271 52.6185 32.5271 53.0702 32.5271C53.2395 32.5271 53.4089 32.4842 53.5783 32.4413C53.8229 32.3984 53.9735 32.2053 53.9923 31.9264C54.0111 31.5403 54.0111 31.1327 54.0111 30.7465C54.0111 30.1244 53.7853 29.867 53.2395 29.8455C52.769 29.8455 52.2986 29.8455 51.8469 29.8455C51.7905 29.8455 51.734 29.8455 51.6587 29.867V32.5271H51.6775ZM53.8794 33.1921C54.3875 34.0288 54.8768 34.8226 55.3849 35.6807C55.1026 35.6807 54.8391 35.6807 54.5945 35.6807C54.538 35.6807 54.4628 35.5949 54.4251 35.5305C54.0111 34.844 53.5971 34.1575 53.1831 33.471C53.1078 33.3423 53.0137 33.278 52.882 33.278C52.4868 33.2994 52.0916 33.278 51.6587 33.278V35.6807C51.4141 35.6807 51.1883 35.6807 50.9812 35.6807C50.9436 35.6807 50.906 35.6163 50.8871 35.5734C50.8683 35.5305 50.8871 35.4661 50.8871 35.4018C50.8871 33.3852 50.8871 31.3687 50.8871 29.3521C50.8871 29.1161 50.9436 29.0518 51.1506 29.0518C51.941 29.0732 52.7314 29.0303 53.503 29.0947C54.3498 29.1376 54.7639 29.6524 54.8015 30.6393C54.8203 31.004 54.8015 31.3901 54.8015 31.7548C54.7827 32.4413 54.538 32.9562 53.8794 33.1921Z" fill="#98999A" fill-opacity="0.5"/>
<path d="M93.3243 29.8671V32.463C93.9265 32.463 94.5287 32.4845 95.1309 32.463C95.4885 32.4416 95.6767 32.1627 95.6767 31.755C95.6767 31.3689 95.6767 30.9827 95.6767 30.5965C95.6767 30.1674 95.5261 29.91 95.1498 29.8885C94.5475 29.8456 93.9453 29.8671 93.3243 29.8671ZM92.5715 29.0947C92.5904 29.0733 92.6092 29.0733 92.6092 29.0733C93.4937 29.0733 94.3782 29.0518 95.2627 29.1162C96.0531 29.1805 96.4483 29.7598 96.4483 30.6609C96.4483 31.0041 96.4483 31.3689 96.4483 31.7121C96.4295 32.3987 96.2225 32.935 95.6014 33.171C95.5826 33.171 95.5638 33.1925 95.545 33.2354C96.0343 34.0507 96.5236 34.8445 97.0317 35.7026C96.7306 35.7026 96.4859 35.7026 96.2225 35.7026C96.1848 35.7026 96.1284 35.6383 96.0907 35.5739C95.6955 34.9088 95.2815 34.2437 94.8863 33.5787C94.7734 33.3856 94.6416 33.2998 94.4346 33.2998C94.0583 33.3212 93.7007 33.2998 93.3055 33.2998V35.6597H92.5715V29.0947Z" fill="#98999A" fill-opacity="0.5"/>
<path d="M86.9635 32.3771C86.9635 32.8276 86.9635 33.2996 86.9635 33.7501C86.9635 34.3508 87.227 34.7585 87.7351 34.9086C87.9986 34.973 88.2809 35.0159 88.5632 34.973C89.203 34.8872 89.617 34.5868 89.6547 33.7716C89.6923 32.8276 89.6735 31.8622 89.6547 30.9182C89.6358 30.4248 89.4477 30.0172 88.996 29.8455C88.6384 29.6954 88.262 29.6954 87.8857 29.7597C87.2646 29.8885 86.9635 30.3175 86.9635 31.0255C86.9635 31.476 86.9635 31.9266 86.9635 32.3771ZM90.4074 32.3771C90.4074 32.8062 90.3886 33.2138 90.4074 33.6429C90.4451 34.8443 89.824 35.5523 88.8643 35.7239C88.3561 35.8097 87.848 35.8097 87.3587 35.6166C86.6436 35.3592 86.2108 34.7156 86.2108 33.8574C86.1919 32.8705 86.2108 31.8837 86.2108 30.8968C86.2296 29.867 86.7377 29.2019 87.6598 29.0088C88.2244 28.8801 88.789 28.9016 89.3347 29.1161C90.0311 29.395 90.4074 30.0172 90.4074 30.8539C90.4074 31.3902 90.4074 31.8837 90.4074 32.3771Z" fill="#98999A" fill-opacity="0.5"/>
<path d="M60.579 33.3213C60.2402 32.1413 59.9203 30.9614 59.5627 29.7386C59.224 30.9614 58.8852 32.1413 58.5465 33.3213H60.579ZM62.0092 35.6812C61.7834 35.6812 61.5764 35.7026 61.3694 35.6812C61.3129 35.6812 61.2376 35.5739 61.2188 35.5096C61.0871 35.1019 60.9553 34.6943 60.8424 34.2652C60.8048 34.1365 60.7483 34.0936 60.6354 34.0936C59.9203 34.0936 59.2052 34.0936 58.49 34.0936C58.3583 34.0936 58.3018 34.1365 58.2642 34.2867C58.1513 34.6943 58.0196 35.1019 57.9066 35.5096C57.869 35.6383 57.8125 35.7026 57.6808 35.7026C57.4926 35.6812 57.3044 35.7026 57.0974 35.7026C57.1915 35.3379 57.2856 35.0161 57.3797 34.6943C57.869 33.0639 58.3395 31.4119 58.8288 29.7815C58.8476 29.7171 58.8664 29.6742 58.9041 29.6098C58.9605 29.4382 58.9793 29.2022 59.0922 29.1164C59.2052 29.0306 59.4122 29.0949 59.5815 29.0949C60.052 29.0949 60.0708 29.0949 60.2214 29.6098C60.8048 31.5836 61.3882 33.5787 61.9904 35.5525C62.0092 35.5525 62.0092 35.5954 62.0092 35.6812Z" fill="#98999A" fill-opacity="0.5"/>
<path d="M75.145 29.0732V29.8241H74.9004C74.1664 29.8241 73.4325 29.8241 72.6797 29.8241C72.5292 29.8241 72.4727 29.867 72.4727 30.0601C72.4727 30.6607 72.4727 31.2829 72.4727 31.905H74.938V32.6558H72.4915V34.9083H75.145V35.6592H71.7576V29.0732H75.145Z" fill="#98999A" fill-opacity="0.5"/>
<path d="M105.011 34.7584C105.35 34.8228 105.67 34.9301 105.99 34.973C106.404 35.0159 106.818 35.0159 107.232 34.9515C107.571 34.9086 107.74 34.6512 107.759 34.265C107.778 34.029 107.759 33.8145 107.759 33.5785C107.759 33.321 107.665 33.1065 107.439 33.0207C107.081 32.892 106.724 32.7847 106.366 32.656C106.122 32.5702 105.877 32.4843 105.651 32.3985C105.312 32.2483 105.087 31.9694 105.068 31.5618C105.03 31.1113 105.011 30.6822 105.049 30.2317C105.086 29.5881 105.444 29.2233 105.99 29.0732C106.78 28.8801 107.552 28.9874 108.323 29.159C108.361 29.159 108.436 29.2448 108.417 29.3092C108.417 29.5022 108.38 29.6953 108.38 29.9099C108.041 29.867 107.702 29.8026 107.382 29.7812C107.044 29.7597 106.686 29.7597 106.347 29.8026C105.971 29.8455 105.802 30.0815 105.783 30.5106C105.783 30.7251 105.783 30.9397 105.783 31.1542C105.783 31.4546 105.896 31.6691 106.14 31.7549C106.498 31.8836 106.874 31.9909 107.251 32.1196C107.458 32.184 107.646 32.2698 107.853 32.3342C108.286 32.5058 108.53 32.8491 108.549 33.3639C108.568 33.7716 108.549 34.2006 108.512 34.6297C108.455 35.1875 108.154 35.5522 107.684 35.681C106.799 35.9384 105.933 35.8311 105.068 35.5093C105.03 35.4879 104.955 35.4021 104.974 35.3377C104.917 35.1232 104.974 34.9515 105.011 34.7584Z" fill="#98999A" fill-opacity="0.5"/>
<path d="M48.9111 29.0732V29.8026C48.8358 29.8026 48.7605 29.8026 48.7041 29.8241C47.9513 29.8241 47.1985 29.8241 46.4457 29.8241C46.2576 29.8241 46.2199 29.8884 46.2199 30.103C46.2199 30.6822 46.2199 31.24 46.2199 31.8192C46.2199 32.0122 46.2764 32.0552 46.4269 32.0552C47.1044 32.0552 47.8007 32.0552 48.4782 32.0552H48.7417V32.8274H46.2387V35.6592H45.486V29.0947H48.9111V29.0732Z" fill="#98999A" fill-opacity="0.5"/>
<path d="M99.9111 32.3125C100.589 31.2613 101.247 30.21 101.925 29.1803C101.962 29.1159 102.038 29.073 102.094 29.073C102.339 29.0516 102.602 29.073 102.885 29.073C102.169 30.1671 101.473 31.2398 100.758 32.3125C101.511 33.4281 102.264 34.5222 103.054 35.6807C102.734 35.6807 102.471 35.6807 102.188 35.6807C102.151 35.6807 102.113 35.6163 102.075 35.5734C101.36 34.4793 100.645 33.3851 99.9111 32.3125Z" fill="#98999A" fill-opacity="0.5"/>
<path d="M99.7042 29.0732H98.989V35.6592H99.7042V29.0732Z" fill="#98999A" fill-opacity="0.5"/>
<path d="M111.466 8.30651H111.711C111.824 8.30651 111.899 8.28506 111.937 8.24217C111.974 8.19927 111.993 8.15637 111.993 8.09203C111.993 8.04914 111.974 8.00624 111.955 7.98479C111.937 7.96334 111.899 7.92045 111.861 7.92045C111.824 7.899 111.767 7.899 111.654 7.899H111.428V8.30651H111.466ZM111.259 9.10008V7.70597H111.673C111.824 7.70597 111.918 7.72742 111.993 7.74887C112.049 7.77031 112.106 7.81321 112.144 7.87755C112.181 7.9419 112.2 8.00624 112.2 8.09203C112.2 8.19927 112.162 8.28506 112.106 8.34941C112.049 8.41375 111.955 8.47809 111.842 8.47809C111.88 8.49954 111.918 8.52099 111.955 8.54244C112.012 8.60678 112.068 8.69257 112.144 8.82125L112.294 9.10008H112.049L111.937 8.8856C111.842 8.71402 111.786 8.60678 111.73 8.56388C111.692 8.54244 111.635 8.52099 111.579 8.52099H111.466V9.12152H111.259V9.10008ZM111.767 7.29846C111.598 7.29846 111.447 7.34136 111.297 7.4486C111.146 7.53439 111.033 7.68452 110.939 7.8561C110.864 8.02769 110.807 8.22072 110.807 8.3923C110.807 8.58533 110.845 8.75691 110.939 8.92849C111.014 9.10007 111.146 9.22876 111.297 9.336C111.447 9.44324 111.598 9.48614 111.767 9.48614C111.937 9.48614 112.087 9.44324 112.238 9.336C112.388 9.25021 112.501 9.10007 112.595 8.92849C112.671 8.75691 112.727 8.58533 112.727 8.3923C112.727 8.19927 112.689 8.02769 112.595 7.8561C112.52 7.68452 112.388 7.55584 112.238 7.4486C112.087 7.34136 111.918 7.29846 111.767 7.29846ZM111.767 7.08398C111.955 7.08398 112.144 7.14833 112.332 7.25557C112.52 7.36281 112.652 7.53439 112.765 7.72742C112.859 7.94189 112.915 8.15637 112.915 8.37085C112.915 8.58533 112.859 8.7998 112.765 9.01428C112.671 9.22876 112.52 9.3789 112.351 9.48614C112.162 9.59337 111.974 9.65771 111.786 9.65771C111.598 9.65771 111.391 9.59337 111.221 9.48614C111.033 9.3789 110.902 9.20731 110.807 9.01428C110.713 8.7998 110.657 8.58533 110.657 8.37085C110.657 8.13492 110.713 7.92045 110.807 7.72742C110.92 7.51294 111.052 7.36281 111.24 7.25557C111.391 7.12688 111.579 7.08398 111.767 7.08398Z" fill="#98999A" fill-opacity="0.5"/>
</svg>
