<svg width="236" height="192" viewBox="0 0 236 192" fill="none" xmlns="http://www.w3.org/2000/svg">
<path d="M8.15066 101.333C14.9915 51.3226 76.0644 7.81219 145.038 17.7811C214.011 27.7499 232.766 51.2197 225.925 101.23C219.084 151.241 157.624 183.701 88.6508 173.732C19.6773 163.763 1.30985 151.344 8.15066 101.333Z" fill="#D3D3D3" fill-opacity="0.23"/>
<path d="M166.555 148L188 130.132L166.555 112.261V122.984L112.703 122.986V137.281H166.555V148Z" fill="#A2A1BB"/>
<path d="M87.6836 97.9643C87.6836 84.17 98.9088 72.9448 112.703 72.9448L119.852 65.1261L112.703 58.6477C90.9895 58.6477 73.3867 76.2505 73.3867 97.9641C73.3867 119.678 90.9895 137.281 112.703 137.281L119.852 130.914L112.703 122.984C98.9088 122.984 87.6836 111.759 87.6836 97.9643Z" fill="#A2A1BB"/>
<path d="M112.703 137.281L119.852 130.914L112.703 122.984C98.9088 122.984 87.6836 111.759 87.6836 97.9644H73.3867C73.3867 119.678 90.9895 137.281 112.703 137.281Z" fill="#A2A1BB"/>
<circle cx="113" cy="98" r="25" fill="white"/>
<path d="M116.277 58.8283V47.9253L94.832 65.7964L116.277 83.6639V73.3061C128.37 75.0591 137.723 85.3938 137.723 97.9644C137.723 111.759 126.497 122.984 112.703 122.984L105.555 130.131L112.703 137.281C134.417 137.281 152.02 119.678 152.02 97.9644C152.02 77.4576 136.313 60.6362 116.277 58.8283Z" fill="#A2A1BB"/>
<path d="M112.703 122.984L105.555 130.131L112.703 137.281C134.417 137.281 152.02 119.678 152.02 97.9644H137.723C137.723 111.759 126.497 122.984 112.703 122.984Z" fill="#A2A1BB"/>
<path d="M66 122.987H112.703V137.281H66V122.987Z" fill="#A2A1BB"/>
</svg>
