<svg width="279" height="325" viewBox="0 0 279 325" fill="none" xmlns="http://www.w3.org/2000/svg">
<path d="M173.445 92.6099C193.729 92.6099 210.173 76.1664 210.173 55.8823C210.173 35.5983 193.729 19.1548 173.445 19.1548C153.161 19.1548 136.718 35.5983 136.718 55.8823C136.718 76.1664 153.161 92.6099 173.445 92.6099Z" fill="#34334B"/>
<path d="M193.894 264.291L196.723 277.639L249.555 273.081L245.379 253.381L193.894 264.291Z" fill="#FCD2B1"/>
<path d="M189.783 306.009L180.893 264.057L197.101 260.623L202.556 286.366C203.467 290.664 202.633 295.149 200.238 298.833C197.842 302.516 194.081 305.098 189.783 306.009Z" fill="#34334B"/>
<path d="M160.796 263.579L154.849 275.859L104.65 258.769L113.426 240.644L160.796 263.579Z" fill="#FCD2B1"/>
<path d="M147.093 282.933L158.56 259.248L173.473 266.469L154.785 305.066C150.83 303.151 147.798 299.743 146.355 295.592C144.913 291.442 145.178 286.888 147.093 282.933Z" fill="#34334B"/>
<path d="M61.8971 239.324C63.6154 239.644 65.3831 239.584 67.0755 239.146C68.7678 238.709 70.3438 237.907 71.6923 236.794C73.0408 235.682 74.1291 234.288 74.8805 232.71C75.632 231.132 76.0282 229.408 76.0414 227.66L158.816 151.344L138.26 135.422L63.3164 215.492C60.3786 215.665 57.6062 216.909 55.5244 218.989C53.4426 221.069 52.1962 223.84 52.0213 226.778C51.8463 229.715 52.755 232.615 54.5752 234.928C56.3953 237.24 59.0005 238.804 61.8971 239.324Z" fill="#FCD2B1"/>
<path d="M174.401 96.4944C189.498 96.4944 201.736 84.256 201.736 69.1591C201.736 54.0622 189.498 41.8237 174.401 41.8237C159.304 41.8237 147.065 54.0622 147.065 69.1591C147.065 84.256 159.304 96.4944 174.401 96.4944Z" fill="#FCD2B1"/>
<path d="M114.458 160.5L122.249 137.128L162.316 104.852C162.316 104.852 182.349 107.078 207.947 92.6099L216.299 92.8485C217.722 92.8886 219.123 93.2173 220.415 93.8147C221.708 94.4122 222.866 95.2659 223.819 96.3241C224.771 97.3823 225.499 98.623 225.958 99.9709C226.417 101.319 226.598 102.746 226.489 104.166C224.385 131.419 220.316 201.601 231.875 225.608C231.875 225.608 170.663 241.189 142.839 208.914C142.839 208.914 153.968 196.671 142.839 174.412L128.37 178.864L114.458 160.5Z" fill="#FF8C4A"/>
<path d="M146.178 208.914C146.178 208.914 73.8359 202.236 66.0452 223.382C58.2545 244.529 67.1581 254.545 80.5136 258.997C93.8691 263.449 126.145 269.014 126.145 269.014L140.613 251.206L178.454 253.432C178.454 253.432 220.618 277.887 232.276 304.042C234.777 309.703 238.765 314.58 243.817 318.154C248.869 321.728 254.795 323.866 260.965 324.341C270.312 324.992 278.62 321.462 278.62 306.854C278.62 273.465 231.876 225.608 231.876 225.608L146.178 208.914Z" fill="#34334B"/>
<path d="M91.0864 241.746C91.0864 241.746 110.007 236.181 140.056 250.649L91.0864 241.746Z" fill="#34334B"/>
<path d="M147.131 51.7266C157.806 58.2432 169.841 62.2088 182.299 63.3146L178.592 58.8728C181.291 59.8707 184.132 60.4347 187.007 60.5438C188.447 60.5855 189.877 60.2892 191.181 59.6786C192.486 59.068 193.629 58.1601 194.519 57.0278C195.246 55.8519 195.678 54.5177 195.778 53.1388C195.878 51.76 195.643 50.3774 195.093 49.1091C193.963 46.5792 192.205 44.3806 189.985 42.7224C186.051 39.6101 181.408 37.5195 176.469 36.6369C171.531 35.7543 166.451 36.1072 161.682 37.664C158.411 38.6417 155.481 40.5209 153.229 43.0866C152.122 44.379 151.353 45.9261 150.991 47.5891C150.629 49.252 150.686 50.9788 151.156 52.6144" fill="#34334B"/>
<path d="M176.902 23.2319C168.281 14.489 157.848 7.74228 146.337 3.4667C138.949 0.729474 130.906 -0.961713 123.182 0.592741C115.458 2.14719 108.153 7.49092 105.998 15.0698C104.235 21.2672 106.055 27.9398 108.79 33.7737C111.524 39.6075 115.175 45.0173 117.387 51.0689C119.643 57.2435 120.322 63.884 119.361 70.3875C118.4 76.891 115.83 83.0515 111.885 88.3098C107.939 93.5682 102.742 97.7578 96.7668 100.498C90.7913 103.239 84.2258 104.444 77.6665 104.004C85.2562 105.021 92.252 108.588 99.6705 110.486C107.089 112.385 115.845 112.256 121.358 106.941C127.191 101.318 127.307 92.1756 127.025 84.0785C126.606 72.0419 126.187 60.0052 125.768 47.9686C125.554 41.8302 125.371 35.495 127.585 29.7656C129.799 24.0363 135.06 19.0193 141.202 19.0714C145.857 19.111 149.977 21.9309 153.71 24.7119C157.443 27.4929 161.394 30.46 166.031 30.8737C170.668 31.2873 175.962 27.8559 175.615 23.2137" fill="#34334B"/>
<path d="M187.06 204.894C187.675 204.899 188.29 204.952 188.897 205.053L226.688 164.824L222.835 151.98L241.458 143.632L253.017 171.888L198.647 215.136C198.94 217.49 198.508 219.877 197.411 221.98C196.313 224.083 194.602 225.802 192.503 226.908C190.405 228.015 188.02 228.456 185.665 228.174C183.309 227.892 181.096 226.899 179.319 225.328C177.541 223.757 176.285 221.682 175.715 219.38C175.146 217.077 175.291 214.656 176.131 212.437C176.971 210.219 178.467 208.309 180.419 206.962C182.371 205.614 184.688 204.893 187.06 204.894H187.06Z" fill="#FCD2B1"/>
<path d="M211.842 94.2794C213.138 93.7035 214.537 93.3955 215.955 93.3738C217.372 93.3521 218.78 93.6172 220.093 94.1532C221.405 94.6893 222.596 95.4851 223.594 96.4929C224.591 97.5008 225.374 98.6999 225.897 100.018L245.231 148.814L215.181 168.847L211.842 94.2794Z" fill="#FF8C4A"/>
<path d="M197.629 152.486C197.629 152.85 197.334 153.146 196.97 153.146C196.605 153.146 196.31 152.85 196.31 152.486C196.31 151.938 195.876 151.491 195.342 151.491C194.809 151.491 194.375 151.938 194.375 152.486C194.375 152.85 194.08 153.146 193.715 153.146C193.351 153.146 193.055 152.85 193.055 152.486C193.055 151.21 194.081 150.172 195.342 150.172C196.603 150.172 197.629 151.21 197.629 152.486Z" fill="#FCD2B1"/>
<path d="M206.611 159.066C206.468 159.066 206.324 159.02 206.203 158.925L205.082 158.043C204.411 157.515 205.227 156.478 205.898 157.005L207.019 157.888C207.477 158.248 207.216 159.066 206.611 159.066Z" fill="#FCD2B1"/>
<path d="M166.874 154.018C167.953 152.686 169.423 151.715 171.053 151.244C171.047 146.766 174.545 142.889 179.082 142.709C179.813 141.775 180.808 140.969 182.162 140.361C184.363 139.374 186.837 140.122 188.745 141.401L189.158 139.346C189.27 138.786 190.025 138.631 190.349 139.103L192.446 142.161L199.193 131.305C199.562 130.707 200.514 131.057 200.408 131.751L198.848 141.887C200.751 141.854 201.848 143.532 203.099 144.692C204.728 146.203 206.659 144.503 206.739 144.431C207.18 144.029 207.906 144.4 207.839 144.994C207.55 147.535 205.626 149.753 203.063 150.107L208.601 155.679C211.874 158.977 208.979 164.835 204.297 163.271C203.056 162.857 196.157 160.665 192.156 159.395C190.961 159.016 189.676 159.505 189.032 160.582L179.982 175.719C179.518 176.495 178.429 175.744 178.849 175.041L187.899 159.905C188.859 158.299 190.774 157.572 192.555 158.138C194.515 158.759 197.169 159.602 199.515 160.35C199.345 157.373 200.594 155.398 201.74 154.231C202.456 153.501 203.207 153.003 203.769 152.689C202.651 151.565 201.533 150.44 200.414 149.315C199.813 148.71 200.749 147.779 201.35 148.384L201.802 148.838C203.672 148.938 205.27 148.078 206.066 146.356C204.929 146.79 203.485 146.85 202.202 145.66C201.225 144.754 200.177 143.056 198.642 143.221L198.296 145.452C198.428 145.556 198.559 145.662 198.69 145.774C199.337 146.33 198.477 147.332 197.83 146.776C196.264 145.43 194.68 144.776 192.987 144.776C192.77 144.776 192.566 144.669 192.443 144.49L190.144 141.138L189.491 144.391C189.488 144.753 189.194 145.047 188.831 145.047C186.631 144.973 184.427 146.055 184.427 148.579V152.354C184.427 154.099 183.751 155.74 182.523 156.973C181.407 158.095 179.955 158.757 178.396 158.869V161.111C178.396 162.456 178.001 163.754 177.255 164.864C176.757 165.605 175.698 164.814 176.16 164.128C176.759 163.236 177.076 162.193 177.076 161.111C177.076 161.111 177.082 152.29 177.08 151.988C177.064 149.453 177.046 146.539 178.205 144.129C174.896 144.708 172.373 147.615 172.373 151.105V166.466C172.911 166.4 173.431 166.252 173.928 166.025C174.704 165.672 175.253 166.871 174.477 167.226C173.798 167.536 173.082 167.725 172.343 167.795V169.326C172.343 173.028 169.345 176.04 165.66 176.04C165.295 176.04 165 175.745 165 175.38V159.319C165 157.393 165.665 155.51 166.874 154.018ZM202.682 155.155C201.222 156.643 200.615 158.536 200.877 160.784C202.719 161.372 204.199 161.847 204.715 162.019C208.295 163.215 209.701 159.001 207.648 156.592L204.742 153.668C204.28 153.894 203.458 154.364 202.682 155.155ZM197.56 141.583L197.91 139.317C197.339 139.074 196.867 138.633 196.563 138.092L195.644 139.583C196.112 140.729 196.964 141.306 197.56 141.583ZM197.45 136.652C197.531 137.137 197.727 137.619 198.124 137.928L198.609 134.77L197.45 136.652ZM197.089 144.622L197.352 142.924C196.674 142.666 195.586 142.088 194.827 140.877L193.258 143.344C194.498 143.786 195.848 143.893 197.089 144.622ZM178.403 152.883V157.546C179.606 157.436 180.722 156.912 181.587 156.042C182.567 155.058 183.107 153.748 183.107 152.354V148.579C183.107 145.786 185.522 143.596 188.278 143.727L188.46 142.82C188.123 142.562 187.51 142.136 186.745 141.789C185.247 141.109 183.887 141.034 182.702 141.565C181.484 142.112 180.609 142.843 179.98 143.702C179.962 143.732 179.942 143.761 179.919 143.788C178.363 145.994 178.381 149.023 178.4 151.98C178.402 152.285 178.403 152.586 178.403 152.883ZM166.32 174.68C168.967 174.351 171.023 172.075 171.023 169.326V165.521C171.023 165.453 171.034 165.388 171.053 165.326V152.628C169.827 153.057 168.728 153.827 167.899 154.849C166.881 156.106 166.32 157.694 166.32 159.319V174.68Z" fill="#FCD2B1"/>
<path d="M159.117 318.234C173.542 318.234 185.235 306.541 185.235 292.117C185.235 277.692 173.542 265.999 159.117 265.999C144.693 265.999 133 277.692 133 292.117C133 306.541 144.693 318.234 159.117 318.234Z" fill="#EB8245"/>
<path d="M150.74 287.716C151.948 287.716 152.832 288.088 153.392 288.832C153.96 289.568 154.244 290.684 154.244 292.18C154.244 293.692 153.96 294.828 153.392 295.588C152.824 296.34 151.94 296.716 150.74 296.716H147.644L147.764 294.916V289.456L147.644 287.716H150.74ZM150.74 295.06C151.164 295.06 151.5 294.968 151.748 294.784C151.996 294.592 152.172 294.288 152.276 293.872C152.388 293.456 152.444 292.892 152.444 292.18C152.444 291.436 152.388 290.864 152.276 290.464C152.172 290.064 151.996 289.784 151.748 289.624C151.508 289.456 151.172 289.372 150.74 289.372H149.492V295.06H150.74ZM162.174 296.716H160.074L159.798 294.916V294.892L156.726 294.916L156.45 296.716H154.59L155.178 294.916L156.654 289.516L157.014 287.716H159.666L160.026 289.516L161.586 294.916L162.174 296.716ZM159.318 293.248L158.226 289.408L157.182 293.26L159.318 293.248ZM168.451 289.42L168.319 289.456L167.239 289.312H166.135V294.916L166.255 296.716H164.287L164.407 294.916V289.312H163.303L162.223 289.456L162.091 289.42L162.355 287.716H168.187L168.451 289.42ZM175.944 296.716H173.844L173.568 294.916V294.892L170.496 294.916L170.22 296.716H168.36L168.948 294.916L170.424 289.516L170.784 287.716H173.436L173.796 289.516L175.356 294.916L175.944 296.716ZM173.088 293.248L171.996 289.408L170.952 293.26L173.088 293.248Z" fill="white"/>
<path d="M63.1174 180.234C77.5416 180.234 89.2347 168.541 89.2347 154.117C89.2347 139.693 77.5416 128 63.1174 128C48.6931 128 37 139.693 37 154.117C37 168.541 48.6931 180.234 63.1174 180.234Z" fill="#4E4C82"/>
<path d="M52.0234 154C52.4874 154.184 52.8514 154.448 53.1154 154.792C53.3794 155.136 53.5114 155.544 53.5114 156.016C53.5114 156.544 53.3714 157.012 53.0914 157.42C52.8114 157.828 52.4234 158.148 51.9274 158.38C51.4394 158.604 50.8914 158.716 50.2834 158.716H46.9234L47.0434 156.916V151.456L46.9234 149.716H50.2954C50.8394 149.716 51.3114 149.828 51.7114 150.052C52.1194 150.268 52.4314 150.576 52.6474 150.976C52.8634 151.368 52.9714 151.824 52.9714 152.344C52.9714 152.704 52.8874 153.024 52.7194 153.304C52.5594 153.584 52.3274 153.816 52.0234 154ZM48.7714 151.372V153.256H49.9114C50.3514 153.256 50.6714 153.184 50.8714 153.04C51.0714 152.888 51.1714 152.656 51.1714 152.344C51.1714 152.016 51.0714 151.772 50.8714 151.612C50.6714 151.452 50.3594 151.372 49.9354 151.372H48.7714ZM50.2834 157.06C50.7394 157.06 51.0914 156.968 51.3394 156.784C51.5874 156.6 51.7114 156.344 51.7114 156.016C51.7114 155.664 51.5914 155.392 51.3514 155.2C51.1194 155.008 50.7714 154.912 50.3074 154.912H48.7714V157.06H50.2834ZM54.7426 156.916V151.456L54.6226 149.716H56.5906L56.4706 151.456V156.916L56.5906 158.716H54.6226L54.7426 156.916ZM57.7327 157.312L61.4527 151.372H58.9927L57.9127 151.516L57.7807 151.48L58.0567 149.716H63.8527L63.6727 150.928L59.8807 157.06H64.0447L63.7807 158.716H57.7327V157.312ZM71.568 156.916L71.688 158.716H68.964L66.672 151.612V156.916L66.792 158.716H65.064L65.184 156.916V151.456L65.064 149.716H67.8L70.08 156.784V151.456L69.96 149.716H71.688L71.568 151.456V156.916ZM73.2465 156.916V151.456L73.1265 149.716H75.0945L74.9745 151.456V156.916L75.0945 158.716H73.1265L73.2465 156.916ZM79.2487 158.848C78.7127 158.848 78.1967 158.752 77.7007 158.56C77.2127 158.36 76.7887 158.076 76.4287 157.708L76.1767 156.016L76.3447 155.968C76.7927 156.352 77.2447 156.648 77.7007 156.856C78.1567 157.056 78.5967 157.156 79.0207 157.156C79.5247 157.156 79.9127 157.08 80.1847 156.928C80.4647 156.768 80.6047 156.544 80.6047 156.256C80.6047 155.984 80.4727 155.764 80.2087 155.596C79.9527 155.42 79.4887 155.232 78.8167 155.032C78.1847 154.848 77.6887 154.644 77.3287 154.42C76.9687 154.196 76.7087 153.916 76.5487 153.58C76.3887 153.244 76.3087 152.808 76.3087 152.272C76.3087 151.432 76.5807 150.776 77.1247 150.304C77.6767 149.832 78.4007 149.596 79.2967 149.596C79.8407 149.596 80.3647 149.68 80.8687 149.848C81.3727 150.016 81.7807 150.24 82.0927 150.52L81.8287 152.14L81.6487 152.188C81.4807 151.924 81.1887 151.708 80.7727 151.54C80.3647 151.372 79.9247 151.288 79.4527 151.288C79.0207 151.288 78.6887 151.364 78.4567 151.516C78.2247 151.668 78.1087 151.892 78.1087 152.188C78.1087 152.492 78.2207 152.728 78.4447 152.896C78.6767 153.056 79.0927 153.22 79.6927 153.388C80.3807 153.58 80.9167 153.788 81.3007 154.012C81.6847 154.228 81.9647 154.5 82.1407 154.828C82.3167 155.156 82.4047 155.576 82.4047 156.088C82.4047 156.96 82.1167 157.64 81.5407 158.128C80.9647 158.608 80.2007 158.848 79.2487 158.848Z" fill="white"/>
<path d="M23.2194 284.065C33.7712 293.871 50.2967 293.245 60.1303 282.667C69.9638 272.088 69.3815 255.562 58.8298 245.756C48.278 235.949 31.7525 236.575 21.9189 247.154C12.0854 257.732 12.6676 274.258 23.2194 284.065Z" fill="#4E4C82" fill-opacity="0.5"/>
<path d="M31.1656 266.554L31.6785 268.195L33.0905 271.795C33.5281 272.911 33.6076 273.824 33.329 274.535C33.0579 275.244 32.4168 275.797 31.4055 276.194C30.3942 276.592 29.5449 276.626 28.8575 276.294C28.1777 275.96 27.619 275.235 27.1814 274.12L25.7694 270.519L25.0301 268.967L26.8866 268.237L27.3995 269.878L28.8115 273.478C29.0505 274.088 29.3184 274.482 29.6154 274.662C29.9199 274.839 30.3137 274.832 30.7966 274.642C31.2796 274.452 31.5689 274.19 31.6643 273.856C31.7673 273.519 31.6994 273.046 31.4604 272.436L30.0484 268.836L29.3091 267.284L31.1656 266.554ZM35.0564 272.648L33.0916 267.639L32.3523 266.087L34.2088 265.357L34.7217 266.998L36.6865 272.007L37.4474 273.614L35.5909 274.345L35.0564 272.648ZM38.6414 272.255L37.5982 265.231L37.1645 263.558L39.1003 262.797L39.251 264.58L40.2941 271.605L40.7381 273.336L38.791 274.102L38.6414 272.255ZM46.0231 260.709L46.5361 262.35L47.9481 265.95C48.3857 267.066 48.4651 267.979 48.1865 268.69C47.9155 269.399 47.2743 269.952 46.2631 270.349C45.2518 270.747 44.4025 270.781 43.7151 270.45C43.0353 270.115 42.4766 269.39 42.039 268.275L40.627 264.674L39.8877 263.122L41.7442 262.392L42.2571 264.033L43.6691 267.634C43.908 268.243 44.176 268.637 44.473 268.817C44.7775 268.994 45.1712 268.987 45.6542 268.797C46.1372 268.607 46.4264 268.345 46.5219 268.011C46.6249 267.674 46.5569 267.201 46.318 266.591L44.906 262.991L44.1667 261.439L46.0231 260.709ZM57.116 265.877L54.9199 266.741L53.4911 265.396L52.2361 264.429L51.9855 265.989L51.8974 267.93L49.7127 268.789L50.2083 266.688L50.6598 263.574L48.3228 261.647L46.5986 260.482L48.7947 259.618L50.1453 260.93L51.211 261.782L51.4018 260.436L51.4549 258.572L53.6397 257.712L53.1791 259.736L52.8046 262.68L55.3136 264.679L57.116 265.877Z" fill="white"/>
</svg>
