<svg width="35" height="35" viewBox="0 0 35 35" fill="none" xmlns="http://www.w3.org/2000/svg">
<g clip-path="url(#clip0)">
<path d="M21.7125 3.48567L23.2457 0.930103C23.4201 0.639055 23.3262 0.262044 23.0351 0.0876612C22.7435 -0.0873357 22.3671 0.00661001 22.1927 0.298272L20.5747 2.99507C19.6113 2.65244 18.5798 2.45595 17.5003 2.45595C16.4208 2.45595 15.3893 2.65244 14.4259 2.99507L12.8079 0.298272C12.6335 0.00661001 12.2565 -0.0867217 11.9655 0.0876612C11.6744 0.262044 11.5805 0.639055 11.7549 0.930103L13.2881 3.48567C10.3242 5.01766 8.28994 8.10621 8.28994 11.6669C8.28994 12.0065 8.56502 12.281 8.90396 12.281H26.0966C26.4356 12.281 26.7107 12.0065 26.7107 11.6669C26.7101 8.10682 24.6764 5.01828 21.7125 3.48567ZM9.54132 11.0529C9.8557 6.9371 13.3053 3.68462 17.5003 3.68462C21.6953 3.68462 25.1449 6.9371 25.4593 11.0529H9.54132Z" fill="white"/>
<path d="M21.7844 6.97778H20.9751C20.7516 6.97778 20.5704 7.15892 20.5704 7.38242V8.19171C20.5704 8.41521 20.7516 8.59635 20.9751 8.59635H21.785C22.0085 8.59635 22.1896 8.41521 22.1896 8.19171V7.38242C22.1896 7.15892 22.0079 6.97778 21.7844 6.97778Z" fill="white"/>
<path d="M14.0249 6.97778H13.215C12.9915 6.97778 12.8104 7.15892 12.8104 7.38242V8.19171C12.8104 8.41521 12.9915 8.59635 13.215 8.59635H14.0249C14.2484 8.59635 14.4296 8.41521 14.4296 8.19171V7.38242C14.4296 7.15892 14.2484 6.97778 14.0249 6.97778Z" fill="white"/>
<path d="M26.096 12.8951H8.90335C8.56441 12.8951 8.28933 13.1696 8.28933 13.5092V25.8947C8.28933 27.5298 9.62115 28.8598 11.2575 28.8598H11.9735V32.5476C11.9735 33.8997 13.075 35 14.4296 35C15.7841 35 16.8857 33.8997 16.8857 32.5476V28.8598H18.1137V32.5476C18.1137 33.8997 19.2153 35 20.5698 35C21.9244 35 23.0259 33.8997 23.0259 32.5476V28.8598H23.7419C25.3789 28.8598 26.7101 27.5298 26.7101 25.8947V13.5092C26.7101 13.1696 26.4356 12.8951 26.096 12.8951ZM25.482 25.8947C25.482 26.8525 24.7016 27.6317 23.7419 27.6317H22.4119C22.0729 27.6317 21.7979 27.9062 21.7979 28.2457V32.5476C21.7979 33.223 21.2471 33.772 20.5698 33.772C19.8925 33.772 19.3418 33.2224 19.3418 32.5476V28.2457C19.3418 27.9062 19.0667 27.6317 18.7277 27.6317H16.2716C15.9327 27.6317 15.6576 27.9062 15.6576 28.2457V32.5476C15.6576 33.223 15.1068 33.772 14.4296 33.772C13.7523 33.772 13.2015 33.2224 13.2015 32.5476V28.2457C13.2015 27.9062 12.9264 27.6317 12.5875 27.6317H11.2581C10.2984 27.6317 9.51738 26.8519 9.51738 25.8947V14.1232H25.482V25.8947Z" fill="white"/>
<path d="M29.4732 12.8951C28.2881 12.8951 27.3241 13.8604 27.3241 15.0467V23.6381C27.3241 24.8244 28.2881 25.7897 29.4732 25.7897C30.6582 25.7897 31.6223 24.8244 31.6223 23.6381V15.0467C31.6223 13.8604 30.6582 12.8951 29.4732 12.8951ZM30.3942 23.6381C30.3942 24.1471 29.981 24.5616 29.4732 24.5616C28.9654 24.5616 28.5521 24.1471 28.5521 23.6381V15.0467C28.5521 14.5377 28.9654 14.1232 29.4732 14.1232C29.981 14.1232 30.3942 14.5377 30.3942 15.0467V23.6381Z" fill="white"/>
<path d="M5.52622 12.8951C4.34115 12.8951 3.37714 13.8604 3.37714 15.0467V23.6381C3.37714 24.8244 4.34115 25.7897 5.52622 25.7897C6.71129 25.7897 7.67531 24.8244 7.67531 23.6381V15.0467C7.67531 13.8604 6.71129 12.8951 5.52622 12.8951ZM6.44726 23.6381C6.44726 24.1471 6.03402 24.5616 5.52622 24.5616C5.01842 24.5616 4.60518 24.1471 4.60518 23.6381V15.0467C4.60518 14.5377 5.01842 14.1232 5.52622 14.1232C6.03402 14.1232 6.44726 14.5377 6.44726 15.0467V23.6381Z" fill="white"/>
</g>
<defs>
<clipPath id="clip0">
<rect width="35" height="35" fill="white"/>
</clipPath>
</defs>
</svg>
