<svg width="29" height="35" viewBox="0 0 29 35" fill="none" xmlns="http://www.w3.org/2000/svg">
<path d="M18.7125 3.48604L20.2457 0.930469C20.4201 0.639421 20.3262 0.26241 20.0351 0.0880274C19.7435 -0.0869695 19.3671 0.00697623 19.1927 0.298638L17.5747 2.99543C16.6113 2.65281 15.5798 2.45632 14.5003 2.45632C13.4208 2.45632 12.3893 2.65281 11.4259 2.99543L9.80793 0.298638C9.63355 0.00697623 9.25654 -0.0863555 8.96549 0.0880274C8.67444 0.26241 8.5805 0.639421 8.75488 0.930469L10.2881 3.48604C7.3242 5.01803 5.28994 8.10657 5.28994 11.6673C5.28994 12.0069 5.56502 12.2813 5.90396 12.2813H23.0966C23.4356 12.2813 23.7107 12.0069 23.7107 11.6673C23.7101 8.10719 21.6764 5.01864 18.7125 3.48604ZM6.54132 11.0533C6.8557 6.93747 10.3053 3.68498 14.5003 3.68498C18.6953 3.68498 22.1449 6.93747 22.4593 11.0533H6.54132Z" fill="#98999A"/>
<path d="M18.7844 6.97815H17.9751C17.7516 6.97815 17.5704 7.15929 17.5704 7.38279V8.19208C17.5704 8.41558 17.7516 8.59672 17.9751 8.59672H18.785C19.0085 8.59672 19.1896 8.41558 19.1896 8.19208V7.38279C19.1896 7.15929 19.0079 6.97815 18.7844 6.97815Z" fill="#98999A"/>
<path d="M11.0249 6.97815H10.215C9.99153 6.97815 9.81039 7.15929 9.81039 7.38279V8.19208C9.81039 8.41558 9.99153 8.59672 10.215 8.59672H11.0249C11.2484 8.59672 11.4296 8.41558 11.4296 8.19208V7.38279C11.4296 7.15929 11.2484 6.97815 11.0249 6.97815Z" fill="#98999A"/>
<path d="M23.096 12.8955H5.90335C5.56441 12.8955 5.28933 13.17 5.28933 13.5095V25.895C5.28933 27.5302 6.62115 28.8601 8.25752 28.8601H8.97347V32.548C8.97347 33.9001 10.075 35.0004 11.4296 35.0004C12.7841 35.0004 13.8857 33.9001 13.8857 32.548V28.8601H15.1137V32.548C15.1137 33.9001 16.2153 35.0004 17.5698 35.0004C18.9244 35.0004 20.0259 33.9001 20.0259 32.548V28.8601H20.7419C22.3789 28.8601 23.7101 27.5302 23.7101 25.895V13.5095C23.7101 13.17 23.4356 12.8955 23.096 12.8955ZM22.482 25.895C22.482 26.8529 21.7016 27.6321 20.7419 27.6321H19.4119C19.0729 27.6321 18.7979 27.9066 18.7979 28.2461V32.548C18.7979 33.2234 18.2471 33.7723 17.5698 33.7723C16.8925 33.7723 16.3418 33.2228 16.3418 32.548V28.2461C16.3418 27.9066 16.0667 27.6321 15.7277 27.6321H13.2716C12.9327 27.6321 12.6576 27.9066 12.6576 28.2461V32.548C12.6576 33.2234 12.1068 33.7723 11.4296 33.7723C10.7523 33.7723 10.2015 33.2228 10.2015 32.548V28.2461C10.2015 27.9066 9.92644 27.6321 9.5875 27.6321H8.25814C7.29842 27.6321 6.51738 26.8523 6.51738 25.895V14.1236H22.482V25.895Z" fill="#98999A"/>
<path d="M26.4732 12.8955C25.2881 12.8955 24.3241 13.8608 24.3241 15.047V23.6385C24.3241 24.8248 25.2881 25.79 26.4732 25.79C27.6582 25.79 28.6223 24.8248 28.6223 23.6385V15.047C28.6223 13.8608 27.6582 12.8955 26.4732 12.8955ZM27.3942 23.6385C27.3942 24.1475 26.981 24.562 26.4732 24.562C25.9654 24.562 25.5521 24.1475 25.5521 23.6385V15.047C25.5521 14.538 25.9654 14.1236 26.4732 14.1236C26.981 14.1236 27.3942 14.538 27.3942 15.047V23.6385Z" fill="#98999A"/>
<path d="M2.52622 12.8955C1.34115 12.8955 0.377136 13.8608 0.377136 15.047V23.6385C0.377136 24.8248 1.34115 25.79 2.52622 25.79C3.71129 25.79 4.67531 24.8248 4.67531 23.6385V15.047C4.67531 13.8608 3.71129 12.8955 2.52622 12.8955ZM3.44726 23.6385C3.44726 24.1475 3.03402 24.562 2.52622 24.562C2.01842 24.562 1.60518 24.1475 1.60518 23.6385V15.047C1.60518 14.538 2.01842 14.1236 2.52622 14.1236C3.03402 14.1236 3.44726 14.538 3.44726 15.047V23.6385Z" fill="#98999A"/>
</svg>
