<svg width="29" height="35" viewBox="0 0 29 35" fill="none" xmlns="http://www.w3.org/2000/svg">
<path d="M21.6634 0.707389L21.6265 0.000366211L20.9229 0.0760948C20.8538 0.0834666 14.0523 0.903078 13.5859 8.50743L13.539 9.26874L14.3003 9.21714C14.378 9.21177 22.0816 8.59723 21.6634 0.707389ZM20.3358 1.55649C20.2078 6.13907 16.6425 7.41372 15.006 7.75752C15.6292 3.30428 18.8588 1.94719 20.3358 1.55649Z" fill="#98999A"/>
<path d="M28.2189 25.1429L27.7907 25.0042C25.1992 24.1665 23.4588 21.7928 23.4588 19.0974C23.4588 16.6995 24.8145 14.555 26.9979 13.5002L27.6493 13.1859L27.2861 12.5606C27.1306 12.2925 25.677 9.91815 22.6063 9.13205C20.1709 8.5088 17.4326 9.06034 14.4645 10.7719C13.2079 10.0093 9.03414 7.81116 5.71348 10.0147C5.06342 10.3739 -1.82654 14.5014 1.75951 25.6382C1.86472 25.8875 4.36511 31.7454 7.32388 33.9395C8.12205 34.7022 10.1634 35.6551 12.4962 34.0648C12.9003 33.898 15.6044 32.8572 17.32 34.0762C17.9534 34.5098 19.0591 35.0011 20.2272 35.0011C21.1132 35.0011 22.0347 34.7189 22.8134 33.9147C23.1766 33.6004 26.4946 30.639 28.2189 25.9478L28.2692 25.8111L28.2189 25.1429ZM21.918 32.9155L21.8664 32.9644C20.3968 34.5078 18.1685 33.0315 18.086 32.9765C17.2095 32.3532 16.1942 32.1502 15.2419 32.1502C13.5135 32.1502 11.9936 32.8197 11.8964 32.8632L11.7872 32.9249C9.76395 34.3369 8.37872 33.0944 8.23195 32.953L8.15287 32.8854C5.47691 30.9338 3.0174 25.1738 3.01405 25.1718C-0.342129 14.7386 6.08743 11.3262 6.36085 11.1874L6.43457 11.1439C9.54883 9.05297 14.0255 12.0794 14.0698 12.1096L14.427 12.3549L14.7969 12.1317C17.5848 10.4462 20.1006 9.87325 22.2739 10.4302C24.0445 10.8832 25.173 11.9896 25.7252 12.6698C23.4822 14.0444 22.1191 16.4429 22.1191 19.0974C22.1191 22.1507 23.952 24.8635 26.7446 26.0436C25.0256 30.2395 21.9509 32.888 21.918 32.9155Z" fill="#98999A"/>
</svg>
