<svg width="35" height="35" viewBox="0 0 35 35" fill="none" xmlns="http://www.w3.org/2000/svg">
<g clip-path="url(#clip0)">
<path d="M24.6634 0.707023L24.6265 0L23.9229 0.0757286C23.8538 0.0831004 17.0523 0.902711 16.5859 8.50706L16.539 9.26837L17.3003 9.21677C17.378 9.21141 25.0816 8.59687 24.6634 0.707023ZM23.3358 1.55612C23.2078 6.1387 19.6425 7.41336 18.006 7.75715C18.6292 3.30391 21.8588 1.94683 23.3358 1.55612Z" fill="white"/>
<path d="M31.2189 25.1426L30.7907 25.0039C28.1992 24.1662 26.4588 21.7924 26.4588 19.097C26.4588 16.6992 27.8145 14.5547 29.9979 13.4998L30.6493 13.1855L30.2861 12.5602C30.1306 12.2922 28.677 9.91779 25.6063 9.13168C23.1709 8.50843 20.4326 9.05998 17.4645 10.7716C16.2079 10.0089 12.0341 7.81079 8.71348 10.0143C8.06342 10.3735 1.17346 14.501 4.75951 25.6378C4.86472 25.8871 7.36511 31.745 10.3239 33.9392C11.122 34.7018 13.1634 35.6548 15.4962 34.0645C15.9003 33.8976 18.6044 32.8568 20.32 34.0759C20.9534 34.5095 22.0591 35.0007 23.2272 35.0007C24.1132 35.0007 25.0347 34.7186 25.8134 33.9144C26.1766 33.6001 29.4946 30.6386 31.2189 25.9474L31.2692 25.8107L31.2189 25.1426ZM24.918 32.9151L24.8664 32.9641C23.3968 34.5075 21.1685 33.0311 21.086 32.9761C20.2095 32.3529 19.1942 32.1498 18.2419 32.1498C16.5135 32.1498 14.9936 32.8193 14.8964 32.8629L14.7872 32.9245C12.7639 34.3366 11.3787 33.0941 11.232 32.9527L11.1529 32.885C8.47691 30.9335 6.0174 25.1734 6.01405 25.1714C2.65787 14.7383 9.08743 11.3258 9.36085 11.1871L9.43457 11.1435C12.5488 9.05261 17.0255 12.0791 17.0698 12.1092L17.427 12.3545L17.7969 12.1313C20.5848 10.4459 23.1006 9.87289 25.2739 10.4298C27.0445 10.8828 28.173 11.9893 28.7252 12.6695C26.4822 14.044 25.1191 16.4425 25.1191 19.097C25.1191 22.1503 26.952 24.8631 29.7446 26.0433C28.0256 30.2392 24.9509 32.8877 24.918 32.9151Z" fill="white"/>
</g>
<defs>
<clipPath id="clip0">
<rect width="35" height="35" fill="white"/>
</clipPath>
</defs>
</svg>
