<svg width="225" height="76" viewBox="0 0 225 76" fill="none" xmlns="http://www.w3.org/2000/svg">
<path d="M9.12 0H215.384C220.415 0 224.504 4.0888 224.504 9.12V66.88C224.504 71.9112 220.415 76 215.384 76H9.12C4.0888 76 0 71.9112 0 66.88V9.12C0 4.0888 4.0888 0 9.12 0Z" fill="white"/>
<path d="M49.1418 36.2687C49.0962 30.8271 53.5954 28.1823 53.793 28.0607C51.2394 24.3519 47.2874 23.8351 45.9042 23.7895C42.5906 23.4399 39.3682 25.7807 37.681 25.7807C35.9634 25.7807 33.349 23.8351 30.5522 23.8807C26.9498 23.9415 23.5602 26.0239 21.721 29.2767C17.9058 35.8887 20.7482 45.6167 24.4114 50.9671C26.2506 53.5815 28.3786 56.5151 31.1906 56.4087C33.9266 56.3023 34.9602 54.6607 38.2586 54.6607C41.5418 54.6607 42.4994 56.4087 45.357 56.3479C48.3058 56.3023 50.145 53.7183 51.9234 51.0735C54.0362 48.0791 54.8874 45.1151 54.9178 44.9631C54.8418 44.9327 49.2026 42.7743 49.1418 36.2687" fill="#4E4C82" fill-opacity="0.5"/>
<path d="M43.7456 20.2778C45.22 18.4386 46.2232 15.9306 45.9496 13.377C43.8216 13.4682 41.1464 14.8514 39.6112 16.6602C38.2584 18.2562 37.0424 20.8554 37.3464 23.3026C39.748 23.485 42.2104 22.0866 43.7456 20.2778" fill="#4E4C82" fill-opacity="0.5"/>
<path d="M88.844 56.0256H85.0136L82.916 49.4288H75.62L73.6288 56.0256H69.9048L77.1248 33.5752H81.5936L88.844 56.0256ZM82.2928 46.6624L80.3928 40.8104C80.1952 40.2024 79.8152 38.804 79.268 36.5848H79.192C78.964 37.5424 78.6144 38.956 78.128 40.8104L76.2584 46.6624H82.2928Z" fill="#4E4C82" fill-opacity="0.5"/>
<path d="M107.403 47.7423C107.403 50.4935 106.659 52.6671 105.154 54.2631C103.816 55.6919 102.144 56.3911 100.168 56.3911C98.0249 56.3911 96.4897 55.6311 95.5473 54.0959V62.5927H91.9449V45.1583C91.9449 43.4255 91.8993 41.6623 91.8081 39.8383H94.9697L95.1673 42.4071H95.2281C96.4289 40.4767 98.2529 39.5039 100.685 39.5039C102.6 39.5039 104.181 40.2639 105.458 41.7687C106.765 43.2887 107.403 45.2647 107.403 47.7423V47.7423ZM103.74 47.8639C103.74 46.2831 103.391 44.9911 102.676 43.9727C101.901 42.9087 100.852 42.3767 99.5449 42.3767C98.6633 42.3767 97.8577 42.6807 97.1281 43.2583C96.4137 43.8511 95.9273 44.6111 95.7145 45.5687C95.6081 46.0095 95.5473 46.3743 95.5473 46.6631V49.3687C95.5473 50.5391 95.9121 51.5423 96.6265 52.3479C97.3409 53.1535 98.2833 53.5639 99.4385 53.5639C100.791 53.5639 101.84 53.0319 102.6 51.9983C103.36 50.9495 103.74 49.5815 103.74 47.8639V47.8639Z" fill="#4E4C82" fill-opacity="0.5"/>
<path d="M126.008 47.7423C126.008 50.4935 125.263 52.6671 123.758 54.2631C122.421 55.6919 120.749 56.3911 118.773 56.3911C116.63 56.3911 115.094 55.6311 114.152 54.0959V62.5927H110.55V45.1583C110.55 43.4255 110.504 41.6623 110.413 39.8383H113.574L113.772 42.4071H113.833C115.034 40.4767 116.858 39.5039 119.29 39.5039C121.205 39.5039 122.786 40.2639 124.062 41.7687C125.37 43.2887 126.008 45.2647 126.008 47.7423ZM122.345 47.8639C122.345 46.2831 121.995 44.9911 121.281 43.9727C120.506 42.9087 119.457 42.3767 118.15 42.3767C117.268 42.3767 116.462 42.6807 115.733 43.2583C115.018 43.8511 114.547 44.6111 114.319 45.5687C114.213 46.0095 114.152 46.3743 114.152 46.6631V49.3687C114.152 50.5391 114.517 51.5423 115.231 52.3479C115.946 53.1535 116.888 53.5639 118.043 53.5639C119.396 53.5639 120.46 53.0319 121.205 51.9983C121.98 50.9495 122.345 49.5815 122.345 47.8639V47.8639Z" fill="#4E4C82" fill-opacity="0.5"/>
<path d="M146.832 49.7336C146.832 51.6488 146.163 53.1992 144.841 54.4C143.382 55.7072 141.345 56.3608 138.73 56.3608C136.314 56.3608 134.383 55.8896 132.924 54.9624L133.76 51.968C135.341 52.8952 137.074 53.3664 138.958 53.3664C140.311 53.3664 141.375 53.0624 142.12 52.4544C142.88 51.8464 143.26 51.0256 143.26 50.0072C143.26 49.0952 142.941 48.3352 142.333 47.712C141.71 47.0888 140.676 46.5112 139.232 45.9792C135.265 44.5048 133.304 42.3616 133.304 39.5496C133.304 37.7104 134.003 36.2056 135.386 35.02C136.77 33.8496 138.609 33.2568 140.904 33.2568C142.941 33.2568 144.643 33.6064 145.996 34.3208L145.084 37.2392C143.807 36.5552 142.378 36.2056 140.767 36.2056C139.506 36.2056 138.502 36.5248 137.788 37.1328C137.195 37.6952 136.891 38.364 136.891 39.1696C136.891 40.0512 137.241 40.796 137.925 41.3584C138.518 41.8904 139.612 42.468 141.193 43.0912C143.123 43.8664 144.537 44.7784 145.449 45.8272C146.376 46.876 146.832 48.1832 146.832 49.7336" fill="#4E4C82" fill-opacity="0.5"/>
<path d="M158.749 42.5441H154.782V50.4025C154.782 52.3937 155.481 53.3969 156.879 53.3969C157.518 53.3969 158.05 53.3361 158.475 53.2297L158.582 55.9657C157.867 56.2241 156.94 56.3609 155.785 56.3609C154.356 56.3609 153.262 55.9201 152.456 55.0537C151.65 54.1873 151.255 52.7281 151.255 50.6913V42.5289H148.899V39.8385H151.255V36.8745L154.782 35.8105V39.8385H158.749V42.5441" fill="#4E4C82" fill-opacity="0.5"/>
<path d="M176.594 47.8035C176.594 50.2963 175.879 52.3331 174.466 53.9291C172.976 55.5707 171 56.3915 168.538 56.3915C166.167 56.3915 164.267 55.6011 162.853 54.0355C161.439 52.4699 160.74 50.4787 160.74 48.0771C160.74 45.5691 161.47 43.5171 162.914 41.9211C164.373 40.3251 166.334 39.5195 168.796 39.5195C171.167 39.5195 173.083 40.3099 174.527 41.8907C175.91 43.4107 176.594 45.3867 176.594 47.8035V47.8035ZM172.87 47.8795C172.87 46.3899 172.551 45.1283 171.912 44.0643C171.152 42.7723 170.073 42.1339 168.675 42.1339C167.231 42.1339 166.121 42.7723 165.376 44.0643C164.723 45.1283 164.419 46.4203 164.419 47.9555C164.419 49.4451 164.738 50.7219 165.376 51.7707C166.151 53.0627 167.246 53.7011 168.644 53.7011C170.012 53.7011 171.091 53.0475 171.882 51.7403C172.535 50.6459 172.87 49.3691 172.87 47.8795V47.8795Z" fill="#4E4C82" fill-opacity="0.5"/>
<path d="M188.298 42.9999C187.948 42.9391 187.568 42.9087 187.158 42.9087C185.896 42.9087 184.908 43.3799 184.224 44.3375C183.631 45.1735 183.327 46.2527 183.327 47.5295V56.0263H179.725V44.9303C179.725 43.0607 179.695 41.3583 179.619 39.8383H182.75L182.887 42.9391H182.993C183.373 41.8751 183.966 41.0087 184.787 40.3703C185.592 39.7927 186.459 39.5039 187.386 39.5039C187.72 39.5039 188.024 39.5343 188.283 39.5647L188.298 42.9999" fill="#4E4C82" fill-opacity="0.5"/>
<path d="M204.379 47.1654C204.379 47.8038 204.333 48.351 204.242 48.7918H193.45C193.496 50.3878 194.013 51.619 195.016 52.455C195.928 53.1998 197.098 53.5798 198.542 53.5798C200.138 53.5798 201.597 53.3214 202.905 52.8198L203.467 55.3126C201.932 55.9814 200.123 56.3158 198.041 56.3158C195.533 56.3158 193.557 55.571 192.128 54.0966C190.699 52.6222 189.985 50.631 189.985 48.1534C189.985 45.7214 190.653 43.6846 191.991 42.0582C193.389 40.3254 195.274 39.459 197.645 39.459C199.971 39.459 201.749 40.3254 202.935 42.0582C203.893 43.4566 204.379 45.1438 204.379 47.1654V47.1654ZM200.944 46.2382C200.974 45.1742 200.731 44.247 200.245 43.4718C199.621 42.4686 198.664 41.967 197.387 41.967C196.217 41.967 195.259 42.4534 194.529 43.4262C193.937 44.2014 193.572 45.1438 193.465 46.223L200.944 46.2382V46.2382Z" fill="#4E4C82" fill-opacity="0.5"/>
<path d="M80.56 25.5508H78.6752L77.6416 22.3132H74.0544L73.0664 25.5508H71.2424L74.784 14.5156H76.9728L80.56 25.5508ZM77.3224 20.9452L76.3952 18.0572C76.304 17.7684 76.1216 17.0692 75.8328 15.9748H75.8024C75.6808 16.446 75.5288 17.13 75.2704 18.0572L74.3584 20.9452H77.3224Z" fill="#4E4C82" fill-opacity="0.5"/>
<path d="M89.4369 17.5859L86.4273 25.5507H84.7097L81.7913 17.5859H83.6913L85.0441 21.7963C85.2721 22.4955 85.4697 23.1643 85.6217 23.8027H85.6673C85.8041 23.2251 86.0017 22.5563 86.2449 21.7963L87.5825 17.5859H89.4369" fill="#4E4C82" fill-opacity="0.5"/>
<path d="M95.8514 25.5498L95.7146 24.6378H95.669C95.1218 25.3674 94.3466 25.7322 93.3434 25.7322C91.9146 25.7322 90.9114 24.729 90.9114 23.3914C90.9114 21.4306 92.6138 20.4122 95.5626 20.4122V20.2602C95.5626 19.2114 95.0002 18.6946 93.9058 18.6946C93.1154 18.6946 92.4314 18.8922 91.8234 19.2874L91.4586 18.1322C92.1882 17.6762 93.1154 17.4482 94.1946 17.4482C96.277 17.4482 97.3258 18.5426 97.3258 20.7466V23.6802C97.3258 24.4858 97.3562 25.109 97.4474 25.5802L95.8514 25.5498V25.5498ZM95.6082 21.5826C93.6474 21.5826 92.6594 22.0538 92.6594 23.1938C92.6594 24.0298 93.161 24.4402 93.8754 24.4402C94.7722 24.4402 95.6082 23.7562 95.6082 22.8138V21.5826Z" fill="#4E4C82" fill-opacity="0.5"/>
<path d="M101.262 16.2788C100.67 16.2788 100.214 15.8228 100.214 15.2148C100.214 14.6068 100.685 14.166 101.293 14.166C101.901 14.166 102.387 14.6068 102.372 15.2148C102.372 15.8532 101.916 16.2788 101.262 16.2788V16.2788ZM100.411 17.586H102.174V25.5356H100.411V17.586V17.586Z" fill="#4E4C82" fill-opacity="0.5"/>
<path d="M105.321 13.9375H107.084V25.5351H105.321V13.9375Z" fill="#4E4C82" fill-opacity="0.5"/>
<path d="M114.593 25.5504L114.456 24.6384H114.41C113.863 25.368 113.088 25.7328 112.085 25.7328C110.656 25.7328 109.653 24.7296 109.653 23.392C109.653 21.4312 111.355 20.4128 114.304 20.4128V20.2608C114.304 19.212 113.742 18.6952 112.647 18.6952C111.857 18.6952 111.173 18.8928 110.565 19.288L110.2 18.1176C110.93 17.6616 111.857 17.4336 112.936 17.4336C115.018 17.4336 116.067 18.528 116.067 20.732V23.6656C116.067 24.4712 116.098 25.0944 116.174 25.5656H114.593V25.5504V25.5504ZM114.35 21.5832C112.389 21.5832 111.401 22.0544 111.401 23.1944C111.401 24.0304 111.902 24.4408 112.617 24.4408C113.514 24.4408 114.35 23.7568 114.35 22.8144V21.5832Z" fill="#4E4C82" fill-opacity="0.5"/>
<path d="M123.242 25.7327C122.117 25.7327 121.281 25.2615 120.734 24.3191H120.703L120.597 25.5503H119.092C119.138 24.9119 119.153 24.1975 119.153 23.4071V13.9375H120.931V18.7559H120.962C121.494 17.8743 122.33 17.4335 123.5 17.4335C125.415 17.4335 126.753 19.0751 126.753 21.4615C126.753 23.9239 125.263 25.7327 123.242 25.7327V25.7327ZM122.877 18.8167C121.858 18.8167 120.931 19.6983 120.931 20.9295V22.3279C120.931 23.4223 121.767 24.3191 122.846 24.3191C124.169 24.3191 124.959 23.2399 124.959 21.5223C124.959 19.9111 124.138 18.8167 122.877 18.8167V18.8167Z" fill="#4E4C82" fill-opacity="0.5"/>
<path d="M129.367 13.9375H131.131V25.5351H129.367V13.9375Z" fill="#4E4C82" fill-opacity="0.5"/>
<path d="M140.752 21.9937H135.447C135.478 23.4985 136.481 24.3497 137.955 24.3497C138.746 24.3497 139.46 24.2129 140.098 23.9697L140.372 25.2009C139.627 25.5353 138.746 25.6873 137.712 25.6873C135.219 25.6873 133.745 24.1217 133.745 21.6745C133.745 19.2425 135.25 17.4033 137.514 17.4033C139.536 17.4033 140.828 18.9081 140.828 21.1881C140.828 21.5073 140.813 21.7809 140.752 21.9937V21.9937ZM139.141 20.7321C139.141 19.5009 138.518 18.6345 137.393 18.6345C136.374 18.6345 135.584 19.5161 135.462 20.7321H139.141Z" fill="#4E4C82" fill-opacity="0.5"/>
<path d="M151.468 25.7328C149.142 25.7328 147.637 24 147.637 21.644C147.637 19.1816 149.173 17.4336 151.605 17.4336C153.9 17.4336 155.435 19.0904 155.435 21.5072C155.435 23.9848 153.854 25.7328 151.468 25.7328ZM151.544 18.7256C150.267 18.7256 149.446 19.9264 149.446 21.5832C149.446 23.2248 150.282 24.4104 151.529 24.4104C152.775 24.4104 153.611 23.1336 153.611 21.5376C153.596 19.9264 152.79 18.7256 151.544 18.7256V18.7256Z" fill="#4E4C82" fill-opacity="0.5"/>
<path d="M164.935 25.55H163.172V20.9748C163.172 19.5612 162.625 18.862 161.561 18.862C160.512 18.862 159.798 19.7588 159.798 20.8076V25.5348H158.034V19.8652C158.034 19.166 158.019 18.406 157.974 17.5852H159.524L159.6 18.8164H159.646C160.117 17.9652 161.09 17.418 162.169 17.418C163.841 17.418 164.935 18.6948 164.935 20.7772V25.55Z" fill="#4E4C82" fill-opacity="0.5"/>
<path d="M176.502 18.923H174.557V22.7838C174.557 23.7718 174.906 24.2582 175.59 24.2582C175.894 24.2582 176.168 24.2278 176.381 24.1822L176.426 25.5198C176.077 25.6566 175.621 25.7174 175.058 25.7174C173.66 25.7174 172.839 24.9422 172.839 22.9358V18.923H171.684V17.6006H172.839V16.1414L174.572 15.6094V17.5854H176.517V18.923" fill="#4E4C82" fill-opacity="0.5"/>
<path d="M185.866 25.5503H184.102V21.0055C184.102 19.5767 183.555 18.8623 182.491 18.8623C181.579 18.8623 180.728 19.4855 180.728 20.7471V25.5351H178.965V13.9375H180.728V18.7103H180.758C181.321 17.8439 182.111 17.4183 183.145 17.4183C184.832 17.4183 185.866 18.7255 185.866 20.8079V25.5503" fill="#4E4C82" fill-opacity="0.5"/>
<path d="M194.894 21.9937H189.59C189.62 23.4985 190.623 24.3497 192.098 24.3497C192.888 24.3497 193.602 24.2129 194.241 23.9697L194.514 25.2009C193.77 25.5353 192.888 25.6873 191.854 25.6873C189.362 25.6873 187.887 24.1217 187.887 21.6745C187.887 19.2425 189.392 17.4033 191.657 17.4033C193.678 17.4033 194.97 18.9081 194.97 21.1881C194.97 21.5073 194.955 21.7809 194.894 21.9937V21.9937ZM193.283 20.7321C193.283 19.5009 192.66 18.6345 191.535 18.6345C190.517 18.6345 189.711 19.5161 189.605 20.7321H193.283Z" fill="#4E4C82" fill-opacity="0.5"/>
</svg>
