<svg width="699" height="462" viewBox="0 0 699 462" fill="none" xmlns="http://www.w3.org/2000/svg">
<path d="M34.8619 358.182L14.2482 441.925H9.70496L27.1909 358L34.8619 358.182Z" fill="#34334B"/>
<path d="M57.3583 358.182L36.7391 441.925H32.1958L49.6817 358L57.3583 358.182Z" fill="#34334B"/>
<path d="M93.7428 358.182L114.362 441.925H118.903L101.419 358L93.7428 358.182Z" fill="#34334B"/>
<path d="M113.257 366.534H24.4121C24.4121 366.534 18.2253 358.863 14.0778 341.004C9.41634 320.915 0 253.824 0 253.824C0 253.824 2.49562 247.582 41.5545 248.382L111.493 336.768C111.493 336.768 113.884 358.239 113.257 366.534Z" fill="#D3D3D3"/>
<path d="M626.96 60.3183V228.092C626.96 229.088 626.679 230.065 626.148 230.909L624.178 234.042C623.758 234.711 622.882 234.927 622.199 234.528V234.528C621.508 234.126 620.621 234.349 620.225 235.043C617.69 239.482 615.585 244.744 615.909 249.642C616.026 251.449 616.335 253.699 616.772 256.212C617.176 258.53 619.131 260.245 621.478 260.423L625.316 260.714C625.89 260.758 626.334 261.236 626.334 261.812V261.812C626.334 262.327 625.977 262.774 625.474 262.886L624.509 263.103L618.5 264.445C618.475 264.45 618.452 264.464 618.441 264.487V264.487C618.428 264.513 618.423 264.541 618.429 264.57C618.818 266.358 619.232 268.174 619.657 269.974C621.018 275.738 616.723 281.354 610.801 281.413C609.373 281.427 607.969 281.442 606.609 281.458C603.788 281.489 601.504 279.181 601.581 276.361C601.607 275.401 601.634 274.413 601.66 273.407C601.692 272.171 600.684 271.153 599.447 271.153V271.153C598.583 271.153 597.693 271.138 596.824 271.123C595.28 271.109 593.816 271.083 592.794 271.055C592.715 271.053 592.658 271.146 592.679 271.221V271.221C592.706 271.317 592.625 271.404 592.526 271.397C592.27 271.379 591.808 271.347 591.18 271.299C590.735 271.265 590.335 271.572 590.253 272.01C589.209 277.58 588.155 282.434 587.727 284.361C587.617 284.855 587.916 285.349 588.405 285.48V285.48C588.968 285.631 589.261 286.252 589.019 286.782C588.416 288.106 587.72 289.639 586.962 291.327C586.126 293.188 584.279 294.39 582.239 294.39H111.34C97.0215 294.39 85.3948 286.788 85.3948 277.415V60.3183C85.3948 50.942 97.0244 43.3402 111.34 43.3402H600.983C615.331 43.3402 626.96 50.942 626.96 60.3183Z" fill="white"/>
<path d="M591.872 269.847C592.119 269.671 592.442 269.545 592.835 269.556C593.845 269.583 595.3 269.609 596.837 269.623L596.849 269.623C597.721 269.638 598.598 269.653 599.448 269.653C601.513 269.653 603.214 271.352 603.159 273.447C603.133 274.454 603.106 275.442 603.08 276.401C603.027 278.366 604.617 279.98 606.592 279.958C607.953 279.942 609.358 279.927 610.786 279.913C615.722 279.864 619.342 275.17 618.197 270.318C617.771 268.511 617.354 266.686 616.963 264.888C616.874 264.478 616.956 264.1 617.102 263.811C617.371 263.278 617.845 263.054 618.173 262.981L622.532 262.007L621.364 261.919C618.358 261.691 615.82 259.489 615.294 256.469C614.853 253.934 614.534 251.625 614.412 249.741L591.872 269.847ZM591.872 269.847C591.699 269.834 591.506 269.82 591.294 269.803C590.087 269.711 589.002 270.543 588.779 271.734C587.739 277.282 586.688 282.118 586.263 284.036C586.028 285.095 586.519 286.156 587.417 286.68C586.87 287.882 586.256 289.238 585.594 290.713C584.998 292.038 583.685 292.89 582.239 292.89H111.34C104.43 292.89 98.2385 291.053 93.8191 288.162C89.3862 285.262 86.8948 281.43 86.8948 277.415V60.3183C86.8948 56.3015 89.387 52.4684 93.8202 49.5684C98.24 46.6772 104.432 44.8402 111.34 44.8402H600.983C607.908 44.8402 614.108 46.6775 618.531 49.5687C622.968 52.4687 625.46 56.3017 625.46 60.3183V228.092C625.46 228.806 625.259 229.506 624.878 230.11L622.926 233.216L591.872 269.847Z" stroke="#D3D3D3" stroke-opacity="0.23" stroke-width="3"/>
<path d="M584.102 59.3579L499.416 25.4783L483.479 65.3153L568.165 99.195L584.102 59.3579Z" stroke="#4E4C82" stroke-miterlimit="10"/>
<path d="M496.944 50.8934L500.519 40.236L504.25 41.9819L500.357 53.4481C500.104 54.3011 500.085 55.0764 500.399 55.7627C500.713 56.449 501.296 57.0021 502.146 57.4221C502.997 57.842 503.725 57.8634 504.426 57.6301C505.062 57.3526 505.571 56.8316 505.824 55.9786L509.717 44.5123L513.449 46.2583L509.873 56.9157C509.088 59.2201 508.027 60.6276 506.655 61.1938C505.284 61.7601 503.468 61.5515 501.177 60.4686C498.951 59.4299 497.426 58.1578 496.802 56.6302C496.178 55.1025 496.159 53.1977 496.944 50.8934Z" fill="#4E4C82"/>
<path d="M514.899 49.3709L515.902 46.4157L527.164 51.6133L526.161 54.5685L522.419 52.8174L518.725 63.8272L522.467 65.5782L521.464 68.5334L510.202 63.3358L511.206 60.3807L514.948 62.1317L518.642 51.122L514.899 49.3709Z" fill="#4E4C82"/>
<path d="M539.836 56.4082L542.755 57.731L525.798 72.5263L522.879 71.2035L539.836 56.4082Z" fill="#4E4C82"/>
<path d="M540.707 68.395L544.282 57.7375L548.013 59.4835L544.12 70.9497C543.867 71.8027 543.848 72.5779 544.162 73.2642C544.476 73.9505 545.059 74.5037 545.909 74.9236C546.76 75.3436 547.488 75.365 548.189 75.1317C548.825 74.8542 549.334 74.3331 549.587 73.4801L553.48 62.0139L557.211 63.7598L553.636 74.4173C552.851 76.7216 551.79 78.1292 550.418 78.6954C549.046 79.2616 547.231 79.0531 544.94 77.9701C542.714 76.9314 541.189 75.6594 540.565 74.1318C539.875 72.5599 539.856 70.6551 540.707 68.395Z" fill="#4E4C82"/>
<path d="M566.984 86.7668L563.111 84.9985L561.413 77.8109L555.951 81.7035L552.078 79.9352L560.453 74.0246L557.886 63.3478L561.759 65.1161L563.366 72.0065L568.626 68.2903L572.499 70.0586L564.391 75.8368L566.984 86.7668Z" fill="#4E4C82"/>
<path d="M182.964 423.752C196.89 423.752 208.179 412.463 208.179 398.537C208.179 384.611 196.89 373.322 182.964 373.322C169.038 373.322 157.75 384.611 157.75 398.537C157.75 412.463 169.038 423.752 182.964 423.752Z" fill="#FF8C4A"/>
<path d="M165.517 400.103V398.725C165.517 398.036 165.925 397.441 166.551 397.19L173.505 394.434C174.601 393.995 175.76 394.81 175.76 395.969C175.76 396.689 175.321 397.315 174.632 397.535L169.025 399.414L174.632 401.293C175.321 401.513 175.76 402.139 175.76 402.859V402.891C175.76 404.05 174.57 404.864 173.505 404.426L166.551 401.669C165.956 401.387 165.517 400.792 165.517 400.103Z" fill="white"/>
<path d="M186.691 390.205C187.756 390.205 188.445 391.302 187.976 392.273L180.208 408.529C179.957 409.03 179.456 409.343 178.923 409.343C177.858 409.343 177.169 408.247 177.639 407.276L185.407 391.02C185.658 390.518 186.159 390.205 186.691 390.205Z" fill="white"/>
<path d="M191.264 401.325L196.871 399.445L191.264 397.566C190.607 397.347 190.137 396.72 190.137 396V395.969C190.137 394.81 191.327 393.995 192.392 394.434L199.346 397.19C199.972 397.441 200.379 398.036 200.379 398.725V400.103C200.379 400.792 199.972 401.387 199.346 401.638L192.392 404.394C191.296 404.833 190.137 404.018 190.137 402.859C190.137 402.17 190.607 401.544 191.264 401.325Z" fill="white"/>
<path d="M287.823 206.107H157.001C156.562 206.049 156.158 205.833 155.866 205.5C155.574 205.167 155.413 204.739 155.413 204.296C155.413 203.853 155.574 203.425 155.866 203.092C156.158 202.759 156.562 202.543 157.001 202.485H287.823C288.262 202.543 288.665 202.759 288.957 203.092C289.249 203.425 289.41 203.853 289.41 204.296C289.41 204.739 289.249 205.167 288.957 205.5C288.665 205.833 288.262 206.049 287.823 206.107V206.107Z" fill="#D3D3D3" fill-opacity="0.5"/>
<path d="M430.393 206.469H299.571C299.132 206.411 298.729 206.195 298.437 205.862C298.145 205.529 297.984 205.101 297.984 204.658C297.984 204.215 298.145 203.787 298.437 203.454C298.729 203.121 299.132 202.905 299.571 202.847H430.393C430.833 202.905 431.236 203.121 431.528 203.454C431.82 203.787 431.981 204.215 431.981 204.658C431.981 205.101 431.82 205.529 431.528 205.862C431.236 206.195 430.833 206.411 430.393 206.469H430.393Z" fill="#4E4C82"/>
<path d="M288.14 226.023H157.318C156.879 225.965 156.476 225.75 156.184 225.417C155.892 225.084 155.731 224.656 155.731 224.213C155.731 223.77 155.892 223.342 156.184 223.009C156.476 222.675 156.879 222.46 157.318 222.402H288.14C288.58 222.46 288.983 222.675 289.275 223.009C289.567 223.342 289.728 223.77 289.728 224.213C289.728 224.656 289.567 225.084 289.275 225.417C288.983 225.75 288.58 225.965 288.14 226.023V226.023Z" fill="#D3D3D3" fill-opacity="0.5"/>
<path d="M288.458 245.94H157.636C157.197 245.882 156.794 245.667 156.501 245.333C156.209 245 156.048 244.572 156.048 244.129C156.048 243.686 156.209 243.258 156.501 242.925C156.794 242.592 157.197 242.377 157.636 242.319H288.458C288.897 242.377 289.3 242.592 289.592 242.925C289.885 243.258 290.046 243.686 290.046 244.129C290.046 244.572 289.885 245 289.592 245.333C289.3 245.667 288.897 245.882 288.458 245.94V245.94Z" fill="#D3D3D3" fill-opacity="0.5"/>
<path d="M347.836 226.023H310.367C309.928 225.965 309.525 225.75 309.233 225.417C308.941 225.084 308.78 224.656 308.78 224.213C308.78 223.77 308.941 223.342 309.233 223.009C309.525 222.675 309.928 222.46 310.367 222.402H347.836C348.275 222.46 348.678 222.675 348.97 223.009C349.262 223.342 349.423 223.77 349.423 224.213C349.423 224.656 349.262 225.084 348.97 225.417C348.678 225.75 348.275 225.965 347.836 226.023V226.023Z" fill="#4E4C82"/>
<path d="M347.836 245.578H310.367C309.928 245.52 309.525 245.304 309.233 244.971C308.941 244.638 308.78 244.21 308.78 243.767C308.78 243.324 308.941 242.896 309.233 242.563C309.525 242.23 309.928 242.015 310.367 241.957H347.836C348.275 242.015 348.678 242.23 348.97 242.563C349.262 242.896 349.423 243.324 349.423 243.767C349.423 244.21 349.262 244.638 348.97 244.971C348.678 245.304 348.275 245.52 347.836 245.578V245.578Z" fill="#4E4C82"/>
<path d="M410.706 245.578H373.238C372.799 245.52 372.396 245.304 372.104 244.971C371.811 244.638 371.65 244.21 371.65 243.767C371.65 243.324 371.811 242.896 372.104 242.563C372.396 242.23 372.799 242.015 373.238 241.957H410.706C411.146 242.015 411.549 242.23 411.841 242.563C412.133 242.896 412.294 243.324 412.294 243.767C412.294 244.21 412.133 244.638 411.841 244.971C411.549 245.304 411.146 245.52 410.706 245.578V245.578Z" fill="#4E4C82"/>
<path d="M193.517 186.19H156.048C155.609 186.132 155.206 185.916 154.914 185.583C154.622 185.25 154.461 184.822 154.461 184.379C154.461 183.936 154.622 183.508 154.914 183.175C155.206 182.842 155.609 182.626 156.048 182.569H193.517C193.956 182.626 194.359 182.842 194.651 183.175C194.943 183.508 195.104 183.936 195.104 184.379C195.104 184.822 194.943 185.25 194.651 185.583C194.359 185.916 193.956 186.132 193.517 186.19Z" fill="#D3D3D3" fill-opacity="0.5"/>
<path d="M347.881 108.955H344.021V113.155H342.021V108.955H338.161V107.055H342.021V102.835H344.021V107.055H347.881V108.955ZM359.318 101.235L359.098 101.295L357.178 101.035H355.178V111.155L355.318 114.155H352.998L353.138 111.155V101.035H351.138L349.218 101.295L348.998 101.235L349.318 99.1545H358.998L359.318 101.235ZM365.088 114.475C363.368 114.475 362.102 113.955 361.288 112.915C360.488 111.861 360.088 110.268 360.088 108.135C360.088 106.001 360.488 104.421 361.288 103.395C362.102 102.355 363.368 101.835 365.088 101.835C366.808 101.835 368.068 102.355 368.868 103.395C369.682 104.421 370.088 106.001 370.088 108.135C370.088 110.268 369.682 111.861 368.868 112.915C368.068 113.955 366.808 114.475 365.088 114.475ZM365.088 112.515C365.848 112.515 366.435 112.381 366.848 112.115C367.275 111.848 367.575 111.408 367.748 110.795C367.922 110.168 368.008 109.288 368.008 108.155C368.008 107.021 367.922 106.148 367.748 105.535C367.575 104.908 367.275 104.461 366.848 104.195C366.435 103.928 365.848 103.795 365.088 103.795C364.328 103.795 363.735 103.928 363.308 104.195C362.895 104.461 362.602 104.908 362.428 105.535C362.255 106.148 362.168 107.021 362.168 108.155C362.168 109.288 362.255 110.168 362.428 110.795C362.602 111.408 362.895 111.848 363.308 112.115C363.735 112.381 364.328 112.515 365.088 112.515ZM386.242 111.175L386.362 114.155H384.302L384.222 112.895C383.942 113.335 383.556 113.681 383.062 113.935C382.569 114.188 382.056 114.315 381.522 114.315C380.069 114.315 378.949 113.795 378.162 112.755C377.389 111.701 377.002 110.161 377.002 108.135C377.002 105.988 377.362 104.415 378.082 103.415C378.816 102.415 379.929 101.915 381.422 101.915C382.569 101.915 383.509 102.175 384.242 102.695V101.055L384.102 98.1545H386.362L386.242 101.055V111.175ZM381.722 112.395C382.856 112.395 383.696 112.108 384.242 111.535V104.275C383.696 103.995 382.922 103.855 381.922 103.855C381.189 103.855 380.616 103.981 380.202 104.235C379.802 104.488 379.516 104.921 379.342 105.535C379.169 106.148 379.082 107.015 379.082 108.135C379.082 109.668 379.289 110.761 379.702 111.415C380.116 112.068 380.789 112.395 381.722 112.395ZM394.151 114.475C392.431 114.475 391.164 113.955 390.351 112.915C389.551 111.861 389.151 110.268 389.151 108.135C389.151 106.001 389.551 104.421 390.351 103.395C391.164 102.355 392.431 101.835 394.151 101.835C395.871 101.835 397.131 102.355 397.931 103.395C398.744 104.421 399.151 106.001 399.151 108.135C399.151 110.268 398.744 111.861 397.931 112.915C397.131 113.955 395.871 114.475 394.151 114.475ZM394.151 112.515C394.911 112.515 395.497 112.381 395.911 112.115C396.337 111.848 396.637 111.408 396.811 110.795C396.984 110.168 397.071 109.288 397.071 108.155C397.071 107.021 396.984 106.148 396.811 105.535C396.637 104.908 396.337 104.461 395.911 104.195C395.497 103.928 394.911 103.795 394.151 103.795C393.391 103.795 392.797 103.928 392.371 104.195C391.957 104.461 391.664 104.908 391.491 105.535C391.317 106.148 391.231 107.021 391.231 108.155C391.231 109.288 391.317 110.168 391.491 110.795C391.664 111.408 391.957 111.848 392.371 112.115C392.797 112.381 393.391 112.515 394.151 112.515Z" fill="#4E4C82"/>
<path d="M102.579 104.993L102.288 104.996L102.279 104.994L95.9679 105.105L93.9379 105.136L93.9292 105.134L89.2836 105.219L85.6138 105.281L74.3502 105.467L74.3534 77.3461L79.4636 77.3396L79.4723 77.3414L96.5118 77.3509L102.474 77.3493L102.477 86.6149L102.476 89.7998L102.502 93.5982L102.526 97.4053L102.564 103.148L102.579 104.993Z" fill="#FF8C4A"/>
<path d="M79.4684 73.9342L96.5131 73.9322L96.5139 80.7497L79.4692 80.7517L79.4684 73.9342Z" fill="#4E4C82"/>
<path d="M121.667 102.88L109.408 128.194L84.0936 115.935L85.3476 113.356L89.2834 105.219L96.3525 90.6207L100.961 92.8507L102.502 93.5982L116.3 100.283L121.667 102.88Z" fill="#FF8C4A"/>
<path d="M117.783 97.216L116.3 100.283L114.809 103.348L102.526 97.4053L99.4677 95.9245L100.961 92.8507L102.443 89.7838L102.476 89.7998L114.832 95.7848L117.783 97.216Z" fill="#4E4C82"/>
<path opacity="0.1" d="M102.476 89.7998L102.443 89.7838L100.961 92.8507L96.3526 90.6207L89.2835 105.219L85.6137 105.281L90.4687 95.2573L90.7752 94.6134L90.777 94.6047L94.0201 87.9208L94.6401 86.6434L94.656 86.6104L94.7133 86.6405L96.7578 87.6289L99.2554 88.8387L100.738 85.7718L102.477 86.6149L102.476 89.7998Z" fill="#FF8C4A"/>
<path d="M96.2501 101.814L97.0773 100.24L114.262 109.269L113.435 110.843L96.2501 101.814Z" fill="white"/>
<path d="M100.083 109.396L100.947 107.844L107.456 111.466L106.592 113.018L100.083 109.396Z" fill="white"/>
<path d="M93.5779 105.779L94.4417 104.226L97.6965 106.037L96.8326 107.59L93.5779 105.779Z" fill="white"/>
<path d="M90.7825 110.662L91.6097 109.087L108.795 118.116L107.967 119.691L90.7825 110.662Z" fill="white"/>
<path d="M93.9729 86.5522L96.5837 86.7597L96.7886 88.4364L94.1777 88.2289L93.9729 86.5522Z" fill="white"/>
<path d="M78.4193 86.7707L91.0762 87.5141L91.3 89.0596L78.6431 88.3161L78.4193 86.7707Z" fill="white"/>
<path d="M85.2791 93.4719L90.6046 93.8992L90.785 95.3672L85.4595 94.9399L85.2791 93.4719Z" fill="white"/>
<path d="M78.9005 93.6271L83.3168 93.9977L83.4955 95.5037L79.0792 95.1331L78.9005 93.6271Z" fill="white"/>
<path d="M521.788 296.229L521.519 296.339L521.51 296.341L515.688 298.781L513.814 299.561L513.805 299.563L509.522 301.362L506.135 302.778L495.742 307.122L485.331 281L490.076 279.101L490.084 279.1L505.916 272.798L511.454 270.589L514.888 279.195L516.066 282.154L517.497 285.672L518.929 289.2L521.091 294.52L521.788 296.229Z" fill="#FF8C4A"/>
<path d="M488.819 275.936L504.651 269.622L507.177 275.955L491.344 282.269L488.819 275.936Z" fill="#4E4C82"/>
<path d="M538.736 287.197L536.723 315.251L508.669 313.238L508.879 310.378L509.521 301.362L510.682 285.184L515.788 285.549L517.497 285.672L532.789 286.772L538.736 287.197Z" fill="#FF8C4A"/>
<path d="M533.031 283.374L532.79 286.772L532.54 290.172L518.929 289.2L515.54 288.957L515.789 285.549L516.03 282.151L516.067 282.154L529.761 283.138L533.031 283.374Z" fill="#4E4C82"/>
<path opacity="0.1" d="M516.067 282.154L516.03 282.151L515.789 285.549L510.682 285.184L509.522 301.362L506.136 302.778L506.934 291.67L506.98 290.958L506.979 290.949L507.516 283.54L507.619 282.123L507.621 282.087L507.686 282.094L509.951 282.255L512.719 282.453L512.96 279.056L514.888 279.195L516.067 282.154Z" fill="#FF8C4A"/>
<path d="M514.732 295.619L514.918 293.851L534.224 295.874L534.039 297.643L514.732 295.619Z" fill="white"/>
<path d="M521.1 301.243L521.327 299.481L528.715 300.435L528.488 302.197L521.1 301.243Z" fill="white"/>
<path d="M513.718 300.292L513.946 298.53L517.64 299.007L517.412 300.769L513.718 300.292Z" fill="white"/>
<path d="M512.93 305.863L513.115 304.094L532.422 306.117L532.236 307.886L512.93 305.863Z" fill="white"/>
<path d="M507.006 282.573L509.618 281.27L510.238 282.708L507.625 284.011L507.006 282.573Z" fill="white"/>
<path d="M492.789 289.039L504.62 283.505L505.221 284.816L493.39 290.35L492.789 289.039Z" fill="white"/>
<path d="M501.496 292.297L506.645 289.909L507.224 291.294L502.075 293.682L501.496 292.297Z" fill="white"/>
<path d="M495.621 294.768L499.929 292.752L500.511 294.154L496.203 296.17L495.621 294.768Z" fill="white"/>
<path d="M448.536 66.8173L448.245 66.8159L448.236 66.8139L441.923 66.8293L439.893 66.8297L439.885 66.8277L435.238 66.843L431.568 66.8493L420.303 66.8659L420.729 38.7486L425.839 38.8189L425.847 38.8208L442.885 39.0867L448.846 39.1748L448.71 48.4394L448.661 51.6239L448.63 55.4223L448.597 59.2293L448.548 64.9721L448.536 66.8173Z" fill="#FF8C4A"/>
<path d="M425.895 35.414L442.938 35.6684L442.836 42.4852L425.793 42.2308L425.895 35.414Z" fill="#4E4C82"/>
<path d="M440.207 48.2899L442.811 48.5376L442.997 50.1337L440.393 49.8861L440.207 48.2899Z" fill="white"/>
<path d="M424.646 48.4259L437.299 49.2059L437.506 50.5229L424.852 49.7429L424.646 48.4259Z" fill="white"/>
<path d="M431.409 55.1191L436.731 55.6004L436.89 56.9325L431.569 56.4511L431.409 55.1191Z" fill="white"/>
<path d="M425.03 55.1647L429.441 55.5864L429.599 56.973L425.188 56.5513L425.03 55.1647Z" fill="white"/>
<path d="M564.224 185.878C564.224 213.894 541.387 236.731 513.371 236.731C485.354 236.731 462.517 213.894 462.517 185.878C462.517 157.861 485.354 135.024 513.371 135.024C516.196 135.024 518.786 135.26 521.611 135.731L513.371 185.878L560.457 166.337C562.811 172.223 564.224 178.815 564.224 185.878Z" fill="#4E4C82"/>
<path d="M577.408 149.386L530.322 168.927L538.562 118.78C556.219 121.369 570.816 133.376 577.408 149.386Z" fill="#FF8C4A"/>
<circle cx="182.964" cy="110.214" r="31.7923" fill="#D3D3D3" fill-opacity="0.23"/>
<path d="M169.442 102.36C169.442 102.36 169.222 93.9985 181.838 93.4117C192.766 92.8983 194.233 97.4457 195.186 100.526C196.14 103.607 182.864 111.968 182.864 111.968L169.442 102.36Z" fill="#4E4C82"/>
<path d="M176.19 130.231L175.53 113.435L186.312 112.995L186.972 129.204C187.118 132.211 184.771 133.532 181.764 133.678C178.757 133.752 176.263 133.165 176.19 130.231Z" fill="#FCD2B1"/>
<path d="M175.53 115.269C175.53 115.269 173.989 125.244 186.898 127.664L186.532 119.963L175.53 115.269Z" fill="#FCD2B1"/>
<path d="M189.685 95.7588C185.798 95.8321 197.313 95.6121 195.333 107.787L191.519 102.58L189.685 95.7588Z" fill="#34334B"/>
<path d="M184.845 124.29C190.639 123.997 195.186 120.329 194.893 114.535L194.306 103.02C194.16 100.526 192.033 98.5459 189.539 98.6926L177.657 99.2793C175.163 99.426 173.183 101.553 173.329 104.047L173.77 113.948C174.136 119.669 180.004 124.51 184.845 124.29Z" fill="#FCD2B1"/>
<path d="M174.503 110.648C174.503 110.648 180.224 106.834 177.73 99.206L171.862 99.4994C171.862 99.4994 170.982 98.1792 169.809 100.013C168.635 101.773 171.349 110.135 171.349 110.135L174.503 110.648Z" fill="#34334B"/>
<path d="M176.117 106.467L178.244 100.673C178.244 100.673 192.253 102.433 195.7 98.4725C199 94.6586 196.287 88.9376 193.499 88.3509C191.299 87.9108 188.952 89.8911 187.265 90.8446C185.578 91.7981 181.618 90.918 180.371 90.8446C179.197 90.7713 173.99 89.7444 172.376 95.172C172.376 95.172 163.941 98.3258 172.669 112.555C172.743 112.555 176.19 110.428 176.117 106.467Z" fill="#34334B"/>
<path d="M177.437 105.66C177.437 105.66 177.07 113.362 178.757 115.562C180.444 117.762 181.397 115.489 187.485 114.535C193.573 113.582 195.113 116.369 195.113 116.369C195.113 116.369 194.82 124.143 186.825 124.51C180.591 124.804 171.276 123.483 172.523 113.508C173.696 103.607 173.256 101.04 173.256 101.04L177.437 105.66Z" fill="#34334B"/>
<circle cx="280.534" cy="110.214" r="31.7923" fill="#D3D3D3" fill-opacity="0.23"/>
<path d="M286.627 98.6454C287.223 100.17 286.759 101.827 286.361 103.418C285.964 105.01 285.765 106.799 286.825 108.125C287.886 109.451 289.875 109.915 291.267 111.042C292.593 112.103 293.322 113.76 293.057 115.285C292.858 116.346 292.261 117.473 292.924 118.401C293.256 118.865 293.852 119.13 294.449 119.395C295.709 119.925 297.034 120.389 298.228 121.052C299.421 121.715 300.482 122.577 301.012 123.77C301.741 125.361 301.211 127.151 300.548 128.742C299.951 130.333 299.09 131.991 297.432 132.786C296.173 133.383 294.648 133.383 293.189 133.25C288.947 132.919 284.77 131.924 280.859 130.333C278.406 129.339 276.02 128.013 274.495 126.091C272.108 123.041 272.374 119.064 273.037 115.484C273.434 113.495 273.965 111.44 275.556 109.915C277.08 108.457 279.401 107.661 281.721 107.595C284.041 107.462 284.373 97.9825 286.627 98.6454Z" fill="#FF8C4A"/>
<path d="M267.534 109.65C265.612 106.932 264.816 103.617 265.347 100.435C265.943 97.3196 267.866 94.4027 270.65 92.4802" fill="#FF8C4A"/>
<path d="M278.605 121.98C278.473 120.787 279.467 116.08 279.467 116.08C279.467 116.08 284.572 116.08 285.234 111.771C285.897 107.462 286.494 97.4522 286.494 97.4522L277.611 92.6791L267.998 98.4465L266.474 120.19L278.605 121.98Z" fill="#FCD2B1"/>
<path d="M279.467 116.08C279.467 116.08 276.086 115.815 272.97 113.561C272.97 113.561 274.163 116.876 279.268 117.141L279.467 116.08Z" fill="#FCD2B1"/>
<path d="M287.753 99.8387C287.753 99.8387 289.212 93.0105 278.207 90.7566C267.203 88.5689 265.943 100.104 265.943 100.104L272.108 99.6398L273.699 96.7892L273.633 99.6398L278.207 99.7724L278.141 97.651L279.268 99.4409L287.753 99.8387Z" fill="#FF8C4A"/>
<path d="M688.066 201.265C688.044 201.287 688.022 201.287 688.022 201.287C688 201.331 687.959 201.372 687.915 201.416C685.238 203.747 681.552 204.695 681.167 205.217C680.95 205.517 680.216 206.119 679.653 206.575C679.265 206.869 678.966 207.091 678.966 207.091L673.656 202.411C673.656 202.411 674.692 201.46 675.385 200.275C675.857 199.503 676.162 198.596 675.943 197.815C675.448 196.136 676.179 194.262 676.355 193.484C676.591 192.448 676.698 189.108 677.471 189.303C678.771 189.603 678.463 194.951 678.617 196.095C678.771 197.024 681.181 194.545 682.649 193.616C682.649 193.616 682.759 193.53 682.951 193.401C683.122 193.294 683.273 193.231 683.402 193.209C683.748 193.14 684.46 193.596 685.257 194.308C685.304 194.352 685.323 194.393 685.367 194.437C685.95 194.954 686.552 195.625 687.09 196.353C687.112 196.375 687.112 196.397 687.134 196.422C687.651 197.131 688.107 197.909 688.341 198.64C688.366 198.662 688.366 198.703 688.385 198.747C688.696 199.693 688.668 200.6 688.066 201.265Z" fill="#FCD2B1"/>
<path d="M682.662 193.61C682.662 193.61 691.303 186.986 692.243 187.025C693.192 187.074 693.524 187.555 692.741 188.212C691.957 188.869 684.578 194.852 684.578 194.852C684.578 194.852 696.119 188.732 696.905 188.594C697.358 188.514 697.705 189.388 697.317 189.781C696.93 190.169 686.188 196.922 686.188 196.922C686.188 196.922 696.974 191.227 697.661 191.312C698.268 191.381 698.697 192.382 697.925 192.854C697.158 193.333 687.439 199.184 687.439 199.184C687.439 199.184 695.553 195.54 696.094 195.946C696.421 196.199 696.891 196.752 694.769 197.631C692.65 198.505 688.027 201.303 688.027 201.303L682.662 193.61Z" fill="#FCD2B1"/>
<path d="M640.099 196.251L636.764 188.454C636.746 188.4 636.729 188.344 636.694 188.29C634.341 182.622 630.122 180.69 626.96 180.086L626.975 165.737V159.818C630.056 153.728 631.675 146.151 628.127 140.91C629.951 140.952 633.617 141.313 636.869 143.505C640.275 145.767 643.215 150.033 643.027 158.013C642.577 176.684 640.066 180.346 643.044 192.447C644.145 196.933 642.597 197.482 640.099 196.251Z" fill="#1A282B"/>
<path d="M565.555 439.477L565.533 439.499C565.508 439.842 565.448 440.169 565.34 440.422C564.862 441.571 564.497 443.014 564.153 444.63C562.858 450.69 561.973 458.908 558.093 460.439C553.176 462.399 545.109 462.141 544.056 460.439C543.193 459.032 548.217 451.49 550.048 448.855C550.048 448.855 550.026 448.855 550.048 448.833C550.441 448.275 550.677 447.953 550.677 447.953C556.284 441.978 556.413 436.374 556.023 433.631C555.872 432.531 555.635 431.885 555.635 431.885C555.635 431.885 557.642 430.934 559.907 430.871C560.423 430.849 560.962 430.871 561.479 430.956C562.105 431.064 562.688 431.476 563.208 432.1C563.249 432.122 563.249 432.144 563.268 432.163C563.287 432.182 563.315 432.207 563.331 432.248C564.802 434.087 565.728 437.448 565.555 439.477Z" fill="#34334B"/>
<path d="M563.268 432.144C563.268 432.144 563.268 432.144 563.268 432.166C563.246 432.229 563.224 432.317 563.183 432.446L563.161 432.473V432.49C563.161 432.512 563.161 432.512 563.161 432.512C562.946 433.29 562.474 435.186 562.061 438.251C561.501 442.626 559.838 449.937 557.273 452.46C554.709 454.984 548.39 454.099 548.154 453.131C548.047 452.702 548.954 450.974 550.048 448.857C550.048 448.857 550.026 448.857 550.048 448.835C551.433 446.142 553.112 442.819 553.37 440.793C553.736 438.056 554.514 435.252 555.033 433.523C555.349 432.471 555.591 431.8 555.591 431.8C556.71 430.593 558.395 430.549 559.904 430.871C561.498 431.198 562.902 431.929 563.205 432.1C563.246 432.122 563.268 432.144 563.268 432.144Z" fill="#FCD2B1"/>
<path d="M632.623 439.477V439.562C632.599 439.883 632.516 440.191 632.425 440.419C631.953 441.59 631.587 443.077 631.222 444.734C629.922 450.773 629.02 458.906 625.18 460.437C620.263 462.396 612.18 462.138 611.144 460.437C610.088 458.73 617.485 448.123 617.485 448.123L617.509 448.101C624.276 440.832 623.07 434.106 622.619 432.399C622.528 432.141 622.484 431.992 622.484 431.992L622.512 431.97C622.833 431.841 625.92 430.484 628.569 430.956C628.83 431 629.067 431.085 629.303 431.237C631.395 432.424 632.86 436.975 632.623 439.477Z" fill="#34334B"/>
<path d="M629.152 438.248C628.916 442.646 626.929 449.935 624.364 452.458C621.778 454.981 615.459 454.096 615.223 453.128C615.11 452.65 616.215 450.561 617.485 448.126L617.51 448.104C618.887 445.446 620.481 442.409 620.956 440.557C621.756 437.583 622.292 433.567 622.443 432.366C622.468 432.124 622.487 431.995 622.487 431.995L622.515 431.973C624.972 429.321 628.572 430.959 628.572 430.959C628.572 430.959 628.633 431.201 628.743 431.674C628.954 432.773 629.323 435.117 629.152 438.248Z" fill="#FCD2B1"/>
<path d="M594.452 246.079C594.367 251.667 594.257 257.034 594.194 261.481C594.147 264.15 594.108 266.478 594.086 268.314C594.062 268.529 594.062 268.743 594.062 268.938C594.04 270.645 592.316 271.761 590.764 271.14L583.131 268.015L582.59 267.795L580.696 267.017C580.696 267.017 582.122 257.447 583.477 246.233C584.901 246.403 585.764 246.491 585.764 246.491C585.72 246.367 585.679 246.192 585.657 245.955C586.649 245.999 588.136 246.04 589.711 246.062C590.555 246.084 591.418 246.106 592.256 246.106C593.028 246.101 593.781 246.101 594.452 246.079Z" fill="#34334B"/>
<path d="M594.386 335.446C594.279 335.79 594.147 336.155 594.021 336.499C592.704 340.209 583.557 361.584 583.557 377.946C583.557 388.99 567.234 426.474 563.331 432.251C563.312 432.207 563.287 432.188 563.268 432.166C563.268 432.144 563.268 432.144 563.268 432.144C563.268 432.144 563.246 432.122 563.207 432.1C562.691 431.476 562.105 431.064 561.479 430.956C560.962 430.871 560.423 430.849 559.906 430.871C558.395 430.55 556.713 430.591 555.594 431.8C555.594 431.8 555.352 432.471 555.036 433.523C555.036 433.523 564.955 386.488 564.65 384.119C564.351 381.769 570.755 356.774 571.208 350.151C571.357 347.842 571.961 341.674 572.778 334.24C578.126 334.627 585.957 335.034 594.386 335.446Z" fill="#FCD2B1"/>
<path d="M636.136 337.257C635.966 339.544 635.792 341.933 635.641 344.461C635.361 349.186 635.191 364.195 635.039 375.082C634.885 385.631 630.485 428.07 629.3 431.239C629.064 431.088 628.828 431.003 628.567 430.959C628.567 430.959 624.963 429.321 622.509 431.973L622.481 431.995C622.481 431.995 622.462 432.124 622.437 432.366C622.437 432.366 619.161 390.592 618.405 381.45C617.655 372.281 618.705 354.128 617.325 348.754C616.938 347.16 616.38 342.436 615.775 336.419C624.235 336.785 631.694 337.084 636.136 337.257Z" fill="#FCD2B1"/>
<path d="M610.649 236.267C611.875 244.894 613.362 253.97 614.613 261.196C607.733 261.24 600.081 261.371 594.191 261.481C594.252 257.037 594.362 251.669 594.45 246.079C593.779 246.101 593.026 246.101 592.248 246.101C592.941 245.216 593.696 244.292 594.491 243.407C595.227 242.544 596 241.706 596.822 240.884C597.014 240.67 597.231 240.477 597.448 240.26C599.435 238.339 601.612 236.61 603.918 235.36C604.476 235.016 605.061 234.736 605.641 234.502C607.128 233.832 608.681 233.381 610.237 233.202C610.388 233.202 610.517 233.186 610.646 233.186C611.4 233.142 612.131 233.142 612.886 233.202C614.093 233.337 615.324 233.636 616.55 234.159L610.685 236.162C610.668 236.201 610.668 236.223 610.649 236.267Z" fill="#313657"/>
<path d="M565.549 439.477V450.762H564.142V442.038L565.549 439.477Z" fill="#34334B"/>
<path d="M632.632 439.477V450.762H631.23V442.038L632.632 439.477Z" fill="#34334B"/>
<path d="M621.239 161.434C620.783 164.583 620.159 170.061 620.461 174.505C620.505 175.344 620.588 176.143 620.72 176.877C620.72 176.899 620.72 176.899 620.72 176.921C620.742 177.092 620.783 177.265 620.805 177.438C620.934 177.955 621.066 178.452 621.212 178.886L619.857 182.204C619.574 182.248 619.252 182.289 618.93 182.311C618.301 182.333 617.631 182.333 616.902 182.311C616.102 182.267 615.242 182.182 614.376 182.097H614.357C614.272 182.075 614.187 182.075 614.099 182.053C613.711 182.009 613.299 181.946 612.911 181.902H612.889C610.171 181.514 607.563 180.951 606.139 180.629H606.114C605.449 180.478 605.037 180.365 605.037 180.365C605.037 180.365 605.749 178.686 606.634 176.226C606.697 176.012 606.785 175.775 606.87 175.533L607.453 173.788V173.766L607.472 173.744C607.714 172.972 607.972 172.15 608.209 171.306C608.272 171.092 608.341 170.855 608.379 170.619C608.552 169.99 608.706 169.368 608.835 168.739C608.893 168.373 608.986 168.03 609.047 167.681C609.522 165.029 609.654 162.505 609.047 160.691C607.607 156.423 614.827 157.374 618.928 158.237C620.5 158.559 621.621 158.88 621.621 158.88C621.621 158.88 621.454 159.883 621.239 161.434Z" fill="#FCD2B1"/>
<path d="M620.805 177.435C620.524 177.413 620.31 177.391 620.162 177.372C620.032 177.372 619.964 177.372 619.964 177.372L619.598 177.35L618.933 177.287L618.111 177.224L617.66 177.18L606.661 176.229C606.661 176.229 606.661 176.229 606.639 176.229C606.554 176.251 606.271 176.292 605.817 176.38C605.647 176.402 605.471 176.443 605.256 176.487C604.976 176.531 604.655 176.594 604.286 176.657C601.12 177.287 595.274 178.537 590.398 180.217C585.396 181.946 579.291 189.149 576.142 193.239C574.806 194.968 573.987 196.133 573.987 196.133C573.987 196.133 576.568 202.216 579.654 209.7C581.597 214.466 583.752 219.792 585.563 224.473C585.563 224.473 585.563 224.473 585.563 224.495C585.91 225.38 586.231 226.196 586.534 227.018C587.765 230.278 588.757 233.079 589.274 234.909C589.554 235.901 589.725 237.045 589.813 238.339C589.832 238.361 589.832 238.402 589.832 238.424C589.901 239.268 589.92 240.148 589.92 241.077C589.92 242.649 589.832 244.336 589.703 246.057C590.547 246.079 591.41 246.101 592.248 246.101C593.026 246.101 593.779 246.101 594.449 246.079C594.364 251.667 594.254 257.034 594.191 261.482C600.081 261.374 607.733 261.24 614.612 261.196C613.362 253.97 611.875 244.892 610.649 236.267C610.668 236.223 610.668 236.204 610.69 236.16L616.556 234.156L618.326 233.549V230.726L609.767 229.734C608.97 223.673 608.384 218.193 608.214 214.183C607.87 206.226 610.349 197.623 613.109 190.68L615.503 192.816L618.933 184.469L619.859 182.204L621.214 178.887L621.778 177.523C621.409 177.479 621.063 177.457 620.805 177.435Z" fill="#F2F2F2"/>
<path d="M620.709 176.91L605.034 189.685L606.653 176.229C606.653 176.229 615.789 174.258 620.709 176.91Z" fill="#FCD2B1"/>
<path d="M618.323 230.726V233.549L616.553 234.156L610.688 236.16C610.666 236.204 610.666 236.223 610.647 236.267V236.16C610.581 235.709 610.515 235.275 610.452 234.843C610.427 234.673 610.408 234.5 610.388 234.348C610.325 233.999 610.281 233.656 610.237 233.307V233.2C610.064 232.018 609.916 230.874 609.762 229.731L618.323 230.726Z" fill="#494F80"/>
<path d="M621.949 177.52H621.778L621.215 178.884L619.86 182.201L618.933 184.466L615.503 192.813L613.109 190.678C614.404 187.462 615.764 184.595 616.905 182.308C617.705 180.714 618.414 179.42 618.933 178.471C618.975 178.408 618.997 178.364 619.041 178.301V178.279C619.06 178.279 619.06 178.257 619.06 178.257C619.277 177.892 619.45 177.586 619.599 177.35C619.835 176.943 619.964 176.726 619.964 176.726C620.162 176.77 620.33 176.789 620.528 176.833H620.55C620.613 176.85 620.679 176.85 620.72 176.877C621.127 176.957 621.542 177.048 621.927 177.158C621.927 177.287 621.927 177.413 621.949 177.52Z" fill="#494F80"/>
<path d="M605.774 176.726C605.774 176.726 603.66 181.492 601.307 188.091C598.397 196.218 595.142 207.089 594.969 215.194C594.903 218.388 594.815 222.871 594.733 227.964C594.686 230.808 594.648 233.826 594.579 236.935C594.579 237.407 594.579 237.88 594.557 238.358C594.535 239.439 594.535 240.538 594.513 241.613C594.513 241.635 594.513 241.635 594.513 241.662C594.491 242.22 594.491 242.822 594.491 243.407C594.469 244.314 594.447 245.194 594.447 246.082C593.776 246.104 593.023 246.104 592.245 246.104C591.407 246.104 590.544 246.082 589.7 246.06C588.128 246.038 586.641 245.996 585.646 245.952C585.668 246.189 585.71 246.365 585.753 246.488C585.753 246.488 584.89 246.403 583.467 246.23C583.706 244.207 583.945 242.091 584.181 239.996C584.201 239.76 584.225 239.502 584.242 239.265C584.437 237.602 584.61 235.942 584.759 234.299C585.02 231.737 585.234 229.236 585.388 226.886C585.451 226.064 585.517 225.27 585.558 224.492C585.558 224.47 585.558 224.47 585.558 224.47C585.709 221.986 585.795 219.724 585.795 217.802L579.649 209.697L571.305 198.676C571.305 198.676 573.094 196.26 575.617 193.173C579.347 188.605 584.695 182.567 588.167 180.843C592.998 178.427 601.733 176.833 604.471 176.377L604.493 176.355C605.031 176.27 605.337 176.226 605.337 176.226L605.249 176.484L605.078 176.957C605.227 176.899 605.356 176.833 605.529 176.811H605.551C605.622 176.77 605.708 176.743 605.774 176.726Z" fill="#34334B"/>
<path d="M610.776 235.706C610.757 235.857 610.732 236.006 610.691 236.157C610.669 236.201 610.669 236.22 610.65 236.264C609.223 240.923 598.702 245.496 597.061 245.906C596.654 246.013 595.681 246.076 594.453 246.076C593.782 246.098 593.029 246.098 592.251 246.098C591.413 246.098 590.55 246.076 589.706 246.054C588.134 246.032 586.647 245.991 585.652 245.947C584.896 245.925 584.423 245.903 584.423 245.903V240.06H584.467C584.58 240.016 585.028 239.867 585.696 239.631C586.647 239.326 588.068 238.875 589.753 238.358C589.772 238.358 589.799 238.336 589.816 238.336C590.742 238.056 591.778 237.756 592.834 237.429C593.416 237.278 593.996 237.108 594.582 236.935C598.377 235.898 602.5 234.884 605.644 234.497C606.142 234.411 606.595 234.367 607.024 234.345C608.297 234.238 609.311 234.296 609.957 234.538C610.149 234.623 610.325 234.708 610.454 234.837C610.713 235.041 610.842 235.316 610.776 235.706Z" fill="#FCD2B1"/>
<path d="M618.323 230.726L612.892 233.199L610.391 234.348L609.956 234.543L597.451 240.26L594.515 241.613L594.023 241.827L589.835 238.424L589.752 238.358L584.766 234.302L573.987 225.55L585.396 226.886L586.536 227.015L590.137 227.425L594.732 227.966L609.764 229.734L618.323 230.726Z" fill="#F7F7F7"/>
<path d="M618.323 230.726V233.548L616.556 234.156L610.69 236.157H610.649L596.824 240.881L594.515 241.659L594.023 241.827L593.202 238.79L594.559 238.358L603.921 235.357L607.024 234.348L610.24 233.307L610.649 233.183L618.323 230.726Z" fill="#D3D3D3"/>
<path d="M607.469 173.741L599.05 187.115L594.972 189.685L604.473 176.374L607.469 173.741Z" fill="#F2F2F2"/>
<path d="M599.051 187.115L605.034 189.685L606.653 176.229L607.469 173.741L599.051 187.115Z" fill="#D6C5BE"/>
<path d="M585.655 245.95C585.677 246.186 585.718 246.362 585.762 246.486C585.762 246.486 584.899 246.4 583.475 246.227C576.857 245.477 557.966 243.08 555.872 239.931C554.621 238.037 553.995 235.984 553.714 234.37V234.348C553.393 232.664 553.417 231.454 553.417 231.454L584.253 239.265L585.699 239.631L585.762 239.653C585.762 239.653 585.737 239.889 585.718 240.296C585.63 241.596 585.459 244.548 585.655 245.95Z" fill="#34334B"/>
<path d="M594.024 241.838L581.084 193.761L531.919 188.569L545.395 232.826L594.024 241.838Z" fill="#D3D3D3"/>
<path d="M680.799 208.249C680.799 208.249 667.216 220.199 659.993 227.274C659.993 227.274 651.624 236.286 649.101 236.286C648.991 236.286 648.886 236.264 648.798 236.223C646.943 235.423 640.605 226.435 635.086 217.074C634.828 217.805 634.523 218.668 634.223 219.619C633.943 220.441 633.665 221.342 633.36 222.313C632.607 224.814 631.788 227.68 631.051 230.726C628.897 239.675 639.789 267.644 639.789 267.644L637.285 268.487L636.897 268.617L621.39 273.883C619.128 274.633 616.688 273.212 616.278 270.84C616.196 270.304 616.089 269.719 615.981 269.095C615.893 268.639 615.828 268.188 615.742 267.688C615.72 267.58 615.698 267.451 615.679 267.344C615.528 266.506 615.358 265.577 615.206 264.628C615.116 264.216 615.052 263.807 614.989 263.378C614.857 262.663 614.75 261.949 614.621 261.198C613.37 253.973 611.883 244.894 610.658 236.27C610.677 236.226 610.677 236.206 610.699 236.162L616.564 234.159L618.334 233.551V230.729L609.775 229.736C608.978 223.676 608.393 218.195 608.222 214.185C607.879 206.228 610.358 197.626 613.117 190.683L615.511 192.819L618.942 184.471L619.868 182.207L621.223 178.889L621.786 177.526H621.957C621.935 177.419 621.935 177.29 621.935 177.16C621.935 177.16 624.158 176.855 627.091 177.419C631.054 178.128 636.342 180.393 639.291 187.039C639.338 187.102 639.357 187.168 639.379 187.231L643.56 196.372L650.742 212.075C650.742 212.075 652.792 215.656 653.825 216.733C653.825 216.733 656.414 215.263 657.753 214.356C660.229 212.333 661.678 211.574 664.652 209.015C669.269 205.044 675.2 199.998 675.2 199.998L675.393 200.278C674.7 201.465 673.664 202.414 673.664 202.414L678.974 207.094C678.974 207.094 679.274 206.874 679.661 206.578L680.799 208.249Z" fill="#34334B"/>
<path d="M679.655 206.575C679.268 206.869 678.968 207.092 678.968 207.092L673.658 202.411C673.658 202.411 674.694 201.46 675.387 200.275L679.655 206.575Z" fill="#34334B"/>
<path d="M623.369 159.259C622.68 160.054 621.97 160.768 621.239 161.434C620.011 162.533 618.733 163.484 617.438 164.262C617.438 164.262 617.438 164.284 617.4 164.306C617.353 164.328 617.309 164.35 617.246 164.385C616.234 164.993 615.22 165.512 614.225 165.941C614.14 166.004 614.055 166.026 613.967 166.048C613.37 166.296 612.774 166.521 612.216 166.719C611.735 166.889 611.265 167.046 610.798 167.186C610.122 167.395 609.575 167.546 609.283 167.62C609.132 167.67 609.044 167.684 609.044 167.684C605.982 168.398 603.481 168.483 602.25 168.376C598.977 168.071 597.033 158.413 597.033 158.413C597.033 158.413 594.296 157.55 593.666 157.055C593.043 156.56 596.602 148.342 596.038 145.341C595.48 142.345 595.48 138.616 595.48 138.616C595.695 137.709 595.975 136.848 596.28 136.048C600.683 140.515 615.135 154.837 623.369 159.259Z" fill="#FCD2B1"/>
<path d="M609.569 187.517L605.034 189.685L620.426 174.428L609.569 187.517Z" fill="#D6C5BE"/>
<path d="M621.926 177.158L621.775 177.52L621.211 178.886L619.856 182.204L618.93 184.469L615.5 192.816L613.106 190.68L609.569 187.511L613.406 182.869L613.428 182.847L614.098 182.053L618.108 177.221L618.93 176.229L618.949 176.207L620.417 174.434L620.461 174.505L621.926 177.158Z" fill="#F2F2F2"/>
<path d="M617.449 164.262C617.378 164.374 615.022 168.035 608.39 170.627C608.549 169.998 608.698 169.366 608.832 168.736C608.904 168.382 608.978 168.027 609.041 167.673C609.041 167.675 614.527 166.334 617.449 164.262Z" fill="#A77860"/>
<path d="M564.474 219.901C565.87 219.16 565.892 216.473 564.525 213.899C563.157 211.325 560.918 209.84 559.522 210.581C558.127 211.322 558.104 214.01 559.471 216.584C560.839 219.157 563.079 220.643 564.474 219.901Z" fill="#F7F7F7"/>
<path d="M144.755 301.882C144.755 301.882 147.794 302.495 149.251 302.536C150.705 302.585 157.422 299.534 159.58 299.826C161.727 300.114 175.758 306.073 176.392 306.516C177.025 306.95 176.093 307.906 176.093 307.906L143.883 308.294L144.755 301.882Z" fill="#FCD2B1"/>
<path d="M187.442 307.655L133.871 308.057L133.908 312.963L187.479 312.562L187.442 307.655Z" fill="#D3D3D3"/>
<path d="M198.46 259.832L182.794 311.067L187.489 312.502L203.154 261.267L198.46 259.832Z" fill="#D3D3D3"/>
<path d="M89.6474 411.665L87.5834 416.136C87.5834 416.136 78.8789 412.893 78.8321 412.781C78.7882 412.673 81.2288 406.574 81.2288 406.574L89.6474 411.665Z" fill="#D3D3D3"/>
<path d="M164.181 411.568L166.583 418.602C166.583 418.602 157.038 420.713 155.647 420.6C155.526 420.589 153.844 412.635 153.844 412.635L164.181 411.568Z" fill="#D3D3D3"/>
<path d="M154.583 418.547C154.583 418.547 161.254 416.733 161.455 416.442C161.65 416.153 164.101 414.498 165.363 414.713C166.624 414.927 166.737 416.431 167.999 416.741C169.263 417.046 179.012 420.166 180.364 420.966C181.716 421.76 193.409 418.926 194.648 420.6C195.888 422.268 191.858 427.144 181.722 428.67C171.585 430.19 160.732 434.714 158.305 434.098C155.872 433.479 154.212 421.251 154.583 418.547Z" fill="#34334B"/>
<path d="M78.1476 411.59C78.1476 411.59 84.3345 414.232 84.656 414.13C84.9858 414.028 87.8498 414.243 88.6853 415.166C89.5236 416.09 88.6963 417.307 89.4742 418.308C90.2465 419.3 94.6605 425.135 95.9468 426.485C97.0023 427.584 108.681 430.016 110.539 431.954C111.938 433.419 104.407 437.863 94.5588 435.074C84.9666 432.353 73.0904 427.634 71.6144 425.707C70.133 423.764 76.2374 413.432 78.1476 411.59Z" fill="#34334B"/>
<path d="M84.4939 323.878C84.4939 323.878 111.698 335.976 117.462 340.11C123.231 344.244 135.85 351.865 136.27 353.729C136.691 355.592 139.189 353.778 134.714 363.09C130.24 372.405 109.074 394.816 107.089 397.254C105.017 399.799 90.3344 415.018 90.3344 415.018L79.291 406.703C79.291 406.703 100.523 375.483 103.596 370.893C106.669 366.303 108.057 365.627 106.237 363.593C104.42 361.57 97.1617 361.595 59.7987 346.121C56.0635 344.577 45.6439 340.995 44.2697 335.982C41.7933 326.92 43.9206 315.437 53.9609 310.391C64.0094 305.336 84.4939 323.878 84.4939 323.878Z" fill="#34334B"/>
<path d="M97.4311 236.297C97.1919 236.511 96.9309 236.973 96.6588 237.608C96.2685 238.521 95.8562 239.788 95.4549 241.189C94.2236 245.505 93.1022 251.04 93.1022 251.04C93.1022 251.04 77.532 238.064 79.7335 237.248C81.9351 236.437 83.5649 232.642 83.5649 232.642C83.5649 232.642 99.0692 234.849 97.4311 236.297Z" fill="#FCD2B1"/>
<path d="M84.0626 318.983C84.0626 318.983 112.171 325.596 119.122 327.819C126.068 330.037 138.029 333.948 141.239 335.779C142.946 336.754 145.555 338.211 148.674 348.367C152.217 359.88 160.292 392.263 162.125 397.309C163.274 400.476 166.583 412.937 166.583 412.937L152.222 415.427C152.222 415.427 135.119 380.992 133.731 371.817C131.397 356.362 125.405 356.283 122.987 354.87C120.563 353.468 108.912 356.104 67.4617 352.797C63.3197 352.47 51.9931 352.267 49.0633 347.795C43.7642 339.717 38.4183 330.543 46.6446 322.421C54.8708 314.302 84.0626 318.983 84.0626 318.983Z" fill="#34334B"/>
<path d="M102.92 203.777C102.92 203.777 107.788 212.179 106.674 214.466C105.57 216.752 111.759 222.293 110.739 223.467C109.725 224.638 107.631 226.059 107.664 226.402C107.7 226.74 105.866 237.69 103.478 237.932C101.098 238.18 84.7744 237.325 83.4222 232.232C82.0699 227.122 78.0874 215.944 77.1529 213.861C76.2101 211.791 85.621 195.751 102.92 203.777Z" fill="#FCD2B1"/>
<path d="M82.801 202.15C81.4405 203.158 80.3438 204.228 79.4643 205.321C78.3952 205.822 72.0873 208.955 73.3956 212.344C75.1657 216.906 82.3008 229.121 82.8999 230.39C82.9797 230.561 82.9796 230.239 82.9219 229.558C83.3617 225.242 88.6718 220.411 88.6718 220.411L91.5 219.127C90.024 216.384 90.6067 213.817 90.6067 213.817C93.8142 210.381 104.465 206.682 104.465 206.682C104.462 177.075 89.9388 196.859 82.801 202.15Z" fill="#072735"/>
<path d="M87.6217 216.843C86.8658 215.689 82.8915 215.876 83.466 219.27C84.0514 222.656 88.9245 225.38 89.9881 223.866C91.0518 222.357 88.4215 218.061 87.6217 216.843Z" fill="#FCD2B1"/>
<path d="M79.7308 237.248C79.7308 237.248 60.0077 248.742 55.5578 268.812C51.1053 288.878 43.0605 324.12 42.9148 328.297C42.9148 328.297 69.6054 315.451 84.0625 318.983C84.0625 318.983 93.1655 286.287 97.9561 278.555C102.744 270.829 95.6254 252.675 95.6254 252.675C95.6254 252.675 88.8256 241.778 79.7308 237.248Z" fill="#FF8C4A"/>
<path d="M96.6589 237.608C96.2686 238.52 95.8563 239.788 95.455 241.189C93.1243 240.216 88.6772 236.116 88.5398 235.986C90.3978 236.706 96.6589 237.608 96.6589 237.608Z" fill="#997761"/>
<path d="M251.363 312.51H236.585H187.403H130.037C128.203 312.51 126.716 314.302 126.716 316.514V318.892H174.744H239.91H255.607V316.514C255.607 314.302 253.705 312.51 251.363 312.51Z" fill="#FCD2B1"/>
<path d="M88.3858 252.793C88.3858 252.793 93.083 259.45 95.9882 264.486C99.2781 270.197 102.516 275.84 103.23 277.112C104.682 279.69 109.849 281.067 112.136 282.051C114.244 282.953 149.268 301.697 149.713 301.662C150.161 301.623 145.939 308.651 145.939 308.651C145.939 308.651 97.3047 294.705 95.1169 292.702C92.9291 290.703 86.4399 281.611 83.7848 277.865C81.2562 274.295 77.3781 268.443 75.325 265.92C73.019 263.103 68.1981 253.45 74.33 248.641C82.166 242.487 86.5003 249.965 88.3858 252.793Z" fill="#FF8C4A"/>
<path d="M141.009 318.892H136.949V442.398H141.009V318.892Z" fill="#34334B"/>
<path d="M247.746 318.892H243.681V442.398H247.746V318.892Z" fill="#34334B"/>
<path d="M640.429 337.428C640.429 337.428 638.857 337.365 636.136 337.257C631.695 337.087 624.235 336.785 615.781 336.414C608.945 336.133 601.439 335.79 594.389 335.446C585.96 335.034 578.129 334.624 572.778 334.239C568.339 333.934 565.58 333.654 565.58 333.44C566.701 323.413 573.663 298.267 578.819 280.586C580.287 275.534 581.603 271.096 582.59 267.795L583.131 268.015L590.764 271.14C592.317 271.764 594.04 270.645 594.062 268.938C594.062 268.746 594.062 268.531 594.087 268.314C594.109 266.478 594.147 264.147 594.194 261.481C600.084 261.374 607.736 261.24 614.615 261.196C614.745 261.946 614.852 262.661 614.984 263.375C615.047 263.804 615.11 264.213 615.201 264.626C615.352 265.577 615.522 266.506 615.674 267.341C615.696 267.448 615.718 267.578 615.737 267.685C615.822 268.185 615.888 268.636 615.976 269.092C616.083 269.716 616.19 270.299 616.273 270.837C616.682 273.209 619.123 274.633 621.385 273.88L636.892 268.614L637.28 268.485C649.744 290.871 640.429 337.428 640.429 337.428Z" fill="#FF8C4A"/>
<path d="M627.101 153.65C626.565 154.686 625.983 155.678 625.356 156.607C624.727 157.553 624.059 158.438 623.369 159.259C615.134 154.837 600.683 140.515 596.285 136.054C600.356 124.991 610.882 123.955 615.67 124.711C622.16 125.791 626.235 128.248 628.544 131.48C632.989 137.626 630.963 146.509 627.101 153.65Z" fill="#072735"/>
<path d="M626.936 214.22L626.878 216.235L625.299 214.982L626.936 214.22Z" fill="white"/>
<path d="M625.299 214.983L626.936 214.221L620.883 201.245L619.248 202.007L625.299 214.983Z" fill="#FF8C4A"/>
<path d="M626.902 215.446L626.878 216.235L626.261 215.745L626.902 215.446Z" fill="#FF8C4A"/>
<path d="M616.365 213.505L617.998 214.267L623.074 203.385L621.441 202.622L616.365 213.505Z" fill="#4E4C82"/>
<path d="M621.694 202.079L623.328 202.841L623.737 201.968L622.099 201.205L621.694 202.079Z" fill="#4E4C82"/>
<path d="M616.097 215.656L616.523 215.857L617.998 214.267L616.365 213.505L616.097 215.656Z" fill="#FCD2B1"/>
<path d="M616.022 216.159L616.186 216.235L616.392 215.794L616.228 215.719L616.022 216.159Z" fill="white"/>
<path d="M622.92 203.311L621.595 202.694L621.848 202.151L623.172 202.768L622.92 203.311Z" fill="white"/>
<path d="M618.653 207.71L620.691 203.342C620.708 203.305 620.741 203.276 620.778 203.262C620.815 203.247 620.858 203.25 620.896 203.265L621.096 203.36L621.226 203.079L621.027 202.985C620.917 202.933 620.787 202.928 620.67 202.97C620.558 203.013 620.462 203.097 620.41 203.21L618.372 207.579L618.653 207.71Z" fill="#FCD2B1"/>
<path d="M626.96 210.688H615.997V208.883H626.96V210.688ZM626.062 209.786C626.062 209.912 626.163 210.014 626.29 210.014C626.415 210.014 626.518 209.912 626.518 209.786C626.518 209.66 626.415 209.558 626.29 209.558C626.163 209.558 626.062 209.66 626.062 209.786Z" fill="#4E4C82"/>
<path d="M625.563 208.883H625.617V209.342H625.563V208.883Z" fill="#FCD2B1"/>
<path d="M624.648 208.883H624.703V209.342H624.648V208.883Z" fill="#FCD2B1"/>
<path d="M623.737 208.883H623.789V209.342H623.737V208.883Z" fill="#FCD2B1"/>
<path d="M622.822 208.883H622.877V209.342H622.822V208.883Z" fill="#FCD2B1"/>
<path d="M621.908 208.883H621.964V209.342H621.908V208.883Z" fill="#FCD2B1"/>
<path d="M620.992 208.883H621.048V209.342H620.992V208.883Z" fill="#FCD2B1"/>
<path d="M620.081 208.883H620.136V209.342H620.081V208.883Z" fill="#FCD2B1"/>
<path d="M619.167 208.883H619.221V209.342H619.167V208.883Z" fill="#FCD2B1"/>
<path d="M618.254 208.883H618.309V209.342H618.254V208.883Z" fill="#FCD2B1"/>
<path d="M617.341 208.883H617.396V209.342H617.341V208.883Z" fill="#FCD2B1"/>
<path d="M616.427 208.883H616.482V209.342H616.427V208.883Z" fill="#FCD2B1"/>
<path d="M616.89 208.883H616.936V209.113H616.89V208.883Z" fill="#FCD2B1"/>
<path d="M617.802 208.883H617.845V209.113H617.802V208.883Z" fill="#FCD2B1"/>
<path d="M618.713 208.883H618.759V209.113H618.713V208.883Z" fill="#FCD2B1"/>
<path d="M619.627 208.883H619.671V209.113H619.627V208.883Z" fill="#FCD2B1"/>
<path d="M620.543 208.883H620.589V209.113H620.543V208.883Z" fill="#FCD2B1"/>
<path d="M621.456 208.883H621.503V209.113H621.456V208.883Z" fill="#FCD2B1"/>
<path d="M622.37 208.883H622.416V209.113H622.37V208.883Z" fill="#FCD2B1"/>
<path d="M623.282 208.883H623.329V209.113H623.282V208.883Z" fill="#FCD2B1"/>
<path d="M624.196 208.883H624.242V209.113H624.196V208.883Z" fill="#FCD2B1"/>
<path d="M625.111 208.883H625.156V209.113H625.111V208.883Z" fill="#FCD2B1"/>
</svg>
