<svg width="555" height="332" viewBox="0 0 555 332" fill="none" xmlns="http://www.w3.org/2000/svg">
<path d="M107.428 320.857C120.6 320.857 131.279 310.179 131.279 297.006C131.279 283.833 120.6 273.155 107.428 273.155C94.2552 273.155 83.5768 283.833 83.5768 297.006C83.5768 310.179 94.2552 320.857 107.428 320.857Z" fill="#FF8C4A"/>
<path d="M90.9244 298.487V297.184C90.9244 296.532 91.3096 295.969 91.9022 295.732L98.4797 293.125C99.5167 292.71 100.613 293.48 100.613 294.576C100.613 295.258 100.198 295.85 99.5464 296.058L94.2428 297.836L99.5464 299.613C100.198 299.821 100.613 300.413 100.613 301.095V301.124C100.613 302.221 99.4871 302.991 98.4797 302.576L91.9022 299.969C91.3392 299.702 90.9244 299.139 90.9244 298.487Z" fill="white"/>
<path d="M110.953 289.125C111.961 289.125 112.613 290.162 112.168 291.08L104.82 306.458C104.583 306.932 104.109 307.228 103.605 307.228C102.598 307.228 101.946 306.191 102.391 305.272L109.739 289.895C109.976 289.421 110.45 289.125 110.953 289.125Z" fill="white"/>
<path d="M115.279 299.643L120.583 297.865L115.279 296.087C114.657 295.88 114.213 295.288 114.213 294.606V294.576C114.213 293.48 115.339 292.71 116.346 293.125L122.923 295.732C123.516 295.969 123.901 296.532 123.901 297.184V298.487C123.901 299.139 123.516 299.702 122.923 299.939L116.346 302.547C115.309 302.961 114.213 302.191 114.213 301.095C114.213 300.443 114.657 299.85 115.279 299.643Z" fill="white"/>
<path d="M212.679 29.8337H396.84V0.095459H212.679V29.8337Z" fill="white"/>
<path d="M212.679 149.896H396.84V120.158H212.679V149.896Z" fill="white"/>
<path d="M175.723 50.4292V13.5H367.086V50.4292H175.723Z" fill="white" stroke="#D3D3D3"/>
<path d="M175.723 111.914V74.9849H367.086V111.914H175.723Z" fill="white" stroke="#D3D3D3"/>
<path d="M175.723 173.399V136.47H367.086V173.399H175.723Z" fill="white" stroke="#D3D3D3"/>
<path d="M175.723 234.884V197.955H367.086V234.884H175.723Z" fill="white" stroke="#D3D3D3"/>
<path d="M226.67 28.2186H225.387L223.209 29.6419V30.9033L225.297 29.5397H225.349V36.9459H226.67V28.2186ZM229.395 37.0269C229.859 37.0269 230.247 36.6476 230.247 36.1746C230.247 35.7101 229.859 35.3266 229.395 35.3266C228.926 35.3266 228.542 35.7101 228.542 36.1746C228.542 36.6476 228.926 37.0269 229.395 37.0269ZM242.135 28.2186H240.831V34.6277H240.75L236.31 28.2186H235.091V36.9459H236.408V30.5454H236.489L240.925 36.9459H242.135V28.2186ZM245.859 37.0908C246.941 37.0908 247.55 36.5411 247.793 36.051H247.844V36.9459H249.089V32.5993C249.089 30.6945 247.589 30.3152 246.549 30.3152C245.364 30.3152 244.273 30.7925 243.847 31.9857L245.045 32.2584C245.232 31.7939 245.709 31.3465 246.566 31.3465C247.388 31.3465 247.81 31.7769 247.81 32.5184V32.5482C247.81 33.0127 247.333 33.0042 246.157 33.1405C244.917 33.2854 243.647 33.6093 243.647 35.0965C243.647 36.3834 244.614 37.0908 245.859 37.0908ZM246.136 36.0681C245.415 36.0681 244.895 35.7442 244.895 35.1135C244.895 34.4317 245.501 34.1888 246.238 34.0908C246.651 34.0354 247.631 33.9246 247.814 33.7414V34.5851C247.814 35.3607 247.197 36.0681 246.136 36.0681ZM246.089 29.5269H247.107L248.428 27.5624H247.086L246.089 29.5269ZM250.786 39.4005H252.06V35.9275H252.137C252.367 36.3451 252.835 37.0738 254.029 37.0738C255.614 37.0738 256.764 35.8039 256.764 33.686C256.764 31.5638 255.597 30.3152 254.016 30.3152C252.801 30.3152 252.362 31.0567 252.137 31.4615H252.03V30.4005H250.786V39.4005ZM252.034 33.6732C252.034 32.3053 252.631 31.3976 253.743 31.3976C254.898 31.3976 255.477 32.3735 255.477 33.6732C255.477 34.9857 254.881 35.9871 253.743 35.9871C252.648 35.9871 252.034 35.0496 252.034 33.6732ZM260.097 37.0908C261.179 37.0908 261.789 36.5411 262.031 36.051H262.083V36.9459H263.327V32.5993C263.327 30.6945 261.827 30.3152 260.787 30.3152C259.602 30.3152 258.512 30.7925 258.085 31.9857L259.283 32.2584C259.47 31.7939 259.948 31.3465 260.804 31.3465C261.627 31.3465 262.049 31.7769 262.049 32.5184V32.5482C262.049 33.0127 261.571 33.0042 260.395 33.1405C259.155 33.2854 257.885 33.6093 257.885 35.0965C257.885 36.3834 258.852 37.0908 260.097 37.0908ZM260.374 36.0681C259.654 36.0681 259.134 35.7442 259.134 35.1135C259.134 34.4317 259.739 34.1888 260.476 34.0908C260.889 34.0354 261.87 33.9246 262.053 33.7414V34.5851C262.053 35.3607 261.435 36.0681 260.374 36.0681ZM267.474 37.0738C268.667 37.0738 269.136 36.3451 269.366 35.9275H269.473V36.9459H270.717V28.2186H269.443V31.4615H269.366C269.136 31.0567 268.702 30.3152 267.483 30.3152C265.902 30.3152 264.739 31.5638 264.739 33.686C264.739 35.8039 265.885 37.0738 267.474 37.0738ZM267.756 35.9871C266.618 35.9871 266.025 34.9857 266.025 33.6732C266.025 32.3735 266.605 31.3976 267.756 31.3976C268.868 31.3976 269.464 32.3053 269.464 33.6732C269.464 35.0496 268.855 35.9871 267.756 35.9871ZM275.712 36.9459H276.986V34.6235L277.621 33.9885L279.845 36.9459H281.409L278.579 33.2087L281.23 30.4005H279.704L277.096 33.1704H276.986V28.2186H275.712V36.9459ZM283.665 28.2186H282.391V36.9459H283.665V28.2186ZM285.379 36.9459H286.654V30.4005H285.379V36.9459ZM286.023 29.3905C286.462 29.3905 286.828 29.0496 286.828 28.632C286.828 28.2144 286.462 27.8692 286.023 27.8692C285.58 27.8692 285.218 28.2144 285.218 28.632C285.218 29.0496 285.58 29.3905 286.023 29.3905ZM291.189 37.078C292.616 37.078 293.626 36.3749 293.916 35.3096L292.71 35.0922C292.48 35.7101 291.926 36.0255 291.202 36.0255C290.111 36.0255 289.378 35.3181 289.344 34.0567H293.997V33.605C293.997 31.24 292.582 30.3152 291.099 30.3152C289.275 30.3152 288.074 31.7044 288.074 33.7158C288.074 35.7485 289.258 37.078 291.189 37.078ZM289.348 33.1022C289.399 32.1732 290.072 31.3678 291.108 31.3678C292.096 31.3678 292.744 32.1008 292.748 33.1022H289.348ZM296.685 33.0596C296.685 32.0155 297.324 31.4189 298.21 31.4189C299.076 31.4189 299.6 31.9857 299.6 32.936V36.9459H300.874V32.7826C300.874 31.1633 299.983 30.3152 298.645 30.3152C297.661 30.3152 297.017 30.7712 296.715 31.4658H296.634V30.4005H295.411V36.9459H296.685V33.0596ZM305.638 30.4005H304.296V28.8323H303.022V30.4005H302.063V31.4232H303.022V35.2883C303.017 36.4772 303.925 37.0525 304.931 37.0312C305.335 37.0269 305.608 36.9502 305.757 36.8948L305.527 35.8422C305.442 35.8593 305.284 35.8976 305.08 35.8976C304.666 35.8976 304.296 35.7613 304.296 35.024V31.4232H305.638V30.4005ZM308.952 37.0908C310.035 37.0908 310.644 36.5411 310.887 36.051H310.938V36.9459H312.182V32.5993C312.182 30.6945 310.682 30.3152 309.643 30.3152C308.458 30.3152 307.367 30.7925 306.941 31.9857L308.138 32.2584C308.326 31.7939 308.803 31.3465 309.66 31.3465C310.482 31.3465 310.904 31.7769 310.904 32.5184V32.5482C310.904 33.0127 310.427 33.0042 309.251 33.1405C308.011 33.2854 306.741 33.6093 306.741 35.0965C306.741 36.3834 307.708 37.0908 308.952 37.0908ZM309.229 36.0681C308.509 36.0681 307.989 35.7442 307.989 35.1135C307.989 34.4317 308.594 34.1888 309.332 34.0908C309.745 34.0354 310.725 33.9246 310.908 33.7414V34.5851C310.908 35.3607 310.29 36.0681 309.229 36.0681Z" fill="#98999A"/>
<path d="M223.359 98.4308H229.103V97.3016H225.174V97.2377L226.908 95.4223C228.506 93.8073 228.962 93.0359 228.962 92.0601C228.962 90.6581 227.82 89.5842 226.175 89.5842C224.543 89.5842 223.35 90.6411 223.35 92.2348H224.607C224.603 91.2973 225.208 90.6837 226.15 90.6837C227.036 90.6837 227.709 91.2291 227.709 92.0984C227.709 92.8698 227.249 93.4237 226.312 94.4166L223.359 97.4763V98.4308ZM231.574 98.5118C232.039 98.5118 232.427 98.1325 232.427 97.6595C232.427 97.195 232.039 96.8115 231.574 96.8115C231.106 96.8115 230.722 97.195 230.722 97.6595C230.722 98.1325 231.106 98.5118 231.574 98.5118ZM237.271 98.4308H238.588V95.7163L239.619 94.5317L242.44 98.4308H244.025L240.492 93.6325L244.012 89.7036H242.355L238.694 93.8712H238.588V89.7036H237.271V98.4308ZM247.414 98.5629C249.259 98.5629 250.465 97.2121 250.465 95.1879C250.465 93.151 249.259 91.8002 247.414 91.8002C245.569 91.8002 244.363 93.151 244.363 95.1879C244.363 97.2121 245.569 98.5629 247.414 98.5629ZM247.418 97.4933C246.212 97.4933 245.65 96.4408 245.65 95.1837C245.65 93.9308 246.212 92.8655 247.418 92.8655C248.616 92.8655 249.178 93.9308 249.178 95.1837C249.178 96.4408 248.616 97.4933 247.418 97.4933ZM251.887 98.4308H253.161V94.3953C253.161 93.5132 253.779 92.8996 254.504 92.8996C255.211 92.8996 255.701 93.3683 255.701 94.08V98.4308H256.971V94.259C256.971 93.4706 257.453 92.8996 258.284 92.8996C258.957 92.8996 259.511 93.2746 259.511 94.1609V98.4308H260.785V94.0416C260.785 92.5459 259.95 91.8002 258.765 91.8002C257.823 91.8002 257.116 92.2519 256.801 92.9507H256.732C256.447 92.2348 255.846 91.8002 254.973 91.8002C254.107 91.8002 253.464 92.2305 253.191 92.9507H253.11V91.8854H251.887V98.4308ZM262.493 100.885H263.767V97.4124H263.844C264.074 97.83 264.542 98.5587 265.736 98.5587C267.321 98.5587 268.471 97.2888 268.471 95.1709C268.471 93.0487 267.304 91.8002 265.723 91.8002C264.508 91.8002 264.069 92.5416 263.844 92.9465H263.737V91.8854H262.493V100.885ZM263.741 95.1581C263.741 93.7902 264.338 92.8825 265.45 92.8825C266.605 92.8825 267.185 93.8584 267.185 95.1581C267.185 96.4706 266.588 97.472 265.45 97.472C264.355 97.472 263.741 96.5345 263.741 95.1581ZM269.899 98.4308H271.173V91.8854H269.899V98.4308ZM270.542 90.8754C270.981 90.8754 271.348 90.5345 271.348 90.1169C271.348 89.6993 270.981 89.3541 270.542 89.3541C270.099 89.3541 269.737 89.6993 269.737 90.1169C269.737 90.5345 270.099 90.8754 270.542 90.8754ZM274.161 89.7036H272.887V98.4308H274.161V89.7036ZM277.78 98.5757C278.863 98.5757 279.472 98.026 279.715 97.5359H279.766V98.4308H281.011V94.0842C281.011 92.1794 279.511 91.8002 278.471 91.8002C277.286 91.8002 276.195 92.2774 275.769 93.4706L276.966 93.7433C277.154 93.2788 277.631 92.8314 278.488 92.8314C279.31 92.8314 279.732 93.2618 279.732 94.0033V94.0331C279.732 94.4976 279.255 94.4891 278.079 94.6254C276.839 94.7703 275.569 95.0942 275.569 96.5814C275.569 97.8683 276.536 98.5757 277.78 98.5757ZM278.057 97.553C277.337 97.553 276.817 97.2291 276.817 96.5984C276.817 95.9166 277.422 95.6737 278.16 95.5757C278.573 95.5203 279.553 95.4095 279.736 95.2263V96.07C279.736 96.8456 279.118 97.553 278.057 97.553ZM285.465 98.5629C287.012 98.5629 288.013 97.634 288.154 96.3598H286.914C286.752 97.0672 286.202 97.4848 285.473 97.4848C284.395 97.4848 283.701 96.5857 283.701 95.1581C283.701 93.7561 284.408 92.874 285.473 92.874C286.283 92.874 286.777 93.3854 286.914 93.999H288.154C288.017 92.678 286.939 91.8002 285.452 91.8002C283.607 91.8002 282.414 93.1894 282.414 95.1879C282.414 97.1609 283.564 98.5629 285.465 98.5629ZM292.337 98.5629C293.765 98.5629 294.775 97.8598 295.064 96.7945L293.859 96.5771C293.628 97.195 293.074 97.5104 292.35 97.5104C291.259 97.5104 290.526 96.803 290.492 95.5416H295.145V95.0899C295.145 92.7249 293.731 91.8002 292.248 91.8002C290.424 91.8002 289.222 93.1894 289.222 95.2007C289.222 97.2334 290.407 98.5629 292.337 98.5629ZM290.496 94.5871C290.547 93.6581 291.221 92.8527 292.256 92.8527C293.245 92.8527 293.893 93.5857 293.897 94.5871H290.496ZM301.009 94.5445C301.009 93.5004 301.648 92.9038 302.535 92.9038C303.4 92.9038 303.924 93.4706 303.924 94.4209V98.4308H305.198V94.2675C305.198 92.6482 304.307 91.8002 302.969 91.8002C301.985 91.8002 301.341 92.2561 301.039 92.9507H300.958V91.8854H299.735V98.4308H301.009V94.5445ZM308.812 98.5757C309.894 98.5757 310.503 98.026 310.746 97.5359H310.797V98.4308H312.042V94.0842C312.042 92.1794 310.542 91.8002 309.502 91.8002C308.317 91.8002 307.226 92.2774 306.8 93.4706L307.998 93.7433C308.185 93.2788 308.663 92.8314 309.519 92.8314C310.341 92.8314 310.763 93.2618 310.763 94.0033V94.0331C310.763 94.4976 310.286 94.4891 309.11 94.6254C307.87 94.7703 306.6 95.0942 306.6 96.5814C306.6 97.8683 307.567 98.5757 308.812 98.5757ZM309.089 97.553C308.368 97.553 307.849 97.2291 307.849 96.5984C307.849 95.9166 308.454 95.6737 309.191 95.5757C309.604 95.5203 310.584 95.4095 310.768 95.2263V96.07C310.768 96.8456 310.15 97.553 309.089 97.553ZM309.042 91.0118H310.06L311.381 89.0473H310.039L309.042 91.0118ZM313.739 100.885H315.013V97.4124H315.09C315.32 97.83 315.789 98.5587 316.982 98.5587C318.567 98.5587 319.718 97.2888 319.718 95.1709C319.718 93.0487 318.55 91.8002 316.969 91.8002C315.754 91.8002 315.316 92.5416 315.09 92.9465H314.983V91.8854H313.739V100.885ZM314.987 95.1581C314.987 93.7902 315.584 92.8825 316.696 92.8825C317.851 92.8825 318.431 93.8584 318.431 95.1581C318.431 96.4706 317.834 97.472 316.696 97.472C315.601 97.472 314.987 96.5345 314.987 95.1581ZM323.05 98.5757C324.132 98.5757 324.742 98.026 324.985 97.5359H325.036V98.4308H326.28V94.0842C326.28 92.1794 324.78 91.8002 323.74 91.8002C322.556 91.8002 321.465 92.2774 321.039 93.4706L322.236 93.7433C322.424 93.2788 322.901 92.8314 323.757 92.8314C324.58 92.8314 325.002 93.2618 325.002 94.0033V94.0331C325.002 94.4976 324.524 94.4891 323.348 94.6254C322.108 94.7703 320.838 95.0942 320.838 96.5814C320.838 97.8683 321.806 98.5757 323.05 98.5757ZM323.327 97.553C322.607 97.553 322.087 97.2291 322.087 96.5984C322.087 95.9166 322.692 95.6737 323.429 95.5757C323.843 95.5203 324.823 95.4095 325.006 95.2263V96.07C325.006 96.8456 324.388 97.553 323.327 97.553ZM330.427 98.5587C331.621 98.5587 332.089 97.83 332.319 97.4124H332.426V98.4308H333.67V89.7036H332.396V92.9465H332.319C332.089 92.5416 331.655 91.8002 330.436 91.8002C328.855 91.8002 327.692 93.0487 327.692 95.1709C327.692 97.2888 328.838 98.5587 330.427 98.5587ZM330.709 97.472C329.571 97.472 328.979 96.4706 328.979 95.1581C328.979 93.8584 329.558 92.8825 330.709 92.8825C331.821 92.8825 332.417 93.7902 332.417 95.1581C332.417 96.5345 331.808 97.472 330.709 97.472ZM339.635 95.7163C339.639 96.8286 338.813 97.357 338.097 97.357C337.308 97.357 336.763 96.7859 336.763 95.8953V91.8854H335.489V96.0487C335.489 97.6723 336.379 98.5161 337.637 98.5161C338.621 98.5161 339.29 97.9962 339.593 97.2973H339.661V98.4308H340.914V91.8854H339.635V95.7163Z" fill="#98999A"/>
<path d="M226.397 160.035C228.178 160.035 229.486 158.97 229.482 157.521C229.486 156.417 228.817 155.625 227.658 155.446V155.377C228.57 155.143 229.163 154.427 229.158 153.447C229.163 152.164 228.11 151.069 226.431 151.069C224.829 151.069 223.542 152.036 223.499 153.455H224.773C224.803 152.654 225.557 152.169 226.414 152.169C227.305 152.169 227.888 152.71 227.884 153.515C227.888 154.359 227.211 154.913 226.243 154.913H225.506V155.987H226.243C227.454 155.987 228.153 156.6 228.153 157.478C228.153 158.326 227.415 158.902 226.388 158.902C225.442 158.902 224.705 158.416 224.654 157.64H223.316C223.371 159.063 224.633 160.035 226.397 160.035ZM231.68 159.997C232.144 159.997 232.532 159.617 232.532 159.144C232.532 158.68 232.144 158.296 231.68 158.296C231.211 158.296 230.828 158.68 230.828 159.144C230.828 159.617 231.211 159.997 231.68 159.997ZM242.136 153.481H243.406C243.368 152.083 242.132 151.069 240.359 151.069C238.608 151.069 237.265 152.071 237.265 153.575C237.265 154.789 238.135 155.501 239.537 155.88L240.568 156.161C241.501 156.409 242.221 156.715 242.221 157.491C242.221 158.343 241.408 158.906 240.287 158.906C239.273 158.906 238.429 158.454 238.352 157.504H237.031C237.116 159.085 238.339 160.061 240.295 160.061C242.345 160.061 243.525 158.982 243.525 157.504C243.525 155.931 242.123 155.322 241.015 155.049L240.163 154.828C239.481 154.653 238.574 154.333 238.578 153.498C238.578 152.757 239.256 152.207 240.329 152.207C241.331 152.207 242.042 152.676 242.136 153.481ZM244.997 162.37H246.271V158.897H246.348C246.578 159.315 247.046 160.044 248.24 160.044C249.825 160.044 250.975 158.774 250.975 156.656C250.975 154.534 249.808 153.285 248.227 153.285C247.012 153.285 246.573 154.027 246.348 154.431H246.241V153.37H244.997V162.37ZM246.245 156.643C246.245 155.275 246.842 154.367 247.954 154.367C249.109 154.367 249.688 155.343 249.688 156.643C249.688 157.955 249.092 158.957 247.954 158.957C246.859 158.957 246.245 158.019 246.245 156.643ZM255.16 160.048C257.005 160.048 258.211 158.697 258.211 156.673C258.211 154.636 257.005 153.285 255.16 153.285C253.315 153.285 252.109 154.636 252.109 156.673C252.109 158.697 253.315 160.048 255.16 160.048ZM255.164 158.978C253.958 158.978 253.396 157.926 253.396 156.669C253.396 155.416 253.958 154.35 255.164 154.35C256.362 154.35 256.924 155.416 256.924 156.669C256.924 157.926 256.362 158.978 255.164 158.978ZM259.633 159.916H260.908V157.593L261.542 156.958L263.767 159.916H265.331L262.501 156.179L265.152 153.37H263.626L261.018 156.14H260.908V151.188H259.633V159.916ZM268.801 160.048C270.646 160.048 271.852 158.697 271.852 156.673C271.852 154.636 270.646 153.285 268.801 153.285C266.955 153.285 265.75 154.636 265.75 156.673C265.75 158.697 266.955 160.048 268.801 160.048ZM268.805 158.978C267.599 158.978 267.036 157.926 267.036 156.669C267.036 155.416 267.599 154.35 268.805 154.35C270.002 154.35 270.565 155.416 270.565 156.669C270.565 157.926 270.002 158.978 268.805 158.978ZM273.274 153.37V160.333C273.274 160.938 273.023 161.271 272.417 161.271H272.213V162.366C272.302 162.37 272.383 162.37 272.473 162.37C273.828 162.37 274.548 161.654 274.548 160.342V153.37H273.274ZM273.905 152.36C274.344 152.36 274.71 152.019 274.71 151.602C274.71 151.184 274.344 150.839 273.905 150.839C273.462 150.839 273.099 151.184 273.099 151.602C273.099 152.019 273.462 152.36 273.905 152.36ZM279.083 160.048C280.511 160.048 281.521 159.345 281.811 158.279L280.605 158.062C280.375 158.68 279.821 158.995 279.096 158.995C278.005 158.995 277.272 158.288 277.238 157.027H281.892V156.575C281.892 154.21 280.477 153.285 278.994 153.285C277.17 153.285 275.968 154.674 275.968 156.686C275.968 158.718 277.153 160.048 279.083 160.048ZM277.242 156.072C277.294 155.143 277.967 154.338 279.002 154.338C279.991 154.338 280.639 155.071 280.643 156.072H277.242ZM284.579 156.029C284.579 154.985 285.219 154.389 286.105 154.389C286.97 154.389 287.494 154.955 287.494 155.906V159.916H288.768V155.752C288.768 154.133 287.878 153.285 286.54 153.285C285.555 153.285 284.912 153.741 284.609 154.436H284.528V153.37H283.305V159.916H284.579V156.029ZM290.477 159.916H291.751V153.37H290.477V159.916ZM290.596 152.497H291.615L292.936 150.532H291.594L290.596 152.497ZM300.788 157.201C300.792 158.313 299.965 158.842 299.249 158.842C298.461 158.842 297.915 158.271 297.915 157.38V153.37H296.641V157.534C296.641 159.157 297.532 160.001 298.789 160.001C299.773 160.001 300.442 159.481 300.745 158.782H300.813V159.916H302.066V153.37H300.788V157.201ZM303.642 159.916H308.896V158.808H305.367V158.748L308.777 154.299V153.37H303.757V154.478H307.187V154.538L303.642 159.042V159.916ZM305.346 150.715H304.196V150.779L305.691 152.586H306.752L308.252 150.779V150.715H307.098L306.224 151.857L305.346 150.715ZM310.399 159.916H311.673V153.37H310.399V159.916ZM311.042 152.36C311.481 152.36 311.848 152.019 311.848 151.602C311.848 151.184 311.481 150.839 311.042 150.839C310.599 150.839 310.237 151.184 310.237 151.602C310.237 152.019 310.599 152.36 311.042 152.36ZM318.987 153.37H317.619L315.965 158.407H315.897L314.24 153.37H312.872L315.25 159.916H316.613L318.987 153.37ZM321.89 160.061C322.972 160.061 323.582 159.511 323.824 159.021H323.876V159.916H325.12V155.569C325.12 153.664 323.62 153.285 322.58 153.285C321.395 153.285 320.305 153.762 319.878 154.955L321.076 155.228C321.263 154.764 321.741 154.316 322.597 154.316C323.42 154.316 323.841 154.747 323.841 155.488V155.518C323.841 155.982 323.364 155.974 322.188 156.11C320.948 156.255 319.678 156.579 319.678 158.066C319.678 159.353 320.645 160.061 321.89 160.061ZM322.167 159.038C321.447 159.038 320.927 158.714 320.927 158.083C320.927 157.402 321.532 157.159 322.269 157.061C322.682 157.005 323.663 156.894 323.846 156.711V157.555C323.846 158.33 323.228 159.038 322.167 159.038ZM329.872 153.37H328.53V151.802H327.256V153.37H326.297V154.393H327.256V158.258C327.252 159.447 328.159 160.022 329.165 160.001C329.57 159.997 329.843 159.92 329.992 159.865L329.762 158.812C329.676 158.829 329.519 158.867 329.314 158.867C328.901 158.867 328.53 158.731 328.53 157.994V154.393H329.872V153.37ZM334.033 160.048C335.46 160.048 336.47 159.345 336.76 158.279L335.554 158.062C335.324 158.68 334.77 158.995 334.045 158.995C332.954 158.995 332.221 158.288 332.187 157.027H336.841V156.575C336.841 154.21 335.426 153.285 333.943 153.285C332.119 153.285 330.917 154.674 330.917 156.686C330.917 158.718 332.102 160.048 334.033 160.048ZM332.192 156.072C332.243 155.143 332.916 154.338 333.952 154.338C334.94 154.338 335.588 155.071 335.592 156.072H332.192ZM339.529 151.188H338.254V159.916H339.529V151.188ZM344.064 160.048C345.491 160.048 346.501 159.345 346.791 158.279L345.585 158.062C345.355 158.68 344.801 158.995 344.077 158.995C342.986 158.995 342.253 158.288 342.219 157.027H346.872V156.575C346.872 154.21 345.457 153.285 343.974 153.285C342.15 153.285 340.949 154.674 340.949 156.686C340.949 158.718 342.133 160.048 344.064 160.048ZM342.223 156.072C342.274 155.143 342.947 154.338 343.983 154.338C344.971 154.338 345.619 155.071 345.623 156.072H342.223ZM343.399 152.497H344.417L345.739 150.532H344.396L343.399 152.497Z" fill="#98999A"/>
<path d="M223.175 218.75H227.313V220.455H228.57V218.75H229.725V217.634H228.57V211.727H226.947L223.175 217.685V218.75ZM227.322 217.634H224.556V217.565L227.253 213.296H227.322V217.634ZM231.739 220.536C232.203 220.536 232.591 220.156 232.591 219.683C232.591 219.219 232.203 218.835 231.739 218.835C231.27 218.835 230.886 219.219 230.886 219.683C230.886 220.156 231.27 220.536 231.739 220.536ZM237.435 220.455H238.752V217.386H240.541C242.566 217.386 243.567 216.163 243.567 214.553C243.567 212.946 242.574 211.727 240.546 211.727H237.435V220.455ZM238.752 216.27V212.857H240.405C241.709 212.857 242.242 213.564 242.242 214.553C242.242 215.541 241.709 216.27 240.422 216.27H238.752ZM245.008 220.455H246.283V216.458C246.283 215.601 246.943 214.983 247.846 214.983C248.111 214.983 248.409 215.03 248.511 215.06V213.841C248.383 213.824 248.132 213.811 247.97 213.811C247.203 213.811 246.547 214.246 246.308 214.949H246.24V213.909H245.008V220.455ZM252.137 220.587C253.982 220.587 255.188 219.236 255.188 217.212C255.188 215.175 253.982 213.824 252.137 213.824C250.291 213.824 249.085 215.175 249.085 217.212C249.085 219.236 250.291 220.587 252.137 220.587ZM252.141 219.517C250.935 219.517 250.372 218.465 250.372 217.208C250.372 215.955 250.935 214.889 252.141 214.889C253.338 214.889 253.901 215.955 253.901 217.208C253.901 218.465 253.338 219.517 252.141 219.517ZM261.515 215.507C261.251 214.489 260.454 213.824 259.039 213.824C257.56 213.824 256.512 214.604 256.512 215.763C256.512 216.692 257.074 217.31 258.302 217.583L259.41 217.825C260.04 217.966 260.334 218.247 260.334 218.656C260.334 219.163 259.793 219.56 258.958 219.56C258.195 219.56 257.705 219.232 257.552 218.588L256.32 218.776C256.533 219.935 257.496 220.587 258.966 220.587C260.547 220.587 261.643 219.747 261.643 218.563C261.643 217.638 261.055 217.067 259.853 216.79L258.813 216.551C258.093 216.381 257.782 216.138 257.786 215.695C257.782 215.192 258.327 214.834 259.052 214.834C259.844 214.834 260.211 215.273 260.36 215.712L261.515 215.507ZM263.044 222.909H264.318V219.436H264.394C264.625 219.854 265.093 220.583 266.286 220.583C267.872 220.583 269.022 219.313 269.022 217.195C269.022 215.073 267.855 213.824 266.274 213.824C265.059 213.824 264.62 214.565 264.394 214.97H264.288V213.909H263.044V222.909ZM264.292 217.182C264.292 215.814 264.889 214.906 266.001 214.906C267.156 214.906 267.735 215.882 267.735 217.182C267.735 218.494 267.139 219.496 266.001 219.496C264.906 219.496 264.292 218.558 264.292 217.182ZM273.271 220.587C274.698 220.587 275.708 219.884 275.998 218.818L274.792 218.601C274.562 219.219 274.008 219.534 273.284 219.534C272.193 219.534 271.46 218.827 271.426 217.565H276.079V217.114C276.079 214.749 274.664 213.824 273.181 213.824C271.357 213.824 270.156 215.213 270.156 217.225C270.156 219.257 271.34 220.587 273.271 220.587ZM271.43 216.611C271.481 215.682 272.154 214.877 273.19 214.877C274.178 214.877 274.826 215.61 274.83 216.611H271.43ZM277.493 220.455H278.767V216.458C278.767 215.601 279.427 214.983 280.331 214.983C280.595 214.983 280.893 215.03 280.996 215.06V213.841C280.868 213.824 280.616 213.811 280.454 213.811C279.687 213.811 279.031 214.246 278.792 214.949H278.724V213.909H277.493V220.455ZM286.245 217.74C286.249 218.852 285.422 219.381 284.706 219.381C283.918 219.381 283.372 218.81 283.372 217.919V213.909H282.098V218.073C282.098 219.696 282.989 220.54 284.246 220.54C285.23 220.54 285.899 220.02 286.202 219.321H286.27V220.455H287.523V213.909H286.245V217.74ZM289.235 213.909V220.872C289.235 221.477 288.984 221.81 288.378 221.81H288.174V222.905C288.263 222.909 288.344 222.909 288.434 222.909C289.789 222.909 290.509 222.193 290.509 220.881V213.909H289.235ZM289.866 212.899C290.305 212.899 290.671 212.558 290.671 212.141C290.671 211.723 290.305 211.378 289.866 211.378C289.422 211.378 289.06 211.723 289.06 212.141C289.06 212.558 289.422 212.899 289.866 212.899ZM292.223 220.455H293.497V213.909H292.223V220.455ZM292.343 213.036H293.361L294.682 211.071H293.34L292.343 213.036ZM297.969 220.587C299.515 220.587 300.517 219.658 300.658 218.384H299.417C299.256 219.091 298.706 219.509 297.977 219.509C296.899 219.509 296.204 218.61 296.204 217.182C296.204 215.78 296.912 214.898 297.977 214.898C298.787 214.898 299.281 215.409 299.417 216.023H300.658C300.521 214.702 299.443 213.824 297.956 213.824C296.111 213.824 294.917 215.213 294.917 217.212C294.917 219.185 296.068 220.587 297.969 220.587ZM302.02 220.455H303.294V213.909H302.02V220.455ZM302.139 213.036H303.158L304.479 211.071H303.137L302.139 213.036ZM308.184 222.909H309.458V219.436H309.535C309.765 219.854 310.234 220.583 311.427 220.583C313.012 220.583 314.163 219.313 314.163 217.195C314.163 215.073 312.995 213.824 311.414 213.824C310.2 213.824 309.761 214.565 309.535 214.97H309.428V213.909H308.184V222.909ZM309.433 217.182C309.433 215.814 310.029 214.906 311.142 214.906C312.296 214.906 312.876 215.882 312.876 217.182C312.876 218.494 312.279 219.496 311.142 219.496C310.046 219.496 309.433 218.558 309.433 217.182ZM315.59 220.455H316.865V216.458C316.865 215.601 317.525 214.983 318.428 214.983C318.693 214.983 318.991 215.03 319.093 215.06V213.841C318.965 213.824 318.714 213.811 318.552 213.811C317.785 213.811 317.129 214.246 316.89 214.949H316.822V213.909H315.59V220.455ZM322.719 220.587C324.564 220.587 325.77 219.236 325.77 217.212C325.77 215.175 324.564 213.824 322.719 213.824C320.873 213.824 319.667 215.175 319.667 217.212C319.667 219.236 320.873 220.587 322.719 220.587ZM322.723 219.517C321.517 219.517 320.954 218.465 320.954 217.208C320.954 215.955 321.517 214.889 322.723 214.889C323.92 214.889 324.483 215.955 324.483 217.208C324.483 218.465 323.92 219.517 322.723 219.517ZM329.642 220.583C330.835 220.583 331.304 219.854 331.534 219.436H331.641V220.455H332.885V211.727H331.611V214.97H331.534C331.304 214.565 330.87 213.824 329.651 213.824C328.07 213.824 326.906 215.073 326.906 217.195C326.906 219.313 328.053 220.583 329.642 220.583ZM329.924 219.496C328.786 219.496 328.193 218.494 328.193 217.182C328.193 215.882 328.773 214.906 329.924 214.906C331.036 214.906 331.632 215.814 331.632 217.182C331.632 218.558 331.023 219.496 329.924 219.496ZM338.85 217.74C338.854 218.852 338.028 219.381 337.312 219.381C336.523 219.381 335.978 218.81 335.978 217.919V213.909H334.704V218.073C334.704 219.696 335.594 220.54 336.851 220.54C337.836 220.54 338.505 220.02 338.807 219.321H338.876V220.455H340.128V213.909H338.85V217.74ZM341.84 220.455H343.115V218.132L343.75 217.497L345.974 220.455H347.538L344.708 216.717L347.359 213.909H345.833L343.225 216.679H343.115V211.727H341.84V220.455ZM351.576 213.909H350.233V212.341H348.959V213.909H348V214.932H348.959V218.797C348.955 219.986 349.862 220.561 350.868 220.54C351.273 220.536 351.546 220.459 351.695 220.404L351.465 219.351C351.379 219.368 351.222 219.406 351.017 219.406C350.604 219.406 350.233 219.27 350.233 218.533V214.932H351.576V213.909Z" fill="#98999A"/>
<path d="M188.821 93.4033C188.821 87.1866 193.467 82.0552 199.477 81.2928C198.969 81.2283 198.451 81.195 197.925 81.195C191.183 81.195 185.717 86.6609 185.717 93.4033C185.717 100.146 191.183 105.612 197.925 105.612C198.451 105.612 198.969 105.578 199.477 105.514C193.467 104.751 188.821 99.6201 188.821 93.4033Z" fill="#E6E6E6"/>
<path d="M197.925 106.646C194.388 106.646 191.062 105.269 188.561 102.768C186.06 100.266 184.682 96.9406 184.682 93.4033C184.682 89.866 186.06 86.5405 188.561 84.0392C191.062 81.538 194.388 80.1604 197.925 80.1604C201.462 80.1604 204.788 81.538 207.289 84.0392C209.791 86.5405 211.168 89.866 211.168 93.4033C211.168 96.9406 209.791 100.266 207.289 102.768C204.788 105.269 201.462 106.646 197.925 106.646ZM197.925 82.2296C191.764 82.2296 186.751 87.2421 186.751 93.4033C186.751 99.5645 191.764 104.577 197.925 104.577C204.086 104.577 209.099 99.5645 209.099 93.4033C209.099 87.2421 204.086 82.2296 197.925 82.2296Z" fill="#E6E6E6"/>
<path d="M201.95 88.8834C201.126 88.4146 200.148 88.424 199.334 88.9079L195.402 91.2443C195.111 91.4175 194.863 91.6395 194.666 91.8964V89.5236C194.666 88.9522 194.203 88.489 193.632 88.489C193.06 88.489 192.597 88.9522 192.597 89.5236V97.3348C192.597 97.9062 193.06 98.3694 193.632 98.3694C194.203 98.3694 194.666 97.9062 194.666 97.3348V95.0138C194.863 95.2706 195.111 95.4927 195.402 95.6659L199.334 98.0022H199.334C199.748 98.2485 200.205 98.3719 200.662 98.3719C201.104 98.3719 201.545 98.2569 201.95 98.0268C202.766 97.5623 203.254 96.7267 203.254 95.7915V91.1187C203.254 90.1835 202.766 89.3479 201.95 88.8834ZM201.184 95.7915C201.184 96.044 201.023 96.1736 200.927 96.2283C200.846 96.2744 200.631 96.3662 200.391 96.2234H200.391L196.46 93.887C196.243 93.7581 196.21 93.561 196.21 93.455C196.21 93.349 196.243 93.152 196.46 93.023L200.391 90.6866C200.631 90.5438 200.846 90.6356 200.927 90.6817C201.023 90.7365 201.184 90.866 201.184 91.1186V95.7915Z" fill="#E6E6E6"/>
<circle cx="197.932" cy="31.9249" r="13.2493" fill="#D3D3D3" fill-opacity="0.23"/>
<path d="M192.296 28.6518C192.296 28.6518 192.205 25.1672 197.462 24.9227C202.017 24.7087 202.628 26.6038 203.025 27.8876C203.423 29.1714 197.89 32.656 197.89 32.656L192.296 28.6518Z" fill="#4E4C82"/>
<path d="M195.11 40.267L194.835 33.2673L199.328 33.0839L199.603 39.8391C199.664 41.0923 198.686 41.6425 197.433 41.7037C196.18 41.7342 195.14 41.4897 195.11 40.267Z" fill="#FCD2B1"/>
<path d="M194.833 34.0315C194.833 34.0315 194.191 38.1885 199.571 39.1972L199.418 35.9877L194.833 34.0315Z" fill="#FCD2B1"/>
<path d="M200.733 25.9008C199.113 25.9314 203.912 25.8397 203.086 30.9137L201.497 28.7435L200.733 25.9008Z" fill="#34334B"/>
<path d="M198.715 37.7912C201.13 37.6689 203.025 36.1406 202.903 33.7258L202.658 28.9269C202.597 27.8876 201.711 27.0623 200.671 27.1235L195.72 27.368C194.68 27.4291 193.855 28.3156 193.916 29.3548L194.1 33.4813C194.253 35.8655 196.698 37.8829 198.715 37.7912Z" fill="#FCD2B1"/>
<path d="M194.405 32.1058C194.405 32.1058 196.79 30.5163 195.75 27.3374L193.305 27.4597C193.305 27.4597 192.938 26.9095 192.449 27.6737C191.96 28.4073 193.091 31.8918 193.091 31.8918L194.405 32.1058Z" fill="#34334B"/>
<path d="M195.078 30.3635L195.964 27.9488C195.964 27.9488 201.802 28.6824 203.239 27.0318C204.614 25.4423 203.484 23.0581 202.322 22.8136C201.405 22.6302 200.427 23.4555 199.724 23.8529C199.021 24.2502 197.37 23.8834 196.851 23.8529C196.362 23.8223 194.191 23.3944 193.519 25.6563C193.519 25.6563 190.004 26.9706 193.641 32.9005C193.672 32.9005 195.108 32.0141 195.078 30.3635Z" fill="#34334B"/>
<path d="M195.628 30.0273C195.628 30.0273 195.475 33.2368 196.178 34.1538C196.881 35.0708 197.279 34.1232 199.816 33.7259C202.353 33.3285 202.994 34.49 202.994 34.49C202.994 34.49 202.872 37.7301 199.54 37.8829C196.942 38.0052 193.06 37.455 193.58 33.2979C194.069 29.1714 193.886 28.1016 193.886 28.1016L195.628 30.0273Z" fill="#34334B"/>
<circle cx="198.878" cy="155.841" r="13.2493" fill="#D3D3D3" fill-opacity="0.23"/>
<path d="M201.416 151.02C201.665 151.655 201.472 152.346 201.306 153.009C201.14 153.672 201.057 154.418 201.499 154.97C201.941 155.523 202.77 155.716 203.35 156.186C203.903 156.628 204.207 157.319 204.096 157.954C204.013 158.396 203.765 158.866 204.041 159.252C204.179 159.446 204.428 159.556 204.676 159.667C205.201 159.888 205.754 160.081 206.251 160.358C206.748 160.634 207.19 160.993 207.411 161.49C207.715 162.153 207.494 162.899 207.218 163.562C206.969 164.225 206.61 164.916 205.92 165.248C205.395 165.496 204.759 165.496 204.151 165.441C202.383 165.303 200.643 164.888 199.013 164.225C197.991 163.811 196.996 163.258 196.36 162.457C195.366 161.186 195.476 159.529 195.753 158.037C195.918 157.208 196.139 156.352 196.803 155.716C197.438 155.108 198.405 154.777 199.372 154.749C200.339 154.694 200.477 150.743 201.416 151.02Z" fill="#FF8C4A"/>
<path d="M193.46 155.606C192.659 154.473 192.327 153.092 192.548 151.765C192.797 150.467 193.598 149.251 194.758 148.45" fill="#FF8C4A"/>
<path d="M198.074 160.744C198.018 160.247 198.433 158.285 198.433 158.285C198.433 158.285 200.56 158.285 200.836 156.49C201.113 154.694 201.361 150.522 201.361 150.522L197.659 148.533L193.653 150.937L193.018 159.998L198.074 160.744Z" fill="#FCD2B1"/>
<path d="M198.433 158.285C198.433 158.285 197.024 158.175 195.725 157.236C195.725 157.236 196.223 158.617 198.35 158.728L198.433 158.285Z" fill="#FCD2B1"/>
<path d="M201.886 151.517C201.886 151.517 202.494 148.671 197.908 147.732C193.322 146.82 192.797 151.627 192.797 151.627L195.366 151.434L196.029 150.246L196.001 151.434L197.908 151.489L197.88 150.605L198.35 151.351L201.886 151.517Z" fill="#FF8C4A"/>
<path d="M200.464 215.728L189.351 212.239C191.18 206.393 197.333 202.938 203.281 204.418C209.484 205.959 213.313 212.332 211.773 218.536C210.233 224.739 203.859 228.569 197.656 227.028C196.371 226.713 195.154 226.177 194.048 225.446L200.464 215.728Z" fill="#D3D3D3" fill-opacity="0.23"/>
<path d="M197.571 216.868L191.027 226.858C188.866 225.445 187.223 223.361 186.338 220.935C185.462 218.502 185.394 215.855 186.151 213.379L197.571 216.868Z" fill="#4E4C82" fill-opacity="0.5"/>
<path d="M371.316 49.8583L371.172 49.9172L371.168 49.918L368.065 51.218L367.067 51.6339L367.062 51.6347L364.779 52.5935L362.975 53.3481L357.437 55.6628L351.89 41.7434L354.418 40.7318L354.422 40.7309L362.858 37.3734L365.809 36.1961L367.639 40.7816L368.267 42.3582L369.029 44.2333L369.792 46.1129L370.944 48.948L371.316 49.8583Z" fill="#FF8C4A"/>
<path d="M353.748 39.0452L362.184 35.6809L363.53 39.0552L355.094 42.4195L353.748 39.0452Z" fill="#4E4C82"/>
<path d="M380.347 45.0456L379.274 59.9943L364.325 58.9216L364.437 57.3975L364.78 52.5935L365.398 43.9729L368.119 44.1674L369.029 44.2332L377.178 44.8192L380.347 45.0456Z" fill="#FF8C4A"/>
<path d="M377.307 43.0087L377.178 44.8192L377.045 46.6306L369.792 46.1129L367.986 45.9834L368.119 44.1674L368.248 42.3568L368.267 42.3582L375.564 42.8825L377.307 43.0087Z" fill="#4E4C82"/>
<path opacity="0.1" d="M368.267 42.3582L368.248 42.3568L368.119 44.1674L365.398 43.9729L364.78 52.5935L362.975 53.3481L363.401 47.4289L363.425 47.0497L363.424 47.045L363.711 43.0968L363.766 42.3422L363.767 42.3227L363.801 42.3263L365.008 42.4121L366.483 42.518L366.612 40.7075L367.639 40.7816L368.267 42.3582Z" fill="#FF8C4A"/>
<path d="M367.556 49.5336L367.655 48.591L377.942 49.669L377.844 50.6116L367.556 49.5336Z" fill="white"/>
<path d="M370.949 52.5302L371.07 51.5913L375.007 52.0997L374.886 53.0386L370.949 52.5302Z" fill="white"/>
<path d="M367.015 52.0231L367.137 51.0842L369.105 51.3384L368.984 52.2773L367.015 52.0231Z" fill="white"/>
<path d="M366.596 54.9918L366.694 54.0492L376.982 55.1272L376.883 56.0698L366.596 54.9918Z" fill="white"/>
<path d="M363.439 42.5817L364.831 41.8873L365.161 42.6536L363.769 43.348L363.439 42.5817Z" fill="white"/>
<path d="M355.864 46.0274L362.168 43.0784L362.488 43.7768L356.184 46.7258L355.864 46.0274Z" fill="white"/>
<path d="M360.503 47.7633L363.247 46.4906L363.556 47.2286L360.812 48.5013L360.503 47.7633Z" fill="white"/>
<path d="M357.373 49.0797L359.669 48.0058L359.978 48.7529L357.683 49.8268L357.373 49.0797Z" fill="white"/>
<path d="M150.058 320.536C163.003 316.226 170.003 302.237 165.693 289.292C161.382 276.346 147.393 269.346 134.448 273.657C121.503 277.967 114.503 291.956 118.813 304.901C123.124 317.847 137.113 324.847 150.058 320.536Z" fill="#EB8245"/>
<path d="M131.827 300.636C132.777 299.89 133.702 299.636 134.602 299.876C135.503 300.103 136.416 300.806 137.34 301.982C138.274 303.171 138.753 304.24 138.775 305.188C138.793 306.131 138.33 306.972 137.387 307.714L134.952 309.626L133.935 308.137L130.562 303.843L129.392 302.549L131.827 300.636ZM136.364 306.411C136.697 306.149 136.905 305.87 136.986 305.572C137.062 305.267 137.013 304.92 136.838 304.528C136.669 304.132 136.364 303.654 135.925 303.094C135.465 302.509 135.068 302.094 134.732 301.848C134.404 301.598 134.092 301.487 133.798 301.514C133.506 301.53 133.19 301.672 132.85 301.938L131.869 302.709L135.382 307.182L136.364 306.411ZM146.378 300.65L144.727 301.947L143.398 300.702L143.383 300.684L140.982 302.6L141.877 304.186L140.415 305.335L139.765 303.556L137.59 298.398L136.761 296.76L138.847 295.122L140.242 296.315L144.804 299.598L146.378 300.65ZM141.99 299.687L138.759 297.342L140.318 301.016L141.99 299.687ZM146.807 291.035L146.726 291.145L145.787 291.699L144.919 292.381L148.381 296.788L149.587 298.129L148.04 299.345L147.022 297.856L143.56 293.449L142.692 294.131L141.932 294.911L141.806 294.964L140.961 293.461L145.547 289.859L146.807 291.035ZM157.207 292.144L155.555 293.441L154.226 292.196L154.211 292.178L151.81 294.094L152.705 295.68L151.243 296.829L150.593 295.05L148.418 289.892L147.589 288.254L149.675 286.616L151.07 287.809L155.632 291.092L157.207 292.144ZM152.818 291.181L149.588 288.836L151.146 292.51L152.818 291.181Z" fill="white"/>
<path d="M40.0496 323.948C52.9949 319.638 59.9948 305.649 55.6843 292.704C51.3737 279.759 37.385 272.759 24.4397 277.069C11.4943 281.38 4.49439 295.368 8.80495 308.314C13.1155 321.259 27.1042 328.259 40.0496 323.948Z" fill="#4E4C82"/>
<path d="M15.5421 296.427C16.7501 296.427 17.6341 296.799 18.1941 297.543C18.7621 298.279 19.0461 299.395 19.0461 300.891C19.0461 302.403 18.7621 303.539 18.1941 304.299C17.6261 305.051 16.7421 305.427 15.5421 305.427H12.4461L12.5661 303.627V298.167L12.4461 296.427H15.5421ZM15.5421 303.771C15.9661 303.771 16.3021 303.679 16.5501 303.495C16.7981 303.303 16.9741 302.999 17.0781 302.583C17.1901 302.167 17.2461 301.603 17.2461 300.891C17.2461 300.147 17.1901 299.575 17.0781 299.175C16.9741 298.775 16.7981 298.495 16.5501 298.335C16.3101 298.167 15.9741 298.083 15.5421 298.083H14.2941V303.771H15.5421ZM25.8074 303.771L25.5434 305.427H20.2274L20.3474 303.627V298.167L20.2274 296.427H25.6874L25.4234 298.083H22.0754V299.967H25.1234L24.8594 301.623H22.0754V303.771H25.8074ZM29.5722 305.559C29.0362 305.559 28.5202 305.463 28.0242 305.271C27.5362 305.071 27.1122 304.787 26.7522 304.419L26.5002 302.727L26.6682 302.679C27.1162 303.063 27.5682 303.359 28.0242 303.567C28.4802 303.767 28.9202 303.867 29.3442 303.867C29.8482 303.867 30.2362 303.791 30.5082 303.639C30.7882 303.479 30.9282 303.255 30.9282 302.967C30.9282 302.695 30.7962 302.475 30.5322 302.307C30.2762 302.131 29.8122 301.943 29.1402 301.743C28.5082 301.559 28.0122 301.355 27.6522 301.131C27.2922 300.907 27.0322 300.627 26.8722 300.291C26.7122 299.955 26.6322 299.519 26.6322 298.983C26.6322 298.143 26.9042 297.487 27.4482 297.015C28.0002 296.543 28.7242 296.307 29.6202 296.307C30.1642 296.307 30.6882 296.391 31.1922 296.559C31.6962 296.727 32.1042 296.951 32.4162 297.231L32.1522 298.851L31.9722 298.899C31.8042 298.635 31.5122 298.419 31.0962 298.251C30.6882 298.083 30.2482 297.999 29.7762 297.999C29.3442 297.999 29.0122 298.075 28.7802 298.227C28.5482 298.379 28.4322 298.603 28.4322 298.899C28.4322 299.203 28.5442 299.439 28.7682 299.607C29.0002 299.767 29.4162 299.931 30.0162 300.099C30.7042 300.291 31.2402 300.499 31.6242 300.723C32.0082 300.939 32.2882 301.211 32.4642 301.539C32.6402 301.867 32.7282 302.287 32.7282 302.799C32.7282 303.671 32.4402 304.351 31.8642 304.839C31.2882 305.319 30.5242 305.559 29.5722 305.559ZM33.9294 303.627V298.167L33.8094 296.427H35.7774L35.6574 298.167V303.627L35.7774 305.427H33.8094L33.9294 303.627ZM36.9555 300.891C36.9555 299.299 37.2435 298.127 37.8195 297.375C38.4035 296.615 39.3675 296.235 40.7115 296.235C41.1435 296.235 41.5795 296.311 42.0195 296.463C42.4675 296.607 42.8875 296.831 43.2795 297.135L43.0155 298.659L42.7755 298.767C42.5595 298.511 42.2675 298.307 41.8995 298.155C41.5315 298.003 41.1355 297.927 40.7115 297.927C40.2235 297.927 39.8355 298.027 39.5475 298.227C39.2675 298.419 39.0635 298.727 38.9355 299.151C38.8155 299.575 38.7555 300.155 38.7555 300.891C38.7555 301.667 38.8075 302.275 38.9115 302.715C39.0155 303.147 39.1875 303.459 39.4275 303.651C39.6755 303.835 40.0155 303.927 40.4475 303.927C40.9915 303.927 41.3875 303.771 41.6355 303.459C41.8835 303.147 42.0075 302.635 42.0075 301.923H40.2795V300.267H43.6875V305.427H42.7275L42.4275 304.527C42.2195 304.847 41.9195 305.111 41.5275 305.319C41.1355 305.519 40.7355 305.619 40.3275 305.619C39.5435 305.619 38.9035 305.455 38.4075 305.127C37.9195 304.799 37.5555 304.291 37.3155 303.603C37.0755 302.907 36.9555 302.003 36.9555 300.891ZM51.4462 303.627L51.5662 305.427H48.8422L46.5502 298.323V303.627L46.6702 305.427H44.9422L45.0622 303.627V298.167L44.9422 296.427H47.6782L49.9582 303.495V298.167L49.8382 296.427H51.5662L51.4462 298.167V303.627Z" fill="white"/>
<path d="M328.957 306.084C336.075 317.703 351.29 321.338 362.941 314.202C374.592 307.066 378.266 291.862 371.148 280.243C364.03 268.624 348.815 264.989 337.164 272.125C325.514 279.26 321.839 294.464 328.957 306.084Z" fill="#FF8C4A"/>
<path d="M340.807 295.089L341.199 296.92L342.688 302.225L343.278 303.938L340.966 305.31L339.748 303.97L335.823 300.112L334.406 298.89L336.237 297.803L337.381 299.186L341.167 302.88L339.756 297.777L339.092 296.108L340.807 295.089ZM347.721 297.737L348.372 298.836L349.381 300.3L347.666 301.319L346.866 299.73L346.239 298.672L342.488 296.086L340.766 295.113L342.785 293.915L344.13 295.111L345.873 296.359L345.615 294.229L345.212 292.474L347.23 291.275L347.257 293.254L347.721 297.737ZM344.539 289.93L343.919 292.416L342.654 293.168L342.729 291.004L344.539 289.93ZM353.586 287.502L353.977 289.332L355.466 294.638L356.056 296.351L353.745 297.723L352.527 296.383L348.601 292.525L347.184 291.303L349.015 290.216L350.16 291.599L353.945 295.293L352.534 290.189L351.87 288.52L353.586 287.502ZM361.626 293.264C360.608 293.868 359.643 293.982 358.732 293.606C357.818 293.223 356.972 292.377 356.197 291.068C355.429 289.772 355.1 288.643 355.208 287.68C355.319 286.706 355.887 285.915 356.912 285.306C357.937 284.698 358.9 284.58 359.8 284.954C360.703 285.316 361.538 286.145 362.305 287.441C363.081 288.75 363.417 289.899 363.314 290.886C363.207 291.867 362.644 292.659 361.626 293.264ZM360.776 291.829C361.153 291.605 361.399 291.353 361.516 291.073C361.636 290.782 361.632 290.426 361.506 290.006C361.383 289.575 361.126 289.031 360.736 288.373C360.359 287.735 360.014 287.265 359.704 286.964C359.4 286.658 359.094 286.491 358.785 286.464C358.473 286.429 358.132 286.522 357.762 286.741C357.393 286.961 357.148 287.216 357.028 287.507C356.905 287.791 356.9 288.142 357.016 288.56C357.138 288.973 357.388 289.499 357.766 290.136C358.156 290.794 358.506 291.283 358.818 291.602C359.133 291.911 359.443 292.084 359.748 292.123C360.057 292.15 360.399 292.052 360.776 291.829ZM362.889 281.978L363.658 283.515L367.305 289.672C367.487 290.902 367.398 291.945 367.038 292.801L365.07 292.415L365.094 292.264C365.212 292.193 365.318 291.951 365.413 291.538C365.514 291.12 365.564 290.664 365.563 290.169L362.152 284.41L361.173 282.996L362.889 281.978Z" fill="white"/>
<path d="M510.298 315.943C523.942 315.943 535.003 304.883 535.003 291.239C535.003 277.594 523.942 266.534 510.298 266.534C496.654 266.534 485.593 277.594 485.593 291.239C485.593 304.883 496.654 315.943 510.298 315.943Z" fill="#4E4C82"/>
<path d="M504.301 296.262C503.765 296.262 503.249 296.166 502.753 295.974C502.265 295.774 501.841 295.49 501.481 295.122L501.229 293.43L501.397 293.382C501.845 293.766 502.297 294.062 502.753 294.27C503.209 294.47 503.649 294.57 504.073 294.57C504.577 294.57 504.965 294.494 505.237 294.342C505.517 294.182 505.657 293.958 505.657 293.67C505.657 293.398 505.525 293.178 505.261 293.01C505.005 292.834 504.541 292.646 503.869 292.446C503.237 292.262 502.741 292.058 502.381 291.834C502.021 291.61 501.761 291.33 501.601 290.994C501.441 290.658 501.361 290.222 501.361 289.686C501.361 288.846 501.633 288.19 502.177 287.718C502.729 287.246 503.453 287.01 504.349 287.01C504.893 287.01 505.417 287.094 505.921 287.262C506.425 287.43 506.833 287.654 507.145 287.934L506.881 289.554L506.701 289.602C506.533 289.338 506.241 289.122 505.825 288.954C505.417 288.786 504.977 288.702 504.505 288.702C504.073 288.702 503.741 288.778 503.509 288.93C503.277 289.082 503.161 289.306 503.161 289.602C503.161 289.906 503.273 290.142 503.497 290.31C503.729 290.47 504.145 290.634 504.745 290.802C505.433 290.994 505.969 291.202 506.353 291.426C506.737 291.642 507.017 291.914 507.193 292.242C507.369 292.57 507.457 292.99 507.457 293.502C507.457 294.374 507.169 295.054 506.593 295.542C506.017 296.022 505.253 296.262 504.301 296.262ZM514.118 294.474L513.854 296.13H508.538L508.658 294.33V288.87L508.538 287.13H513.998L513.734 288.786H510.386V290.67H513.434L513.17 292.326H510.386V294.474H514.118ZM518.352 296.322C517.184 296.322 516.308 295.922 515.724 295.122C515.14 294.314 514.848 293.138 514.848 291.594C514.848 290.066 515.136 288.91 515.712 288.126C516.296 287.334 517.176 286.938 518.352 286.938C519.528 286.938 520.404 287.334 520.98 288.126C521.564 288.91 521.856 290.066 521.856 291.594C521.856 293.138 521.564 294.314 520.98 295.122C520.396 295.922 519.52 296.322 518.352 296.322ZM518.352 294.63C518.784 294.63 519.12 294.538 519.36 294.354C519.608 294.162 519.784 293.85 519.888 293.418C520 292.978 520.056 292.37 520.056 291.594C520.056 290.842 520 290.254 519.888 289.83C519.784 289.406 519.608 289.102 519.36 288.918C519.112 288.726 518.776 288.63 518.352 288.63C517.928 288.63 517.592 288.726 517.344 288.918C517.096 289.102 516.916 289.406 516.804 289.83C516.7 290.254 516.648 290.842 516.648 291.594C516.648 292.37 516.7 292.978 516.804 293.418C516.916 293.85 517.092 294.162 517.332 294.354C517.58 294.538 517.92 294.63 518.352 294.63Z" fill="white"/>
<path d="M375.047 293.046C375.267 306.671 386.52 317.537 400.181 317.317C413.841 317.097 424.736 305.874 424.515 292.249C424.294 278.625 413.042 267.759 399.381 267.979C385.721 268.199 374.826 279.422 375.047 293.046Z" fill="#4E4C82" fill-opacity="0.5"/>
<path d="M391.756 286.851L390.927 288.358L389.308 291.87C388.806 292.958 388.202 293.648 387.497 293.939C386.798 294.234 385.955 294.155 384.968 293.701C383.98 293.247 383.368 292.657 383.131 291.932C382.901 291.21 383.037 290.305 383.539 289.217L385.158 285.705L385.766 284.097L387.578 284.93L386.75 286.437L385.13 289.949C384.856 290.543 384.757 291.009 384.833 291.348C384.917 291.69 385.194 291.97 385.666 292.186C386.137 292.403 386.527 292.43 386.834 292.268C387.148 292.109 387.443 291.732 387.717 291.138L389.336 287.626L389.943 286.018L391.756 286.851ZM390.054 293.879L392.307 288.992L392.915 287.384L394.727 288.217L393.899 289.724L391.646 294.611L391.013 296.272L389.201 295.439L390.054 293.879ZM392.821 296.192L397.165 290.575L398.071 289.104L399.961 289.973L398.779 291.317L394.434 296.934L393.493 298.454L391.592 297.58L392.821 296.192ZM406.262 293.521L405.433 295.028L403.814 298.54C403.312 299.628 402.708 300.318 402.002 300.609C401.304 300.904 400.461 300.825 399.474 300.371C398.486 299.917 397.874 299.327 397.637 298.602C397.407 297.88 397.543 296.975 398.045 295.887L399.664 292.375L400.272 290.767L402.084 291.6L401.256 293.107L399.636 296.619C399.362 297.213 399.263 297.679 399.339 298.018C399.423 298.36 399.7 298.64 400.172 298.856C400.643 299.073 401.033 299.1 401.34 298.938C401.654 298.779 401.949 298.402 402.223 297.808L403.842 294.296L404.449 292.688L406.262 293.521ZM410.216 305.102L408.072 304.116L408.052 302.155L407.881 300.579L406.583 301.479L405.121 302.759L402.988 301.779L404.847 300.681L407.406 298.85L407.178 295.83L406.824 293.779L408.968 294.765L408.957 296.648L409.081 298.006L410.184 297.212L411.565 295.959L413.698 296.94L411.919 298.01L409.537 299.778L409.832 302.973L410.216 305.102Z" fill="white"/>
<path d="M66.7547 105.41C66.7547 105.41 64.1024 122.06 75.0905 120.546C75.0905 120.546 118.664 110.708 120.938 112.978C123.211 115.249 137.345 116.022 136.608 106.45C135.868 96.8455 121.696 102.383 121.696 102.383C121.696 102.383 99.7192 105.41 95.1724 103.14C90.6256 100.869 77.7429 101.626 77.7429 101.626L66.7547 105.41Z" fill="#FCD2B1"/>
<path d="M100.007 159.706L93.9647 216.957C93.9647 216.957 92.0702 239.661 86.3867 244.581C86.3867 244.581 86.3867 251.77 84.4922 254.041L81.8398 283.935C81.8398 283.935 85.6289 294.908 85.25 296.8C84.8711 298.692 86.7656 304.747 86.3867 305.504C86.0078 306.26 68.1993 305.504 68.1993 305.504L71.9884 244.581L83.7344 159.818L100.007 159.706Z" fill="#34334B"/>
<path d="M66.8112 302.409C66.8112 302.409 58.8649 322.421 63.0108 324.836C67.1567 327.251 110.689 325.526 110.689 325.526C110.689 325.526 117.944 321.041 109.652 317.935C109.652 317.935 102.742 317.59 98.2509 314.83C93.7596 312.07 88.5772 306.894 88.5772 306.894C88.5772 306.894 88.2317 299.303 85.4678 301.029C84.6409 301.573 83.937 302.283 83.4015 303.115C82.866 303.947 82.5107 304.882 82.3584 305.859L66.8112 302.409Z" fill="#34334B"/>
<path d="M54.5588 299.695C54.5588 299.695 45.8441 321.643 50.3909 324.291C54.9377 326.94 102.68 325.048 102.68 325.048C102.68 325.048 110.637 320.129 101.543 316.723C101.543 316.723 93.9648 316.345 89.039 313.318C84.1133 310.291 78.4298 304.614 78.4298 304.614C78.4298 304.614 78.0509 296.29 75.0197 298.182C74.1127 298.778 73.3408 299.558 72.7536 300.47C72.1663 301.383 71.7766 302.408 71.6095 303.479L54.5588 299.695Z" fill="#34334B"/>
<path d="M89.7969 158.929C89.7969 158.929 85.629 197.905 83.7344 206.23C82.5433 211.712 81.7831 217.279 81.461 222.879C81.461 222.879 81.0821 234.988 77.672 238.394C76.6742 239.38 75.8903 240.561 75.3688 241.863C74.8474 243.165 74.5995 244.56 74.6407 245.962C74.6407 245.962 71.2306 284.181 73.1251 288.721C75.0196 293.262 77.5915 299.162 75.697 302.189C73.8026 305.216 52.2854 303.101 52.2854 300.83C52.2854 298.56 52.2854 296.668 51.1487 295.533C50.012 294.397 51.1487 287.208 51.1487 287.208C51.1487 287.208 46.6019 253.53 50.7698 243.692C54.9378 233.853 56.8323 206.986 56.8323 206.986C56.8323 206.986 53.8011 176.336 50.012 171.416C46.223 166.497 50.7698 149.091 50.7698 149.091L89.7969 158.929Z" fill="#34334B"/>
<path d="M79.1293 37.8933C79.5697 38.8954 80.6241 39.4534 81.584 39.9815C87.147 43.0423 91.8036 47.4798 96.3914 51.8663C95.2466 47.9919 95.4906 43.8402 97.0812 40.1262C97.629 38.8594 98.3468 37.4977 97.9553 36.1744C97.569 35.2284 96.8975 34.426 96.0339 33.8786C94.1619 32.4327 92.2052 31.0995 90.1744 29.8861C88.7557 29.0385 85.8388 26.7819 84.2108 27.0274C84.1253 29.2243 84.0807 31.1883 83.1174 33.2415C82.8889 33.7286 79.2976 38.2764 79.1293 37.8933Z" fill="#FCD2B1"/>
<path d="M98.5116 42.7593C107.091 42.7593 114.047 35.8132 114.047 27.2448C114.047 18.6763 107.091 11.7302 98.5116 11.7302C89.9318 11.7302 82.9766 18.6763 82.9766 27.2448C82.9766 35.8132 89.9318 42.7593 98.5116 42.7593Z" fill="#FCD2B1"/>
<path d="M99.2694 63.9499C99.2694 63.9499 101.922 50.7058 94.3437 46.1649C86.7656 41.6241 78.0508 36.3265 78.0508 36.3265C78.0508 36.3265 75.3985 35.9481 74.2618 41.6242C74.2618 41.6242 52.6643 45.7866 50.3909 66.2204C48.1174 86.6542 51.9065 116.548 51.9065 116.548C51.9065 116.548 48.4964 142.658 44.3284 156.659C44.3284 156.659 40.9183 159.686 56.0745 155.145C71.2306 150.604 97.7538 168.011 97.7538 168.011C97.7538 168.011 100.406 165.362 100.406 163.47C100.406 161.578 106.09 104.061 107.226 98.763C108.363 93.4654 102.68 64.7067 99.2694 63.9499Z" fill="#FF8C4A"/>
<path d="M94.8503 28.8431C95.7836 28.3265 96.8302 28.0482 97.8971 28.0327C98.9653 28.0168 100.008 27.7064 100.911 27.1359C102.378 26.0108 102.486 23.8364 103.56 22.3317C105.114 20.1532 108.214 19.891 110.891 20C112.528 20.0667 114.29 20.1643 115.669 19.2802C117.084 18.3725 117.725 16.6623 118.202 15.0517C118.767 13.1471 119.132 10.818 117.733 9.40543C116.762 8.42457 115.23 8.23055 114.151 7.36914C113.568 6.90291 105.851 5.0308 98.6076 3.34749C95.0014 2.51078 91.2132 3.02263 87.9593 4.78627C84.7054 6.54991 82.2113 9.44308 80.9486 12.9187C79.276 17.5119 77.8425 21.8278 77.9905 22.7601C78.6986 27.2216 82.6495 30.7679 82.9217 35.2769C83.1812 34.0318 83.7461 32.8705 84.5657 31.8972C85.3854 30.9238 86.4341 30.1689 87.6179 29.7001C87.9147 29.5551 88.2518 29.5143 88.5747 29.5841C88.9672 29.7094 89.1967 30.1011 89.4444 30.4299C90.0934 31.2917 92.1324 32.5991 93.2881 31.9878C94.3222 31.4408 93.5502 29.7237 94.8503 28.8431Z" fill="#34334B"/>
<path d="M101.954 110.411C101.629 110.729 101.443 111.163 101.437 111.618C101.43 112.073 101.603 112.512 101.919 112.839L112.843 124.131C113.002 124.295 113.192 124.426 113.402 124.516C113.612 124.606 113.838 124.654 114.066 124.656C114.295 124.658 114.522 124.615 114.733 124.529C114.945 124.443 115.138 124.316 115.3 124.154L148.634 91.0087C148.816 90.8276 148.955 90.6082 149.041 90.3664C149.127 90.1247 149.158 89.8667 149.132 89.6115C149.106 89.3562 149.022 89.11 148.888 88.891C148.755 88.672 148.573 88.4856 148.358 88.3455L135.25 79.8194C134.923 79.604 134.531 79.5074 134.14 79.5458C133.75 79.5842 133.384 79.7552 133.105 80.0304L101.954 110.411Z" fill="#34334B"/>
<path d="M148.862 88.8491C148.796 88.9505 148.719 89.0447 148.633 89.1302L115.378 122.902C115.216 123.063 115.023 123.191 114.812 123.277C114.6 123.363 114.373 123.406 114.145 123.404C113.916 123.402 113.69 123.354 113.48 123.264C113.27 123.174 113.08 123.043 112.921 122.878L101.762 111.117C101.686 111.039 101.618 110.953 101.558 110.861C101.372 111.179 101.306 111.554 101.372 111.917C101.438 112.28 101.632 112.607 101.919 112.839L112.843 124.131C113.002 124.295 113.192 124.426 113.402 124.516C113.612 124.606 113.838 124.654 114.066 124.656C114.295 124.658 114.522 124.615 114.733 124.529C114.945 124.443 115.138 124.316 115.3 124.154L148.633 91.0087C148.914 90.7296 149.09 90.3626 149.131 89.9694C149.173 89.5761 149.078 89.1805 148.862 88.8491H148.862Z" fill="#4E4C82"/>
<path d="M145.776 89.2575L144.419 88.3938C144.562 88.6481 144.614 88.9432 144.568 89.231C144.521 89.5189 144.379 89.7825 144.163 89.9791C143.947 90.1756 143.671 90.2934 143.38 90.3132C143.089 90.3331 142.799 90.2539 142.559 90.0885L133.781 84.0616C133.581 83.9248 133.424 83.7348 133.328 83.5132C133.231 83.2916 133.199 83.0474 133.234 82.8083C133.27 82.5692 133.372 82.345 133.529 82.1611C133.686 81.9771 133.892 81.841 134.122 81.7681L133.424 81.3231C133.333 81.2654 133.225 81.2404 133.118 81.2524C133.011 81.2644 132.912 81.3126 132.836 81.389L103.306 110.371C103.262 110.415 103.228 110.468 103.204 110.526C103.181 110.584 103.169 110.646 103.171 110.709C103.172 110.772 103.185 110.833 103.211 110.891C103.236 110.948 103.273 111 103.318 111.043L114.043 121.479C114.132 121.562 114.25 121.608 114.372 121.606C114.494 121.605 114.611 121.556 114.697 121.47L145.855 89.9862C145.905 89.9365 145.943 89.8763 145.966 89.8099C145.99 89.7436 145.998 89.6728 145.99 89.6029C145.983 89.5329 145.959 89.4656 145.922 89.4058C145.885 89.346 145.835 89.2954 145.776 89.2575Z" fill="white"/>
<path d="M111.694 103.971L120.753 112.501L142.299 91.2409L131.364 84.1328L111.694 103.971Z" fill="#34334B"/>
<path d="M141.462 96.4878C141.522 96.5447 141.601 96.5765 141.684 96.5765C141.766 96.5765 141.846 96.5447 141.905 96.4878L143.79 94.606C143.848 94.5473 143.881 94.4677 143.881 94.3847C143.881 94.3017 143.848 94.2221 143.79 94.1633C143.73 94.1064 143.651 94.0746 143.568 94.0746C143.486 94.0746 143.406 94.1064 143.346 94.1633L141.462 96.0451C141.403 96.1038 141.37 96.1834 141.37 96.2664C141.37 96.3494 141.403 96.429 141.462 96.4878Z" fill="#34334B"/>
<path d="M138.288 99.6579C138.347 99.7165 138.426 99.7494 138.51 99.7494C138.593 99.7494 138.672 99.7165 138.731 99.6579L140.616 97.776C140.674 97.7173 140.707 97.6377 140.707 97.5549C140.706 97.472 140.673 97.3926 140.615 97.334C140.556 97.2754 140.477 97.2424 140.394 97.2423C140.311 97.2421 140.231 97.2749 140.172 97.3333L138.288 99.2151C138.229 99.2738 138.196 99.3535 138.196 99.4365C138.196 99.5195 138.229 99.5991 138.288 99.6579Z" fill="#34334B"/>
<path d="M111.903 113.406C113.071 113.406 114.019 112.46 114.019 111.293C114.019 110.126 113.071 109.18 111.903 109.18C110.734 109.18 109.787 110.126 109.787 111.293C109.787 112.46 110.734 113.406 111.903 113.406Z" fill="#4E4C82"/>
<path d="M55.6955 99.5199C55.6955 99.5199 53.0431 116.17 64.0313 114.656C64.0313 114.656 107.605 104.817 109.879 107.088C112.152 109.358 126.286 110.131 125.548 100.559C124.809 90.9551 110.636 96.4926 110.636 96.4926C110.636 96.4926 88.66 99.5198 84.1132 97.2494C79.5664 94.979 66.6837 95.7358 66.6837 95.7358L55.6955 99.5199Z" fill="#FCD2B1"/>
<path d="M71.2306 46.9218C71.2306 46.9218 54.1799 48.8138 54.1799 73.41V104.817L75.0196 96.1142C75.0196 96.1142 83.7344 75.6804 82.9766 70.0044C82.2188 64.3283 82.5977 47.6786 71.2306 46.9218Z" fill="#FF8C4A"/>
<path d="M544.38 79.9462C544.36 79.967 544.339 79.967 544.339 79.967C544.318 80.0086 544.279 80.0476 544.237 80.0891C541.705 82.2938 538.219 83.1908 537.855 83.6848C537.649 83.9682 536.955 84.5375 536.422 84.9691C536.056 85.2473 535.772 85.4579 535.772 85.4579L530.749 81.0303C530.749 81.0303 531.729 80.1308 532.385 79.0102C532.832 78.2797 533.12 77.4217 532.912 76.6833C532.444 75.0948 533.136 73.3217 533.302 72.5859C533.526 71.6058 533.627 68.447 534.358 68.6316C535.588 68.915 535.296 73.9743 535.442 75.0558C535.588 75.9346 537.868 73.5895 539.256 72.7108C539.256 72.7108 539.36 72.6302 539.542 72.508C539.703 72.4066 539.846 72.3468 539.968 72.326C540.296 72.261 540.969 72.6926 541.723 73.3659C541.767 73.4075 541.786 73.4465 541.827 73.4881C542.378 73.9769 542.948 74.6113 543.457 75.3002C543.478 75.321 543.478 75.3418 543.499 75.3652C543.988 76.036 544.419 76.7717 544.64 77.4633C544.664 77.4841 544.664 77.5231 544.682 77.5647C544.976 78.4591 544.95 79.317 544.38 79.9462Z" fill="#FCD2B1"/>
<path d="M539.269 72.7055C539.269 72.7055 547.442 66.4399 548.332 66.4763C549.229 66.5231 549.543 66.978 548.802 67.5994C548.061 68.2208 541.081 73.8807 541.081 73.8807C541.081 73.8807 551.997 68.0908 552.741 67.9608C553.17 67.8854 553.498 68.7121 553.131 69.0839C552.764 69.4505 542.604 75.8384 542.604 75.8384C542.604 75.8384 552.806 70.4515 553.456 70.5321C554.031 70.5971 554.436 71.5434 553.706 71.9906C552.98 72.443 543.787 77.9781 543.787 77.9781C543.787 77.9781 551.462 74.5307 551.974 74.9154C552.283 75.1546 552.728 75.6772 550.721 76.5091C548.716 77.3359 544.343 79.9825 544.343 79.9825L539.269 72.7055Z" fill="#FCD2B1"/>
<path d="M499.007 75.2037L495.852 67.8286C495.836 67.7776 495.819 67.7244 495.786 67.6734C493.56 62.3117 489.569 60.4846 486.578 59.9125L486.593 46.3397V40.7408C489.507 34.9799 491.038 27.8133 487.682 22.8551C489.408 22.895 492.876 23.2365 495.952 25.3098C499.173 27.4496 501.955 31.4853 501.776 39.0334C501.351 56.695 498.976 60.1586 501.793 71.6049C502.834 75.849 501.37 76.3679 499.007 75.2037Z" fill="#1A282B"/>
<path d="M428.494 305.276L428.473 305.297C428.45 305.622 428.392 305.931 428.291 306.17C427.839 307.257 427.493 308.622 427.168 310.151C425.943 315.883 425.106 323.657 421.435 325.105C416.784 326.959 409.153 326.714 408.158 325.105C407.341 323.774 412.094 316.64 413.825 314.147C413.825 314.147 413.805 314.147 413.825 314.126C414.197 313.598 414.421 313.294 414.421 313.294C419.724 307.642 419.847 302.341 419.477 299.746C419.334 298.706 419.111 298.095 419.111 298.095C419.111 298.095 421.009 297.196 423.151 297.136C423.64 297.115 424.149 297.136 424.638 297.216C425.231 297.318 425.782 297.708 426.273 298.298C426.312 298.319 426.312 298.34 426.331 298.358C426.349 298.376 426.375 298.399 426.39 298.438C427.781 300.178 428.658 303.357 428.494 305.276Z" fill="#34334B"/>
<path d="M426.33 298.339C426.33 298.339 426.33 298.34 426.33 298.36C426.31 298.42 426.289 298.503 426.25 298.625L426.229 298.652V298.667C426.229 298.688 426.229 298.688 426.229 298.688C426.026 299.424 425.579 301.218 425.189 304.116C424.659 308.255 423.086 315.171 420.66 317.558C418.234 319.944 412.257 319.107 412.034 318.192C411.932 317.786 412.79 316.151 413.825 314.149C413.825 314.149 413.804 314.149 413.825 314.128C415.135 311.581 416.724 308.437 416.968 306.521C417.314 303.932 418.05 301.28 418.541 299.645C418.84 298.649 419.069 298.014 419.069 298.014C420.127 296.873 421.721 296.832 423.148 297.136C424.656 297.445 425.985 298.137 426.271 298.298C426.31 298.319 426.33 298.339 426.33 298.339Z" fill="#FCD2B1"/>
<path d="M491.935 305.276V305.357C491.912 305.661 491.834 305.952 491.748 306.168C491.301 307.275 490.955 308.682 490.609 310.249C489.38 315.961 488.527 323.654 484.895 325.102C480.244 326.956 472.598 326.712 471.618 325.102C470.619 323.488 477.615 313.455 477.615 313.455L477.639 313.434C484.04 306.558 482.898 300.196 482.472 298.581C482.386 298.337 482.345 298.197 482.345 298.197L482.371 298.176C482.675 298.054 485.594 296.769 488.101 297.216C488.348 297.258 488.571 297.339 488.795 297.482C490.773 298.605 492.159 302.91 491.935 305.276Z" fill="#34334B"/>
<path d="M488.652 304.114C488.428 308.274 486.549 315.168 484.123 317.555C481.676 319.942 475.699 319.105 475.476 318.189C475.369 317.737 476.414 315.761 477.616 313.458L477.639 313.437C478.941 310.923 480.449 308.05 480.899 306.298C481.656 303.485 482.163 299.686 482.306 298.55C482.329 298.321 482.347 298.199 482.347 298.199L482.373 298.178C484.698 295.669 488.103 297.219 488.103 297.219C488.103 297.219 488.16 297.448 488.264 297.895C488.465 298.935 488.813 301.153 488.652 304.114Z" fill="#FCD2B1"/>
<path d="M455.829 122.337C455.748 127.622 455.644 132.7 455.584 136.906C455.54 139.431 455.504 141.633 455.483 143.37C455.46 143.572 455.46 143.775 455.46 143.96C455.439 145.574 453.809 146.63 452.34 146.042L445.12 143.086L444.608 142.878L442.816 142.143C442.816 142.143 444.166 133.09 445.447 122.482C446.794 122.644 447.611 122.727 447.611 122.727C447.569 122.61 447.53 122.443 447.509 122.22C448.448 122.261 449.854 122.3 451.344 122.321C452.142 122.342 452.958 122.363 453.751 122.363C454.482 122.358 455.194 122.358 455.829 122.337Z" fill="#34334B"/>
<path d="M455.766 206.871C455.665 207.196 455.54 207.542 455.421 207.867C454.175 211.377 445.523 231.596 445.523 247.073C445.523 257.519 430.082 292.976 426.391 298.441C426.372 298.399 426.349 298.381 426.331 298.36C426.331 298.34 426.331 298.34 426.331 298.34C426.331 298.34 426.31 298.319 426.274 298.298C425.785 297.708 425.231 297.318 424.638 297.216C424.149 297.136 423.64 297.115 423.151 297.136C421.721 296.832 420.13 296.871 419.072 298.015C419.072 298.015 418.843 298.649 418.544 299.645C418.544 299.645 427.927 255.153 427.638 252.912C427.355 250.689 433.413 227.046 433.842 220.781C433.982 218.597 434.554 212.763 435.326 205.73C440.386 206.097 447.793 206.481 455.766 206.871Z" fill="#FCD2B1"/>
<path d="M495.258 208.585C495.097 210.748 494.933 213.007 494.79 215.399C494.525 219.868 494.364 234.066 494.221 244.364C494.075 254.342 489.913 294.487 488.792 297.484C488.569 297.341 488.345 297.261 488.098 297.219C488.098 297.219 484.69 295.669 482.368 298.178L482.342 298.199C482.342 298.199 482.324 298.321 482.301 298.55C482.301 298.55 479.202 259.035 478.487 250.388C477.777 241.715 478.77 224.542 477.465 219.46C477.098 217.952 476.571 213.483 475.999 207.792C484.001 208.137 491.057 208.421 495.258 208.585Z" fill="#FCD2B1"/>
<path d="M471.15 113.055C472.309 121.216 473.716 129.801 474.899 136.636C468.391 136.678 461.153 136.802 455.582 136.906C455.639 132.702 455.743 127.625 455.826 122.337C455.192 122.358 454.479 122.358 453.744 122.358C454.399 121.52 455.114 120.647 455.865 119.81C456.562 118.993 457.292 118.201 458.07 117.423C458.252 117.22 458.457 117.038 458.663 116.833C460.542 115.016 462.601 113.38 464.783 112.197C465.31 111.872 465.864 111.607 466.413 111.386C467.819 110.752 469.288 110.326 470.76 110.157C470.903 110.157 471.025 110.141 471.147 110.141C471.859 110.099 472.551 110.099 473.266 110.157C474.407 110.284 475.572 110.567 476.732 111.061L471.183 112.957C471.168 112.993 471.168 113.014 471.15 113.055Z" fill="#313657"/>
<path d="M428.489 305.276V315.951H427.157V307.699L428.489 305.276Z" fill="#34334B"/>
<path d="M491.943 305.276V315.951H490.617V307.699L491.943 305.276Z" fill="#34334B"/>
<path d="M481.167 42.269C480.735 45.2485 480.145 50.43 480.431 54.634C480.473 55.4269 480.551 56.1835 480.676 56.8776C480.676 56.8984 480.676 56.8984 480.676 56.9192C480.696 57.0804 480.735 57.2442 480.756 57.408C480.878 57.8968 481.003 58.3674 481.141 58.7782L479.859 61.9162C479.591 61.9578 479.287 61.9968 478.983 62.0176C478.388 62.0384 477.753 62.0384 477.064 62.0176C476.308 61.976 475.494 61.8954 474.675 61.8148H474.657C474.576 61.794 474.496 61.794 474.413 61.7732C474.046 61.7316 473.656 61.6718 473.289 61.6302H473.269C470.697 61.2636 468.23 60.7306 466.883 60.4264H466.86C466.231 60.2834 465.841 60.1769 465.841 60.1769C465.841 60.1769 466.514 58.5884 467.351 56.2615C467.411 56.0587 467.494 55.8351 467.575 55.6063L468.126 53.9554V53.9346L468.144 53.9138C468.373 53.1832 468.618 52.4059 468.841 51.6077C468.901 51.4049 468.966 51.1813 469.002 50.9577C469.166 50.3624 469.312 49.7748 469.434 49.1795C469.488 48.8337 469.577 48.5087 469.634 48.1785C470.084 45.6696 470.209 43.283 469.634 41.5671C468.272 37.5295 475.102 38.4291 478.981 39.2454C480.468 39.5496 481.528 39.8538 481.528 39.8538C481.528 39.8538 481.37 40.8027 481.167 42.269Z" fill="#FCD2B1"/>
<path d="M480.756 57.4055C480.491 57.3847 480.288 57.3639 480.148 57.3457C480.026 57.3457 479.961 57.3457 479.961 57.3457L479.615 57.3249L478.986 57.2651L478.208 57.2053L477.782 57.1637L467.377 56.2641C467.377 56.2641 467.377 56.2641 467.357 56.2641C467.276 56.2849 467.008 56.3239 466.579 56.4071C466.418 56.4279 466.252 56.4669 466.049 56.5085C465.784 56.5501 465.479 56.6099 465.131 56.6697C462.136 57.2651 456.606 58.448 451.994 60.0365C447.262 61.6718 441.488 68.4861 438.508 72.3547C437.245 73.99 436.47 75.0923 436.47 75.0923C436.47 75.0923 438.912 80.8458 441.831 87.9252C443.669 92.4334 445.708 97.4719 447.421 101.899C447.421 101.899 447.421 101.899 447.421 101.92C447.748 102.757 448.053 103.53 448.339 104.307C449.503 107.39 450.442 110.04 450.931 111.771C451.196 112.71 451.357 113.791 451.44 115.016C451.458 115.037 451.458 115.076 451.458 115.096C451.523 115.894 451.542 116.726 451.542 117.605C451.542 119.092 451.458 120.689 451.336 122.316C452.134 122.337 452.951 122.358 453.744 122.358C454.479 122.358 455.192 122.358 455.826 122.337C455.746 127.622 455.642 132.7 455.582 136.907C461.153 136.805 468.391 136.678 474.899 136.636C473.716 129.801 472.309 121.214 471.15 113.055C471.168 113.014 471.168 112.996 471.189 112.954L476.737 111.059L478.411 110.484V107.814L470.315 106.876C469.561 101.143 469.007 95.9588 468.846 92.1656C468.521 84.639 470.866 76.5015 473.477 69.9342L475.741 71.9543L478.986 64.0585L479.862 61.9163L481.144 58.7782L481.677 57.4887C481.328 57.4471 481.001 57.4263 480.756 57.4055Z" fill="#F2F2F2"/>
<path d="M480.666 56.9088L465.839 68.993L467.37 56.2641C467.37 56.2641 476.012 54.4 480.666 56.9088Z" fill="#FCD2B1"/>
<path d="M478.408 107.814V110.484L476.734 111.059L471.186 112.954C471.165 112.996 471.165 113.014 471.147 113.055V112.954C471.085 112.528 471.022 112.117 470.962 111.709C470.939 111.548 470.921 111.384 470.903 111.241C470.843 110.911 470.801 110.586 470.76 110.255V110.154C470.596 109.036 470.455 107.955 470.31 106.873L478.408 107.814Z" fill="#494F80"/>
<path d="M481.838 57.486H481.676L481.144 58.7755L479.862 61.9136L478.986 64.0559L475.741 71.9517L473.477 69.9315C474.701 66.8897 475.988 64.1781 477.067 62.015C477.823 60.5071 478.494 59.2825 478.986 58.3856C479.025 58.3258 479.045 58.2842 479.087 58.2244V58.2036C479.105 58.2036 479.105 58.1828 479.105 58.1828C479.311 57.837 479.474 57.5484 479.615 57.3248C479.838 56.9401 479.961 56.7346 479.961 56.7346C480.148 56.7762 480.306 56.7945 480.494 56.836H480.514C480.574 56.8516 480.637 56.8517 480.676 56.8777C481.06 56.9531 481.453 57.0389 481.817 57.1429C481.817 57.2651 481.817 57.3846 481.838 57.486Z" fill="#494F80"/>
<path d="M466.538 56.7346C466.538 56.7346 464.538 61.2428 462.313 67.4851C459.56 75.1729 456.481 85.4553 456.318 93.1223C456.255 96.1433 456.172 100.384 456.094 105.201C456.05 107.892 456.013 110.747 455.948 113.687C455.948 114.134 455.948 114.582 455.928 115.034C455.907 116.056 455.907 117.096 455.886 118.112C455.886 118.133 455.886 118.133 455.886 118.159C455.865 118.687 455.865 119.256 455.865 119.81C455.844 120.668 455.824 121.5 455.824 122.34C455.189 122.36 454.477 122.36 453.741 122.36C452.948 122.36 452.132 122.34 451.334 122.319C449.847 122.298 448.44 122.259 447.499 122.217C447.52 122.441 447.559 122.607 447.6 122.724C447.6 122.724 446.784 122.644 445.437 122.48C445.663 120.566 445.89 118.565 446.113 116.583C446.131 116.36 446.155 116.115 446.17 115.892C446.355 114.319 446.519 112.749 446.659 111.194C446.906 108.771 447.109 106.405 447.255 104.182C447.314 103.405 447.377 102.653 447.416 101.918C447.416 101.897 447.416 101.897 447.416 101.897C447.559 99.5465 447.639 97.4068 447.639 95.5895L441.826 87.9225L433.933 77.4971C433.933 77.4971 435.625 75.2118 438.012 72.2922C441.54 67.9712 446.599 62.2593 449.883 60.6292C454.453 58.3439 462.716 56.836 465.305 56.4044L465.326 56.3837C465.836 56.3031 466.124 56.2615 466.124 56.2615L466.041 56.5058L465.88 56.953C466.02 56.8984 466.143 56.836 466.306 56.8152H466.327C466.395 56.7762 466.475 56.7502 466.538 56.7346Z" fill="#34334B"/>
<path d="M471.27 112.525C471.251 112.668 471.228 112.808 471.189 112.951C471.168 112.993 471.168 113.011 471.15 113.053C469.801 117.46 459.848 121.786 458.296 122.173C457.911 122.274 456.991 122.334 455.829 122.334C455.195 122.355 454.482 122.355 453.746 122.355C452.954 122.355 452.137 122.334 451.339 122.313C449.852 122.293 448.445 122.254 447.504 122.212C446.789 122.191 446.342 122.17 446.342 122.17V116.643H446.384C446.49 116.602 446.914 116.461 447.546 116.238C448.445 115.949 449.789 115.523 451.383 115.034C451.401 115.034 451.427 115.013 451.443 115.013C452.319 114.748 453.299 114.464 454.298 114.155C454.849 114.012 455.397 113.851 455.951 113.687C459.542 112.707 463.441 111.748 466.416 111.381C466.886 111.3 467.315 111.259 467.721 111.238C468.924 111.137 469.884 111.191 470.495 111.42C470.677 111.501 470.843 111.581 470.965 111.703C471.21 111.896 471.332 112.156 471.27 112.525Z" fill="#FCD2B1"/>
<path d="M478.409 107.814L473.271 110.154L470.905 111.241L470.495 111.425L458.665 116.833L455.889 118.112L455.423 118.315L451.461 115.096L451.383 115.034L446.667 111.196L436.47 102.919L447.262 104.182L448.341 104.304L451.747 104.692L456.094 105.204L470.313 106.876L478.409 107.814Z" fill="#F7F7F7"/>
<path d="M478.409 107.814V110.484L476.737 111.059L471.189 112.951H471.15L458.072 117.421L455.888 118.156L455.423 118.315L454.646 115.442L455.93 115.034L464.785 112.195L467.721 111.241L470.762 110.255L471.15 110.138L478.409 107.814Z" fill="#D3D3D3"/>
<path d="M468.141 53.9113L460.178 66.5622L456.32 68.9931L465.308 56.4019L468.141 53.9113Z" fill="#F2F2F2"/>
<path d="M460.178 66.5622L465.838 68.9931L467.37 56.2641L468.142 53.9113L460.178 66.5622Z" fill="#D6C5BE"/>
<path d="M447.507 122.215C447.528 122.438 447.567 122.605 447.608 122.722C447.608 122.722 446.792 122.641 445.445 122.477C439.185 121.768 421.316 119.5 419.335 116.521C418.152 114.73 417.559 112.788 417.294 111.261V111.241C416.99 109.647 417.013 108.503 417.013 108.503L446.181 115.892L447.549 116.238L447.608 116.258C447.608 116.258 447.585 116.482 447.567 116.867C447.483 118.096 447.322 120.889 447.507 122.215Z" fill="#34334B"/>
<path d="M455.423 118.325L443.183 72.8486L396.677 67.9375L409.424 109.8L455.423 118.325Z" fill="#D3D3D3"/>
<path d="M537.506 86.5524C537.506 86.5524 524.657 97.8566 517.825 104.549C517.825 104.549 509.908 113.074 507.522 113.074C507.418 113.074 507.319 113.053 507.236 113.014C505.481 112.257 499.486 103.756 494.265 94.9006C494.021 95.5922 493.732 96.4085 493.449 97.308C493.184 98.0854 492.921 98.9381 492.632 99.8559C491.92 102.222 491.145 104.933 490.448 107.814C488.41 116.279 498.713 142.735 498.713 142.735L496.345 143.534L495.978 143.656L481.31 148.637C479.17 149.347 476.862 148.003 476.474 145.759C476.396 145.252 476.295 144.698 476.193 144.108C476.11 143.677 476.048 143.25 475.967 142.777C475.946 142.676 475.926 142.553 475.907 142.452C475.764 141.659 475.603 140.78 475.46 139.883C475.374 139.493 475.315 139.106 475.255 138.7C475.13 138.024 475.029 137.348 474.906 136.639C473.724 129.804 472.317 121.216 471.157 113.058C471.176 113.016 471.176 112.998 471.196 112.957L476.745 111.061L478.419 110.487V107.817L470.323 106.878C469.569 101.145 469.015 95.9613 468.854 92.1681C468.529 84.6415 470.874 76.504 473.484 69.9367L475.749 71.9568L478.993 64.0611L479.87 61.9188L481.151 58.7807L481.684 57.4912H481.845C481.825 57.3898 481.825 57.2676 481.825 57.1454C481.825 57.1454 483.928 56.8568 486.702 57.3898C490.451 58.0606 495.453 60.2028 498.243 66.4893C498.287 66.5491 498.305 66.6115 498.326 66.6713L502.28 75.3185L509.074 90.1714C509.074 90.1714 511.013 93.559 511.991 94.5782C511.991 94.5782 514.44 93.1873 515.706 92.3293C518.048 90.4158 519.419 89.6983 522.232 87.2778C526.599 83.521 532.21 78.7477 532.21 78.7477L532.392 79.0128C531.737 80.136 530.757 81.0329 530.757 81.0329L535.78 85.4605C535.78 85.4605 536.063 85.2525 536.43 84.9717L537.506 86.5524Z" fill="#34334B"/>
<path d="M536.424 84.9691C536.058 85.2473 535.774 85.4579 535.774 85.4579L530.751 81.0304C530.751 81.0304 531.732 80.1308 532.387 79.0103L536.424 84.9691Z" fill="#34334B"/>
<path d="M483.182 40.2125C482.53 40.9639 481.859 41.6399 481.167 42.269C480.005 43.309 478.796 44.2085 477.572 44.9443C477.572 44.9443 477.572 44.9651 477.535 44.9859C477.491 45.0067 477.45 45.0275 477.39 45.0613C476.433 45.6359 475.474 46.1272 474.533 46.5328C474.452 46.5926 474.371 46.6134 474.288 46.6342C473.724 46.8682 473.16 47.0814 472.632 47.2686C472.177 47.4298 471.732 47.5779 471.29 47.7105C470.651 47.9081 470.134 48.0511 469.858 48.1213C469.715 48.1681 469.632 48.1811 469.632 48.1811C466.736 48.8571 464.37 48.9377 463.205 48.8363C460.108 48.5477 458.27 39.4118 458.27 39.4118C458.27 39.4118 455.681 38.5954 455.086 38.1274C454.495 37.6595 457.862 29.8859 457.329 27.0469C456.801 24.213 456.801 20.685 456.801 20.685C457.004 19.827 457.269 19.0133 457.558 18.2567C461.723 22.4815 475.393 36.0294 483.182 40.2125Z" fill="#FCD2B1"/>
<path d="M470.128 66.9417L465.839 68.993L480.398 54.5612L470.128 66.9417Z" fill="#D6C5BE"/>
<path d="M481.817 57.1428L481.674 57.486L481.141 58.7781L479.859 61.9162L478.983 64.0584L475.738 71.9542L473.474 69.9341L470.128 66.9365L473.757 62.5453L473.778 62.5245L474.412 61.7732L478.206 57.2026L478.983 56.2641L479.001 56.2433L480.39 54.5663L480.431 54.6339L481.817 57.1428Z" fill="#F2F2F2"/>
<path d="M477.582 44.9443C477.514 45.0509 475.286 48.5139 469.012 50.9655C469.163 50.3702 469.304 49.7722 469.431 49.1768C469.499 48.8414 469.569 48.5061 469.629 48.1707C469.629 48.1733 474.818 46.9046 477.582 44.9443Z" fill="#A77860"/>
<path d="M427.472 97.5751C428.792 96.8738 428.813 94.3316 427.519 91.897C426.226 89.4624 424.107 88.0574 422.787 88.7587C421.467 89.46 421.446 92.0022 422.739 94.4367C424.033 96.8713 426.152 98.2764 427.472 97.5751Z" fill="#F7F7F7"/>
<path d="M499.319 208.746C499.319 208.746 497.832 208.686 495.258 208.585C491.057 208.423 484.001 208.137 476.004 207.786C469.538 207.521 462.438 207.196 455.769 206.871C447.795 206.481 440.388 206.094 435.326 205.73C431.128 205.441 428.517 205.176 428.517 204.973C429.578 195.489 436.163 171.703 441.041 154.978C442.429 150.199 443.675 146.001 444.608 142.878L445.12 143.086L452.34 146.042C453.809 146.633 455.439 145.574 455.46 143.96C455.46 143.778 455.46 143.575 455.483 143.37C455.504 141.633 455.54 139.428 455.584 136.906C461.156 136.805 468.394 136.678 474.901 136.636C475.024 137.346 475.125 138.022 475.25 138.698C475.31 139.103 475.369 139.491 475.455 139.881C475.598 140.78 475.759 141.659 475.902 142.449C475.923 142.551 475.944 142.673 475.962 142.774C476.043 143.247 476.105 143.674 476.188 144.105C476.29 144.696 476.391 145.247 476.469 145.756C476.857 148 479.165 149.347 481.305 148.634L495.973 143.653L496.34 143.531C508.13 164.707 499.319 208.746 499.319 208.746Z" fill="#FF8C4A"/>
<path d="M486.712 34.9062C486.205 35.8864 485.654 36.8249 485.061 37.7037C484.466 38.598 483.834 39.4352 483.181 40.2125C475.392 36.0294 461.722 22.4815 457.562 18.2619C461.413 7.7975 471.37 6.81736 475.899 7.53232C482.037 8.55407 485.893 10.8783 488.077 13.9358C492.281 19.7491 490.365 28.1518 486.712 34.9062Z" fill="#072735"/>
<path d="M486.555 92.2013L486.501 94.1072L485.008 92.922L486.555 92.2013Z" fill="white"/>
<path d="M485.007 92.9237L486.554 92.203L480.829 79.9283L479.283 80.6494L485.007 92.9237Z" fill="#FF8C4A"/>
<path d="M486.523 93.3605L486.501 94.1072L485.918 93.6436L486.523 93.3605Z" fill="#FF8C4A"/>
<path d="M476.556 91.5243L478.101 92.2455L482.903 81.9519L481.357 81.2305L476.556 91.5243Z" fill="#4E4C82"/>
<path d="M481.597 80.7166L483.142 81.4377L483.53 80.6113L481.98 79.8901L481.597 80.7166Z" fill="#4E4C82"/>
<path d="M476.302 93.5595L476.705 93.7492L478.101 92.2455L476.556 91.5243L476.302 93.5595Z" fill="#FCD2B1"/>
<path d="M476.231 94.0354L476.387 94.1072L476.581 93.6898L476.426 93.6185L476.231 94.0354Z" fill="white"/>
<path d="M482.756 81.8815L481.503 81.2978L481.743 80.7847L482.995 81.3683L482.756 81.8815Z" fill="white"/>
<path d="M478.72 86.0431L480.648 81.9107C480.664 81.8766 480.695 81.8483 480.731 81.8356C480.766 81.8216 480.806 81.8242 480.842 81.8387L481.031 81.9279L481.155 81.6626L480.966 81.5739C480.861 81.5241 480.739 81.5191 480.628 81.5596C480.522 81.5996 480.432 81.6798 480.383 81.7861L478.455 85.9192L478.72 86.0431Z" fill="#FCD2B1"/>
<path d="M486.578 88.8596H476.208V87.1529H486.578V88.8596ZM485.728 88.0065C485.728 88.1254 485.824 88.2226 485.945 88.2226C486.063 88.2226 486.16 88.1254 486.16 88.0065C486.16 87.8873 486.063 87.7908 485.945 87.7908C485.824 87.7909 485.728 87.8873 485.728 88.0065Z" fill="#4E4C82"/>
<path d="M485.256 87.1529H485.308V87.5869H485.256V87.1529Z" fill="#FCD2B1"/>
<path d="M484.392 87.1529H484.444V87.5869H484.392V87.1529Z" fill="#FCD2B1"/>
<path d="M483.529 87.1529H483.578V87.5869H483.529V87.1529Z" fill="#FCD2B1"/>
<path d="M482.664 87.1529H482.716V87.5869H482.664V87.1529Z" fill="#FCD2B1"/>
<path d="M481.799 87.1529H481.853V87.5869H481.799V87.1529Z" fill="#FCD2B1"/>
<path d="M480.933 87.1529H480.986V87.5869H480.933V87.1529Z" fill="#FCD2B1"/>
<path d="M480.071 87.1529H480.123V87.5869H480.071V87.1529Z" fill="#FCD2B1"/>
<path d="M479.206 87.1529H479.258V87.5869H479.206V87.1529Z" fill="#FCD2B1"/>
<path d="M478.343 87.1529H478.395V87.5869H478.343V87.1529Z" fill="#FCD2B1"/>
<path d="M477.479 87.1529H477.531V87.5869H477.479V87.1529Z" fill="#FCD2B1"/>
<path d="M476.615 87.1529H476.667V87.5869H476.615V87.1529Z" fill="#FCD2B1"/>
<path d="M477.053 87.1529H477.096V87.3705H477.053V87.1529Z" fill="#FCD2B1"/>
<path d="M477.915 87.1529H477.956V87.3705H477.915V87.1529Z" fill="#FCD2B1"/>
<path d="M478.778 87.1529H478.821V87.3705H478.778V87.1529Z" fill="#FCD2B1"/>
<path d="M479.642 87.1529H479.683V87.3705H479.642V87.1529Z" fill="#FCD2B1"/>
<path d="M480.508 87.1529H480.552V87.3705H480.508V87.1529Z" fill="#FCD2B1"/>
<path d="M481.372 87.1529H481.416V87.3705H481.372V87.1529Z" fill="#FCD2B1"/>
<path d="M482.236 87.1529H482.28V87.3705H482.236V87.1529Z" fill="#FCD2B1"/>
<path d="M483.099 87.1529H483.143V87.3705H483.099V87.1529Z" fill="#FCD2B1"/>
<path d="M483.963 87.1529H484.007V87.3705H483.963V87.1529Z" fill="#FCD2B1"/>
<path d="M484.829 87.1529H484.872V87.3705H484.829V87.1529Z" fill="#FCD2B1"/>
</svg>
