<svg width="511" height="329" viewBox="0 0 511 329" fill="none" xmlns="http://www.w3.org/2000/svg">
<path d="M63.4278 320.857C76.6004 320.857 87.2788 310.179 87.2788 297.006C87.2788 283.833 76.6004 273.155 63.4278 273.155C50.2552 273.155 39.5768 283.833 39.5768 297.006C39.5768 310.179 50.2552 320.857 63.4278 320.857Z" fill="#FF8C4A"/>
<path d="M46.9244 298.487V297.184C46.9244 296.532 47.3096 295.969 47.9022 295.732L54.4797 293.125C55.5167 292.71 56.613 293.48 56.613 294.576C56.613 295.258 56.1982 295.85 55.5464 296.058L50.2428 297.836L55.5464 299.613C56.1982 299.821 56.613 300.413 56.613 301.095V301.124C56.613 302.221 55.4871 302.991 54.4797 302.576L47.9022 299.969C47.3392 299.702 46.9244 299.139 46.9244 298.487Z" fill="white"/>
<path d="M66.9534 289.125C67.9607 289.125 68.6126 290.162 68.1681 291.08L60.8202 306.458C60.5832 306.932 60.1092 307.228 59.6055 307.228C58.5981 307.228 57.9463 306.191 58.3907 305.272L65.7386 289.895C65.9756 289.421 66.4497 289.125 66.9534 289.125Z" fill="white"/>
<path d="M71.2793 299.643L76.5828 297.865L71.2793 296.087C70.6571 295.88 70.2126 295.288 70.2126 294.606V294.576C70.2126 293.48 71.3385 292.71 72.3459 293.125L78.9235 295.732C79.516 295.969 79.9012 296.532 79.9012 297.184V298.487C79.9012 299.139 79.516 299.702 78.9235 299.939L72.3459 302.547C71.3089 302.961 70.2126 302.191 70.2126 301.095C70.2126 300.443 70.6571 299.85 71.2793 299.643Z" fill="white"/>
<path d="M168.679 29.8336H352.84V0.095459H168.679V29.8336Z" fill="white"/>
<path d="M168.679 149.896H352.84V120.158H168.679V149.896Z" fill="white"/>
<path d="M131.723 13.5H323.086V50.4292H131.723V13.5Z" fill="white" stroke="#D3D3D3"/>
<path d="M131.723 74.9849H323.086V111.914H131.723V74.9849Z" fill="white" stroke="#D3D3D3"/>
<path d="M131.723 136.47H323.086V173.399H131.723V136.47Z" fill="white" stroke="#D3D3D3"/>
<path d="M131.723 197.955H323.086V234.884H131.723V197.955Z" fill="white" stroke="#D3D3D3"/>
<path d="M182.67 28.2186H181.387L179.209 29.6419V30.9033L181.297 29.5397H181.349V36.9459H182.67V28.2186ZM185.395 37.0269C185.859 37.0269 186.247 36.6476 186.247 36.1746C186.247 35.7101 185.859 35.3266 185.395 35.3266C184.926 35.3266 184.542 35.7101 184.542 36.1746C184.542 36.6476 184.926 37.0269 185.395 37.0269ZM198.135 28.2186H196.831V34.6277H196.75L192.31 28.2186H191.091V36.9459H192.408V30.5454H192.489L196.925 36.9459H198.135V28.2186ZM201.859 37.0908C202.941 37.0908 203.55 36.5411 203.793 36.051H203.844V36.9459H205.089V32.5993C205.089 30.6945 203.589 30.3152 202.549 30.3152C201.364 30.3152 200.273 30.7925 199.847 31.9857L201.045 32.2584C201.232 31.7939 201.709 31.3465 202.566 31.3465C203.388 31.3465 203.81 31.7769 203.81 32.5184V32.5482C203.81 33.0127 203.333 33.0042 202.157 33.1405C200.917 33.2854 199.647 33.6093 199.647 35.0965C199.647 36.3834 200.614 37.0908 201.859 37.0908ZM202.136 36.0681C201.415 36.0681 200.895 35.7442 200.895 35.1135C200.895 34.4317 201.501 34.1888 202.238 34.0908C202.651 34.0354 203.631 33.9246 203.814 33.7414V34.5851C203.814 35.3607 203.197 36.0681 202.136 36.0681ZM202.089 29.5269H203.107L204.428 27.5624H203.086L202.089 29.5269ZM206.786 39.4005H208.06V35.9275H208.137C208.367 36.3451 208.835 37.0738 210.029 37.0738C211.614 37.0738 212.764 35.8039 212.764 33.686C212.764 31.5638 211.597 30.3152 210.016 30.3152C208.801 30.3152 208.362 31.0567 208.137 31.4615H208.03V30.4005H206.786V39.4005ZM208.034 33.6732C208.034 32.3053 208.631 31.3976 209.743 31.3976C210.898 31.3976 211.477 32.3735 211.477 33.6732C211.477 34.9857 210.881 35.9871 209.743 35.9871C208.648 35.9871 208.034 35.0496 208.034 33.6732ZM216.097 37.0908C217.179 37.0908 217.789 36.5411 218.031 36.051H218.083V36.9459H219.327V32.5993C219.327 30.6945 217.827 30.3152 216.787 30.3152C215.602 30.3152 214.512 30.7925 214.085 31.9857L215.283 32.2584C215.47 31.7939 215.948 31.3465 216.804 31.3465C217.627 31.3465 218.049 31.7769 218.049 32.5184V32.5482C218.049 33.0127 217.571 33.0042 216.395 33.1405C215.155 33.2854 213.885 33.6093 213.885 35.0965C213.885 36.3834 214.852 37.0908 216.097 37.0908ZM216.374 36.0681C215.654 36.0681 215.134 35.7442 215.134 35.1135C215.134 34.4317 215.739 34.1888 216.476 34.0908C216.889 34.0354 217.87 33.9246 218.053 33.7414V34.5851C218.053 35.3607 217.435 36.0681 216.374 36.0681ZM223.474 37.0738C224.667 37.0738 225.136 36.3451 225.366 35.9275H225.473V36.9459H226.717V28.2186H225.443V31.4615H225.366C225.136 31.0567 224.702 30.3152 223.483 30.3152C221.902 30.3152 220.739 31.5638 220.739 33.686C220.739 35.8039 221.885 37.0738 223.474 37.0738ZM223.756 35.9871C222.618 35.9871 222.025 34.9857 222.025 33.6732C222.025 32.3735 222.605 31.3976 223.756 31.3976C224.868 31.3976 225.464 32.3053 225.464 33.6732C225.464 35.0496 224.855 35.9871 223.756 35.9871ZM231.712 36.9459H232.986V34.6235L233.621 33.9885L235.845 36.9459H237.409L234.579 33.2087L237.23 30.4005H235.704L233.096 33.1704H232.986V28.2186H231.712V36.9459ZM239.665 28.2186H238.391V36.9459H239.665V28.2186ZM241.379 36.9459H242.654V30.4005H241.379V36.9459ZM242.023 29.3905C242.462 29.3905 242.828 29.0496 242.828 28.632C242.828 28.2144 242.462 27.8692 242.023 27.8692C241.58 27.8692 241.218 28.2144 241.218 28.632C241.218 29.0496 241.58 29.3905 242.023 29.3905ZM247.189 37.078C248.616 37.078 249.626 36.3749 249.916 35.3096L248.71 35.0922C248.48 35.7101 247.926 36.0255 247.202 36.0255C246.111 36.0255 245.378 35.3181 245.344 34.0567H249.997V33.605C249.997 31.24 248.582 30.3152 247.099 30.3152C245.275 30.3152 244.074 31.7044 244.074 33.7158C244.074 35.7485 245.258 37.078 247.189 37.078ZM245.348 33.1022C245.399 32.1732 246.072 31.3678 247.108 31.3678C248.096 31.3678 248.744 32.1008 248.748 33.1022H245.348ZM252.685 33.0596C252.685 32.0155 253.324 31.4189 254.21 31.4189C255.076 31.4189 255.6 31.9857 255.6 32.936V36.9459H256.874V32.7826C256.874 31.1633 255.983 30.3152 254.645 30.3152C253.661 30.3152 253.017 30.7712 252.715 31.4658H252.634V30.4005H251.411V36.9459H252.685V33.0596ZM261.638 30.4005H260.296V28.8323H259.022V30.4005H258.063V31.4232H259.022V35.2883C259.017 36.4772 259.925 37.0525 260.931 37.0312C261.335 37.0269 261.608 36.9502 261.757 36.8948L261.527 35.8422C261.442 35.8593 261.284 35.8976 261.08 35.8976C260.666 35.8976 260.296 35.7613 260.296 35.024V31.4232H261.638V30.4005ZM264.952 37.0908C266.035 37.0908 266.644 36.5411 266.887 36.051H266.938V36.9459H268.182V32.5993C268.182 30.6945 266.682 30.3152 265.643 30.3152C264.458 30.3152 263.367 30.7925 262.941 31.9857L264.138 32.2584C264.326 31.7939 264.803 31.3465 265.66 31.3465C266.482 31.3465 266.904 31.7769 266.904 32.5184V32.5482C266.904 33.0127 266.427 33.0042 265.251 33.1405C264.011 33.2854 262.741 33.6093 262.741 35.0965C262.741 36.3834 263.708 37.0908 264.952 37.0908ZM265.229 36.0681C264.509 36.0681 263.989 35.7442 263.989 35.1135C263.989 34.4317 264.594 34.1888 265.332 34.0908C265.745 34.0354 266.725 33.9246 266.908 33.7414V34.5851C266.908 35.3607 266.29 36.0681 265.229 36.0681Z" fill="#98999A"/>
<path d="M179.359 98.4308H185.103V97.3016H181.174V97.2377L182.908 95.4223C184.506 93.8073 184.962 93.0359 184.962 92.0601C184.962 90.6581 183.82 89.5842 182.175 89.5842C180.543 89.5842 179.35 90.6411 179.35 92.2348H180.607C180.603 91.2973 181.208 90.6837 182.15 90.6837C183.036 90.6837 183.709 91.2291 183.709 92.0984C183.709 92.8698 183.249 93.4237 182.312 94.4166L179.359 97.4763V98.4308ZM187.574 98.5118C188.039 98.5118 188.427 98.1325 188.427 97.6595C188.427 97.195 188.039 96.8115 187.574 96.8115C187.106 96.8115 186.722 97.195 186.722 97.6595C186.722 98.1325 187.106 98.5118 187.574 98.5118ZM193.271 98.4308H194.588V95.7163L195.619 94.5317L198.44 98.4308H200.025L196.492 93.6325L200.012 89.7036H198.355L194.694 93.8712H194.588V89.7036H193.271V98.4308ZM203.414 98.5629C205.259 98.5629 206.465 97.2121 206.465 95.1879C206.465 93.151 205.259 91.8002 203.414 91.8002C201.569 91.8002 200.363 93.151 200.363 95.1879C200.363 97.2121 201.569 98.5629 203.414 98.5629ZM203.418 97.4933C202.212 97.4933 201.65 96.4408 201.65 95.1837C201.65 93.9308 202.212 92.8655 203.418 92.8655C204.616 92.8655 205.178 93.9308 205.178 95.1837C205.178 96.4408 204.616 97.4933 203.418 97.4933ZM207.887 98.4308H209.161V94.3953C209.161 93.5132 209.779 92.8996 210.504 92.8996C211.211 92.8996 211.701 93.3683 211.701 94.08V98.4308H212.971V94.259C212.971 93.4706 213.453 92.8996 214.284 92.8996C214.957 92.8996 215.511 93.2746 215.511 94.1609V98.4308H216.785V94.0416C216.785 92.5459 215.95 91.8002 214.765 91.8002C213.823 91.8002 213.116 92.2519 212.801 92.9507H212.732C212.447 92.2348 211.846 91.8002 210.973 91.8002C210.107 91.8002 209.464 92.2305 209.191 92.9507H209.11V91.8854H207.887V98.4308ZM218.493 100.885H219.767V97.4124H219.844C220.074 97.83 220.542 98.5587 221.736 98.5587C223.321 98.5587 224.471 97.2888 224.471 95.1709C224.471 93.0487 223.304 91.8002 221.723 91.8002C220.508 91.8002 220.069 92.5416 219.844 92.9465H219.737V91.8854H218.493V100.885ZM219.741 95.1581C219.741 93.7902 220.338 92.8825 221.45 92.8825C222.605 92.8825 223.185 93.8584 223.185 95.1581C223.185 96.4706 222.588 97.472 221.45 97.472C220.355 97.472 219.741 96.5345 219.741 95.1581ZM225.899 98.4308H227.173V91.8854H225.899V98.4308ZM226.542 90.8754C226.981 90.8754 227.348 90.5345 227.348 90.1169C227.348 89.6993 226.981 89.3541 226.542 89.3541C226.099 89.3541 225.737 89.6993 225.737 90.1169C225.737 90.5345 226.099 90.8754 226.542 90.8754ZM230.161 89.7036H228.887V98.4308H230.161V89.7036ZM233.78 98.5757C234.863 98.5757 235.472 98.026 235.715 97.5359H235.766V98.4308H237.011V94.0842C237.011 92.1794 235.511 91.8002 234.471 91.8002C233.286 91.8002 232.195 92.2774 231.769 93.4706L232.966 93.7433C233.154 93.2788 233.631 92.8314 234.488 92.8314C235.31 92.8314 235.732 93.2618 235.732 94.0033V94.0331C235.732 94.4976 235.255 94.4891 234.079 94.6254C232.839 94.7703 231.569 95.0942 231.569 96.5814C231.569 97.8683 232.536 98.5757 233.78 98.5757ZM234.057 97.553C233.337 97.553 232.817 97.2291 232.817 96.5984C232.817 95.9166 233.422 95.6737 234.16 95.5757C234.573 95.5203 235.553 95.4095 235.736 95.2263V96.07C235.736 96.8456 235.118 97.553 234.057 97.553ZM234.011 91.0118H235.029L236.35 89.0473H235.008L234.011 91.0118ZM241.465 98.5629C243.012 98.5629 244.013 97.634 244.154 96.3598H242.914C242.752 97.0672 242.202 97.4848 241.473 97.4848C240.395 97.4848 239.701 96.5857 239.701 95.1581C239.701 93.7561 240.408 92.874 241.473 92.874C242.283 92.874 242.777 93.3854 242.914 93.999H244.154C244.017 92.678 242.939 91.8002 241.452 91.8002C239.607 91.8002 238.414 93.1894 238.414 95.1879C238.414 97.1609 239.564 98.5629 241.465 98.5629ZM245.516 98.4308H246.79V91.8854H245.516V98.4308ZM246.16 90.8754C246.599 90.8754 246.965 90.5345 246.965 90.1169C246.965 89.6993 246.599 89.3541 246.16 89.3541C245.716 89.3541 245.354 89.6993 245.354 90.1169C245.354 90.5345 245.716 90.8754 246.16 90.8754ZM250.409 98.5757C251.492 98.5757 252.101 98.026 252.344 97.5359H252.395V98.4308H253.639V94.0842C253.639 92.1794 252.139 91.8002 251.1 91.8002C249.915 91.8002 248.824 92.2774 248.398 93.4706L249.595 93.7433C249.783 93.2788 250.26 92.8314 251.117 92.8314C251.939 92.8314 252.361 93.2618 252.361 94.0033V94.0331C252.361 94.4976 251.884 94.4891 250.708 94.6254C249.468 94.7703 248.198 95.0942 248.198 96.5814C248.198 97.8683 249.165 98.5757 250.409 98.5757ZM250.686 97.553C249.966 97.553 249.446 97.2291 249.446 96.5984C249.446 95.9166 250.051 95.6737 250.789 95.5757C251.202 95.5203 252.182 95.4095 252.365 95.2263V96.07C252.365 96.8456 251.747 97.553 250.686 97.553ZM259.786 94.5445C259.786 93.5004 260.426 92.9038 261.312 92.9038C262.177 92.9038 262.701 93.4706 262.701 94.4209V98.4308H263.975V94.2675C263.975 92.6482 263.085 91.8002 261.747 91.8002C260.762 91.8002 260.119 92.2561 259.816 92.9507H259.735V91.8854H258.512V98.4308H259.786V94.5445ZM267.589 98.5757C268.671 98.5757 269.281 98.026 269.524 97.5359H269.575V98.4308H270.819V94.0842C270.819 92.1794 269.319 91.8002 268.279 91.8002C267.095 91.8002 266.004 92.2774 265.578 93.4706L266.775 93.7433C266.963 93.2788 267.44 92.8314 268.296 92.8314C269.119 92.8314 269.541 93.2618 269.541 94.0033V94.0331C269.541 94.4976 269.063 94.4891 267.887 94.6254C266.647 94.7703 265.377 95.0942 265.377 96.5814C265.377 97.8683 266.345 98.5757 267.589 98.5757ZM267.866 97.553C267.146 97.553 266.626 97.2291 266.626 96.5984C266.626 95.9166 267.231 95.6737 267.968 95.5757C268.382 95.5203 269.362 95.4095 269.545 95.2263V96.07C269.545 96.8456 268.927 97.553 267.866 97.553ZM267.819 91.0118H268.838L270.159 89.0473H268.816L267.819 91.0118ZM272.516 100.885H273.79V97.4124H273.867C274.097 97.83 274.566 98.5587 275.759 98.5587C277.344 98.5587 278.495 97.2888 278.495 95.1709C278.495 93.0487 277.327 91.8002 275.746 91.8002C274.532 91.8002 274.093 92.5416 273.867 92.9465H273.761V91.8854H272.516V100.885ZM273.765 95.1581C273.765 93.7902 274.361 92.8825 275.474 92.8825C276.628 92.8825 277.208 93.8584 277.208 95.1581C277.208 96.4706 276.611 97.472 275.474 97.472C274.378 97.472 273.765 96.5345 273.765 95.1581ZM281.827 98.5757C282.91 98.5757 283.519 98.026 283.762 97.5359H283.813V98.4308H285.057V94.0842C285.057 92.1794 283.557 91.8002 282.518 91.8002C281.333 91.8002 280.242 92.2774 279.816 93.4706L281.013 93.7433C281.201 93.2788 281.678 92.8314 282.535 92.8314C283.357 92.8314 283.779 93.2618 283.779 94.0033V94.0331C283.779 94.4976 283.302 94.4891 282.126 94.6254C280.886 94.7703 279.616 95.0942 279.616 96.5814C279.616 97.8683 280.583 98.5757 281.827 98.5757ZM282.104 97.553C281.384 97.553 280.864 97.2291 280.864 96.5984C280.864 95.9166 281.469 95.6737 282.207 95.5757C282.62 95.5203 283.6 95.4095 283.783 95.2263V96.07C283.783 96.8456 283.165 97.553 282.104 97.553ZM289.205 98.5587C290.398 98.5587 290.867 97.83 291.097 97.4124H291.203V98.4308H292.448V89.7036H291.174V92.9465H291.097C290.867 92.5416 290.432 91.8002 289.213 91.8002C287.632 91.8002 286.469 93.0487 286.469 95.1709C286.469 97.2888 287.615 98.5587 289.205 98.5587ZM289.486 97.472C288.348 97.472 287.756 96.4706 287.756 95.1581C287.756 93.8584 288.335 92.8825 289.486 92.8825C290.598 92.8825 291.195 93.7902 291.195 95.1581C291.195 96.5345 290.585 97.472 289.486 97.472ZM298.413 95.7163C298.417 96.8286 297.59 97.357 296.874 97.357C296.086 97.357 295.54 96.7859 295.54 95.8953V91.8854H294.266V96.0487C294.266 97.6723 295.157 98.5161 296.414 98.5161C297.398 98.5161 298.067 97.9962 298.37 97.2973H298.438V98.4308H299.691V91.8854H298.413V95.7163Z" fill="#98999A"/>
<path d="M182.397 160.035C184.178 160.035 185.486 158.97 185.482 157.521C185.486 156.417 184.817 155.625 183.658 155.446V155.377C184.57 155.143 185.163 154.427 185.158 153.447C185.163 152.164 184.11 151.069 182.431 151.069C180.829 151.069 179.542 152.036 179.499 153.455H180.773C180.803 152.654 181.557 152.169 182.414 152.169C183.305 152.169 183.888 152.71 183.884 153.515C183.888 154.359 183.211 154.913 182.243 154.913H181.506V155.987H182.243C183.454 155.987 184.153 156.6 184.153 157.478C184.153 158.326 183.415 158.902 182.388 158.902C181.442 158.902 180.705 158.416 180.654 157.64H179.316C179.371 159.063 180.633 160.035 182.397 160.035ZM187.68 159.997C188.144 159.997 188.532 159.617 188.532 159.144C188.532 158.68 188.144 158.296 187.68 158.296C187.211 158.296 186.828 158.68 186.828 159.144C186.828 159.617 187.211 159.997 187.68 159.997ZM198.136 153.481H199.406C199.368 152.083 198.132 151.069 196.359 151.069C194.608 151.069 193.265 152.071 193.265 153.575C193.265 154.789 194.135 155.501 195.537 155.88L196.568 156.161C197.501 156.409 198.221 156.715 198.221 157.491C198.221 158.343 197.408 158.906 196.287 158.906C195.273 158.906 194.429 158.454 194.352 157.504H193.031C193.116 159.085 194.339 160.061 196.295 160.061C198.345 160.061 199.525 158.982 199.525 157.504C199.525 155.931 198.123 155.322 197.015 155.049L196.163 154.828C195.481 154.653 194.574 154.333 194.578 153.498C194.578 152.757 195.256 152.207 196.329 152.207C197.331 152.207 198.042 152.676 198.136 153.481ZM200.997 162.37H202.271V158.897H202.348C202.578 159.315 203.046 160.044 204.24 160.044C205.825 160.044 206.975 158.774 206.975 156.656C206.975 154.534 205.808 153.285 204.227 153.285C203.012 153.285 202.573 154.027 202.348 154.431H202.241V153.37H200.997V162.37ZM202.245 156.643C202.245 155.275 202.842 154.367 203.954 154.367C205.109 154.367 205.688 155.343 205.688 156.643C205.688 157.955 205.092 158.957 203.954 158.957C202.859 158.957 202.245 158.019 202.245 156.643ZM211.16 160.048C213.005 160.048 214.211 158.697 214.211 156.673C214.211 154.636 213.005 153.285 211.16 153.285C209.315 153.285 208.109 154.636 208.109 156.673C208.109 158.697 209.315 160.048 211.16 160.048ZM211.164 158.978C209.958 158.978 209.396 157.926 209.396 156.669C209.396 155.416 209.958 154.35 211.164 154.35C212.362 154.35 212.924 155.416 212.924 156.669C212.924 157.926 212.362 158.978 211.164 158.978ZM215.633 159.916H216.908V157.593L217.542 156.958L219.767 159.916H221.331L218.501 156.179L221.152 153.37H219.626L217.018 156.14H216.908V151.188H215.633V159.916ZM224.801 160.048C226.646 160.048 227.852 158.697 227.852 156.673C227.852 154.636 226.646 153.285 224.801 153.285C222.955 153.285 221.75 154.636 221.75 156.673C221.75 158.697 222.955 160.048 224.801 160.048ZM224.805 158.978C223.599 158.978 223.036 157.926 223.036 156.669C223.036 155.416 223.599 154.35 224.805 154.35C226.002 154.35 226.565 155.416 226.565 156.669C226.565 157.926 226.002 158.978 224.805 158.978ZM229.274 153.37V160.333C229.274 160.938 229.023 161.271 228.417 161.271H228.213V162.366C228.302 162.37 228.383 162.37 228.473 162.37C229.828 162.37 230.548 161.654 230.548 160.342V153.37H229.274ZM229.905 152.36C230.344 152.36 230.71 152.019 230.71 151.602C230.71 151.184 230.344 150.839 229.905 150.839C229.462 150.839 229.099 151.184 229.099 151.602C229.099 152.019 229.462 152.36 229.905 152.36ZM233.536 156.029C233.536 154.985 234.176 154.389 235.062 154.389C235.927 154.389 236.451 154.955 236.451 155.906V159.916H237.725V155.752C237.725 154.133 236.835 153.285 235.497 153.285C234.512 153.285 233.869 153.741 233.566 154.436H233.485V153.37H232.262V159.916H233.536V156.029ZM239.434 159.916H240.708V153.37H239.434V159.916ZM239.553 152.497H240.572L241.893 150.532H240.551L239.553 152.497ZM249.745 157.201C249.749 158.313 248.922 158.842 248.206 158.842C247.418 158.842 246.872 158.271 246.872 157.38V153.37H245.598V157.534C245.598 159.157 246.489 160.001 247.746 160.001C248.73 160.001 249.399 159.481 249.702 158.782H249.77V159.916H251.023V153.37H249.745V157.201ZM252.599 159.916H257.853V158.808H254.324V158.748L257.734 154.299V153.37H252.714V154.478H256.144V154.538L252.599 159.042V159.916ZM254.303 150.715H253.153V150.779L254.648 152.586H255.709L257.209 150.779V150.715H256.055L255.181 151.857L254.303 150.715ZM259.356 159.916H260.63V153.37H259.356V159.916ZM259.475 152.497H260.494L261.815 150.532H260.473L259.475 152.497ZM267.944 153.37H266.576L264.922 158.407H264.854L263.197 153.37H261.829L264.207 159.916H265.57L267.944 153.37ZM270.847 160.061C271.929 160.061 272.539 159.511 272.781 159.021H272.833V159.916H274.077V155.569C274.077 153.664 272.577 153.285 271.537 153.285C270.352 153.285 269.262 153.762 268.835 154.955L270.033 155.228C270.22 154.764 270.698 154.316 271.554 154.316C272.377 154.316 272.799 154.747 272.799 155.488V155.518C272.799 155.982 272.321 155.974 271.145 156.11C269.905 156.255 268.635 156.579 268.635 158.066C268.635 159.353 269.602 160.061 270.847 160.061ZM271.124 159.038C270.404 159.038 269.884 158.714 269.884 158.083C269.884 157.402 270.489 157.159 271.226 157.061C271.639 157.005 272.62 156.894 272.803 156.711V157.555C272.803 158.33 272.185 159.038 271.124 159.038ZM278.829 153.37H277.487V151.802H276.213V153.37H275.254V154.393H276.213V158.258C276.209 159.447 277.116 160.022 278.122 160.001C278.527 159.997 278.8 159.92 278.949 159.865L278.719 158.812C278.633 158.829 278.476 158.867 278.271 158.867C277.858 158.867 277.487 158.731 277.487 157.994V154.393H278.829V153.37ZM282.99 160.048C284.417 160.048 285.427 159.345 285.717 158.279L284.511 158.062C284.281 158.68 283.727 158.995 283.002 158.995C281.911 158.995 281.178 158.288 281.144 157.027H285.798V156.575C285.798 154.21 284.383 153.285 282.9 153.285C281.076 153.285 279.875 154.674 279.875 156.686C279.875 158.718 281.059 160.048 282.99 160.048ZM281.149 156.072C281.2 155.143 281.873 154.338 282.909 154.338C283.897 154.338 284.545 155.071 284.549 156.072H281.149ZM288.486 151.188H287.212V159.916H288.486V151.188ZM290.2 159.916H291.474V153.37H290.2V159.916ZM290.843 152.36C291.282 152.36 291.649 152.019 291.649 151.602C291.649 151.184 291.282 150.839 290.843 150.839C290.4 150.839 290.038 151.184 290.038 151.602C290.038 152.019 290.4 152.36 290.843 152.36ZM295.093 160.061C296.175 160.061 296.785 159.511 297.028 159.021H297.079V159.916H298.323V155.569C298.323 153.664 296.823 153.285 295.783 153.285C294.599 153.285 293.508 153.762 293.082 154.955L294.279 155.228C294.466 154.764 294.944 154.316 295.8 154.316C296.623 154.316 297.045 154.747 297.045 155.488V155.518C297.045 155.982 296.567 155.974 295.391 156.11C294.151 156.255 292.881 156.579 292.881 158.066C292.881 159.353 293.849 160.061 295.093 160.061ZM295.37 159.038C294.65 159.038 294.13 158.714 294.13 158.083C294.13 157.402 294.735 157.159 295.472 157.061C295.886 157.005 296.866 156.894 297.049 156.711V157.555C297.049 158.33 296.431 159.038 295.37 159.038Z" fill="#98999A"/>
<path d="M179.175 218.75H183.313V220.455H184.57V218.75H185.725V217.634H184.57V211.727H182.947L179.175 217.685V218.75ZM183.322 217.634H180.556V217.565L183.253 213.296H183.322V217.634ZM187.739 220.536C188.203 220.536 188.591 220.156 188.591 219.683C188.591 219.219 188.203 218.835 187.739 218.835C187.27 218.835 186.886 219.219 186.886 219.683C186.886 220.156 187.27 220.536 187.739 220.536ZM193.435 220.455H194.752V217.386H196.541C198.566 217.386 199.567 216.163 199.567 214.553C199.567 212.946 198.574 211.727 196.546 211.727H193.435V220.455ZM194.752 216.27V212.857H196.405C197.709 212.857 198.242 213.564 198.242 214.553C198.242 215.541 197.709 216.27 196.422 216.27H194.752ZM201.008 220.455H202.283V216.458C202.283 215.601 202.943 214.983 203.846 214.983C204.111 214.983 204.409 215.03 204.511 215.06V213.841C204.383 213.824 204.132 213.811 203.97 213.811C203.203 213.811 202.547 214.246 202.308 214.949H202.24V213.909H201.008V220.455ZM208.137 220.587C209.982 220.587 211.188 219.236 211.188 217.212C211.188 215.175 209.982 213.824 208.137 213.824C206.291 213.824 205.085 215.175 205.085 217.212C205.085 219.236 206.291 220.587 208.137 220.587ZM208.141 219.517C206.935 219.517 206.372 218.465 206.372 217.208C206.372 215.955 206.935 214.889 208.141 214.889C209.338 214.889 209.901 215.955 209.901 217.208C209.901 218.465 209.338 219.517 208.141 219.517ZM217.515 215.507C217.251 214.489 216.454 213.824 215.039 213.824C213.56 213.824 212.512 214.604 212.512 215.763C212.512 216.692 213.074 217.31 214.302 217.583L215.41 217.825C216.04 217.966 216.334 218.247 216.334 218.656C216.334 219.163 215.793 219.56 214.958 219.56C214.195 219.56 213.705 219.232 213.552 218.588L212.32 218.776C212.533 219.935 213.496 220.587 214.966 220.587C216.547 220.587 217.643 219.747 217.643 218.563C217.643 217.638 217.055 217.067 215.853 216.79L214.813 216.551C214.093 216.381 213.782 216.138 213.786 215.695C213.782 215.192 214.327 214.834 215.052 214.834C215.844 214.834 216.211 215.273 216.36 215.712L217.515 215.507ZM219.044 222.909H220.318V219.436H220.394C220.625 219.854 221.093 220.583 222.286 220.583C223.872 220.583 225.022 219.313 225.022 217.195C225.022 215.073 223.855 213.824 222.274 213.824C221.059 213.824 220.62 214.565 220.394 214.97H220.288V213.909H219.044V222.909ZM220.292 217.182C220.292 215.814 220.889 214.906 222.001 214.906C223.156 214.906 223.735 215.882 223.735 217.182C223.735 218.494 223.139 219.496 222.001 219.496C220.906 219.496 220.292 218.558 220.292 217.182ZM229.271 220.587C230.698 220.587 231.708 219.884 231.998 218.818L230.792 218.601C230.562 219.219 230.008 219.534 229.284 219.534C228.193 219.534 227.46 218.827 227.426 217.565H232.079V217.114C232.079 214.749 230.664 213.824 229.181 213.824C227.357 213.824 226.156 215.213 226.156 217.225C226.156 219.257 227.34 220.587 229.271 220.587ZM227.43 216.611C227.481 215.682 228.154 214.877 229.19 214.877C230.178 214.877 230.826 215.61 230.83 216.611H227.43ZM233.493 220.455H234.767V216.458C234.767 215.601 235.427 214.983 236.331 214.983C236.595 214.983 236.893 215.03 236.996 215.06V213.841C236.868 213.824 236.616 213.811 236.454 213.811C235.687 213.811 235.031 214.246 234.792 214.949H234.724V213.909H233.493V220.455ZM242.245 217.74C242.249 218.852 241.422 219.381 240.706 219.381C239.918 219.381 239.372 218.81 239.372 217.919V213.909H238.098V218.073C238.098 219.696 238.989 220.54 240.246 220.54C241.23 220.54 241.899 220.02 242.202 219.321H242.27V220.455H243.523V213.909H242.245V217.74ZM245.235 213.909V220.872C245.235 221.477 244.984 221.81 244.378 221.81H244.174V222.905C244.263 222.909 244.344 222.909 244.434 222.909C245.789 222.909 246.509 222.193 246.509 220.881V213.909H245.235ZM245.866 212.899C246.305 212.899 246.671 212.558 246.671 212.141C246.671 211.723 246.305 211.378 245.866 211.378C245.422 211.378 245.06 211.723 245.06 212.141C245.06 212.558 245.422 212.899 245.866 212.899ZM252.37 217.74C252.374 218.852 251.547 219.381 250.831 219.381C250.043 219.381 249.497 218.81 249.497 217.919V213.909H248.223V218.073C248.223 219.696 249.114 220.54 250.371 220.54C251.355 220.54 252.024 220.02 252.327 219.321H252.395V220.455H253.648V213.909H252.37V217.74ZM250.418 213.036H251.436L252.757 211.071H251.415L250.418 213.036ZM258.117 220.587C259.664 220.587 260.665 219.658 260.806 218.384H259.566C259.404 219.091 258.854 219.509 258.126 219.509C257.047 219.509 256.353 218.61 256.353 217.182C256.353 215.78 257.06 214.898 258.126 214.898C258.935 214.898 259.43 215.409 259.566 216.023H260.806C260.67 214.702 259.591 213.824 258.104 213.824C256.259 213.824 255.066 215.213 255.066 217.212C255.066 219.185 256.216 220.587 258.117 220.587ZM262.169 220.455H263.443V213.909H262.169V220.455ZM262.812 212.899C263.251 212.899 263.617 212.558 263.617 212.141C263.617 211.723 263.251 211.378 262.812 211.378C262.369 211.378 262.007 211.723 262.007 212.141C262.007 212.558 262.369 212.899 262.812 212.899ZM268.333 222.909H269.607V219.436H269.683C269.914 219.854 270.382 220.583 271.576 220.583C273.161 220.583 274.311 219.313 274.311 217.195C274.311 215.073 273.144 213.824 271.563 213.824C270.348 213.824 269.909 214.565 269.683 214.97H269.577V213.909H268.333V222.909ZM269.581 217.182C269.581 215.814 270.178 214.906 271.29 214.906C272.445 214.906 273.024 215.882 273.024 217.182C273.024 218.494 272.428 219.496 271.29 219.496C270.195 219.496 269.581 218.558 269.581 217.182ZM275.739 220.455H277.013V216.458C277.013 215.601 277.674 214.983 278.577 214.983C278.841 214.983 279.139 215.03 279.242 215.06V213.841C279.114 213.824 278.862 213.811 278.701 213.811C277.933 213.811 277.277 214.246 277.039 214.949H276.97V213.909H275.739V220.455ZM282.867 220.587C284.712 220.587 285.918 219.236 285.918 217.212C285.918 215.175 284.712 213.824 282.867 213.824C281.022 213.824 279.816 215.175 279.816 217.212C279.816 219.236 281.022 220.587 282.867 220.587ZM282.871 219.517C281.665 219.517 281.103 218.465 281.103 217.208C281.103 215.955 281.665 214.889 282.871 214.889C284.069 214.889 284.631 215.955 284.631 217.208C284.631 218.465 284.069 219.517 282.871 219.517ZM289.791 220.583C290.984 220.583 291.453 219.854 291.683 219.436H291.789V220.455H293.034V211.727H291.759V214.97H291.683C291.453 214.565 291.018 213.824 289.799 213.824C288.218 213.824 287.055 215.073 287.055 217.195C287.055 219.313 288.201 220.583 289.791 220.583ZM290.072 219.496C288.934 219.496 288.342 218.494 288.342 217.182C288.342 215.882 288.921 214.906 290.072 214.906C291.184 214.906 291.781 215.814 291.781 217.182C291.781 218.558 291.171 219.496 290.072 219.496ZM298.998 217.74C299.003 218.852 298.176 219.381 297.46 219.381C296.672 219.381 296.126 218.81 296.126 217.919V213.909H294.852V218.073C294.852 219.696 295.743 220.54 297 220.54C297.984 220.54 298.653 220.02 298.956 219.321H299.024V220.455H300.277V213.909H298.998V217.74ZM301.989 220.455H303.263V218.132L303.898 217.497L306.122 220.455H307.686L304.857 216.717L307.507 213.909H305.982L303.374 216.679H303.263V211.727H301.989V220.455ZM311.724 213.909H310.382V212.341H309.107V213.909H308.149V214.932H309.107V218.797C309.103 219.986 310.011 220.561 311.017 220.54C311.421 220.536 311.694 220.459 311.843 220.404L311.613 219.351C311.528 219.368 311.37 219.406 311.166 219.406C310.752 219.406 310.382 219.27 310.382 218.533V214.932H311.724V213.909Z" fill="#98999A"/>
<path d="M144.821 93.4033C144.821 87.1866 149.467 82.0552 155.477 81.2928C154.969 81.2283 154.451 81.195 153.925 81.195C147.183 81.195 141.717 86.6609 141.717 93.4033C141.717 100.146 147.183 105.612 153.925 105.612C154.451 105.612 154.969 105.578 155.477 105.514C149.467 104.751 144.821 99.6201 144.821 93.4033Z" fill="#E6E6E6"/>
<path d="M153.925 106.646C150.388 106.646 147.062 105.269 144.561 102.768C142.06 100.266 140.682 96.9406 140.682 93.4033C140.682 89.866 142.06 86.5405 144.561 84.0392C147.062 81.538 150.388 80.1604 153.925 80.1604C157.462 80.1604 160.788 81.538 163.289 84.0392C165.791 86.5405 167.168 89.866 167.168 93.4033C167.168 96.9406 165.791 100.266 163.289 102.768C160.788 105.269 157.462 106.646 153.925 106.646V106.646ZM153.925 82.2296C147.764 82.2296 142.751 87.2421 142.751 93.4033C142.751 99.5645 147.764 104.577 153.925 104.577C160.086 104.577 165.099 99.5645 165.099 93.4033C165.099 87.2421 160.086 82.2296 153.925 82.2296Z" fill="#E6E6E6"/>
<path d="M157.95 88.8834C157.126 88.4146 156.148 88.424 155.334 88.9079L151.402 91.2443C151.111 91.4175 150.863 91.6395 150.666 91.8964V89.5236C150.666 88.9522 150.203 88.489 149.632 88.489C149.06 88.489 148.597 88.9522 148.597 89.5236V97.3348C148.597 97.9062 149.06 98.3694 149.632 98.3694C150.203 98.3694 150.666 97.9062 150.666 97.3348V95.0138C150.863 95.2706 151.111 95.4927 151.402 95.6659L155.334 98.0022H155.334C155.748 98.2485 156.205 98.3719 156.662 98.3719C157.104 98.3719 157.545 98.2569 157.95 98.0268C158.766 97.5623 159.254 96.7267 159.254 95.7915V91.1187C159.254 90.1835 158.766 89.3479 157.95 88.8834V88.8834ZM157.184 95.7915C157.184 96.044 157.023 96.1736 156.927 96.2283C156.846 96.2744 156.631 96.3662 156.391 96.2234H156.391L152.46 93.887C152.243 93.7581 152.21 93.561 152.21 93.455C152.21 93.349 152.243 93.152 152.46 93.023L156.391 90.6866C156.631 90.5438 156.846 90.6356 156.927 90.6817C157.023 90.7365 157.184 90.866 157.184 91.1186V95.7915Z" fill="#E6E6E6"/>
<circle cx="153.932" cy="31.9249" r="13.2493" fill="#D3D3D3" fill-opacity="0.23"/>
<path d="M148.296 28.6518C148.296 28.6518 148.205 25.1672 153.462 24.9227C158.017 24.7087 158.628 26.6038 159.025 27.8876C159.423 29.1714 153.89 32.656 153.89 32.656L148.296 28.6518Z" fill="#4E4C82"/>
<path d="M151.11 40.267L150.835 33.2673L155.328 33.0839L155.603 39.8391C155.664 41.0923 154.686 41.6425 153.433 41.7037C152.18 41.7342 151.14 41.4897 151.11 40.267Z" fill="#FCD2B1"/>
<path d="M150.833 34.0315C150.833 34.0315 150.191 38.1885 155.571 39.1972L155.418 35.9877L150.833 34.0315Z" fill="#FCD2B1"/>
<path d="M156.733 25.9008C155.113 25.9314 159.912 25.8397 159.086 30.9137L157.497 28.7435L156.733 25.9008Z" fill="#34334B"/>
<path d="M154.715 37.7912C157.13 37.6689 159.025 36.1406 158.903 33.7258L158.658 28.9269C158.597 27.8876 157.711 27.0623 156.671 27.1235L151.72 27.368C150.68 27.4291 149.855 28.3156 149.916 29.3548L150.1 33.4813C150.253 35.8655 152.698 37.8829 154.715 37.7912Z" fill="#FCD2B1"/>
<path d="M150.405 32.1058C150.405 32.1058 152.79 30.5163 151.75 27.3374L149.305 27.4597C149.305 27.4597 148.938 26.9095 148.449 27.6737C147.96 28.4073 149.091 31.8918 149.091 31.8918L150.405 32.1058Z" fill="#34334B"/>
<path d="M151.078 30.3635L151.964 27.9488C151.964 27.9488 157.802 28.6824 159.239 27.0318C160.614 25.4423 159.484 23.0581 158.322 22.8136C157.405 22.6302 156.427 23.4555 155.724 23.8529C155.021 24.2502 153.37 23.8834 152.851 23.8529C152.362 23.8223 150.191 23.3944 149.519 25.6563C149.519 25.6563 146.004 26.9706 149.641 32.9005C149.672 32.9005 151.108 32.0141 151.078 30.3635Z" fill="#34334B"/>
<path d="M151.628 30.0273C151.628 30.0273 151.475 33.2368 152.178 34.1538C152.881 35.0708 153.279 34.1232 155.816 33.7259C158.353 33.3285 158.994 34.49 158.994 34.49C158.994 34.49 158.872 37.7301 155.54 37.8829C152.942 38.0052 149.06 37.455 149.58 33.2979C150.069 29.1714 149.886 28.1016 149.886 28.1016L151.628 30.0273Z" fill="#34334B"/>
<circle cx="154.878" cy="155.841" r="13.2493" fill="#D3D3D3" fill-opacity="0.23"/>
<path d="M157.416 151.02C157.665 151.655 157.472 152.346 157.306 153.009C157.14 153.672 157.057 154.418 157.499 154.97C157.941 155.523 158.77 155.716 159.35 156.186C159.903 156.628 160.207 157.319 160.096 157.954C160.013 158.396 159.765 158.866 160.041 159.252C160.179 159.446 160.428 159.556 160.676 159.667C161.201 159.888 161.754 160.081 162.251 160.358C162.748 160.634 163.19 160.993 163.411 161.49C163.715 162.153 163.494 162.899 163.218 163.562C162.969 164.225 162.61 164.916 161.92 165.248C161.395 165.496 160.759 165.496 160.151 165.441C158.383 165.303 156.643 164.888 155.013 164.225C153.991 163.811 152.996 163.258 152.36 162.457C151.366 161.186 151.476 159.529 151.753 158.037C151.918 157.208 152.139 156.352 152.803 155.716C153.438 155.108 154.405 154.777 155.372 154.749C156.339 154.694 156.477 150.743 157.416 151.02Z" fill="#FF8C4A"/>
<path d="M149.46 155.606C148.659 154.473 148.327 153.092 148.548 151.765C148.797 150.467 149.598 149.251 150.758 148.45" fill="#FF8C4A"/>
<path d="M154.074 160.744C154.018 160.247 154.433 158.285 154.433 158.285C154.433 158.285 156.56 158.285 156.836 156.49C157.113 154.694 157.361 150.522 157.361 150.522L153.659 148.533L149.653 150.937L149.018 159.998L154.074 160.744Z" fill="#FCD2B1"/>
<path d="M154.433 158.285C154.433 158.285 153.024 158.175 151.725 157.236C151.725 157.236 152.223 158.617 154.35 158.728L154.433 158.285Z" fill="#FCD2B1"/>
<path d="M157.886 151.517C157.886 151.517 158.494 148.671 153.908 147.732C149.322 146.82 148.797 151.627 148.797 151.627L151.366 151.434L152.029 150.246L152.001 151.434L153.908 151.489L153.88 150.605L154.35 151.351L157.886 151.517Z" fill="#FF8C4A"/>
<path d="M156.464 215.728L145.351 212.239C147.18 206.393 153.333 202.938 159.281 204.418C165.484 205.959 169.313 212.332 167.773 218.536C166.233 224.739 159.859 228.569 153.656 227.028C152.371 226.713 151.154 226.177 150.048 225.446L156.464 215.728Z" fill="#D3D3D3" fill-opacity="0.23"/>
<path d="M153.571 216.868L147.027 226.858C144.866 225.445 143.223 223.361 142.338 220.935C141.462 218.502 141.394 215.855 142.151 213.379L153.571 216.868Z" fill="#4E4C82" fill-opacity="0.5"/>
<path d="M327.316 49.8583L327.172 49.9172L327.168 49.918L324.065 51.218L323.067 51.6339L323.062 51.6347L320.779 52.5935L318.975 53.3481L313.437 55.6628L307.89 41.7434L310.418 40.7318L310.422 40.7309L318.858 37.3734L321.809 36.1961L323.639 40.7816L324.267 42.3582L325.029 44.2333L325.792 46.1129L326.944 48.948L327.316 49.8583Z" fill="#FF8C4A"/>
<path d="M309.748 39.0452L318.184 35.6809L319.53 39.0552L311.094 42.4195L309.748 39.0452Z" fill="#4E4C82"/>
<path d="M336.347 45.0456L335.274 59.9943L320.325 58.9216L320.437 57.3975L320.78 52.5935L321.398 43.9729L324.119 44.1674L325.029 44.2332L333.178 44.8192L336.347 45.0456Z" fill="#FF8C4A"/>
<path d="M333.307 43.0087L333.178 44.8192L333.045 46.6306L325.792 46.1129L323.986 45.9834L324.119 44.1674L324.248 42.3568L324.267 42.3582L331.564 42.8825L333.307 43.0087Z" fill="#4E4C82"/>
<path opacity="0.1" d="M324.267 42.3582L324.248 42.3568L324.119 44.1674L321.398 43.9729L320.78 52.5935L318.975 53.3481L319.401 47.4289L319.425 47.0497L319.424 47.045L319.711 43.0968L319.766 42.3422L319.767 42.3227L319.801 42.3263L321.008 42.4121L322.483 42.518L322.612 40.7075L323.639 40.7816L324.267 42.3582Z" fill="#FF8C4A"/>
<path d="M323.556 49.5336L323.655 48.591L333.942 49.669L333.844 50.6116L323.556 49.5336Z" fill="white"/>
<path d="M326.949 52.5302L327.07 51.5913L331.007 52.0997L330.886 53.0386L326.949 52.5302Z" fill="white"/>
<path d="M323.015 52.0231L323.137 51.0842L325.105 51.3384L324.984 52.2773L323.015 52.0231Z" fill="white"/>
<path d="M322.596 54.9918L322.694 54.0492L332.982 55.1272L332.883 56.0698L322.596 54.9918Z" fill="white"/>
<path d="M319.439 42.5817L320.831 41.8873L321.161 42.6536L319.769 43.348L319.439 42.5817Z" fill="white"/>
<path d="M311.864 46.0274L318.168 43.0784L318.488 43.7768L312.184 46.7258L311.864 46.0274Z" fill="white"/>
<path d="M316.503 47.7633L319.247 46.4906L319.556 47.2286L316.812 48.5013L316.503 47.7633Z" fill="white"/>
<path d="M313.373 49.0797L315.669 48.0058L315.978 48.7529L313.683 49.8268L313.373 49.0797Z" fill="white"/>
<path d="M106.058 320.536C119.003 316.226 126.003 302.237 121.693 289.292C117.382 276.346 103.393 269.346 90.4481 273.657C77.5027 277.967 70.5028 291.956 74.8134 304.901C79.1239 317.847 93.1126 324.847 106.058 320.536Z" fill="#EB8245"/>
<path d="M87.8271 300.636C88.777 299.89 89.702 299.636 90.6019 299.876C91.5033 300.103 92.416 300.806 93.3401 301.982C94.2742 303.171 94.7526 304.24 94.7754 305.188C94.7933 306.131 94.3304 306.972 93.3867 307.714L90.9521 309.626L89.9345 308.137L86.5617 303.843L85.3924 302.549L87.8271 300.636ZM92.3637 306.411C92.6972 306.149 92.9046 305.87 92.9859 305.572C93.0623 305.267 93.013 304.92 92.8378 304.528C92.6688 304.132 92.3645 303.654 91.9247 303.094C91.4651 302.509 91.0677 302.094 90.7325 301.848C90.4036 301.598 90.0922 301.487 89.7984 301.514C89.5059 301.53 89.1898 301.672 88.85 301.938L87.8686 302.709L91.3823 307.182L92.3637 306.411ZM102.378 300.65L100.727 301.947L99.3981 300.702L99.3833 300.684L96.9823 302.6L97.8772 304.186L96.4145 305.335L95.765 303.556L93.5899 298.398L92.7611 296.76L94.8466 295.122L96.2416 296.315L100.804 299.598L102.378 300.65ZM97.9902 299.687L94.7594 297.342L96.3179 301.016L97.9902 299.687ZM102.807 291.035L102.726 291.145L101.787 291.699L100.919 292.381L104.381 296.788L105.587 298.129L104.04 299.345L103.022 297.856L99.5604 293.449L98.6922 294.131L97.9319 294.911L97.8058 294.964L96.9608 293.461L101.547 289.859L102.807 291.035ZM113.207 292.144L111.555 293.441L110.226 292.196L110.211 292.178L107.81 294.094L108.705 295.68L107.243 296.829L106.593 295.05L104.418 289.892L103.589 288.254L105.675 286.616L107.07 287.809L111.632 291.092L113.207 292.144ZM108.818 291.181L105.588 288.836L107.146 292.51L108.818 291.181Z" fill="white"/>
<path d="M466.298 315.943C479.942 315.943 491.003 304.883 491.003 291.239C491.003 277.594 479.942 266.534 466.298 266.534C452.654 266.534 441.593 277.594 441.593 291.239C441.593 304.883 452.654 315.943 466.298 315.943Z" fill="#4E4C82"/>
<path d="M455.13 291.414C455.594 291.598 455.958 291.862 456.222 292.206C456.486 292.55 456.618 292.958 456.618 293.43C456.618 293.958 456.478 294.426 456.198 294.834C455.918 295.242 455.53 295.562 455.034 295.794C454.546 296.018 453.998 296.13 453.39 296.13H450.03L450.15 294.33V288.87L450.03 287.13H453.402C453.946 287.13 454.418 287.242 454.818 287.466C455.226 287.682 455.538 287.99 455.754 288.39C455.97 288.782 456.078 289.238 456.078 289.758C456.078 290.118 455.994 290.438 455.826 290.718C455.666 290.998 455.434 291.23 455.13 291.414ZM451.878 288.786V290.67H453.018C453.458 290.67 453.778 290.598 453.978 290.454C454.178 290.302 454.278 290.07 454.278 289.758C454.278 289.43 454.178 289.186 453.978 289.026C453.778 288.866 453.466 288.786 453.042 288.786H451.878ZM453.39 294.474C453.846 294.474 454.198 294.382 454.446 294.198C454.694 294.014 454.818 293.758 454.818 293.43C454.818 293.078 454.698 292.806 454.458 292.614C454.226 292.422 453.878 292.326 453.414 292.326H451.878V294.474H453.39ZM457.85 294.33V288.87L457.73 287.13H459.698L459.578 288.87V294.33L459.698 296.13H457.73L457.85 294.33ZM460.84 294.726L464.56 288.786H462.1L461.02 288.93L460.888 288.894L461.164 287.13H466.96L466.78 288.342L462.988 294.474H467.152L466.888 296.13H460.84V294.726ZM474.675 294.33L474.795 296.13H472.071L469.779 289.026V294.33L469.899 296.13H468.171L468.291 294.33V288.87L468.171 287.13H470.907L473.187 294.198V288.87L473.067 287.13H474.795L474.675 288.87V294.33ZM476.353 294.33V288.87L476.233 287.13H478.201L478.081 288.87V294.33L478.201 296.13H476.233L476.353 294.33ZM482.356 296.262C481.82 296.262 481.304 296.166 480.808 295.974C480.32 295.774 479.896 295.49 479.536 295.122L479.284 293.43L479.452 293.382C479.9 293.766 480.352 294.062 480.808 294.27C481.264 294.47 481.704 294.57 482.128 294.57C482.632 294.57 483.02 294.494 483.292 294.342C483.572 294.182 483.712 293.958 483.712 293.67C483.712 293.398 483.58 293.178 483.316 293.01C483.06 292.834 482.596 292.646 481.924 292.446C481.292 292.262 480.796 292.058 480.436 291.834C480.076 291.61 479.816 291.33 479.656 290.994C479.496 290.658 479.416 290.222 479.416 289.686C479.416 288.846 479.688 288.19 480.232 287.718C480.784 287.246 481.508 287.01 482.404 287.01C482.948 287.01 483.472 287.094 483.976 287.262C484.48 287.43 484.888 287.654 485.2 287.934L484.936 289.554L484.756 289.602C484.588 289.338 484.296 289.122 483.88 288.954C483.472 288.786 483.032 288.702 482.56 288.702C482.128 288.702 481.796 288.778 481.564 288.93C481.332 289.082 481.216 289.306 481.216 289.602C481.216 289.906 481.328 290.142 481.552 290.31C481.784 290.47 482.2 290.634 482.8 290.802C483.488 290.994 484.024 291.202 484.408 291.426C484.792 291.642 485.072 291.914 485.248 292.242C485.424 292.57 485.512 292.99 485.512 293.502C485.512 294.374 485.224 295.054 484.648 295.542C484.072 296.022 483.308 296.262 482.356 296.262Z" fill="white"/>
<path d="M331.047 293.046C331.267 306.671 342.52 317.537 356.181 317.317C369.841 317.097 380.736 305.874 380.515 292.249C380.294 278.625 369.042 267.759 355.381 267.979C341.721 268.199 330.826 279.422 331.047 293.046Z" fill="#4E4C82" fill-opacity="0.5"/>
<path d="M347.756 286.851L346.927 288.358L345.308 291.87C344.806 292.958 344.202 293.648 343.497 293.939C342.798 294.234 341.955 294.155 340.968 293.701C339.98 293.247 339.368 292.657 339.131 291.932C338.901 291.21 339.037 290.305 339.539 289.217L341.158 285.705L341.766 284.097L343.578 284.93L342.75 286.437L341.13 289.949C340.856 290.543 340.757 291.009 340.833 291.348C340.917 291.69 341.194 291.97 341.666 292.186C342.137 292.403 342.527 292.43 342.834 292.268C343.148 292.109 343.443 291.732 343.717 291.138L345.336 287.626L345.943 286.018L347.756 286.851ZM346.054 293.879L348.307 288.992L348.915 287.384L350.727 288.217L349.899 289.724L347.646 294.611L347.013 296.272L345.201 295.439L346.054 293.879ZM348.821 296.192L353.165 290.575L354.071 289.104L355.961 289.973L354.779 291.317L350.434 296.934L349.493 298.454L347.592 297.58L348.821 296.192ZM362.262 293.521L361.433 295.028L359.814 298.54C359.312 299.628 358.708 300.318 358.002 300.609C357.304 300.904 356.461 300.825 355.474 300.371C354.486 299.917 353.874 299.327 353.637 298.602C353.407 297.88 353.543 296.975 354.045 295.887L355.664 292.375L356.272 290.767L358.084 291.6L357.256 293.107L355.636 296.619C355.362 297.213 355.263 297.679 355.339 298.018C355.423 298.36 355.7 298.64 356.172 298.856C356.643 299.073 357.033 299.1 357.34 298.938C357.654 298.779 357.949 298.402 358.223 297.808L359.842 294.296L360.449 292.688L362.262 293.521ZM366.216 305.102L364.072 304.116L364.052 302.155L363.881 300.579L362.583 301.479L361.121 302.759L358.988 301.779L360.847 300.681L363.406 298.85L363.178 295.83L362.824 293.779L364.968 294.765L364.957 296.648L365.081 298.006L366.184 297.212L367.565 295.959L369.698 296.94L367.919 298.01L365.537 299.778L365.832 302.973L366.216 305.102Z" fill="white"/>
<path d="M22.7547 105.41C22.7547 105.41 20.1024 122.06 31.0905 120.546C31.0905 120.546 74.6644 110.708 76.9378 112.978C79.2113 115.249 93.3449 116.022 92.6076 106.45C91.8678 96.8455 77.6956 102.383 77.6956 102.383C77.6956 102.383 55.7192 105.41 51.1724 103.14C46.6256 100.869 33.7429 101.626 33.7429 101.626L22.7547 105.41Z" fill="#FCD2B1"/>
<path d="M56.0067 159.706L49.9647 216.957C49.9647 216.957 48.0702 239.661 42.3867 244.581C42.3867 244.581 42.3867 251.77 40.4922 254.041L37.8398 283.935C37.8398 283.935 41.6289 294.908 41.25 296.8C40.8711 298.692 42.7656 304.747 42.3867 305.504C42.0078 306.26 24.1993 305.504 24.1993 305.504L27.9884 244.581L39.7344 159.818L56.0067 159.706Z" fill="#34334B"/>
<path d="M22.8112 302.409C22.8112 302.409 14.8649 322.421 19.0108 324.836C23.1567 327.251 66.6886 325.526 66.6886 325.526C66.6886 325.526 73.9439 321.041 65.6521 317.935C65.6521 317.935 58.7423 317.59 54.2509 314.83C49.7596 312.07 44.5772 306.894 44.5772 306.894C44.5772 306.894 44.2317 299.303 41.4678 301.029C40.6409 301.573 39.937 302.283 39.4015 303.115C38.866 303.947 38.5107 304.882 38.3584 305.859L22.8112 302.409Z" fill="#34334B"/>
<path d="M10.5588 299.695C10.5588 299.695 1.84409 321.643 6.39091 324.291C10.9377 326.94 58.6795 325.048 58.6795 325.048C58.6795 325.048 66.6365 320.129 57.5428 316.723C57.5428 316.723 49.9648 316.345 45.039 313.318C40.1133 310.291 34.4298 304.614 34.4298 304.614C34.4298 304.614 34.0509 296.29 31.0197 298.182C30.1127 298.778 29.3408 299.558 28.7536 300.47C28.1663 301.383 27.7766 302.408 27.6095 303.479L10.5588 299.695Z" fill="#34334B"/>
<path d="M45.7969 158.929C45.7969 158.929 41.629 197.905 39.7344 206.23C38.5433 211.712 37.7831 217.279 37.461 222.879C37.461 222.879 37.0821 234.988 33.672 238.394C32.6742 239.38 31.8903 240.561 31.3688 241.863C30.8474 243.165 30.5995 244.56 30.6407 245.962C30.6407 245.962 27.2306 284.181 29.1251 288.721C31.0196 293.262 33.5915 299.162 31.697 302.189C29.8026 305.216 8.28544 303.101 8.28544 300.83C8.28544 298.56 8.28544 296.668 7.14873 295.533C6.01201 294.397 7.14873 287.208 7.14873 287.208C7.14873 287.208 2.60188 253.53 6.76983 243.692C10.9378 233.853 12.8323 206.986 12.8323 206.986C12.8323 206.986 9.80108 176.336 6.01203 171.416C2.22298 166.497 6.76983 149.091 6.76983 149.091L45.7969 158.929Z" fill="#34334B"/>
<path d="M35.1293 37.8933C35.5697 38.8954 36.6241 39.4534 37.584 39.9815C43.147 43.0423 47.8036 47.4798 52.3914 51.8663C51.2466 47.9919 51.4906 43.8402 53.0812 40.1262C53.629 38.8594 54.3468 37.4977 53.9553 36.1744C53.569 35.2284 52.8975 34.426 52.0339 33.8786C50.1619 32.4327 48.2052 31.0995 46.1744 29.8861C44.7557 29.0385 41.8388 26.7819 40.2108 27.0274C40.1253 29.2243 40.0807 31.1883 39.1174 33.2415C38.8889 33.7286 35.2976 38.2764 35.1293 37.8933Z" fill="#FCD2B1"/>
<path d="M54.5116 42.7593C63.0914 42.7593 70.0466 35.8132 70.0466 27.2448C70.0466 18.6763 63.0914 11.7302 54.5116 11.7302C45.9318 11.7302 38.9766 18.6763 38.9766 27.2448C38.9766 35.8132 45.9318 42.7593 54.5116 42.7593Z" fill="#FCD2B1"/>
<path d="M55.2694 63.9499C55.2694 63.9499 57.9217 50.7058 50.3437 46.1649C42.7656 41.6241 34.0508 36.3265 34.0508 36.3265C34.0508 36.3265 31.3985 35.9481 30.2618 41.6242C30.2618 41.6242 8.66429 45.7866 6.39086 66.2204C4.11744 86.6542 7.90649 116.548 7.90649 116.548C7.90649 116.548 4.49637 142.658 0.328443 156.659C0.328443 156.659 -3.08169 159.686 12.0745 155.145C27.2306 150.604 53.7538 168.011 53.7538 168.011C53.7538 168.011 56.4061 165.362 56.4061 163.47C56.4061 161.578 62.0896 104.061 63.2263 98.763C64.3631 93.4654 58.6795 64.7067 55.2694 63.9499Z" fill="#FF8C4A"/>
<path d="M50.8503 28.8431C51.7836 28.3265 52.8302 28.0482 53.8971 28.0327C54.9653 28.0168 56.0083 27.7064 56.911 27.1359C58.3785 26.0108 58.4862 23.8364 59.5597 22.3317C61.1139 20.1532 64.2145 19.891 66.8907 20C68.5276 20.0667 70.2904 20.1643 71.6688 19.2802C73.0838 18.3725 73.7252 16.6623 74.2024 15.0517C74.7666 13.1471 75.1316 10.818 73.7334 9.40543C72.7625 8.42457 71.2299 8.23055 70.1513 7.36914C69.5676 6.90291 61.8514 5.0308 54.6076 3.34749C51.0014 2.51078 47.2132 3.02263 43.9593 4.78627C40.7054 6.54991 38.2113 9.44308 36.9486 12.9187C35.276 17.5119 33.8425 21.8278 33.9905 22.7601C34.6986 27.2216 38.6495 30.7679 38.9217 35.2769C39.1812 34.0318 39.7461 32.8705 40.5657 31.8972C41.3854 30.9238 42.4341 30.1689 43.6179 29.7001C43.9147 29.5551 44.2518 29.5143 44.5747 29.5841C44.9672 29.7094 45.1967 30.1011 45.4444 30.4299C46.0934 31.2917 48.1324 32.5991 49.2881 31.9878C50.3222 31.4408 49.5502 29.7237 50.8503 28.8431Z" fill="#34334B"/>
<path d="M57.9544 110.411C57.6293 110.729 57.4432 111.163 57.4366 111.618C57.43 112.073 57.6034 112.512 57.9191 112.839L68.8431 124.131C69.0019 124.295 69.1919 124.426 69.4019 124.516C69.6119 124.606 69.8378 124.654 70.0664 124.656C70.295 124.658 70.5217 124.615 70.7334 124.529C70.9452 124.443 71.1376 124.316 71.2996 124.154L104.634 91.0087C104.816 90.8276 104.955 90.6082 105.041 90.3664C105.127 90.1247 105.158 89.8667 105.132 89.6115C105.106 89.3562 105.022 89.11 104.888 88.891C104.755 88.672 104.573 88.4856 104.358 88.3455L91.2504 79.8194C90.9226 79.604 90.5307 79.5074 90.1401 79.5458C89.7496 79.5842 89.3841 79.7552 89.1046 80.0304L57.9544 110.411Z" fill="#34334B"/>
<path d="M104.862 88.8491C104.796 88.9505 104.719 89.0447 104.633 89.1302L71.3779 122.902C71.2159 123.063 71.0235 123.191 70.8117 123.277C70.6 123.363 70.3733 123.406 70.1447 123.404C69.9161 123.402 69.6902 123.354 69.4802 123.264C69.2702 123.174 69.0802 123.043 68.9214 122.878L57.7622 111.117C57.6862 111.039 57.6179 110.953 57.5583 110.861C57.3721 111.179 57.306 111.554 57.3722 111.917C57.4383 112.28 57.6323 112.607 57.919 112.839L68.843 124.131C69.0018 124.295 69.1918 124.426 69.4018 124.516C69.6118 124.606 69.8377 124.654 70.0663 124.656C70.2949 124.658 70.5216 124.615 70.7334 124.529C70.9451 124.443 71.1375 124.316 71.2995 124.154L104.633 91.0087C104.914 90.7296 105.09 90.3626 105.131 89.9694C105.173 89.5761 105.078 89.1805 104.862 88.8491H104.862Z" fill="#4E4C82"/>
<path d="M101.776 89.2575L100.419 88.3938C100.562 88.6481 100.614 88.9432 100.568 89.231C100.521 89.5189 100.379 89.7825 100.163 89.9791C99.9474 90.1756 99.6714 90.2934 99.3802 90.3132C99.0889 90.3331 98.7994 90.2539 98.559 90.0885L89.7809 84.0616C89.5814 83.9248 89.4244 83.7348 89.3277 83.5132C89.231 83.2916 89.1987 83.0474 89.2343 82.8083C89.2699 82.5692 89.372 82.345 89.529 82.1611C89.6861 81.9771 89.8917 81.841 90.1224 81.7681L89.4236 81.3231C89.3329 81.2654 89.2251 81.2404 89.1182 81.2524C89.0114 81.2644 88.9119 81.3126 88.8363 81.389L59.3063 110.371C59.2622 110.415 59.2275 110.468 59.2042 110.526C59.1809 110.584 59.1695 110.646 59.1706 110.709C59.1717 110.772 59.1853 110.833 59.2107 110.891C59.236 110.948 59.2726 111 59.3182 111.043L70.0428 121.479C70.1317 121.562 70.2497 121.608 70.3719 121.606C70.4941 121.605 70.6108 121.556 70.6973 121.47L101.855 89.9862C101.905 89.9365 101.943 89.8763 101.966 89.8099C101.99 89.7436 101.998 89.6728 101.99 89.6029C101.983 89.5329 101.959 89.4656 101.922 89.4058C101.885 89.346 101.835 89.2954 101.776 89.2575V89.2575Z" fill="white"/>
<path d="M67.6936 103.971L76.7526 112.501L98.2993 91.2409L87.364 84.1328L67.6936 103.971Z" fill="#34334B"/>
<path d="M97.4621 96.4878C97.5218 96.5447 97.6012 96.5765 97.6838 96.5765C97.7664 96.5765 97.8458 96.5447 97.9055 96.4878L99.7898 94.606C99.8485 94.5473 99.8814 94.4677 99.8814 94.3847C99.8814 94.3017 99.8485 94.2221 99.7898 94.1633C99.73 94.1064 99.6507 94.0746 99.5681 94.0746C99.4855 94.0746 99.4061 94.1064 99.3464 94.1633L97.4621 96.0451C97.4034 96.1038 97.3705 96.1834 97.3705 96.2664C97.3705 96.3494 97.4034 96.429 97.4621 96.4878V96.4878Z" fill="#34334B"/>
<path d="M94.2878 99.6579C94.3467 99.7165 94.4264 99.7494 94.5095 99.7494C94.5926 99.7494 94.6723 99.7165 94.7312 99.6579L96.6155 97.776C96.674 97.7173 96.7067 97.6377 96.7066 97.5549C96.7065 97.472 96.6734 97.3926 96.6148 97.334C96.5561 97.2754 96.4766 97.2424 96.3936 97.2423C96.3106 97.2421 96.231 97.2749 96.1721 97.3333L94.2878 99.2151C94.2291 99.2738 94.1962 99.3535 94.1962 99.4365C94.1962 99.5195 94.2291 99.5991 94.2878 99.6579V99.6579Z" fill="#34334B"/>
<path d="M67.9028 113.406C69.0715 113.406 70.0189 112.46 70.0189 111.293C70.0189 110.126 69.0715 109.18 67.9028 109.18C66.734 109.18 65.7866 110.126 65.7866 111.293C65.7866 112.46 66.734 113.406 67.9028 113.406Z" fill="#4E4C82"/>
<path d="M11.6955 99.5199C11.6955 99.5199 9.04314 116.17 20.0313 114.656C20.0313 114.656 63.6052 104.817 65.8786 107.088C68.152 109.358 82.2857 110.131 81.5484 100.559C80.8086 90.9551 66.6364 96.4926 66.6364 96.4926C66.6364 96.4926 44.66 99.5198 40.1132 97.2494C35.5664 94.979 22.6837 95.7358 22.6837 95.7358L11.6955 99.5199Z" fill="#FCD2B1"/>
<path d="M27.2306 46.9218C27.2306 46.9218 10.1799 48.8138 10.1799 73.41V104.817L31.0196 96.1142C31.0196 96.1142 39.7344 75.6804 38.9766 70.0044C38.2188 64.3283 38.5977 47.6786 27.2306 46.9218Z" fill="#FF8C4A"/>
<path d="M500.38 79.9462C500.36 79.967 500.339 79.967 500.339 79.967C500.318 80.0086 500.279 80.0476 500.237 80.0891C497.705 82.2938 494.219 83.1908 493.855 83.6848C493.649 83.9682 492.955 84.5375 492.422 84.9691C492.056 85.2473 491.772 85.4579 491.772 85.4579L486.749 81.0303C486.749 81.0303 487.729 80.1308 488.385 79.0102C488.832 78.2797 489.12 77.4217 488.912 76.6833C488.444 75.0948 489.136 73.3217 489.302 72.5859C489.526 71.6058 489.627 68.447 490.358 68.6316C491.588 68.915 491.296 73.9743 491.442 75.0558C491.588 75.9346 493.868 73.5895 495.256 72.7108C495.256 72.7108 495.36 72.6302 495.542 72.508C495.703 72.4066 495.846 72.3468 495.968 72.326C496.296 72.261 496.969 72.6926 497.723 73.3659C497.767 73.4075 497.786 73.4465 497.827 73.4881C498.378 73.9769 498.948 74.6113 499.457 75.3002C499.478 75.321 499.478 75.3418 499.499 75.3652C499.988 76.036 500.419 76.7717 500.64 77.4633C500.664 77.4841 500.664 77.5231 500.682 77.5647C500.976 78.4591 500.95 79.317 500.38 79.9462Z" fill="#FCD2B1"/>
<path d="M495.269 72.7055C495.269 72.7055 503.442 66.4399 504.332 66.4763C505.229 66.5231 505.543 66.978 504.802 67.5994C504.061 68.2208 497.081 73.8807 497.081 73.8807C497.081 73.8807 507.997 68.0908 508.741 67.9608C509.17 67.8854 509.498 68.7121 509.131 69.0839C508.764 69.4505 498.604 75.8384 498.604 75.8384C498.604 75.8384 508.806 70.4515 509.456 70.5321C510.031 70.5971 510.436 71.5434 509.706 71.9906C508.98 72.443 499.787 77.9781 499.787 77.9781C499.787 77.9781 507.462 74.5307 507.974 74.9154C508.283 75.1546 508.728 75.6772 506.721 76.5091C504.716 77.3359 500.343 79.9825 500.343 79.9825L495.269 72.7055Z" fill="#FCD2B1"/>
<path d="M455.007 75.2037L451.852 67.8286C451.836 67.7776 451.819 67.7244 451.786 67.6734C449.56 62.3117 445.569 60.4846 442.578 59.9125L442.593 46.3397V40.7408C445.507 34.9799 447.038 27.8133 443.682 22.8551C445.408 22.895 448.876 23.2365 451.952 25.3098C455.173 27.4496 457.955 31.4853 457.776 39.0334C457.351 56.695 454.976 60.1586 457.793 71.6049C458.834 75.849 457.37 76.3679 455.007 75.2037Z" fill="#1A282B"/>
<path d="M384.494 305.276L384.473 305.297C384.45 305.622 384.392 305.931 384.291 306.17C383.839 307.257 383.493 308.622 383.168 310.151C381.943 315.883 381.106 323.657 377.435 325.105C372.784 326.959 365.153 326.714 364.158 325.105C363.341 323.774 368.094 316.64 369.825 314.147C369.825 314.147 369.805 314.147 369.825 314.126C370.197 313.598 370.421 313.294 370.421 313.294C375.724 307.642 375.847 302.341 375.477 299.746C375.334 298.706 375.111 298.095 375.111 298.095C375.111 298.095 377.009 297.196 379.151 297.136C379.64 297.115 380.149 297.136 380.638 297.216C381.231 297.318 381.782 297.708 382.273 298.298C382.312 298.319 382.312 298.34 382.331 298.358C382.349 298.376 382.375 298.399 382.39 298.438C383.781 300.178 384.658 303.357 384.494 305.276Z" fill="#34334B"/>
<path d="M382.33 298.339C382.33 298.339 382.33 298.34 382.33 298.36C382.31 298.42 382.289 298.503 382.25 298.625L382.229 298.652V298.667C382.229 298.688 382.229 298.688 382.229 298.688C382.026 299.424 381.579 301.218 381.189 304.116C380.659 308.255 379.086 315.171 376.66 317.558C374.234 319.944 368.257 319.107 368.034 318.192C367.932 317.786 368.79 316.151 369.825 314.149C369.825 314.149 369.804 314.149 369.825 314.128C371.135 311.581 372.724 308.437 372.968 306.521C373.314 303.932 374.05 301.28 374.541 299.645C374.84 298.649 375.069 298.014 375.069 298.014C376.127 296.873 377.721 296.832 379.148 297.136C380.656 297.445 381.985 298.137 382.271 298.298C382.31 298.319 382.33 298.339 382.33 298.339Z" fill="#FCD2B1"/>
<path d="M447.935 305.276V305.357C447.912 305.661 447.834 305.952 447.748 306.168C447.301 307.275 446.955 308.682 446.609 310.249C445.38 315.961 444.527 323.654 440.895 325.102C436.244 326.956 428.598 326.712 427.618 325.102C426.619 323.488 433.615 313.455 433.615 313.455L433.639 313.434C440.04 306.558 438.898 300.196 438.472 298.581C438.386 298.337 438.345 298.197 438.345 298.197L438.371 298.176C438.675 298.054 441.594 296.769 444.101 297.216C444.348 297.258 444.571 297.339 444.795 297.482C446.773 298.605 448.159 302.91 447.935 305.276Z" fill="#34334B"/>
<path d="M444.652 304.114C444.428 308.274 442.549 315.168 440.123 317.555C437.676 319.942 431.699 319.105 431.476 318.189C431.369 317.737 432.414 315.761 433.616 313.458L433.639 313.437C434.941 310.923 436.449 308.05 436.899 306.298C437.656 303.485 438.163 299.686 438.306 298.55C438.329 298.321 438.347 298.199 438.347 298.199L438.373 298.178C440.698 295.669 444.103 297.219 444.103 297.219C444.103 297.219 444.16 297.448 444.264 297.895C444.465 298.935 444.813 301.153 444.652 304.114Z" fill="#FCD2B1"/>
<path d="M411.829 122.337C411.748 127.622 411.644 132.7 411.584 136.906C411.54 139.431 411.504 141.633 411.483 143.37C411.46 143.572 411.46 143.775 411.46 143.96C411.439 145.574 409.809 146.63 408.34 146.042L401.12 143.086L400.608 142.878L398.816 142.143C398.816 142.143 400.166 133.09 401.447 122.482C402.794 122.644 403.611 122.727 403.611 122.727C403.569 122.61 403.53 122.443 403.509 122.22C404.448 122.261 405.854 122.3 407.344 122.321C408.142 122.342 408.958 122.363 409.751 122.363C410.482 122.358 411.194 122.358 411.829 122.337Z" fill="#34334B"/>
<path d="M411.766 206.871C411.665 207.196 411.54 207.542 411.421 207.867C410.175 211.377 401.523 231.596 401.523 247.073C401.523 257.519 386.082 292.976 382.391 298.441C382.372 298.399 382.349 298.381 382.331 298.36C382.331 298.34 382.331 298.34 382.331 298.34C382.331 298.34 382.31 298.319 382.274 298.298C381.785 297.708 381.231 297.318 380.638 297.216C380.149 297.136 379.64 297.115 379.151 297.136C377.721 296.832 376.13 296.871 375.072 298.015C375.072 298.015 374.843 298.649 374.544 299.645C374.544 299.645 383.927 255.153 383.638 252.912C383.355 250.689 389.413 227.046 389.842 220.781C389.982 218.597 390.554 212.763 391.326 205.73C396.386 206.097 403.793 206.481 411.766 206.871Z" fill="#FCD2B1"/>
<path d="M451.258 208.585C451.097 210.748 450.933 213.007 450.79 215.399C450.525 219.868 450.364 234.066 450.221 244.364C450.075 254.342 445.913 294.487 444.792 297.484C444.569 297.341 444.345 297.261 444.098 297.219C444.098 297.219 440.69 295.669 438.368 298.178L438.342 298.199C438.342 298.199 438.324 298.321 438.301 298.55C438.301 298.55 435.202 259.035 434.487 250.388C433.777 241.715 434.77 224.542 433.465 219.46C433.098 217.952 432.571 213.483 431.999 207.792C440.001 208.137 447.057 208.421 451.258 208.585Z" fill="#FCD2B1"/>
<path d="M427.15 113.055C428.309 121.216 429.716 129.801 430.899 136.636C424.391 136.678 417.153 136.802 411.582 136.906C411.639 132.702 411.743 127.625 411.826 122.337C411.192 122.358 410.479 122.358 409.744 122.358C410.399 121.52 411.114 120.647 411.865 119.81C412.562 118.993 413.292 118.201 414.07 117.423C414.252 117.22 414.457 117.038 414.663 116.833C416.542 115.016 418.601 113.38 420.783 112.197C421.31 111.872 421.864 111.607 422.413 111.386C423.819 110.752 425.288 110.326 426.76 110.157C426.903 110.157 427.025 110.141 427.147 110.141C427.859 110.099 428.551 110.099 429.266 110.157C430.407 110.284 431.572 110.567 432.732 111.061L427.183 112.957C427.168 112.993 427.168 113.014 427.15 113.055Z" fill="#313657"/>
<path d="M384.489 305.276V315.951H383.157V307.699L384.489 305.276Z" fill="#34334B"/>
<path d="M447.943 305.276V315.951H446.617V307.699L447.943 305.276Z" fill="#34334B"/>
<path d="M437.167 42.269C436.735 45.2485 436.145 50.43 436.431 54.634C436.473 55.4269 436.551 56.1835 436.676 56.8776C436.676 56.8984 436.676 56.8984 436.676 56.9192C436.696 57.0804 436.735 57.2442 436.756 57.408C436.878 57.8968 437.003 58.3674 437.141 58.7782L435.859 61.9162C435.591 61.9578 435.287 61.9968 434.983 62.0176C434.388 62.0384 433.753 62.0384 433.064 62.0176C432.308 61.976 431.494 61.8954 430.675 61.8148H430.657C430.576 61.794 430.496 61.794 430.413 61.7732C430.046 61.7316 429.656 61.6718 429.289 61.6302H429.269C426.697 61.2636 424.23 60.7306 422.883 60.4264H422.86C422.231 60.2834 421.841 60.1769 421.841 60.1769C421.841 60.1769 422.514 58.5884 423.351 56.2615C423.411 56.0587 423.494 55.8351 423.575 55.6063L424.126 53.9554V53.9346L424.144 53.9138C424.373 53.1832 424.618 52.4059 424.841 51.6077C424.901 51.4049 424.966 51.1813 425.002 50.9577C425.166 50.3624 425.312 49.7748 425.434 49.1795C425.488 48.8337 425.577 48.5087 425.634 48.1785C426.084 45.6696 426.209 43.283 425.634 41.5671C424.272 37.5295 431.102 38.4291 434.981 39.2454C436.468 39.5496 437.528 39.8538 437.528 39.8538C437.528 39.8538 437.37 40.8027 437.167 42.269Z" fill="#FCD2B1"/>
<path d="M436.756 57.4055C436.491 57.3847 436.288 57.3639 436.148 57.3457C436.026 57.3457 435.961 57.3457 435.961 57.3457L435.615 57.3249L434.986 57.2651L434.208 57.2053L433.782 57.1637L423.377 56.2641C423.377 56.2641 423.377 56.2641 423.357 56.2641C423.276 56.2849 423.008 56.3239 422.579 56.4071C422.418 56.4279 422.252 56.4669 422.049 56.5085C421.784 56.5501 421.479 56.6099 421.131 56.6697C418.136 57.2651 412.606 58.448 407.994 60.0365C403.262 61.6718 397.488 68.4861 394.508 72.3547C393.245 73.99 392.47 75.0923 392.47 75.0923C392.47 75.0923 394.912 80.8458 397.831 87.9252C399.669 92.4334 401.708 97.4719 403.421 101.899C403.421 101.899 403.421 101.899 403.421 101.92C403.748 102.757 404.053 103.53 404.339 104.307C405.503 107.39 406.442 110.04 406.931 111.771C407.196 112.71 407.357 113.791 407.44 115.016C407.458 115.037 407.458 115.076 407.458 115.096C407.523 115.894 407.542 116.726 407.542 117.605C407.542 119.092 407.458 120.689 407.336 122.316C408.134 122.337 408.951 122.358 409.744 122.358C410.479 122.358 411.192 122.358 411.826 122.337C411.746 127.622 411.642 132.7 411.582 136.907C417.153 136.805 424.391 136.678 430.899 136.636C429.716 129.801 428.309 121.214 427.15 113.055C427.168 113.014 427.168 112.996 427.189 112.954L432.737 111.059L434.411 110.484V107.814L426.315 106.876C425.561 101.143 425.007 95.9588 424.846 92.1656C424.521 84.639 426.866 76.5015 429.477 69.9342L431.741 71.9543L434.986 64.0585L435.862 61.9163L437.144 58.7782L437.677 57.4887C437.328 57.4471 437.001 57.4263 436.756 57.4055Z" fill="#F2F2F2"/>
<path d="M436.666 56.9088L421.839 68.993L423.37 56.2641C423.37 56.2641 432.012 54.4 436.666 56.9088Z" fill="#FCD2B1"/>
<path d="M434.408 107.814V110.484L432.734 111.059L427.186 112.954C427.165 112.996 427.165 113.014 427.147 113.055V112.954C427.085 112.528 427.022 112.117 426.962 111.709C426.939 111.548 426.921 111.384 426.903 111.241C426.843 110.911 426.801 110.586 426.76 110.255V110.154C426.596 109.036 426.455 107.955 426.31 106.873L434.408 107.814Z" fill="#494F80"/>
<path d="M437.838 57.486H437.676L437.144 58.7755L435.862 61.9136L434.986 64.0559L431.741 71.9517L429.477 69.9315C430.701 66.8897 431.988 64.1781 433.067 62.015C433.823 60.5071 434.494 59.2825 434.986 58.3856C435.025 58.3258 435.045 58.2842 435.087 58.2244V58.2036C435.105 58.2036 435.105 58.1828 435.105 58.1828C435.311 57.837 435.474 57.5484 435.615 57.3248C435.838 56.9401 435.961 56.7346 435.961 56.7346C436.148 56.7762 436.306 56.7945 436.494 56.836H436.514C436.574 56.8516 436.637 56.8517 436.676 56.8777C437.06 56.9531 437.453 57.0389 437.817 57.1429C437.817 57.2651 437.817 57.3846 437.838 57.486Z" fill="#494F80"/>
<path d="M422.538 56.7346C422.538 56.7346 420.538 61.2428 418.313 67.4851C415.56 75.1729 412.481 85.4553 412.318 93.1223C412.255 96.1433 412.172 100.384 412.094 105.201C412.05 107.892 412.013 110.747 411.948 113.687C411.948 114.134 411.948 114.582 411.928 115.034C411.907 116.056 411.907 117.096 411.886 118.112C411.886 118.133 411.886 118.133 411.886 118.159C411.865 118.687 411.865 119.256 411.865 119.81C411.844 120.668 411.824 121.5 411.824 122.339C411.189 122.36 410.477 122.36 409.741 122.36C408.948 122.36 408.132 122.34 407.334 122.319C405.847 122.298 404.44 122.259 403.499 122.217C403.52 122.441 403.559 122.607 403.6 122.724C403.6 122.724 402.784 122.644 401.437 122.48C401.663 120.566 401.89 118.565 402.113 116.583C402.131 116.36 402.155 116.115 402.17 115.892C402.355 114.319 402.519 112.749 402.659 111.194C402.906 108.771 403.109 106.405 403.255 104.182C403.314 103.405 403.377 102.653 403.416 101.918C403.416 101.897 403.416 101.897 403.416 101.897C403.559 99.5465 403.639 97.4068 403.639 95.5895L397.826 87.9225L389.933 77.4971C389.933 77.4971 391.625 75.2118 394.012 72.2922C397.54 67.9712 402.599 62.2593 405.883 60.6292C410.453 58.3439 418.716 56.836 421.305 56.4044L421.326 56.3837C421.836 56.3031 422.124 56.2615 422.124 56.2615L422.041 56.5058L421.88 56.953C422.02 56.8984 422.143 56.836 422.306 56.8152H422.327C422.395 56.7762 422.475 56.7502 422.538 56.7346Z" fill="#34334B"/>
<path d="M427.27 112.525C427.251 112.668 427.228 112.808 427.189 112.951C427.168 112.993 427.168 113.011 427.15 113.053C425.801 117.46 415.848 121.786 414.296 122.173C413.911 122.274 412.991 122.334 411.829 122.334C411.195 122.355 410.482 122.355 409.746 122.355C408.954 122.355 408.137 122.334 407.339 122.313C405.852 122.293 404.445 122.254 403.504 122.212C402.789 122.191 402.342 122.17 402.342 122.17V116.643H402.384C402.49 116.602 402.914 116.461 403.546 116.238C404.445 115.949 405.789 115.523 407.383 115.034C407.401 115.034 407.427 115.013 407.443 115.013C408.319 114.748 409.299 114.464 410.298 114.155C410.849 114.012 411.397 113.851 411.951 113.687C415.542 112.707 419.441 111.748 422.416 111.381C422.886 111.3 423.315 111.259 423.721 111.238C424.924 111.137 425.884 111.191 426.495 111.42C426.677 111.501 426.843 111.581 426.965 111.703C427.21 111.896 427.332 112.156 427.27 112.525Z" fill="#FCD2B1"/>
<path d="M434.409 107.814L429.271 110.154L426.905 111.241L426.495 111.425L414.665 116.833L411.889 118.112L411.423 118.315L407.461 115.096L407.383 115.034L402.667 111.196L392.47 102.919L403.262 104.182L404.341 104.304L407.747 104.692L412.094 105.204L426.313 106.876L434.409 107.814Z" fill="#F7F7F7"/>
<path d="M434.409 107.814V110.484L432.737 111.059L427.189 112.951H427.15L414.072 117.421L411.888 118.156L411.423 118.315L410.646 115.442L411.93 115.034L420.785 112.195L423.721 111.241L426.762 110.255L427.15 110.138L434.409 107.814Z" fill="#D3D3D3"/>
<path d="M424.141 53.9113L416.178 66.5622L412.32 68.9931L421.308 56.4019L424.141 53.9113Z" fill="#F2F2F2"/>
<path d="M416.178 66.5622L421.838 68.9931L423.37 56.2641L424.142 53.9113L416.178 66.5622Z" fill="#D6C5BE"/>
<path d="M403.507 122.215C403.528 122.438 403.567 122.605 403.608 122.722C403.608 122.722 402.792 122.641 401.445 122.477C395.185 121.768 377.316 119.5 375.335 116.521C374.152 114.73 373.559 112.788 373.294 111.261V111.241C372.99 109.647 373.013 108.503 373.013 108.503L402.181 115.892L403.549 116.238L403.608 116.258C403.608 116.258 403.585 116.482 403.567 116.867C403.483 118.096 403.322 120.889 403.507 122.215Z" fill="#34334B"/>
<path d="M411.423 118.325L399.183 72.8486L352.677 67.9375L365.424 109.8L411.423 118.325Z" fill="#D3D3D3"/>
<path d="M493.506 86.5524C493.506 86.5524 480.657 97.8566 473.825 104.549C473.825 104.549 465.908 113.074 463.522 113.074C463.418 113.074 463.319 113.053 463.236 113.014C461.481 112.257 455.486 103.756 450.265 94.9006C450.021 95.5922 449.732 96.4085 449.449 97.308C449.183 98.0854 448.921 98.9381 448.632 99.8559C447.92 102.222 447.145 104.933 446.448 107.814C444.41 116.279 454.713 142.735 454.713 142.735L452.345 143.534L451.978 143.656L437.31 148.637C435.17 149.347 432.862 148.003 432.474 145.759C432.396 145.252 432.295 144.698 432.193 144.108C432.11 143.677 432.048 143.25 431.967 142.777C431.946 142.676 431.926 142.553 431.907 142.452C431.764 141.659 431.603 140.78 431.46 139.883C431.374 139.493 431.315 139.106 431.255 138.7C431.13 138.024 431.029 137.348 430.906 136.639C429.724 129.804 428.317 121.216 427.157 113.058C427.176 113.016 427.176 112.998 427.196 112.957L432.745 111.061L434.419 110.487V107.817L426.323 106.878C425.569 101.145 425.015 95.9613 424.854 92.1681C424.529 84.6415 426.874 76.504 429.484 69.9367L431.749 71.9568L434.993 64.0611L435.87 61.9188L437.151 58.7807L437.684 57.4912H437.845C437.825 57.3898 437.825 57.2676 437.825 57.1454C437.825 57.1454 439.928 56.8568 442.702 57.3898C446.451 58.0606 451.453 60.2028 454.243 66.4893C454.287 66.5491 454.305 66.6115 454.326 66.6713L458.28 75.3185L465.074 90.1714C465.074 90.1714 467.013 93.559 467.991 94.5782C467.991 94.5782 470.44 93.1873 471.706 92.3293C474.048 90.4158 475.419 89.6983 478.232 87.2778C482.599 83.521 488.21 78.7477 488.21 78.7477L488.392 79.0128C487.737 80.136 486.757 81.0329 486.757 81.0329L491.78 85.4605C491.78 85.4605 492.063 85.2525 492.43 84.9717L493.506 86.5524Z" fill="#34334B"/>
<path d="M492.424 84.9691C492.058 85.2473 491.774 85.4579 491.774 85.4579L486.751 81.0304C486.751 81.0304 487.732 80.1308 488.387 79.0103L492.424 84.9691Z" fill="#34334B"/>
<path d="M439.182 40.2125C438.53 40.9639 437.859 41.6399 437.167 42.269C436.005 43.309 434.796 44.2085 433.572 44.9443C433.572 44.9443 433.572 44.9651 433.535 44.9859C433.491 45.0067 433.45 45.0275 433.39 45.0613C432.433 45.6359 431.474 46.1272 430.533 46.5328C430.452 46.5926 430.371 46.6134 430.288 46.6342C429.724 46.8682 429.16 47.0814 428.632 47.2686C428.177 47.4298 427.732 47.5779 427.29 47.7105C426.651 47.9081 426.134 48.0511 425.858 48.1213C425.715 48.1681 425.632 48.1811 425.632 48.1811C422.736 48.8571 420.37 48.9377 419.205 48.8363C416.108 48.5477 414.27 39.4118 414.27 39.4118C414.27 39.4118 411.681 38.5954 411.086 38.1274C410.495 37.6595 413.862 29.8859 413.329 27.0469C412.801 24.213 412.801 20.685 412.801 20.685C413.004 19.827 413.269 19.0133 413.558 18.2567C417.723 22.4815 431.393 36.0294 439.182 40.2125Z" fill="#FCD2B1"/>
<path d="M426.128 66.9417L421.839 68.993L436.398 54.5612L426.128 66.9417Z" fill="#D6C5BE"/>
<path d="M437.817 57.1428L437.674 57.486L437.141 58.7781L435.859 61.9162L434.983 64.0584L431.738 71.9542L429.474 69.9341L426.128 66.9365L429.757 62.5453L429.778 62.5245L430.412 61.7732L434.206 57.2026L434.983 56.2641L435.001 56.2433L436.39 54.5663L436.431 54.6339L437.817 57.1428Z" fill="#F2F2F2"/>
<path d="M433.582 44.9443C433.514 45.0509 431.286 48.5139 425.012 50.9655C425.163 50.3702 425.304 49.7722 425.431 49.1768C425.499 48.8414 425.569 48.5061 425.629 48.1707C425.629 48.1733 430.818 46.9046 433.582 44.9443Z" fill="#A77860"/>
<path d="M383.472 97.5751C384.792 96.8738 384.813 94.3316 383.519 91.897C382.226 89.4624 380.107 88.0574 378.787 88.7587C377.467 89.46 377.446 92.0022 378.739 94.4367C380.033 96.8713 382.152 98.2764 383.472 97.5751Z" fill="#F7F7F7"/>
<path d="M455.319 208.746C455.319 208.746 453.832 208.686 451.258 208.585C447.057 208.423 440.001 208.137 432.004 207.786C425.538 207.521 418.438 207.196 411.769 206.871C403.795 206.481 396.388 206.094 391.326 205.73C387.128 205.441 384.517 205.176 384.517 204.973C385.578 195.489 392.163 171.703 397.041 154.978C398.429 150.199 399.675 146.001 400.608 142.878L401.12 143.086L408.34 146.042C409.809 146.633 411.439 145.574 411.46 143.96C411.46 143.778 411.46 143.575 411.483 143.37C411.504 141.633 411.54 139.428 411.584 136.906C417.156 136.805 424.394 136.678 430.901 136.636C431.024 137.346 431.125 138.022 431.25 138.698C431.31 139.103 431.369 139.491 431.455 139.881C431.598 140.78 431.759 141.659 431.902 142.449C431.923 142.551 431.944 142.673 431.962 142.774C432.043 143.247 432.105 143.674 432.188 144.105C432.29 144.696 432.391 145.247 432.469 145.756C432.857 148 435.165 149.347 437.305 148.634L451.973 143.653L452.34 143.531C464.13 164.707 455.319 208.746 455.319 208.746Z" fill="#FF8C4A"/>
<path d="M442.712 34.9062C442.205 35.8864 441.654 36.8249 441.061 37.7037C440.466 38.598 439.834 39.4352 439.181 40.2125C431.392 36.0294 417.722 22.4815 413.562 18.2619C417.413 7.7975 427.37 6.81736 431.899 7.53232C438.037 8.55407 441.893 10.8783 444.077 13.9358C448.281 19.7491 446.365 28.1518 442.712 34.9062Z" fill="#072735"/>
<path d="M442.555 92.2013L442.501 94.1072L441.008 92.922L442.555 92.2013Z" fill="white"/>
<path d="M441.007 92.9237L442.554 92.203L436.829 79.9283L435.283 80.6494L441.007 92.9237Z" fill="#FF8C4A"/>
<path d="M442.523 93.3605L442.501 94.1072L441.918 93.6436L442.523 93.3605Z" fill="#FF8C4A"/>
<path d="M432.556 91.5243L434.101 92.2455L438.903 81.9519L437.357 81.2305L432.556 91.5243Z" fill="#4E4C82"/>
<path d="M437.597 80.7166L439.142 81.4377L439.53 80.6113L437.98 79.8901L437.597 80.7166Z" fill="#4E4C82"/>
<path d="M432.302 93.5595L432.705 93.7492L434.101 92.2455L432.556 91.5243L432.302 93.5595Z" fill="#FCD2B1"/>
<path d="M432.231 94.0354L432.387 94.1072L432.581 93.6898L432.426 93.6185L432.231 94.0354Z" fill="white"/>
<path d="M438.756 81.8815L437.503 81.2978L437.743 80.7847L438.995 81.3683L438.756 81.8815Z" fill="white"/>
<path d="M434.72 86.0431L436.648 81.9107C436.664 81.8766 436.695 81.8483 436.731 81.8356C436.766 81.8216 436.806 81.8242 436.842 81.8387L437.031 81.9279L437.155 81.6626L436.966 81.5739C436.861 81.5241 436.739 81.5191 436.628 81.5596C436.522 81.5996 436.432 81.6798 436.383 81.7861L434.455 85.9192L434.72 86.0431Z" fill="#FCD2B1"/>
<path d="M442.578 88.8596H432.208V87.1529H442.578V88.8596ZM441.728 88.0065C441.728 88.1254 441.824 88.2226 441.945 88.2226C442.063 88.2226 442.16 88.1254 442.16 88.0065C442.16 87.8873 442.063 87.7908 441.945 87.7908C441.824 87.7909 441.728 87.8873 441.728 88.0065Z" fill="#4E4C82"/>
<path d="M441.256 87.1529H441.308V87.5869H441.256V87.1529Z" fill="#FCD2B1"/>
<path d="M440.392 87.1529H440.444V87.5869H440.392V87.1529Z" fill="#FCD2B1"/>
<path d="M439.529 87.1529H439.578V87.5869H439.529V87.1529Z" fill="#FCD2B1"/>
<path d="M438.664 87.1529H438.716V87.5869H438.664V87.1529Z" fill="#FCD2B1"/>
<path d="M437.799 87.1529H437.853V87.5869H437.799V87.1529Z" fill="#FCD2B1"/>
<path d="M436.933 87.1529H436.986V87.5869H436.933V87.1529Z" fill="#FCD2B1"/>
<path d="M436.071 87.1529H436.123V87.5869H436.071V87.1529Z" fill="#FCD2B1"/>
<path d="M435.206 87.1529H435.258V87.5869H435.206V87.1529Z" fill="#FCD2B1"/>
<path d="M434.343 87.1529H434.395V87.5869H434.343V87.1529Z" fill="#FCD2B1"/>
<path d="M433.479 87.1529H433.531V87.5869H433.479V87.1529Z" fill="#FCD2B1"/>
<path d="M432.615 87.1529H432.667V87.5869H432.615V87.1529Z" fill="#FCD2B1"/>
<path d="M433.053 87.1529H433.096V87.3705H433.053V87.1529Z" fill="#FCD2B1"/>
<path d="M433.915 87.1529H433.956V87.3705H433.915V87.1529Z" fill="#FCD2B1"/>
<path d="M434.778 87.1529H434.821V87.3705H434.778V87.1529Z" fill="#FCD2B1"/>
<path d="M435.642 87.1529H435.683V87.3705H435.642V87.1529Z" fill="#FCD2B1"/>
<path d="M436.508 87.1529H436.552V87.3705H436.508V87.1529Z" fill="#FCD2B1"/>
<path d="M437.372 87.1529H437.416V87.3705H437.372V87.1529Z" fill="#FCD2B1"/>
<path d="M438.236 87.1529H438.28V87.3705H438.236V87.1529Z" fill="#FCD2B1"/>
<path d="M439.099 87.1529H439.143V87.3705H439.099V87.1529Z" fill="#FCD2B1"/>
<path d="M439.963 87.1529H440.007V87.3705H439.963V87.1529Z" fill="#FCD2B1"/>
<path d="M440.829 87.1529H440.872V87.3705H440.829V87.1529Z" fill="#FCD2B1"/>
</svg>
