<svg width="645" height="479" viewBox="0 0 645 479" fill="none" xmlns="http://www.w3.org/2000/svg">
<path d="M644.895 259.34C636.883 266.423 615.997 275.28 589.971 278.53C558.803 282.43 493.255 278.828 482.552 252.211C472.067 226.183 501.598 207.287 494.021 173.533C486.497 139.887 469.141 134.278 458.597 98.2978C451.002 72.3449 471.453 49.1605 484.605 31.8517C512.099 -4.50073 580.162 -12.3111 642.298 27.6633L644.895 259.34Z" fill="#D3D3D3" fill-opacity="0.23"/>
<path d="M31.9056 384.189L13.1024 460.578H8.95813L24.9083 384.024L31.9056 384.189Z" fill="#34334B"/>
<path d="M52.4261 384.189L33.6179 460.578H29.4736L45.4238 384.024L52.4261 384.189Z" fill="#34334B"/>
<path d="M85.615 384.189L104.423 460.578H108.565L92.6173 384.024L85.615 384.189Z" fill="#34334B"/>
<path d="M103.415 391.808H22.3736C22.3736 391.808 16.7301 384.811 12.9469 368.52C8.6949 350.195 0.105591 288.997 0.105591 288.997C0.105591 288.997 2.38202 283.304 38.0103 284.033L101.806 364.656C101.806 364.656 103.987 384.242 103.415 391.808Z" fill="#D3D3D3"/>
<g filter="url(#filter0_d)">
<path d="M572 112.487V265.525C572 266.434 571.743 267.325 571.259 268.094L569.463 270.953C569.079 271.563 568.28 271.759 567.657 271.396V271.396C567.027 271.029 566.217 271.232 565.856 271.865C563.544 275.914 561.624 280.715 561.919 285.183C562.026 286.831 562.308 288.883 562.707 291.175C563.075 293.29 564.858 294.854 566.999 295.017L570.5 295.282C571.024 295.322 571.429 295.758 571.429 296.284V296.284C571.429 296.754 571.103 297.161 570.644 297.264L569.764 297.461L564.282 298.685C564.26 298.69 564.239 298.703 564.229 298.723V298.723C564.217 298.747 564.212 298.773 564.218 298.799C564.573 300.43 564.951 302.087 565.338 303.728C566.579 308.986 562.662 314.109 557.26 314.163C555.958 314.176 554.677 314.19 553.436 314.204C550.863 314.233 548.779 312.127 548.849 309.554C548.873 308.679 548.898 307.778 548.922 306.861C548.952 305.733 548.032 304.804 546.904 304.804V304.804C546.115 304.804 545.304 304.79 544.51 304.777C543.102 304.764 541.766 304.74 540.834 304.715C540.763 304.713 540.71 304.797 540.73 304.866V304.866C540.754 304.954 540.681 305.033 540.59 305.027C540.357 305.011 539.935 304.981 539.362 304.937C538.956 304.906 538.592 305.186 538.517 305.586C537.565 310.667 536.603 315.094 536.213 316.852C536.113 317.303 536.385 317.753 536.831 317.873V317.873C537.345 318.011 537.611 318.577 537.391 319.061C536.841 320.268 536.206 321.667 535.515 323.206C534.752 324.904 533.067 326 531.207 326H101.667C88.6056 326 78 319.066 78 310.517V112.487C78 103.934 88.6082 97 101.667 97H548.305C561.392 97 572 103.934 572 112.487Z" fill="white"/>
</g>
<path d="M532.907 111.611L455.658 80.7069L441.12 117.045L518.369 147.949L532.907 111.611Z" stroke="#4E4C82" stroke-miterlimit="10"/>
<path d="M453.539 104.421L457.45 94.2866L460.67 95.6116L456.421 106.518C456.138 107.327 456.069 108.045 456.304 108.655C456.539 109.266 457.022 109.732 457.755 110.054C458.487 110.377 459.137 110.34 459.78 110.07C460.367 109.764 460.858 109.242 461.141 108.434L465.39 97.5274L468.611 98.8523L464.7 108.986C463.843 111.178 462.8 112.562 461.535 113.193C460.271 113.823 458.66 113.771 456.684 112.947C454.763 112.159 453.484 111.101 453.028 109.737C452.572 108.373 452.683 106.613 453.539 104.421Z" fill="#4E4C82"/>
<path d="M470.398 102.71L471.49 99.9063L481.191 103.829L480.099 106.633L476.876 105.307L472.846 115.75L476.068 117.076L474.976 119.88L465.275 115.957L466.368 113.153L469.59 114.479L473.62 104.036L470.398 102.71Z" fill="#4E4C82"/>
<path d="M492.742 108.485L495.19 109.455L479.508 124.058L477.06 123.088L492.742 108.485Z" fill="#4E4C82"/>
<path d="M493.458 120.385L497.369 110.251L500.59 111.576L496.34 122.483C496.057 123.291 495.988 124.01 496.223 124.62C496.458 125.23 496.942 125.696 497.674 126.019C498.407 126.341 499.056 126.304 499.699 126.034C500.286 125.728 500.777 125.207 501.06 124.398L505.309 113.492L508.53 114.817L504.619 124.951C503.762 127.143 502.719 128.527 501.454 129.157C500.19 129.787 498.58 129.735 496.603 128.912C494.682 128.124 493.404 127.066 492.947 125.701C492.436 124.301 492.546 122.541 493.458 120.385Z" fill="#4E4C82"/>
<path d="M516.444 136.46L513.082 135.118L512.039 128.569L506.869 132.613L503.507 131.272L511.432 125.124L509.844 115.399L513.205 116.741L514.186 123.021L519.163 119.156L522.525 120.498L514.849 126.502L516.444 136.46Z" fill="#4E4C82"/>
<path d="M167 444C179.702 444 190 433.703 190 421C190 408.297 179.702 398 167 398C154.297 398 144 408.297 144 421C144 433.703 154.297 444 167 444Z" fill="#FF8C4A"/>
<path d="M151.086 422.429V421.171C151.086 420.543 151.457 420 152.028 419.771L158.371 417.257C159.371 416.857 160.428 417.6 160.428 418.657C160.428 419.314 160.028 419.886 159.4 420.086L154.286 421.8L159.4 423.514C160.028 423.714 160.428 424.286 160.428 424.943V424.971C160.428 426.029 159.343 426.771 158.371 426.371L152.028 423.857C151.486 423.6 151.086 423.057 151.086 422.429Z" fill="white"/>
<path d="M170.4 413.4C171.371 413.4 172 414.4 171.571 415.286L164.486 430.114C164.257 430.571 163.8 430.857 163.314 430.857C162.343 430.857 161.714 429.857 162.143 428.971L169.229 414.143C169.457 413.686 169.914 413.4 170.4 413.4Z" fill="white"/>
<path d="M174.571 423.543L179.686 421.829L174.571 420.114C173.971 419.914 173.543 419.343 173.543 418.686V418.657C173.543 417.6 174.629 416.857 175.6 417.257L181.943 419.771C182.514 420 182.886 420.543 182.886 421.171V422.429C182.886 423.057 182.514 423.6 181.943 423.829L175.6 426.343C174.6 426.743 173.543 426 173.543 424.943C173.543 424.314 173.971 423.743 174.571 423.543Z" fill="white"/>
<path d="M262.649 245.471H143.317C142.916 245.418 142.549 245.221 142.282 244.917C142.016 244.613 141.869 244.223 141.869 243.819C141.869 243.415 142.016 243.025 142.282 242.721C142.549 242.417 142.916 242.22 143.317 242.167H262.649C263.05 242.22 263.417 242.417 263.684 242.721C263.95 243.025 264.097 243.415 264.097 243.819C264.097 244.223 263.95 244.613 263.684 244.917C263.417 245.221 263.05 245.418 262.649 245.471V245.471Z" fill="#D3D3D3" fill-opacity="0.5"/>
<path d="M392.698 245.801H273.366C272.965 245.748 272.597 245.551 272.331 245.248C272.064 244.944 271.918 244.553 271.918 244.149C271.918 243.745 272.064 243.355 272.331 243.051C272.597 242.747 272.965 242.551 273.366 242.498H392.698C393.098 242.551 393.466 242.747 393.733 243.051C393.999 243.355 394.146 243.745 394.146 244.149C394.146 244.553 393.999 244.944 393.733 245.248C393.466 245.551 393.098 245.748 392.698 245.801H392.698Z" fill="#4E4C82"/>
<path d="M262.939 263.638H143.607C143.206 263.585 142.838 263.389 142.572 263.085C142.305 262.781 142.159 262.391 142.159 261.987C142.159 261.582 142.305 261.192 142.572 260.888C142.838 260.584 143.206 260.388 143.607 260.335H262.939C263.339 260.388 263.707 260.584 263.974 260.888C264.24 261.192 264.387 261.582 264.387 261.987C264.387 262.391 264.24 262.781 263.974 263.085C263.707 263.389 263.339 263.585 262.939 263.638V263.638Z" fill="#D3D3D3" fill-opacity="0.5"/>
<path d="M263.228 281.806H143.896C143.496 281.753 143.128 281.556 142.862 281.252C142.595 280.948 142.448 280.558 142.448 280.154C142.448 279.75 142.595 279.36 142.862 279.056C143.128 278.752 143.496 278.555 143.896 278.502H263.228C263.629 278.555 263.997 278.752 264.263 279.056C264.53 279.36 264.677 279.75 264.677 280.154C264.677 280.558 264.53 280.948 264.263 281.252C263.997 281.556 263.629 281.753 263.228 281.806V281.806Z" fill="#D3D3D3" fill-opacity="0.5"/>
<path d="M317.391 263.638H283.214C282.813 263.585 282.445 263.389 282.179 263.085C281.912 262.781 281.765 262.391 281.765 261.987C281.765 261.582 281.912 261.192 282.179 260.888C282.445 260.584 282.813 260.388 283.214 260.335H317.391C317.792 260.388 318.16 260.584 318.426 260.888C318.692 261.192 318.839 261.582 318.839 261.987C318.839 262.391 318.692 262.781 318.426 263.085C318.16 263.389 317.792 263.585 317.391 263.638V263.638Z" fill="#4E4C82"/>
<path d="M317.391 281.475H283.214C282.813 281.422 282.445 281.226 282.179 280.922C281.912 280.618 281.765 280.228 281.765 279.824C281.765 279.42 281.912 279.029 282.179 278.725C282.445 278.422 282.813 278.225 283.214 278.172H317.391C317.792 278.225 318.16 278.422 318.426 278.725C318.692 279.029 318.839 279.42 318.839 279.824C318.839 280.228 318.692 280.618 318.426 280.922C318.16 281.226 317.792 281.422 317.391 281.475V281.475Z" fill="#4E4C82"/>
<path d="M374.74 281.475H340.562C340.162 281.422 339.794 281.226 339.527 280.922C339.261 280.618 339.114 280.228 339.114 279.824C339.114 279.42 339.261 279.029 339.527 278.725C339.794 278.422 340.162 278.225 340.562 278.172H374.74C375.141 278.225 375.508 278.422 375.775 278.725C376.041 279.029 376.188 279.42 376.188 279.824C376.188 280.228 376.041 280.618 375.775 280.922C375.508 281.226 375.141 281.422 374.74 281.475V281.475Z" fill="#4E4C82"/>
<path d="M176.626 227.303H142.448C142.048 227.25 141.68 227.054 141.413 226.75C141.147 226.446 141 226.056 141 225.652C141 225.247 141.147 224.857 141.413 224.553C141.68 224.249 142.048 224.053 142.448 224H176.626C177.026 224.053 177.394 224.249 177.661 224.553C177.927 224.857 178.074 225.247 178.074 225.652C178.074 226.056 177.927 226.446 177.661 226.75C177.394 227.054 177.026 227.25 176.626 227.303Z" fill="#D3D3D3" fill-opacity="0.5"/>
<path d="M315.24 162.94V158.9H311.2V158.7H315.24V154.66H315.44V158.7H319.48V158.9H315.44V162.94H315.24ZM329.148 164.2V153.6H325.048V153.4H333.448V153.6H329.348V164.2H329.148ZM347.115 161.76C347.115 162.56 346.828 163.213 346.255 163.72C345.682 164.213 344.615 164.46 343.055 164.46C341.495 164.46 340.435 164.213 339.875 163.72C339.315 163.213 339.035 162.56 339.035 161.76V155.86C339.035 155.06 339.315 154.413 339.875 153.92C340.435 153.413 341.495 153.16 343.055 153.16C344.615 153.16 345.682 153.413 346.255 153.92C346.828 154.413 347.115 155.06 347.115 155.86V161.76ZM339.235 161.76C339.235 162.507 339.502 163.113 340.035 163.58C340.568 164.033 341.575 164.26 343.055 164.26C344.535 164.26 345.548 164.033 346.095 163.58C346.642 163.113 346.915 162.507 346.915 161.76V155.86C346.915 155.113 346.642 154.513 346.095 154.06C345.548 153.593 344.535 153.36 343.055 153.36C341.575 153.36 340.568 153.593 340.035 154.06C339.502 154.513 339.235 155.113 339.235 155.86V161.76ZM358.513 164.2V153.4H363.353C364.033 153.4 364.58 153.473 364.993 153.62C365.42 153.767 365.746 153.967 365.973 154.22C366.2 154.46 366.353 154.753 366.433 155.1C366.513 155.433 366.553 155.793 366.553 156.18V161.48C366.553 161.867 366.513 162.227 366.433 162.56C366.366 162.893 366.22 163.18 365.993 163.42C365.766 163.66 365.44 163.853 365.013 164C364.586 164.133 364.033 164.2 363.353 164.2H358.513ZM363.353 153.6H358.713V164H363.353C363.993 164 364.506 163.94 364.893 163.82C365.293 163.687 365.6 163.513 365.813 163.3C366.026 163.073 366.166 162.807 366.233 162.5C366.313 162.18 366.353 161.84 366.353 161.48V156.18C366.353 155.82 366.313 155.48 366.233 155.16C366.153 154.84 366.006 154.567 365.793 154.34C365.58 154.113 365.273 153.933 364.873 153.8C364.486 153.667 363.98 153.6 363.353 153.6ZM381.275 161.76C381.275 162.56 380.988 163.213 380.415 163.72C379.842 164.213 378.775 164.46 377.215 164.46C375.655 164.46 374.595 164.213 374.035 163.72C373.475 163.213 373.195 162.56 373.195 161.76V155.86C373.195 155.06 373.475 154.413 374.035 153.92C374.595 153.413 375.655 153.16 377.215 153.16C378.775 153.16 379.842 153.413 380.415 153.92C380.988 154.413 381.275 155.06 381.275 155.86V161.76ZM373.395 161.76C373.395 162.507 373.662 163.113 374.195 163.58C374.728 164.033 375.735 164.26 377.215 164.26C378.695 164.26 379.708 164.033 380.255 163.58C380.802 163.113 381.075 162.507 381.075 161.76V155.86C381.075 155.113 380.802 154.513 380.255 154.06C379.708 153.593 378.695 153.36 377.215 153.36C375.735 153.36 374.728 153.593 374.195 154.06C373.662 154.513 373.395 155.113 373.395 155.86V161.76Z" fill="black"/>
<path d="M93.675 153.238L93.4095 153.241L93.4016 153.239L87.6445 153.34L85.7927 153.368L85.7848 153.366L81.5472 153.444L78.1998 153.5L67.9254 153.67L67.9284 128.019L72.5897 128.013L72.5977 128.015L88.1406 128.024L93.5791 128.022L93.5821 136.474L93.5813 139.379L93.6047 142.844L93.6265 146.317L93.6613 151.555L93.675 153.238Z" fill="#FF8C4A"/>
<path d="M72.5943 124.907L88.142 124.905L88.1427 131.124L72.595 131.126L72.5943 124.907Z" fill="#4E4C82"/>
<path d="M111.086 151.31L99.9041 174.401L76.8132 163.219L77.9571 160.866L81.5472 153.444L87.9955 140.128L92.1989 142.162L93.6047 142.844L106.191 148.941L111.086 151.31Z" fill="#FF8C4A"/>
<path d="M107.543 146.144L106.191 148.941L104.831 151.737L93.6265 146.317L90.8369 144.966L92.1989 142.162L93.5512 139.365L93.5813 139.379L104.852 144.838L107.543 146.144Z" fill="#4E4C82"/>
<path opacity="0.1" d="M93.5813 139.379L93.5512 139.365L92.1989 142.162L87.9955 140.128L81.5472 153.444L78.1998 153.5L82.6284 144.357L82.908 143.77L82.9096 143.762L85.8679 137.665L86.4334 136.5L86.4479 136.47L86.5001 136.497L88.3651 137.399L90.6434 138.502L91.9957 135.705L93.5821 136.474L93.5813 139.379Z" fill="#FF8C4A"/>
<path d="M87.902 150.338L88.6566 148.902L104.332 157.138L103.578 158.574L87.902 150.338Z" fill="white"/>
<path d="M91.3979 157.254L92.1859 155.838L98.1236 159.142L97.3357 160.558L91.3979 157.254Z" fill="white"/>
<path d="M85.4644 153.954L86.2524 152.538L89.2213 154.19L88.4333 155.606L85.4644 153.954Z" fill="white"/>
<path d="M82.9145 158.409L83.6691 156.973L99.3446 165.208L98.5901 166.645L82.9145 158.409Z" fill="white"/>
<path d="M85.8248 136.481L88.3077 136.417L88.3932 138.071L85.9104 138.135L85.8248 136.481Z" fill="white"/>
<path d="M71.6373 136.92L83.3033 136.616L83.3867 138.4L71.7207 138.704L71.6373 136.92Z" fill="white"/>
<path d="M77.8946 142.763L82.8611 142.729L82.917 144.424L77.9504 144.458L77.8946 142.763Z" fill="white"/>
<path d="M72.0763 142.899L76.2117 142.87L76.2677 144.553L72.1324 144.582L72.0763 142.899Z" fill="white"/>
<path d="M476.065 327.678L475.82 327.778L475.812 327.78L470.501 330.005L468.792 330.717L468.784 330.719L464.876 332.36L461.788 333.652L452.306 337.614L442.81 313.786L447.138 312.054L447.146 312.053L461.587 306.305L466.639 304.29L469.771 312.14L470.846 314.838L472.151 318.048L473.457 321.266L475.429 326.119L476.065 327.678Z" fill="#FF8C4A"/>
<path d="M445.992 309.167L460.434 303.408L462.737 309.184L448.296 314.943L445.992 309.167Z" fill="#4E4C82"/>
<path d="M491.525 319.439L489.689 345.029L464.098 343.193L464.29 340.584L464.876 332.36L465.935 317.603L470.593 317.936L472.151 318.048L486.101 319.051L491.525 319.439Z" fill="#FF8C4A"/>
<path d="M486.321 315.952L486.101 319.051L485.872 322.152L473.457 321.266L470.366 321.044L470.593 317.936L470.813 314.836L470.846 314.838L483.337 315.736L486.321 315.952Z" fill="#4E4C82"/>
<path opacity="0.1" d="M470.846 314.838L470.813 314.836L470.593 317.936L465.935 317.603L464.876 332.36L461.788 333.652L462.516 323.519L462.558 322.87L462.556 322.862L463.046 316.103L463.14 314.811L463.143 314.778L463.201 314.784L465.268 314.931L467.792 315.112L468.013 312.013L469.771 312.14L470.846 314.838Z" fill="#FF8C4A"/>
<path d="M469.629 327.122L469.798 325.508L487.409 327.354L487.24 328.967L469.629 327.122Z" fill="white"/>
<path d="M475.438 332.251L475.645 330.644L482.384 331.515L482.177 333.122L475.438 332.251Z" fill="white"/>
<path d="M468.704 331.383L468.911 329.776L472.281 330.211L472.073 331.819L468.704 331.383Z" fill="white"/>
<path d="M467.985 336.465L468.154 334.852L485.765 336.697L485.596 338.311L467.985 336.465Z" fill="white"/>
<path d="M462.581 315.072L464.886 314.032L465.529 315.492L463.224 316.532L462.581 315.072Z" fill="white"/>
<path d="M449.613 320.87L460.314 316.071L460.953 317.515L450.252 322.314L449.613 320.87Z" fill="white"/>
<path d="M457.555 323.887L462.167 321.912L462.781 323.378L458.17 325.353L457.555 323.887Z" fill="white"/>
<path d="M452.196 326.155L456.042 324.506L456.657 325.974L452.811 327.623L452.196 326.155Z" fill="white"/>
<path d="M409.246 118.415L408.981 118.414L408.973 118.412L403.215 118.426L401.363 118.426L401.355 118.425L397.117 118.439L393.769 118.444L383.493 118.459L383.882 92.8116L388.543 92.8758L388.551 92.8775L404.092 93.1201L409.53 93.2005L409.406 101.651L409.361 104.556L409.333 108.021L409.302 111.494L409.258 116.732L409.246 118.415Z" fill="#FF8C4A"/>
<path d="M388.594 89.77L404.14 90.002L404.047 96.2201L388.501 95.988L388.594 89.77Z" fill="#4E4C82"/>
<path d="M401.649 101.539L404.132 101.515L404.194 103.173L401.711 103.197L401.649 101.539Z" fill="white"/>
<path d="M387.454 101.736L399.126 101.639L399.185 103.455L387.514 103.552L387.454 101.736Z" fill="white"/>
<path d="M393.624 107.744L398.588 107.781L398.623 109.399L393.66 109.362L393.624 107.744Z" fill="white"/>
<path d="M387.805 107.786L391.938 107.817L391.973 109.435L387.84 109.404L387.805 107.786Z" fill="white"/>
<path d="M514.774 227.018C514.774 252.574 493.943 273.405 468.387 273.405C442.831 273.405 422 252.574 422 227.018C422 201.463 442.831 180.632 468.387 180.632C470.964 180.632 473.326 180.846 475.903 181.276L468.387 227.018L511.338 209.194C513.485 214.563 514.774 220.576 514.774 227.018Z" fill="#4E4C82"/>
<path d="M526.8 193.732L483.849 211.556L491.366 165.814C507.472 168.176 520.787 179.128 526.8 193.732Z" fill="#FF8C4A"/>
<circle cx="167" cy="158" r="29" fill="#D3D3D3" fill-opacity="0.23"/>
<path d="M154.665 150.836C154.665 150.836 154.465 143.209 165.972 142.674C175.941 142.205 177.279 146.353 178.149 149.163C179.018 151.973 166.909 159.6 166.909 159.6L154.665 150.836Z" fill="#4E4C82"/>
<path d="M160.821 176.259L160.218 160.938L170.053 160.537L170.655 175.323C170.789 178.066 168.648 179.27 165.905 179.404C163.162 179.471 160.887 178.935 160.821 176.259Z" fill="#FCD2B1"/>
<path d="M160.218 162.611C160.218 162.611 158.814 171.71 170.589 173.918L170.254 166.893L160.218 162.611Z" fill="#FCD2B1"/>
<path d="M173.131 144.815C169.585 144.882 180.089 144.681 178.282 155.787L174.803 151.037L173.131 144.815Z" fill="#34334B"/>
<path d="M168.715 170.84C174.001 170.573 178.149 167.227 177.881 161.942L177.346 151.438C177.212 149.163 175.272 147.357 172.997 147.491L162.159 148.026C159.884 148.16 158.078 150.1 158.211 152.375L158.613 161.407C158.947 166.625 164.3 171.041 168.715 170.84Z" fill="#FCD2B1"/>
<path d="M159.282 158.396C159.282 158.396 164.5 154.917 162.226 147.959L156.873 148.227C156.873 148.227 156.07 147.022 155 148.695C153.93 150.301 156.405 157.928 156.405 157.928L159.282 158.396Z" fill="#34334B"/>
<path d="M160.754 154.583L162.694 149.297C162.694 149.297 175.472 150.903 178.617 147.29C181.628 143.811 179.152 138.593 176.61 138.057C174.603 137.656 172.462 139.462 170.923 140.332C169.384 141.202 165.771 140.399 164.634 140.332C163.564 140.265 158.813 139.329 157.342 144.279C157.342 144.279 149.648 147.156 157.609 160.136C157.676 160.136 160.821 158.195 160.754 154.583Z" fill="#34334B"/>
<path d="M161.958 153.847C161.958 153.847 161.623 160.872 163.162 162.879C164.701 164.886 165.571 162.812 171.124 161.942C176.677 161.072 178.082 163.615 178.082 163.615C178.082 163.615 177.814 170.706 170.522 171.041C164.835 171.308 156.338 170.104 157.475 161.005C158.546 151.973 158.144 149.632 158.144 149.632L161.958 153.847Z" fill="#34334B"/>
<circle cx="256" cy="158" r="29" fill="#D3D3D3" fill-opacity="0.23"/>
<path d="M261.558 147.448C262.102 148.839 261.678 150.35 261.316 151.802C260.953 153.253 260.771 154.886 261.739 156.095C262.706 157.304 264.521 157.728 265.79 158.756C267 159.723 267.665 161.235 267.423 162.626C267.242 163.593 266.697 164.621 267.302 165.468C267.605 165.891 268.149 166.133 268.693 166.375C269.842 166.859 271.051 167.282 272.14 167.887C273.228 168.491 274.196 169.277 274.68 170.366C275.345 171.817 274.861 173.45 274.256 174.901C273.712 176.352 272.926 177.864 271.414 178.59C270.265 179.134 268.874 179.134 267.544 179.013C263.674 178.711 259.864 177.804 256.297 176.352C254.059 175.445 251.882 174.236 250.491 172.482C248.315 169.701 248.556 166.073 249.161 162.807C249.524 160.993 250.008 159.118 251.459 157.728C252.85 156.397 254.966 155.672 257.083 155.611C259.199 155.49 259.502 146.843 261.558 147.448Z" fill="#FF8C4A"/>
<path d="M244.142 157.486C242.389 155.007 241.663 151.983 242.147 149.08C242.691 146.238 244.444 143.578 246.984 141.824" fill="#FF8C4A"/>
<path d="M254.241 168.733C254.12 167.645 255.027 163.351 255.027 163.351C255.027 163.351 259.683 163.351 260.288 159.421C260.892 155.49 261.437 146.359 261.437 146.359L253.334 142.005L244.565 147.266L243.175 167.101L254.241 168.733Z" fill="#FCD2B1"/>
<path d="M255.027 163.351C255.027 163.351 251.943 163.109 249.101 161.054C249.101 161.054 250.189 164.077 254.845 164.319L255.027 163.351Z" fill="#FCD2B1"/>
<path d="M262.586 148.536C262.586 148.536 263.916 142.308 253.878 140.252C243.84 138.256 242.691 148.778 242.691 148.778L248.315 148.355L249.766 145.755L249.705 148.355L253.878 148.476L253.817 146.541L254.845 148.173L262.586 148.536Z" fill="#FF8C4A"/>
<path d="M627.739 241.054C627.719 241.074 627.699 241.074 627.699 241.074C627.679 241.114 627.641 241.152 627.601 241.192C625.159 243.318 621.797 244.183 621.446 244.659C621.248 244.933 620.579 245.482 620.065 245.898C619.711 246.166 619.438 246.369 619.438 246.369L614.594 242.1C614.594 242.1 615.54 241.232 616.171 240.152C616.603 239.447 616.881 238.62 616.68 237.908C616.229 236.376 616.896 234.666 617.056 233.956C617.272 233.011 617.37 229.965 618.074 230.143C619.26 230.416 618.979 235.295 619.12 236.338C619.26 237.186 621.459 234.924 622.798 234.077C622.798 234.077 622.898 233.999 623.074 233.881C623.229 233.783 623.367 233.726 623.485 233.706C623.801 233.643 624.45 234.059 625.177 234.709C625.22 234.749 625.237 234.786 625.277 234.826C625.809 235.298 626.358 235.91 626.849 236.574C626.869 236.594 626.869 236.614 626.889 236.637C627.361 237.283 627.777 237.993 627.99 238.66C628.012 238.68 628.012 238.717 628.03 238.758C628.313 239.62 628.288 240.447 627.739 241.054Z" fill="#FCD2B1"/>
<path d="M622.81 234.072C622.81 234.072 630.692 228.03 631.55 228.065C632.415 228.11 632.718 228.549 632.004 229.148C631.289 229.747 624.558 235.205 624.558 235.205C624.558 235.205 635.085 229.622 635.802 229.496C636.216 229.424 636.532 230.221 636.178 230.579C635.825 230.933 626.027 237.093 626.027 237.093C626.027 237.093 635.865 231.898 636.491 231.976C637.045 232.039 637.437 232.951 636.732 233.382C636.033 233.819 627.168 239.156 627.168 239.156C627.168 239.156 634.568 235.832 635.062 236.203C635.361 236.433 635.789 236.937 633.854 237.74C631.921 238.537 627.704 241.089 627.704 241.089L622.81 234.072Z" fill="#FCD2B1"/>
<path d="M583.985 236.481L580.943 229.369C580.927 229.32 580.911 229.268 580.879 229.219C578.733 224.049 574.884 222.287 572 221.735L572.014 208.647V203.248C574.824 197.692 576.3 190.781 573.064 186C574.728 186.039 578.073 186.368 581.039 188.367C584.145 190.431 586.828 194.322 586.656 201.601C586.245 218.633 583.955 221.973 586.672 233.01C587.676 237.103 586.264 237.603 583.985 236.481Z" fill="#1A282B"/>
<path d="M515.988 458.344L515.968 458.364C515.945 458.677 515.89 458.976 515.792 459.206C515.356 460.254 515.023 461.571 514.709 463.045C513.528 468.573 512.721 476.069 509.181 477.466C504.696 479.253 497.338 479.017 496.377 477.466C495.59 476.182 500.173 469.303 501.843 466.898C501.843 466.898 501.823 466.898 501.843 466.878C502.201 466.369 502.417 466.076 502.417 466.076C507.532 460.625 507.649 455.513 507.293 453.011C507.155 452.009 506.94 451.419 506.94 451.419C506.94 451.419 508.77 450.552 510.836 450.494C511.307 450.474 511.799 450.494 512.27 450.572C512.842 450.67 513.373 451.046 513.847 451.615C513.884 451.635 513.884 451.655 513.902 451.673C513.92 451.69 513.945 451.713 513.96 451.75C515.301 453.428 516.146 456.494 515.988 458.344Z" fill="#34334B"/>
<path d="M513.902 451.655C513.902 451.655 513.902 451.655 513.902 451.675C513.882 451.733 513.862 451.813 513.824 451.931L513.804 451.956V451.971C513.804 451.991 513.804 451.991 513.804 451.991C513.609 452.7 513.177 454.43 512.801 457.226C512.29 461.217 510.773 467.886 508.434 470.187C506.095 472.489 500.331 471.682 500.116 470.799C500.018 470.408 500.845 468.831 501.843 466.901C501.843 466.901 501.823 466.901 501.843 466.881C503.106 464.424 504.638 461.393 504.874 459.545C505.207 457.048 505.917 454.491 506.391 452.914C506.679 451.953 506.9 451.342 506.9 451.342C507.92 450.241 509.457 450.201 510.833 450.494C512.287 450.793 513.569 451.459 513.844 451.615C513.882 451.635 513.902 451.655 513.902 451.655Z" fill="#FCD2B1"/>
<path d="M577.166 458.344V458.422C577.144 458.715 577.068 458.996 576.986 459.204C576.554 460.272 576.221 461.628 575.887 463.14C574.702 468.648 573.879 476.067 570.377 477.463C565.892 479.251 558.518 479.015 557.573 477.463C556.61 475.906 563.357 466.231 563.357 466.231L563.38 466.211C569.552 459.58 568.451 453.445 568.04 451.888C567.958 451.652 567.917 451.517 567.917 451.517L567.942 451.497C568.236 451.379 571.051 450.141 573.468 450.572C573.706 450.612 573.922 450.69 574.138 450.828C576.045 451.911 577.382 456.062 577.166 458.344Z" fill="#34334B"/>
<path d="M574 457.223C573.784 461.235 571.971 467.883 569.632 470.185C567.273 472.486 561.509 471.679 561.294 470.797C561.191 470.36 562.199 468.455 563.357 466.234L563.38 466.214C564.636 463.789 566.09 461.019 566.523 459.329C567.253 456.617 567.742 452.954 567.88 451.858C567.902 451.637 567.92 451.52 567.92 451.52L567.945 451.5C570.186 449.08 573.471 450.574 573.471 450.574C573.471 450.574 573.526 450.795 573.626 451.226C573.819 452.229 574.155 454.368 574 457.223Z" fill="#FCD2B1"/>
<path d="M542.347 281.932C542.27 287.029 542.169 291.925 542.112 295.982C542.069 298.416 542.034 300.54 542.014 302.215C541.991 302.41 541.991 302.606 541.991 302.784C541.971 304.341 540.399 305.359 538.983 304.792L532.021 301.941L531.527 301.741L529.799 301.031C529.799 301.031 531.101 292.302 532.337 282.073C533.635 282.228 534.423 282.308 534.423 282.308C534.382 282.195 534.345 282.035 534.325 281.819C535.23 281.86 536.586 281.897 538.023 281.917C538.792 281.937 539.58 281.957 540.344 281.957C541.049 281.952 541.736 281.952 542.347 281.932Z" fill="#34334B"/>
<path d="M542.287 363.45C542.19 363.764 542.069 364.097 541.954 364.411C540.753 367.795 532.409 387.293 532.409 402.218C532.409 412.291 517.52 446.483 513.96 451.753C513.942 451.713 513.92 451.695 513.902 451.675C513.902 451.655 513.902 451.655 513.902 451.655C513.902 451.655 513.882 451.635 513.847 451.615C513.376 451.046 512.842 450.67 512.27 450.572C511.799 450.494 511.307 450.474 510.836 450.494C509.457 450.201 507.923 450.239 506.902 451.342C506.902 451.342 506.682 451.953 506.393 452.914C506.393 452.914 515.441 410.01 515.163 407.849C514.89 405.705 520.731 382.905 521.145 376.863C521.28 374.757 521.832 369.131 522.577 362.35C527.455 362.703 534.598 363.074 542.287 363.45Z" fill="#FCD2B1"/>
<path d="M580.37 365.103C580.215 367.189 580.057 369.367 579.919 371.674C579.663 375.983 579.508 389.675 579.37 399.605C579.229 409.227 575.216 447.94 574.135 450.83C573.919 450.692 573.704 450.615 573.466 450.574C573.466 450.574 570.179 449.08 567.94 451.5L567.915 451.52C567.915 451.52 567.897 451.638 567.875 451.858C567.875 451.858 564.886 413.753 564.197 405.414C563.512 397.05 564.47 380.491 563.212 375.59C562.858 374.136 562.349 369.826 561.798 364.338C569.514 364.671 576.319 364.945 580.37 365.103Z" fill="#FCD2B1"/>
<path d="M557.122 272.982C558.24 280.852 559.596 289.13 560.737 295.721C554.462 295.761 547.482 295.882 542.109 295.982C542.164 291.928 542.265 287.032 542.345 281.932C541.733 281.952 541.046 281.952 540.337 281.952C540.969 281.145 541.658 280.303 542.383 279.495C543.054 278.708 543.759 277.943 544.509 277.194C544.684 276.998 544.882 276.823 545.08 276.625C546.893 274.872 548.878 273.295 550.982 272.155C551.491 271.841 552.025 271.585 552.554 271.372C553.91 270.761 555.327 270.349 556.746 270.186C556.884 270.186 557.001 270.171 557.119 270.171C557.806 270.131 558.473 270.131 559.163 270.186C560.263 270.309 561.386 270.583 562.504 271.059L557.154 272.887C557.139 272.922 557.139 272.942 557.122 272.982Z" fill="#313657"/>
<path d="M515.983 458.344V468.638H514.699V460.681L515.983 458.344Z" fill="#34334B"/>
<path d="M577.174 458.344V468.638H575.895V460.681L577.174 458.344Z" fill="#34334B"/>
<path d="M566.782 204.721C566.366 207.594 565.796 212.591 566.072 216.645C566.112 217.41 566.187 218.139 566.308 218.809C566.308 218.829 566.308 218.829 566.308 218.849C566.328 219.004 566.365 219.162 566.386 219.32C566.503 219.791 566.624 220.245 566.757 220.641L565.521 223.667C565.262 223.708 564.969 223.745 564.676 223.765C564.102 223.785 563.49 223.785 562.825 223.765C562.096 223.725 561.311 223.647 560.521 223.57H560.504C560.426 223.55 560.348 223.55 560.268 223.529C559.915 223.489 559.539 223.432 559.185 223.392H559.165C556.686 223.038 554.306 222.524 553.008 222.231H552.985C552.378 222.093 552.002 221.99 552.002 221.99C552.002 221.99 552.652 220.458 553.459 218.214C553.517 218.019 553.597 217.803 553.675 217.583L554.206 215.991V215.971L554.224 215.951C554.444 215.246 554.68 214.496 554.896 213.727C554.953 213.531 555.016 213.316 555.051 213.1C555.209 212.526 555.349 211.959 555.467 211.385C555.52 211.052 555.605 210.738 555.66 210.42C556.094 208.001 556.214 205.699 555.66 204.044C554.346 200.151 560.933 201.018 564.673 201.806C566.107 202.099 567.13 202.392 567.13 202.392C567.13 202.392 566.977 203.307 566.782 204.721Z" fill="#FCD2B1"/>
<path d="M566.386 219.318C566.13 219.298 565.934 219.277 565.799 219.26C565.681 219.26 565.618 219.26 565.618 219.26L565.285 219.24L564.678 219.182L563.929 219.125L563.518 219.084L553.484 218.217C553.484 218.217 553.484 218.217 553.464 218.217C553.386 218.237 553.128 218.275 552.714 218.355C552.559 218.375 552.399 218.413 552.203 218.453C551.947 218.493 551.654 218.55 551.318 218.608C548.43 219.182 543.097 220.323 538.65 221.855C534.087 223.432 528.518 230.003 525.645 233.733C524.427 235.31 523.68 236.373 523.68 236.373C523.68 236.373 526.034 241.922 528.849 248.748C530.622 253.096 532.588 257.954 534.24 262.224C534.24 262.224 534.24 262.224 534.24 262.244C534.556 263.051 534.849 263.796 535.125 264.546C536.248 267.519 537.153 270.074 537.624 271.743C537.88 272.649 538.035 273.691 538.116 274.872C538.133 274.892 538.133 274.93 538.133 274.95C538.196 275.72 538.213 276.522 538.213 277.369C538.213 278.803 538.133 280.343 538.015 281.912C538.785 281.932 539.572 281.952 540.337 281.952C541.046 281.952 541.733 281.952 542.345 281.932C542.267 287.029 542.167 291.926 542.109 295.982C547.482 295.884 554.462 295.761 560.737 295.721C559.596 289.13 558.24 280.849 557.122 272.982C557.14 272.942 557.14 272.924 557.16 272.884L562.51 271.057L564.124 270.502V267.928L556.317 267.023C555.59 261.494 555.056 256.495 554.901 252.837C554.587 245.579 556.849 237.732 559.366 231.399L561.55 233.347L564.678 225.733L565.523 223.667L566.759 220.641L567.273 219.398C566.937 219.358 566.621 219.338 566.386 219.318Z" fill="#F2F2F2"/>
<path d="M566.298 218.839L552 230.492L553.477 218.217C553.477 218.217 561.81 216.419 566.298 218.839Z" fill="#FCD2B1"/>
<path d="M564.122 267.928V270.502L562.507 271.057L557.157 272.884C557.137 272.924 557.137 272.942 557.119 272.982V272.884C557.059 272.473 556.999 272.077 556.941 271.683C556.919 271.528 556.901 271.37 556.884 271.232C556.826 270.914 556.786 270.6 556.746 270.282V270.184C556.588 269.106 556.452 268.063 556.312 267.02L564.122 267.928Z" fill="#494F80"/>
<path d="M567.429 219.395H567.273L566.759 220.639L565.523 223.665L564.678 225.731L561.549 233.345L559.366 231.397C560.547 228.463 561.788 225.849 562.828 223.763C563.558 222.309 564.204 221.128 564.678 220.263C564.716 220.205 564.736 220.165 564.776 220.107V220.087C564.794 220.087 564.794 220.067 564.794 220.067C564.992 219.734 565.15 219.455 565.285 219.24C565.501 218.869 565.618 218.671 565.618 218.671C565.799 218.711 565.952 218.728 566.132 218.769H566.152C566.21 218.784 566.27 218.784 566.308 218.809C566.679 218.881 567.058 218.964 567.409 219.064C567.409 219.182 567.408 219.298 567.429 219.395Z" fill="#494F80"/>
<path d="M552.674 218.671C552.674 218.671 550.746 223.018 548.6 229.038C545.945 236.451 542.977 246.367 542.819 253.76C542.759 256.673 542.679 260.762 542.603 265.408C542.561 268.003 542.526 270.756 542.463 273.591C542.463 274.022 542.463 274.454 542.443 274.89C542.423 275.875 542.423 276.878 542.403 277.858C542.403 277.878 542.403 277.878 542.403 277.903C542.383 278.412 542.383 278.961 542.383 279.495C542.363 280.323 542.343 281.125 542.343 281.935C541.731 281.955 541.044 281.955 540.334 281.955C539.57 281.955 538.783 281.935 538.013 281.915C536.579 281.895 535.222 281.857 534.315 281.817C534.335 282.033 534.373 282.193 534.413 282.306C534.413 282.306 533.625 282.228 532.327 282.07C532.545 280.225 532.763 278.294 532.979 276.384C532.996 276.168 533.019 275.933 533.034 275.717C533.212 274.2 533.37 272.686 533.505 271.187C533.743 268.85 533.939 266.569 534.079 264.425C534.137 263.676 534.197 262.951 534.235 262.241C534.235 262.221 534.235 262.221 534.235 262.221C534.373 259.955 534.45 257.892 534.45 256.139L528.844 248.746L521.233 238.692C521.233 238.692 522.865 236.489 525.167 233.673C528.569 229.506 533.447 223.998 536.614 222.426C541.021 220.223 548.989 218.768 551.486 218.352L551.506 218.332C551.997 218.255 552.276 218.214 552.276 218.214L552.195 218.45L552.04 218.881C552.175 218.829 552.293 218.768 552.451 218.748H552.471C552.536 218.711 552.614 218.686 552.674 218.671Z" fill="#34334B"/>
<path d="M557.237 272.47C557.22 272.608 557.197 272.744 557.159 272.882C557.139 272.922 557.139 272.939 557.122 272.979C555.821 277.229 546.224 281.401 544.727 281.774C544.356 281.872 543.468 281.93 542.348 281.93C541.736 281.95 541.049 281.95 540.339 281.95C539.575 281.95 538.787 281.93 538.018 281.91C536.584 281.89 535.227 281.852 534.32 281.812C533.63 281.792 533.199 281.772 533.199 281.772V276.442H533.239C533.342 276.402 533.751 276.266 534.36 276.051C535.227 275.772 536.523 275.361 538.06 274.89C538.078 274.89 538.103 274.87 538.118 274.87C538.963 274.614 539.908 274.341 540.871 274.042C541.402 273.904 541.931 273.749 542.465 273.591C545.928 272.646 549.688 271.721 552.556 271.367C553.01 271.29 553.424 271.249 553.815 271.229C554.976 271.132 555.901 271.184 556.49 271.405C556.666 271.483 556.826 271.56 556.944 271.678C557.179 271.864 557.297 272.114 557.237 272.47Z" fill="#FCD2B1"/>
<path d="M564.122 267.928L559.168 270.184L556.886 271.232L556.49 271.41L545.083 276.625L542.405 277.858L541.957 278.054L538.136 274.95L538.06 274.89L533.513 271.189L523.68 263.207L534.087 264.425L535.127 264.543L538.412 264.917L542.603 265.41L556.315 267.023L564.122 267.928Z" fill="#F7F7F7"/>
<path d="M564.122 267.928V270.502L562.51 271.056L557.159 272.882H557.122L544.511 277.191L542.405 277.901L541.956 278.054L541.207 275.283L542.445 274.89L550.984 272.152L553.815 271.232L556.748 270.282L557.122 270.169L564.122 267.928Z" fill="#D3D3D3"/>
<path d="M554.221 215.948L546.542 228.148L542.821 230.492L551.488 218.35L554.221 215.948Z" fill="#F2F2F2"/>
<path d="M546.542 228.148L552 230.492L553.477 218.217L554.221 215.948L546.542 228.148Z" fill="#D6C5BE"/>
<path d="M534.322 281.814C534.342 282.03 534.38 282.191 534.42 282.303C534.42 282.303 533.633 282.226 532.334 282.068C526.297 281.383 509.066 279.197 507.156 276.324C506.015 274.596 505.443 272.724 505.187 271.252V271.232C504.894 269.695 504.917 268.592 504.917 268.592L533.044 275.717L534.363 276.051L534.42 276.071C534.42 276.071 534.398 276.286 534.38 276.657C534.3 277.843 534.144 280.536 534.322 281.814Z" fill="#34334B"/>
<path d="M541.956 278.064L530.153 234.21L485.306 229.474L497.598 269.843L541.956 278.064Z" fill="#D3D3D3"/>
<path d="M621.11 247.425C621.11 247.425 608.72 258.325 602.132 264.779C602.132 264.779 594.498 273 592.196 273C592.096 273 592.001 272.979 591.92 272.942C590.228 272.212 584.447 264.014 579.412 255.475C579.177 256.142 578.899 256.929 578.625 257.796C578.37 258.546 578.116 259.368 577.838 260.253C577.151 262.535 576.404 265.15 575.732 267.928C573.766 276.091 583.702 301.603 583.702 301.603L581.418 302.373L581.065 302.49L566.92 307.294C564.856 307.978 562.63 306.682 562.256 304.519C562.181 304.03 562.083 303.496 561.986 302.927C561.905 302.511 561.845 302.099 561.768 301.643C561.747 301.545 561.727 301.427 561.71 301.33C561.572 300.565 561.417 299.718 561.279 298.853C561.196 298.477 561.138 298.103 561.081 297.712C560.96 297.06 560.862 296.408 560.745 295.724C559.604 289.133 558.248 280.852 557.129 272.984C557.147 272.944 557.147 272.927 557.167 272.887L562.517 271.059L564.132 270.505V267.93L556.325 267.025C555.598 261.497 555.063 256.498 554.908 252.84C554.595 245.582 556.856 237.735 559.373 231.402L561.557 233.35L564.686 225.736L565.531 223.67L566.767 220.644L567.281 219.4H567.436C567.416 219.303 567.416 219.185 567.416 219.067C567.416 219.067 569.444 218.789 572.119 219.303C575.735 219.949 580.558 222.015 583.248 228.077C583.291 228.135 583.308 228.195 583.328 228.253L587.142 236.591L593.693 250.915C593.693 250.915 595.563 254.181 596.506 255.164C596.506 255.164 598.867 253.823 600.088 252.995C602.347 251.15 603.669 250.458 606.381 248.124C610.593 244.501 616.004 239.898 616.004 239.898L616.179 240.154C615.547 241.237 614.602 242.102 614.602 242.102L619.446 246.372C619.446 246.372 619.719 246.171 620.072 245.9L621.11 247.425Z" fill="#34334B"/>
<path d="M620.067 245.898C619.714 246.166 619.441 246.369 619.441 246.369L614.597 242.1C614.597 242.1 615.542 241.232 616.174 240.152L620.067 245.898Z" fill="#34334B"/>
<path d="M568.725 202.738C568.095 203.463 567.449 204.115 566.782 204.721C565.661 205.724 564.495 206.592 563.314 207.301C563.314 207.301 563.314 207.321 563.279 207.341C563.237 207.361 563.197 207.381 563.139 207.414C562.216 207.968 561.291 208.442 560.384 208.833C560.306 208.891 560.228 208.911 560.148 208.931C559.604 209.156 559.06 209.362 558.551 209.542C558.112 209.698 557.684 209.841 557.257 209.969C556.641 210.159 556.142 210.297 555.876 210.365C555.738 210.41 555.658 210.422 555.658 210.422C552.865 211.074 550.583 211.152 549.46 211.054C546.474 210.776 544.702 201.966 544.702 201.966C544.702 201.966 542.205 201.179 541.631 200.727C541.061 200.276 544.308 192.78 543.794 190.042C543.285 187.309 543.285 183.907 543.285 183.907C543.481 183.08 543.736 182.295 544.015 181.566C548.031 185.64 561.214 198.704 568.725 202.738Z" fill="#FCD2B1"/>
<path d="M556.137 228.514L552 230.492L566.04 216.575L556.137 228.514Z" fill="#D6C5BE"/>
<path d="M567.408 219.064L567.27 219.395L566.757 220.641L565.52 223.667L564.676 225.733L561.547 233.347L559.363 231.399L556.136 228.509L559.636 224.274L559.656 224.254L560.268 223.529L563.926 219.122L564.676 218.217L564.693 218.197L566.032 216.58L566.072 216.645L567.408 219.064Z" fill="#F2F2F2"/>
<path d="M563.324 207.301C563.259 207.404 561.111 210.743 555.061 213.107C555.206 212.533 555.342 211.957 555.465 211.383C555.53 211.059 555.598 210.736 555.655 210.412C555.655 210.415 560.659 209.191 563.324 207.301Z" fill="#A77860"/>
<path d="M515.002 258.054C516.275 257.378 516.296 254.926 515.048 252.578C513.801 250.231 511.758 248.876 510.485 249.552C509.212 250.228 509.191 252.68 510.439 255.028C511.686 257.375 513.729 258.73 515.002 258.054Z" fill="#F7F7F7"/>
<path d="M132.147 332.834C132.147 332.834 134.919 333.393 136.248 333.431C137.574 333.476 143.702 330.693 145.67 330.959C147.628 331.222 160.427 336.657 161.006 337.061C161.582 337.457 160.733 338.329 160.733 338.329L131.352 338.683L132.147 332.834Z" fill="#FCD2B1"/>
<path d="M171.085 338.101L122.219 338.467L122.252 342.942L171.118 342.576L171.085 338.101Z" fill="#D3D3D3"/>
<path d="M181.135 294.477L166.845 341.212L171.127 342.521L185.417 295.786L181.135 294.477Z" fill="#D3D3D3"/>
<path d="M81.8794 432.975L79.9966 437.054C79.9966 437.054 72.0566 434.095 72.014 433.993C71.9739 433.895 74.2002 428.332 74.2002 428.332L81.8794 432.975Z" fill="#D3D3D3"/>
<path d="M149.867 432.887L152.058 439.303C152.058 439.303 143.351 441.228 142.082 441.125C141.972 441.115 140.438 433.86 140.438 433.86L149.867 432.887Z" fill="#D3D3D3"/>
<path d="M141.112 439.253C141.112 439.253 147.197 437.598 147.38 437.332C147.558 437.069 149.794 435.56 150.945 435.755C152.096 435.951 152.198 437.322 153.349 437.605C154.502 437.884 163.395 440.729 164.629 441.459C165.862 442.183 176.527 439.599 177.658 441.125C178.789 442.647 175.113 447.095 165.867 448.486C156.621 449.873 146.72 453.999 144.507 453.438C142.288 452.874 140.774 441.72 141.112 439.253Z" fill="#34334B"/>
<path d="M71.3897 432.907C71.3897 432.907 77.0332 435.316 77.3265 435.224C77.6274 435.131 80.2398 435.326 81.0019 436.169C81.7666 437.011 81.0119 438.122 81.7215 439.034C82.4259 439.939 86.4523 445.262 87.6256 446.493C88.5884 447.496 99.241 449.715 100.936 451.482C102.212 452.818 95.3425 456.872 86.3596 454.328C77.6098 451.846 66.7767 447.541 65.4303 445.784C64.079 444.011 69.6473 434.587 71.3897 432.907Z" fill="#34334B"/>
<path d="M77.1786 352.898C77.1786 352.898 101.994 363.934 107.251 367.705C112.514 371.476 124.024 378.428 124.407 380.127C124.791 381.827 127.07 380.173 122.988 388.667C118.907 397.163 99.5995 417.606 97.7894 419.83C95.8991 422.151 82.5062 436.033 82.5062 436.033L72.4327 428.449C72.4327 428.449 91.8 399.971 94.6029 395.784C97.4058 391.598 98.6719 390.981 97.0122 389.125C95.355 387.28 88.7338 387.303 54.6523 373.188C51.2452 371.779 41.7408 368.512 40.4873 363.939C38.2284 355.673 40.1689 345.199 49.3273 340.596C58.4932 335.985 77.1786 352.898 77.1786 352.898Z" fill="#34334B"/>
<path d="M88.9795 273.01C88.7614 273.205 88.5232 273.626 88.275 274.205C87.919 275.038 87.5429 276.194 87.1769 277.472C86.0537 281.408 85.0308 286.458 85.0308 286.458C85.0308 286.458 70.8281 274.622 72.8363 273.877C74.8445 273.137 76.3312 269.675 76.3312 269.675C76.3312 269.675 90.4737 271.688 88.9795 273.01Z" fill="#FCD2B1"/>
<path d="M76.785 348.433C76.785 348.433 102.425 354.465 108.766 356.493C115.101 358.516 126.012 362.084 128.94 363.754C130.497 364.644 132.876 365.973 135.722 375.236C138.953 385.739 146.319 415.277 147.992 419.88C149.04 422.768 152.058 434.136 152.058 434.136L138.958 436.407C138.958 436.407 123.357 404.996 122.091 396.627C119.962 382.529 114.497 382.457 112.291 381.168C110.079 379.889 99.4517 382.294 61.6422 379.278C57.864 378.979 47.5323 378.794 44.8597 374.715C40.026 367.346 35.1497 358.978 42.6534 351.569C50.1572 344.163 76.785 348.433 76.785 348.433Z" fill="#34334B"/>
<path d="M93.9862 243.346C93.9862 243.346 98.4263 251.01 97.4109 253.096C96.4031 255.182 102.049 260.236 101.119 261.306C100.194 262.374 98.2834 263.671 98.3135 263.984C98.3461 264.292 96.6738 274.281 94.4952 274.501C92.324 274.727 77.4344 273.947 76.2009 269.301C74.9674 264.641 71.3346 254.444 70.4822 252.544C69.6223 250.656 78.2066 236.025 93.9862 243.346Z" fill="#FCD2B1"/>
<path d="M75.6342 241.861C74.3932 242.781 73.3929 243.757 72.5906 244.754C71.6154 245.211 65.8616 248.069 67.0549 251.16C68.6695 255.322 75.178 266.463 75.7245 267.622C75.7972 267.777 75.7972 267.484 75.7445 266.862C76.1457 262.926 80.9894 258.518 80.9894 258.518L83.5692 257.348C82.2229 254.846 82.7544 252.504 82.7544 252.504C85.6801 249.37 95.3952 245.995 95.3952 245.995C95.3926 218.989 82.1451 237.035 75.6342 241.861Z" fill="#072735"/>
<path d="M80.0317 255.264C79.3422 254.211 75.717 254.382 76.241 257.478C76.775 260.567 81.2201 263.051 82.1903 261.67C83.1606 260.294 80.7612 256.375 80.0317 255.264Z" fill="#FCD2B1"/>
<path d="M72.8338 273.877C72.8338 273.877 54.8429 284.362 50.7839 302.668C46.7224 320.973 39.3842 353.119 39.2513 356.93C39.2513 356.93 63.5977 345.211 76.785 348.433C76.785 348.433 85.0885 318.609 89.4584 311.556C93.8257 304.509 87.3323 287.949 87.3323 287.949C87.3323 287.949 81.1298 278.009 72.8338 273.877Z" fill="#FF8C4A"/>
<path d="M88.2751 274.205C87.9191 275.038 87.543 276.193 87.1769 277.472C85.0509 276.585 80.9944 272.844 80.8691 272.726C82.5639 273.383 88.2751 274.205 88.2751 274.205Z" fill="#997761"/>
<path d="M229.392 342.529H215.911H171.049H118.721C117.049 342.529 115.693 344.163 115.693 346.181V348.35H159.502H218.945H233.263V346.181C233.263 344.163 231.528 342.529 229.392 342.529Z" fill="#FCD2B1"/>
<path d="M80.7286 288.057C80.7286 288.057 85.0133 294.129 87.6633 298.722C90.6643 303.932 93.6176 309.079 94.2694 310.24C95.5932 312.592 100.307 313.848 102.392 314.745C104.315 315.567 136.263 332.666 136.669 332.633C137.078 332.598 133.227 339.009 133.227 339.009C133.227 339.009 88.8642 326.288 86.8685 324.46C84.8729 322.638 78.9536 314.344 76.5318 310.927C74.2252 307.67 70.6877 302.332 68.8149 300.031C66.7115 297.461 62.314 288.656 67.9073 284.269C75.0551 278.656 79.0088 285.477 80.7286 288.057Z" fill="#FF8C4A"/>
<path d="M128.73 348.35H125.027V461.009H128.73V348.35Z" fill="#34334B"/>
<path d="M226.093 348.35H222.385V461.009H226.093V348.35Z" fill="#34334B"/>
<path d="M584.286 365.258C584.286 365.258 582.852 365.2 580.37 365.103C576.319 364.947 569.514 364.671 561.803 364.333C555.567 364.077 548.721 363.764 542.29 363.45C534.601 363.074 527.458 362.701 522.577 362.35C518.528 362.071 516.01 361.816 516.01 361.62C517.033 352.474 523.384 329.537 528.087 313.409C529.426 308.801 530.627 304.752 531.527 301.741L532.021 301.941L538.983 304.792C540.4 305.361 541.971 304.341 541.992 302.784C541.992 302.608 541.992 302.413 542.014 302.215C542.034 300.54 542.069 298.414 542.112 295.982C547.485 295.884 554.464 295.761 560.74 295.721C560.857 296.406 560.955 297.057 561.076 297.709C561.133 298.1 561.191 298.474 561.274 298.85C561.411 299.718 561.567 300.565 561.705 301.327C561.725 301.425 561.745 301.543 561.762 301.64C561.84 302.097 561.9 302.508 561.981 302.924C562.078 303.493 562.176 304.025 562.251 304.516C562.625 306.68 564.851 307.978 566.915 307.291L581.06 302.488L581.413 302.37C592.783 322.79 584.286 365.258 584.286 365.258Z" fill="#FF8C4A"/>
<path d="M572.129 197.621C571.64 198.566 571.109 199.471 570.537 200.319C569.963 201.181 569.354 201.989 568.724 202.738C561.213 198.704 548.031 185.64 544.02 181.571C547.733 171.48 557.335 170.535 561.702 171.224C567.621 172.209 571.339 174.451 573.445 177.399C577.499 183.005 575.652 191.108 572.129 197.621Z" fill="#072735"/>
<path d="M573.2 175.991L549.716 172.585C549.211 172.512 548.771 172.205 548.527 171.757C548.284 171.309 548.265 170.772 548.479 170.309L558.009 149.57C558.058 149.464 558.118 149.363 558.189 149.269L564.632 140.755L564.799 130.304C564.811 129.562 565.325 128.924 566.046 128.755C566.768 128.585 567.512 128.927 567.853 129.586L575.097 143.573C575.327 144.018 575.339 144.544 575.127 144.998L571.855 152.044L575.033 174.16C575.106 174.665 574.936 175.175 574.575 175.535C574.214 175.895 573.705 176.064 573.2 175.991V175.991Z" fill="#34334B"/>
<path d="M571.855 152.044L575.128 144.998C575.339 144.544 575.327 144.018 575.097 143.573L567.922 129.718L561.458 174.288L573.2 175.991C573.705 176.064 574.214 175.895 574.575 175.535C574.936 175.174 575.106 174.665 575.033 174.16L571.855 152.044Z" fill="#34334B"/>
<path d="M574.56 185.451L545.725 181.269C545.221 181.196 544.78 180.889 544.536 180.441C544.293 179.993 544.275 179.456 544.487 178.992L548.479 170.309L575.034 174.16L576.394 183.62C576.466 184.125 576.296 184.634 575.935 184.994C575.575 185.355 575.065 185.524 574.56 185.451V185.451Z" fill="#FF8C4A"/>
<path d="M575.033 174.16L561.756 172.234L560.142 183.36L574.56 185.451C575.065 185.524 575.575 185.355 575.936 184.994C576.296 184.634 576.466 184.125 576.394 183.62L575.033 174.16Z" fill="#FF8C4A"/>
<path d="M582.048 186.537L538.238 180.183C537.354 180.055 536.741 179.234 536.869 178.35C536.997 177.466 537.818 176.853 538.702 176.981L582.512 183.335C583.396 183.463 584.009 184.284 583.881 185.168C583.752 186.052 582.932 186.665 582.048 186.537Z" fill="#34334B"/>
<path d="M582.512 183.335L560.606 180.158L560.142 183.36L582.047 186.537C582.931 186.665 583.752 186.052 583.88 185.168C584.009 184.284 583.396 183.463 582.512 183.335V183.335Z" fill="#34334B"/>
<path d="M571.978 252.872L571.925 254.71L570.486 253.567L571.978 252.872Z" fill="white"/>
<path d="M570.486 253.567L571.978 252.872L566.457 241.035L564.966 241.731L570.486 253.567Z" fill="#FF8C4A"/>
<path d="M571.947 253.99L571.925 254.71L571.363 254.263L571.947 253.99Z" fill="#FF8C4A"/>
<path d="M562.336 252.219L563.825 252.915L568.456 242.988L566.965 242.293L562.336 252.219Z" fill="#4E4C82"/>
<path d="M567.197 241.797L568.687 242.492L569.06 241.696L567.566 241L567.197 241.797Z" fill="#4E4C82"/>
<path d="M562.091 254.182L562.479 254.365L563.825 252.915L562.336 252.219L562.091 254.182Z" fill="#FCD2B1"/>
<path d="M562.022 254.641L562.172 254.71L562.36 254.307L562.21 254.239L562.022 254.641Z" fill="white"/>
<path d="M568.314 242.92L567.106 242.357L567.337 241.863L568.544 242.425L568.314 242.92Z" fill="white"/>
<path d="M564.423 246.933L566.282 242.949C566.297 242.916 566.327 242.888 566.361 242.876C566.395 242.863 566.434 242.865 566.469 242.879L566.651 242.965L566.77 242.709L566.588 242.624C566.488 242.576 566.37 242.571 566.262 242.61C566.161 242.649 566.073 242.726 566.026 242.828L564.166 246.814L564.423 246.933Z" fill="#FCD2B1"/>
<path d="M572 249.649H562V248.004H572V249.649ZM571.181 248.827C571.181 248.942 571.273 249.035 571.389 249.035C571.503 249.035 571.597 248.942 571.597 248.827C571.597 248.712 571.503 248.619 571.389 248.619C571.273 248.619 571.181 248.712 571.181 248.827Z" fill="#4E4C82"/>
<path d="M570.725 248.004H570.775V248.422H570.725V248.004Z" fill="#FCD2B1"/>
<path d="M569.891 248.004H569.942V248.422H569.891V248.004Z" fill="#FCD2B1"/>
<path d="M569.06 248.004H569.107V248.422H569.06V248.004Z" fill="#FCD2B1"/>
<path d="M568.225 248.004H568.275V248.422H568.225V248.004Z" fill="#FCD2B1"/>
<path d="M567.391 248.004H567.443V248.422H567.391V248.004Z" fill="#FCD2B1"/>
<path d="M566.557 248.004H566.608V248.422H566.557V248.004Z" fill="#FCD2B1"/>
<path d="M565.725 248.004H565.776V248.422H565.725V248.004Z" fill="#FCD2B1"/>
<path d="M564.891 248.004H564.941V248.422H564.891V248.004Z" fill="#FCD2B1"/>
<path d="M564.058 248.004H564.109V248.422H564.058V248.004Z" fill="#FCD2B1"/>
<path d="M563.226 248.004H563.276V248.422H563.226V248.004Z" fill="#FCD2B1"/>
<path d="M562.392 248.004H562.443V248.422H562.392V248.004Z" fill="#FCD2B1"/>
<path d="M562.815 248.004H562.856V248.213H562.815V248.004Z" fill="#FCD2B1"/>
<path d="M563.646 248.004H563.686V248.213H563.646V248.004Z" fill="#FCD2B1"/>
<path d="M564.477 248.004H564.519V248.213H564.477V248.004Z" fill="#FCD2B1"/>
<path d="M565.311 248.004H565.351V248.213H565.311V248.004Z" fill="#FCD2B1"/>
<path d="M566.147 248.004H566.189V248.213H566.147V248.004Z" fill="#FCD2B1"/>
<path d="M566.98 248.004H567.022V248.213H566.98V248.004Z" fill="#FCD2B1"/>
<path d="M567.813 248.004H567.855V248.213H567.813V248.004Z" fill="#FCD2B1"/>
<path d="M568.645 248.004H568.688V248.213H568.645V248.004Z" fill="#FCD2B1"/>
<path d="M569.479 248.004H569.521V248.213H569.479V248.004Z" fill="#FCD2B1"/>
<path d="M570.313 248.004H570.354V248.213H570.313V248.004Z" fill="#FCD2B1"/>
<path d="M87.7805 230.632L67.2372 242.509C66.7955 242.765 66.2596 242.797 65.7905 242.596C65.3219 242.395 64.975 241.985 64.8551 241.489L59.4861 219.306C59.4585 219.192 59.4436 219.076 59.4412 218.958L59.2229 208.283L52.8781 199.976C52.4284 199.387 52.4365 198.568 52.8974 197.987C53.3587 197.407 54.1549 197.215 54.8303 197.52L69.1825 204.011C69.6391 204.217 69.9741 204.623 70.0898 205.111L71.887 212.668L88.0847 228.059C88.4545 228.41 88.6371 228.915 88.577 229.421C88.5171 229.928 88.2219 230.377 87.7805 230.632V230.632Z" fill="#34334B"/>
<path d="M71.887 212.668L70.0901 205.111C69.9743 204.624 69.6391 204.217 69.1829 204.011L54.9662 197.582L77.5083 236.571L87.7805 230.632C88.2219 230.377 88.5171 229.928 88.577 229.421C88.6369 228.915 88.4545 228.41 88.0847 228.059L71.887 212.668Z" fill="#34334B"/>
<path d="M94.7092 237.214L69.4848 251.798C69.0434 252.053 68.5072 252.086 68.0381 251.885C67.5697 251.684 67.2229 251.274 67.1026 250.778L64.8551 241.489L88.0848 228.059L95.0134 234.641C95.3833 234.992 95.5658 235.497 95.5057 236.004C95.4458 236.511 95.1506 236.959 94.7092 237.214V237.214Z" fill="#FF8C4A"/>
<path d="M88.0847 228.059L76.4699 234.774L82.0968 244.506L94.7092 237.214C95.1506 236.959 95.4462 236.51 95.5061 236.004C95.5658 235.498 95.3833 234.992 95.0138 234.641L88.0847 228.059Z" fill="#FF8C4A"/>
<path d="M101.259 233.427L62.935 255.585C62.1616 256.032 61.1721 255.768 60.725 254.994C60.2778 254.221 60.5423 253.231 61.3157 252.784L99.6396 230.627C100.413 230.179 101.402 230.444 101.85 231.217C102.297 231.991 102.032 232.98 101.259 233.427Z" fill="#34334B"/>
<path d="M99.6396 230.627L80.4771 241.706L82.0964 244.506L101.259 233.428C102.032 232.98 102.296 231.991 101.849 231.217C101.402 230.444 100.413 230.179 99.6396 230.627V230.627Z" fill="#34334B"/>
<defs>
<filter id="filter0_d" x="33" y="52" width="584" height="319" filterUnits="userSpaceOnUse" color-interpolation-filters="sRGB">
<feFlood flood-opacity="0" result="BackgroundImageFix"/>
<feColorMatrix in="SourceAlpha" type="matrix" values="0 0 0 0 0 0 0 0 0 0 0 0 0 0 0 0 0 0 127 0"/>
<feOffset/>
<feGaussianBlur stdDeviation="22.5"/>
<feColorMatrix type="matrix" values="0 0 0 0 0.792157 0 0 0 0 0.819608 0 0 0 0 0.866667 0 0 0 0.47 0"/>
<feBlend mode="normal" in2="BackgroundImageFix" result="effect1_dropShadow"/>
<feBlend mode="normal" in="SourceGraphic" in2="effect1_dropShadow" result="shape"/>
</filter>
</defs>
</svg>
