<svg width="711" height="586" viewBox="0 0 711 586" fill="none" xmlns="http://www.w3.org/2000/svg">
<path d="M49.975 529.75C31.9947 505.248 9.82646 441.708 2.21937 362.795C-6.90914 268.29 10.8331 154.592 79.5736 123.091C146.793 92.2254 185.105 179.571 272.102 157.774C358.823 136.137 360.483 39.4043 453.289 8.69803C520.232 -13.4168 595.334 11.7209 639.456 52.1322C732.124 136.614 750.242 342.967 645.679 529.75H49.975Z" fill="#D3D3D3" fill-opacity="0.23"/>
<path d="M97.9057 491.189L79.1025 567.578H74.9583L90.9084 491.024L97.9057 491.189Z" fill="#34334B"/>
<path d="M118.426 491.189L99.618 567.578H95.4738L111.424 491.024L118.426 491.189Z" fill="#34334B"/>
<path d="M151.615 491.189L170.423 567.578H174.565L158.617 491.024L151.615 491.189Z" fill="#34334B"/>
<path d="M169.416 498.808H88.3737C88.3737 498.808 82.7302 491.811 78.947 475.52C74.695 457.195 66.1057 395.997 66.1057 395.997C66.1057 395.997 68.3821 390.304 104.01 391.033L167.806 471.656C167.806 471.656 169.987 491.242 169.416 498.808Z" fill="#D3D3D3"/>
<path d="M630.676 103.582V332.731L627.547 340.345L625.363 338.397C622.846 344.727 620.585 352.577 620.898 359.835C621.054 363.493 621.588 368.492 622.315 374.02L630.122 374.925V377.5L628.507 378.054L623.157 379.882C623.137 379.922 623.137 379.939 623.119 379.979C624.238 387.849 625.594 396.127 626.735 402.719C620.459 402.759 613.48 402.879 608.107 402.979C608.162 398.925 608.262 394.029 608.343 388.93C607.731 388.95 607.044 388.95 606.334 388.95C605.57 388.95 604.783 388.93 604.013 388.91C602.579 388.89 601.222 388.852 600.315 388.812C600.335 389.027 600.373 389.188 600.413 389.301C600.413 389.301 599.625 389.223 598.327 389.065C597.091 399.294 595.79 408.024 595.79 408.024L597.517 408.733C596.617 411.744 595.416 415.793 594.077 420.401H174.49C161.821 420.401 151.535 410.112 151.535 397.426V103.582C151.535 90.8912 161.824 80.6021 174.49 80.6021H607.693C620.387 80.6021 630.676 90.8912 630.676 103.582Z" fill="#34334B"/>
<path d="M308.499 123.361H212.51C209.095 123.361 206.32 120.593 206.32 117.181V116.393C206.32 112.976 209.093 110.208 212.51 110.208H308.499C311.914 110.208 314.684 112.976 314.684 116.393V117.181C314.684 120.595 311.914 123.361 308.499 123.361Z" fill="#FF8C4A"/>
<path d="M336.684 162.431H240.7C237.283 162.431 234.51 159.663 234.51 156.246V155.466C234.51 152.049 237.28 149.276 240.7 149.276H336.684C340.101 149.276 342.864 152.047 342.864 155.466V156.246C342.864 159.666 340.104 162.431 336.684 162.431Z" fill="#FF8C4A"/>
<path d="M581.83 162.431H363.387C359.97 162.431 357.199 159.663 357.199 156.246V155.466C357.199 152.049 359.967 149.276 363.387 149.276H581.83C585.245 149.276 588.015 152.047 588.015 155.466V156.246C588.013 159.666 585.245 162.431 581.83 162.431Z" fill="#4E4C82"/>
<path d="M391.103 190.23H240.7C237.283 190.23 234.51 187.462 234.51 184.045V183.263C234.51 179.845 237.28 177.078 240.7 177.078H391.103C394.518 177.078 397.285 179.845 397.285 183.263V184.045C397.285 187.462 394.52 190.23 391.103 190.23Z" fill="#FF8C4A"/>
<path d="M581.83 190.23H431.427C428.01 190.23 425.242 187.462 425.242 184.045V183.263C425.242 179.845 428.01 177.078 431.427 177.078H581.83C585.245 177.078 588.015 179.845 588.015 183.263V184.045C588.013 187.462 585.245 190.23 581.83 190.23Z" fill="#4E4C82"/>
<path d="M437.609 218.023H240.7C237.283 218.023 234.51 215.256 234.51 211.843V211.061C234.51 207.649 237.28 204.876 240.7 204.876H437.609C441.022 204.876 443.794 207.647 443.794 211.061V211.843C443.794 215.256 441.024 218.023 437.609 218.023Z" fill="#FF8C4A"/>
<path d="M581.434 218.023H491.898C488.265 218.023 485.319 215.085 485.319 211.452C485.319 207.82 488.265 204.876 491.898 204.876H581.434C585.067 204.876 588.012 207.82 588.012 211.452C588.012 215.085 585.069 218.023 581.434 218.023Z" fill="#4E4C82"/>
<path d="M212.901 162.441C216.536 162.441 219.482 159.495 219.482 155.86C219.482 152.225 216.536 149.279 212.901 149.279C209.266 149.279 206.32 152.225 206.32 155.86C206.32 159.495 209.266 162.441 212.901 162.441Z" fill="white"/>
<path d="M212.901 190.235C216.536 190.235 219.482 187.288 219.482 183.654C219.482 180.019 216.536 177.073 212.901 177.073C209.266 177.073 206.32 180.019 206.32 183.654C206.32 187.288 209.266 190.235 212.901 190.235Z" fill="white"/>
<path d="M212.901 218.034C216.536 218.034 219.482 215.087 219.482 211.452C219.482 207.818 216.536 204.871 212.901 204.871C209.266 204.871 206.32 207.818 206.32 211.452C206.32 215.087 209.266 218.034 212.901 218.034Z" fill="white"/>
<path d="M336.684 302.726H240.7C237.283 302.726 234.51 299.955 234.51 296.541V295.758C234.51 292.346 237.28 289.578 240.7 289.578H336.684C340.101 289.578 342.864 292.346 342.864 295.758V296.541C342.864 299.955 340.104 302.726 336.684 302.726Z" fill="#FF8C4A"/>
<path d="M434.867 302.726H363.776C360.14 302.726 357.199 299.782 357.199 296.15C357.199 292.517 360.14 289.578 363.776 289.578H434.867C438.499 289.578 441.448 292.517 441.448 296.15C441.448 299.782 438.502 302.726 434.867 302.726Z" fill="#4E4C82"/>
<path d="M339.78 340.524H240.7C237.283 340.524 234.51 337.756 234.51 334.339V333.557C234.51 330.145 237.28 327.372 240.7 327.372H339.78C343.192 327.372 345.965 330.142 345.965 333.557V334.339C345.965 337.756 343.192 340.524 339.78 340.524Z" fill="#FF8C4A"/>
<path d="M581.83 340.524H363.387C359.97 340.524 357.199 337.756 357.199 334.339V333.557C357.199 330.145 359.967 327.372 363.387 327.372H581.83C585.245 327.372 588.015 330.142 588.015 333.557V334.339C588.013 337.756 585.245 340.524 581.83 340.524Z" fill="#4E4C82"/>
<path d="M576.165 303.152H462.576C458.943 303.152 456 300.204 456 296.571C456 292.943 458.943 290 462.576 290H576.165C579.798 290 582.744 292.943 582.744 296.571C582.744 300.204 579.8 303.152 576.165 303.152Z" fill="#4E4C82"/>
<path d="M212.901 302.731C216.536 302.731 219.482 299.784 219.482 296.15C219.482 292.515 216.536 289.568 212.901 289.568C209.266 289.568 206.32 292.515 206.32 296.15C206.32 299.784 209.266 302.731 212.901 302.731Z" fill="white"/>
<path d="M212.901 340.524C216.536 340.524 219.482 337.578 219.482 333.943C219.482 330.309 216.536 327.362 212.901 327.362C209.266 327.362 206.32 330.309 206.32 333.943C206.32 337.578 209.266 340.524 212.901 340.524Z" fill="white"/>
<path d="M693.739 348.054C693.719 348.074 693.699 348.074 693.699 348.074C693.679 348.114 693.641 348.152 693.601 348.192C691.159 350.318 687.797 351.183 687.446 351.659C687.248 351.932 686.579 352.482 686.065 352.898C685.711 353.166 685.438 353.369 685.438 353.369L680.594 349.099C680.594 349.099 681.54 348.232 682.171 347.151C682.603 346.447 682.881 345.62 682.68 344.908C682.229 343.376 682.896 341.666 683.056 340.956C683.272 340.011 683.37 336.965 684.074 337.143C685.26 337.416 684.979 342.295 685.12 343.338C685.26 344.186 687.459 341.924 688.798 341.077C688.798 341.077 688.898 340.999 689.074 340.881C689.229 340.783 689.367 340.726 689.485 340.706C689.801 340.643 690.45 341.059 691.177 341.709C691.22 341.749 691.237 341.786 691.277 341.826C691.809 342.298 692.358 342.909 692.849 343.574C692.869 343.594 692.869 343.614 692.889 343.636C693.361 344.283 693.777 344.993 693.99 345.66C694.012 345.68 694.012 345.717 694.03 345.758C694.313 346.62 694.288 347.447 693.739 348.054Z" fill="#EEA987"/>
<path d="M688.81 341.072C688.81 341.072 696.692 335.03 697.55 335.065C698.415 335.11 698.718 335.549 698.004 336.148C697.289 336.747 690.558 342.205 690.558 342.205C690.558 342.205 701.085 336.622 701.802 336.496C702.216 336.424 702.532 337.221 702.178 337.579C701.825 337.933 692.027 344.093 692.027 344.093C692.027 344.093 701.865 338.898 702.491 338.976C703.045 339.038 703.437 339.951 702.732 340.382C702.033 340.819 693.168 346.156 693.168 346.156C693.168 346.156 700.568 342.832 701.062 343.203C701.361 343.433 701.789 343.937 699.854 344.74C697.921 345.537 693.704 348.089 693.704 348.089L688.81 341.072Z" fill="#EEA987"/>
<path d="M649.985 343.481L646.943 336.369C646.927 336.32 646.911 336.268 646.879 336.219C644.733 331.049 640.884 329.287 638 328.735L638.014 315.647V310.248C640.824 304.692 642.3 297.781 639.064 293C640.728 293.039 644.073 293.368 647.039 295.367C650.145 297.431 652.828 301.322 652.656 308.601C652.245 325.633 649.955 328.973 652.672 340.01C653.676 344.103 652.264 344.603 649.985 343.481Z" fill="#1A282B"/>
<path d="M581.988 565.344L581.968 565.364C581.945 565.677 581.89 565.976 581.792 566.206C581.356 567.254 581.023 568.571 580.709 570.045C579.528 575.573 578.721 583.069 575.181 584.466C570.696 586.253 563.338 586.017 562.377 584.466C561.59 583.182 566.173 576.302 567.843 573.898C567.843 573.898 567.823 573.898 567.843 573.878C568.201 573.369 568.417 573.076 568.417 573.076C573.532 567.625 573.649 562.513 573.293 560.011C573.155 559.008 572.94 558.419 572.94 558.419C572.94 558.419 574.77 557.552 576.836 557.494C577.307 557.474 577.799 557.494 578.27 557.572C578.842 557.67 579.373 558.046 579.847 558.615C579.884 558.635 579.885 558.655 579.902 558.673C579.92 558.69 579.945 558.713 579.96 558.75C581.301 560.428 582.146 563.494 581.988 565.344Z" fill="#34334B"/>
<path d="M579.902 558.655C579.902 558.655 579.902 558.655 579.902 558.675C579.882 558.733 579.862 558.813 579.824 558.931L579.804 558.956V558.971C579.804 558.991 579.804 558.991 579.804 558.991C579.609 559.7 579.177 561.43 578.801 564.226C578.29 568.217 576.773 574.886 574.434 577.187C572.095 579.489 566.331 578.682 566.116 577.799C566.018 577.408 566.845 575.831 567.843 573.901C567.843 573.901 567.823 573.901 567.843 573.88C569.106 571.424 570.638 568.392 570.874 566.545C571.207 564.048 571.917 561.49 572.391 559.913C572.679 558.953 572.9 558.342 572.9 558.342C573.92 557.241 575.457 557.201 576.833 557.494C578.287 557.792 579.569 558.459 579.844 558.615C579.882 558.635 579.902 558.655 579.902 558.655Z" fill="#EEA886"/>
<path d="M643.166 565.344V565.422C643.144 565.715 643.068 565.996 642.986 566.204C642.554 567.272 642.221 568.628 641.887 570.14C640.702 575.648 639.879 583.066 636.377 584.463C631.892 586.25 624.518 586.015 623.573 584.463C622.61 582.906 629.357 573.231 629.357 573.231L629.38 573.211C635.552 566.58 634.451 560.445 634.04 558.888C633.958 558.652 633.917 558.517 633.917 558.517L633.942 558.497C634.236 558.379 637.051 557.141 639.468 557.572C639.706 557.612 639.922 557.69 640.138 557.828C642.045 558.911 643.382 563.062 643.166 565.344Z" fill="#34334B"/>
<path d="M640 564.223C639.784 568.235 637.971 574.883 635.632 577.185C633.273 579.486 627.509 578.679 627.294 577.797C627.191 577.36 628.199 575.455 629.357 573.234L629.38 573.214C630.636 570.789 632.09 568.019 632.523 566.329C633.253 563.616 633.742 559.954 633.88 558.858C633.902 558.637 633.92 558.52 633.92 558.52L633.945 558.5C636.186 556.08 639.471 557.574 639.471 557.574C639.471 557.574 639.526 557.795 639.626 558.226C639.819 559.229 640.155 561.368 640 564.223Z" fill="#EEA886"/>
<path d="M608.347 388.932C608.27 394.029 608.169 398.925 608.112 402.982C608.069 405.416 608.034 407.54 608.014 409.215C607.991 409.41 607.991 409.606 607.991 409.784C607.971 411.341 606.399 412.358 604.983 411.792L598.021 408.941L597.527 408.741L595.799 408.031C595.799 408.031 597.101 399.301 598.337 389.073C599.635 389.228 600.423 389.308 600.423 389.308C600.382 389.195 600.345 389.035 600.325 388.819C601.23 388.859 602.586 388.897 604.023 388.917C604.792 388.937 605.58 388.957 606.344 388.957C607.049 388.952 607.736 388.952 608.347 388.932Z" fill="#34334B"/>
<path d="M608.287 470.45C608.19 470.764 608.069 471.097 607.954 471.411C606.753 474.795 598.409 494.293 598.409 509.218C598.409 519.291 583.52 553.483 579.96 558.753C579.942 558.713 579.92 558.695 579.902 558.675C579.902 558.655 579.902 558.655 579.902 558.655C579.902 558.655 579.882 558.635 579.847 558.615C579.376 558.046 578.842 557.67 578.27 557.572C577.799 557.494 577.307 557.474 576.836 557.494C575.457 557.201 573.923 557.238 572.902 558.342C572.902 558.342 572.682 558.953 572.393 559.914C572.393 559.914 581.441 517.01 581.163 514.849C580.89 512.705 586.731 489.905 587.145 483.863C587.28 481.757 587.832 476.131 588.577 469.35C593.455 469.703 600.598 470.074 608.287 470.45Z" fill="#EEA886"/>
<path d="M646.37 472.103C646.215 474.188 646.057 476.367 645.919 478.674C645.663 482.983 645.508 496.675 645.37 506.605C645.229 516.227 641.216 554.939 640.135 557.83C639.919 557.692 639.704 557.615 639.466 557.574C639.466 557.574 636.179 556.08 633.94 558.5L633.915 558.52C633.915 558.52 633.897 558.637 633.875 558.858C633.875 558.858 630.886 520.753 630.197 512.414C629.512 504.05 630.47 487.491 629.212 482.59C628.858 481.136 628.349 476.826 627.798 471.338C635.514 471.671 642.319 471.945 646.37 472.103Z" fill="#EEA886"/>
<path d="M623.122 379.982C624.24 387.852 625.596 396.13 626.737 402.721C620.462 402.761 613.482 402.882 608.109 402.982C608.164 398.928 608.265 394.032 608.345 388.932C607.733 388.952 607.046 388.952 606.337 388.952C606.969 388.145 607.658 387.303 608.383 386.495C609.054 385.708 609.759 384.943 610.509 384.194C610.684 383.998 610.882 383.823 611.08 383.625C612.893 381.872 614.878 380.295 616.982 379.155C617.491 378.841 618.025 378.585 618.554 378.372C619.91 377.761 621.327 377.349 622.746 377.186C622.884 377.186 623.001 377.171 623.119 377.171C623.806 377.131 624.473 377.131 625.163 377.186C626.263 377.309 627.386 377.583 628.504 378.059L623.154 379.887C623.139 379.922 623.139 379.942 623.122 379.982Z" fill="#313657"/>
<path d="M581.983 565.344V575.638H580.699V567.681L581.983 565.344Z" fill="#34334B"/>
<path d="M643.174 565.344V575.638H641.895V567.681L643.174 565.344Z" fill="#34334B"/>
<path d="M632.782 311.721C632.366 314.594 631.796 319.591 632.072 323.645C632.112 324.41 632.187 325.139 632.308 325.809C632.308 325.829 632.308 325.829 632.308 325.849C632.328 326.004 632.365 326.162 632.386 326.32C632.503 326.791 632.624 327.245 632.757 327.641L631.521 330.667C631.262 330.707 630.969 330.745 630.676 330.765C630.102 330.785 629.49 330.785 628.825 330.765C628.096 330.725 627.311 330.647 626.521 330.57H626.504C626.426 330.55 626.348 330.549 626.268 330.529C625.915 330.489 625.539 330.432 625.185 330.392H625.165C622.686 330.038 620.306 329.524 619.008 329.231H618.985C618.378 329.093 618.002 328.99 618.002 328.99C618.002 328.99 618.652 327.458 619.459 325.214C619.517 325.019 619.597 324.803 619.675 324.583L620.206 322.991V322.971L620.224 322.95C620.444 322.246 620.68 321.496 620.896 320.727C620.953 320.531 621.016 320.316 621.051 320.1C621.209 319.526 621.349 318.959 621.467 318.385C621.52 318.052 621.605 317.738 621.66 317.42C622.094 315 622.214 312.699 621.66 311.044C620.346 307.151 626.933 308.018 630.673 308.805C632.107 309.099 633.13 309.392 633.13 309.392C633.13 309.392 632.977 310.307 632.782 311.721Z" fill="#EEA886"/>
<path d="M632.386 326.318C632.13 326.298 631.934 326.277 631.799 326.26C631.681 326.26 631.618 326.26 631.618 326.26L631.285 326.24L630.678 326.182L629.929 326.125L629.518 326.084L619.484 325.217C619.484 325.217 619.484 325.217 619.464 325.217C619.386 325.237 619.128 325.275 618.714 325.355C618.559 325.375 618.399 325.413 618.203 325.453C617.947 325.493 617.654 325.55 617.318 325.608C614.43 326.182 609.097 327.323 604.65 328.855C600.087 330.432 594.518 337.003 591.645 340.733C590.427 342.31 589.68 343.373 589.68 343.373C589.68 343.373 592.034 348.922 594.849 355.748C596.622 360.096 598.588 364.954 600.24 369.224C600.24 369.224 600.24 369.224 600.24 369.244C600.556 370.051 600.849 370.796 601.125 371.546C602.248 374.519 603.153 377.074 603.624 378.743C603.88 379.648 604.035 380.691 604.116 381.872C604.133 381.892 604.133 381.93 604.133 381.95C604.196 382.72 604.213 383.522 604.213 384.369C604.213 385.803 604.133 387.343 604.015 388.912C604.785 388.932 605.572 388.952 606.337 388.952C607.046 388.952 607.733 388.952 608.345 388.932C608.267 394.029 608.167 398.926 608.109 402.982C613.482 402.884 620.462 402.761 626.737 402.721C625.596 396.13 624.24 387.849 623.122 379.982C623.14 379.942 623.14 379.924 623.16 379.884L628.51 378.056L630.124 377.502V374.928L622.317 374.023C621.59 368.494 621.056 363.495 620.901 359.837C620.587 352.579 622.849 344.732 625.366 338.399L627.55 340.347L630.678 332.733L631.523 330.667L632.759 327.641L633.273 326.398C632.937 326.358 632.621 326.338 632.386 326.318Z" fill="#F2F2F2"/>
<path d="M632.298 325.839L618 337.492L619.477 325.217C619.477 325.217 627.81 323.419 632.298 325.839Z" fill="#EEA886"/>
<path d="M630.122 374.928V377.502L628.507 378.056L623.157 379.884C623.137 379.924 623.137 379.942 623.119 379.982V379.884C623.059 379.473 622.999 379.077 622.941 378.683C622.919 378.528 622.901 378.37 622.884 378.232C622.826 377.914 622.786 377.6 622.746 377.282V377.184C622.588 376.106 622.452 375.063 622.312 374.02L630.122 374.928Z" fill="#494F80"/>
<path d="M633.429 326.395H633.273L632.759 327.639L631.523 330.665L630.678 332.731L627.549 340.345L625.366 338.397C626.547 335.463 627.788 332.848 628.828 330.763C629.558 329.308 630.204 328.128 630.678 327.263C630.716 327.205 630.736 327.165 630.776 327.107V327.087C630.794 327.087 630.794 327.067 630.794 327.067C630.992 326.734 631.15 326.455 631.285 326.24C631.501 325.869 631.618 325.671 631.618 325.671C631.799 325.711 631.952 325.728 632.132 325.768H632.152C632.21 325.783 632.27 325.784 632.308 325.809C632.679 325.881 633.058 325.964 633.409 326.064C633.409 326.182 633.408 326.297 633.429 326.395Z" fill="#494F80"/>
<path d="M618.674 325.671C618.674 325.671 616.746 330.018 614.6 336.038C611.945 343.451 608.977 353.367 608.819 360.76C608.759 363.673 608.679 367.762 608.603 372.408C608.561 375.003 608.526 377.756 608.463 380.591C608.463 381.022 608.463 381.454 608.443 381.89C608.423 382.875 608.423 383.878 608.403 384.858C608.403 384.878 608.403 384.878 608.403 384.903C608.383 385.412 608.383 385.961 608.383 386.495C608.363 387.323 608.343 388.125 608.343 388.935C607.731 388.955 607.044 388.955 606.334 388.955C605.57 388.955 604.783 388.935 604.013 388.915C602.579 388.895 601.222 388.857 600.315 388.817C600.335 389.032 600.373 389.193 600.413 389.306C600.413 389.306 599.625 389.228 598.327 389.07C598.545 387.225 598.763 385.294 598.979 383.384C598.996 383.168 599.019 382.933 599.034 382.717C599.212 381.2 599.37 379.686 599.505 378.187C599.743 375.85 599.939 373.569 600.079 371.425C600.137 370.675 600.197 369.951 600.235 369.241C600.235 369.221 600.235 369.221 600.235 369.221C600.373 366.955 600.45 364.892 600.45 363.139L594.844 355.746L587.233 345.692C587.233 345.692 588.865 343.489 591.167 340.673C594.569 336.506 599.447 330.998 602.614 329.426C607.021 327.223 614.989 325.768 617.486 325.352L617.506 325.332C617.997 325.254 618.276 325.214 618.276 325.214L618.195 325.45L618.04 325.881C618.175 325.829 618.293 325.768 618.451 325.748H618.471C618.536 325.711 618.614 325.686 618.674 325.671Z" fill="#34334B"/>
<path d="M623.237 379.47C623.22 379.608 623.197 379.744 623.159 379.882C623.139 379.922 623.139 379.939 623.122 379.979C621.821 384.229 612.224 388.401 610.727 388.774C610.356 388.872 609.468 388.93 608.348 388.93C607.736 388.95 607.049 388.95 606.339 388.95C605.575 388.95 604.787 388.93 604.018 388.91C602.584 388.889 601.227 388.852 600.32 388.812C599.63 388.792 599.199 388.772 599.199 388.772V383.442H599.239C599.342 383.401 599.751 383.266 600.36 383.05C601.227 382.772 602.523 382.361 604.06 381.89C604.078 381.89 604.103 381.87 604.118 381.87C604.963 381.614 605.908 381.341 606.871 381.042C607.402 380.904 607.931 380.749 608.465 380.591C611.928 379.646 615.688 378.721 618.556 378.367C619.01 378.29 619.424 378.249 619.815 378.229C620.976 378.132 621.901 378.184 622.49 378.405C622.666 378.483 622.826 378.56 622.944 378.678C623.179 378.864 623.297 379.114 623.237 379.47Z" fill="#EEA886"/>
<path d="M630.122 374.928L625.168 377.184L622.886 378.232L622.49 378.41L611.083 383.625L608.405 384.858L607.957 385.054L604.136 381.95L604.06 381.89L599.513 378.189L589.68 370.207L600.087 371.425L601.127 371.543L604.412 371.916L608.603 372.41L622.315 374.022L630.122 374.928Z" fill="#F7F7F7"/>
<path d="M630.122 374.928V377.502L628.51 378.056L623.159 379.882H623.122L610.511 384.191L608.405 384.901L607.956 385.054L607.207 382.283L608.445 381.89L616.984 379.152L619.815 378.232L622.748 377.282L623.122 377.169L630.122 374.928Z" fill="#D3D3D3"/>
<path d="M620.221 322.948L612.542 335.148L608.821 337.492L617.488 325.35L620.221 322.948Z" fill="#F2F2F2"/>
<path d="M612.542 335.148L618 337.492L619.477 325.217L620.221 322.948L612.542 335.148Z" fill="#D6C5BE"/>
<path d="M600.322 388.814C600.342 389.03 600.38 389.19 600.42 389.303C600.42 389.303 599.633 389.226 598.334 389.068C592.297 388.383 575.066 386.197 573.156 383.324C572.015 381.596 571.443 379.724 571.187 378.252V378.232C570.894 376.695 570.917 375.592 570.917 375.592L599.044 382.717L600.363 383.051L600.42 383.071C600.42 383.071 600.398 383.286 600.38 383.657C600.3 384.843 600.144 387.536 600.322 388.814Z" fill="#34334B"/>
<path d="M607.956 385.064L596.153 341.21L551.306 336.474L563.598 376.843L607.956 385.064Z" fill="#D3D3D3"/>
<path d="M687.11 354.425C687.11 354.425 674.72 365.325 668.132 371.779C668.132 371.779 660.498 379.999 658.196 379.999C658.096 379.999 658.001 379.979 657.92 379.942C656.228 379.212 650.447 371.014 645.412 362.475C645.177 363.142 644.899 363.929 644.625 364.796C644.37 365.546 644.116 366.368 643.838 367.253C643.151 369.535 642.404 372.15 641.732 374.928C639.766 383.091 649.702 408.603 649.702 408.603L647.418 409.373L647.065 409.49L632.92 414.294C630.856 414.978 628.63 413.682 628.256 411.519C628.181 411.03 628.083 410.496 627.986 409.927C627.905 409.51 627.845 409.099 627.768 408.643C627.747 408.545 627.727 408.427 627.71 408.33C627.572 407.565 627.417 406.718 627.279 405.853C627.196 405.477 627.138 405.103 627.081 404.712C626.96 404.06 626.862 403.408 626.745 402.724C625.604 396.133 624.248 387.852 623.129 379.984C623.147 379.944 623.147 379.927 623.167 379.887L628.517 378.059L630.132 377.505V374.93L622.325 374.025C621.598 368.497 621.063 363.498 620.908 359.84C620.595 352.582 622.856 344.735 625.373 338.402L627.557 340.35L630.686 332.736L631.531 330.67L632.767 327.644L633.281 326.4H633.436C633.416 326.302 633.416 326.185 633.416 326.067C633.416 326.067 635.444 325.789 638.119 326.302C641.735 326.949 646.558 329.015 649.248 335.077C649.291 335.135 649.308 335.195 649.328 335.253L653.142 343.591L659.693 357.914C659.693 357.914 661.563 361.181 662.506 362.164C662.506 362.164 664.867 360.823 666.088 359.995C668.347 358.15 669.669 357.458 672.381 355.124C676.593 351.501 682.004 346.898 682.004 346.898L682.179 347.154C681.547 348.237 680.602 349.102 680.602 349.102L685.446 353.372C685.446 353.372 685.719 353.171 686.072 352.9L687.11 354.425Z" fill="#34334B"/>
<path d="M686.067 352.898C685.714 353.166 685.441 353.369 685.441 353.369L680.597 349.099C680.597 349.099 681.542 348.232 682.174 347.152L686.067 352.898Z" fill="#34334B"/>
<path d="M634.725 309.738C634.095 310.463 633.449 311.114 632.782 311.721C631.661 312.724 630.495 313.592 629.314 314.301C629.314 314.301 629.314 314.321 629.279 314.341C629.237 314.361 629.197 314.381 629.139 314.414C628.216 314.968 627.291 315.442 626.384 315.833C626.306 315.89 626.228 315.911 626.148 315.931C625.604 316.156 625.06 316.362 624.551 316.542C624.112 316.698 623.684 316.841 623.257 316.969C622.641 317.159 622.142 317.297 621.876 317.365C621.738 317.41 621.658 317.422 621.658 317.422C618.865 318.074 616.583 318.152 615.46 318.054C612.474 317.776 610.702 308.966 610.702 308.966C610.702 308.966 608.205 308.179 607.631 307.727C607.061 307.276 610.308 299.78 609.794 297.042C609.285 294.309 609.285 290.907 609.285 290.907C609.481 290.08 609.736 289.295 610.015 288.566C614.031 292.64 627.214 305.704 634.725 309.738Z" fill="#EEA886"/>
<path d="M622.137 335.514L618 337.492L632.04 323.575L622.137 335.514Z" fill="#D6C5BE"/>
<path d="M633.408 326.064L633.27 326.395L632.757 327.641L631.52 330.667L630.676 332.733L627.547 340.347L625.363 338.399L622.136 335.509L625.636 331.274L625.656 331.254L626.268 330.529L629.926 326.122L630.676 325.217L630.693 325.197L632.032 323.58L632.072 323.645L633.408 326.064Z" fill="#F2F2F2"/>
<path d="M629.324 314.301C629.259 314.404 627.111 317.743 621.061 320.107C621.206 319.533 621.342 318.957 621.465 318.383C621.53 318.059 621.598 317.736 621.655 317.412C621.655 317.415 626.659 316.191 629.324 314.301Z" fill="#A77860"/>
<path d="M581.002 365.054C582.275 364.378 582.296 361.926 581.048 359.578C579.801 357.231 577.758 355.876 576.485 356.552C575.212 357.228 575.191 359.68 576.439 362.028C577.686 364.375 579.729 365.73 581.002 365.054Z" fill="#F7F7F7"/>
<path d="M198.147 439.834C198.147 439.834 200.92 440.393 202.248 440.431C203.575 440.476 209.702 437.693 211.67 437.958C213.628 438.222 226.427 443.657 227.006 444.061C227.583 444.457 226.733 445.329 226.733 445.329L197.352 445.683L198.147 439.834Z" fill="#FCD2B1"/>
<path d="M237.085 445.101L188.219 445.467L188.253 449.942L237.118 449.576L237.085 445.101Z" fill="#D3D3D3"/>
<path d="M247.135 401.477L232.845 448.212L237.127 449.521L251.417 402.786L247.135 401.477Z" fill="#D3D3D3"/>
<path d="M147.88 539.975L145.997 544.054C145.997 544.054 138.057 541.095 138.014 540.993C137.974 540.895 140.2 535.332 140.2 535.332L147.88 539.975Z" fill="#D3D3D3"/>
<path d="M215.867 539.887L218.058 546.302C218.058 546.302 209.351 548.228 208.082 548.125C207.972 548.115 206.438 540.86 206.438 540.86L215.867 539.887Z" fill="#D3D3D3"/>
<path d="M207.112 546.252C207.112 546.252 213.197 544.598 213.38 544.332C213.558 544.069 215.794 542.56 216.945 542.755C218.096 542.951 218.199 544.322 219.349 544.605C220.503 544.884 229.395 547.729 230.629 548.459C231.862 549.183 242.527 546.598 243.658 548.125C244.789 549.647 241.113 554.095 231.867 555.486C222.621 556.873 212.721 560.999 210.507 560.438C208.288 559.874 206.774 548.719 207.112 546.252Z" fill="#34334B"/>
<path d="M137.39 539.907C137.39 539.907 143.033 542.316 143.327 542.224C143.627 542.131 146.24 542.326 147.002 543.169C147.767 544.011 147.012 545.122 147.722 546.034C148.426 546.939 152.452 552.262 153.626 553.493C154.588 554.496 165.241 556.715 166.936 558.482C168.212 559.818 161.343 563.872 152.36 561.328C143.61 558.846 132.777 554.541 131.43 552.783C130.079 551.011 135.647 541.587 137.39 539.907Z" fill="#34334B"/>
<path d="M143.179 459.898C143.179 459.898 167.994 470.934 173.251 474.705C178.514 478.475 190.024 485.428 190.407 487.127C190.791 488.827 193.07 487.173 188.988 495.667C184.907 504.163 165.6 524.606 163.79 526.83C161.899 529.151 148.506 543.033 148.506 543.033L138.433 535.449C138.433 535.449 157.8 506.971 160.603 502.784C163.406 498.597 164.672 497.981 163.012 496.125C161.355 494.28 154.734 494.303 120.652 480.188C117.245 478.779 107.741 475.512 106.487 470.939C104.228 462.673 106.169 452.199 115.327 447.596C124.493 442.985 143.179 459.898 143.179 459.898Z" fill="#34334B"/>
<path d="M154.98 380.01C154.761 380.205 154.523 380.626 154.275 381.205C153.919 382.038 153.543 383.194 153.177 384.472C152.054 388.408 151.031 393.458 151.031 393.458C151.031 393.458 136.828 381.622 138.836 380.877C140.845 380.137 142.331 376.675 142.331 376.675C142.331 376.675 156.474 378.688 154.98 380.01Z" fill="#FCD2B1"/>
<path d="M142.785 455.433C142.785 455.433 168.425 461.465 174.766 463.493C181.101 465.516 192.012 469.084 194.94 470.754C196.497 471.644 198.876 472.973 201.722 482.236C204.954 492.738 212.319 522.277 213.992 526.88C215.04 529.768 218.058 541.135 218.058 541.135L204.959 543.407C204.959 543.407 189.357 511.996 188.091 503.627C185.962 489.529 180.497 489.457 178.291 488.168C176.079 486.889 165.452 489.294 127.642 486.278C123.864 485.979 113.532 485.794 110.86 481.715C106.026 474.346 101.15 465.978 108.654 458.569C116.157 451.163 142.785 455.433 142.785 455.433Z" fill="#34334B"/>
<path d="M159.986 350.345C159.986 350.345 164.426 358.01 163.411 360.096C162.403 362.181 168.049 367.236 167.119 368.306C166.194 369.374 164.284 370.67 164.314 370.984C164.346 371.292 162.674 381.281 160.495 381.501C158.324 381.727 143.434 380.947 142.201 376.301C140.968 371.641 137.335 361.444 136.482 359.544C135.622 357.656 144.207 343.025 159.986 350.345Z" fill="#FCD2B1"/>
<path d="M141.634 348.861C140.393 349.781 139.393 350.757 138.591 351.754C137.615 352.211 131.862 355.069 133.055 358.16C134.67 362.322 141.178 373.463 141.725 374.622C141.797 374.777 141.797 374.484 141.745 373.862C142.146 369.926 146.99 365.518 146.99 365.518L149.569 364.348C148.223 361.845 148.754 359.504 148.754 359.504C151.68 356.37 161.395 352.995 161.395 352.995C161.393 325.989 148.145 344.035 141.634 348.861Z" fill="#072735"/>
<path d="M146.032 362.264C145.342 361.211 141.717 361.382 142.241 364.478C142.775 367.567 147.22 370.051 148.19 368.67C149.161 367.293 146.761 363.375 146.032 362.264Z" fill="#FCD2B1"/>
<path d="M138.834 380.877C138.834 380.877 120.843 391.362 116.784 409.668C112.723 427.973 105.384 460.119 105.251 463.929C105.251 463.929 129.598 452.211 142.785 455.433C142.785 455.433 151.089 425.609 155.458 418.556C159.826 411.509 153.332 394.949 153.332 394.949C153.332 394.949 147.13 385.009 138.834 380.877Z" fill="#FF8C4A"/>
<path d="M154.275 381.205C153.919 382.038 153.543 383.193 153.177 384.472C151.051 383.585 146.995 379.844 146.869 379.726C148.564 380.383 154.275 381.205 154.275 381.205Z" fill="#997761"/>
<path d="M295.392 449.529H281.911H237.049H184.721C183.049 449.529 181.693 451.163 181.693 453.181V455.35H225.502H284.945H299.263V453.181C299.263 451.163 297.528 449.529 295.392 449.529Z" fill="#FCD2B1"/>
<path d="M146.729 395.057C146.729 395.057 151.013 401.129 153.663 405.722C156.664 410.932 159.618 416.079 160.27 417.24C161.593 419.592 166.307 420.848 168.393 421.745C170.316 422.567 202.263 439.666 202.67 439.633C203.078 439.598 199.227 446.009 199.227 446.009C199.227 446.009 154.864 433.288 152.869 431.46C150.873 429.637 144.954 421.344 142.532 417.927C140.225 414.67 136.688 409.332 134.815 407.031C132.712 404.461 128.314 395.656 133.907 391.269C141.055 385.655 145.009 392.477 146.729 395.057Z" fill="#FF8C4A"/>
<path d="M194.73 455.35H191.027V568.009H194.73V455.35Z" fill="#34334B"/>
<path d="M292.093 455.35H288.385V568.009H292.093V455.35Z" fill="#34334B"/>
<path d="M650.286 472.258C650.286 472.258 648.852 472.2 646.37 472.103C642.319 471.947 635.514 471.671 627.803 471.333C621.567 471.077 614.721 470.764 608.29 470.45C600.601 470.074 593.458 469.701 588.577 469.35C584.528 469.071 582.01 468.816 582.01 468.62C583.033 459.474 589.384 436.537 594.087 420.409C595.426 415.801 596.627 411.752 597.527 408.741L598.021 408.941L604.983 411.792C606.4 412.361 607.971 411.341 607.992 409.784C607.992 409.608 607.992 409.413 608.014 409.215C608.034 407.54 608.069 405.414 608.112 402.982C613.485 402.884 620.464 402.761 626.74 402.721C626.857 403.406 626.955 404.057 627.076 404.709C627.133 405.1 627.191 405.474 627.274 405.85C627.411 406.718 627.567 407.565 627.705 408.327C627.725 408.425 627.745 408.543 627.762 408.64C627.84 409.097 627.9 409.508 627.981 409.924C628.078 410.493 628.176 411.025 628.251 411.516C628.625 413.68 630.851 414.978 632.915 414.291L647.06 409.488L647.413 409.37C658.783 429.79 650.286 472.258 650.286 472.258Z" fill="#FF8C4A"/>
<path d="M638.129 304.621C637.64 305.566 637.109 306.471 636.537 307.319C635.963 308.181 635.354 308.988 634.725 309.738C627.213 305.704 614.031 292.64 610.02 288.571C613.733 278.48 623.335 277.534 627.702 278.224C633.621 279.209 637.339 281.451 639.445 284.399C643.499 290.005 641.652 298.108 638.129 304.621Z" fill="#072735"/>
<path d="M639.2 282.991L615.716 279.585C615.211 279.512 614.771 279.205 614.527 278.757C614.284 278.309 614.265 277.772 614.478 277.309L624.009 256.57C624.058 256.464 624.118 256.363 624.189 256.269L630.632 247.755L630.799 237.303C630.811 236.562 631.325 235.924 632.046 235.754C632.768 235.585 633.512 235.927 633.853 236.585L641.097 250.573C641.327 251.018 641.339 251.544 641.127 251.998L637.855 259.044L641.033 281.16C641.106 281.665 640.936 282.174 640.575 282.535C640.214 282.895 639.705 283.064 639.2 282.991Z" fill="#4E4C82"/>
<path d="M637.855 259.044L641.128 251.998C641.339 251.544 641.327 251.018 641.097 250.573L633.922 236.718L627.458 281.288L639.2 282.991C639.705 283.064 640.214 282.895 640.575 282.535C640.936 282.174 641.106 281.665 641.033 281.16L637.855 259.044Z" fill="#4E4C82"/>
<path d="M640.56 292.451L611.725 288.269C611.22 288.196 610.779 287.889 610.536 287.441C610.293 286.993 610.275 286.456 610.487 285.992L614.478 277.309L641.033 281.16L642.393 290.62C642.466 291.124 642.296 291.634 641.935 291.994C641.574 292.355 641.065 292.524 640.56 292.451Z" fill="#FF8C4A"/>
<path d="M641.033 281.16L627.756 279.234L626.142 290.36L640.56 292.451C641.065 292.524 641.575 292.355 641.936 291.994C642.296 291.634 642.466 291.124 642.394 290.62L641.033 281.16Z" fill="#FF8C4A"/>
<path d="M648.048 293.537L604.238 287.183C603.354 287.055 602.741 286.234 602.869 285.35C602.997 284.466 603.818 283.853 604.702 283.981L648.512 290.335C649.396 290.463 650.009 291.284 649.881 292.168C649.752 293.052 648.932 293.665 648.048 293.537Z" fill="#4E4C82"/>
<path d="M648.512 290.335L626.606 287.158L626.142 290.36L648.047 293.537C648.931 293.665 649.752 293.052 649.88 292.168C650.008 291.284 649.396 290.463 648.512 290.335Z" fill="#4E4C82"/>
</svg>
