<svg width="555" height="357" viewBox="0 0 555 357" fill="none" xmlns="http://www.w3.org/2000/svg">
<path d="M107.428 345.857C120.6 345.857 131.279 335.179 131.279 322.006C131.279 308.833 120.6 298.155 107.428 298.155C94.2552 298.155 83.5768 308.833 83.5768 322.006C83.5768 335.179 94.2552 345.857 107.428 345.857Z" fill="#FF8C4A"/>
<path d="M90.9244 323.487V322.184C90.9244 321.532 91.3096 320.969 91.9022 320.732L98.4797 318.125C99.5167 317.71 100.613 318.48 100.613 319.576C100.613 320.258 100.198 320.85 99.5464 321.058L94.2428 322.836L99.5464 324.613C100.198 324.821 100.613 325.413 100.613 326.095V326.124C100.613 327.221 99.4871 327.991 98.4797 327.576L91.9022 324.969C91.3392 324.702 90.9244 324.139 90.9244 323.487Z" fill="white"/>
<path d="M110.953 314.125C111.961 314.125 112.613 315.162 112.168 316.08L104.82 331.458C104.583 331.932 104.109 332.228 103.605 332.228C102.598 332.228 101.946 331.191 102.391 330.272L109.739 314.895C109.976 314.421 110.45 314.125 110.953 314.125Z" fill="white"/>
<path d="M115.279 324.643L120.583 322.865L115.279 321.087C114.657 320.88 114.213 320.288 114.213 319.606V319.576C114.213 318.48 115.339 317.71 116.346 318.125L122.923 320.732C123.516 320.969 123.901 321.532 123.901 322.184V323.487C123.901 324.139 123.516 324.702 122.923 324.939L116.346 327.547C115.309 327.961 114.213 327.191 114.213 326.095C114.213 325.443 114.657 324.85 115.279 324.643Z" fill="white"/>
<path d="M212.679 54.8337H396.84V25.0955H212.679V54.8337Z" fill="white"/>
<path d="M212.679 174.896H396.84V145.158H212.679V174.896Z" fill="white"/>
<path d="M175.723 75.4292V38.5H367.086V75.4292H175.723Z" fill="white" stroke="#D3D3D3"/>
<path d="M175.723 136.914V99.9849H367.086V136.914H175.723Z" fill="white" stroke="#D3D3D3"/>
<path d="M175.723 198.399V161.47H367.086V198.399H175.723Z" fill="white" stroke="#D3D3D3"/>
<path d="M175.723 259.884V222.955H367.086V259.884H175.723Z" fill="white" stroke="#D3D3D3"/>
<path d="M226.67 53.2186H225.387L223.209 54.6419V55.9033L225.297 54.5397H225.349V61.9459H226.67V53.2186ZM229.395 62.0269C229.859 62.0269 230.247 61.6476 230.247 61.1746C230.247 60.7101 229.859 60.3266 229.395 60.3266C228.926 60.3266 228.542 60.7101 228.542 61.1746C228.542 61.6476 228.926 62.0269 229.395 62.0269ZM242.135 53.2186H240.831V59.6277H240.75L236.31 53.2186H235.091V61.9459H236.408V55.5454H236.489L240.925 61.9459H242.135V53.2186ZM245.859 62.0908C246.941 62.0908 247.55 61.5411 247.793 61.051H247.844V61.9459H249.089V57.5993C249.089 55.6945 247.589 55.3152 246.549 55.3152C245.364 55.3152 244.273 55.7925 243.847 56.9857L245.045 57.2584C245.232 56.7939 245.709 56.3465 246.566 56.3465C247.388 56.3465 247.81 56.7769 247.81 57.5184V57.5482C247.81 58.0127 247.333 58.0042 246.157 58.1405C244.917 58.2854 243.647 58.6093 243.647 60.0965C243.647 61.3834 244.614 62.0908 245.859 62.0908ZM246.136 61.0681C245.415 61.0681 244.895 60.7442 244.895 60.1135C244.895 59.4317 245.501 59.1888 246.238 59.0908C246.651 59.0354 247.631 58.9246 247.814 58.7414V59.5851C247.814 60.3607 247.197 61.0681 246.136 61.0681ZM246.089 54.5269H247.107L248.428 52.5624H247.086L246.089 54.5269ZM250.786 64.4005H252.06V60.9275H252.137C252.367 61.3451 252.835 62.0738 254.029 62.0738C255.614 62.0738 256.764 60.8039 256.764 58.686C256.764 56.5638 255.597 55.3152 254.016 55.3152C252.801 55.3152 252.362 56.0567 252.137 56.4615H252.03V55.4005H250.786V64.4005ZM252.034 58.6732C252.034 57.3053 252.631 56.3976 253.743 56.3976C254.898 56.3976 255.477 57.3735 255.477 58.6732C255.477 59.9857 254.881 60.9871 253.743 60.9871C252.648 60.9871 252.034 60.0496 252.034 58.6732ZM260.097 62.0908C261.179 62.0908 261.789 61.5411 262.031 61.051H262.083V61.9459H263.327V57.5993C263.327 55.6945 261.827 55.3152 260.787 55.3152C259.602 55.3152 258.512 55.7925 258.085 56.9857L259.283 57.2584C259.47 56.7939 259.948 56.3465 260.804 56.3465C261.627 56.3465 262.049 56.7769 262.049 57.5184V57.5482C262.049 58.0127 261.571 58.0042 260.395 58.1405C259.155 58.2854 257.885 58.6093 257.885 60.0965C257.885 61.3834 258.852 62.0908 260.097 62.0908ZM260.374 61.0681C259.654 61.0681 259.134 60.7442 259.134 60.1135C259.134 59.4317 259.739 59.1888 260.476 59.0908C260.889 59.0354 261.87 58.9246 262.053 58.7414V59.5851C262.053 60.3607 261.435 61.0681 260.374 61.0681ZM267.474 62.0738C268.667 62.0738 269.136 61.3451 269.366 60.9275H269.473V61.9459H270.717V53.2186H269.443V56.4615H269.366C269.136 56.0567 268.702 55.3152 267.483 55.3152C265.902 55.3152 264.739 56.5638 264.739 58.686C264.739 60.8039 265.885 62.0738 267.474 62.0738ZM267.756 60.9871C266.618 60.9871 266.025 59.9857 266.025 58.6732C266.025 57.3735 266.605 56.3976 267.756 56.3976C268.868 56.3976 269.464 57.3053 269.464 58.6732C269.464 60.0496 268.855 60.9871 267.756 60.9871ZM275.712 61.9459H276.986V59.6235L277.621 58.9885L279.845 61.9459H281.409L278.579 58.2087L281.23 55.4005H279.704L277.096 58.1704H276.986V53.2186H275.712V61.9459ZM283.665 53.2186H282.391V61.9459H283.665V53.2186ZM285.379 61.9459H286.654V55.4005H285.379V61.9459ZM286.023 54.3905C286.462 54.3905 286.828 54.0496 286.828 53.632C286.828 53.2144 286.462 52.8692 286.023 52.8692C285.58 52.8692 285.218 53.2144 285.218 53.632C285.218 54.0496 285.58 54.3905 286.023 54.3905ZM291.189 62.078C292.616 62.078 293.626 61.3749 293.916 60.3096L292.71 60.0922C292.48 60.7101 291.926 61.0255 291.202 61.0255C290.111 61.0255 289.378 60.3181 289.344 59.0567H293.997V58.605C293.997 56.24 292.582 55.3152 291.099 55.3152C289.275 55.3152 288.074 56.7044 288.074 58.7158C288.074 60.7485 289.258 62.078 291.189 62.078ZM289.348 58.1022C289.399 57.1732 290.072 56.3678 291.108 56.3678C292.096 56.3678 292.744 57.1008 292.748 58.1022H289.348ZM296.685 58.0596C296.685 57.0155 297.324 56.4189 298.21 56.4189C299.076 56.4189 299.6 56.9857 299.6 57.936V61.9459H300.874V57.7826C300.874 56.1633 299.983 55.3152 298.645 55.3152C297.661 55.3152 297.017 55.7712 296.715 56.4658H296.634V55.4005H295.411V61.9459H296.685V58.0596ZM305.638 55.4005H304.296V53.8323H303.022V55.4005H302.063V56.4232H303.022V60.2883C303.017 61.4772 303.925 62.0525 304.931 62.0312C305.335 62.0269 305.608 61.9502 305.757 61.8948L305.527 60.8422C305.442 60.8593 305.284 60.8976 305.08 60.8976C304.666 60.8976 304.296 60.7613 304.296 60.024V56.4232H305.638V55.4005ZM308.952 62.0908C310.035 62.0908 310.644 61.5411 310.887 61.051H310.938V61.9459H312.182V57.5993C312.182 55.6945 310.682 55.3152 309.643 55.3152C308.458 55.3152 307.367 55.7925 306.941 56.9857L308.138 57.2584C308.326 56.7939 308.803 56.3465 309.66 56.3465C310.482 56.3465 310.904 56.7769 310.904 57.5184V57.5482C310.904 58.0127 310.427 58.0042 309.251 58.1405C308.011 58.2854 306.741 58.6093 306.741 60.0965C306.741 61.3834 307.708 62.0908 308.952 62.0908ZM309.229 61.0681C308.509 61.0681 307.989 60.7442 307.989 60.1135C307.989 59.4317 308.594 59.1888 309.332 59.0908C309.745 59.0354 310.725 58.9246 310.908 58.7414V59.5851C310.908 60.3607 310.29 61.0681 309.229 61.0681Z" fill="#98999A"/>
<path d="M123.733 23H129.972V21.8665H125.344L129.933 15.1506V14.2727H123.695V15.4062H128.322L123.733 22.1222V23ZM134.696 23H135.971V19.0028C135.971 18.1463 136.631 17.5284 137.534 17.5284C137.799 17.5284 138.097 17.5753 138.199 17.6051V16.3864C138.071 16.3693 137.82 16.3565 137.658 16.3565C136.891 16.3565 136.235 16.7912 135.996 17.4943H135.928V16.4545H134.696V23ZM141.888 23.1321C143.316 23.1321 144.326 22.429 144.616 21.3636L143.41 21.1463C143.18 21.7642 142.626 22.0795 141.901 22.0795C140.81 22.0795 140.077 21.3722 140.043 20.1108H144.697V19.6591C144.697 17.294 143.282 16.3693 141.799 16.3693C139.975 16.3693 138.773 17.7585 138.773 19.7699C138.773 21.8026 139.958 23.1321 141.888 23.1321ZM140.048 19.1562C140.099 18.2273 140.772 17.4219 141.808 17.4219C142.796 17.4219 143.444 18.1548 143.448 19.1562H140.048ZM148.868 23.1321C150.414 23.1321 151.416 22.2031 151.556 20.929H150.316C150.154 21.6364 149.605 22.054 148.876 22.054C147.798 22.054 147.103 21.1548 147.103 19.7273C147.103 18.3253 147.811 17.4432 148.876 17.4432C149.686 17.4432 150.18 17.9545 150.316 18.5682H151.556C151.42 17.2472 150.342 16.3693 148.855 16.3693C147.01 16.3693 145.816 17.7585 145.816 19.7571C145.816 21.7301 146.967 23.1321 148.868 23.1321ZM147.968 13.7997H146.818V13.8636L148.314 15.6705H149.375L150.875 13.8636V13.7997H149.72L148.846 14.9418L147.968 13.7997ZM152.919 23H154.193V16.4545H152.919V23ZM153.562 15.4446C154.001 15.4446 154.368 15.1037 154.368 14.6861C154.368 14.2685 154.001 13.9233 153.562 13.9233C153.119 13.9233 152.757 14.2685 152.757 14.6861C152.757 15.1037 153.119 15.4446 153.562 15.4446ZM159.083 23H160.357V20.6776L160.992 20.0426L163.217 23H164.781L161.951 19.2628L164.602 16.4545H163.076L160.468 19.2244H160.357V14.2727H159.083V23ZM167.037 14.2727H165.763V23H167.037V14.2727ZM168.751 23H170.025V16.4545H168.751V23ZM169.395 15.4446C169.833 15.4446 170.2 15.1037 170.2 14.6861C170.2 14.2685 169.833 13.9233 169.395 13.9233C168.951 13.9233 168.589 14.2685 168.589 14.6861C168.589 15.1037 168.951 15.4446 169.395 15.4446ZM174.56 23.1321C175.988 23.1321 176.998 22.429 177.288 21.3636L176.082 21.1463C175.852 21.7642 175.298 22.0795 174.573 22.0795C173.482 22.0795 172.749 21.3722 172.715 20.1108H177.369V19.6591C177.369 17.294 175.954 16.3693 174.471 16.3693C172.647 16.3693 171.445 17.7585 171.445 19.7699C171.445 21.8026 172.63 23.1321 174.56 23.1321ZM172.719 19.1562C172.771 18.2273 173.444 17.4219 174.479 17.4219C175.468 17.4219 176.116 18.1548 176.12 19.1562H172.719ZM180.056 19.1136C180.056 18.0696 180.696 17.473 181.582 17.473C182.447 17.473 182.971 18.0398 182.971 18.9901V23H184.245V18.8366C184.245 17.2173 183.355 16.3693 182.017 16.3693C181.032 16.3693 180.389 16.8253 180.086 17.5199H180.005V16.4545H178.782V23H180.056V19.1136ZM189.01 16.4545H187.667V14.8864H186.393V16.4545H185.434V17.4773H186.393V21.3423C186.389 22.5312 187.297 23.1065 188.302 23.0852C188.707 23.081 188.98 23.0043 189.129 22.9489L188.899 21.8963C188.814 21.9134 188.656 21.9517 188.451 21.9517C188.038 21.9517 187.667 21.8153 187.667 21.0781V17.4773H189.01V16.4545ZM194.565 20.2855C194.57 21.3977 193.743 21.9261 193.027 21.9261C192.239 21.9261 191.693 21.3551 191.693 20.4645V16.4545H190.419V20.6179C190.419 22.2415 191.31 23.0852 192.567 23.0852C193.551 23.0852 194.22 22.5653 194.523 21.8665H194.591V23H195.844V16.4545H194.565V20.2855ZM193.142 15.7301C193.99 15.7301 194.646 15.1037 194.646 14.2983C194.646 13.4972 193.99 12.8281 193.142 12.8281C192.29 12.8281 191.621 13.4972 191.621 14.2983C191.621 15.1037 192.29 15.7301 193.142 15.7301ZM193.142 15.0483C192.695 15.0483 192.375 14.6861 192.375 14.2983C192.375 13.902 192.695 13.527 193.142 13.527C193.585 13.527 193.909 13.902 193.909 14.2983C193.909 14.6861 193.585 15.044 193.142 15.0483ZM198.395 23.081C198.86 23.081 199.248 22.7017 199.248 22.2287C199.248 21.7642 198.86 21.3807 198.395 21.3807C197.926 21.3807 197.543 21.7642 197.543 22.2287C197.543 22.7017 197.926 23.081 198.395 23.081ZM201.794 23.081C202.258 23.081 202.646 22.7017 202.646 22.2287C202.646 21.7642 202.258 21.3807 201.794 21.3807C201.325 21.3807 200.941 21.7642 200.941 22.2287C200.941 22.7017 201.325 23.081 201.794 23.081ZM205.192 23.081C205.657 23.081 206.044 22.7017 206.044 22.2287C206.044 21.7642 205.657 21.3807 205.192 21.3807C204.723 21.3807 204.34 21.7642 204.34 22.2287C204.34 22.7017 204.723 23.081 205.192 23.081Z" fill="#98999A"/>
<path d="M336.696 23.081C337.161 23.081 337.548 22.7017 337.548 22.2287C337.548 21.7642 337.161 21.3807 336.696 21.3807C336.227 21.3807 335.844 21.7642 335.844 22.2287C335.844 22.7017 336.227 23.081 336.696 23.081ZM340.094 23.081C340.559 23.081 340.947 22.7017 340.947 22.2287C340.947 21.7642 340.559 21.3807 340.094 21.3807C339.626 21.3807 339.242 21.7642 339.242 22.2287C339.242 22.7017 339.626 23.081 340.094 23.081ZM343.493 23.081C343.957 23.081 344.345 22.7017 344.345 22.2287C344.345 21.7642 343.957 21.3807 343.493 21.3807C343.024 21.3807 342.641 21.7642 342.641 22.2287C342.641 22.7017 343.024 23.081 343.493 23.081ZM348.502 23.1278C349.695 23.1278 350.164 22.3991 350.394 21.9815H350.501V23H351.745V14.2727H350.471V17.5156H350.394C350.164 17.1108 349.729 16.3693 348.511 16.3693C346.93 16.3693 345.766 17.6179 345.766 19.7401C345.766 21.858 346.913 23.1278 348.502 23.1278ZM348.783 22.0412C347.646 22.0412 347.053 21.0398 347.053 19.7273C347.053 18.4276 347.633 17.4517 348.783 17.4517C349.896 17.4517 350.492 18.3594 350.492 19.7273C350.492 21.1037 349.883 22.0412 348.783 22.0412ZM356.321 23.1321C358.166 23.1321 359.372 21.7812 359.372 19.7571C359.372 17.7202 358.166 16.3693 356.321 16.3693C354.475 16.3693 353.27 17.7202 353.27 19.7571C353.27 21.7812 354.475 23.1321 356.321 23.1321ZM356.325 22.0625C355.119 22.0625 354.556 21.0099 354.556 19.7528C354.556 18.5 355.119 17.4347 356.325 17.4347C357.522 17.4347 358.085 18.5 358.085 19.7528C358.085 21.0099 357.522 22.0625 356.325 22.0625ZM363.97 23H365.244V19.0028C365.244 18.1463 365.904 17.5284 366.808 17.5284C367.072 17.5284 367.37 17.5753 367.473 17.6051V16.3864C367.345 16.3693 367.093 16.3565 366.931 16.3565C366.164 16.3565 365.508 16.7912 365.27 17.4943H365.201V16.4545H363.97V23ZM371.162 23.1321C372.589 23.1321 373.599 22.429 373.889 21.3636L372.683 21.1463C372.453 21.7642 371.899 22.0795 371.175 22.0795C370.084 22.0795 369.351 21.3722 369.317 20.1108H373.97V19.6591C373.97 17.294 372.555 16.3693 371.072 16.3693C369.249 16.3693 368.047 17.7585 368.047 19.7699C368.047 21.8026 369.232 23.1321 371.162 23.1321ZM369.321 19.1562C369.372 18.2273 370.045 17.4219 371.081 17.4219C372.07 17.4219 372.717 18.1548 372.722 19.1562H369.321ZM378.141 23.1321C379.688 23.1321 380.689 22.2031 380.83 20.929H379.59C379.428 21.6364 378.878 22.054 378.15 22.054C377.071 22.054 376.377 21.1548 376.377 19.7273C376.377 18.3253 377.084 17.4432 378.15 17.4432C378.959 17.4432 379.453 17.9545 379.59 18.5682H380.83C380.694 17.2472 379.615 16.3693 378.128 16.3693C376.283 16.3693 375.09 17.7585 375.09 19.7571C375.09 21.7301 376.24 23.1321 378.141 23.1321ZM377.242 13.7997H376.091V13.8636L377.587 15.6705H378.648L380.148 13.8636V13.7997H378.993L378.12 14.9418L377.242 13.7997ZM382.192 23H383.467V16.4545H382.192V23ZM382.836 15.4446C383.275 15.4446 383.641 15.1037 383.641 14.6861C383.641 14.2685 383.275 13.9233 382.836 13.9233C382.393 13.9233 382.031 14.2685 382.031 14.6861C382.031 15.1037 382.393 15.4446 382.836 15.4446ZM392.503 20.2855C392.507 21.3977 391.68 21.9261 390.964 21.9261C390.176 21.9261 389.631 21.3551 389.631 20.4645V16.4545H388.357V20.6179C388.357 22.2415 389.247 23.0852 390.504 23.0852C391.489 23.0852 392.158 22.5653 392.46 21.8665H392.528V23H393.781V16.4545H392.503V20.2855ZM395.357 23H400.611V21.892H397.083V21.8324L400.492 17.3835V16.4545H395.472V17.5625H398.902V17.6222L395.357 22.1264V23ZM397.061 13.7997H395.911V13.8636L397.407 15.6705H398.468L399.968 13.8636V13.7997H398.813L397.939 14.9418L397.061 13.7997ZM402.114 23H403.388V16.4545H402.114V23ZM402.758 15.4446C403.197 15.4446 403.563 15.1037 403.563 14.6861C403.563 14.2685 403.197 13.9233 402.758 13.9233C402.315 13.9233 401.952 14.2685 401.952 14.6861C401.952 15.1037 402.315 15.4446 402.758 15.4446ZM410.702 16.4545H409.334L407.681 21.4915H407.613L405.955 16.4545H404.587L406.965 23H408.328L410.702 16.4545ZM413.605 23.1449C414.688 23.1449 415.297 22.5952 415.54 22.1051H415.591V23H416.835V18.6534C416.835 16.7486 415.335 16.3693 414.295 16.3693C413.111 16.3693 412.02 16.8466 411.594 18.0398L412.791 18.3125C412.979 17.848 413.456 17.4006 414.312 17.4006C415.135 17.4006 415.557 17.831 415.557 18.5724V18.6023C415.557 19.0668 415.08 19.0582 413.903 19.1946C412.663 19.3395 411.393 19.6634 411.393 21.1506C411.393 22.4375 412.361 23.1449 413.605 23.1449ZM413.882 22.1222C413.162 22.1222 412.642 21.7983 412.642 21.1676C412.642 20.4858 413.247 20.2429 413.984 20.1449C414.398 20.0895 415.378 19.9787 415.561 19.7955V20.6392C415.561 21.4148 414.943 22.1222 413.882 22.1222ZM421.588 16.4545H420.245V14.8864H418.971V16.4545H418.012V17.4773H418.971V21.3423C418.967 22.5312 419.875 23.1065 420.88 23.0852C421.285 23.081 421.558 23.0043 421.707 22.9489L421.477 21.8963C421.392 21.9134 421.234 21.9517 421.029 21.9517C420.616 21.9517 420.245 21.8153 420.245 21.0781V17.4773H421.588V16.4545ZM425.748 23.1321C427.175 23.1321 428.185 22.429 428.475 21.3636L427.269 21.1463C427.039 21.7642 426.485 22.0795 425.761 22.0795C424.67 22.0795 423.937 21.3722 423.903 20.1108H428.556V19.6591C428.556 17.294 427.141 16.3693 425.658 16.3693C423.835 16.3693 422.633 17.7585 422.633 19.7699C422.633 21.8026 423.817 23.1321 425.748 23.1321ZM423.907 19.1562C423.958 18.2273 424.631 17.4219 425.667 17.4219C426.656 17.4219 427.303 18.1548 427.308 19.1562H423.907ZM431.244 14.2727H429.97V23H431.244V14.2727ZM437.104 20.2855C437.109 21.3977 436.282 21.9261 435.566 21.9261C434.778 21.9261 434.232 21.3551 434.232 20.4645V16.4545H432.958V20.6179C432.958 22.2415 433.849 23.0852 435.106 23.0852C436.09 23.0852 436.759 22.5653 437.062 21.8665H437.13V23H438.383V16.4545H437.104V20.2855ZM435.681 15.7301C436.529 15.7301 437.185 15.1037 437.185 14.2983C437.185 13.4972 436.529 12.8281 435.681 12.8281C434.829 12.8281 434.16 13.4972 434.16 14.2983C434.16 15.1037 434.829 15.7301 435.681 15.7301ZM435.681 15.0483C435.234 15.0483 434.914 14.6861 434.914 14.2983C434.914 13.902 435.234 13.527 435.681 13.527C436.124 13.527 436.448 13.902 436.448 14.2983C436.448 14.6861 436.124 15.044 435.681 15.0483Z" fill="#98999A"/>
<path d="M223.359 123.431H229.103V122.302H225.174V122.238L226.908 120.422C228.506 118.807 228.962 118.036 228.962 117.06C228.962 115.658 227.82 114.584 226.175 114.584C224.543 114.584 223.35 115.641 223.35 117.235H224.607C224.603 116.297 225.208 115.684 226.15 115.684C227.036 115.684 227.709 116.229 227.709 117.098C227.709 117.87 227.249 118.424 226.312 119.417L223.359 122.476V123.431ZM231.574 123.512C232.039 123.512 232.427 123.133 232.427 122.66C232.427 122.195 232.039 121.812 231.574 121.812C231.106 121.812 230.722 122.195 230.722 122.66C230.722 123.133 231.106 123.512 231.574 123.512ZM237.271 123.431H238.588V120.716L239.619 119.532L242.44 123.431H244.025L240.492 118.633L244.012 114.704H242.355L238.694 118.871H238.588V114.704H237.271V123.431ZM247.414 123.563C249.259 123.563 250.465 122.212 250.465 120.188C250.465 118.151 249.259 116.8 247.414 116.8C245.569 116.8 244.363 118.151 244.363 120.188C244.363 122.212 245.569 123.563 247.414 123.563ZM247.418 122.493C246.212 122.493 245.65 121.441 245.65 120.184C245.65 118.931 246.212 117.865 247.418 117.865C248.616 117.865 249.178 118.931 249.178 120.184C249.178 121.441 248.616 122.493 247.418 122.493ZM251.887 123.431H253.161V119.395C253.161 118.513 253.779 117.9 254.504 117.9C255.211 117.9 255.701 118.368 255.701 119.08V123.431H256.971V119.259C256.971 118.471 257.453 117.9 258.284 117.9C258.957 117.9 259.511 118.275 259.511 119.161V123.431H260.785V119.042C260.785 117.546 259.95 116.8 258.765 116.8C257.823 116.8 257.116 117.252 256.801 117.951H256.732C256.447 117.235 255.846 116.8 254.973 116.8C254.107 116.8 253.464 117.231 253.191 117.951H253.11V116.885H251.887V123.431ZM262.493 125.885H263.767V122.412H263.844C264.074 122.83 264.542 123.559 265.736 123.559C267.321 123.559 268.471 122.289 268.471 120.171C268.471 118.049 267.304 116.8 265.723 116.8C264.508 116.8 264.069 117.542 263.844 117.946H263.737V116.885H262.493V125.885ZM263.741 120.158C263.741 118.79 264.338 117.883 265.45 117.883C266.605 117.883 267.185 118.858 267.185 120.158C267.185 121.471 266.588 122.472 265.45 122.472C264.355 122.472 263.741 121.535 263.741 120.158ZM269.899 123.431H271.173V116.885H269.899V123.431ZM270.542 115.875C270.981 115.875 271.348 115.535 271.348 115.117C271.348 114.699 270.981 114.354 270.542 114.354C270.099 114.354 269.737 114.699 269.737 115.117C269.737 115.535 270.099 115.875 270.542 115.875ZM274.161 114.704H272.887V123.431H274.161V114.704ZM277.78 123.576C278.863 123.576 279.472 123.026 279.715 122.536H279.766V123.431H281.011V119.084C281.011 117.179 279.511 116.8 278.471 116.8C277.286 116.8 276.195 117.277 275.769 118.471L276.966 118.743C277.154 118.279 277.631 117.831 278.488 117.831C279.31 117.831 279.732 118.262 279.732 119.003V119.033C279.732 119.498 279.255 119.489 278.079 119.625C276.839 119.77 275.569 120.094 275.569 121.581C275.569 122.868 276.536 123.576 277.78 123.576ZM278.057 122.553C277.337 122.553 276.817 122.229 276.817 121.598C276.817 120.917 277.422 120.674 278.16 120.576C278.573 120.52 279.553 120.41 279.736 120.226V121.07C279.736 121.846 279.118 122.553 278.057 122.553ZM285.465 123.563C287.012 123.563 288.013 122.634 288.154 121.36H286.914C286.752 122.067 286.202 122.485 285.473 122.485C284.395 122.485 283.701 121.586 283.701 120.158C283.701 118.756 284.408 117.874 285.473 117.874C286.283 117.874 286.777 118.385 286.914 118.999H288.154C288.017 117.678 286.939 116.8 285.452 116.8C283.607 116.8 282.414 118.189 282.414 120.188C282.414 122.161 283.564 123.563 285.465 123.563ZM292.337 123.563C293.765 123.563 294.775 122.86 295.064 121.794L293.859 121.577C293.628 122.195 293.074 122.51 292.35 122.51C291.259 122.51 290.526 121.803 290.492 120.542H295.145V120.09C295.145 117.725 293.731 116.8 292.248 116.8C290.424 116.8 289.222 118.189 289.222 120.201C289.222 122.233 290.407 123.563 292.337 123.563ZM290.496 119.587C290.547 118.658 291.221 117.853 292.256 117.853C293.245 117.853 293.893 118.586 293.897 119.587H290.496ZM301.009 119.544C301.009 118.5 301.648 117.904 302.535 117.904C303.4 117.904 303.924 118.471 303.924 119.421V123.431H305.198V119.267C305.198 117.648 304.307 116.8 302.969 116.8C301.985 116.8 301.341 117.256 301.039 117.951H300.958V116.885H299.735V123.431H301.009V119.544ZM308.812 123.576C309.894 123.576 310.503 123.026 310.746 122.536H310.797V123.431H312.042V119.084C312.042 117.179 310.542 116.8 309.502 116.8C308.317 116.8 307.226 117.277 306.8 118.471L307.998 118.743C308.185 118.279 308.663 117.831 309.519 117.831C310.341 117.831 310.763 118.262 310.763 119.003V119.033C310.763 119.498 310.286 119.489 309.11 119.625C307.87 119.77 306.6 120.094 306.6 121.581C306.6 122.868 307.567 123.576 308.812 123.576ZM309.089 122.553C308.368 122.553 307.849 122.229 307.849 121.598C307.849 120.917 308.454 120.674 309.191 120.576C309.604 120.52 310.584 120.41 310.768 120.226V121.07C310.768 121.846 310.15 122.553 309.089 122.553ZM309.042 116.012H310.06L311.381 114.047H310.039L309.042 116.012ZM313.739 125.885H315.013V122.412H315.09C315.32 122.83 315.789 123.559 316.982 123.559C318.567 123.559 319.718 122.289 319.718 120.171C319.718 118.049 318.55 116.8 316.969 116.8C315.754 116.8 315.316 117.542 315.09 117.946H314.983V116.885H313.739V125.885ZM314.987 120.158C314.987 118.79 315.584 117.883 316.696 117.883C317.851 117.883 318.431 118.858 318.431 120.158C318.431 121.471 317.834 122.472 316.696 122.472C315.601 122.472 314.987 121.535 314.987 120.158ZM323.05 123.576C324.132 123.576 324.742 123.026 324.985 122.536H325.036V123.431H326.28V119.084C326.28 117.179 324.78 116.8 323.74 116.8C322.556 116.8 321.465 117.277 321.039 118.471L322.236 118.743C322.424 118.279 322.901 117.831 323.757 117.831C324.58 117.831 325.002 118.262 325.002 119.003V119.033C325.002 119.498 324.524 119.489 323.348 119.625C322.108 119.77 320.838 120.094 320.838 121.581C320.838 122.868 321.806 123.576 323.05 123.576ZM323.327 122.553C322.607 122.553 322.087 122.229 322.087 121.598C322.087 120.917 322.692 120.674 323.429 120.576C323.843 120.52 324.823 120.41 325.006 120.226V121.07C325.006 121.846 324.388 122.553 323.327 122.553ZM330.427 123.559C331.621 123.559 332.089 122.83 332.319 122.412H332.426V123.431H333.67V114.704H332.396V117.946H332.319C332.089 117.542 331.655 116.8 330.436 116.8C328.855 116.8 327.692 118.049 327.692 120.171C327.692 122.289 328.838 123.559 330.427 123.559ZM330.709 122.472C329.571 122.472 328.979 121.471 328.979 120.158C328.979 118.858 329.558 117.883 330.709 117.883C331.821 117.883 332.417 118.79 332.417 120.158C332.417 121.535 331.808 122.472 330.709 122.472ZM339.635 120.716C339.639 121.829 338.813 122.357 338.097 122.357C337.308 122.357 336.763 121.786 336.763 120.895V116.885H335.489V121.049C335.489 122.672 336.379 123.516 337.637 123.516C338.621 123.516 339.29 122.996 339.593 122.297H339.661V123.431H340.914V116.885H339.635V120.716Z" fill="#98999A"/>
<path d="M226.397 185.035C228.178 185.035 229.486 183.97 229.482 182.521C229.486 181.417 228.817 180.625 227.658 180.446V180.377C228.57 180.143 229.163 179.427 229.158 178.447C229.163 177.164 228.11 176.069 226.431 176.069C224.829 176.069 223.542 177.036 223.499 178.455H224.773C224.803 177.654 225.557 177.169 226.414 177.169C227.305 177.169 227.888 177.71 227.884 178.515C227.888 179.359 227.211 179.913 226.243 179.913H225.506V180.987H226.243C227.454 180.987 228.153 181.6 228.153 182.478C228.153 183.326 227.415 183.902 226.388 183.902C225.442 183.902 224.705 183.416 224.654 182.64H223.316C223.371 184.063 224.633 185.035 226.397 185.035ZM231.68 184.997C232.144 184.997 232.532 184.617 232.532 184.144C232.532 183.68 232.144 183.296 231.68 183.296C231.211 183.296 230.828 183.68 230.828 184.144C230.828 184.617 231.211 184.997 231.68 184.997ZM242.136 178.481H243.406C243.368 177.083 242.132 176.069 240.359 176.069C238.608 176.069 237.265 177.071 237.265 178.575C237.265 179.789 238.135 180.501 239.537 180.88L240.568 181.161C241.501 181.409 242.221 181.715 242.221 182.491C242.221 183.343 241.408 183.906 240.287 183.906C239.273 183.906 238.429 183.454 238.352 182.504H237.031C237.116 184.085 238.339 185.061 240.295 185.061C242.345 185.061 243.525 183.982 243.525 182.504C243.525 180.931 242.123 180.322 241.015 180.049L240.163 179.828C239.481 179.653 238.574 179.333 238.578 178.498C238.578 177.757 239.256 177.207 240.329 177.207C241.331 177.207 242.042 177.676 242.136 178.481ZM244.997 187.37H246.271V183.897H246.348C246.578 184.315 247.046 185.044 248.24 185.044C249.825 185.044 250.975 183.774 250.975 181.656C250.975 179.534 249.808 178.285 248.227 178.285C247.012 178.285 246.573 179.027 246.348 179.431H246.241V178.37H244.997V187.37ZM246.245 181.643C246.245 180.275 246.842 179.367 247.954 179.367C249.109 179.367 249.688 180.343 249.688 181.643C249.688 182.955 249.092 183.957 247.954 183.957C246.859 183.957 246.245 183.019 246.245 181.643ZM255.16 185.048C257.005 185.048 258.211 183.697 258.211 181.673C258.211 179.636 257.005 178.285 255.16 178.285C253.315 178.285 252.109 179.636 252.109 181.673C252.109 183.697 253.315 185.048 255.16 185.048ZM255.164 183.978C253.958 183.978 253.396 182.926 253.396 181.669C253.396 180.416 253.958 179.35 255.164 179.35C256.362 179.35 256.924 180.416 256.924 181.669C256.924 182.926 256.362 183.978 255.164 183.978ZM259.633 184.916H260.908V182.593L261.542 181.958L263.767 184.916H265.331L262.501 181.179L265.152 178.37H263.626L261.018 181.14H260.908V176.188H259.633V184.916ZM268.801 185.048C270.646 185.048 271.852 183.697 271.852 181.673C271.852 179.636 270.646 178.285 268.801 178.285C266.955 178.285 265.75 179.636 265.75 181.673C265.75 183.697 266.955 185.048 268.801 185.048ZM268.805 183.978C267.599 183.978 267.036 182.926 267.036 181.669C267.036 180.416 267.599 179.35 268.805 179.35C270.002 179.35 270.565 180.416 270.565 181.669C270.565 182.926 270.002 183.978 268.805 183.978ZM273.274 178.37V185.333C273.274 185.938 273.023 186.271 272.417 186.271H272.213V187.366C272.302 187.37 272.383 187.37 272.473 187.37C273.828 187.37 274.548 186.654 274.548 185.342V178.37H273.274ZM273.905 177.36C274.344 177.36 274.71 177.019 274.71 176.602C274.71 176.184 274.344 175.839 273.905 175.839C273.462 175.839 273.099 176.184 273.099 176.602C273.099 177.019 273.462 177.36 273.905 177.36ZM279.083 185.048C280.511 185.048 281.521 184.345 281.811 183.279L280.605 183.062C280.375 183.68 279.821 183.995 279.096 183.995C278.005 183.995 277.272 183.288 277.238 182.027H281.892V181.575C281.892 179.21 280.477 178.285 278.994 178.285C277.17 178.285 275.968 179.674 275.968 181.686C275.968 183.718 277.153 185.048 279.083 185.048ZM277.242 181.072C277.294 180.143 277.967 179.338 279.002 179.338C279.991 179.338 280.639 180.071 280.643 181.072H277.242ZM284.579 181.029C284.579 179.985 285.219 179.389 286.105 179.389C286.97 179.389 287.494 179.955 287.494 180.906V184.916H288.768V180.752C288.768 179.133 287.878 178.285 286.54 178.285C285.555 178.285 284.912 178.741 284.609 179.436H284.528V178.37H283.305V184.916H284.579V181.029ZM290.477 184.916H291.751V178.37H290.477V184.916ZM290.596 177.497H291.615L292.936 175.532H291.594L290.596 177.497ZM300.788 182.201C300.792 183.313 299.965 183.842 299.249 183.842C298.461 183.842 297.915 183.271 297.915 182.38V178.37H296.641V182.534C296.641 184.157 297.532 185.001 298.789 185.001C299.773 185.001 300.442 184.481 300.745 183.782H300.813V184.916H302.066V178.37H300.788V182.201ZM303.642 184.916H308.896V183.808H305.367V183.748L308.777 179.299V178.37H303.757V179.478H307.187V179.538L303.642 184.042V184.916ZM305.346 175.715H304.196V175.779L305.691 177.586H306.752L308.252 175.779V175.715H307.098L306.224 176.857L305.346 175.715ZM310.399 184.916H311.673V178.37H310.399V184.916ZM311.042 177.36C311.481 177.36 311.848 177.019 311.848 176.602C311.848 176.184 311.481 175.839 311.042 175.839C310.599 175.839 310.237 176.184 310.237 176.602C310.237 177.019 310.599 177.36 311.042 177.36ZM318.987 178.37H317.619L315.965 183.407H315.897L314.24 178.37H312.872L315.25 184.916H316.613L318.987 178.37ZM321.89 185.061C322.972 185.061 323.582 184.511 323.824 184.021H323.876V184.916H325.12V180.569C325.12 178.664 323.62 178.285 322.58 178.285C321.395 178.285 320.305 178.762 319.878 179.955L321.076 180.228C321.263 179.764 321.741 179.316 322.597 179.316C323.42 179.316 323.841 179.747 323.841 180.488V180.518C323.841 180.982 323.364 180.974 322.188 181.11C320.948 181.255 319.678 181.579 319.678 183.066C319.678 184.353 320.645 185.061 321.89 185.061ZM322.167 184.038C321.447 184.038 320.927 183.714 320.927 183.083C320.927 182.402 321.532 182.159 322.269 182.061C322.682 182.005 323.663 181.894 323.846 181.711V182.555C323.846 183.33 323.228 184.038 322.167 184.038ZM329.872 178.37H328.53V176.802H327.256V178.37H326.297V179.393H327.256V183.258C327.252 184.447 328.159 185.022 329.165 185.001C329.57 184.997 329.843 184.92 329.992 184.865L329.762 183.812C329.676 183.829 329.519 183.867 329.314 183.867C328.901 183.867 328.53 183.731 328.53 182.994V179.393H329.872V178.37ZM334.033 185.048C335.46 185.048 336.47 184.345 336.76 183.279L335.554 183.062C335.324 183.68 334.77 183.995 334.045 183.995C332.954 183.995 332.221 183.288 332.187 182.027H336.841V181.575C336.841 179.21 335.426 178.285 333.943 178.285C332.119 178.285 330.917 179.674 330.917 181.686C330.917 183.718 332.102 185.048 334.033 185.048ZM332.192 181.072C332.243 180.143 332.916 179.338 333.952 179.338C334.94 179.338 335.588 180.071 335.592 181.072H332.192ZM339.529 176.188H338.254V184.916H339.529V176.188ZM344.064 185.048C345.491 185.048 346.501 184.345 346.791 183.279L345.585 183.062C345.355 183.68 344.801 183.995 344.077 183.995C342.986 183.995 342.253 183.288 342.219 182.027H346.872V181.575C346.872 179.21 345.457 178.285 343.974 178.285C342.15 178.285 340.949 179.674 340.949 181.686C340.949 183.718 342.133 185.048 344.064 185.048ZM342.223 181.072C342.274 180.143 342.947 179.338 343.983 179.338C344.971 179.338 345.619 180.071 345.623 181.072H342.223ZM343.399 177.497H344.417L345.739 175.532H344.396L343.399 177.497Z" fill="#98999A"/>
<path d="M223.175 243.75H227.313V245.455H228.57V243.75H229.725V242.634H228.57V236.727H226.947L223.175 242.685V243.75ZM227.322 242.634H224.556V242.565L227.253 238.296H227.322V242.634ZM231.739 245.536C232.203 245.536 232.591 245.156 232.591 244.683C232.591 244.219 232.203 243.835 231.739 243.835C231.27 243.835 230.886 244.219 230.886 244.683C230.886 245.156 231.27 245.536 231.739 245.536ZM237.435 245.455H238.752V242.386H240.541C242.566 242.386 243.567 241.163 243.567 239.553C243.567 237.946 242.574 236.727 240.546 236.727H237.435V245.455ZM238.752 241.27V237.857H240.405C241.709 237.857 242.242 238.564 242.242 239.553C242.242 240.541 241.709 241.27 240.422 241.27H238.752ZM245.008 245.455H246.283V241.458C246.283 240.601 246.943 239.983 247.846 239.983C248.111 239.983 248.409 240.03 248.511 240.06V238.841C248.383 238.824 248.132 238.811 247.97 238.811C247.203 238.811 246.547 239.246 246.308 239.949H246.24V238.909H245.008V245.455ZM252.137 245.587C253.982 245.587 255.188 244.236 255.188 242.212C255.188 240.175 253.982 238.824 252.137 238.824C250.291 238.824 249.085 240.175 249.085 242.212C249.085 244.236 250.291 245.587 252.137 245.587ZM252.141 244.517C250.935 244.517 250.372 243.465 250.372 242.208C250.372 240.955 250.935 239.889 252.141 239.889C253.338 239.889 253.901 240.955 253.901 242.208C253.901 243.465 253.338 244.517 252.141 244.517ZM261.515 240.507C261.251 239.489 260.454 238.824 259.039 238.824C257.56 238.824 256.512 239.604 256.512 240.763C256.512 241.692 257.074 242.31 258.302 242.583L259.41 242.825C260.04 242.966 260.334 243.247 260.334 243.656C260.334 244.163 259.793 244.56 258.958 244.56C258.195 244.56 257.705 244.232 257.552 243.588L256.32 243.776C256.533 244.935 257.496 245.587 258.966 245.587C260.547 245.587 261.643 244.747 261.643 243.563C261.643 242.638 261.055 242.067 259.853 241.79L258.813 241.551C258.093 241.381 257.782 241.138 257.786 240.695C257.782 240.192 258.327 239.834 259.052 239.834C259.844 239.834 260.211 240.273 260.36 240.712L261.515 240.507ZM263.044 247.909H264.318V244.436H264.394C264.625 244.854 265.093 245.583 266.286 245.583C267.872 245.583 269.022 244.313 269.022 242.195C269.022 240.073 267.855 238.824 266.274 238.824C265.059 238.824 264.62 239.565 264.394 239.97H264.288V238.909H263.044V247.909ZM264.292 242.182C264.292 240.814 264.889 239.906 266.001 239.906C267.156 239.906 267.735 240.882 267.735 242.182C267.735 243.494 267.139 244.496 266.001 244.496C264.906 244.496 264.292 243.558 264.292 242.182ZM273.271 245.587C274.698 245.587 275.708 244.884 275.998 243.818L274.792 243.601C274.562 244.219 274.008 244.534 273.284 244.534C272.193 244.534 271.46 243.827 271.426 242.565H276.079V242.114C276.079 239.749 274.664 238.824 273.181 238.824C271.357 238.824 270.156 240.213 270.156 242.225C270.156 244.257 271.34 245.587 273.271 245.587ZM271.43 241.611C271.481 240.682 272.154 239.877 273.19 239.877C274.178 239.877 274.826 240.61 274.83 241.611H271.43ZM277.493 245.455H278.767V241.458C278.767 240.601 279.427 239.983 280.331 239.983C280.595 239.983 280.893 240.03 280.996 240.06V238.841C280.868 238.824 280.616 238.811 280.454 238.811C279.687 238.811 279.031 239.246 278.792 239.949H278.724V238.909H277.493V245.455ZM286.245 242.74C286.249 243.852 285.422 244.381 284.706 244.381C283.918 244.381 283.372 243.81 283.372 242.919V238.909H282.098V243.073C282.098 244.696 282.989 245.54 284.246 245.54C285.23 245.54 285.899 245.02 286.202 244.321H286.27V245.455H287.523V238.909H286.245V242.74ZM289.235 238.909V245.872C289.235 246.477 288.984 246.81 288.378 246.81H288.174V247.905C288.263 247.909 288.344 247.909 288.434 247.909C289.789 247.909 290.509 247.193 290.509 245.881V238.909H289.235ZM289.866 237.899C290.305 237.899 290.671 237.558 290.671 237.141C290.671 236.723 290.305 236.378 289.866 236.378C289.422 236.378 289.06 236.723 289.06 237.141C289.06 237.558 289.422 237.899 289.866 237.899ZM292.223 245.455H293.497V238.909H292.223V245.455ZM292.343 238.036H293.361L294.682 236.071H293.34L292.343 238.036ZM297.969 245.587C299.515 245.587 300.517 244.658 300.658 243.384H299.417C299.256 244.091 298.706 244.509 297.977 244.509C296.899 244.509 296.204 243.61 296.204 242.182C296.204 240.78 296.912 239.898 297.977 239.898C298.787 239.898 299.281 240.409 299.417 241.023H300.658C300.521 239.702 299.443 238.824 297.956 238.824C296.111 238.824 294.917 240.213 294.917 242.212C294.917 244.185 296.068 245.587 297.969 245.587ZM302.02 245.455H303.294V238.909H302.02V245.455ZM302.139 238.036H303.158L304.479 236.071H303.137L302.139 238.036ZM308.184 247.909H309.458V244.436H309.535C309.765 244.854 310.234 245.583 311.427 245.583C313.012 245.583 314.163 244.313 314.163 242.195C314.163 240.073 312.995 238.824 311.414 238.824C310.2 238.824 309.761 239.565 309.535 239.97H309.428V238.909H308.184V247.909ZM309.433 242.182C309.433 240.814 310.029 239.906 311.142 239.906C312.296 239.906 312.876 240.882 312.876 242.182C312.876 243.494 312.279 244.496 311.142 244.496C310.046 244.496 309.433 243.558 309.433 242.182ZM315.59 245.455H316.865V241.458C316.865 240.601 317.525 239.983 318.428 239.983C318.693 239.983 318.991 240.03 319.093 240.06V238.841C318.965 238.824 318.714 238.811 318.552 238.811C317.785 238.811 317.129 239.246 316.89 239.949H316.822V238.909H315.59V245.455ZM322.719 245.587C324.564 245.587 325.77 244.236 325.77 242.212C325.77 240.175 324.564 238.824 322.719 238.824C320.873 238.824 319.667 240.175 319.667 242.212C319.667 244.236 320.873 245.587 322.719 245.587ZM322.723 244.517C321.517 244.517 320.954 243.465 320.954 242.208C320.954 240.955 321.517 239.889 322.723 239.889C323.92 239.889 324.483 240.955 324.483 242.208C324.483 243.465 323.92 244.517 322.723 244.517ZM329.642 245.583C330.835 245.583 331.304 244.854 331.534 244.436H331.641V245.455H332.885V236.727H331.611V239.97H331.534C331.304 239.565 330.87 238.824 329.651 238.824C328.07 238.824 326.906 240.073 326.906 242.195C326.906 244.313 328.053 245.583 329.642 245.583ZM329.924 244.496C328.786 244.496 328.193 243.494 328.193 242.182C328.193 240.882 328.773 239.906 329.924 239.906C331.036 239.906 331.632 240.814 331.632 242.182C331.632 243.558 331.023 244.496 329.924 244.496ZM338.85 242.74C338.854 243.852 338.028 244.381 337.312 244.381C336.523 244.381 335.978 243.81 335.978 242.919V238.909H334.704V243.073C334.704 244.696 335.594 245.54 336.851 245.54C337.836 245.54 338.505 245.02 338.807 244.321H338.876V245.455H340.128V238.909H338.85V242.74ZM341.84 245.455H343.115V243.132L343.75 242.497L345.974 245.455H347.538L344.708 241.717L347.359 238.909H345.833L343.225 241.679H343.115V236.727H341.84V245.455ZM351.576 238.909H350.233V237.341H348.959V238.909H348V239.932H348.959V243.797C348.955 244.986 349.862 245.561 350.868 245.54C351.273 245.536 351.546 245.459 351.695 245.404L351.465 244.351C351.379 244.368 351.222 244.406 351.017 244.406C350.604 244.406 350.233 244.27 350.233 243.533V239.932H351.576V238.909Z" fill="#98999A"/>
<path d="M188.821 118.403C188.821 112.187 193.467 107.055 199.477 106.293C198.969 106.228 198.451 106.195 197.925 106.195C191.183 106.195 185.717 111.661 185.717 118.403C185.717 125.146 191.183 130.612 197.925 130.612C198.451 130.612 198.969 130.578 199.477 130.514C193.467 129.751 188.821 124.62 188.821 118.403Z" fill="#E6E6E6"/>
<path d="M197.925 131.646C194.388 131.646 191.062 130.269 188.561 127.768C186.06 125.266 184.682 121.941 184.682 118.403C184.682 114.866 186.06 111.54 188.561 109.039C191.062 106.538 194.388 105.16 197.925 105.16C201.462 105.16 204.788 106.538 207.289 109.039C209.791 111.54 211.168 114.866 211.168 118.403C211.168 121.941 209.791 125.266 207.289 127.768C204.788 130.269 201.462 131.646 197.925 131.646ZM197.925 107.23C191.764 107.23 186.751 112.242 186.751 118.403C186.751 124.565 191.764 129.577 197.925 129.577C204.086 129.577 209.099 124.565 209.099 118.403C209.099 112.242 204.086 107.23 197.925 107.23Z" fill="#E6E6E6"/>
<path d="M201.95 113.883C201.126 113.415 200.148 113.424 199.334 113.908L195.402 116.244C195.111 116.417 194.863 116.64 194.666 116.896V114.524C194.666 113.952 194.203 113.489 193.632 113.489C193.06 113.489 192.597 113.952 192.597 114.524V122.335C192.597 122.906 193.06 123.369 193.632 123.369C194.203 123.369 194.666 122.906 194.666 122.335V120.014C194.863 120.271 195.111 120.493 195.402 120.666L199.334 123.002H199.334C199.748 123.249 200.205 123.372 200.662 123.372C201.104 123.372 201.545 123.257 201.95 123.027C202.766 122.562 203.254 121.727 203.254 120.791V116.119C203.254 115.183 202.766 114.348 201.95 113.883ZM201.184 120.791C201.184 121.044 201.023 121.174 200.927 121.228C200.846 121.274 200.631 121.366 200.391 121.223H200.391L196.46 118.887C196.243 118.758 196.21 118.561 196.21 118.455C196.21 118.349 196.243 118.152 196.46 118.023L200.391 115.687C200.631 115.544 200.846 115.636 200.927 115.682C201.023 115.737 201.184 115.866 201.184 116.119V120.791Z" fill="#E6E6E6"/>
<circle cx="197.932" cy="56.9249" r="13.2493" fill="#D3D3D3" fill-opacity="0.23"/>
<path d="M192.296 53.6518C192.296 53.6518 192.205 50.1672 197.462 49.9227C202.017 49.7087 202.628 51.6038 203.025 52.8876C203.423 54.1714 197.89 57.656 197.89 57.656L192.296 53.6518Z" fill="#4E4C82"/>
<path d="M195.11 65.267L194.835 58.2673L199.328 58.0839L199.603 64.8391C199.664 66.0923 198.686 66.6425 197.433 66.7037C196.18 66.7342 195.14 66.4897 195.11 65.267Z" fill="#FCD2B1"/>
<path d="M194.833 59.0315C194.833 59.0315 194.191 63.1885 199.571 64.1972L199.418 60.9877L194.833 59.0315Z" fill="#FCD2B1"/>
<path d="M200.733 50.9008C199.113 50.9314 203.912 50.8397 203.086 55.9137L201.497 53.7435L200.733 50.9008Z" fill="#34334B"/>
<path d="M198.715 62.7912C201.13 62.6689 203.025 61.1406 202.903 58.7258L202.658 53.9269C202.597 52.8876 201.711 52.0623 200.671 52.1235L195.72 52.368C194.68 52.4291 193.855 53.3156 193.916 54.3548L194.1 58.4813C194.253 60.8655 196.698 62.8829 198.715 62.7912Z" fill="#FCD2B1"/>
<path d="M194.405 57.1058C194.405 57.1058 196.79 55.5163 195.75 52.3374L193.305 52.4597C193.305 52.4597 192.938 51.9095 192.449 52.6737C191.96 53.4073 193.091 56.8918 193.091 56.8918L194.405 57.1058Z" fill="#34334B"/>
<path d="M195.078 55.3635L195.964 52.9488C195.964 52.9488 201.802 53.6824 203.239 52.0318C204.614 50.4423 203.484 48.0581 202.322 47.8136C201.405 47.6302 200.427 48.4555 199.724 48.8529C199.021 49.2502 197.37 48.8834 196.851 48.8529C196.362 48.8223 194.191 48.3944 193.519 50.6563C193.519 50.6563 190.004 51.9706 193.641 57.9005C193.672 57.9005 195.108 57.0141 195.078 55.3635Z" fill="#34334B"/>
<path d="M195.628 55.0273C195.628 55.0273 195.475 58.2368 196.178 59.1538C196.881 60.0708 197.279 59.1232 199.816 58.7259C202.353 58.3285 202.994 59.49 202.994 59.49C202.994 59.49 202.872 62.7301 199.54 62.8829C196.942 63.0052 193.06 62.455 193.58 58.2979C194.069 54.1714 193.886 53.1016 193.886 53.1016L195.628 55.0273Z" fill="#34334B"/>
<circle cx="198.878" cy="180.841" r="13.2493" fill="#D3D3D3" fill-opacity="0.23"/>
<path d="M201.416 176.02C201.665 176.655 201.472 177.346 201.306 178.009C201.14 178.672 201.057 179.418 201.499 179.97C201.941 180.523 202.77 180.716 203.35 181.186C203.903 181.628 204.207 182.319 204.096 182.954C204.013 183.396 203.765 183.866 204.041 184.252C204.179 184.446 204.428 184.556 204.676 184.667C205.201 184.888 205.754 185.081 206.251 185.358C206.748 185.634 207.19 185.993 207.411 186.49C207.715 187.153 207.494 187.899 207.218 188.562C206.969 189.225 206.61 189.916 205.92 190.248C205.395 190.496 204.759 190.496 204.151 190.441C202.383 190.303 200.643 189.888 199.013 189.225C197.991 188.811 196.996 188.258 196.36 187.457C195.366 186.186 195.476 184.529 195.753 183.037C195.918 182.208 196.139 181.352 196.803 180.716C197.438 180.108 198.405 179.777 199.372 179.749C200.339 179.694 200.477 175.743 201.416 176.02Z" fill="#FF8C4A"/>
<path d="M193.46 180.606C192.659 179.473 192.327 178.092 192.548 176.765C192.797 175.467 193.598 174.251 194.758 173.45" fill="#FF8C4A"/>
<path d="M198.074 185.744C198.018 185.247 198.433 183.285 198.433 183.285C198.433 183.285 200.56 183.285 200.836 181.49C201.113 179.694 201.361 175.522 201.361 175.522L197.659 173.533L193.653 175.937L193.018 184.998L198.074 185.744Z" fill="#FCD2B1"/>
<path d="M198.433 183.285C198.433 183.285 197.024 183.175 195.725 182.236C195.725 182.236 196.223 183.617 198.35 183.728L198.433 183.285Z" fill="#FCD2B1"/>
<path d="M201.886 176.517C201.886 176.517 202.494 173.671 197.908 172.732C193.322 171.82 192.797 176.627 192.797 176.627L195.366 176.434L196.029 175.246L196.001 176.434L197.908 176.489L197.88 175.605L198.35 176.351L201.886 176.517Z" fill="#FF8C4A"/>
<path d="M200.464 240.728L189.351 237.239C191.18 231.393 197.333 227.938 203.281 229.418C209.484 230.959 213.313 237.332 211.773 243.536C210.233 249.739 203.859 253.569 197.656 252.028C196.371 251.713 195.154 251.177 194.048 250.446L200.464 240.728Z" fill="#D3D3D3" fill-opacity="0.23"/>
<path d="M197.571 241.868L191.027 251.858C188.866 250.445 187.223 248.361 186.338 245.935C185.462 243.502 185.394 240.855 186.151 238.379L197.571 241.868Z" fill="#4E4C82" fill-opacity="0.5"/>
<path d="M371.316 74.8583L371.172 74.9172L371.168 74.918L368.065 76.218L367.067 76.6339L367.062 76.6347L364.779 77.5935L362.975 78.3481L357.437 80.6628L351.89 66.7434L354.418 65.7318L354.422 65.7309L362.858 62.3734L365.809 61.1961L367.639 65.7816L368.267 67.3582L369.029 69.2333L369.792 71.1129L370.944 73.948L371.316 74.8583Z" fill="#FF8C4A"/>
<path d="M353.748 64.0452L362.184 60.6809L363.53 64.0552L355.094 67.4195L353.748 64.0452Z" fill="#4E4C82"/>
<path d="M380.347 70.0456L379.274 84.9943L364.325 83.9216L364.437 82.3975L364.78 77.5935L365.398 68.9729L368.119 69.1674L369.029 69.2332L377.178 69.8192L380.347 70.0456Z" fill="#FF8C4A"/>
<path d="M377.307 68.0087L377.178 69.8192L377.045 71.6306L369.792 71.1129L367.986 70.9834L368.119 69.1674L368.248 67.3568L368.267 67.3582L375.564 67.8825L377.307 68.0087Z" fill="#4E4C82"/>
<path opacity="0.1" d="M368.267 67.3582L368.248 67.3568L368.119 69.1674L365.398 68.9729L364.78 77.5935L362.975 78.3481L363.401 72.4289L363.425 72.0497L363.424 72.045L363.711 68.0968L363.766 67.3422L363.767 67.3227L363.801 67.3263L365.008 67.4121L366.483 67.518L366.612 65.7075L367.639 65.7816L368.267 67.3582Z" fill="#FF8C4A"/>
<path d="M367.556 74.5336L367.655 73.591L377.942 74.669L377.844 75.6116L367.556 74.5336Z" fill="white"/>
<path d="M370.949 77.5302L371.07 76.5913L375.007 77.0997L374.886 78.0386L370.949 77.5302Z" fill="white"/>
<path d="M367.015 77.0231L367.137 76.0842L369.105 76.3384L368.984 77.2773L367.015 77.0231Z" fill="white"/>
<path d="M366.596 79.9918L366.694 79.0492L376.982 80.1272L376.883 81.0698L366.596 79.9918Z" fill="white"/>
<path d="M363.439 67.5817L364.831 66.8873L365.161 67.6536L363.769 68.348L363.439 67.5817Z" fill="white"/>
<path d="M355.864 71.0274L362.168 68.0784L362.488 68.7768L356.184 71.7258L355.864 71.0274Z" fill="white"/>
<path d="M360.503 72.7633L363.247 71.4906L363.556 72.2286L360.812 73.5013L360.503 72.7633Z" fill="white"/>
<path d="M357.373 74.0797L359.669 73.0058L359.978 73.7529L357.683 74.8268L357.373 74.0797Z" fill="white"/>
<path d="M150.058 345.536C163.003 341.226 170.003 327.237 165.693 314.292C161.382 301.346 147.393 294.346 134.448 298.657C121.503 302.967 114.503 316.956 118.813 329.901C123.124 342.847 137.113 349.847 150.058 345.536Z" fill="#EB8245"/>
<path d="M131.827 325.636C132.777 324.89 133.702 324.636 134.602 324.876C135.503 325.103 136.416 325.806 137.34 326.982C138.274 328.171 138.753 329.24 138.775 330.188C138.793 331.131 138.33 331.972 137.387 332.714L134.952 334.626L133.935 333.137L130.562 328.843L129.392 327.549L131.827 325.636ZM136.364 331.411C136.697 331.149 136.905 330.87 136.986 330.572C137.062 330.267 137.013 329.92 136.838 329.528C136.669 329.132 136.364 328.654 135.925 328.094C135.465 327.509 135.068 327.094 134.732 326.848C134.404 326.598 134.092 326.487 133.798 326.514C133.506 326.53 133.19 326.672 132.85 326.938L131.869 327.709L135.382 332.182L136.364 331.411ZM146.378 325.65L144.727 326.947L143.398 325.702L143.383 325.684L140.982 327.6L141.877 329.186L140.415 330.335L139.765 328.556L137.59 323.398L136.761 321.76L138.847 320.122L140.242 321.315L144.804 324.598L146.378 325.65ZM141.99 324.687L138.759 322.342L140.318 326.016L141.99 324.687ZM146.807 316.035L146.726 316.145L145.787 316.699L144.919 317.381L148.381 321.788L149.587 323.129L148.04 324.345L147.022 322.856L143.56 318.449L142.692 319.131L141.932 319.911L141.806 319.964L140.961 318.461L145.547 314.859L146.807 316.035ZM157.207 317.144L155.555 318.441L154.226 317.196L154.211 317.178L151.81 319.094L152.705 320.68L151.243 321.829L150.593 320.05L148.418 314.892L147.589 313.254L149.675 311.616L151.07 312.809L155.632 316.092L157.207 317.144ZM152.818 316.181L149.588 313.836L151.146 317.51L152.818 316.181Z" fill="white"/>
<path d="M40.0496 348.948C52.9949 344.638 59.9948 330.649 55.6843 317.704C51.3737 304.759 37.385 297.759 24.4397 302.069C11.4943 306.38 4.49439 320.368 8.80495 333.314C13.1155 346.259 27.1042 353.259 40.0496 348.948Z" fill="#4E4C82"/>
<path d="M15.5421 321.427C16.7501 321.427 17.6341 321.799 18.1941 322.543C18.7621 323.279 19.0461 324.395 19.0461 325.891C19.0461 327.403 18.7621 328.539 18.1941 329.299C17.6261 330.051 16.7421 330.427 15.5421 330.427H12.4461L12.5661 328.627V323.167L12.4461 321.427H15.5421ZM15.5421 328.771C15.9661 328.771 16.3021 328.679 16.5501 328.495C16.7981 328.303 16.9741 327.999 17.0781 327.583C17.1901 327.167 17.2461 326.603 17.2461 325.891C17.2461 325.147 17.1901 324.575 17.0781 324.175C16.9741 323.775 16.7981 323.495 16.5501 323.335C16.3101 323.167 15.9741 323.083 15.5421 323.083H14.2941V328.771H15.5421ZM25.8074 328.771L25.5434 330.427H20.2274L20.3474 328.627V323.167L20.2274 321.427H25.6874L25.4234 323.083H22.0754V324.967H25.1234L24.8594 326.623H22.0754V328.771H25.8074ZM29.5722 330.559C29.0362 330.559 28.5202 330.463 28.0242 330.271C27.5362 330.071 27.1122 329.787 26.7522 329.419L26.5002 327.727L26.6682 327.679C27.1162 328.063 27.5682 328.359 28.0242 328.567C28.4802 328.767 28.9202 328.867 29.3442 328.867C29.8482 328.867 30.2362 328.791 30.5082 328.639C30.7882 328.479 30.9282 328.255 30.9282 327.967C30.9282 327.695 30.7962 327.475 30.5322 327.307C30.2762 327.131 29.8122 326.943 29.1402 326.743C28.5082 326.559 28.0122 326.355 27.6522 326.131C27.2922 325.907 27.0322 325.627 26.8722 325.291C26.7122 324.955 26.6322 324.519 26.6322 323.983C26.6322 323.143 26.9042 322.487 27.4482 322.015C28.0002 321.543 28.7242 321.307 29.6202 321.307C30.1642 321.307 30.6882 321.391 31.1922 321.559C31.6962 321.727 32.1042 321.951 32.4162 322.231L32.1522 323.851L31.9722 323.899C31.8042 323.635 31.5122 323.419 31.0962 323.251C30.6882 323.083 30.2482 322.999 29.7762 322.999C29.3442 322.999 29.0122 323.075 28.7802 323.227C28.5482 323.379 28.4322 323.603 28.4322 323.899C28.4322 324.203 28.5442 324.439 28.7682 324.607C29.0002 324.767 29.4162 324.931 30.0162 325.099C30.7042 325.291 31.2402 325.499 31.6242 325.723C32.0082 325.939 32.2882 326.211 32.4642 326.539C32.6402 326.867 32.7282 327.287 32.7282 327.799C32.7282 328.671 32.4402 329.351 31.8642 329.839C31.2882 330.319 30.5242 330.559 29.5722 330.559ZM33.9294 328.627V323.167L33.8094 321.427H35.7774L35.6574 323.167V328.627L35.7774 330.427H33.8094L33.9294 328.627ZM36.9555 325.891C36.9555 324.299 37.2435 323.127 37.8195 322.375C38.4035 321.615 39.3675 321.235 40.7115 321.235C41.1435 321.235 41.5795 321.311 42.0195 321.463C42.4675 321.607 42.8875 321.831 43.2795 322.135L43.0155 323.659L42.7755 323.767C42.5595 323.511 42.2675 323.307 41.8995 323.155C41.5315 323.003 41.1355 322.927 40.7115 322.927C40.2235 322.927 39.8355 323.027 39.5475 323.227C39.2675 323.419 39.0635 323.727 38.9355 324.151C38.8155 324.575 38.7555 325.155 38.7555 325.891C38.7555 326.667 38.8075 327.275 38.9115 327.715C39.0155 328.147 39.1875 328.459 39.4275 328.651C39.6755 328.835 40.0155 328.927 40.4475 328.927C40.9915 328.927 41.3875 328.771 41.6355 328.459C41.8835 328.147 42.0075 327.635 42.0075 326.923H40.2795V325.267H43.6875V330.427H42.7275L42.4275 329.527C42.2195 329.847 41.9195 330.111 41.5275 330.319C41.1355 330.519 40.7355 330.619 40.3275 330.619C39.5435 330.619 38.9035 330.455 38.4075 330.127C37.9195 329.799 37.5555 329.291 37.3155 328.603C37.0755 327.907 36.9555 327.003 36.9555 325.891ZM51.4462 328.627L51.5662 330.427H48.8422L46.5502 323.323V328.627L46.6702 330.427H44.9422L45.0622 328.627V323.167L44.9422 321.427H47.6782L49.9582 328.495V323.167L49.8382 321.427H51.5662L51.4462 323.167V328.627Z" fill="white"/>
<path d="M328.957 331.084C336.075 342.703 351.29 346.338 362.941 339.202C374.592 332.066 378.266 316.862 371.148 305.243C364.03 293.624 348.815 289.989 337.164 297.125C325.514 304.26 321.839 319.464 328.957 331.084Z" fill="#FF8C4A"/>
<path d="M340.807 320.089L341.199 321.92L342.688 327.225L343.278 328.938L340.966 330.31L339.748 328.97L335.823 325.112L334.406 323.89L336.237 322.803L337.381 324.186L341.167 327.88L339.756 322.777L339.092 321.108L340.807 320.089ZM347.721 322.737L348.372 323.836L349.381 325.3L347.666 326.319L346.866 324.73L346.239 323.672L342.488 321.086L340.766 320.113L342.785 318.915L344.13 320.111L345.873 321.359L345.615 319.229L345.212 317.474L347.23 316.275L347.257 318.254L347.721 322.737ZM344.539 314.93L343.919 317.416L342.654 318.168L342.729 316.004L344.539 314.93ZM353.586 312.502L353.977 314.332L355.466 319.638L356.056 321.351L353.745 322.723L352.527 321.383L348.601 317.525L347.184 316.303L349.015 315.216L350.16 316.599L353.945 320.293L352.534 315.189L351.87 313.52L353.586 312.502ZM361.626 318.264C360.608 318.868 359.643 318.982 358.732 318.606C357.818 318.223 356.972 317.377 356.197 316.068C355.429 314.772 355.1 313.643 355.208 312.68C355.319 311.706 355.887 310.915 356.912 310.306C357.937 309.698 358.9 309.58 359.8 309.954C360.703 310.316 361.538 311.145 362.305 312.441C363.081 313.75 363.417 314.899 363.314 315.886C363.207 316.867 362.644 317.659 361.626 318.264ZM360.776 316.829C361.153 316.605 361.399 316.353 361.516 316.073C361.636 315.782 361.632 315.426 361.506 315.006C361.383 314.575 361.126 314.031 360.736 313.373C360.359 312.735 360.014 312.265 359.704 311.964C359.4 311.658 359.094 311.491 358.785 311.464C358.473 311.429 358.132 311.522 357.762 311.741C357.393 311.961 357.148 312.216 357.028 312.507C356.905 312.791 356.9 313.142 357.016 313.56C357.138 313.973 357.388 314.499 357.766 315.136C358.156 315.794 358.506 316.283 358.818 316.602C359.133 316.911 359.443 317.084 359.748 317.123C360.057 317.15 360.399 317.052 360.776 316.829ZM362.889 306.978L363.658 308.515L367.305 314.672C367.487 315.902 367.398 316.945 367.038 317.801L365.07 317.415L365.094 317.264C365.212 317.193 365.318 316.951 365.413 316.538C365.514 316.12 365.564 315.664 365.563 315.169L362.152 309.41L361.173 307.996L362.889 306.978Z" fill="white"/>
<path d="M510.298 340.943C523.942 340.943 535.003 329.883 535.003 316.239C535.003 302.594 523.942 291.534 510.298 291.534C496.654 291.534 485.593 302.594 485.593 316.239C485.593 329.883 496.654 340.943 510.298 340.943Z" fill="#4E4C82"/>
<path d="M504.301 321.262C503.765 321.262 503.249 321.166 502.753 320.974C502.265 320.774 501.841 320.49 501.481 320.122L501.229 318.43L501.397 318.382C501.845 318.766 502.297 319.062 502.753 319.27C503.209 319.47 503.649 319.57 504.073 319.57C504.577 319.57 504.965 319.494 505.237 319.342C505.517 319.182 505.657 318.958 505.657 318.67C505.657 318.398 505.525 318.178 505.261 318.01C505.005 317.834 504.541 317.646 503.869 317.446C503.237 317.262 502.741 317.058 502.381 316.834C502.021 316.61 501.761 316.33 501.601 315.994C501.441 315.658 501.361 315.222 501.361 314.686C501.361 313.846 501.633 313.19 502.177 312.718C502.729 312.246 503.453 312.01 504.349 312.01C504.893 312.01 505.417 312.094 505.921 312.262C506.425 312.43 506.833 312.654 507.145 312.934L506.881 314.554L506.701 314.602C506.533 314.338 506.241 314.122 505.825 313.954C505.417 313.786 504.977 313.702 504.505 313.702C504.073 313.702 503.741 313.778 503.509 313.93C503.277 314.082 503.161 314.306 503.161 314.602C503.161 314.906 503.273 315.142 503.497 315.31C503.729 315.47 504.145 315.634 504.745 315.802C505.433 315.994 505.969 316.202 506.353 316.426C506.737 316.642 507.017 316.914 507.193 317.242C507.369 317.57 507.457 317.99 507.457 318.502C507.457 319.374 507.169 320.054 506.593 320.542C506.017 321.022 505.253 321.262 504.301 321.262ZM514.118 319.474L513.854 321.13H508.538L508.658 319.33V313.87L508.538 312.13H513.998L513.734 313.786H510.386V315.67H513.434L513.17 317.326H510.386V319.474H514.118ZM518.352 321.322C517.184 321.322 516.308 320.922 515.724 320.122C515.14 319.314 514.848 318.138 514.848 316.594C514.848 315.066 515.136 313.91 515.712 313.126C516.296 312.334 517.176 311.938 518.352 311.938C519.528 311.938 520.404 312.334 520.98 313.126C521.564 313.91 521.856 315.066 521.856 316.594C521.856 318.138 521.564 319.314 520.98 320.122C520.396 320.922 519.52 321.322 518.352 321.322ZM518.352 319.63C518.784 319.63 519.12 319.538 519.36 319.354C519.608 319.162 519.784 318.85 519.888 318.418C520 317.978 520.056 317.37 520.056 316.594C520.056 315.842 520 315.254 519.888 314.83C519.784 314.406 519.608 314.102 519.36 313.918C519.112 313.726 518.776 313.63 518.352 313.63C517.928 313.63 517.592 313.726 517.344 313.918C517.096 314.102 516.916 314.406 516.804 314.83C516.7 315.254 516.648 315.842 516.648 316.594C516.648 317.37 516.7 317.978 516.804 318.418C516.916 318.85 517.092 319.162 517.332 319.354C517.58 319.538 517.92 319.63 518.352 319.63Z" fill="white"/>
<path d="M375.047 318.046C375.267 331.671 386.52 342.537 400.181 342.317C413.841 342.097 424.736 330.874 424.515 317.249C424.294 303.625 413.042 292.759 399.381 292.979C385.721 293.199 374.826 304.422 375.047 318.046Z" fill="#4E4C82" fill-opacity="0.5"/>
<path d="M391.756 311.851L390.927 313.358L389.308 316.87C388.806 317.958 388.202 318.648 387.497 318.939C386.798 319.234 385.955 319.155 384.968 318.701C383.98 318.247 383.368 317.657 383.131 316.932C382.901 316.21 383.037 315.305 383.539 314.217L385.158 310.705L385.766 309.097L387.578 309.93L386.75 311.437L385.13 314.949C384.856 315.543 384.757 316.009 384.833 316.348C384.917 316.69 385.194 316.97 385.666 317.186C386.137 317.403 386.527 317.43 386.834 317.268C387.148 317.109 387.443 316.732 387.717 316.138L389.336 312.626L389.943 311.018L391.756 311.851ZM390.054 318.879L392.307 313.992L392.915 312.384L394.727 313.217L393.899 314.724L391.646 319.611L391.013 321.272L389.201 320.439L390.054 318.879ZM392.821 321.192L397.165 315.575L398.071 314.104L399.961 314.973L398.779 316.317L394.434 321.934L393.493 323.454L391.592 322.58L392.821 321.192ZM406.262 318.521L405.433 320.028L403.814 323.54C403.312 324.628 402.708 325.318 402.002 325.609C401.304 325.904 400.461 325.825 399.474 325.371C398.486 324.917 397.874 324.327 397.637 323.602C397.407 322.88 397.543 321.975 398.045 320.887L399.664 317.375L400.272 315.767L402.084 316.6L401.256 318.107L399.636 321.619C399.362 322.213 399.263 322.679 399.339 323.018C399.423 323.36 399.7 323.64 400.172 323.856C400.643 324.073 401.033 324.1 401.34 323.938C401.654 323.779 401.949 323.402 402.223 322.808L403.842 319.296L404.449 317.688L406.262 318.521ZM410.216 330.102L408.072 329.116L408.052 327.155L407.881 325.579L406.583 326.479L405.121 327.759L402.988 326.779L404.847 325.681L407.406 323.85L407.178 320.83L406.824 318.779L408.968 319.765L408.957 321.648L409.081 323.006L410.184 322.212L411.565 320.959L413.698 321.94L411.919 323.01L409.537 324.778L409.832 327.973L410.216 330.102Z" fill="white"/>
<path d="M66.7547 130.41C66.7547 130.41 64.1024 147.06 75.0905 145.546C75.0905 145.546 118.664 135.708 120.938 137.978C123.211 140.249 137.345 141.022 136.608 131.45C135.868 121.845 121.696 127.383 121.696 127.383C121.696 127.383 99.7192 130.41 95.1724 128.14C90.6256 125.869 77.7429 126.626 77.7429 126.626L66.7547 130.41Z" fill="#FCD2B1"/>
<path d="M100.007 184.706L93.9647 241.957C93.9647 241.957 92.0702 264.661 86.3867 269.581C86.3867 269.581 86.3867 276.77 84.4922 279.041L81.8398 308.935C81.8398 308.935 85.6289 319.908 85.25 321.8C84.8711 323.692 86.7656 329.747 86.3867 330.504C86.0078 331.26 68.1993 330.504 68.1993 330.504L71.9884 269.581L83.7344 184.818L100.007 184.706Z" fill="#34334B"/>
<path d="M66.8112 327.409C66.8112 327.409 58.8649 347.421 63.0108 349.836C67.1567 352.251 110.689 350.526 110.689 350.526C110.689 350.526 117.944 346.041 109.652 342.935C109.652 342.935 102.742 342.59 98.2509 339.83C93.7596 337.07 88.5772 331.894 88.5772 331.894C88.5772 331.894 88.2317 324.303 85.4678 326.029C84.6409 326.573 83.937 327.283 83.4015 328.115C82.866 328.947 82.5107 329.882 82.3584 330.859L66.8112 327.409Z" fill="#34334B"/>
<path d="M54.5588 324.695C54.5588 324.695 45.8441 346.643 50.3909 349.291C54.9377 351.94 102.68 350.048 102.68 350.048C102.68 350.048 110.637 345.129 101.543 341.723C101.543 341.723 93.9648 341.345 89.039 338.318C84.1133 335.291 78.4298 329.614 78.4298 329.614C78.4298 329.614 78.0509 321.29 75.0197 323.182C74.1127 323.778 73.3408 324.558 72.7536 325.47C72.1663 326.383 71.7766 327.408 71.6095 328.479L54.5588 324.695Z" fill="#34334B"/>
<path d="M89.7969 183.929C89.7969 183.929 85.629 222.905 83.7344 231.23C82.5433 236.712 81.7831 242.279 81.461 247.879C81.461 247.879 81.0821 259.988 77.672 263.394C76.6742 264.38 75.8903 265.561 75.3688 266.863C74.8474 268.165 74.5995 269.56 74.6407 270.962C74.6407 270.962 71.2306 309.181 73.1251 313.721C75.0196 318.262 77.5915 324.162 75.697 327.189C73.8026 330.216 52.2854 328.101 52.2854 325.83C52.2854 323.56 52.2854 321.668 51.1487 320.533C50.012 319.397 51.1487 312.208 51.1487 312.208C51.1487 312.208 46.6019 278.53 50.7698 268.692C54.9378 258.853 56.8323 231.986 56.8323 231.986C56.8323 231.986 53.8011 201.336 50.012 196.416C46.223 191.497 50.7698 174.091 50.7698 174.091L89.7969 183.929Z" fill="#34334B"/>
<path d="M79.1293 62.8933C79.5697 63.8954 80.6241 64.4534 81.584 64.9815C87.147 68.0423 91.8036 72.4798 96.3914 76.8663C95.2466 72.9919 95.4906 68.8402 97.0812 65.1262C97.629 63.8594 98.3468 62.4977 97.9553 61.1744C97.569 60.2284 96.8975 59.426 96.0339 58.8786C94.1619 57.4327 92.2052 56.0995 90.1744 54.8861C88.7557 54.0385 85.8388 51.7819 84.2108 52.0274C84.1253 54.2243 84.0807 56.1883 83.1174 58.2415C82.8889 58.7286 79.2976 63.2764 79.1293 62.8933Z" fill="#FCD2B1"/>
<path d="M98.5116 67.7593C107.091 67.7593 114.047 60.8132 114.047 52.2448C114.047 43.6763 107.091 36.7302 98.5116 36.7302C89.9318 36.7302 82.9766 43.6763 82.9766 52.2448C82.9766 60.8132 89.9318 67.7593 98.5116 67.7593Z" fill="#FCD2B1"/>
<path d="M99.2694 88.9499C99.2694 88.9499 101.922 75.7058 94.3437 71.1649C86.7656 66.6241 78.0508 61.3265 78.0508 61.3265C78.0508 61.3265 75.3985 60.9481 74.2618 66.6242C74.2618 66.6242 52.6643 70.7866 50.3909 91.2204C48.1174 111.654 51.9065 141.548 51.9065 141.548C51.9065 141.548 48.4964 167.658 44.3284 181.659C44.3284 181.659 40.9183 184.686 56.0745 180.145C71.2306 175.604 97.7538 193.011 97.7538 193.011C97.7538 193.011 100.406 190.362 100.406 188.47C100.406 186.578 106.09 129.061 107.226 123.763C108.363 118.465 102.68 89.7067 99.2694 88.9499Z" fill="#FF8C4A"/>
<path d="M94.8503 53.8431C95.7836 53.3265 96.8302 53.0482 97.8971 53.0327C98.9653 53.0168 100.008 52.7064 100.911 52.1359C102.378 51.0108 102.486 48.8364 103.56 47.3317C105.114 45.1532 108.214 44.891 110.891 45C112.528 45.0667 114.29 45.1643 115.669 44.2802C117.084 43.3725 117.725 41.6623 118.202 40.0517C118.767 38.1471 119.132 35.818 117.733 34.4054C116.762 33.4246 115.23 33.2305 114.151 32.3691C113.568 31.9029 105.851 30.0308 98.6076 28.3475C95.0014 27.5108 91.2132 28.0226 87.9593 29.7863C84.7054 31.5499 82.2113 34.4431 80.9486 37.9187C79.276 42.5119 77.8425 46.8278 77.9905 47.7601C78.6986 52.2216 82.6495 55.7679 82.9217 60.2769C83.1812 59.0318 83.7461 57.8705 84.5657 56.8972C85.3854 55.9238 86.4341 55.1689 87.6179 54.7001C87.9147 54.5551 88.2518 54.5143 88.5747 54.5841C88.9672 54.7094 89.1967 55.1011 89.4444 55.4299C90.0934 56.2917 92.1324 57.5991 93.2881 56.9878C94.3222 56.4408 93.5502 54.7237 94.8503 53.8431Z" fill="#34334B"/>
<path d="M101.954 135.411C101.629 135.729 101.443 136.163 101.437 136.618C101.43 137.073 101.603 137.512 101.919 137.839L112.843 149.131C113.002 149.295 113.192 149.426 113.402 149.516C113.612 149.606 113.838 149.654 114.066 149.656C114.295 149.658 114.522 149.615 114.733 149.529C114.945 149.443 115.138 149.316 115.3 149.154L148.634 116.009C148.816 115.828 148.955 115.608 149.041 115.366C149.127 115.125 149.158 114.867 149.132 114.611C149.106 114.356 149.022 114.11 148.888 113.891C148.755 113.672 148.573 113.486 148.358 113.346L135.25 104.819C134.923 104.604 134.531 104.507 134.14 104.546C133.75 104.584 133.384 104.755 133.105 105.03L101.954 135.411Z" fill="#34334B"/>
<path d="M148.862 113.849C148.796 113.95 148.719 114.045 148.633 114.13L115.378 147.902C115.216 148.063 115.023 148.191 114.812 148.277C114.6 148.363 114.373 148.406 114.145 148.404C113.916 148.402 113.69 148.354 113.48 148.264C113.27 148.174 113.08 148.043 112.921 147.878L101.762 136.117C101.686 136.039 101.618 135.953 101.558 135.861C101.372 136.179 101.306 136.554 101.372 136.917C101.438 137.28 101.632 137.607 101.919 137.839L112.843 149.131C113.002 149.295 113.192 149.426 113.402 149.516C113.612 149.606 113.838 149.654 114.066 149.656C114.295 149.658 114.522 149.615 114.733 149.529C114.945 149.443 115.138 149.316 115.3 149.154L148.633 116.009C148.914 115.73 149.09 115.363 149.131 114.969C149.173 114.576 149.078 114.181 148.862 113.849H148.862Z" fill="#4E4C82"/>
<path d="M145.776 114.258L144.419 113.394C144.562 113.648 144.614 113.943 144.568 114.231C144.521 114.519 144.379 114.783 144.163 114.979C143.947 115.176 143.671 115.293 143.38 115.313C143.089 115.333 142.799 115.254 142.559 115.089L133.781 109.062C133.581 108.925 133.424 108.735 133.328 108.513C133.231 108.292 133.199 108.047 133.234 107.808C133.27 107.569 133.372 107.345 133.529 107.161C133.686 106.977 133.892 106.841 134.122 106.768L133.424 106.323C133.333 106.265 133.225 106.24 133.118 106.252C133.011 106.264 132.912 106.313 132.836 106.389L103.306 135.371C103.262 135.415 103.228 135.468 103.204 135.526C103.181 135.584 103.169 135.646 103.171 135.709C103.172 135.772 103.185 135.833 103.211 135.891C103.236 135.948 103.273 136 103.318 136.043L114.043 146.479C114.132 146.562 114.25 146.608 114.372 146.606C114.494 146.605 114.611 146.556 114.697 146.47L145.855 114.986C145.905 114.937 145.943 114.876 145.966 114.81C145.99 114.744 145.998 114.673 145.99 114.603C145.983 114.533 145.959 114.466 145.922 114.406C145.885 114.346 145.835 114.295 145.776 114.258Z" fill="white"/>
<path d="M111.694 128.971L120.753 137.501L142.299 116.241L131.364 109.133L111.694 128.971Z" fill="#34334B"/>
<path d="M141.462 121.488C141.522 121.545 141.601 121.577 141.684 121.577C141.766 121.577 141.846 121.545 141.905 121.488L143.79 119.606C143.848 119.547 143.881 119.468 143.881 119.385C143.881 119.302 143.848 119.222 143.79 119.163C143.73 119.106 143.651 119.075 143.568 119.075C143.486 119.075 143.406 119.106 143.346 119.163L141.462 121.045C141.403 121.104 141.37 121.183 141.37 121.266C141.37 121.349 141.403 121.429 141.462 121.488Z" fill="#34334B"/>
<path d="M138.288 124.658C138.347 124.716 138.426 124.749 138.51 124.749C138.593 124.749 138.672 124.716 138.731 124.658L140.616 122.776C140.674 122.717 140.707 122.638 140.707 122.555C140.706 122.472 140.673 122.393 140.615 122.334C140.556 122.275 140.477 122.242 140.394 122.242C140.311 122.242 140.231 122.275 140.172 122.333L138.288 124.215C138.229 124.274 138.196 124.353 138.196 124.436C138.196 124.519 138.229 124.599 138.288 124.658Z" fill="#34334B"/>
<path d="M111.903 138.406C113.071 138.406 114.019 137.46 114.019 136.293C114.019 135.126 113.071 134.18 111.903 134.18C110.734 134.18 109.787 135.126 109.787 136.293C109.787 137.46 110.734 138.406 111.903 138.406Z" fill="#4E4C82"/>
<path d="M55.6955 124.52C55.6955 124.52 53.0431 141.17 64.0313 139.656C64.0313 139.656 107.605 129.817 109.879 132.088C112.152 134.358 126.286 135.131 125.548 125.559C124.809 115.955 110.636 121.493 110.636 121.493C110.636 121.493 88.66 124.52 84.1132 122.249C79.5664 119.979 66.6837 120.736 66.6837 120.736L55.6955 124.52Z" fill="#FCD2B1"/>
<path d="M71.2306 71.9218C71.2306 71.9218 54.1799 73.8138 54.1799 98.41V129.817L75.0196 121.114C75.0196 121.114 83.7344 100.68 82.9766 95.0044C82.2188 89.3283 82.5977 72.6786 71.2306 71.9218Z" fill="#FF8C4A"/>
<path d="M544.38 104.946C544.36 104.967 544.339 104.967 544.339 104.967C544.318 105.009 544.279 105.048 544.237 105.089C541.705 107.294 538.219 108.191 537.855 108.685C537.649 108.968 536.955 109.538 536.422 109.969C536.056 110.247 535.772 110.458 535.772 110.458L530.749 106.03C530.749 106.03 531.729 105.131 532.385 104.01C532.832 103.28 533.12 102.422 532.912 101.683C532.444 100.095 533.136 98.3217 533.302 97.5859C533.526 96.6058 533.627 93.447 534.358 93.6316C535.588 93.915 535.296 98.9743 535.442 100.056C535.588 100.935 537.868 98.5895 539.256 97.7108C539.256 97.7108 539.36 97.6302 539.542 97.508C539.703 97.4066 539.846 97.3468 539.968 97.326C540.296 97.261 540.969 97.6926 541.723 98.3659C541.767 98.4075 541.786 98.4465 541.827 98.4881C542.378 98.9769 542.948 99.6113 543.457 100.3C543.478 100.321 543.478 100.342 543.499 100.365C543.988 101.036 544.419 101.772 544.64 102.463C544.664 102.484 544.664 102.523 544.682 102.565C544.976 103.459 544.95 104.317 544.38 104.946Z" fill="#FCD2B1"/>
<path d="M539.269 97.7055C539.269 97.7055 547.442 91.4399 548.332 91.4763C549.229 91.5231 549.543 91.978 548.802 92.5994C548.061 93.2208 541.081 98.8807 541.081 98.8807C541.081 98.8807 551.997 93.0908 552.741 92.9608C553.17 92.8854 553.498 93.7121 553.131 94.0839C552.764 94.4505 542.604 100.838 542.604 100.838C542.604 100.838 552.806 95.4515 553.456 95.5321C554.031 95.5971 554.436 96.5434 553.706 96.9906C552.98 97.443 543.787 102.978 543.787 102.978C543.787 102.978 551.462 99.5307 551.974 99.9154C552.283 100.155 552.728 100.677 550.721 101.509C548.716 102.336 544.343 104.983 544.343 104.983L539.269 97.7055Z" fill="#FCD2B1"/>
<path d="M499.007 100.204L495.852 92.8286C495.836 92.7776 495.819 92.7244 495.786 92.6734C493.56 87.3117 489.569 85.4846 486.578 84.9125L486.593 71.3397V65.7408C489.507 59.9799 491.038 52.8133 487.682 47.8551C489.408 47.895 492.876 48.2365 495.952 50.3098C499.173 52.4496 501.955 56.4853 501.776 64.0334C501.351 81.695 498.976 85.1586 501.793 96.6049C502.834 100.849 501.37 101.368 499.007 100.204Z" fill="#1A282B"/>
<path d="M428.494 330.276L428.473 330.297C428.45 330.622 428.392 330.931 428.291 331.17C427.839 332.257 427.493 333.622 427.168 335.151C425.943 340.883 425.106 348.657 421.435 350.105C416.784 351.959 409.153 351.714 408.158 350.105C407.341 348.774 412.094 341.64 413.825 339.147C413.825 339.147 413.805 339.147 413.825 339.126C414.197 338.598 414.421 338.294 414.421 338.294C419.724 332.642 419.847 327.341 419.477 324.746C419.334 323.706 419.111 323.095 419.111 323.095C419.111 323.095 421.009 322.196 423.151 322.136C423.64 322.115 424.149 322.136 424.638 322.216C425.231 322.318 425.782 322.708 426.273 323.298C426.312 323.319 426.312 323.34 426.331 323.358C426.349 323.376 426.375 323.399 426.39 323.438C427.781 325.178 428.658 328.357 428.494 330.276Z" fill="#34334B"/>
<path d="M426.33 323.339C426.33 323.339 426.33 323.34 426.33 323.36C426.31 323.42 426.289 323.503 426.25 323.625L426.229 323.652V323.667C426.229 323.688 426.229 323.688 426.229 323.688C426.026 324.424 425.579 326.218 425.189 329.116C424.659 333.255 423.086 340.171 420.66 342.558C418.234 344.944 412.257 344.107 412.034 343.192C411.932 342.786 412.79 341.151 413.825 339.149C413.825 339.149 413.804 339.149 413.825 339.128C415.135 336.581 416.724 333.437 416.968 331.521C417.314 328.932 418.05 326.28 418.541 324.645C418.84 323.649 419.069 323.014 419.069 323.014C420.127 321.873 421.721 321.832 423.148 322.136C424.656 322.445 425.985 323.137 426.271 323.298C426.31 323.319 426.33 323.339 426.33 323.339Z" fill="#FCD2B1"/>
<path d="M491.935 330.276V330.357C491.912 330.661 491.834 330.952 491.748 331.168C491.301 332.275 490.955 333.682 490.609 335.249C489.38 340.961 488.527 348.654 484.895 350.102C480.244 351.956 472.598 351.712 471.618 350.102C470.619 348.488 477.615 338.455 477.615 338.455L477.639 338.434C484.04 331.558 482.898 325.196 482.472 323.581C482.386 323.337 482.345 323.197 482.345 323.197L482.371 323.176C482.675 323.054 485.594 321.769 488.101 322.216C488.348 322.258 488.571 322.339 488.795 322.482C490.773 323.605 492.159 327.91 491.935 330.276Z" fill="#34334B"/>
<path d="M488.652 329.114C488.428 333.274 486.549 340.168 484.123 342.555C481.676 344.942 475.699 344.105 475.476 343.189C475.369 342.737 476.414 340.761 477.616 338.458L477.639 338.437C478.941 335.923 480.449 333.05 480.899 331.298C481.656 328.485 482.163 324.686 482.306 323.55C482.329 323.321 482.347 323.199 482.347 323.199L482.373 323.178C484.698 320.669 488.103 322.219 488.103 322.219C488.103 322.219 488.16 322.448 488.264 322.895C488.465 323.935 488.813 326.153 488.652 329.114Z" fill="#FCD2B1"/>
<path d="M455.829 147.337C455.748 152.622 455.644 157.7 455.584 161.906C455.54 164.431 455.504 166.633 455.483 168.37C455.46 168.572 455.46 168.775 455.46 168.96C455.439 170.574 453.809 171.63 452.34 171.042L445.12 168.086L444.608 167.878L442.816 167.143C442.816 167.143 444.166 158.09 445.447 147.482C446.794 147.644 447.611 147.727 447.611 147.727C447.569 147.61 447.53 147.443 447.509 147.22C448.448 147.261 449.854 147.3 451.344 147.321C452.142 147.342 452.958 147.363 453.751 147.363C454.482 147.358 455.194 147.358 455.829 147.337Z" fill="#34334B"/>
<path d="M455.766 231.871C455.665 232.196 455.54 232.542 455.421 232.867C454.175 236.377 445.523 256.596 445.523 272.073C445.523 282.519 430.082 317.976 426.391 323.441C426.372 323.399 426.349 323.381 426.331 323.36C426.331 323.34 426.331 323.34 426.331 323.34C426.331 323.34 426.31 323.319 426.274 323.298C425.785 322.708 425.231 322.318 424.638 322.216C424.149 322.136 423.64 322.115 423.151 322.136C421.721 321.832 420.13 321.871 419.072 323.015C419.072 323.015 418.843 323.649 418.544 324.645C418.544 324.645 427.927 280.153 427.638 277.912C427.355 275.689 433.413 252.046 433.842 245.781C433.982 243.597 434.554 237.763 435.326 230.73C440.386 231.097 447.793 231.481 455.766 231.871Z" fill="#FCD2B1"/>
<path d="M495.258 233.585C495.097 235.748 494.933 238.007 494.79 240.399C494.525 244.868 494.364 259.066 494.221 269.364C494.075 279.342 489.913 319.487 488.792 322.484C488.569 322.341 488.345 322.261 488.098 322.219C488.098 322.219 484.69 320.669 482.368 323.178L482.342 323.199C482.342 323.199 482.324 323.321 482.301 323.55C482.301 323.55 479.202 284.035 478.487 275.388C477.777 266.715 478.77 249.542 477.465 244.46C477.098 242.952 476.571 238.483 475.999 232.792C484.001 233.137 491.057 233.421 495.258 233.585Z" fill="#FCD2B1"/>
<path d="M471.15 138.055C472.309 146.216 473.716 154.801 474.899 161.636C468.391 161.678 461.153 161.802 455.582 161.906C455.639 157.702 455.743 152.625 455.826 147.337C455.192 147.358 454.479 147.358 453.744 147.358C454.399 146.52 455.114 145.647 455.865 144.81C456.562 143.993 457.292 143.201 458.07 142.423C458.252 142.22 458.457 142.038 458.663 141.833C460.542 140.016 462.601 138.38 464.783 137.197C465.31 136.872 465.864 136.607 466.413 136.386C467.819 135.752 469.288 135.326 470.76 135.157C470.903 135.157 471.025 135.141 471.147 135.141C471.859 135.099 472.551 135.099 473.266 135.157C474.407 135.284 475.572 135.567 476.732 136.061L471.183 137.957C471.168 137.993 471.168 138.014 471.15 138.055Z" fill="#313657"/>
<path d="M428.489 330.276V340.951H427.157V332.699L428.489 330.276Z" fill="#34334B"/>
<path d="M491.943 330.276V340.951H490.617V332.699L491.943 330.276Z" fill="#34334B"/>
<path d="M481.167 67.269C480.735 70.2485 480.145 75.43 480.431 79.634C480.473 80.4269 480.551 81.1835 480.676 81.8776C480.676 81.8984 480.676 81.8984 480.676 81.9192C480.696 82.0804 480.735 82.2442 480.756 82.408C480.878 82.8968 481.003 83.3674 481.141 83.7782L479.859 86.9162C479.591 86.9578 479.287 86.9968 478.983 87.0176C478.388 87.0384 477.753 87.0384 477.064 87.0176C476.308 86.976 475.494 86.8954 474.675 86.8148H474.657C474.576 86.794 474.496 86.794 474.413 86.7732C474.046 86.7316 473.656 86.6718 473.289 86.6302H473.269C470.697 86.2636 468.23 85.7306 466.883 85.4264H466.86C466.231 85.2834 465.841 85.1769 465.841 85.1769C465.841 85.1769 466.514 83.5884 467.351 81.2615C467.411 81.0587 467.494 80.8351 467.575 80.6063L468.126 78.9554V78.9346L468.144 78.9138C468.373 78.1832 468.618 77.4059 468.841 76.6077C468.901 76.4049 468.966 76.1813 469.002 75.9577C469.166 75.3624 469.312 74.7748 469.434 74.1795C469.488 73.8337 469.577 73.5087 469.634 73.1785C470.084 70.6696 470.209 68.283 469.634 66.5671C468.272 62.5295 475.102 63.4291 478.981 64.2454C480.468 64.5496 481.528 64.8538 481.528 64.8538C481.528 64.8538 481.37 65.8027 481.167 67.269Z" fill="#FCD2B1"/>
<path d="M480.756 82.4055C480.491 82.3847 480.288 82.3639 480.148 82.3457C480.026 82.3457 479.961 82.3457 479.961 82.3457L479.615 82.3249L478.986 82.2651L478.208 82.2053L477.782 82.1637L467.377 81.2641C467.377 81.2641 467.377 81.2641 467.357 81.2641C467.276 81.2849 467.008 81.3239 466.579 81.4071C466.418 81.4279 466.252 81.4669 466.049 81.5085C465.784 81.5501 465.479 81.6099 465.131 81.6697C462.136 82.2651 456.606 83.448 451.994 85.0365C447.262 86.6718 441.488 93.4861 438.508 97.3547C437.245 98.99 436.47 100.092 436.47 100.092C436.47 100.092 438.912 105.846 441.831 112.925C443.669 117.433 445.708 122.472 447.421 126.899C447.421 126.899 447.421 126.899 447.421 126.92C447.748 127.757 448.053 128.53 448.339 129.307C449.503 132.39 450.442 135.04 450.931 136.771C451.196 137.71 451.357 138.791 451.44 140.016C451.458 140.037 451.458 140.076 451.458 140.096C451.523 140.894 451.542 141.726 451.542 142.605C451.542 144.092 451.458 145.689 451.336 147.316C452.134 147.337 452.951 147.358 453.744 147.358C454.479 147.358 455.192 147.358 455.826 147.337C455.746 152.622 455.642 157.7 455.582 161.907C461.153 161.805 468.391 161.678 474.899 161.636C473.716 154.801 472.309 146.214 471.15 138.055C471.168 138.014 471.168 137.996 471.189 137.954L476.737 136.059L478.411 135.484V132.814L470.315 131.876C469.561 126.143 469.007 120.959 468.846 117.166C468.521 109.639 470.866 101.501 473.477 94.9342L475.741 96.9543L478.986 89.0585L479.862 86.9163L481.144 83.7782L481.677 82.4887C481.328 82.4471 481.001 82.4263 480.756 82.4055Z" fill="#F2F2F2"/>
<path d="M480.666 81.9088L465.839 93.993L467.37 81.2641C467.37 81.2641 476.012 79.4 480.666 81.9088Z" fill="#FCD2B1"/>
<path d="M478.408 132.814V135.484L476.734 136.059L471.186 137.954C471.165 137.996 471.165 138.014 471.147 138.055V137.954C471.085 137.528 471.022 137.117 470.962 136.709C470.939 136.548 470.921 136.384 470.903 136.241C470.843 135.911 470.801 135.586 470.76 135.255V135.154C470.596 134.036 470.455 132.955 470.31 131.873L478.408 132.814Z" fill="#494F80"/>
<path d="M481.838 82.486H481.676L481.144 83.7755L479.862 86.9136L478.986 89.0559L475.741 96.9517L473.477 94.9315C474.701 91.8897 475.988 89.1781 477.067 87.015C477.823 85.5071 478.494 84.2825 478.986 83.3856C479.025 83.3258 479.045 83.2842 479.087 83.2244V83.2036C479.105 83.2036 479.105 83.1828 479.105 83.1828C479.311 82.837 479.474 82.5484 479.615 82.3248C479.838 81.9401 479.961 81.7346 479.961 81.7346C480.148 81.7762 480.306 81.7945 480.494 81.836H480.514C480.574 81.8516 480.637 81.8517 480.676 81.8777C481.06 81.9531 481.453 82.0389 481.817 82.1429C481.817 82.2651 481.817 82.3846 481.838 82.486Z" fill="#494F80"/>
<path d="M466.538 81.7346C466.538 81.7346 464.538 86.2428 462.313 92.4851C459.56 100.173 456.481 110.455 456.318 118.122C456.255 121.143 456.172 125.384 456.094 130.201C456.05 132.892 456.013 135.747 455.948 138.687C455.948 139.134 455.948 139.582 455.928 140.034C455.907 141.056 455.907 142.096 455.886 143.112C455.886 143.133 455.886 143.133 455.886 143.159C455.865 143.687 455.865 144.256 455.865 144.81C455.844 145.668 455.824 146.5 455.824 147.34C455.189 147.36 454.477 147.36 453.741 147.36C452.948 147.36 452.132 147.34 451.334 147.319C449.847 147.298 448.44 147.259 447.499 147.217C447.52 147.441 447.559 147.607 447.6 147.724C447.6 147.724 446.784 147.644 445.437 147.48C445.663 145.566 445.89 143.565 446.113 141.583C446.131 141.36 446.155 141.115 446.17 140.892C446.355 139.319 446.519 137.749 446.659 136.194C446.906 133.771 447.109 131.405 447.255 129.182C447.314 128.405 447.377 127.653 447.416 126.918C447.416 126.897 447.416 126.897 447.416 126.897C447.559 124.547 447.639 122.407 447.639 120.59L441.826 112.923L433.933 102.497C433.933 102.497 435.625 100.212 438.012 97.2922C441.54 92.9712 446.599 87.2593 449.883 85.6292C454.453 83.3439 462.716 81.836 465.305 81.4044L465.326 81.3837C465.836 81.3031 466.124 81.2615 466.124 81.2615L466.041 81.5058L465.88 81.953C466.02 81.8984 466.143 81.836 466.306 81.8152H466.327C466.395 81.7762 466.475 81.7502 466.538 81.7346Z" fill="#34334B"/>
<path d="M471.27 137.525C471.251 137.668 471.228 137.808 471.189 137.951C471.168 137.993 471.168 138.011 471.15 138.053C469.801 142.46 459.848 146.786 458.296 147.173C457.911 147.274 456.991 147.334 455.829 147.334C455.195 147.355 454.482 147.355 453.746 147.355C452.954 147.355 452.137 147.334 451.339 147.313C449.852 147.293 448.445 147.254 447.504 147.212C446.789 147.191 446.342 147.17 446.342 147.17V141.643H446.384C446.49 141.602 446.914 141.461 447.546 141.238C448.445 140.949 449.789 140.523 451.383 140.034C451.401 140.034 451.427 140.013 451.443 140.013C452.319 139.748 453.299 139.464 454.298 139.155C454.849 139.012 455.397 138.851 455.951 138.687C459.542 137.707 463.441 136.748 466.416 136.381C466.886 136.3 467.315 136.259 467.721 136.238C468.924 136.137 469.884 136.191 470.495 136.42C470.677 136.501 470.843 136.581 470.965 136.703C471.21 136.896 471.332 137.156 471.27 137.525Z" fill="#FCD2B1"/>
<path d="M478.409 132.814L473.271 135.154L470.905 136.241L470.495 136.425L458.665 141.833L455.889 143.112L455.423 143.315L451.461 140.096L451.383 140.034L446.667 136.196L436.47 127.919L447.262 129.182L448.341 129.304L451.747 129.692L456.094 130.204L470.313 131.876L478.409 132.814Z" fill="#F7F7F7"/>
<path d="M478.409 132.814V135.484L476.737 136.059L471.189 137.951H471.15L458.072 142.421L455.888 143.156L455.423 143.315L454.646 140.442L455.93 140.034L464.785 137.195L467.721 136.241L470.762 135.255L471.15 135.138L478.409 132.814Z" fill="#D3D3D3"/>
<path d="M468.141 78.9113L460.178 91.5622L456.32 93.9931L465.308 81.4019L468.141 78.9113Z" fill="#F2F2F2"/>
<path d="M460.178 91.5622L465.838 93.9931L467.37 81.2641L468.142 78.9113L460.178 91.5622Z" fill="#D6C5BE"/>
<path d="M447.507 147.215C447.528 147.438 447.567 147.605 447.608 147.722C447.608 147.722 446.792 147.641 445.445 147.477C439.185 146.768 421.316 144.5 419.335 141.521C418.152 139.73 417.559 137.788 417.294 136.261V136.241C416.99 134.647 417.013 133.503 417.013 133.503L446.181 140.892L447.549 141.238L447.608 141.258C447.608 141.258 447.585 141.482 447.567 141.867C447.483 143.096 447.322 145.889 447.507 147.215Z" fill="#34334B"/>
<path d="M455.423 143.325L443.183 97.8486L396.677 92.9375L409.424 134.8L455.423 143.325Z" fill="#D3D3D3"/>
<path d="M537.506 111.552C537.506 111.552 524.657 122.857 517.825 129.549C517.825 129.549 509.908 138.074 507.522 138.074C507.418 138.074 507.319 138.053 507.236 138.014C505.481 137.257 499.486 128.756 494.265 119.901C494.021 120.592 493.732 121.408 493.449 122.308C493.184 123.085 492.921 123.938 492.632 124.856C491.92 127.222 491.145 129.933 490.448 132.814C488.41 141.279 498.713 167.735 498.713 167.735L496.345 168.534L495.978 168.656L481.31 173.637C479.17 174.347 476.862 173.003 476.474 170.759C476.396 170.252 476.295 169.698 476.193 169.108C476.11 168.677 476.048 168.25 475.967 167.777C475.946 167.676 475.926 167.553 475.907 167.452C475.764 166.659 475.603 165.78 475.46 164.883C475.374 164.493 475.315 164.106 475.255 163.7C475.13 163.024 475.029 162.348 474.906 161.639C473.724 154.804 472.317 146.216 471.157 138.058C471.176 138.016 471.176 137.998 471.196 137.957L476.745 136.061L478.419 135.487V132.817L470.323 131.878C469.569 126.145 469.015 120.961 468.854 117.168C468.529 109.642 470.874 101.504 473.484 94.9367L475.749 96.9568L478.993 89.0611L479.87 86.9188L481.151 83.7807L481.684 82.4912H481.845C481.825 82.3898 481.825 82.2676 481.825 82.1454C481.825 82.1454 483.928 81.8568 486.702 82.3898C490.451 83.0606 495.453 85.2028 498.243 91.4893C498.287 91.5491 498.305 91.6115 498.326 91.6713L502.28 100.318L509.074 115.171C509.074 115.171 511.013 118.559 511.991 119.578C511.991 119.578 514.44 118.187 515.706 117.329C518.048 115.416 519.419 114.698 522.232 112.278C526.599 108.521 532.21 103.748 532.21 103.748L532.392 104.013C531.737 105.136 530.757 106.033 530.757 106.033L535.78 110.461C535.78 110.461 536.063 110.253 536.43 109.972L537.506 111.552Z" fill="#34334B"/>
<path d="M536.424 109.969C536.058 110.247 535.774 110.458 535.774 110.458L530.751 106.03C530.751 106.03 531.732 105.131 532.387 104.01L536.424 109.969Z" fill="#34334B"/>
<path d="M483.182 65.2125C482.53 65.9639 481.859 66.6399 481.167 67.269C480.005 68.309 478.796 69.2085 477.572 69.9443C477.572 69.9443 477.572 69.9651 477.535 69.9859C477.491 70.0067 477.45 70.0275 477.39 70.0613C476.433 70.6359 475.474 71.1272 474.533 71.5328C474.452 71.5926 474.371 71.6134 474.288 71.6342C473.724 71.8682 473.16 72.0814 472.632 72.2686C472.177 72.4298 471.732 72.5779 471.29 72.7105C470.651 72.9081 470.134 73.0511 469.858 73.1213C469.715 73.1681 469.632 73.1811 469.632 73.1811C466.736 73.8571 464.37 73.9377 463.205 73.8363C460.108 73.5477 458.27 64.4118 458.27 64.4118C458.27 64.4118 455.681 63.5954 455.086 63.1274C454.495 62.6595 457.862 54.8859 457.329 52.0469C456.801 49.213 456.801 45.685 456.801 45.685C457.004 44.827 457.269 44.0133 457.558 43.2567C461.723 47.4815 475.393 61.0294 483.182 65.2125Z" fill="#FCD2B1"/>
<path d="M470.128 91.9417L465.839 93.993L480.398 79.5612L470.128 91.9417Z" fill="#D6C5BE"/>
<path d="M481.817 82.1428L481.674 82.486L481.141 83.7781L479.859 86.9162L478.983 89.0584L475.738 96.9542L473.474 94.9341L470.128 91.9365L473.757 87.5453L473.778 87.5245L474.412 86.7732L478.206 82.2026L478.983 81.2641L479.001 81.2433L480.39 79.5663L480.431 79.6339L481.817 82.1428Z" fill="#F2F2F2"/>
<path d="M477.582 69.9443C477.514 70.0509 475.286 73.5139 469.012 75.9655C469.163 75.3702 469.304 74.7722 469.431 74.1768C469.499 73.8414 469.569 73.5061 469.629 73.1707C469.629 73.1733 474.818 71.9046 477.582 69.9443Z" fill="#A77860"/>
<path d="M427.472 122.575C428.792 121.874 428.813 119.332 427.519 116.897C426.226 114.462 424.107 113.057 422.787 113.759C421.467 114.46 421.446 117.002 422.739 119.437C424.033 121.871 426.152 123.276 427.472 122.575Z" fill="#F7F7F7"/>
<path d="M499.319 233.746C499.319 233.746 497.832 233.686 495.258 233.585C491.057 233.423 484.001 233.137 476.004 232.786C469.538 232.521 462.438 232.196 455.769 231.871C447.795 231.481 440.388 231.094 435.326 230.73C431.128 230.441 428.517 230.176 428.517 229.973C429.578 220.489 436.163 196.703 441.041 179.978C442.429 175.199 443.675 171.001 444.608 167.878L445.12 168.086L452.34 171.042C453.809 171.633 455.439 170.574 455.46 168.96C455.46 168.778 455.46 168.575 455.483 168.37C455.504 166.633 455.54 164.428 455.584 161.906C461.156 161.805 468.394 161.678 474.901 161.636C475.024 162.346 475.125 163.022 475.25 163.698C475.31 164.103 475.369 164.491 475.455 164.881C475.598 165.78 475.759 166.659 475.902 167.449C475.923 167.551 475.944 167.673 475.962 167.774C476.043 168.247 476.105 168.674 476.188 169.105C476.29 169.696 476.391 170.247 476.469 170.756C476.857 173 479.165 174.347 481.305 173.634L495.973 168.653L496.34 168.531C508.13 189.707 499.319 233.746 499.319 233.746Z" fill="#FF8C4A"/>
<path d="M486.712 59.9062C486.205 60.8864 485.654 61.8249 485.061 62.7037C484.466 63.598 483.834 64.4352 483.181 65.2125C475.392 61.0294 461.722 47.4815 457.562 43.2619C461.413 32.7975 471.37 31.8174 475.899 32.5323C482.037 33.5541 485.893 35.8783 488.077 38.9358C492.281 44.7491 490.365 53.1518 486.712 59.9062Z" fill="#072735"/>
<path d="M486.555 117.201L486.501 119.107L485.008 117.922L486.555 117.201Z" fill="white"/>
<path d="M485.007 117.924L486.554 117.203L480.829 104.928L479.283 105.649L485.007 117.924Z" fill="#FF8C4A"/>
<path d="M486.523 118.361L486.501 119.107L485.918 118.644L486.523 118.361Z" fill="#FF8C4A"/>
<path d="M476.556 116.524L478.101 117.245L482.903 106.952L481.357 106.23L476.556 116.524Z" fill="#4E4C82"/>
<path d="M481.597 105.717L483.142 106.438L483.53 105.611L481.98 104.89L481.597 105.717Z" fill="#4E4C82"/>
<path d="M476.302 118.56L476.705 118.749L478.101 117.245L476.556 116.524L476.302 118.56Z" fill="#FCD2B1"/>
<path d="M476.231 119.035L476.387 119.107L476.581 118.69L476.426 118.619L476.231 119.035Z" fill="white"/>
<path d="M482.756 106.881L481.503 106.298L481.743 105.785L482.995 106.368L482.756 106.881Z" fill="white"/>
<path d="M478.72 111.043L480.648 106.911C480.664 106.877 480.695 106.848 480.731 106.836C480.766 106.822 480.806 106.824 480.842 106.839L481.031 106.928L481.155 106.663L480.966 106.574C480.861 106.524 480.739 106.519 480.628 106.56C480.522 106.6 480.432 106.68 480.383 106.786L478.455 110.919L478.72 111.043Z" fill="#FCD2B1"/>
<path d="M486.578 113.86H476.208V112.153H486.578V113.86ZM485.728 113.006C485.728 113.125 485.824 113.223 485.945 113.223C486.063 113.223 486.16 113.125 486.16 113.006C486.16 112.887 486.063 112.791 485.945 112.791C485.824 112.791 485.728 112.887 485.728 113.006Z" fill="#4E4C82"/>
<path d="M485.256 112.153H485.308V112.587H485.256V112.153Z" fill="#FCD2B1"/>
<path d="M484.392 112.153H484.444V112.587H484.392V112.153Z" fill="#FCD2B1"/>
<path d="M483.529 112.153H483.578V112.587H483.529V112.153Z" fill="#FCD2B1"/>
<path d="M482.664 112.153H482.716V112.587H482.664V112.153Z" fill="#FCD2B1"/>
<path d="M481.799 112.153H481.853V112.587H481.799V112.153Z" fill="#FCD2B1"/>
<path d="M480.933 112.153H480.986V112.587H480.933V112.153Z" fill="#FCD2B1"/>
<path d="M480.071 112.153H480.123V112.587H480.071V112.153Z" fill="#FCD2B1"/>
<path d="M479.206 112.153H479.258V112.587H479.206V112.153Z" fill="#FCD2B1"/>
<path d="M478.343 112.153H478.395V112.587H478.343V112.153Z" fill="#FCD2B1"/>
<path d="M477.479 112.153H477.531V112.587H477.479V112.153Z" fill="#FCD2B1"/>
<path d="M476.615 112.153H476.667V112.587H476.615V112.153Z" fill="#FCD2B1"/>
<path d="M477.053 112.153H477.096V112.37H477.053V112.153Z" fill="#FCD2B1"/>
<path d="M477.915 112.153H477.956V112.37H477.915V112.153Z" fill="#FCD2B1"/>
<path d="M478.778 112.153H478.821V112.37H478.778V112.153Z" fill="#FCD2B1"/>
<path d="M479.642 112.153H479.683V112.37H479.642V112.153Z" fill="#FCD2B1"/>
<path d="M480.508 112.153H480.552V112.37H480.508V112.153Z" fill="#FCD2B1"/>
<path d="M481.372 112.153H481.416V112.37H481.372V112.153Z" fill="#FCD2B1"/>
<path d="M482.236 112.153H482.28V112.37H482.236V112.153Z" fill="#FCD2B1"/>
<path d="M483.099 112.153H483.143V112.37H483.099V112.153Z" fill="#FCD2B1"/>
<path d="M483.963 112.153H484.007V112.37H483.963V112.153Z" fill="#FCD2B1"/>
<path d="M484.829 112.153H484.872V112.37H484.829V112.153Z" fill="#FCD2B1"/>
</svg>
