<svg width="177" height="144" viewBox="0 0 177 144" fill="none" xmlns="http://www.w3.org/2000/svg">
<path d="M7.01045 75.7148C12.1218 38.3476 57.7547 5.83723 109.291 13.2858C160.827 20.7345 174.84 38.2708 169.728 75.638C164.617 113.005 118.695 137.259 67.1591 129.81C15.623 122.362 1.89908 113.082 7.01045 75.7148Z" fill="#D3D3D3" fill-opacity="0.23"/>
<path d="M99.3628 103.558C99.3628 104.131 99.148 104.654 98.7899 105.048C99.148 105.441 99.3628 105.964 99.3628 106.537V108.399C99.3628 108.807 99.2554 109.187 99.0621 109.516C99.2554 109.846 99.3628 110.225 99.3628 110.633V112.495C99.3628 113.727 98.3603 114.73 97.1285 114.73H77.757C76.5253 114.73 75.5227 113.727 75.5227 112.495V110.633C75.5227 110.225 75.6301 109.846 75.8235 109.516C75.6301 109.187 75.5227 108.807 75.5227 108.399V106.537C75.5227 105.964 75.7375 105.441 76.0956 105.048C75.7375 104.654 75.5227 104.131 75.5227 103.558V101.696C75.5227 100.464 76.5253 99.4617 77.757 99.4617H97.1285C98.3603 99.4617 99.3628 100.464 99.3628 101.696V103.558Z" fill="#D3D3D3"/>
<path d="M114.824 61.3779C114.824 72.2273 108.515 81.6015 99.3627 86.0344V96.1319C99.3627 96.891 98.7397 97.5069 97.9877 97.5069H76.9047C76.1456 97.5069 75.5297 96.8839 75.5297 96.1319V86.0344C66.3775 81.6015 60.0684 72.2273 60.0684 61.3779C60.0684 46.2531 72.3286 34 87.4462 34C102.564 34 114.824 46.2602 114.824 61.3779Z" fill="#4E4C82" fill-opacity="0.5"/>
<path d="M96.7702 105.678H78.4228C78.165 105.678 77.9502 105.47 77.9502 105.205C77.9502 104.948 78.1579 104.733 78.4228 104.733H96.7774C97.0352 104.733 97.2501 104.94 97.2501 105.205C97.2429 105.47 97.0352 105.678 96.7702 105.678Z" fill="#F7F7F7"/>
<path d="M96.7702 109.889H78.4228C78.165 109.889 77.9502 109.681 77.9502 109.416C77.9502 109.158 78.1579 108.944 78.4228 108.944H96.7774C97.0352 108.944 97.2501 109.151 97.2501 109.416C97.2429 109.681 97.0352 109.889 96.7702 109.889Z" fill="#F7F7F7"/>
<path d="M92.137 64.751C91.7932 64.443 91.3277 64.2998 90.8193 64.3499C90.1962 64.4143 89.5732 64.7653 89.2008 65.2737C88.8642 65.7249 88.6852 66.262 88.5849 66.7776C88.3056 66.6344 88.0192 66.4768 87.7399 66.305L87.6325 66.2405H87.2529L87.1455 66.305C86.859 66.4768 86.5797 66.6344 86.3005 66.7776C86.2002 66.262 86.0212 65.7249 85.6846 65.2737C85.3122 64.7653 84.6892 64.4143 84.0661 64.3499C83.5648 64.2998 83.0994 64.443 82.7485 64.751C82.2973 65.1592 82.1325 65.7679 82.3116 66.4195C82.5407 67.2503 83.2569 67.9449 84.0518 68.1096C84.5602 68.2099 85.0544 68.1741 85.5414 68.0452V68.0595C86.3005 77.8204 86.5798 87.7246 86.3721 97.5142H87.2744C87.4749 87.7031 87.1956 77.7703 86.4365 67.9879C86.4294 67.9019 86.4222 67.816 86.4151 67.7229C86.7588 67.5654 87.1025 67.3792 87.432 67.1858C87.7685 67.3792 88.1051 67.5654 88.4489 67.7229C88.4417 67.816 88.4346 67.9019 88.4274 67.9879C87.6683 77.7703 87.389 87.6959 87.5895 97.5142H88.4918C88.3486 87.7461 88.8428 77.9278 89.3226 68.0595V68.0452C89.8095 68.1741 90.3036 68.217 90.8121 68.1096C91.607 67.9449 92.3232 67.2574 92.5523 66.4195C92.7529 65.7679 92.5953 65.1663 92.137 64.751ZM84.2308 67.2216C83.7725 67.1285 83.3213 66.6774 83.1853 66.1832C83.128 65.9612 83.1065 65.6533 83.3571 65.4241C83.5147 65.2809 83.708 65.2451 83.8727 65.2451C83.9086 65.2451 83.9444 65.2451 83.9802 65.2522C84.3526 65.288 84.7393 65.51 84.9613 65.8108C85.2334 66.176 85.3695 66.6272 85.4483 67.1357C85.0401 67.2574 84.6319 67.3075 84.2308 67.2216ZM91.7001 66.1832C91.5641 66.6845 91.1129 67.1285 90.6546 67.2216C90.2535 67.3004 89.8453 67.2574 89.4371 67.1285C89.5159 66.6201 89.652 66.1689 89.9241 65.8037C90.1461 65.5029 90.5328 65.2809 90.9052 65.2451C91.0842 65.2236 91.3349 65.2451 91.5282 65.417C91.786 65.6533 91.7646 65.9612 91.7001 66.1832Z" fill="white"/>
<path d="M62.7753 64.9942C62.41 64.9942 62.0949 64.7077 62.0734 64.3354C61.1711 50.1415 71.7484 41.0251 79.0816 38.354C79.4469 38.2179 79.8551 38.4112 79.984 38.7765C80.12 39.1417 79.9267 39.5499 79.5615 39.6788C72.6293 42.1996 62.6177 50.8219 63.4771 64.2423C63.4985 64.629 63.2049 64.9656 62.8182 64.9942C62.8039 64.9942 62.7896 64.9942 62.7753 64.9942Z" fill="white"/>
</svg>
