<svg width="236" height="192" viewBox="0 0 236 192" fill="none" xmlns="http://www.w3.org/2000/svg">
<path d="M8.15057 101.333C14.9914 51.3226 76.0643 7.81227 145.038 17.7811C214.011 27.75 232.765 51.2198 225.925 101.23C219.084 151.241 157.624 183.701 88.6507 173.732C19.6772 163.763 1.30976 151.344 8.15057 101.333Z" fill="#D3D3D3" fill-opacity="0.23"/>
<path d="M131.751 138.597C131.751 139.364 131.463 140.063 130.984 140.591C131.463 141.118 131.751 141.817 131.751 142.584V145.076C131.751 145.622 131.607 146.13 131.348 146.571C131.607 147.012 131.751 147.52 131.751 148.066V150.558C131.751 152.207 130.409 153.549 128.76 153.549H102.834C101.186 153.549 99.8441 152.207 99.8441 150.558V148.066C99.8441 147.52 99.9879 147.012 100.247 146.571C99.9879 146.13 99.8441 145.622 99.8441 145.076V142.584C99.8441 141.817 100.132 141.118 100.611 140.591C100.132 140.063 99.8441 139.364 99.8441 138.597V136.105C99.8441 134.457 101.186 133.115 102.834 133.115H128.76C130.409 133.115 131.751 134.457 131.751 136.105V138.597Z" fill="#D3D3D3"/>
<path d="M152.443 82.1452C152.443 96.6656 143.999 109.212 131.75 115.144V128.658C131.75 129.674 130.917 130.499 129.91 130.499H101.694C100.678 130.499 99.8535 129.665 99.8535 128.658V115.144C87.6047 109.212 79.1608 96.6656 79.1608 82.1452C79.1608 61.903 95.5693 45.504 115.802 45.504C136.035 45.504 152.443 61.9125 152.443 82.1452Z" fill="#4E4C82" fill-opacity="0.5"/>
<path d="M128.281 141.434H103.726C103.381 141.434 103.093 141.156 103.093 140.802C103.093 140.457 103.371 140.169 103.726 140.169H128.29C128.635 140.169 128.923 140.447 128.923 140.802C128.913 141.156 128.635 141.434 128.281 141.434Z" fill="#F7F7F7"/>
<path d="M128.281 147.07H103.726C103.381 147.07 103.093 146.792 103.093 146.438C103.093 146.092 103.371 145.805 103.726 145.805H128.29C128.635 145.805 128.923 146.083 128.923 146.438C128.913 146.792 128.635 147.07 128.281 147.07Z" fill="#F7F7F7"/>
<path d="M122.08 86.6596C121.62 86.2475 120.997 86.0558 120.316 86.1229C119.483 86.2091 118.649 86.6788 118.15 87.3593C117.7 87.9631 117.46 88.6819 117.326 89.372C116.952 89.1803 116.569 88.9695 116.195 88.7394L116.051 88.6532H115.543L115.4 88.7394C115.016 88.9695 114.642 89.1803 114.269 89.372C114.134 88.6819 113.895 87.9631 113.444 87.3593C112.946 86.6788 112.112 86.2091 111.278 86.1229C110.607 86.0558 109.984 86.2475 109.515 86.6596C108.911 87.2059 108.69 88.0206 108.93 88.8928C109.237 90.0046 110.195 90.9342 111.259 91.1547C111.94 91.2889 112.601 91.241 113.253 91.0684V91.0876C114.269 104.151 114.642 117.406 114.364 130.508H115.572C115.84 117.378 115.467 104.084 114.451 90.9918C114.441 90.8768 114.432 90.7617 114.422 90.6372C114.882 90.4263 115.342 90.1771 115.783 89.9183C116.233 90.1771 116.684 90.4263 117.144 90.6372C117.134 90.7617 117.125 90.8768 117.115 90.9918C116.099 104.084 115.725 117.368 115.994 130.508H117.201C117.01 117.435 117.671 104.295 118.313 91.0876V91.0684C118.965 91.241 119.626 91.2985 120.307 91.1547C121.371 90.9342 122.329 90.0142 122.636 88.8928C122.904 88.0206 122.693 87.2155 122.08 86.6596ZM111.499 89.9662C110.885 89.8416 110.282 89.2378 110.099 88.5765C110.023 88.2794 109.994 87.8672 110.329 87.5605C110.54 87.3688 110.799 87.3209 111.019 87.3209C111.067 87.3209 111.115 87.3209 111.163 87.3305C111.662 87.3784 112.179 87.6756 112.476 88.0781C112.841 88.5669 113.023 89.1707 113.128 89.8512C112.582 90.0142 112.035 90.0812 111.499 89.9662ZM121.495 88.5765C121.313 89.2474 120.709 89.8416 120.096 89.9662C119.559 90.0717 119.013 90.0141 118.467 89.8416C118.572 89.1611 118.754 88.5573 119.118 88.0685C119.415 87.666 119.933 87.3688 120.431 87.3209C120.671 87.2922 121.006 87.3209 121.265 87.551C121.61 87.8673 121.582 88.2794 121.495 88.5765Z" fill="white"/>
<path d="M82.7836 86.9852C82.2948 86.9852 81.873 86.6018 81.8443 86.1034C80.6367 67.1071 94.7928 54.9061 104.607 51.3311C105.096 51.149 105.642 51.4078 105.815 51.8966C105.997 52.3854 105.738 52.9317 105.249 53.1043C95.9718 56.478 82.5727 68.0176 83.7229 85.9788C83.7516 86.4963 83.3587 86.9468 82.8411 86.9852C82.8219 86.9852 82.8028 86.9852 82.7836 86.9852Z" fill="white"/>
</svg>
