<svg width="236" height="192" viewBox="0 0 236 192" fill="none" xmlns="http://www.w3.org/2000/svg">
<path d="M8.23 101.333C15.0708 51.3227 76.1437 7.81231 145.117 17.7812C214.091 27.7501 232.845 51.2198 226.004 101.23C219.163 151.241 157.704 183.701 88.7301 173.732C19.7567 163.763 1.3892 151.344 8.23 101.333Z" fill="#D3D3D3" fill-opacity="0.23"/>
<path d="M111.81 140.83C111.81 143.685 114.123 146 116.979 146H123.872C126.727 146 129.041 143.685 129.041 140.83V130.491H111.81V140.83Z" fill="white"/>
<path d="M103.689 111.807C102.183 110.836 100.761 109.735 99.4438 108.519C98.3188 112.845 94.0673 115.588 89.6626 114.831C85.257 114.073 82.1657 110.069 82.5486 105.616C82.9314 101.162 86.6613 97.7444 91.1316 97.7511C91.395 97.7511 91.6483 97.8058 91.8998 97.8285C90.2667 93.9892 89.4244 89.8605 89.4253 85.6888H87.2318L86.0412 91.3523C85.9226 91.9168 85.5296 92.3847 84.9945 92.5984C84.4585 92.8129 83.8519 92.7448 83.3773 92.4175L78.6159 89.1352L73.4464 94.3047L76.7202 99.0653C77.0475 99.5407 77.1157 100.147 76.9011 100.683C76.6874 101.218 76.2196 101.611 75.6559 101.729L70 102.921V109.813L75.6626 111.004C76.2263 111.123 76.6941 111.515 76.9087 112.051C77.1224 112.586 77.0543 113.193 76.727 113.668L73.4464 118.429L78.6159 123.599L83.3773 120.324C83.8519 119.997 84.4594 119.928 84.9953 120.142C85.5313 120.356 85.9242 120.825 86.0429 121.389L87.2318 127.045H94.1245L95.3134 121.381C95.432 120.815 95.8249 120.348 96.3609 120.134C96.8969 119.919 97.5044 119.987 97.9789 120.316L102.74 123.599L108.15 118.189C107.583 115.548 105.975 113.247 103.689 111.807Z" fill="white"/>
<path d="M151.443 85.6888C151.441 70.8171 140.884 58.0388 126.28 55.232C111.676 52.4251 97.1341 60.3779 91.6196 74.1894C86.1051 88.0009 91.1686 103.783 103.689 111.807C106.559 113.585 108.321 116.706 108.363 120.082V127.045C108.363 129.9 110.677 132.215 113.533 132.215H127.318C130.173 132.215 132.488 129.9 132.488 127.045V120.225C132.532 116.769 134.33 113.573 137.261 111.743C146.108 106.031 151.449 96.2188 151.443 85.6888Z" fill="#4E4C82" fill-opacity="0.5"/>
<path d="M111.81 135.661H129.041V139.107H111.81V135.661Z" fill="#4E4C82" fill-opacity="0.5"/>
<path d="M118.703 121.876H122.149V127.045H118.703V121.876Z" fill="white"/>
<path d="M122.149 118.429H118.703C118.701 113.873 115.891 109.789 111.637 108.158C103.157 104.842 97.2654 97.0342 96.4055 87.969C95.5456 78.9038 99.8628 70.1272 107.568 65.2758L109.397 68.1912C102.79 72.3485 99.0871 79.8723 99.8241 87.6442C100.56 95.4154 105.61 102.11 112.881 104.952C118.466 107.088 122.153 112.449 122.149 118.429Z" fill="white"/>
<path d="M154.889 109.813H163.505C164.457 109.813 165.228 110.584 165.228 111.537C165.228 112.488 164.457 113.26 163.505 113.26H154.889C153.938 113.26 153.166 112.488 153.166 111.537C153.166 110.584 153.938 109.813 154.889 109.813Z" fill="#4E4C82" fill-opacity="0.5"/>
<path d="M151.443 120.153C152.052 119.422 153.138 119.323 153.87 119.932L161.562 126.341C162.293 126.95 162.392 128.036 161.783 128.767C161.173 129.499 160.087 129.598 159.355 128.989L151.663 122.58C150.932 121.971 150.834 120.884 151.443 120.153Z" fill="#4E4C82" fill-opacity="0.5"/>
<path d="M144.55 123.599C145.502 123.599 146.274 124.369 146.274 125.322V133.938C146.274 134.889 145.502 135.661 144.55 135.661C143.599 135.661 142.827 134.889 142.827 133.938V125.322C142.827 124.369 143.599 123.599 144.55 123.599Z" fill="#4E4C82" fill-opacity="0.5"/>
<path d="M71.7081 74.9812L82.1498 72.3729C83.0737 72.1424 84.0085 72.7036 84.239 73.6266C84.4696 74.5496 83.9084 75.4844 82.9845 75.7149L72.5428 78.3233C71.6189 78.5538 70.6842 77.9926 70.4536 77.0696C70.2231 76.1466 70.7843 75.2118 71.7081 74.9812Z" fill="#4E4C82" fill-opacity="0.5"/>
<path d="M73.899 56.3957C74.4518 55.6216 75.5279 55.4432 76.302 55.996L85.559 62.6085C86.3339 63.1613 86.5132 64.2375 85.9604 65.0115C85.4076 65.7856 84.3314 65.9648 83.5573 65.4112L74.3003 58.7987C73.5254 58.2459 73.3462 57.1697 73.899 56.3957Z" fill="#4E4C82" fill-opacity="0.5"/>
<path d="M89.332 46.0541C90.2541 45.8185 91.1923 46.3746 91.4279 47.2968L94.0985 57.7427C94.3341 58.6649 93.7779 59.6039 92.8557 59.8395C91.9336 60.0751 90.9954 59.5181 90.7598 58.5967L88.0892 48.1508C87.8536 47.2287 88.4098 46.2897 89.332 46.0541Z" fill="#4E4C82" fill-opacity="0.5"/>
</svg>
