<svg width="236" height="192" viewBox="0 0 236 192" fill="none" xmlns="http://www.w3.org/2000/svg">
<path d="M8.15069 101.333C14.9915 51.3225 76.0644 7.81215 145.038 17.781C214.011 27.7499 232.766 51.2196 225.925 101.23C219.084 151.241 157.624 183.701 88.6508 173.732C19.6773 163.763 1.30989 151.344 8.15069 101.333Z" fill="#D3D3D3" fill-opacity="0.23"/>
<path d="M66.3672 82.2937H169.558V138.856C169.558 139.955 169.122 141.009 168.345 141.786C167.567 142.563 166.513 143 165.414 143H70.5114C69.4123 143 68.3582 142.563 67.581 141.786C66.8038 141.009 66.3672 139.955 66.3672 138.856V82.2937Z" fill="white"/>
<path d="M71.3403 66.4402H164.585C165.904 66.4402 167.169 66.9641 168.102 67.8968C169.034 68.8294 169.558 70.0943 169.558 71.4133V82.2935H66.3672V71.4133C66.3672 70.0943 66.8911 68.8294 67.8238 67.8968C68.7564 66.9641 70.0213 66.4402 71.3403 66.4402Z" fill="#4E4C82" fill-opacity="0.5"/>
<path d="M80.7683 54.1047H84.1118C84.9911 54.1047 85.8344 54.454 86.4561 55.0758C87.0779 55.6975 87.4272 56.5408 87.4272 57.4201V66.4404H77.4529V57.4201C77.4529 56.5408 77.8022 55.6975 78.4239 55.0758C79.0457 54.454 79.889 54.1047 80.7683 54.1047Z" fill="#D3D3D3"/>
<path d="M104.453 54.1047H107.796C108.675 54.1047 109.519 54.454 110.14 55.0758C110.762 55.6975 111.112 56.5408 111.112 57.4201V66.4404H101.137V57.4201C101.137 56.5408 101.487 55.6975 102.108 55.0758C102.73 54.454 103.573 54.1047 104.453 54.1047Z" fill="#D3D3D3"/>
<path d="M128.132 54.1047H131.473C132.352 54.1047 133.196 54.454 133.817 55.0758C134.439 55.6975 134.788 56.5408 134.788 57.4201V66.4404H124.817V57.4201C124.817 56.5408 125.166 55.6975 125.788 55.0758C126.409 54.454 127.253 54.1047 128.132 54.1047Z" fill="#D3D3D3"/>
<path d="M151.814 54.1047H155.157C156.037 54.1047 156.88 54.454 157.502 55.0758C158.123 55.6975 158.473 56.5408 158.473 57.4201V66.4404H148.498V57.4201C148.498 56.5408 148.848 55.6975 149.469 55.0758C150.091 54.454 150.934 54.1047 151.814 54.1047Z" fill="#D3D3D3"/>
<path d="M85.2122 90.583H76.3137C75.3982 90.583 74.656 91.3252 74.656 92.2407V98.8118C74.656 99.7273 75.3982 100.469 76.3137 100.469H85.2122C86.1277 100.469 86.8699 99.7273 86.8699 98.8118V92.2407C86.8699 91.3252 86.1277 90.583 85.2122 90.583Z" fill="#A2A1BB"/>
<path d="M110.012 90.583H101.113C100.198 90.583 99.4556 91.3252 99.4556 92.2407V98.8118C99.4556 99.7273 100.198 100.469 101.113 100.469H110.012C110.927 100.469 111.669 99.7273 111.669 98.8118V92.2407C111.669 91.3252 110.927 90.583 110.012 90.583Z" fill="#A2A1BB"/>
<path d="M134.812 90.583H125.913C124.998 90.583 124.255 91.3252 124.255 92.2407V98.8118C124.255 99.7273 124.998 100.469 125.913 100.469H134.812C135.727 100.469 136.469 99.7273 136.469 98.8118V92.2407C136.469 91.3252 135.727 90.583 134.812 90.583Z" fill="#A2A1BB"/>
<path d="M159.612 90.583H150.714C149.798 90.583 149.056 91.3252 149.056 92.2407V98.8118C149.056 99.7273 149.798 100.469 150.714 100.469H159.612C160.528 100.469 161.27 99.7273 161.27 98.8118V92.2407C161.27 91.3252 160.528 90.583 159.612 90.583Z" fill="#A2A1BB"/>
<path d="M85.2119 107.704H76.3135C75.3979 107.704 74.6558 108.446 74.6558 109.361V115.932C74.6558 116.848 75.3979 117.59 76.3135 117.59H85.2119C86.1274 117.59 86.8696 116.848 86.8696 115.932V109.361C86.8696 108.446 86.1274 107.704 85.2119 107.704Z" fill="#A2A1BB"/>
<path d="M110.012 107.704H101.113C100.198 107.704 99.4556 108.446 99.4556 109.361V115.932C99.4556 116.848 100.198 117.59 101.113 117.59H110.012C110.927 117.59 111.669 116.848 111.669 115.932V109.361C111.669 108.446 110.927 107.704 110.012 107.704Z" fill="#A2A1BB"/>
<path d="M134.812 107.704H125.913C124.998 107.704 124.255 108.446 124.255 109.361V115.932C124.255 116.848 124.998 117.59 125.913 117.59H134.812C135.727 117.59 136.469 116.848 136.469 115.932V109.361C136.469 108.446 135.727 107.704 134.812 107.704Z" fill="#A2A1BB"/>
<path d="M159.612 107.704H150.714C149.798 107.704 149.056 108.446 149.056 109.361V115.932C149.056 116.848 149.798 117.59 150.714 117.59H159.612C160.528 117.59 161.27 116.848 161.27 115.932V109.361C161.27 108.446 160.528 107.704 159.612 107.704Z" fill="#A2A1BB"/>
<path d="M85.2119 124.825H76.3135C75.3979 124.825 74.6558 125.567 74.6558 126.483V133.054C74.6558 133.969 75.3979 134.712 76.3135 134.712H85.2119C86.1274 134.712 86.8696 133.969 86.8696 133.054V126.483C86.8696 125.567 86.1274 124.825 85.2119 124.825Z" fill="#A2A1BB"/>
<path d="M110.012 124.825H101.113C100.198 124.825 99.4556 125.567 99.4556 126.483V133.054C99.4556 133.969 100.198 134.712 101.113 134.712H110.012C110.927 134.712 111.669 133.969 111.669 133.054V126.483C111.669 125.567 110.927 124.825 110.012 124.825Z" fill="#A2A1BB"/>
<path d="M128.816 136.162C128.597 136.162 128.381 136.113 128.185 136.017C127.988 135.922 127.815 135.784 127.679 135.612L123.121 129.86C123 129.711 122.911 129.54 122.857 129.356C122.803 129.172 122.787 128.98 122.808 128.79C122.829 128.599 122.887 128.415 122.98 128.247C123.073 128.08 123.198 127.932 123.348 127.813C123.498 127.695 123.67 127.606 123.854 127.554C124.039 127.502 124.231 127.487 124.421 127.51C124.612 127.533 124.795 127.593 124.962 127.688C125.129 127.782 125.275 127.908 125.393 128.059L128.791 132.35L134.841 124.44C135.076 124.136 135.421 123.938 135.801 123.889C136.181 123.839 136.565 123.942 136.869 124.174C137.174 124.407 137.374 124.751 137.426 125.131C137.478 125.51 137.377 125.895 137.146 126.201L129.969 135.593C129.834 135.768 129.662 135.91 129.464 136.009C129.267 136.107 129.05 136.16 128.829 136.162H128.816Z" fill="#4E4C82" fill-opacity="0.5"/>
<path d="M153.616 136.162C153.398 136.162 153.182 136.113 152.985 136.017C152.788 135.922 152.615 135.784 152.479 135.612L147.921 129.86C147.682 129.559 147.572 129.175 147.617 128.793C147.661 128.411 147.855 128.062 148.156 127.823C148.458 127.585 148.842 127.475 149.224 127.519C149.606 127.564 149.954 127.758 150.193 128.059L153.591 132.35L159.637 124.44C159.872 124.136 160.216 123.938 160.596 123.889C160.976 123.839 161.361 123.942 161.665 124.174C161.97 124.407 162.17 124.751 162.222 125.131C162.273 125.51 162.173 125.895 161.942 126.201L154.765 135.593C154.631 135.768 154.458 135.91 154.261 136.009C154.064 136.107 153.846 136.16 153.625 136.162H153.616Z" fill="#4E4C82" fill-opacity="0.5"/>
</svg>
