<svg width="50" height="65" viewBox="0 0 50 65" fill="none" xmlns="http://www.w3.org/2000/svg">
<path d="M45.249 62.0698C37.9702 58.5508 31.9418 52.6426 28.2748 45.4338C28.1067 45.1034 27.8015 44.8638 27.4407 44.779C27.0801 44.6942 26.7 44.7727 26.4023 44.9936C26.2008 45.1431 25.952 45.3245 25.6963 45.5095C25.3186 45.7829 24.6807 45.7828 24.3028 45.5095C24.0475 45.3246 23.7989 45.1433 23.5973 44.9938C23.2996 44.7728 22.9198 44.6945 22.5588 44.7791C22.198 44.864 21.8928 45.1036 21.7247 45.4339C18.0576 52.6427 12.0294 58.5507 4.7507 62.0697C4.22216 62.3251 3.94039 62.9119 4.07146 63.4842C4.20252 64.0565 4.71167 64.4622 5.29875 64.4622H44.7012C45.2884 64.4622 45.7975 64.0565 45.9283 63.4843C46.0594 62.9121 45.7775 62.3252 45.249 62.0698ZM10.0969 61.9441C15.5592 58.4069 20.1309 53.5362 23.2986 47.836C24.3488 48.3651 25.6507 48.3649 26.7012 47.8359C29.8686 53.5361 34.4404 58.4068 39.9028 61.9441H10.0969Z" fill="#98999A"/>
<path d="M33.2741 58.5607C33.2577 58.4802 33.2338 58.4008 33.2023 58.3253C33.1709 58.2498 33.1318 58.1767 33.0865 58.1075C33.0413 58.0395 32.9884 57.9753 32.9305 57.9174C32.8726 57.8582 32.807 57.8066 32.739 57.76C32.6699 57.7147 32.5969 57.6756 32.5213 57.6442C32.4458 57.6127 32.3665 57.5888 32.2859 57.5724C32.1235 57.5397 31.956 57.5397 31.7936 57.5724C31.7129 57.5888 31.6336 57.6127 31.5582 57.6442C31.4828 57.6756 31.4097 57.7147 31.3404 57.76C31.2724 57.8066 31.2082 57.8582 31.1503 57.9174C31.0911 57.9753 31.0395 58.0395 30.9929 58.1075C30.9477 58.1767 30.9085 58.2498 30.8771 58.3253C30.8456 58.4008 30.8218 58.4802 30.8053 58.5607C30.789 58.6426 30.7815 58.7244 30.7815 58.8075C30.7815 58.8893 30.7889 58.9712 30.8053 59.053C30.8218 59.1336 30.8456 59.2129 30.8771 59.2885C30.9085 59.364 30.9477 59.437 30.9929 59.5063C31.0395 59.5743 31.0911 59.6397 31.1503 59.6976C31.2082 59.7556 31.2724 59.8084 31.3404 59.8538C31.4096 59.8991 31.4828 59.9381 31.5582 59.9696C31.6336 60.0011 31.7129 60.025 31.7936 60.0414C31.8753 60.0577 31.9573 60.0653 32.0404 60.0653C32.1221 60.0653 32.2052 60.0577 32.2859 60.0414C32.3665 60.025 32.4457 60.0011 32.5213 59.9696C32.5968 59.9381 32.6698 59.8991 32.739 59.8538C32.8071 59.8084 32.8726 59.7556 32.9305 59.6976C32.9884 59.6397 33.0413 59.5743 33.0865 59.5063C33.1318 59.437 33.1709 59.364 33.2023 59.2885C33.2338 59.2129 33.2577 59.1336 33.2741 59.053C33.2905 58.9712 33.2993 58.8893 33.2993 58.8075C33.2993 58.7244 33.2905 58.6426 33.2741 58.5607Z" fill="#98999A"/>
<path d="M31.4027 24.8174H30.1399C29.4447 24.8174 28.8809 25.381 28.8809 26.0764C28.8809 26.7718 29.4447 27.3354 30.1399 27.3354H31.4027C32.098 27.3354 32.6617 26.7718 32.6617 26.0764C32.6617 25.381 32.0979 24.8174 31.4027 24.8174Z" fill="#98999A"/>
<path d="M19.8598 24.8174H18.5969C17.9016 24.8174 17.3379 25.381 17.3379 26.0764C17.3379 26.7718 17.9016 27.3354 18.5969 27.3354H19.8598C20.5552 27.3354 21.1189 26.7718 21.1189 26.0764C21.1189 25.381 20.5553 24.8174 19.8598 24.8174Z" fill="#98999A"/>
<path d="M24.9997 8.85742C24.3044 8.85742 23.7407 9.42109 23.7407 10.1164V11.6318C23.7407 12.3272 24.3044 12.8908 24.9997 12.8908C25.695 12.8908 26.2588 12.3272 26.2588 11.6318V10.1164C26.2588 9.42109 25.695 8.85742 24.9997 8.85742Z" fill="#98999A"/>
<path d="M13.8442 15.9128H13.8444C13.8435 15.9092 13.8425 15.9056 13.8442 15.9128Z" fill="#98999A"/>
<path d="M42.8466 41.5483C42.7731 41.5351 42.6985 41.5284 42.6238 41.5284H35.6863C37.688 39.7397 38.8148 37.3167 38.9538 34.4838C39.0163 33.2143 38.8654 32.1099 38.7183 31.3764C39.2813 29.8081 39.5665 28.1659 39.5665 26.4889L39.5641 19.8357C39.5641 18.3168 39.3313 16.8235 38.8715 15.3913L40.5654 8.37276C40.6562 7.99707 40.5692 7.60048 40.3296 7.29718C40.0909 6.99476 39.7267 6.81837 39.3415 6.81837H39.338L37.3801 6.82391C36.5053 3.72898 33.6775 1.55301 30.3944 1.55301C29.382 1.55301 28.4119 1.75382 27.503 2.15079C27.3425 1.96357 27.1779 1.77724 27.0091 1.59241L25.9292 0.409938C25.6908 0.148817 25.3535 0 24.9996 0C24.6458 0 24.3084 0.148817 24.0699 0.409938L22.99 1.59254C22.8214 1.77724 22.657 1.96345 22.4966 2.15079C21.5877 1.75395 20.6175 1.55313 19.605 1.55313C16.3225 1.55313 13.4952 3.72822 12.6198 6.82227L10.6599 6.8195H10.6581C10.2726 6.8195 9.90827 6.99614 9.66943 7.29894C9.43034 7.60224 9.3436 7.99845 9.43425 8.37389L11.128 15.3922C10.6683 16.8241 10.4355 18.3169 10.4355 19.8358L10.4333 26.489C10.4333 28.166 10.7184 29.8081 11.2814 31.3763C11.1341 32.1099 10.9833 33.2142 11.0457 34.4838C11.1848 37.3168 12.3114 39.7398 14.3131 41.5285H7.37612C7.30146 41.5285 7.2268 41.5352 7.15327 41.5484C3.00844 42.2936 0 45.891 0 50.1025V63.203C0 63.8984 0.563665 64.462 1.25902 64.462H48.741C49.4362 64.462 50 63.8984 50 63.203V50.1024C49.9999 45.8909 46.9916 42.2934 42.8466 41.5483ZM42.5063 44.0466C45.3959 44.617 47.4818 47.1469 47.4818 50.1024V54.1101C43.2826 51.7261 39.7616 48.2299 37.3478 44.0466H42.5063ZM30.3944 4.07105C32.3616 4.07105 34.0785 5.26587 34.7901 7.02258C33.7002 7.20099 32.5001 7.52896 31.3944 8.11693C30.8523 7.01704 30.099 5.65591 29.1167 4.24329C29.5275 4.12884 29.9546 4.07105 30.3944 4.07105ZM19.605 4.07105C20.0458 4.07105 20.4737 4.12897 20.8852 4.24392C19.9078 5.65264 19.1539 7.0149 18.6096 8.11718C17.5027 7.52645 16.3016 7.19746 15.2108 7.01906C15.9234 5.26436 17.6392 4.07105 19.605 4.07105ZM12.7588 9.34045C14.1271 9.34234 16.67 9.55297 18.3264 10.9417C18.631 11.1971 19.0386 11.2939 19.4255 11.2019C19.8124 11.1103 20.1333 10.8412 20.2911 10.4761C20.9628 8.92107 22.4484 5.91993 24.8495 3.29046L24.9997 3.1259L25.1498 3.29033C27.5712 5.94196 29.0459 8.92849 29.7096 10.4727C29.8666 10.8382 30.1871 11.108 30.574 11.2003C30.9608 11.2924 31.3688 11.1968 31.6739 10.9414C33.3267 9.55927 35.8705 9.34624 37.2395 9.34234L37.7414 9.34095L36.1553 15.9123H13.8441C13.8449 15.9156 13.8456 15.9187 13.8439 15.9123L12.2576 9.33957L12.7588 9.34045ZM37.0462 19.8357V21.5089C34.2335 21.5225 30.3901 21.5405 27.0368 21.0281C23.8206 20.5366 21.691 19.6641 20.6904 18.4306H36.965V18.4305C37.019 18.8947 37.0462 19.3637 37.0462 19.8357ZM12.9536 19.8357C12.9536 19.3635 12.9808 18.8947 13.0348 18.4305H17.8118C16.4133 20.6443 14.2703 21.2791 12.9537 21.4531V19.8357H12.9536ZM12.9513 26.489V23.9842C14.573 23.8226 17.3103 23.1591 19.3225 20.6477C20.8273 22.0519 23.2494 22.9967 26.6563 23.5173C30.2002 24.0589 34.1535 24.0413 37.0483 24.0271V26.489C37.0483 27.6108 36.8941 28.7134 36.5886 29.7796C36.5162 29.8278 36.4482 29.8839 36.3862 29.9475C35.0072 31.3591 33.2312 32.9725 32.4386 33.4675C32.0317 33.2569 31.3628 32.9155 30.6663 32.5805C28.4381 31.5088 27.7751 31.3395 27.1189 31.6752L25.4537 32.527C25.1865 32.6636 24.8134 32.6637 24.5461 32.527L22.8808 31.6752C22.2247 31.3395 21.5617 31.5087 19.3334 32.5805C18.637 32.9155 17.968 33.2569 17.5611 33.4675C16.7684 32.9725 14.9923 31.3591 13.6135 29.9475C13.5514 29.8839 13.4834 29.8279 13.411 29.7797C13.1058 28.7134 12.9513 27.6108 12.9513 26.489ZM13.5508 33.3985C13.7429 33.5774 13.9427 33.7605 14.1454 33.9423C15.8652 35.4843 17.2802 36.6089 18.4121 35.8633C19.7679 35.1489 21.4091 34.3571 22.1048 34.1065L23.3995 34.7687C24.3868 35.2738 25.6132 35.2737 26.6007 34.7687L27.8952 34.1065C28.5908 34.3571 30.2321 35.1488 31.5878 35.8633C32.7191 36.609 34.1345 35.4843 35.8545 33.9423C36.0538 33.7635 36.2506 33.5833 36.4397 33.4072C36.5266 35.2712 36.1347 37.9516 33.7006 39.9121C33.2128 40.263 33.1613 40.8152 33.1325 41.1238C33.105 41.4181 33.0668 41.8302 32.8885 42.2624C32.8789 42.2833 32.8697 42.3046 32.8613 42.3261C32.4185 43.3254 31.1999 44.4062 27.6279 44.3777C27.2926 44.3715 26.9693 44.5062 26.7308 44.7427C26.7286 44.7451 26.7263 44.7473 26.7239 44.7496C26.6819 44.783 26.5944 44.8507 26.4177 44.9819C26.4074 44.9893 26.3973 44.9969 26.3873 45.0046C26.2303 45.1209 26.0087 45.2833 25.6963 45.5094C25.3186 45.7828 24.6805 45.7828 24.3028 45.5094C23.991 45.2838 23.7696 45.1215 23.6127 45.0052C23.6024 44.9973 23.592 44.9895 23.5814 44.9819C23.4048 44.8507 23.3173 44.783 23.2753 44.7496L23.2684 44.7427C23.0301 44.5064 22.711 44.3718 22.3713 44.3777C17.1794 44.4198 16.9589 42.1104 16.8669 41.1238C16.8381 40.8152 16.7866 40.263 16.2988 39.9119C13.8454 37.9364 13.4572 35.2591 13.5508 33.3985ZM2.51805 50.1024C2.51805 47.1469 4.604 44.617 7.49359 44.0465H12.6521C10.2383 48.2298 6.71727 51.726 2.51805 54.11V50.1024ZM2.51805 61.944V56.9664C7.99606 54.1962 12.5307 49.7309 15.3878 44.2985C15.4884 44.4351 15.5993 44.571 15.7214 44.705C16.8507 45.9453 18.6108 46.6637 20.9655 46.8483C17.3005 53.3316 11.6914 58.6479 5.00777 61.944H2.51805ZM10.0969 61.9441C11.0112 61.3519 11.9005 60.7225 12.7625 60.0581C12.8094 60.0634 12.8573 60.0663 12.9056 60.0663H27.0038C27.699 60.0663 28.2628 59.5026 28.2628 58.8072C28.2628 58.1119 27.699 57.5482 27.0038 57.5482H15.7124C18.7182 54.7299 21.2905 51.4498 23.2986 47.836C23.8238 48.1005 24.4117 48.2328 24.9998 48.2328C25.588 48.2328 26.1761 48.1005 26.7013 47.8359C29.869 53.5366 34.4404 58.4066 39.9031 61.9441H10.0969ZM47.482 61.944H44.9921C38.3083 58.6477 32.6993 53.3316 29.0345 46.8483C31.389 46.6636 33.1494 45.9451 34.2784 44.7049C34.4006 44.5707 34.5115 44.4347 34.6121 44.2983C37.4692 49.7308 42.0038 54.1961 47.482 56.9664V61.944Z" fill="#98999A"/>
</svg>
