<svg width="52" height="52" viewBox="0 0 52 52" fill="none" xmlns="http://www.w3.org/2000/svg">
<path d="M48.0489 40.4446C47.7291 40.331 47.4137 40.2071 47.1017 40.0762C46.8903 39.9905 46.6538 39.9916 46.4432 40.0791C46.2327 40.1667 46.0651 40.3337 45.9768 40.5439C45.8886 40.7542 45.8867 40.9908 45.9717 41.2024C46.0567 41.414 46.2217 41.5836 46.4309 41.6744C46.7723 41.8182 47.1181 41.9534 47.4709 42.0774C48.0759 42.2949 48.6233 42.6477 49.0715 43.1087C49.5196 43.5698 49.8567 44.127 50.057 44.738C49.6573 45.485 49.0411 46.0936 48.2892 46.484C47.5374 46.8744 46.685 47.0283 45.8441 46.9255L42.7137 46.5398C38.0411 45.9597 33.5663 44.3053 29.6401 41.7064C29.5455 41.6355 29.4375 41.5846 29.3225 41.557C29.2076 41.5294 29.0883 41.5256 28.9718 41.5458C28.8553 41.566 28.7442 41.6098 28.6453 41.6745C28.5464 41.7392 28.4618 41.8235 28.3967 41.9221C28.3316 42.0208 28.2873 42.1317 28.2666 42.2481C28.246 42.3644 28.2493 42.4838 28.2765 42.5989C28.3036 42.7139 28.354 42.8222 28.4246 42.917C28.4952 43.0118 28.5844 43.0912 28.6867 43.1503C32.8364 45.8996 37.5668 47.6498 42.5066 48.2636L45.6335 48.6484C45.8782 48.6787 46.1245 48.694 46.3711 48.6944C47.6968 48.6917 48.9831 48.2433 50.0232 47.4212C49.7395 48.2502 49.2042 48.9699 48.4918 49.4799C47.7795 49.99 46.9257 50.265 46.0495 50.2665H42.9001C38.1917 50.2613 33.5486 49.1652 29.335 47.0642L21.1615 42.977C21.0597 42.926 20.9488 42.8957 20.8353 42.8876C20.7217 42.8795 20.6077 42.8938 20.4997 42.9298C20.3917 42.9658 20.2918 43.0226 20.2058 43.0972C20.1198 43.1718 20.0493 43.2626 19.9984 43.3644C19.9475 43.4662 19.9171 43.577 19.909 43.6906C19.9009 43.8041 19.9152 43.9181 19.9512 44.0261C19.9872 44.1341 20.0441 44.234 20.1187 44.32C20.1932 44.406 20.284 44.4765 20.3858 44.5274L28.5593 48.6146C29.8487 49.2542 31.1797 49.8061 32.5434 50.2665H2.60007C2.37021 50.2665 2.14977 50.3578 1.98724 50.5203C1.82471 50.6829 1.7334 50.9033 1.7334 51.1332C1.7334 51.363 1.82471 51.5835 1.98724 51.746C2.14977 51.9085 2.37021 51.9998 2.60007 51.9998H46.0495C47.4519 51.9999 48.8092 51.5048 49.882 50.6017C50.9549 49.6986 51.6743 48.4456 51.9134 47.0638C52.1525 45.682 51.8959 44.2602 51.1888 43.0491C50.4818 41.8381 49.3698 40.9156 48.0489 40.4446V40.4446Z" fill="#98999A"/>
<path d="M12.2791 35.0523C12.2159 35.147 12.172 35.2532 12.1498 35.3649C12.1277 35.4765 12.1278 35.5915 12.1501 35.7031C12.1724 35.8147 12.2164 35.9209 12.2798 36.0154C12.3431 36.11 12.4244 36.1912 12.5191 36.2544L15.1191 37.9877C15.3104 38.1153 15.5444 38.1617 15.7699 38.1166C15.9953 38.0716 16.1936 37.9389 16.3212 37.7477C16.4488 37.5564 16.4951 37.3223 16.4501 37.0969C16.4051 36.8715 16.2724 36.6732 16.0811 36.5456L13.4811 34.8123C13.3864 34.7491 13.2802 34.7052 13.1686 34.683C13.0569 34.6609 12.942 34.661 12.8304 34.6833C12.7187 34.7056 12.6126 34.7496 12.518 34.813C12.4234 34.8763 12.3422 34.9576 12.2791 35.0523Z" fill="#98999A"/>
<path d="M30.3332 29.4667C30.8119 29.4667 31.1999 29.0787 31.1999 28.6001C31.1999 28.1214 30.8119 27.7334 30.3332 27.7334C29.8546 27.7334 29.4666 28.1214 29.4666 28.6001C29.4666 29.0787 29.8546 29.4667 30.3332 29.4667Z" fill="#98999A"/>
<path d="M31.1999 32.9335C31.6786 32.9335 32.0666 32.5455 32.0666 32.0669C32.0666 31.5882 31.6786 31.2002 31.1999 31.2002C30.7213 31.2002 30.3333 31.5882 30.3333 32.0669C30.3333 32.5455 30.7213 32.9335 31.1999 32.9335Z" fill="#98999A"/>
<path d="M33.8 36.3998C34.2787 36.3998 34.6667 36.0118 34.6667 35.5332C34.6667 35.0545 34.2787 34.6665 33.8 34.6665C33.3214 34.6665 32.9333 35.0545 32.9333 35.5332C32.9333 36.0118 33.3214 36.3998 33.8 36.3998Z" fill="#98999A"/>
<path d="M26.8546 30.4798C26.881 30.3252 26.865 30.1663 26.8082 30.0201C26.7515 29.8738 26.6561 29.7458 26.5322 29.6495L18.7322 23.5828C18.5771 23.462 18.3856 23.3976 18.189 23.4C17.9925 23.4024 17.8026 23.4715 17.6505 23.5961C17.4984 23.7207 17.3932 23.8932 17.3521 24.0855C17.311 24.2777 17.3365 24.4782 17.4244 24.654L19.5417 28.8877L17.1228 29.4944C16.9617 29.5349 16.8156 29.6208 16.7019 29.7419C16.5883 29.8631 16.5118 30.0144 16.4817 30.1777C16.4515 30.3411 16.469 30.5097 16.5319 30.6634C16.5949 30.8172 16.7007 30.9496 16.8368 31.0448L25.5035 37.1115C25.6614 37.2247 25.8528 37.2816 26.0469 37.273C26.241 37.2643 26.4266 37.1907 26.5739 37.064C26.7211 36.9372 26.8215 36.7646 26.8589 36.574C26.8963 36.3833 26.8686 36.1856 26.7801 36.0126L24.6221 31.7061L26.274 31.1549C26.4228 31.1054 26.5554 31.0165 26.6576 30.8976C26.7599 30.7787 26.828 30.6343 26.8546 30.4798V30.4798ZM22.6244 31.5874L23.6956 33.7289L19.3874 30.7129L21.0107 30.3073C21.1366 30.2758 21.2538 30.2165 21.3536 30.1337C21.4535 30.0509 21.5335 29.9467 21.5878 29.8288C21.642 29.7109 21.6691 29.5824 21.667 29.4527C21.6649 29.3229 21.6337 29.1953 21.5758 29.0792L20.684 27.3L24.1896 30.0274L23.1262 30.3818C23.0079 30.421 22.8994 30.4851 22.8081 30.57C22.7168 30.6548 22.6449 30.7584 22.5973 30.8735C22.5497 30.9887 22.5274 31.1128 22.5321 31.2373C22.5368 31.3619 22.5683 31.4839 22.6244 31.5952V31.5874Z" fill="#98999A"/>
<path d="M36.4001 39.8666C36.8788 39.8666 37.2668 39.4786 37.2668 39C37.2668 38.5213 36.8788 38.1333 36.4001 38.1333C35.9215 38.1333 35.5334 38.5213 35.5334 39C35.5334 39.4786 35.9215 39.8666 36.4001 39.8666Z" fill="#98999A"/>
<path d="M15.6 5.20016C15.6 4.97031 15.5087 4.74987 15.3462 4.58734C15.1836 4.42481 14.9632 4.3335 14.7333 4.3335H7.80002C7.57016 4.3335 7.34972 4.42481 7.18719 4.58734C7.02466 4.74987 6.93335 4.97031 6.93335 5.20016C6.93335 5.43002 7.02466 5.65046 7.18719 5.81299C7.34972 5.97552 7.57016 6.06683 7.80002 6.06683H14.7333C14.9632 6.06683 15.1836 5.97552 15.3462 5.81299C15.5087 5.65046 15.6 5.43002 15.6 5.20016V5.20016Z" fill="#98999A"/>
<path d="M8.66672 9.5332C8.43686 9.5332 8.21642 9.62451 8.05389 9.78704C7.89136 9.94958 7.80005 10.17 7.80005 10.3999C7.80005 10.6297 7.89136 10.8502 8.05389 11.0127C8.21642 11.1752 8.43686 11.2665 8.66672 11.2665H13C13.2299 11.2665 13.4503 11.1752 13.6129 11.0127C13.7754 10.8502 13.8667 10.6297 13.8667 10.3999C13.8667 10.17 13.7754 9.94958 13.6129 9.78704C13.4503 9.62451 13.2299 9.5332 13 9.5332H8.66672Z" fill="#98999A"/>
<path d="M2.6001 15.6001C2.6001 15.8299 2.69141 16.0504 2.85394 16.2129C3.01647 16.3754 3.23691 16.4667 3.46676 16.4667H12.1334C12.3633 16.4667 12.5837 16.3754 12.7463 16.2129C12.9088 16.0504 13.0001 15.8299 13.0001 15.6001C13.0001 15.3702 12.9088 15.1498 12.7463 14.9872C12.5837 14.8247 12.3633 14.7334 12.1334 14.7334H3.46676C3.23691 14.7334 3.01647 14.8247 2.85394 14.9872C2.69141 15.1498 2.6001 15.3702 2.6001 15.6001Z" fill="#98999A"/>
<path d="M7.80002 47.6664H19.0667C19.2965 47.6664 19.517 47.5751 19.6795 47.4126C19.842 47.2501 19.9333 47.0296 19.9333 46.7998C19.9333 46.5699 19.842 46.3495 19.6795 46.1869C19.517 46.0244 19.2965 45.9331 19.0667 45.9331H7.80002C7.57016 45.9331 7.34972 46.0244 7.18719 46.1869C7.02466 46.3495 6.93335 46.5699 6.93335 46.7998C6.93335 47.0296 7.02466 47.2501 7.18719 47.4126C7.34972 47.5751 7.57016 47.6664 7.80002 47.6664V47.6664Z" fill="#98999A"/>
<path d="M9.5334 41.6001C9.5334 41.3702 9.44209 41.1498 9.27956 40.9872C9.11703 40.8247 8.89659 40.7334 8.66673 40.7334H2.60007C2.37021 40.7334 2.14977 40.8247 1.98724 40.9872C1.82471 41.1498 1.7334 41.3702 1.7334 41.6001C1.7334 41.8299 1.82471 42.0504 1.98724 42.2129C2.14977 42.3754 2.37021 42.4667 2.60007 42.4667H8.66673C8.89659 42.4667 9.11703 42.3754 9.27956 42.2129C9.44209 42.0504 9.5334 41.8299 9.5334 41.6001Z" fill="#98999A"/>
<path d="M8.66667 22.5331C8.89652 22.5331 9.11696 22.4418 9.27949 22.2793C9.44202 22.1168 9.53333 21.8963 9.53333 21.6665C9.53333 21.4366 9.44202 21.2162 9.27949 21.0536C9.11696 20.8911 8.89652 20.7998 8.66667 20.7998H0.866667C0.636812 20.7998 0.416372 20.8911 0.253841 21.0536C0.0913092 21.2162 0 21.4366 0 21.6665C0 21.8963 0.0913092 22.1168 0.253841 22.2793C0.416372 22.4418 0.636812 22.5331 0.866667 22.5331H8.66667Z" fill="#98999A"/>
<path d="M6.93337 27.7333C7.16322 27.7333 7.38366 27.642 7.54619 27.4795C7.70872 27.317 7.80003 27.0965 7.80003 26.8667C7.80003 26.6368 7.70872 26.4164 7.54619 26.2538C7.38366 26.0913 7.16322 26 6.93337 26H1.73337C1.50351 26 1.28307 26.0913 1.12054 26.2538C0.958008 26.4164 0.866699 26.6368 0.866699 26.8667C0.866699 27.0965 0.958008 27.317 1.12054 27.4795C1.28307 27.642 1.50351 27.7333 1.73337 27.7333H6.93337Z" fill="#98999A"/>
<path d="M0.866667 1.73333H18.0986L17.3117 8.82007C17.2873 9.04785 17.3542 9.276 17.4976 9.45465C17.641 9.63329 17.8493 9.74789 18.0769 9.7734C18.1092 9.77684 18.1416 9.77857 18.174 9.7786C18.3871 9.77819 18.5925 9.69931 18.7511 9.55703C18.9097 9.41475 19.0103 9.21903 19.0337 9.00727L19.9281 0.962C19.9415 0.840879 19.9292 0.718292 19.8921 0.602242C19.8549 0.486192 19.7937 0.379287 19.7124 0.288506C19.6311 0.197724 19.5315 0.125108 19.4203 0.0753949C19.309 0.0256823 19.1885 -8.33483e-06 19.0667 2.02839e-09H0.866667C0.636812 2.02839e-09 0.416372 0.0913092 0.253841 0.253841C0.0913092 0.416372 0 0.636812 0 0.866667C0 1.09652 0.0913092 1.31696 0.253841 1.47949C0.416372 1.64202 0.636812 1.73333 0.866667 1.73333V1.73333Z" fill="#98999A"/>
<path d="M18.6463 12.4937C18.6623 12.379 18.6551 12.2623 18.6251 12.1504C18.5952 12.0386 18.5432 11.9338 18.4721 11.8424C18.401 11.751 18.3123 11.6747 18.2112 11.6182C18.1102 11.5616 17.9988 11.5259 17.8837 11.5131C17.7686 11.5003 17.6521 11.5107 17.5411 11.5436C17.4301 11.5766 17.3268 11.6315 17.2374 11.7051C17.148 11.7786 17.0742 11.8694 17.0204 11.9719C16.9666 12.0745 16.9339 12.1868 16.9243 12.3022L16.1841 18.9625C15.9846 18.9626 15.7857 18.9853 15.5913 19.0301C15.2416 19.116 14.9134 19.2735 14.6276 19.4927C14.3418 19.7118 14.1046 19.9878 13.9308 20.3033L8.7828 29.6633C8.27675 30.5833 7.96166 31.596 7.85642 32.6407C7.75118 33.6854 7.85794 34.7406 8.17033 35.7431C8.48271 36.7455 8.99427 37.6746 9.67435 38.4746C10.3544 39.2746 11.189 39.929 12.1281 40.3987L17.2779 42.9735C17.4809 43.0603 17.7094 43.0664 17.9167 42.9904C18.1241 42.9144 18.2946 42.7622 18.3935 42.5647C18.4923 42.3673 18.5121 42.1396 18.4488 41.9281C18.3855 41.7165 18.2438 41.5371 18.0527 41.4265L12.9038 38.8517C12.1735 38.4862 11.5245 37.977 10.9957 37.3547C10.4669 36.7324 10.0691 36.0097 9.82635 35.2299C9.58357 34.4502 9.50071 33.6295 9.58276 32.8169C9.6648 32.0044 9.91005 31.2168 10.3038 30.5013L10.66 29.8548C11.2623 31.1305 12.203 32.2165 13.3796 32.9947L26.013 41.3797C26.1078 41.445 26.2146 41.4908 26.3272 41.5144C26.4398 41.538 26.5561 41.5389 26.669 41.5171C26.782 41.4953 26.8896 41.4512 26.9853 41.3874C27.0811 41.3236 27.1632 41.2414 27.2269 41.1455C27.2905 41.0496 27.3344 40.942 27.356 40.829C27.3777 40.7159 27.3766 40.5997 27.3528 40.4871C27.329 40.3745 27.2831 40.2678 27.2176 40.1732C27.1522 40.0785 27.0685 39.9978 26.9715 39.9359L14.3364 31.5465C13.029 30.6826 12.1112 29.3418 11.7789 27.8103L15.4492 21.137C15.5071 21.0315 15.5863 20.9393 15.6818 20.8661C15.7774 20.7929 15.8871 20.7404 16.004 20.712C16.1209 20.6835 16.2424 20.6797 16.3609 20.7008C16.4793 20.7219 16.5921 20.7675 16.692 20.8345C18.6682 22.1639 21.0017 22.8613 23.3833 22.8343C25.7649 22.8072 28.082 22.0569 30.0274 20.6829C30.215 20.5505 30.4312 20.4641 30.6583 20.4307C30.667 20.4307 30.6765 20.4307 30.6852 20.4307C30.6939 20.4307 30.7069 20.4255 30.7181 20.4255C30.9223 20.402 31.1291 20.4224 31.3248 20.4853C31.5427 20.5546 31.7413 20.674 31.9046 20.834C32.0679 20.994 32.1914 21.1901 32.2651 21.4065L34.06 26.5597L32.7262 26.8925C32.5214 26.9439 32.3423 27.0682 32.2227 27.2422C32.1031 27.4162 32.0511 27.628 32.0765 27.8376C32.1019 28.0472 32.203 28.2404 32.3608 28.3807C32.5186 28.5211 32.7222 28.599 32.9333 28.5999C33.0043 28.5997 33.075 28.591 33.1439 28.5739L34.6294 28.2021L35.1269 29.6321C35.1875 29.8054 35.2638 29.9709 35.3288 30.1417L34.4621 30.3592C34.2575 30.4105 34.0786 30.5346 33.9589 30.7084C33.8393 30.8821 33.7871 31.0935 33.8122 31.303C33.8373 31.5124 33.9379 31.7056 34.0952 31.8461C34.2525 31.9867 34.4557 32.0651 34.6667 32.0665C34.7377 32.0664 34.8084 32.0577 34.8773 32.0405L36.023 31.7537C36.3301 32.3911 36.6706 33.0119 37.0431 33.6135L36.1911 33.8259C35.9862 33.8772 35.807 34.0017 35.6874 34.1759C35.5678 34.3501 35.5159 34.562 35.5416 34.7718C35.5672 34.9815 35.6686 35.1747 35.8267 35.3149C35.9848 35.4551 36.1887 35.5328 36.4 35.5332C36.471 35.5331 36.5417 35.5243 36.6106 35.5072L38.0839 35.1389C38.5907 35.8125 39.1387 36.4542 39.7245 37.0603L38.7929 37.2925C38.588 37.3439 38.409 37.4682 38.2894 37.6422C38.1697 37.8162 38.1177 38.028 38.1432 38.2376C38.1686 38.4472 38.2697 38.6404 38.4275 38.7807C38.5852 38.9211 38.7888 38.999 39 38.9999C39.071 38.9997 39.1417 38.991 39.2106 38.9739L41.2334 38.4677C41.8633 39.0076 42.5261 39.5077 43.2181 39.9653C43.3134 40.0275 43.4201 40.0702 43.532 40.0911C43.6439 40.1121 43.7588 40.1107 43.8702 40.0872C43.9816 40.0637 44.0873 40.0185 44.1812 39.9542C44.2751 39.8898 44.3554 39.8076 44.4175 39.7123C44.4797 39.6169 44.5224 39.5102 44.5433 39.3983C44.5643 39.2864 44.5629 39.1715 44.5394 39.0601C44.5159 38.9487 44.4707 38.8431 44.4064 38.7492C44.342 38.6553 44.2598 38.5749 44.1645 38.5128C43.8178 38.2849 43.4772 38.037 43.1444 37.7857C43.2254 37.6847 43.2823 37.5665 43.3106 37.4402C43.339 37.3139 43.3382 37.1827 43.3082 37.0568C43.2525 36.8339 43.1106 36.6422 42.9136 36.5239C42.7167 36.4056 42.4808 36.3703 42.2578 36.4259L41.6867 36.5732C41.0565 35.9845 40.4678 35.3529 39.9247 34.683L40.0807 34.644C40.1934 34.6186 40.2999 34.571 40.3939 34.5039C40.4879 34.4368 40.5676 34.3516 40.6282 34.2533C40.6888 34.155 40.7292 34.0456 40.7469 33.9314C40.7646 33.8173 40.7593 33.7008 40.7314 33.5887C40.7034 33.4766 40.6533 33.3713 40.5841 33.2788C40.5148 33.1864 40.4278 33.1087 40.3281 33.0504C40.2284 32.9921 40.1181 32.9543 40.0035 32.9392C39.889 32.9242 39.7727 32.9321 39.6613 32.9627L38.8041 33.1767C38.4161 32.5809 38.0625 31.9634 37.7451 31.3273L38.3517 31.1773C38.4644 31.152 38.5709 31.1044 38.6649 31.0373C38.7589 30.9702 38.8386 30.885 38.8992 30.7866C38.9598 30.6883 39.0002 30.5789 39.0179 30.4647C39.0356 30.3506 39.0303 30.2341 39.0024 30.122C38.9744 30.01 38.9243 29.9046 38.8551 29.8122C38.7858 29.7197 38.6988 29.6421 38.5991 29.5838C38.4994 29.5254 38.3891 29.4876 38.2745 29.4726C38.16 29.4575 38.0437 29.4655 37.9323 29.496L37.0309 29.7213C36.9443 29.5029 36.8489 29.288 36.7709 29.067L36.3133 27.78L36.6063 27.7072C36.719 27.6818 36.8254 27.6342 36.9194 27.5671C37.0135 27.5 37.0931 27.4148 37.1537 27.3165C37.2143 27.2182 37.2547 27.1087 37.2724 26.9946C37.2901 26.8805 37.2849 26.764 37.2569 26.6519C37.2289 26.5398 37.1789 26.4345 37.1096 26.342C37.0404 26.2496 36.9533 26.1719 36.8536 26.1136C36.7539 26.0553 36.6436 26.0175 36.5291 26.0024C36.4146 25.9874 36.2982 25.9953 36.1868 26.0259L35.7413 26.1377L33.8979 20.8389C33.7371 20.3697 33.4688 19.9446 33.1144 19.5976C32.76 19.2506 32.3294 18.9913 31.8569 18.8403C31.8283 18.8317 31.7989 18.8317 31.7703 18.823L36.3723 1.08407C36.4241 0.863505 36.3875 0.631402 36.2704 0.437479C36.1532 0.243556 35.9647 0.103237 35.7453 0.0465787C35.5259 -0.0100797 35.2931 0.021429 35.0967 0.134355C34.9002 0.247282 34.7558 0.432644 34.6944 0.650737L29.9815 18.8299C29.6442 18.9217 29.3242 19.0681 29.0342 19.2633C27.4086 20.4102 25.4784 21.0473 23.4894 21.0936C21.5005 21.1399 19.5427 20.5933 17.8655 19.5233L18.6463 12.4937Z" fill="#98999A"/>
</svg>
