<svg width="237" height="192" viewBox="0 0 237 192" fill="none" xmlns="http://www.w3.org/2000/svg">
<path d="M8.90278 101.5C15.7435 51.4898 76.8161 7.97976 145.789 17.9486C214.762 27.9174 233.516 51.387 226.675 101.397C219.835 151.407 158.375 183.867 89.4024 173.898C20.4293 163.93 2.06202 151.51 8.90278 101.5Z" fill="#D3D3D3" fill-opacity="0.23"/>
<path d="M64.4526 93.8625C59.6616 93.8625 55.689 89.3731 54.293 87.7956C52.8572 86.1729 53.0085 83.6933 54.6312 82.2572C56.254 80.8213 58.7336 80.9724 60.1697 82.5954C62.824 85.595 64.1558 85.9672 64.3947 86.0109C64.5544 85.9094 65.2204 85.3883 66.1878 83.3091C67.1338 81.2763 67.9661 78.6601 68.8472 75.8902C69.9806 72.3269 71.1527 68.6422 72.7533 65.7015C75.0699 61.4442 78.0876 59.2858 81.7223 59.2858C90.0989 59.2858 94.0146 67.9836 95.8247 75.2801C97.5203 82.115 97.745 88.8361 97.7539 89.119C97.821 91.2848 96.1193 93.0949 93.9535 93.1619C91.7892 93.2267 89.9788 91.5286 89.9105 89.364C89.9085 89.3021 89.6939 83.0999 88.1837 77.0701C87.4352 74.0824 85.3077 67.133 81.7223 67.133C81.2201 67.133 80.4243 68.0219 79.6456 69.4527C78.4035 71.7353 77.3467 75.0569 76.325 78.2691C74.001 85.575 71.8057 92.4759 66.0154 93.6992C65.4868 93.8112 64.9647 93.8625 64.4526 93.8625Z" fill="#FF8C4A"/>
<path d="M151.424 52.8619L182 45.2206C182 45.2206 181.407 66.4314 169.463 70.9806" fill="#FF8C4A"/>
<path d="M158.882 60.353L169.463 70.9805C176.232 68.4013 179.355 60.4705 180.791 54.083C180.791 54.083 171.129 54.0909 163.172 57.6273L158.882 60.353Z" fill="white"/>
<path d="M126.25 52.8619L95.6744 45.2206C95.6744 45.2206 96.2678 66.4314 108.212 70.9806" fill="#FF8C4A"/>
<path d="M167.93 133.444L163.934 138.459L148.106 158.312H107.738L78.9026 141.441L80.4746 125.589C70.8749 100.426 85.638 87.9339 104.652 82.3625C106.365 81.8577 108.115 81.4129 109.883 81.018C122.778 78.1433 136.725 78.0362 146.011 79.0614C155.323 80.0895 161.807 84.7923 165.995 91.1773C174.307 103.843 173.572 123.123 167.93 133.444Z" fill="#FF8C4A"/>
<path d="M163.933 138.458L148.106 158.311H107.738L78.9024 141.44L80.4743 125.589C70.0091 98.1578 88.4993 85.7832 109.883 81.0173L119.728 90.4784C119.728 90.4784 101.267 138.374 159.924 138.374C161.333 138.374 162.667 138.403 163.933 138.458Z" fill="#FF8C4A"/>
<path d="M178.775 148.288L152.458 170.736C149.087 173.613 144.718 175.049 140.298 174.738L78.4159 170.38L60.807 174.194L52 140.849L70.7073 130.226L107.869 109.395C109.446 108.511 111.154 108.092 112.841 108.092C116.406 108.092 119.867 109.968 121.734 113.298C124.282 117.841 122.992 123.572 118.747 126.585L100.555 139.502C104.983 142.052 109.765 143.98 114.766 145.214L138.891 151.162L168.037 133.444C172.201 130.912 177.618 132.071 180.381 136.088C183.049 139.964 182.355 145.233 178.775 148.288Z" fill="#FCD2B1"/>
<path d="M178.775 148.288L152.458 170.736C149.087 173.613 144.718 175.049 140.298 174.738L78.4159 170.38L60.807 174.194L52 140.849L70.7073 130.226L107.869 109.395C109.446 108.511 111.154 108.092 112.841 108.092C116.406 108.092 119.867 109.968 121.734 113.298C118.044 106.8 72.7058 136.114 72.7058 145.999C72.7058 155.884 125.2 167.134 140.539 164.746C155.88 162.36 165.197 146.143 178.775 148.288Z" fill="#FCD2B1"/>
<path d="M109.281 127.135C107.675 127.135 106.116 126.355 105.164 124.934C103.067 121.804 102.449 118.668 102.424 118.536C102.219 117.472 102.917 116.444 103.98 116.24C105.042 116.036 106.069 116.73 106.276 117.791C106.285 117.836 106.795 120.318 108.424 122.751C108.717 123.188 109.318 123.333 109.793 123.08L112.225 121.783C113.18 121.273 114.369 121.635 114.879 122.591C115.388 123.547 115.027 124.735 114.071 125.245L111.639 126.542C110.887 126.943 110.078 127.135 109.281 127.135Z" fill="#FCD2B1"/>
<path d="M118.792 60.353L108.212 70.9805C101.442 68.4013 98.3191 60.4705 96.883 54.083C96.883 54.083 106.545 54.0909 114.502 57.6273L118.792 60.353Z" fill="white"/>
<path d="M165.995 91.1773C165.163 100.557 157.52 107.991 148.014 108.37C139.623 108.705 131.232 108.705 122.841 108.37C113.027 107.978 105.198 100.066 104.803 90.2513C104.696 87.6198 104.646 84.9912 104.651 82.3625C106.365 81.8577 108.115 81.4129 109.883 81.018C122.778 78.1433 136.725 78.0362 146.011 79.0614C155.323 80.0895 161.807 84.7923 165.995 91.1773Z" fill="#FF8C4A"/>
<path d="M151.424 52.8619C143.033 52.526 134.642 52.526 126.25 52.8619C116.435 53.2547 108.607 61.1654 108.212 70.9807C108.008 76.0408 108.008 81.1009 108.212 86.1607C108.607 95.976 116.435 103.886 126.25 104.279C134.642 104.615 143.033 104.615 151.424 104.279C161.24 103.887 169.068 95.976 169.463 86.1607C169.667 81.1006 169.667 76.0405 169.463 70.9807C169.068 61.1654 161.24 53.2547 151.424 52.8619Z" fill="#FF8C4A"/>
<path d="M127.827 104.339C127.301 104.321 126.775 104.3 126.249 104.279C116.435 103.886 108.606 95.9765 108.212 86.1597C108.007 81.1009 108.007 76.0395 108.212 70.9809C108.607 61.1642 116.435 53.2545 126.249 52.8619C126.775 52.8411 127.301 52.82 127.827 52.8018C124.416 55.9588 122.033 62.6211 121.871 70.3924C121.758 75.8435 121.758 81.2971 121.871 86.7483C122.033 94.5196 124.416 101.182 127.827 104.339Z" fill="#FF8C4A"/>
<path d="M131.923 80.6538C133.604 76.4399 136.079 73.7772 138.838 73.7772C141.595 73.7772 144.07 76.4399 145.754 80.6538V95.5921H132.001" fill="#34334B"/>
<path d="M169.613 79.2286C169.606 81.5382 169.556 83.8505 169.464 86.1603C169.069 95.9771 161.241 103.887 151.424 104.279C143.033 104.617 134.642 104.617 126.25 104.279C116.436 103.887 108.607 95.9771 108.213 86.1603C108.118 83.8507 108.069 81.5384 108.061 79.2286H126.052C133.112 79.2286 138.837 84.9517 138.837 92.0141C138.837 84.9517 144.563 79.2286 151.625 79.2286H169.613Z" fill="white"/>
<path d="M127.823 104.334C124.415 101.176 122.034 94.5161 121.872 86.7483C121.82 84.2423 121.795 81.7355 121.791 79.2286H108.062C108.07 81.5382 108.12 83.8505 108.214 86.1603C108.609 95.9771 116.438 103.887 126.252 104.279C126.775 104.3 127.299 104.316 127.823 104.334Z" fill="white"/>
<path d="M123.384 68.24C121.996 68.24 120.866 69.9196 120.866 71.9841C120.866 74.0486 121.996 75.7279 123.384 75.7279C124.773 75.7279 125.902 74.0483 125.902 71.9841C125.902 69.9198 124.773 68.24 123.384 68.24Z" fill="#34334B"/>
<path d="M154.29 68.24C152.902 68.24 151.772 69.9196 151.772 71.9841C151.772 74.0486 152.902 75.7279 154.29 75.7279C155.679 75.7279 156.808 74.0483 156.808 71.9841C156.808 69.9198 155.678 68.24 154.29 68.24Z" fill="#34334B"/>
<path d="M154.185 89.7125C153.328 89.7125 152.558 89.14 152.307 88.3214C152.078 87.5736 152.335 86.7312 152.939 86.2361C154.294 85.1252 156.391 86.3059 156.125 88.0403C155.979 88.9889 155.147 89.7125 154.185 89.7125Z" fill="#34334B"/>
<path d="M148.433 95.8491C146.691 95.8491 145.816 93.632 147.101 92.4472C147.71 91.8861 148.628 91.7706 149.358 92.1585C150.096 92.5511 150.508 93.4001 150.364 94.2238C150.202 95.1524 149.377 95.8491 148.433 95.8491Z" fill="#34334B"/>
<path d="M156.497 96.3616C154.753 96.3616 153.879 94.1394 155.169 92.9552C155.749 92.422 156.623 92.2885 157.335 92.6264C158.105 92.9918 158.563 93.8373 158.437 94.6828C158.297 95.6311 157.46 96.3616 156.497 96.3616Z" fill="#34334B"/>
<path d="M123.49 89.7125C122.651 89.7125 121.894 89.1606 121.629 88.3668C121.368 87.5823 121.645 86.6852 122.307 86.1881C123.753 85.1034 125.837 86.4669 125.393 88.229C125.175 89.0915 124.379 89.7125 123.49 89.7125Z" fill="#34334B"/>
<path d="M129.242 95.849C127.482 95.849 126.613 93.5885 127.943 92.4188C129.245 91.2752 131.371 92.336 131.193 94.0796C131.093 95.0698 130.24 95.849 129.242 95.849Z" fill="#34334B"/>
<path d="M121.177 96.3617C120.32 96.3617 119.544 95.7774 119.298 94.9588C119.058 94.1603 119.368 93.2731 120.05 92.7955C121.504 91.7764 123.521 93.15 123.078 94.8811C122.859 95.7383 122.064 96.3617 121.177 96.3617Z" fill="#34334B"/>
</svg>
