<svg width="511" height="526" viewBox="0 0 511 526" fill="none" xmlns="http://www.w3.org/2000/svg">
<path d="M455 462.544V459.028H451.058L449.283 457.622L455 454V449.795L446.946 455.044L440.455 449.887V454.028L446.605 458.836V459.028H440.455V462.544H455ZM455 448.501V444.985H450.021V443.181L455 440.525V436.69L449.46 439.708C448.736 438.11 447.308 437.187 445.298 437.187C442.308 437.187 440.455 439.225 440.455 442.492L440.455 448.501H455ZM447.251 444.985H443.288L443.288 443.252C443.288 441.675 443.949 440.83 445.298 440.83C446.648 440.83 447.251 441.675 447.251 443.252V444.985ZM455 435.259V425.116H452.145V431.743H449.155V425.635H446.293V431.743H443.31V425.116H440.455V435.259H455ZM455 419.768L451.946 418.81V413.788L455 412.83V409.051L440.455 413.959V418.639L455 423.547V419.768ZM449.276 417.972L444.119 416.359V416.246L449.276 414.626V417.972ZM443.31 409.777V405.36H455V401.894H443.31V397.483H440.455V409.777H443.31ZM440.455 392.251V395.766H455V392.251H440.455ZM440.455 386.741V390.676L455 385.768V381.088L440.455 376.18V380.115L451.108 383.368V383.488L440.455 386.741ZM440.455 371.098V374.614H455V371.098H440.455ZM443.31 369.367V364.95H455V361.484H443.31V357.073H440.455V369.367H443.31ZM455 354.026L451.946 353.067V348.046L455 347.087V343.309L440.455 348.217V352.897L455 357.805V354.026ZM449.276 352.229L444.119 350.617V350.504L449.276 348.884V352.229ZM446.385 330.464V337.197H449.062V330.464H446.385ZM440.455 320.413V324.348L455 319.44V314.76L440.455 309.852V313.787L451.108 317.039V317.16L440.455 320.413ZM440.455 309.01L450.142 303.691H455V300.196H450.142L440.455 294.877V298.804L446.541 301.88V302.007L440.455 305.083V309.01ZM439.07 303.144V300.779L435.866 298.634V301.709L439.07 303.144ZM440.455 290.1L440.455 294.035L455 289.127V284.447L440.455 279.539V283.474L451.108 286.727V286.848L440.455 290.1ZM447.727 264.772C442.919 264.772 440.256 267.812 440.256 271.718C440.256 275.638 442.919 278.657 447.727 278.657C452.514 278.657 455.199 275.638 455.199 271.718C455.199 267.812 452.536 264.772 447.727 264.772ZM447.727 268.366C450.575 268.366 452.116 269.616 452.116 271.718C452.116 273.813 450.575 275.07 447.727 275.07C444.879 275.07 443.338 273.813 443.338 271.718C443.338 269.616 444.879 268.366 447.727 268.366ZM440.455 256.81H450.511C451.768 256.817 452.429 257.371 452.429 258.38C452.429 259.346 451.811 259.935 450.682 259.971V263.472C453.814 263.487 455.199 261.299 455.199 258.579C455.199 255.496 453.345 253.352 450.511 253.344H440.455V256.81ZM446.385 239.859V246.592H449.062V239.859H446.385ZM440.455 229.594V233.11H455V229.594H440.455ZM440.455 215.008V218.517H448.835V218.637L440.455 224.362V227.387H455V223.872H446.605V223.779L455 217.991V215.008H440.455ZM447.727 199.069C442.919 199.069 440.256 202.109 440.256 206.015C440.256 209.935 442.919 212.954 447.727 212.954C452.514 212.954 455.199 209.935 455.199 206.015C455.199 202.109 452.536 199.069 447.727 199.069ZM447.727 202.663C450.575 202.663 452.116 203.913 452.116 206.015C452.116 208.11 450.575 209.367 447.727 209.367C444.879 209.367 443.338 208.11 443.338 206.015C443.338 203.913 444.879 202.663 447.727 202.663ZM440.455 194.241V198.176L455 193.268V188.588L440.455 183.68V187.615L451.108 190.868V190.988L440.455 194.241ZM455 181.136L451.946 180.177V175.156L455 174.197V170.418L440.455 175.326V180.006L455 184.914V181.136ZM449.276 179.339L444.119 177.727V177.613L449.276 175.994V179.339ZM439.07 178.863V176.498L435.866 174.353V177.428L439.07 178.863ZM445.724 156.333C442.244 156.688 440.256 159.28 440.256 162.796C440.256 166.674 442.919 169.692 447.727 169.692C452.514 169.692 455.199 166.745 455.199 162.796C455.199 158.804 452.486 156.596 449.908 156.333L449.886 159.884C451.286 160.132 452.116 161.184 452.116 162.725C452.116 164.799 450.618 166.105 447.727 166.105C444.95 166.105 443.338 164.827 443.338 162.703C443.338 161.105 444.268 160.061 445.724 159.884V156.333ZM440.455 150.805V154.321H455V150.805H440.455ZM455 148.598V138.456H452.145V145.083H449.155V138.975H446.293V145.083H443.31V138.456H440.455V148.598H455Z" fill="#98999A"/>
<path d="M9.61765 503.278C100.533 503.278 174.235 429.576 174.235 338.66C174.235 247.744 100.533 174.043 9.61765 174.043C-81.2982 174.043 -155 247.744 -155 338.66C-155 429.576 -81.2982 503.278 9.61765 503.278Z" fill="#34334B"/>
<path d="M9.61763 489.651C93.0073 489.651 160.608 422.05 160.608 338.66C160.608 255.271 93.0073 187.67 9.61763 187.67C-73.772 187.67 -141.373 255.271 -141.373 338.66C-141.373 422.05 -73.772 489.651 9.61763 489.651Z" fill="white"/>
<path d="M9.07252 359.374C20.2112 359.374 29.2409 350.344 29.2409 339.205C29.2409 328.067 20.2112 319.037 9.07252 319.037C-2.06618 319.037 -11.0959 328.067 -11.0959 339.205C-11.0959 350.344 -2.06618 359.374 9.07252 359.374Z" fill="#34334B"/>
<path d="M13.4333 195.301H4.71179V211.654H13.4333V195.301Z" fill="#34334B"/>
<path d="M13.4333 466.757H4.71179V483.11H13.4333V466.757Z" fill="#34334B"/>
<path d="M152.977 343.566V334.845H136.624V343.566H152.977Z" fill="#34334B"/>
<path d="M3.25867 347.961L10.7121 330.918L104.105 382.642L3.25867 347.961Z" fill="#34334B"/>
<path d="M30.8761 134.251H-11.6411V183.309H30.8761V134.251Z" fill="#34334B"/>
<path d="M9.61762 147.878C36.7117 147.878 58.6759 141.777 58.6759 134.251C58.6759 126.725 36.7117 120.624 9.61762 120.624C-17.4765 120.624 -39.4406 126.725 -39.4406 134.251C-39.4406 141.777 -17.4765 147.878 9.61762 147.878Z" fill="#34334B"/>
<path d="M88.0595 273.852L83.4432 280.315C83.4432 280.315 62.2086 305.242 61.2854 293.24C60.3621 281.238 76.9805 272.929 76.9805 272.929L86.213 267.389L88.0595 273.852Z" fill="#FCD2B1"/>
<path d="M219.479 295.656L223.344 302.594C223.344 302.594 236.786 332.454 225.544 328.152C214.301 323.85 213.903 305.274 213.903 305.274L212.848 294.559L219.479 295.656Z" fill="#FCD2B1"/>
<path d="M198.695 172.634C214.221 172.634 226.808 160.048 226.808 144.522C226.808 128.996 214.221 116.409 198.695 116.409C183.169 116.409 170.583 128.996 170.583 144.522C170.583 160.048 183.169 172.634 198.695 172.634Z" fill="#34334B"/>
<path d="M196.079 375.409L199.772 399.413V406.799H221.006V397.567C221.006 397.567 221.93 380.948 218.237 376.332C214.544 371.716 196.079 375.409 196.079 375.409Z" fill="#FCD2B1"/>
<path d="M158.226 375.409L161.919 399.413V406.799H183.154V397.567C183.154 397.567 184.077 380.948 180.384 376.332C176.691 371.716 158.226 375.409 158.226 375.409Z" fill="#FCD2B1"/>
<path d="M172.515 182.592C172.515 182.592 164.348 186.897 169.926 196.689C175.505 206.481 208.235 307.786 208.235 307.786L227.118 302.426L210.465 238.358L200.93 198.09L172.515 182.592Z" fill="#FF8C4A"/>
<path d="M195.617 173.68C207.345 173.68 216.852 164.173 216.852 152.445C216.852 140.718 207.345 131.211 195.617 131.211C183.89 131.211 174.383 140.718 174.383 152.445C174.383 164.173 183.89 173.68 195.617 173.68Z" fill="#FCD2B1"/>
<path d="M205.312 155.677L202.542 199.069L183.154 185.221C183.154 185.221 189.616 159.37 187.77 157.523L205.312 155.677Z" fill="#FCD2B1"/>
<path d="M205.311 195.376L184.425 179.91C184.425 179.91 174.844 175.988 172.075 180.604C169.305 185.221 155.456 253.541 162.842 266.466C162.842 266.466 202.542 274.775 210.851 270.159L214.544 246.155C214.544 246.155 219.16 231.383 211.774 222.15L205.311 195.376Z" fill="#FF8C4A"/>
<path d="M177.614 181.528C177.614 181.528 170.228 175.988 163.765 185.221C157.303 194.453 79.7502 267.389 79.7502 267.389L92.6756 282.161L143.454 239.692L175.768 213.841L177.614 181.528Z" fill="#FF8C4A"/>
<path d="M211.313 269.697C211.313 269.697 165.612 260.927 160.996 267.389L160.073 277.545C160.073 277.545 149.917 296.933 155.456 328.323C160.996 359.714 157.303 379.102 157.303 379.102C157.303 379.102 182.231 376.332 200.695 379.102C219.16 381.871 221.93 379.102 221.93 379.102L211.313 269.697Z" fill="#34334B"/>
<path d="M222.853 403.106L196.079 404.029L205.311 473.273C205.311 473.273 197.925 502.816 206.234 504.663C212.011 505.829 217.884 506.447 223.776 506.509C223.776 506.509 232.085 514.818 241.318 513.895C247.449 513.112 253.39 511.236 258.859 508.356C258.859 508.356 260.706 502.816 254.243 500.97C247.78 499.123 230.239 493.584 226.546 474.196L222.853 403.106Z" fill="#34334B"/>
<path d="M185 403.106L158.226 404.029L167.459 473.273C167.459 473.273 160.073 502.816 168.382 504.663C174.158 505.829 180.031 506.447 185.923 506.509C185.923 506.509 194.233 514.818 203.465 513.895C209.596 513.112 215.538 511.236 221.007 508.356C221.007 508.356 222.853 502.816 216.39 500.97C209.928 499.123 192.386 493.584 188.693 474.196L185 403.106Z" fill="#34334B"/>
<path d="M208.529 126.566C214.954 126.566 220.162 121.358 220.162 114.934C220.162 108.509 214.954 103.301 208.529 103.301C202.105 103.301 196.897 108.509 196.897 114.934C196.897 121.358 202.105 126.566 208.529 126.566Z" fill="#34334B"/>
<path d="M224.04 108.633C224.039 105.757 222.974 102.984 221.05 100.847C219.126 98.7109 216.478 97.3627 213.619 97.0629C214.021 97.0211 214.426 97.0001 214.83 97C217.916 97 220.874 98.2256 223.056 100.407C225.237 102.589 226.463 105.547 226.463 108.633C226.463 111.718 225.237 114.677 223.056 116.858C220.874 119.04 217.916 120.265 214.83 120.265C214.426 120.265 214.021 120.244 213.619 120.202C216.478 119.903 219.126 118.554 221.05 116.418C222.974 114.281 224.039 111.508 224.04 108.633Z" fill="#34334B"/>
<path d="M195.425 150.194C206.133 150.194 214.813 144.986 214.813 138.561C214.813 132.137 206.133 126.928 195.425 126.928C184.718 126.928 176.037 132.137 176.037 138.561C176.037 144.986 184.718 150.194 195.425 150.194Z" fill="#34334B"/>
<path d="M510.12 43.1513C509.522 32.5802 505.189 22.565 497.894 14.8913C490.598 7.21761 480.815 2.38427 470.288 1.25301C459.76 0.121755 449.173 2.76612 440.414 8.71464C431.655 14.6631 425.293 23.5291 422.463 33.7319C421.922 33.7125 421.381 33.6907 420.835 33.6907C411.183 33.6925 401.79 36.8194 394.063 42.6038C386.336 48.3881 380.69 56.5189 377.968 65.7796C371.572 62.9693 364.425 62.3596 357.645 64.046C350.866 65.7323 344.837 69.6195 340.503 75.0989H479.865C483.931 75.1104 487.957 74.3013 491.703 72.7202C495.448 71.1391 498.837 68.8185 501.664 65.8972C504.492 62.9759 506.701 59.514 508.159 55.7189C509.618 51.9237 510.295 47.8734 510.151 43.8102C510.142 43.5909 510.132 43.3713 510.12 43.1513Z" fill="#D3D3D3" fill-opacity="0.23"/>
</svg>
