<svg width="147" height="427" viewBox="0 0 147 427" fill="none" xmlns="http://www.w3.org/2000/svg">
<path d="M42.1659 98.4103C60.5377 115.485 89.3103 114.395 106.432 95.9764C123.553 77.5579 122.539 48.7852 104.167 31.7108C85.7956 14.6364 57.0229 15.7261 39.9017 34.1447C22.7805 52.5632 23.7942 81.3359 42.1659 98.4103Z" fill="#4E4C82" fill-opacity="0.5"/>
<path d="M41.8446 61.1416C43.2783 61.0923 44.3411 61.4821 45.033 62.311C45.7341 63.1304 46.1122 64.3964 46.1671 66.1091C46.2226 67.8401 45.9272 69.1522 45.281 70.0455C44.6345 70.9296 43.5992 71.3962 42.175 71.4452L38.5006 71.5716L38.5769 69.506L38.3765 63.2552L38.1702 61.268L41.8446 61.1416ZM42.1142 69.5493C42.6174 69.532 43.0128 69.413 43.3004 69.1922C43.5877 68.9622 43.7854 68.607 43.8935 68.1265C44.0112 67.6457 44.0569 66.9977 44.0308 66.1826C44.0035 65.3308 43.916 64.6783 43.7684 64.2249C43.6303 63.7712 43.4112 63.4579 43.1109 63.2848C42.8199 63.1023 42.4181 63.0198 41.9054 63.0375L40.4242 63.0884L40.633 69.6003L42.1142 69.5493ZM47.8119 69.1882L47.6114 62.9374L47.4051 60.9503L49.7408 60.8699L49.6623 62.8668L49.8627 69.1177L50.0712 71.1735L47.7356 71.2538L47.8119 69.1882ZM55.0063 71.155C54.3702 71.1768 53.7543 71.088 53.1585 70.8885C52.572 70.6794 52.0584 70.3716 51.6176 69.965L51.2564 68.0382L51.454 67.9764C51.9998 68.3977 52.5472 68.7181 53.096 68.9376C53.6445 69.148 54.1704 69.2445 54.6736 69.2272C55.2718 69.2066 55.7295 69.1038 56.0467 68.9186C56.3731 68.724 56.5311 68.4619 56.5205 68.1322C56.5105 67.8208 56.3458 67.5743 56.0263 67.3927C55.716 67.2017 55.1584 67.0054 54.3535 66.8039C53.5967 66.619 53.0005 66.4058 52.5651 66.164C52.1296 65.9223 51.8107 65.6123 51.6085 65.2342C51.4063 64.8561 51.2953 64.3602 51.2756 63.7465C51.2448 62.7849 51.5435 62.0228 52.1718 61.4602C52.8096 60.8973 53.6602 60.5975 54.7236 60.5609C55.3693 60.5387 55.9942 60.6135 56.5986 60.7852C57.2029 60.957 57.6953 61.1968 58.0759 61.5046L57.8221 63.37L57.6102 63.4323C57.4011 63.1369 57.0466 62.9016 56.5467 62.7262C56.0564 62.5506 55.5311 62.4724 54.9709 62.4916C54.4582 62.5093 54.0669 62.6098 53.7972 62.7933C53.5274 62.9768 53.398 63.238 53.4088 63.5769C53.42 63.9249 53.5616 64.1905 53.8336 64.3737C54.1148 64.5474 54.6146 64.7182 55.3328 64.886C56.1564 65.0777 56.8002 65.2939 57.2641 65.5347C57.7278 65.7663 58.0701 66.0663 58.291 66.4346C58.5119 66.8029 58.6318 67.2802 58.6506 67.8663C58.6826 68.8646 58.3658 69.6549 57.7001 70.2371C57.0341 70.8101 56.1362 71.1161 55.0063 71.155ZM64.1817 70.908C63.1088 70.9449 62.239 70.7915 61.5721 70.4477C60.9144 70.0944 60.421 69.5291 60.092 68.7519C59.7724 67.9744 59.5919 66.94 59.5504 65.6486C59.492 63.826 59.7908 62.4725 60.4468 61.588C61.112 60.6941 62.2421 60.2197 63.8372 60.1648C64.4449 60.1439 64.9358 60.1866 65.3099 60.2929C65.6932 60.3898 66.0987 60.5867 66.5265 60.8837L66.2691 62.6392L65.9882 62.7727C65.7325 62.5064 65.451 62.3236 65.1437 62.2241C64.8363 62.1247 64.4215 62.0839 63.8993 62.1019C63.3202 62.1218 62.8634 62.2522 62.5289 62.4929C62.2036 62.7241 61.9728 63.0851 61.8365 63.5757C61.7096 64.066 61.6597 64.7325 61.6867 65.5751C61.7155 66.4726 61.8092 67.1708 61.9678 67.6697C62.126 68.1593 62.3747 68.5038 62.7138 68.703C63.0528 68.9022 63.5215 68.9915 64.1196 68.9709C64.7273 68.95 65.2284 68.8686 65.6231 68.7267C66.0177 68.5847 66.3436 68.3718 66.6006 68.0879L66.9032 68.1875L66.5275 69.8095C66.1969 70.1693 65.8396 70.4384 65.4556 70.6166C65.0811 70.7945 64.6565 70.8917 64.1817 70.908ZM71.9911 70.6393C70.6049 70.687 69.5505 70.2648 68.828 69.3728C68.1053 68.4716 67.7155 67.1372 67.6589 65.3696C67.6028 63.6203 67.9021 62.2851 68.557 61.364C69.221 60.4334 70.2509 59.9441 71.6466 59.8961C73.0423 59.8481 74.0965 60.2657 74.8091 61.1489C75.531 62.0226 75.92 63.3341 75.9761 65.0834C76.0328 66.851 75.7294 68.2093 75.066 69.1582C74.4022 70.0979 73.3773 70.5916 71.9911 70.6393ZM71.9289 68.7022C72.4417 68.6846 72.837 68.5655 73.1151 68.3451C73.4024 68.1151 73.5998 67.7508 73.7074 67.252C73.8242 66.7436 73.8683 66.0453 73.8398 65.1569C73.8122 64.296 73.7242 63.6251 73.5757 63.1443C73.4367 62.6631 73.2167 62.3223 72.9156 62.1217C72.6142 61.9121 72.2119 61.8159 71.7087 61.8332C71.2055 61.8505 70.8102 61.9741 70.5229 62.2041C70.2354 62.4248 70.0329 62.7802 69.9155 63.2702C69.8077 63.7599 69.7675 64.4352 69.7951 65.2961C69.8236 66.1845 69.9077 66.8784 70.0472 67.3779C70.196 67.8679 70.4164 68.2179 70.7083 68.4279C71.0093 68.6284 71.4162 68.7199 71.9289 68.7022ZM85.0316 59.6556L84.3999 61.7403L82.9318 67.9798L82.5706 70.0552L79.4232 70.1635L78.9298 68.1175L77.0795 61.9922L76.3156 59.9555L78.8079 59.8698L79.2016 61.9192L81.0012 67.7987L82.4345 61.808L82.696 59.736L85.0316 59.6556ZM92.8504 67.8035L92.5979 69.7102L86.2888 69.9273L86.3651 67.8617L86.1646 61.6108L85.9583 59.6237L92.4384 59.4007L92.1859 61.3074L88.2124 61.4441L88.2816 63.601L91.899 63.4765L91.6465 65.3831L88.3424 65.4968L88.4212 67.956L92.8504 67.8035ZM102.307 69.3761L99.359 69.4775L98.3387 67.4497L97.6955 66.5091L96.2571 66.5586L96.2879 67.5202L96.4964 69.576L94.1607 69.6564L94.2371 67.5908L94.0366 61.34L93.8303 59.3528L97.5475 59.2249C98.8102 59.1815 99.7551 59.4516 100.382 60.0351C101.018 60.6092 101.356 61.5053 101.395 62.7234C101.419 63.4653 101.278 64.1165 100.973 64.6771C100.677 65.2374 100.254 65.6738 99.7033 65.9861L100.66 67.3698L102.307 69.3761ZM96.1963 64.6627L97.122 64.6309C97.929 64.6031 98.4898 64.4554 98.8044 64.1879C99.1285 63.92 99.28 63.4563 99.2589 62.7969C99.2442 62.339 99.1664 61.9887 99.0255 61.7459C98.8847 61.5032 98.656 61.3369 98.3394 61.2469C98.0324 61.1566 97.5988 61.1211 97.0386 61.1404L96.0844 61.1732L96.1963 64.6627ZM107.211 65.6453L107.258 67.129L107.467 69.1848L105.131 69.2652L105.208 67.1996L105.162 65.7708L102.772 61.0394L101.554 59.0871L104.303 58.9925L105.008 60.9625L106.092 63.2082L107.03 60.8929L107.607 58.8788L110.356 58.7842L109.266 60.8159L107.211 65.6453Z" fill="white"/>
<path d="M42.1659 238.41C60.5377 255.485 89.3103 254.395 106.432 235.976C123.553 217.558 122.539 188.785 104.167 171.711C85.7956 154.636 57.0229 155.726 39.9017 174.145C22.7805 192.563 23.7942 221.336 42.1659 238.41Z" fill="#4E4C82"/>
<path d="M60.953 200.484C62.1019 200.445 63.0187 200.729 63.7036 201.338C64.3977 201.938 64.7634 202.819 64.8007 203.983C64.8251 204.743 64.6894 205.403 64.3937 205.963C64.1075 206.523 63.6843 206.96 63.124 207.272C62.5729 207.575 61.9223 207.74 61.1723 207.766L59.4633 207.825L59.4941 208.786L59.7026 210.842L57.3669 210.922L57.4433 208.857L57.2428 202.606L57.0365 200.619L60.953 200.484ZM60.5276 205.89C61.0972 205.87 61.5371 205.805 61.8472 205.693C62.157 205.573 62.3744 205.386 62.4994 205.135C62.6241 204.873 62.6791 204.514 62.6644 204.056C62.6503 203.616 62.5729 203.275 62.432 203.033C62.2911 202.79 62.0623 202.619 61.7454 202.52C61.4286 202.421 60.9948 202.381 60.4442 202.4L59.2906 202.439L59.4025 205.929L60.5276 205.89ZM72.7463 208.495L72.4938 210.402L66.1846 210.619L66.261 208.553L66.0605 202.303L65.8542 200.315L68.1899 200.235L68.1114 202.232L68.3118 208.483L68.3313 208.647L72.7463 208.495ZM81.997 210.075L79.5047 210.161L79.1111 208.111L79.1102 208.084L75.4651 208.237L75.2037 210.309L72.9962 210.385L73.6279 208.3L75.1814 202.058L75.5426 199.982L78.6901 199.874L79.1834 201.92L81.2331 208.038L81.997 210.075ZM78.4802 206.221L77.0432 201.87L75.9455 206.322L78.4802 206.221ZM90.6247 207.715L90.8332 209.771L87.6003 209.882L84.6193 201.843L84.814 207.915L85.0225 209.971L82.9717 210.041L83.0481 207.976L82.8476 201.725L82.6413 199.738L85.8885 199.626L88.8539 207.625L88.6583 201.525L88.452 199.538L90.5028 199.467L90.4243 201.464L90.6247 207.715Z" fill="white"/>
<path d="M42.1659 383.41C60.5377 400.485 89.3103 399.395 106.432 380.976C123.553 362.558 122.539 333.785 104.167 316.711C85.7956 299.636 57.0229 300.726 39.9017 319.145C22.7805 337.563 23.7942 366.336 42.1659 383.41Z" fill="#34334B"/>
<path d="M59.2434 355.858L56.751 355.944L56.3574 353.894L56.3565 353.867L52.7115 354.02L52.45 356.092L50.2425 356.168L50.8743 354.083L52.4278 347.84L52.7889 345.765L55.9364 345.657L56.4297 347.703L58.4794 353.821L59.2434 355.858ZM55.7265 352.004L54.2895 347.653L53.1919 352.105L55.7265 352.004ZM64.1191 355.91C63.0462 355.947 62.1764 355.794 61.5095 355.45C60.8518 355.097 60.3584 354.531 60.0294 353.754C59.7098 352.977 59.5293 351.942 59.4879 350.651C59.4294 348.828 59.7282 347.475 60.3842 346.59C61.0494 345.696 62.1795 345.222 63.7746 345.167C64.3823 345.146 64.8732 345.189 65.2473 345.295C65.6306 345.392 66.0361 345.589 66.4639 345.886L66.2065 347.641L65.9256 347.775C65.6699 347.509 65.3884 347.326 65.0811 347.226C64.7737 347.127 64.359 347.086 63.8367 347.104C63.2576 347.124 62.8008 347.254 62.4663 347.495C62.141 347.726 61.9102 348.087 61.7739 348.578C61.647 349.068 61.5971 349.735 61.6241 350.577C61.6529 351.475 61.7466 352.173 61.9052 352.672C62.0634 353.161 62.3121 353.506 62.6512 353.705C62.9902 353.904 63.4589 353.994 64.057 353.973C64.6647 353.952 65.1658 353.871 65.5605 353.729C65.9552 353.587 66.281 353.374 66.538 353.09L66.8406 353.19L66.4649 354.812C66.1343 355.171 65.777 355.441 65.393 355.619C65.0185 355.797 64.5939 355.894 64.1191 355.91ZM74.6444 346.966L74.489 347.013L73.202 346.892L71.8917 346.937L72.0975 353.353L72.306 355.408L69.9703 355.489L70.0466 353.423L69.8409 347.007L68.5306 347.053L67.2542 347.262L67.0962 347.226L67.3469 345.264L74.2685 345.026L74.6444 346.966ZM75.9827 353.219L75.7823 346.968L75.576 344.981L77.9116 344.901L77.8331 346.898L78.0335 353.148L78.242 355.204L75.9064 355.285L75.9827 353.219ZM83.806 355.233C82.4198 355.28 81.3654 354.858 80.643 353.966C79.9202 353.065 79.5305 351.731 79.4738 349.963C79.4177 348.214 79.7171 346.879 80.3719 345.957C81.0359 345.027 82.0658 344.538 83.4615 344.49C84.8572 344.442 85.9114 344.859 86.6241 345.742C87.346 346.616 87.735 347.928 87.791 349.677C87.8477 351.444 87.5443 352.803 86.8809 353.752C86.2172 354.691 85.1922 355.185 83.806 355.233ZM83.7439 353.296C84.2566 353.278 84.652 353.159 84.9301 352.939C85.2173 352.709 85.4148 352.344 85.5223 351.845C85.6391 351.337 85.6833 350.639 85.6548 349.75C85.6272 348.889 85.5391 348.219 85.3906 347.738C85.2516 347.257 85.0316 346.916 84.7305 346.715C84.4291 346.506 84.0268 346.409 83.5236 346.427C83.0204 346.444 82.6251 346.568 82.3379 346.798C82.0503 347.018 81.8478 347.374 81.7305 347.864C81.6226 348.353 81.5825 349.029 81.6101 349.89C81.6386 350.778 81.7226 351.472 81.8622 351.971C82.011 352.461 82.2313 352.811 82.5232 353.021C82.8243 353.222 83.2312 353.313 83.7439 353.296ZM97.0085 352.495L97.217 354.551L93.9841 354.662L91.0031 346.623L91.1978 352.695L91.4063 354.751L89.3555 354.822L89.4318 352.756L89.2314 346.505L89.0251 344.518L92.2722 344.406L95.2377 352.405L95.0421 346.305L94.8358 344.318L96.8866 344.248L96.8081 346.245L97.0085 352.495Z" fill="white"/>
<path d="M73 111L70.1132 116L75.8868 116L73 111ZM73 159L75.8867 154L70.1132 154L73 159ZM72.5 115.5L72.5 154.5L73.5 154.5L73.5 115.5L72.5 115.5Z" fill="#4E4C82" fill-opacity="0.5"/>
<path d="M74 253L71.1132 258L76.8868 258L74 253ZM74 301L76.8867 296L71.1132 296L74 301ZM73.5 257.5L73.5 296.5L74.5 296.5L74.5 257.5L73.5 257.5Z" fill="#4E4C82" fill-opacity="0.5"/>
</svg>
