<svg width="61" height="60" viewBox="0 0 61 60" fill="none" xmlns="http://www.w3.org/2000/svg">
<path d="M6.91684 21.8847C7.08823 22.0561 7.31323 22.1423 7.53824 22.1423C7.76325 22.1423 7.98825 22.0566 8.1601 21.8847C8.50334 21.5415 8.50334 20.9847 8.1601 20.6415L6.02552 18.5069L8.1601 16.3728C8.50334 16.0291 8.50334 15.4727 8.1601 15.1295C7.81686 14.7863 7.26008 14.7863 6.91684 15.1295L4.16086 17.8855C3.99589 18.0504 3.90332 18.2741 3.90332 18.5069C3.90332 18.7401 3.99589 18.9638 4.16086 19.1287L6.91684 21.8847Z" fill="#98999A"/>
<path d="M15.6405 18.5068L13.5059 20.6414C13.1627 20.9847 13.1627 21.5414 13.5064 21.8847C13.6778 22.0561 13.9028 22.1422 14.1278 22.1422C14.3528 22.1422 14.5778 22.0561 14.7492 21.8847L17.5056 19.1282C17.8488 18.785 17.8488 18.2282 17.5056 17.8854L14.7492 15.129C14.4059 14.7858 13.8496 14.7858 13.5064 15.129C13.1627 15.4727 13.1627 16.029 13.5064 16.3723L15.6405 18.5068Z" fill="#98999A"/>
<path d="M9.52263 22.0812C9.62803 22.1225 9.7371 22.1422 9.84387 22.1422C10.1949 22.1422 10.5262 21.9305 10.6623 21.5845L12.8276 16.0721C13.0054 15.6202 12.7827 15.1102 12.3309 14.9324C11.8795 14.755 11.369 14.9773 11.1916 15.4291L9.02588 20.9415C8.84853 21.3934 9.07079 21.9039 9.52263 22.0812Z" fill="#98999A"/>
<path d="M5.28031 27.2996H11.2024C11.6877 27.2996 12.0813 26.906 12.0813 26.4202C12.0813 25.9349 11.6877 25.5413 11.2024 25.5413H5.28031C4.79455 25.5413 4.40137 25.9349 4.40137 26.4202C4.40137 26.906 4.79455 27.2996 5.28031 27.2996Z" fill="#98999A"/>
<path d="M24.8419 25.5413H14.4302C13.9449 25.5413 13.5513 25.9349 13.5513 26.4202C13.5513 26.906 13.9449 27.2996 14.4302 27.2996H24.8419C25.3276 27.2996 25.7213 26.906 25.7213 26.4202C25.7213 25.9349 25.3276 25.5413 24.8419 25.5413Z" fill="#98999A"/>
<path d="M5.28031 31.0071H7.80303C8.28833 31.0071 8.68198 30.6135 8.68198 30.1277C8.68198 29.6424 8.28833 29.2488 7.80303 29.2488H5.28031C4.79455 29.2488 4.40137 29.6424 4.40137 30.1277C4.40137 30.6135 4.79455 31.0071 5.28031 31.0071Z" fill="#98999A"/>
<path d="M21.6255 29.2488C21.1398 29.2488 20.7466 29.6424 20.7466 30.1277C20.7466 30.6135 21.1398 31.0071 21.6255 31.0071H23.1616C23.6474 31.0071 24.041 30.6135 24.041 30.1277C24.041 29.6424 23.6474 29.2488 23.1616 29.2488H21.6255Z" fill="#98999A"/>
<path d="M19.3119 30.1277C19.3119 29.6424 18.9183 29.2488 18.433 29.2488H10.8872C10.4015 29.2488 10.0083 29.6424 10.0083 30.1277C10.0083 30.6135 10.4015 31.0071 10.8872 31.0071H18.433C18.9183 31.0071 19.3119 30.6135 19.3119 30.1277Z" fill="#98999A"/>
<path d="M25.0703 30.1277C25.0703 30.6135 25.464 31.0071 25.9493 31.0071H28.8267C29.3124 31.0071 29.7061 30.6135 29.7061 30.1277C29.7061 29.6424 29.3124 29.2488 28.8267 29.2488H25.9493C25.464 29.2488 25.0703 29.6424 25.0703 30.1277Z" fill="#98999A"/>
<path d="M20.2827 19.212H23.3178C23.8035 19.212 24.1972 18.8183 24.1972 18.3326C24.1972 17.8473 23.8035 17.4536 23.3178 17.4536H20.2827C19.797 17.4536 19.4033 17.8473 19.4033 18.3326C19.4033 18.8183 19.797 19.212 20.2827 19.212Z" fill="#98999A"/>
<path d="M26.7173 19.212H45.236C45.7218 19.212 46.115 18.8183 46.115 18.3326C46.115 17.8473 45.7218 17.4536 45.236 17.4536H26.7173C26.2315 17.4536 25.8379 17.8473 25.8379 18.3326C25.8379 18.8183 26.2315 19.212 26.7173 19.212Z" fill="#98999A"/>
<path d="M42.4236 21.3213H34.9219C34.4366 21.3213 34.043 21.7149 34.043 22.2007C34.043 22.686 34.4366 23.0796 34.9219 23.0796H42.4236C42.9089 23.0796 43.3026 22.686 43.3026 22.2007C43.3026 21.7149 42.9089 21.3213 42.4236 21.3213Z" fill="#98999A"/>
<path d="M32.1089 21.3213H29.5303C29.0446 21.3213 28.6514 21.7149 28.6514 22.2007C28.6514 22.686 29.0446 23.0796 29.5303 23.0796H32.1089C32.5947 23.0796 32.9879 22.686 32.9879 22.2007C32.9879 21.7149 32.5947 21.3213 32.1089 21.3213Z" fill="#98999A"/>
<path d="M20.2827 23.0796H26.5998C27.0851 23.0796 27.4788 22.686 27.4788 22.2007C27.4788 21.7149 27.0851 21.3213 26.5998 21.3213H20.2827C19.797 21.3213 19.4033 21.7149 19.4033 22.2007C19.4033 22.686 19.797 23.0796 20.2827 23.0796Z" fill="#98999A"/>
<path d="M18.4441 32.9255H12.5225C12.0367 32.9255 11.6431 33.3192 11.6431 33.8045C11.6431 34.2898 12.0367 34.6834 12.5225 34.6834H18.4441C18.9294 34.6834 19.323 34.2898 19.323 33.8045C19.323 33.3192 18.9294 32.9255 18.4441 32.9255Z" fill="#98999A"/>
<path d="M9.82992 32.9255H5.28031C4.79455 32.9255 4.40137 33.3192 4.40137 33.8045C4.40137 34.2898 4.79455 34.6834 5.28031 34.6834H9.82992C10.3157 34.6834 10.7089 34.2898 10.7089 33.8045C10.7089 33.3192 10.3157 32.9255 9.82992 32.9255Z" fill="#98999A"/>
<path d="M29.1788 32.9255H21.4429C20.9572 32.9255 20.564 33.3192 20.564 33.8045C20.564 34.2898 20.9572 34.6834 21.4429 34.6834H29.1788C29.6641 34.6834 30.0577 34.2898 30.0577 33.8045C30.0577 33.3192 29.6641 32.9255 29.1788 32.9255Z" fill="#98999A"/>
<path d="M39.6404 28.4099H35.4102C34.9249 28.4099 34.5312 28.8036 34.5312 29.2889C34.5312 29.7746 34.9249 30.1683 35.4102 30.1683H39.6404C40.1261 30.1683 40.5193 29.7746 40.5193 29.2889C40.5193 28.8036 40.1261 28.4099 39.6404 28.4099Z" fill="#98999A"/>
<path d="M46.981 30.1683H52.9526C53.4383 30.1683 53.832 29.7746 53.832 29.2889C53.832 28.8036 53.4383 28.4099 52.9526 28.4099H46.981C46.4952 28.4099 46.1021 28.8036 46.1021 29.2889C46.1021 29.7746 46.4957 30.1683 46.981 30.1683Z" fill="#98999A"/>
<path d="M43.9948 28.4099H42.6265C42.1407 28.4099 41.7471 28.8036 41.7471 29.2889C41.7471 29.7746 42.1407 30.1683 42.6265 30.1683H43.9948C44.4806 30.1683 44.8738 29.7746 44.8738 29.2889C44.8738 28.8036 44.4806 28.4099 43.9948 28.4099Z" fill="#98999A"/>
<path d="M35.4102 39.7476H39.6404C40.1261 39.7476 40.5193 39.3544 40.5193 38.8687C40.5193 38.3834 40.1261 37.9897 39.6404 37.9897H35.4102C34.9249 37.9897 34.5312 38.3834 34.5312 38.8687C34.5312 39.3544 34.9249 39.7476 35.4102 39.7476Z" fill="#98999A"/>
<path d="M46.981 39.7476H52.9526C53.4383 39.7476 53.832 39.3544 53.832 38.8687C53.832 38.3834 53.4383 37.9897 52.9526 37.9897H46.981C46.4952 37.9897 46.1021 38.3834 46.1021 38.8687C46.1021 39.3544 46.4957 39.7476 46.981 39.7476Z" fill="#98999A"/>
<path d="M42.6265 39.7476H43.9949C44.4806 39.7476 44.8743 39.3544 44.8743 38.8687C44.8743 38.3834 44.4806 37.9897 43.9949 37.9897H42.6265C42.1407 37.9897 41.7476 38.3834 41.7476 38.8687C41.7476 39.3544 42.1407 39.7476 42.6265 39.7476Z" fill="#98999A"/>
<path d="M39.6404 47.5698H35.4102C34.9249 47.5698 34.5312 47.9635 34.5312 48.4488C34.5312 48.9341 34.9249 49.3277 35.4102 49.3277H39.6404C40.1261 49.3277 40.5193 48.9341 40.5193 48.4488C40.5193 47.9635 40.1261 47.5698 39.6404 47.5698Z" fill="#98999A"/>
<path d="M52.9526 47.5698H46.981C46.4952 47.5698 46.1021 47.9635 46.1021 48.4488C46.1021 48.9341 46.4952 49.3277 46.981 49.3277H52.9526C53.4383 49.3277 53.832 48.9341 53.832 48.4488C53.832 47.9635 53.4383 47.5698 52.9526 47.5698Z" fill="#98999A"/>
<path d="M43.9948 47.5698H42.6265C42.1407 47.5698 41.7471 47.9635 41.7471 48.4488C41.7471 48.9341 42.1407 49.3277 42.6265 49.3277H43.9948C44.4806 49.3277 44.8738 48.9341 44.8738 48.4488C44.8738 47.9635 44.4806 47.5698 43.9948 47.5698Z" fill="#98999A"/>
<path d="M56.1964 0H3.86909C1.73589 0 0 1.73543 0 3.86909V46.4034C0 48.5366 1.73589 50.2721 3.86909 50.2721H7.17727C7.66257 50.2721 8.05621 49.8789 8.05621 49.3931C8.05621 48.9078 7.66257 48.5142 7.17727 48.5142H3.86909C2.70511 48.5142 1.75834 47.5674 1.75834 46.4034V43.0687H33.7848V44.5837H33.0878C32.1341 44.5837 31.3587 45.359 31.3587 46.3127V48.5142H12.522C12.0367 48.5142 11.643 48.9078 11.643 49.3931C11.643 49.8789 12.0367 50.2721 12.522 50.2721H20.9741V53.4249H18.3199C16.5491 53.4249 15.1088 54.8657 15.1088 56.6359V58.5349C15.1088 59.3429 15.766 60 16.5739 60H43.4243C44.2322 60 44.8893 59.3429 44.8893 58.5349V56.6359C44.8893 54.8657 43.449 53.4249 41.6783 53.4249H39.0241V52.3136H55.2753C56.2285 52.3136 57.0039 51.5382 57.0039 50.5846V50.1708C58.7173 49.773 59.9982 48.2355 59.9982 46.4034L60.0646 3.86863C60.0651 1.73543 58.3296 0 56.1964 0ZM33.1171 40.9758V36.7621H55.246V40.9758H33.1171ZM35.5427 35.0037V33.1542H52.82V35.0037H35.5427ZM52.82 42.7337V44.5837H35.5427V42.7337H52.82ZM22.732 50.2721H31.3587V50.585C31.3587 51.5382 32.1341 52.3136 33.0878 52.3136H37.2662V53.4249H22.732V50.2721ZM41.6788 55.1832C42.4798 55.1832 43.1314 55.8349 43.1314 56.6359V58.2421H16.8667V56.6359C16.8667 55.8349 17.5188 55.1832 18.3199 55.1832H41.6788ZM55.246 50.5553H33.1171V46.342H55.246V50.5553ZM58.2403 46.4034C58.2403 47.2549 57.7325 47.9885 57.0044 48.3217V46.3122C57.0044 45.359 56.2285 44.5837 55.2753 44.5837H54.5783V43.0687H58.2403V46.4034ZM58.2403 41.3108H56.9755C56.9934 41.2113 57.0044 36.7328 57.0044 36.7328C57.0044 35.7791 56.2285 35.0037 55.2753 35.0037H54.5783V33.1542H55.2753C56.2285 33.1542 57.0044 32.3784 57.0044 31.4252V27.1528C57.0044 26.1996 56.2285 25.4238 55.2753 25.4238H50.3101C49.8243 25.4238 49.4311 25.8175 49.4311 26.3032C49.4311 26.7885 49.8243 27.1822 50.3101 27.1822H55.246V31.3959H33.1171V27.1822H44.8403C45.326 27.1822 45.7192 26.7885 45.7192 26.3032C45.7192 25.8175 45.326 25.4238 44.8403 25.4238H33.0878C32.1341 25.4238 31.3587 26.1996 31.3587 27.1528V31.4252C31.3587 32.3784 32.1341 33.1542 33.0878 33.1542H33.7848V35.0037H33.0878C32.1341 35.0037 31.3587 35.7796 31.3587 36.7328C31.3587 36.7328 31.3697 41.2113 31.3876 41.3108H1.75834V11.9578H58.2403V41.3108ZM58.2403 10.1995H1.82296V3.86863C1.82296 2.70511 2.76972 1.75834 3.9337 1.75834H56.1295C57.2935 1.75834 58.2403 2.70511 58.2403 3.86909V10.1995Z" fill="#98999A"/>
<path d="M6.48287 3.37402C5.06043 3.37402 3.90332 4.53113 3.90332 5.95357C3.90332 7.37601 5.06043 8.53357 6.48287 8.53357C7.90531 8.53357 9.06287 7.37601 9.06287 5.95357C9.06287 4.53113 7.90531 3.37402 6.48287 3.37402ZM6.48287 6.77523C6.03011 6.77523 5.66121 6.40679 5.66121 5.95357C5.66121 5.50081 6.03011 5.13191 6.48287 5.13191C6.93609 5.13191 7.30453 5.50081 7.30453 5.95357C7.30453 6.40679 6.93609 6.77523 6.48287 6.77523Z" fill="#98999A"/>
<path d="M13.0512 3.37402C11.6288 3.37402 10.4712 4.53113 10.4712 5.95357C10.4712 7.37601 11.6288 8.53357 13.0512 8.53357C14.4736 8.53357 15.6307 7.37601 15.6307 5.95357C15.6307 4.53113 14.4732 3.37402 13.0512 3.37402ZM13.0512 6.77523C12.598 6.77523 12.2295 6.40679 12.2295 5.95357C12.2295 5.50081 12.598 5.13191 13.0512 5.13191C13.504 5.13191 13.8729 5.50081 13.8729 5.95357C13.8729 6.40679 13.504 6.77523 13.0512 6.77523Z" fill="#98999A"/>
<path d="M19.6191 3.37402C18.1967 3.37402 17.0396 4.53113 17.0396 5.95357C17.0396 7.37601 18.1967 8.53357 19.6191 8.53357C21.0415 8.53357 22.1991 7.37601 22.1991 5.95357C22.1991 4.53113 21.0415 3.37402 19.6191 3.37402ZM19.6191 6.77523C19.1663 6.77523 18.7974 6.40679 18.7974 5.95357C18.7974 5.50081 19.1663 5.13191 19.6191 5.13191C20.0723 5.13191 20.4408 5.50081 20.4408 5.95357C20.4408 6.40679 20.0723 6.77523 19.6191 6.77523Z" fill="#98999A"/>
</svg>
