<svg width="569" height="401" viewBox="0 0 569 401" fill="none" xmlns="http://www.w3.org/2000/svg">
<path d="M101.713 134.286C140.653 134.286 172.221 104.539 172.221 67.8445C172.221 31.1498 140.653 1.40283 101.713 1.40283C62.7722 1.40283 31.2046 31.1498 31.2046 67.8445C31.2046 104.539 62.7722 134.286 101.713 134.286Z" stroke="#D3D3D3" stroke-miterlimit="10" stroke-dasharray="12.14 12.14"/>
<path d="M327.203 364.817H240.222V383.617H327.203V364.817Z" fill="#34334B"/>
<path d="M219.188 387.108C234.008 390.599 288.67 396.346 315.859 399.032C321.901 399.623 326.574 400.106 329.196 400.321C330.621 400.482 331.419 400.536 331.419 400.536C331.419 400.536 338.544 400.106 347.208 399.676C355.188 399.247 373.599 399.354 379.983 399.139C382.377 399.085 383.175 396.024 381.123 394.896C377.361 392.855 361.572 386.785 353.82 385.872C349.032 385.335 343.788 381.253 339.627 378.997C336.435 377.225 332.787 380.286 329.88 381.307C328.455 381.79 327.429 384.798 325.834 384.905C325.435 384.959 325.035 384.959 324.637 385.013C322.642 385.12 320.533 385.013 318.538 384.798C317.968 384.744 317.455 384.637 316.885 384.583C310.558 383.67 305.314 381.736 305.314 381.736C285.934 372.283 243.298 346.985 210.125 353.645C209.84 353.699 209.555 353.753 209.327 353.806C209.042 353.86 208.757 353.914 208.529 353.967C175.127 361.97 199.238 382.381 219.188 387.108Z" fill="#FCD2B1"/>
<path d="M219.189 387.108C234.008 390.599 288.671 396.346 315.859 399.032L320.818 372.015C319.849 371.854 318.823 371.8 317.797 371.8C307.31 371.693 296.936 369.652 287.246 365.784C265.244 356.922 234.122 348.006 208.473 354.021C175.128 361.971 199.239 382.381 219.189 387.108Z" fill="#34334B"/>
<path d="M337.918 379.642C337.918 376.956 341.338 375.345 341.338 375.345L367.9 384.583L382.378 391.995L385.228 395.755L381.808 398.172L352.168 394.144L342.478 388.773L337.918 379.642Z" fill="#34334B"/>
<path d="M324.581 385.013L329.197 400.321C330.622 400.482 331.42 400.536 331.42 400.536C331.42 400.536 338.545 400.106 347.209 399.676C355.189 399.247 373.6 399.354 379.984 399.139C382.378 399.086 383.176 396.024 381.124 394.896C377.362 392.855 361.573 386.786 353.821 385.872C349.033 385.335 343.789 381.253 339.628 378.997C336.436 377.225 332.788 380.286 329.881 381.307C328.457 381.79 327.431 384.798 325.835 384.906C325.379 385.013 324.98 385.013 324.581 385.013Z" fill="#34334B"/>
<path d="M344.302 294.401L340.711 269.371C338.887 256.803 328.343 247.457 315.86 247.457H291.692C288.215 247.457 282.515 247.457 279.038 247.457H254.87C242.387 247.457 231.843 256.803 230.019 269.371L226.428 294.401C223.635 314.06 235.32 332.859 254.015 338.606L278.981 346.287C282.458 346.287 285.308 343.386 285.308 339.842C285.308 343.386 288.158 346.287 291.635 346.287L316.601 338.606C335.353 332.859 347.095 314.06 344.302 294.401Z" fill="#34334B"/>
<path d="M311.339 225.313C312.351 222.819 311.383 220.154 309.177 219.36C306.972 218.566 304.364 219.944 303.353 222.438C302.342 224.931 303.31 227.597 305.515 228.391C307.721 229.185 310.328 227.807 311.339 225.313Z" fill="#FCD2B1"/>
<path d="M333.529 361.756L238.511 358.748L232.526 281.027H340.768L333.529 361.756Z" fill="#34334B"/>
<path d="M274.82 239.615L277.955 257.555L278.183 257.984C281.033 263.678 289.697 263.409 292.148 257.555L294.713 239.346L274.82 239.615Z" fill="#FCD2B1"/>
<path d="M307.253 216.626C307.253 239.454 297.563 243.965 285.65 243.965C273.737 243.965 264.047 239.507 264.047 216.626C264.047 204.219 273.737 194.175 285.65 194.175C297.563 194.121 307.253 204.219 307.253 216.626Z" fill="#FCD2B1"/>
<path d="M272.768 210.933C282.458 215.928 293.003 219.473 303.89 221.407C308.165 222.159 318.083 217.378 320.762 214.209C323.669 210.825 312.782 210.986 310.502 207.227C307.253 201.909 304.004 194.927 298.532 191.65C293.06 188.374 284.966 191.543 278.582 192.724C272.882 193.799 271.172 191.972 266.612 195.41C262.851 198.257 260.514 203.843 259.203 208.193C257.892 212.544 259.602 221.783 264.333 222.803C265.472 216.358 268.208 214.693 269.462 211.524L272.768 210.933Z" fill="#34334B"/>
<path d="M266.429 228.396C268.634 227.601 269.602 224.936 268.591 222.442C267.58 219.948 264.973 218.57 262.767 219.364C260.562 220.159 259.594 222.824 260.605 225.318C261.616 227.812 264.223 229.19 266.429 228.396Z" fill="#FCD2B1"/>
<path d="M280.235 230.86H269.405C267.638 230.86 266.213 229.517 266.213 227.852V224.791C266.213 223.126 267.638 221.783 269.405 221.783H280.235C282.002 221.783 283.427 223.126 283.427 224.791V227.852C283.427 229.517 282.002 230.86 280.235 230.86Z" stroke="#34334B" stroke-width="2" stroke-miterlimit="10"/>
<path d="M301.895 230.86H291.065C289.298 230.86 287.873 229.517 287.873 227.852V224.79C287.873 223.125 289.298 221.782 291.065 221.782H301.895C303.662 221.782 305.087 223.125 305.087 224.79V227.852C305.087 229.517 303.662 230.86 301.895 230.86Z" stroke="#34334B" stroke-width="2" stroke-miterlimit="10"/>
<path d="M283.427 226.294C285.023 225.488 286.163 224.951 287.873 226.294" stroke="#34334B" stroke-width="2" stroke-miterlimit="10"/>
<path d="M330.68 371.478H239.082C236.289 371.478 233.952 369.329 233.952 366.644L231.387 308.259C231.387 305.627 233.667 303.425 236.517 303.425H333.245C336.038 303.425 338.374 305.573 338.374 308.259L335.81 366.644C335.753 369.329 333.473 371.478 330.68 371.478Z" fill="#D3D3D3"/>
<path d="M284.681 346.609C290.033 346.609 294.371 342.521 294.371 337.478C294.371 332.435 290.033 328.347 284.681 328.347C279.33 328.347 274.991 332.435 274.991 337.478C274.991 342.521 279.33 346.609 284.681 346.609Z" fill="white"/>
<path d="M357.982 387.108C343.162 390.599 288.5 396.346 261.311 399.032C255.269 399.623 250.595 400.106 247.973 400.321C246.548 400.482 245.75 400.536 245.75 400.536C245.75 400.536 238.625 400.106 229.962 399.676C221.982 399.247 203.571 399.354 197.187 399.139C194.793 399.085 193.995 396.024 196.047 394.896C199.809 392.855 215.598 386.785 223.35 385.872C228.138 385.335 233.382 381.253 237.542 378.997C240.734 377.225 244.382 380.286 247.289 381.307C248.714 381.79 249.74 384.798 251.336 384.905C251.735 384.959 252.134 384.959 252.533 385.013C254.528 385.12 256.637 385.013 258.632 384.798C259.202 384.744 259.715 384.637 260.285 384.583C266.612 383.67 271.856 381.736 271.856 381.736C291.236 372.283 333.871 346.985 367.045 353.645C367.33 353.699 367.615 353.753 367.843 353.806C368.128 353.86 368.413 353.914 368.641 353.967C402.043 361.97 377.932 382.381 357.982 387.108Z" fill="#FCD2B1"/>
<path d="M357.982 387.108C343.163 390.599 288.5 396.346 261.311 399.032L256.353 372.015C257.322 371.854 258.348 371.8 259.373 371.8C269.861 371.693 280.235 369.652 289.925 365.784C311.927 356.922 343.049 348.006 368.698 354.021C402.043 361.971 377.932 382.381 357.982 387.108Z" fill="#34334B"/>
<path d="M239.252 379.642C239.252 376.956 235.832 375.345 235.832 375.345L209.27 384.583L194.792 391.995L191.942 395.755L195.362 398.172L225.002 394.144L234.692 388.773L239.252 379.642Z" fill="#34334B"/>
<path d="M252.59 385.013L247.973 400.321C246.548 400.482 245.75 400.536 245.75 400.536C245.75 400.536 238.625 400.106 229.962 399.676C221.982 399.247 203.571 399.354 197.187 399.139C194.793 399.086 193.995 396.024 196.047 394.896C199.809 392.855 215.598 386.786 223.35 385.872C228.138 385.335 233.382 381.253 237.542 378.997C240.734 377.225 244.382 380.286 247.289 381.307C248.714 381.79 249.74 384.798 251.336 384.906C251.849 385.013 252.248 385.013 252.59 385.013Z" fill="#34334B"/>
<path d="M507.719 29.4402H394.861C381.409 29.4402 370.351 40.9345 370.351 54.9533C370.351 67.7905 379.528 78.4791 391.384 80.1979L391.726 91.4237L403.524 80.4665H507.719C521.171 80.4665 532.229 68.9721 532.229 54.9533C532.229 40.9345 521.228 29.4402 507.719 29.4402Z" fill="#FF8C4A"/>
<path d="M99.3189 311.965C124.66 311.965 145.203 292.607 145.203 268.727C145.203 244.847 124.66 225.489 99.3189 225.489C73.9776 225.489 53.4344 244.847 53.4344 268.727C53.4344 292.607 73.9776 311.965 99.3189 311.965Z" fill="#FF8C4A"/>
<path d="M529.208 342.097C524.534 321.418 509.999 302.941 490.448 292.628C500.936 311.266 513.419 328.83 527.783 345.051L529.208 342.097Z" fill="#4E4C82"/>
<path d="M534.452 349.832C515.813 325.286 506.465 294.563 508.46 264.43C520.544 292.253 529.664 321.204 535.649 350.691L534.452 349.832Z" fill="#4F4D76"/>
<path d="M529.094 350.691C528.524 335.598 527.954 320.344 530.462 305.412C532.97 290.48 538.783 275.709 549.556 264.483C551.209 295.421 543.229 326.736 526.985 353.645L529.094 350.691Z" fill="#4E4C82"/>
<path d="M529.892 352.034C519.404 323.459 521.114 291.125 534.566 263.678C543.002 292.36 535.535 322.761 528.068 351.658L529.892 352.034Z" fill="#7B79AC"/>
<path d="M531.26 341.453C534.167 316.369 551.894 293.327 576.289 282.96C566.428 307.936 549.5 330.442 527.783 347.576L531.26 341.453Z" fill="#4F4D76"/>
<path d="M556.397 337.048L553.376 385.711C553.376 388.075 551.324 389.955 548.873 389.955H513.077C510.569 389.955 508.574 388.021 508.574 385.711L507.89 374.7L505.553 337.048C505.553 334.685 507.605 332.805 510.056 332.805H551.894C553.547 332.805 554.972 333.611 555.77 334.846C556.112 335.491 556.397 336.243 556.397 337.048Z" fill="#34334B"/>
<path d="M556.396 337.048L553.375 385.711C553.375 388.075 551.323 389.955 548.872 389.955H513.077C510.569 389.955 508.574 388.021 508.574 385.711L507.89 374.7C524.591 370.189 541.805 350.745 555.769 334.846C556.111 335.491 556.396 336.243 556.396 337.048Z" fill="#34334B"/>
<path d="M25.6185 358.64C22.5405 345.105 13.0786 333.02 0.253784 326.252C7.09371 338.445 15.3016 349.939 24.7065 360.574L25.6185 358.64Z" fill="#4E4C82"/>
<path d="M29.0387 363.689C16.8409 347.629 10.7419 327.541 12.0529 307.829C19.9758 326.037 25.9608 344.997 29.8367 364.334L29.0387 363.689Z" fill="#4F4D76"/>
<path d="M25.5617 364.28C25.1627 354.397 24.8207 344.406 26.4737 334.631C28.1267 324.855 31.9456 315.187 39.0136 307.829C40.0966 328.078 34.9096 348.596 24.1937 366.213L25.5617 364.28Z" fill="#4E4C82"/>
<path d="M26.0745 365.139C19.1776 346.448 20.3176 325.231 29.1525 307.292C34.6814 326.037 29.7795 345.964 24.8775 364.871L26.0745 365.139Z" fill="#7B79AC"/>
<path d="M26.9865 358.21C28.8675 341.828 40.4954 326.681 56.4552 319.914C49.9573 336.296 38.8994 351.013 24.7065 362.239L26.9865 358.21Z" fill="#4F4D76"/>
<path d="M43.4026 355.31L41.4076 387.161C41.4076 388.719 40.0966 389.954 38.4437 389.954H15.0169C13.364 389.954 12.053 388.719 12.053 387.161L11.597 379.964L10.115 355.31C10.115 353.752 11.426 352.517 13.079 352.517H40.4956C41.5786 352.517 42.4906 353.054 43.0036 353.86C43.2886 354.29 43.4026 354.827 43.4026 355.31Z" fill="#34334B"/>
<path d="M43.4026 355.31L41.4076 387.161C41.4076 388.719 40.0966 389.954 38.4436 389.954H15.0169C13.3639 389.954 12.0529 388.719 12.0529 387.161L11.5969 379.964C22.5408 377.01 33.8267 364.28 42.9466 353.86C43.2886 354.29 43.4026 354.827 43.4026 355.31Z" fill="#34334B"/>
<path d="M87.9176 267.656C87.4318 263.625 84.3807 261.307 80.3409 261.307C75.7301 261.307 72.2102 264.562 72.2102 270.273C72.2102 275.966 75.6705 279.239 80.3409 279.239C84.8153 279.239 87.517 276.264 87.9176 273.051L84.1847 273.034C83.8352 274.901 82.3693 275.974 80.4006 275.974C77.75 275.974 75.9517 274.006 75.9517 270.273C75.9517 266.642 77.7244 264.571 80.4261 264.571C82.446 264.571 83.9034 265.739 84.1847 267.656H87.9176ZM90.5639 261.545V279H94.1435V267.597H94.2884L98.8054 278.915H101.243L105.76 267.639H105.905V279H109.484V261.545H104.933L100.126 273.273H99.9219L95.1151 261.545H90.5639ZM121.994 266.565H125.531C125.479 263.455 122.923 261.307 119.036 261.307C115.21 261.307 112.406 263.42 112.423 266.591C112.414 269.165 114.229 270.639 117.178 271.347L119.079 271.824C120.979 272.284 122.036 272.83 122.045 274.006C122.036 275.284 120.826 276.153 118.951 276.153C117.033 276.153 115.653 275.267 115.533 273.52H111.962C112.056 277.295 114.758 279.247 118.994 279.247C123.255 279.247 125.761 277.21 125.769 274.014C125.761 271.108 123.57 269.565 120.536 268.884L118.968 268.509C117.451 268.159 116.181 267.597 116.207 266.344C116.207 265.219 117.204 264.392 119.011 264.392C120.775 264.392 121.857 265.193 121.994 266.565Z" fill="white"/>
<path d="M414.918 51.6562C414.432 47.625 411.381 45.3068 407.341 45.3068C402.73 45.3068 399.21 48.5625 399.21 54.2727C399.21 59.9659 402.67 63.2386 407.341 63.2386C411.815 63.2386 414.517 60.2642 414.918 57.0511L411.185 57.0341C410.835 58.9006 409.369 59.9744 407.401 59.9744C404.75 59.9744 402.952 58.0057 402.952 54.2727C402.952 50.642 404.724 48.571 407.426 48.571C409.446 48.571 410.903 49.7386 411.185 51.6562H414.918ZM416.899 48.5881H422.243V63H425.891V48.5881H431.234V45.5455H416.899V48.5881ZM433.595 63H437.286V56.8125H439.979L443.286 63H447.359L443.652 56.2159C445.638 55.3636 446.737 53.6335 446.737 51.2472C446.737 47.7784 444.445 45.5455 440.482 45.5455H433.595V63ZM437.286 53.8466V48.5625H439.774C441.905 48.5625 442.936 49.5085 442.936 51.2472C442.936 52.9773 441.905 53.8466 439.791 53.8466H437.286ZM449.345 63H460.518V59.9574H453.036V45.5455H449.345V63ZM473.631 60.3409H476.682V55.8324H481.19V52.7812H476.682V48.2727H473.631V52.7812H469.122V55.8324H473.631V60.3409ZM505.785 51.6562C505.299 47.625 502.248 45.3068 498.208 45.3068C493.597 45.3068 490.077 48.5625 490.077 54.2727C490.077 59.9659 493.538 63.2386 498.208 63.2386C502.683 63.2386 505.384 60.2642 505.785 57.0511L502.052 57.0341C501.702 58.9006 500.237 59.9744 498.268 59.9744C495.617 59.9744 493.819 58.0057 493.819 54.2727C493.819 50.642 495.592 48.571 498.293 48.571C500.313 48.571 501.771 49.7386 502.052 51.6562H505.785Z" fill="white"/>
</svg>
