<svg width="438" height="352" viewBox="0 0 438 352" fill="none" xmlns="http://www.w3.org/2000/svg">
<path d="M389.598 162.729V4.29263H71.5383V162.729H389.598Z" fill="white" stroke="#D3D3D3"/>
<path d="M135.975 91H141.07L145.767 74.8331H145.96L150.669 91H155.764L162.839 66.2727H157.128L153.035 83.4901H152.818L148.314 66.2727H143.425L138.909 83.4538H138.704L134.611 66.2727H128.9L135.975 91ZM186.966 78.6364C186.966 70.5469 181.943 65.9347 175.387 65.9347C168.795 65.9347 163.808 70.5469 163.808 78.6364C163.808 86.6896 168.795 91.3381 175.387 91.3381C181.943 91.3381 186.966 86.7259 186.966 78.6364ZM181.665 78.6364C181.665 83.8764 179.178 86.7138 175.387 86.7138C171.584 86.7138 169.109 83.8764 169.109 78.6364C169.109 73.3963 171.584 70.5589 175.387 70.5589C179.178 70.5589 181.665 73.3963 181.665 78.6364ZM190.839 91H196.067V82.2344H199.882L204.567 91H210.338L205.086 81.3892C207.899 80.1818 209.457 77.7308 209.457 74.3501C209.457 69.4361 206.209 66.2727 200.594 66.2727H190.839V91ZM196.067 78.0327V70.5469H199.592C202.611 70.5469 204.072 71.8871 204.072 74.3501C204.072 76.8011 202.611 78.0327 199.616 78.0327H196.067ZM213.151 91H218.379V83.973L220.951 80.8338L227.724 91H233.979L224.694 77.3445L233.87 66.2727H227.604L218.705 77.1754H218.379V66.2727H213.151V91ZM249.807 73.3842H254.818C254.746 68.9773 251.123 65.9347 245.618 65.9347C240.197 65.9347 236.224 68.929 236.248 73.4205C236.236 77.0668 238.808 79.1555 242.986 80.1577L245.678 80.8338C248.371 81.4858 249.868 82.2585 249.88 83.9247C249.868 85.7358 248.153 86.9673 245.497 86.9673C242.78 86.9673 240.824 85.7116 240.655 83.2365H235.596C235.729 88.5852 239.557 91.3501 245.557 91.3501C251.594 91.3501 255.144 88.4645 255.156 83.9368C255.144 79.8196 252.041 77.6342 247.743 76.6683L245.521 76.1371C243.372 75.642 241.573 74.8452 241.609 73.0703C241.609 71.4766 243.022 70.3054 245.582 70.3054C248.081 70.3054 249.614 71.4403 249.807 73.3842ZM258.673 91H263.901V80.7855H274.514V91H279.729V66.2727H274.514V76.4751H263.901V66.2727H258.673V91ZM306.763 78.6364C306.763 70.5469 301.74 65.9347 295.184 65.9347C288.592 65.9347 283.605 70.5469 283.605 78.6364C283.605 86.6896 288.592 91.3381 295.184 91.3381C301.74 91.3381 306.763 86.7259 306.763 78.6364ZM301.462 78.6364C301.462 83.8764 298.975 86.7138 295.184 86.7138C291.381 86.7138 288.906 83.8764 288.906 78.6364C288.906 73.3963 291.381 70.5589 295.184 70.5589C298.975 70.5589 301.462 73.3963 301.462 78.6364ZM310.635 91H315.863V82.983H320.258C325.945 82.983 329.253 79.5902 329.253 74.652C329.253 69.7379 326.006 66.2727 320.391 66.2727H310.635V91ZM315.863 78.7933V70.5469H319.389C322.408 70.5469 323.868 72.1889 323.868 74.652C323.868 77.103 322.408 78.7933 319.413 78.7933H315.863Z" fill="#98999A"/>
<path d="M356.456 327.352L354.676 335.352L342.225 334.462L343.115 325.574L356.456 327.352Z" fill="#FCD2B1"/>
<path d="M387.583 327.352L389.362 335.352L401.813 334.462L400.923 325.574L387.583 327.352Z" fill="#FCD2B1"/>
<path d="M391.141 67.8092C381.808 67.8092 374.243 60.2482 374.243 50.9212C374.243 41.5942 381.808 34.0331 391.141 34.0331C400.473 34.0331 408.039 41.5942 408.039 50.9212C408.039 60.2482 400.473 67.8092 391.141 67.8092Z" fill="#FCD2B1"/>
<path d="M401.814 55.3652L406.26 75.809L384.026 82.9196L384.916 57.1434L401.814 55.3652Z" fill="#FCD2B1"/>
<path d="M393.809 78.4754L404.999 70.0086C404.999 70.0086 407.15 66.9204 408.039 69.5869C408.928 72.2535 416.933 82.0308 416.933 82.0308L410.707 154.916L363.571 155.805C363.571 155.805 381.989 70.8405 384.342 73.7691C386.694 76.6977 392.92 76.6977 393.809 78.4754Z" fill="#FF8C4A"/>
<path d="M384.47 68.2536C384.47 68.2536 388.028 71.809 386.249 74.4755C384.47 77.1421 385.804 82.0867 384.026 82.5032C382.247 82.9196 385.804 113.14 380.468 121.14C375.132 129.14 377.8 149.583 377.8 153.138C377.8 156.694 372.464 178.026 372.464 178.026C372.464 178.026 354.677 179.804 354.677 175.36C354.677 170.915 360.902 139.806 360.902 139.806L355.566 84.6973C355.566 84.6973 355.566 79.3642 361.791 77.5865C368.017 75.8088 380.468 71.3646 380.468 71.3646L384.47 68.2536Z" fill="#34334B"/>
<path d="M359.124 132.695H363.57C363.57 132.695 386.694 134.473 384.915 124.695C383.136 114.918 365.349 122.029 365.349 122.029L360.013 124.695L359.124 132.695Z" fill="#FCD2B1"/>
<path d="M404.292 66.7589C404.292 66.7589 411.596 71.3646 412.486 73.1423C413.375 74.92 433.831 84.6973 433.831 91.8081C433.831 98.9188 427.605 106.918 427.605 106.918L419.601 185.137C419.601 185.137 406.26 189.581 405.371 186.026C404.481 182.47 400.924 104.252 402.703 100.697C404.481 97.1411 404.481 74.0311 404.481 74.0311L404.292 66.7589Z" fill="#34334B"/>
<path d="M427.605 195.803L428.494 201.136C428.494 201.136 427.605 218.913 420.49 218.024C413.375 217.135 417.822 199.358 417.822 199.358L418.711 195.803H427.605Z" fill="#FCD2B1"/>
<path d="M416.933 150.472C416.933 150.472 416.043 230.468 411.596 256.244C407.15 282.021 405.371 326.463 405.371 326.463C405.371 326.463 393.809 328.241 392.03 329.13C390.252 330.019 385.805 327.352 385.805 327.352L384.915 195.803L368.017 255.356C368.017 255.356 365.349 327.352 360.013 329.13C354.677 330.907 338.668 327.352 338.668 327.352C338.668 327.352 344.894 258.911 346.673 256.244C348.451 253.578 352.898 175.36 360.013 161.138L362.681 151.361C362.681 151.361 413.375 153.138 416.933 150.472Z" fill="#34334B"/>
<path d="M353.787 331.796C353.787 331.796 358.234 328.241 358.234 330.908C358.234 333.574 362.681 350.018 357.345 350.018C352.009 350.018 316.434 353.129 317.323 346.018C318.213 338.907 339.614 327.553 339.614 327.553C339.614 327.553 347.562 330.019 348.451 330.908C349.34 331.796 353.787 331.796 353.787 331.796Z" fill="#34334B"/>
<path d="M390.251 331.796C390.251 331.796 385.804 328.241 385.804 330.908C385.804 333.574 381.357 350.018 386.694 350.018C392.03 350.018 427.604 353.129 426.715 346.018C425.826 338.907 404.425 327.553 404.425 327.553C404.425 327.553 396.477 330.019 395.587 330.908C394.698 331.796 390.251 331.796 390.251 331.796Z" fill="#34334B"/>
<path d="M361.792 83.8084L355.566 84.6973L343.115 120.251C343.115 120.251 339.558 138.028 344.894 140.695C350.23 143.361 360.302 142.84 360.302 142.84L361.792 122.918L357.345 123.806L361.792 114.918V83.8084Z" fill="#34334B"/>
<path d="M429.383 88.2526L433.83 91.808C433.83 91.808 438.277 137.139 437.388 141.583C436.498 146.028 431.162 200.247 431.162 200.247L416.043 196.692L426.715 89.1415L429.383 88.2526Z" fill="#34334B"/>
<path d="M409.835 38.6464C409.835 38.6464 414.755 32.4089 409.835 29.2902V30.8496C409.835 30.8496 399.293 19.1543 392.967 22.2731L387.345 20.7137V22.2731L383.831 20.7137L384.533 23.0528H379.614L381.722 24.6121C381.722 24.6121 365.557 23.8325 375.397 35.5277C375.397 35.5277 370.72 42.5396 375.167 46.4406C375.167 46.4406 378.911 37.8667 383.831 40.2057C385.163 40.8972 386.667 41.1914 388.162 41.0531C389.657 40.9149 391.081 40.3501 392.264 39.4261C392.264 39.4261 402.104 38.6464 400.698 43.3245C399.293 48.0025 399.996 49.5619 399.996 49.5619C399.996 49.5619 403.51 51.901 402.807 53.4603C402.104 55.0197 402.104 59.6978 402.104 59.6978C402.104 59.6978 405.618 54.24 407.024 55.0197C408.429 55.7994 416.161 48.0026 409.835 38.6464Z" fill="#34334B"/>
<path d="M72.4409 94.4713L35.0451 95.3996L30.0117 50.8352H72.4409V94.4713Z" fill="#34334B"/>
<path d="M32.856 152.242L19.2059 246.828C19.2059 246.828 7.37573 280.479 6.46573 296.849L2.82568 320.496L19.2059 324.134L36.4961 257.742L60.1563 197.716L57.4263 266.837L51.9663 323.224L68.3465 325.953L78.3566 254.104L89.2767 201.354C89.2767 201.354 97.4668 155.88 84.7266 151.333L32.856 152.242Z" fill="#34334B"/>
<path d="M18.1106 314.691L16.2893 336.828C16.2893 336.828 35.7822 348.09 29.5277 350.274C23.2732 352.457 14.7126 349.648 12.9616 349.152C11.1125 348.628 7.66032 347.792 5.04811 347.174C3.83906 346.897 2.75052 346.241 1.94206 345.3C1.1336 344.36 0.647754 343.186 0.55578 341.95L0.550826 341.868C0.393331 339.145 6.54247 315.474 6.54247 315.474L18.1106 314.691Z" fill="#34334B"/>
<path d="M65.4468 315.245L66.9815 336.412C66.9815 336.412 89.1786 344.654 83.4568 347.991C77.7349 351.329 68.7951 350.207 66.9815 350.054C63.6377 349.772 55.316 349.492 55.316 349.492C55.316 349.492 53.7777 350.823 53.1023 348.179C52.4269 345.536 54.0032 321.92 54.0032 321.92L65.4468 315.245Z" fill="#34334B"/>
<path d="M51.966 75.846C61.5151 75.846 69.2562 68.1094 69.2562 58.5659C69.2562 49.0224 61.5151 41.2858 51.966 41.2858C42.4169 41.2858 34.6758 49.0224 34.6758 58.5659C34.6758 68.1094 42.4169 75.846 51.966 75.846Z" fill="#FCD2B1"/>
<path d="M41.9566 68.5701L38.3164 88.5788L53.7865 95.8549L57.4266 70.3895L41.9566 68.5701Z" fill="#FCD2B1"/>
<path d="M40.1362 163.156L59.2465 176.798C59.2465 176.798 67.4366 197.716 73.8067 194.078C80.1767 190.44 66.5266 172.251 66.5266 172.251L51.0564 156.79L40.1362 163.156Z" fill="#FCD2B1"/>
<path d="M94.7368 156.79L96.5568 167.703C96.5568 167.703 92.0068 190.44 86.5467 185.893C81.0866 181.346 88.3667 166.794 88.3667 166.794L87.4567 157.699L94.7368 156.79Z" fill="#FCD2B1"/>
<path d="M51.9662 90.3977L50.1462 83.1218L39.226 77.665L35.586 82.2123L23.7559 85.8503L37.406 158.609C37.406 158.609 83.8166 161.337 84.7266 154.061C85.6366 146.785 75.6265 126.777 75.6265 126.777C75.6265 126.777 78.3565 116.773 77.4465 111.316L73.8065 89.4882L59.2463 84.9408L55.9209 80.9201L52.8762 85.8502L51.9662 90.3977Z" fill="#FF8C4A"/>
<path d="M26.4859 87.6692L23.7559 85.8503C23.7559 85.8503 18.2958 86.7597 16.4758 94.0356C14.6557 101.311 16.4758 134.053 21.0258 140.419C25.5759 146.785 38.3161 165.884 38.3161 165.884L55.6063 157.699L37.406 136.781L32.856 110.406L26.4859 87.6692Z" fill="#FF8C4A"/>
<path d="M66.5264 91.3071L73.8065 89.4882C73.8065 89.4882 78.3565 91.3071 80.1766 97.6735C81.9966 104.04 92.0067 135.872 91.0967 138.6C90.1867 141.328 99.2868 159.518 99.2868 159.518L86.5466 160.428L79.2665 141.328L71.9865 122.229L66.5264 91.3071Z" fill="#FF8C4A"/>
<path d="M21.9991 74.976C25.6454 72.9749 27.3424 68.4832 27.4633 64.3274C27.5844 60.1716 26.5759 56.0587 26.4966 51.9019C26.4558 51.0515 26.5283 50.1994 26.7123 49.3681C27.0147 48.3362 27.4859 47.3615 28.1068 46.4833C32.8486 39.2219 41.0911 34.1139 49.7732 34.0335C51.0275 34.0171 52.2729 34.2459 53.4394 34.7071C54.337 35.0664 54.6305 35.0224 54.8025 36.1239C56.8592 35.4458 59.0896 35.5167 61.0989 36.324C63.0892 37.1327 64.9456 38.2376 66.6052 39.6013C67.5915 40.3343 68.522 41.1395 69.3891 42.0103C73.9773 46.7607 75.0338 54.0821 73.7046 60.5496C73.2725 62.6523 75.346 64.6822 77.0616 65.9737C78.7771 67.2651 80.7582 68.4511 81.6007 70.4256C82.4111 72.325 81.966 74.4973 82.1292 76.5558C82.3123 78.5016 83.036 80.3575 84.2186 81.9141C85.4012 83.4706 86.9956 84.6658 88.8218 85.3648C88.4492 85.8106 87.9631 86.1476 87.4149 86.3403C86.8666 86.533 86.2765 86.5743 85.7067 86.4597C84.5175 86.2093 83.4049 85.6799 82.4607 84.9152C78.9097 82.2855 76.3689 78.5177 75.2626 74.2413C74.7587 76.5318 74.9541 78.8944 74.9727 81.2395C74.9286 83.8567 75.4109 86.4561 76.3909 88.8835C77.3879 91.3224 79.2138 93.3318 81.5472 94.5577C79.2967 95.6591 76.8166 94.8608 74.9095 93.2362C73.0818 91.5021 71.7613 89.3032 71.0898 86.8755C69.8102 83.0007 69.2913 78.9153 69.5613 74.8438C67.4679 78.366 66.7029 82.5199 67.4042 86.5562C68.1367 90.6714 70.2865 94.4009 73.4813 97.0984C67.911 97.0512 62.4329 95.6724 57.5047 93.0772C56.2321 92.5008 55.1105 91.6375 54.2278 90.555C52.642 88.3564 53.0172 85.3577 53.4619 82.684C53.8138 80.5699 51.1704 77.5137 52.6842 75.9957C53.1339 75.5515 53.7348 75.2934 54.3667 75.2729C56.643 75.1027 58.8497 74.4118 60.8162 73.2534C62.7828 72.0951 64.4566 70.5004 65.7082 68.5926C67.4539 65.9694 68.4454 62.9175 68.5747 59.7698C68.5735 57.4585 68.073 55.1747 67.1073 53.0745C66.1417 50.9743 64.7337 49.1073 62.9796 47.601C61.2255 46.0947 59.1666 44.9847 56.9438 44.3469C54.7209 43.709 52.3865 43.5584 50.1 43.9052C47.8136 44.2521 45.629 45.0882 43.6956 46.3565C41.7622 47.6249 40.1257 49.2954 38.8978 51.2541C37.6699 53.2127 36.8797 55.4132 36.5811 57.7051C36.2825 59.9971 36.4826 62.3265 37.1677 64.534C37.7137 66.3105 38.105 68.1309 38.337 69.9748C38.6112 72.1144 39.047 74.2302 39.6408 76.304C40.7861 80.2897 42.7263 84.3564 46.3165 86.4353C45.0612 86.9726 43.7124 87.2581 42.3469 87.2754C37.842 87.7715 33.1042 87.662 29.0268 85.6846C24.9492 83.7072 21.7085 79.4962 21.9991 74.976Z" fill="#34334B"/>
<path d="M31.8291 57.3348C44.7668 52.1524 57.5214 51.0469 69.9436 57.3348V46.889C69.9436 45.0846 69.2263 43.3541 67.9497 42.0782C66.673 40.8023 64.9416 40.0855 63.1361 40.0855H37.2071C36.5008 40.0855 35.8015 40.2245 35.149 40.4946C34.4965 40.7647 33.9036 41.1607 33.4043 41.6597C32.9049 42.1588 32.5087 42.7514 32.2385 43.4035C31.9682 44.0556 31.8291 44.7545 31.8291 45.4603V57.3348Z" fill="#34334B"/>
<path d="M35.8551 63.8032C36.9083 63.8032 37.762 62.4381 37.762 60.754C37.762 59.07 36.9083 57.7048 35.8551 57.7048C34.802 57.7048 33.9482 59.07 33.9482 60.754C33.9482 62.4381 34.802 63.8032 35.8551 63.8032Z" fill="#FCD2B1"/>
</svg>
