<svg width="493" height="453" viewBox="0 0 493 453" fill="none" xmlns="http://www.w3.org/2000/svg">
<path d="M71.7124 134.286C110.653 134.286 142.221 104.539 142.221 67.8445C142.221 31.1498 110.653 1.40283 71.7124 1.40283C32.7718 1.40283 1.20422 31.1498 1.20422 67.8445C1.20422 104.539 32.7718 134.286 71.7124 134.286Z" stroke="#D3D3D3" stroke-miterlimit="10" stroke-dasharray="12.14 12.14"/>
<path d="M27.0484 62.8182H24.9056V69.2216H24.8161L20.4212 62.8182H18.532V73H20.6847V66.5916H20.7593L25.189 73H27.0484V62.8182ZM30.9797 62.8182H28.827V73H30.9797V62.8182ZM32.6414 73H40.4369V71.2251H35.341L40.4269 64.0959V62.8182H32.6315V64.593H37.7224L32.6414 71.7223V73ZM35.5548 59.6463H33.7501V59.7159L35.7636 61.9034H37.3396L39.358 59.7159V59.6463H37.5533L36.5541 60.8594L35.5548 59.6463ZM47.6121 65.7464H49.6753C49.6455 63.9318 48.154 62.679 45.887 62.679C43.6547 62.679 42.0191 63.9119 42.029 65.7614C42.024 67.2628 43.083 68.1229 44.8032 68.5355L45.9118 68.8139C47.0205 69.0824 47.637 69.4006 47.6419 70.0866C47.637 70.8324 46.931 71.3395 45.8373 71.3395C44.7187 71.3395 43.9133 70.8224 43.8437 69.8033H41.7606C41.8152 72.0057 43.3912 73.1442 45.8621 73.1442C48.3479 73.1442 49.8096 71.956 49.8145 70.0916C49.8096 68.3963 48.5319 67.4964 46.762 67.0987L45.8472 66.88C44.9623 66.6761 44.2215 66.348 44.2364 65.6172C44.2364 64.9609 44.8181 64.4787 45.8721 64.4787C46.9012 64.4787 47.5326 64.946 47.6121 65.7464ZM44.7932 59.6463H42.9885V59.7159L45.002 61.9034H46.578L48.5965 59.7159V59.6463H46.7918L45.7925 60.8594L44.7932 59.6463ZM53.4152 62.8182H51.2625V73H53.4152V62.8182ZM51.5857 61.8338H53.0821L54.5984 59.5717H52.6396L51.5857 61.8338ZM66.9429 62.8182H64.8001V69.2216H64.7107L60.3158 62.8182H58.4266V73H60.5793V66.5916H60.6538L65.0835 73H66.9429V62.8182ZM70.4765 73L71.2321 70.6783H74.9062L75.6618 73H77.9687L74.4587 62.8182H71.6846L68.1696 73H70.4765ZM71.779 68.9979L73.0319 65.1449H73.1114L74.3642 68.9979H71.779ZM72.311 61.8338H73.8074L75.3238 59.5717H73.365L72.311 61.8338ZM79.1941 73H81.3468V70.1065L82.4058 68.8139L85.1949 73H87.7701L83.947 67.3771L87.7254 62.8182H85.1451L81.4811 67.3075H81.3468V62.8182H79.1941V73ZM88.8465 73H95.3642V71.2251H90.9992V62.8182H88.8465V73ZM98.8046 73L99.5603 70.6783H103.234L103.99 73H106.297L102.787 62.8182H100.013L96.4978 73H98.8046ZM100.107 68.9979L101.36 65.1449H101.44L102.692 68.9979H100.107ZM111.132 73C114.234 73 116.113 71.081 116.113 67.8991C116.113 64.7273 114.234 62.8182 111.161 62.8182H107.522V73H111.132ZM109.675 71.1555V64.6626H111.047C112.956 64.6626 113.965 65.6371 113.965 67.8991C113.965 70.1712 112.956 71.1555 111.042 71.1555H109.675ZM116.496 62.8182L120.21 69.4006V73H122.348V69.4006L126.061 62.8182H123.65L121.328 67.2031H121.229L118.907 62.8182H116.496Z" fill="#98999A"/>
<path d="M72.5082 419.286C111.449 419.286 143.016 389.539 143.016 352.844C143.016 316.15 111.449 286.403 72.5082 286.403C33.5676 286.403 2 316.15 2 352.844C2 389.539 33.5676 419.286 72.5082 419.286Z" stroke="#D3D3D3" stroke-miterlimit="10" stroke-dasharray="12.14 12.14"/>
<path d="M41.8454 347.818V354.246C41.8454 355.41 41.0301 356.25 39.7772 356.25C38.5293 356.25 37.709 355.41 37.709 354.246V347.818H35.5563V354.43C35.5563 356.658 37.2367 358.144 39.7772 358.144C42.3078 358.144 43.9981 356.658 43.9981 354.43V347.818H41.8454ZM45.6598 358H53.4553V356.225H48.3594L53.4454 349.096V347.818H45.6499V349.593H50.7408L45.6598 356.722V358ZM48.5732 344.646H46.7685V344.716L48.782 346.903H50.358L52.3765 344.716V344.646H50.5718L49.5725 345.859L48.5732 344.646ZM57.2598 347.818H55.1071V358H57.2598V347.818ZM60.8704 347.818H58.4791L61.994 358H64.7682L68.2781 347.818H65.8917L63.4258 355.554H63.3314L60.8704 347.818ZM69.9051 358L70.6607 355.678H74.3347L75.0904 358H77.3972L73.8873 347.818H71.1131L67.5982 358H69.9051ZM71.2076 353.998L72.4604 350.145H72.54L73.7928 353.998H71.2076ZM76.9771 349.593H80.0943V358H82.2222V349.593H85.3394V347.818H76.9771V349.593ZM86.7165 358H93.5972V356.225H88.8692V353.794H93.2243V352.019H88.8692V349.593H93.5773V347.818H86.7165V358ZM95.2888 358H101.807V356.225H97.4415V347.818H95.2888V358ZM103.232 358H110.113V356.225H105.385V353.794H109.74V352.019H105.385V349.593H110.093V347.818H103.232V358ZM105.917 346.834H107.413L108.93 344.572H106.971L105.917 346.834Z" fill="#98999A"/>
<path d="M467.719 29.4402H354.86C341.408 29.4402 330.351 40.9345 330.351 54.9533C330.351 67.7905 339.527 78.4791 351.383 80.1979L351.725 91.4237L363.524 80.4665H467.719C481.171 80.4665 492.229 68.9721 492.229 54.9533C492.229 40.9345 481.228 29.4402 467.719 29.4402Z" fill="#4E4C82" fill-opacity="0.5"/>
<path d="M364.231 60H366.384V56.6989H368.193C370.535 56.6989 371.897 55.3018 371.897 53.2685C371.897 51.245 370.56 49.8182 368.248 49.8182H364.231V60ZM366.384 54.9737V51.5781H367.836C369.078 51.5781 369.68 52.2543 369.68 53.2685C369.68 54.2777 369.078 54.9737 367.845 54.9737H366.384ZM382.652 54.9091C382.652 51.5781 380.584 49.679 377.884 49.679C375.17 49.679 373.117 51.5781 373.117 54.9091C373.117 58.2251 375.17 60.1392 377.884 60.1392C380.584 60.1392 382.652 58.2401 382.652 54.9091ZM380.47 54.9091C380.47 57.0668 379.445 58.2351 377.884 58.2351C376.318 58.2351 375.299 57.0668 375.299 54.9091C375.299 52.7514 376.318 51.5831 377.884 51.5831C379.445 51.5831 380.47 52.7514 380.47 54.9091ZM384.247 60H386.399V56.3906H387.97L389.899 60H392.276L390.113 56.0426C391.272 55.5455 391.913 54.5362 391.913 53.1442C391.913 51.1207 390.576 49.8182 388.264 49.8182H384.247V60ZM386.399 54.6605V51.5781H387.851C389.094 51.5781 389.696 52.13 389.696 53.1442C389.696 54.1534 389.094 54.6605 387.861 54.6605H386.399ZM402.791 54.9091C402.791 51.5781 400.723 49.679 398.023 49.679C395.309 49.679 393.255 51.5781 393.255 54.9091C393.255 58.2251 395.309 60.1392 398.023 60.1392C400.723 60.1392 402.791 58.2401 402.791 54.9091ZM400.608 54.9091C400.608 57.0668 399.584 58.2351 398.023 58.2351C396.457 58.2351 395.438 57.0668 395.438 54.9091C395.438 52.7514 396.457 51.5831 398.023 51.5831C399.584 51.5831 400.608 52.7514 400.608 54.9091ZM404.276 60H412.072V58.2251H406.976L412.062 51.0959V49.8182H404.266V51.593H409.357L404.276 58.7223V60ZM420.012 49.8182V56.2464C420.012 57.4098 419.197 58.25 417.944 58.25C416.696 58.25 415.876 57.4098 415.876 56.2464V49.8182H413.723V56.4304C413.723 58.6577 415.404 60.1442 417.944 60.1442C420.475 60.1442 422.165 58.6577 422.165 56.4304V49.8182H420.012ZM423.936 49.8182V60H426.024V53.348H426.109L428.744 59.9503H430.166L432.801 53.3729H432.885V60H434.973V49.8182H432.318L429.514 56.6591H429.395L426.591 49.8182H423.936ZM436.747 60H443.627V58.2251H438.899V55.794H443.255V54.0192H438.899V51.593H443.608V49.8182H436.747V60ZM439.193 46.6463H437.388V46.7159L439.402 48.9034H440.978L442.996 46.7159V46.6463H441.191L440.192 47.8594L439.193 46.6463ZM453.835 49.8182H451.693V56.2216H451.603L447.208 49.8182H445.319V60H447.472V53.5916H447.546L451.976 60H453.835V49.8182ZM457.767 49.8182H455.614V60H457.767V49.8182ZM455.937 48.8338H457.434L458.95 46.5717H456.991L455.937 48.8338Z" fill="white"/>
<path d="M123.861 198.44H236.72C250.171 198.44 261.229 209.935 261.229 223.954C261.229 236.791 252.052 247.479 240.196 249.198L239.854 260.424L228.056 249.467H123.861C110.409 249.467 99.3511 237.972 99.3511 223.954C99.3511 209.935 110.352 198.44 123.861 198.44Z" fill="#4E4C82" fill-opacity="0.5"/>
<path d="M113.565 218.818H111.174L114.689 229H117.463L120.973 218.818H118.587L116.121 226.554H116.026L113.565 218.818ZM121.602 218.818L125.316 225.401V229H127.453V225.401L131.167 218.818H128.756L126.434 223.203H126.335L124.013 218.818H121.602ZM135.952 229C139.055 229 140.934 227.081 140.934 223.899C140.934 220.727 139.055 218.818 135.982 218.818H132.343V229H135.952ZM134.496 227.156V220.663H135.868C137.777 220.663 138.786 221.637 138.786 223.899C138.786 226.171 137.777 227.156 135.863 227.156H134.496ZM142.528 229H149.409V227.225H144.681V224.794H149.036V223.019H144.681V220.593H149.389V218.818H142.528V229ZM144.975 215.646H143.17V215.716L145.183 217.903H146.759L148.778 215.716V215.646H146.973L145.974 216.859L144.975 215.646ZM151.101 229H157.619V227.225H153.253V218.818H151.101V229ZM161.059 229L161.815 226.678H165.489L166.244 229H168.551L165.041 218.818H162.267L158.752 229H161.059ZM162.361 224.998L163.614 221.145H163.694L164.947 224.998H162.361ZM162.893 217.834H164.39L165.906 215.572H163.947L162.893 217.834ZM170.358 218.818H167.967L171.482 229H174.256L177.766 218.818H175.38L172.914 226.554H172.819L170.358 218.818ZM179.393 229L180.149 226.678H183.823L184.578 229H186.885L183.375 218.818H180.601L177.086 229H179.393ZM180.695 224.998L181.948 221.145H182.028L183.281 224.998H180.695ZM192.187 218.818V225.918C192.182 226.897 191.745 227.414 190.949 227.414C190.199 227.414 189.711 226.947 189.696 226.136H187.554C187.544 228.17 188.995 229.139 190.84 229.139C192.903 229.139 194.31 227.891 194.315 225.918V218.818H192.187ZM198.248 218.818H196.095V229H198.248V218.818ZM196.418 217.834H197.915L199.431 215.572H197.472L196.418 217.834ZM209.002 222.383C208.719 220.031 206.939 218.679 204.583 218.679C201.893 218.679 199.84 220.578 199.84 223.909C199.84 227.23 201.858 229.139 204.583 229.139C207.193 229.139 208.769 227.404 209.002 225.53L206.825 225.52C206.621 226.609 205.766 227.235 204.617 227.235C203.071 227.235 202.022 226.087 202.022 223.909C202.022 221.791 203.056 220.583 204.632 220.583C205.811 220.583 206.661 221.264 206.825 222.383H209.002ZM212.699 218.818H210.546V229H212.699V218.818ZM210.869 217.834H212.366L213.882 215.572H211.923L210.869 217.834ZM220.002 229H222.1L224.034 222.343H224.114L226.052 229H228.15L231.064 218.818H228.712L227.027 225.908H226.937L225.083 218.818H223.07L221.21 225.893H221.126L219.44 218.818H217.089L220.002 229ZM232.216 229H239.097V227.225H234.369V224.794H238.724V223.019H234.369V220.593H239.077V218.818H232.216V229ZM240.788 229H245.138C247.425 229 248.643 227.807 248.643 226.186C248.643 224.68 247.565 223.77 246.406 223.715V223.616C247.465 223.377 248.246 222.626 248.246 221.428C248.246 219.902 247.112 218.818 244.865 218.818H240.788V229ZM242.941 227.24V224.536H244.746C245.78 224.536 246.421 225.132 246.421 225.972C246.421 226.738 245.899 227.24 244.696 227.24H242.941ZM242.941 223.079V220.558H244.577C245.531 220.558 246.073 221.05 246.073 221.786C246.073 222.592 245.417 223.079 244.537 223.079H242.941Z" fill="white"/>
<path d="M349.074 413.847C349.074 413.847 347.305 425.049 344.357 426.818C341.41 428.586 359.686 432.713 359.686 432.713L362.634 415.026L349.074 413.847Z" fill="#FCD2B1"/>
<path d="M370.888 285.91L377.373 293.575L374.425 320.105L372.067 372.577C372.067 372.577 376.784 417.974 372.067 419.153C367.351 420.332 346.126 419.743 346.716 416.795C347.305 413.847 347.895 411.489 349.074 407.362C350.253 403.235 347.895 388.496 347.895 388.496L350.843 371.988L340.23 300.649L370.888 285.91Z" fill="#34334B"/>
<path d="M349.663 425.049C349.663 425.049 343.178 423.87 342.588 425.049C341.999 426.229 330.797 438.61 329.028 438.61C327.26 438.61 314.289 450.401 327.849 450.991C341.409 451.58 363.813 440.968 363.813 440.968C363.813 440.968 360.516 425.965 360.691 426.687C360.865 427.408 349.663 427.997 349.663 425.049Z" fill="#34334B"/>
<path d="M342.589 397.929C342.589 397.929 359.097 416.205 359.686 417.974C360.276 419.743 369.12 417.974 369.12 417.974L372.657 406.183L369.709 402.056L353.201 388.496L342.589 397.929Z" fill="#FCD2B1"/>
<path d="M366.171 411.489L357.623 419.536C357.623 419.536 368.53 436.251 368.53 438.02C368.53 439.789 369.119 454.528 375.015 452.17C380.911 449.811 381.5 426.228 381.5 426.228C381.5 426.228 380.911 402.056 377.373 400.287C373.836 398.519 366.083 399.077 366.083 399.077C366.083 399.077 370.888 410.9 366.171 411.489Z" fill="#34334B"/>
<path d="M317.237 233.439C317.237 233.439 314.289 242.872 313.7 245.23C313.11 247.588 309.573 254.074 309.573 264.096C309.573 274.119 310.752 285.91 309.573 287.09C308.394 288.269 289.527 354.301 297.781 361.376C306.035 368.45 333.156 392.033 334.924 394.981C336.693 397.929 337.283 405.004 340.82 403.825C344.357 402.646 357.918 390.854 358.507 388.496C359.097 386.138 350.843 382.011 350.843 382.011C350.843 382.011 334.335 357.838 330.208 358.428C326.081 359.017 326.67 355.48 327.26 353.711C327.849 351.942 329.029 350.763 327.26 350.763C325.491 350.763 326.67 346.047 327.26 343.688C327.849 341.33 341.41 309.493 341.41 309.493L377.373 293.575C377.373 293.575 375.605 250.536 362.634 238.745L359.686 231.67C359.686 231.67 326.67 229.312 317.237 233.439Z" fill="#34334B"/>
<path d="M331.976 140.286C331.976 140.286 334.924 160.921 327.849 162.1C320.774 163.279 314.879 162.69 314.879 163.279C314.879 163.869 332.566 182.146 332.566 182.146L349.074 180.967L363.813 165.048C363.813 165.048 350.253 162.69 350.253 154.436C350.253 146.182 349.663 140.286 349.663 140.286H331.976Z" fill="#FCD2B1"/>
<path opacity="0.1" d="M331.976 140.286C331.976 140.286 334.924 160.921 327.849 162.1C320.774 163.279 314.879 162.69 314.879 163.279C314.879 163.869 332.566 182.146 332.566 182.146L349.074 180.967L363.813 165.048C363.813 165.048 350.253 162.69 350.253 154.436C350.253 146.182 349.663 140.286 349.663 140.286H331.976Z" fill="#34334B"/>
<path d="M341.115 148.835C351.209 148.835 359.391 140.652 359.391 130.558C359.391 120.465 351.209 112.282 341.115 112.282C331.021 112.282 322.838 120.465 322.838 130.558C322.838 140.652 331.021 148.835 341.115 148.835Z" fill="#FCD2B1"/>
<path d="M324.901 160.332C324.901 160.332 301.908 163.28 300.139 170.944C298.371 178.609 311.931 226.364 313.7 230.491C315.468 234.618 314.879 237.566 314.879 237.566C317.546 235.571 320.61 234.17 323.865 233.458C327.119 232.746 330.488 232.74 333.745 233.439C344.947 235.797 360.865 234.618 360.865 234.618C360.865 234.618 366.171 212.804 367.351 210.446C368.53 208.087 373.246 195.117 373.246 191.579C373.246 188.042 380.321 173.303 380.321 173.303C380.321 173.303 376.784 162.69 363.813 163.28C363.813 163.28 358.155 160.748 356.563 162.603C354.97 164.459 346.126 172.713 334.924 169.176C323.722 165.638 324.901 160.332 324.901 160.332Z" fill="#34334B"/>
<path d="M306.625 170.355H300.14L296.602 216.931C296.602 216.931 309.573 220.469 311.342 218.11C313.11 215.752 306.625 170.355 306.625 170.355Z" fill="#34334B"/>
<path d="M298.371 212.214L296.602 216.931C296.602 216.931 295.423 232.26 302.498 231.67C309.573 231.081 313.7 222.237 313.7 222.237C313.7 222.237 309.573 211.035 304.856 212.214C300.139 213.394 298.371 212.214 298.371 212.214Z" fill="#34334B"/>
<path d="M369.119 170.355L380.321 173.303C380.321 173.303 388.575 203.371 389.165 203.961C389.754 204.55 390.344 208.088 390.344 208.088C390.344 208.088 390.344 208.677 391.523 210.446C392.702 212.215 394.471 211.035 393.292 213.394C392.113 215.752 390.344 214.573 391.523 216.931C392.702 219.289 392.113 225.775 392.113 225.775C392.113 225.775 389.165 214.573 378.553 217.521L371.478 185.684L369.119 170.355Z" fill="#34334B"/>
<path d="M320.297 115.5C316.58 122.03 315.743 129.764 315.231 137.26C315.011 140.475 314.845 143.775 315.799 146.853C316.804 150.099 319.041 153.396 317.894 156.595C316.785 159.688 313.074 160.926 311.002 163.477C309.246 165.638 308.805 168.6 308.957 171.381C309.109 174.161 309.784 176.891 309.981 179.669C310.39 185.771 308.506 191.806 304.7 196.593C313.58 196.25 323.074 192.313 326.819 184.253C327.938 181.844 328.483 179.208 329.493 176.75C330.636 173.971 332.361 171.455 333.443 168.651C335.076 164.421 335.165 159.776 335.232 155.242C335.273 152.528 335.302 149.741 334.363 147.195C332.295 141.589 325.865 137.966 325.227 132.025C325.117 131.397 325.21 130.75 325.492 130.178C325.792 129.761 326.156 129.393 326.57 129.088C330.585 125.544 329.923 118.042 334.703 115.626C336.847 114.542 339.433 114.924 341.736 115.61C344.293 116.372 346.844 117.552 348.508 119.638C351.859 123.84 350.537 129.908 349.5 135.181C347.997 142.829 347.465 150.636 347.914 158.417C347.943 159.662 348.127 160.898 348.46 162.097C349.076 164.043 350.388 165.678 351.379 167.462C353.398 171.131 354.053 175.395 353.228 179.5C352.497 183.073 350.68 186.878 352.28 190.155C352.984 191.42 353.964 192.511 355.148 193.345C360.373 197.44 367.006 199.977 370.891 205.36C371.56 200.963 370.283 196.538 369.341 192.192C368.399 187.845 367.826 183.113 369.762 179.109C370.611 177.352 371.91 175.824 372.604 174.001C374.208 169.789 372.296 165.171 371.136 160.816C370.306 157.397 369.707 153.926 369.343 150.426L368.145 140.98C367.156 133.172 366.12 125.204 362.691 118.118C356.229 104.766 341.605 99.807 328.512 107.206C325.081 109.186 322.244 112.05 320.297 115.5Z" fill="#FF8C4A"/>
<path d="M304.267 215.162C304.267 215.162 300.729 225.774 304.856 225.774C308.983 225.774 316.648 219.289 317.237 213.983C317.827 208.677 328.439 188.631 320.775 190.4C313.11 192.169 309.573 206.908 309.573 206.908L304.267 215.162Z" fill="#FCD2B1"/>
<path d="M363.813 170.355L344.357 233.439L370.888 239.335L390.343 178.019L363.813 170.355Z" fill="#4E4C82"/>
<path d="M388.575 215.751L392.258 221.907C392.258 221.907 393.881 233.439 385.627 233.439C377.373 233.439 365.582 222.237 365.582 222.237C365.582 222.237 359.686 219.878 356.149 220.468C352.611 221.058 333.155 220.468 341.409 210.445C349.663 200.423 363.813 210.445 363.813 210.445L378.552 217.52L386.217 213.393L388.575 215.751Z" fill="#FCD2B1"/>
<path d="M383.564 208.792L377.668 218.226C377.668 218.226 391.228 219.994 392.407 222.942C393.586 225.89 387.101 207.613 387.101 207.613L383.564 208.792Z" fill="#34334B"/>
</svg>
