<svg width="570" height="421" viewBox="0 0 570 421" fill="none" xmlns="http://www.w3.org/2000/svg">
<path d="M102.713 134.286C141.653 134.286 173.221 104.539 173.221 67.8445C173.221 31.1498 141.653 1.40283 102.713 1.40283C63.7722 1.40283 32.2046 31.1498 32.2046 67.8445C32.2046 104.539 63.7722 134.286 102.713 134.286Z" stroke="#D3D3D3" stroke-miterlimit="10" stroke-dasharray="12.14 12.14"/>
<path d="M557.454 421H7.40992C3.30596 421 0 417.831 0 414.017V372.391C0 368.523 3.36296 365.408 7.40992 365.408H557.454C561.558 365.408 564.864 368.577 564.864 372.391V414.017C564.864 417.831 561.501 421 557.454 421Z" fill="#F2F2F2"/>
<path d="M328.203 364.817H241.222V383.617H328.203V364.817Z" fill="#34334B"/>
<path d="M220.188 387.108C235.008 390.599 289.67 396.346 316.859 399.032C322.901 399.623 327.574 400.106 330.196 400.321C331.621 400.482 332.419 400.536 332.419 400.536C332.419 400.536 339.544 400.106 348.208 399.676C356.188 399.247 374.599 399.354 380.983 399.139C383.377 399.085 384.175 396.024 382.123 394.896C378.361 392.855 362.572 386.785 354.82 385.872C350.032 385.335 344.788 381.253 340.627 378.997C337.435 377.225 333.787 380.286 330.88 381.307C329.455 381.79 328.429 384.798 326.834 384.905C326.435 384.959 326.035 384.959 325.637 385.013C323.642 385.12 321.533 385.013 319.538 384.798C318.968 384.744 318.455 384.637 317.885 384.583C311.558 383.67 306.314 381.736 306.314 381.736C286.934 372.283 244.298 346.985 211.125 353.645C210.84 353.699 210.555 353.753 210.327 353.806C210.042 353.86 209.757 353.914 209.529 353.967C176.127 361.97 200.238 382.381 220.188 387.108Z" fill="#FCD2B1"/>
<path d="M220.189 387.108C235.008 390.599 289.671 396.346 316.859 399.032L321.818 372.015C320.849 371.854 319.823 371.8 318.797 371.8C308.31 371.693 297.936 369.652 288.246 365.784C266.244 356.922 235.122 348.006 209.473 354.021C176.128 361.971 200.239 382.381 220.189 387.108Z" fill="#34334B"/>
<path d="M338.918 379.642C338.918 376.956 342.338 375.345 342.338 375.345L368.9 384.583L383.378 391.995L386.228 395.755L382.808 398.172L353.168 394.144L343.478 388.773L338.918 379.642Z" fill="#34334B"/>
<path d="M325.581 385.013L330.197 400.321C331.622 400.482 332.42 400.536 332.42 400.536C332.42 400.536 339.545 400.106 348.209 399.676C356.189 399.247 374.6 399.354 380.984 399.139C383.378 399.086 384.176 396.024 382.124 394.896C378.362 392.855 362.573 386.786 354.821 385.872C350.033 385.335 344.789 381.253 340.628 378.997C337.436 377.225 333.788 380.286 330.881 381.307C329.457 381.79 328.431 384.798 326.835 384.906C326.379 385.013 325.98 385.013 325.581 385.013Z" fill="#34334B"/>
<path d="M345.302 294.401L341.711 269.371C339.887 256.803 329.343 247.457 316.86 247.457H292.692C289.215 247.457 283.515 247.457 280.038 247.457H255.87C243.387 247.457 232.843 256.803 231.019 269.371L227.428 294.401C224.635 314.06 236.32 332.859 255.015 338.606L279.981 346.287C283.458 346.287 286.308 343.386 286.308 339.842C286.308 343.386 289.158 346.287 292.635 346.287L317.601 338.606C336.353 332.859 348.095 314.06 345.302 294.401Z" fill="#34334B"/>
<path d="M312.339 225.313C313.351 222.819 312.383 220.154 310.177 219.36C307.972 218.566 305.364 219.944 304.353 222.438C303.342 224.931 304.31 227.597 306.515 228.391C308.721 229.185 311.328 227.807 312.339 225.313Z" fill="#FCD2B1"/>
<path d="M334.529 361.756L239.511 358.748L233.526 281.027H341.768L334.529 361.756Z" fill="#34334B"/>
<path d="M275.82 239.615L278.955 257.555L279.183 257.984C282.033 263.678 290.697 263.409 293.148 257.555L295.713 239.346L275.82 239.615Z" fill="#FCD2B1"/>
<path d="M308.253 216.626C308.253 239.454 298.563 243.965 286.65 243.965C274.737 243.965 265.047 239.507 265.047 216.626C265.047 204.219 274.737 194.175 286.65 194.175C298.563 194.121 308.253 204.219 308.253 216.626Z" fill="#FCD2B1"/>
<path d="M273.768 210.933C283.458 215.928 294.003 219.473 304.89 221.407C309.165 222.159 319.083 217.378 321.762 214.209C324.669 210.825 313.782 210.986 311.502 207.227C308.253 201.909 305.004 194.927 299.532 191.65C294.06 188.374 285.966 191.543 279.582 192.724C273.882 193.799 272.172 191.972 267.612 195.41C263.851 198.257 261.514 203.843 260.203 208.193C258.892 212.544 260.602 221.783 265.333 222.803C266.472 216.358 269.208 214.693 270.462 211.524L273.768 210.933Z" fill="#34334B"/>
<path d="M267.429 228.396C269.634 227.601 270.602 224.936 269.591 222.442C268.58 219.948 265.973 218.57 263.767 219.364C261.562 220.159 260.594 222.824 261.605 225.318C262.616 227.812 265.223 229.19 267.429 228.396Z" fill="#FCD2B1"/>
<path d="M281.235 230.86H270.405C268.638 230.86 267.213 229.517 267.213 227.852V224.791C267.213 223.126 268.638 221.783 270.405 221.783H281.235C283.002 221.783 284.427 223.126 284.427 224.791V227.852C284.427 229.517 283.002 230.86 281.235 230.86Z" stroke="#34334B" stroke-width="2" stroke-miterlimit="10"/>
<path d="M302.895 230.86H292.065C290.298 230.86 288.873 229.517 288.873 227.852V224.79C288.873 223.125 290.298 221.782 292.065 221.782H302.895C304.662 221.782 306.087 223.125 306.087 224.79V227.852C306.087 229.517 304.662 230.86 302.895 230.86Z" stroke="#34334B" stroke-width="2" stroke-miterlimit="10"/>
<path d="M284.427 226.294C286.023 225.488 287.163 224.951 288.873 226.294" stroke="#34334B" stroke-width="2" stroke-miterlimit="10"/>
<path d="M331.68 371.478H240.082C237.289 371.478 234.952 369.329 234.952 366.644L232.387 308.259C232.387 305.627 234.667 303.425 237.517 303.425H334.245C337.038 303.425 339.374 305.573 339.374 308.259L336.81 366.644C336.753 369.329 334.473 371.478 331.68 371.478Z" fill="#D3D3D3"/>
<path d="M285.681 346.609C291.033 346.609 295.371 342.521 295.371 337.478C295.371 332.435 291.033 328.347 285.681 328.347C280.33 328.347 275.991 332.435 275.991 337.478C275.991 342.521 280.33 346.609 285.681 346.609Z" fill="white"/>
<path d="M358.982 387.108C344.162 390.599 289.5 396.346 262.311 399.032C256.269 399.623 251.595 400.106 248.973 400.321C247.548 400.482 246.75 400.536 246.75 400.536C246.75 400.536 239.625 400.106 230.962 399.676C222.982 399.247 204.571 399.354 198.187 399.139C195.793 399.085 194.995 396.024 197.047 394.896C200.809 392.855 216.598 386.785 224.35 385.872C229.138 385.335 234.382 381.253 238.542 378.997C241.734 377.225 245.382 380.286 248.289 381.307C249.714 381.79 250.74 384.798 252.336 384.905C252.735 384.959 253.134 384.959 253.533 385.013C255.528 385.12 257.637 385.013 259.632 384.798C260.202 384.744 260.715 384.637 261.285 384.583C267.612 383.67 272.856 381.736 272.856 381.736C292.236 372.283 334.871 346.985 368.045 353.645C368.33 353.699 368.615 353.753 368.843 353.806C369.128 353.86 369.413 353.914 369.641 353.967C403.043 361.97 378.932 382.381 358.982 387.108Z" fill="#FCD2B1"/>
<path d="M358.982 387.108C344.163 390.599 289.5 396.346 262.311 399.032L257.353 372.015C258.322 371.854 259.348 371.8 260.373 371.8C270.861 371.693 281.235 369.652 290.925 365.784C312.927 356.922 344.049 348.006 369.698 354.021C403.043 361.971 378.932 382.381 358.982 387.108Z" fill="#34334B"/>
<path d="M240.252 379.642C240.252 376.956 236.832 375.345 236.832 375.345L210.27 384.583L195.792 391.995L192.942 395.755L196.362 398.172L226.002 394.144L235.692 388.773L240.252 379.642Z" fill="#34334B"/>
<path d="M253.59 385.013L248.973 400.321C247.548 400.482 246.75 400.536 246.75 400.536C246.75 400.536 239.625 400.106 230.962 399.676C222.982 399.247 204.571 399.354 198.187 399.139C195.793 399.086 194.995 396.024 197.047 394.896C200.809 392.855 216.598 386.786 224.35 385.872C229.138 385.335 234.382 381.253 238.542 378.997C241.734 377.225 245.382 380.286 248.289 381.307C249.714 381.79 250.74 384.798 252.336 384.906C252.849 385.013 253.248 385.013 253.59 385.013Z" fill="#34334B"/>
<path d="M508.719 29.4402H395.861C382.409 29.4402 371.351 40.9345 371.351 54.9533C371.351 67.7905 380.528 78.4791 392.384 80.1979L392.726 91.4237L404.524 80.4665H508.719C522.171 80.4665 533.229 68.9721 533.229 54.9533C533.229 40.9345 522.228 29.4402 508.719 29.4402Z" fill="#FF8C4A"/>
<path d="M423.22 63.8167C427.942 63.8167 431.77 60.2096 431.77 55.7599C431.77 51.3103 427.942 47.7031 423.22 47.7031C418.498 47.7031 414.67 51.3103 414.67 55.7599C414.67 60.2096 418.498 63.8167 423.22 63.8167Z" fill="white"/>
<path d="M452.29 63.8162C457.012 63.8162 460.84 60.2091 460.84 55.7594C460.84 51.3098 457.012 47.7026 452.29 47.7026C447.568 47.7026 443.74 51.3098 443.74 55.7594C443.74 60.2091 447.568 63.8162 452.29 63.8162Z" fill="white"/>
<path d="M481.359 63.8162C486.081 63.8162 489.909 60.2091 489.909 55.7594C489.909 51.3098 486.081 47.7026 481.359 47.7026C476.637 47.7026 472.81 51.3098 472.81 55.7594C472.81 60.2091 476.637 63.8162 481.359 63.8162Z" fill="white"/>
<path d="M100.319 311.965C125.66 311.965 146.203 292.607 146.203 268.727C146.203 244.847 125.66 225.489 100.319 225.489C74.9776 225.489 54.4344 244.847 54.4344 268.727C54.4344 292.607 74.9776 311.965 100.319 311.965Z" fill="#FF8C4A"/>
<path d="M68.5701 271.412V269.049C68.5701 267.867 69.3111 266.847 70.4511 266.417L83.1049 261.691C85.0999 260.939 87.2089 262.335 87.2089 264.322C87.2089 265.558 86.4109 266.632 85.1569 267.008L74.954 270.231L85.1569 273.453C86.4109 273.829 87.2089 274.904 87.2089 276.139V276.193C87.2089 278.18 85.0429 279.577 83.1049 278.825L70.4511 274.098C69.3681 273.615 68.5701 272.594 68.5701 271.412Z" fill="white"/>
<path d="M107.102 254.439C109.04 254.439 110.294 256.319 109.439 257.984L95.3027 285.861C94.8467 286.72 93.9347 287.257 92.9657 287.257C91.0277 287.257 89.7737 285.377 90.6287 283.712L104.765 255.836C105.221 254.977 106.133 254.439 107.102 254.439Z" fill="white"/>
<path d="M115.424 273.507L125.626 270.284L115.424 267.062C114.227 266.686 113.372 265.612 113.372 264.376V264.322C113.372 262.335 115.538 260.939 117.476 261.691L130.129 266.417C131.269 266.847 132.01 267.867 132.01 269.049V271.412C132.01 272.594 131.269 273.615 130.129 274.044L117.476 278.771C115.481 279.523 113.372 278.126 113.372 276.139C113.372 274.957 114.227 273.883 115.424 273.507Z" fill="white"/>
<path d="M530.208 342.097C525.534 321.418 510.999 302.941 491.448 292.628C501.936 311.266 514.419 328.83 528.783 345.051L530.208 342.097Z" fill="#4E4C82"/>
<path d="M535.452 349.832C516.813 325.286 507.465 294.563 509.46 264.43C521.544 292.253 530.664 321.204 536.649 350.691L535.452 349.832Z" fill="#4F4D76"/>
<path d="M530.094 350.691C529.524 335.598 528.954 320.344 531.462 305.412C533.97 290.48 539.783 275.709 550.556 264.483C552.209 295.421 544.229 326.736 527.985 353.645L530.094 350.691Z" fill="#4E4C82"/>
<path d="M530.892 352.034C520.404 323.459 522.114 291.125 535.566 263.678C544.002 292.36 536.535 322.761 529.068 351.658L530.892 352.034Z" fill="#7B79AC"/>
<path d="M532.26 341.453C535.167 316.369 552.894 293.327 577.289 282.96C567.428 307.936 550.5 330.442 528.783 347.576L532.26 341.453Z" fill="#4F4D76"/>
<path d="M557.397 337.048L554.376 385.711C554.376 388.075 552.324 389.955 549.873 389.955H514.077C511.569 389.955 509.574 388.021 509.574 385.711L508.89 374.7L506.553 337.048C506.553 334.685 508.605 332.805 511.056 332.805H552.894C554.547 332.805 555.972 333.611 556.77 334.846C557.112 335.491 557.397 336.243 557.397 337.048Z" fill="#34334B"/>
<path d="M557.396 337.048L554.375 385.711C554.375 388.075 552.323 389.955 549.872 389.955H514.077C511.569 389.955 509.574 388.021 509.574 385.711L508.89 374.7C525.591 370.189 542.805 350.745 556.769 334.846C557.111 335.491 557.396 336.243 557.396 337.048Z" fill="#34334B"/>
<path d="M26.6185 358.64C23.5405 345.105 14.0786 333.02 1.25378 326.252C8.09371 338.445 16.3016 349.939 25.7065 360.574L26.6185 358.64Z" fill="#4E4C82"/>
<path d="M30.0387 363.689C17.8409 347.629 11.7419 327.541 13.0529 307.829C20.9758 326.037 26.9608 344.997 30.8367 364.334L30.0387 363.689Z" fill="#4F4D76"/>
<path d="M26.5617 364.28C26.1627 354.397 25.8207 344.406 27.4737 334.631C29.1267 324.855 32.9456 315.187 40.0136 307.829C41.0966 328.078 35.9096 348.596 25.1937 366.213L26.5617 364.28Z" fill="#4E4C82"/>
<path d="M27.0745 365.139C20.1776 346.448 21.3176 325.231 30.1525 307.292C35.6814 326.037 30.7795 345.964 25.8775 364.871L27.0745 365.139Z" fill="#7B79AC"/>
<path d="M27.9865 358.21C29.8675 341.828 41.4954 326.681 57.4552 319.914C50.9573 336.296 39.8994 351.013 25.7065 362.239L27.9865 358.21Z" fill="#4F4D76"/>
<path d="M44.4026 355.31L42.4076 387.161C42.4076 388.719 41.0966 389.954 39.4437 389.954H16.0169C14.364 389.954 13.053 388.719 13.053 387.161L12.597 379.964L11.115 355.31C11.115 353.752 12.426 352.517 14.079 352.517H41.4956C42.5786 352.517 43.4906 353.054 44.0036 353.86C44.2886 354.29 44.4026 354.827 44.4026 355.31Z" fill="#34334B"/>
<path d="M44.4026 355.31L42.4076 387.161C42.4076 388.719 41.0966 389.954 39.4436 389.954H16.0169C14.3639 389.954 13.0529 388.719 13.0529 387.161L12.5969 379.964C23.5408 377.01 34.8267 364.28 43.9466 353.86C44.2886 354.29 44.4026 354.827 44.4026 355.31Z" fill="#34334B"/>
</svg>
