<svg width="569" height="401" viewBox="0 0 569 401" fill="none" xmlns="http://www.w3.org/2000/svg">
<path d="M101.713 134.286C140.653 134.286 172.221 104.539 172.221 67.8445C172.221 31.1498 140.653 1.40283 101.713 1.40283C62.7722 1.40283 31.2046 31.1498 31.2046 67.8445C31.2046 104.539 62.7722 134.286 101.713 134.286Z" stroke="#D3D3D3" stroke-miterlimit="10" stroke-dasharray="12.14 12.14"/>
<path d="M327.203 364.817H240.222V383.617H327.203V364.817Z" fill="#34334B"/>
<path d="M219.188 387.108C234.008 390.599 288.67 396.346 315.859 399.032C321.901 399.623 326.574 400.106 329.196 400.321C330.621 400.482 331.419 400.536 331.419 400.536C331.419 400.536 338.544 400.106 347.208 399.676C355.188 399.247 373.599 399.354 379.983 399.139C382.377 399.085 383.175 396.024 381.123 394.896C377.361 392.855 361.572 386.785 353.82 385.872C349.032 385.335 343.788 381.253 339.627 378.997C336.435 377.225 332.787 380.286 329.88 381.307C328.455 381.79 327.429 384.798 325.834 384.905C325.435 384.959 325.035 384.959 324.637 385.013C322.642 385.12 320.533 385.013 318.538 384.798C317.968 384.744 317.455 384.637 316.885 384.583C310.558 383.67 305.314 381.736 305.314 381.736C285.934 372.283 243.298 346.985 210.125 353.645C209.84 353.699 209.555 353.753 209.327 353.806C209.042 353.86 208.757 353.914 208.529 353.967C175.127 361.97 199.238 382.381 219.188 387.108Z" fill="#FCD2B1"/>
<path d="M219.189 387.108C234.008 390.599 288.671 396.346 315.859 399.032L320.818 372.015C319.849 371.854 318.823 371.8 317.797 371.8C307.31 371.693 296.936 369.652 287.246 365.784C265.244 356.922 234.122 348.006 208.473 354.021C175.128 361.971 199.239 382.381 219.189 387.108Z" fill="#34334B"/>
<path d="M337.918 379.642C337.918 376.956 341.338 375.345 341.338 375.345L367.9 384.583L382.378 391.995L385.228 395.755L381.808 398.172L352.168 394.144L342.478 388.773L337.918 379.642Z" fill="#34334B"/>
<path d="M324.581 385.013L329.197 400.321C330.622 400.482 331.42 400.536 331.42 400.536C331.42 400.536 338.545 400.106 347.209 399.676C355.189 399.247 373.6 399.354 379.984 399.139C382.378 399.086 383.176 396.024 381.124 394.896C377.362 392.855 361.573 386.786 353.821 385.872C349.033 385.335 343.789 381.253 339.628 378.997C336.436 377.225 332.788 380.286 329.881 381.307C328.457 381.79 327.431 384.798 325.835 384.906C325.379 385.013 324.98 385.013 324.581 385.013Z" fill="#34334B"/>
<path d="M344.302 294.401L340.711 269.371C338.887 256.803 328.343 247.457 315.86 247.457H291.692C288.215 247.457 282.515 247.457 279.038 247.457H254.87C242.387 247.457 231.843 256.803 230.019 269.371L226.428 294.401C223.635 314.06 235.32 332.859 254.015 338.606L278.981 346.287C282.458 346.287 285.308 343.386 285.308 339.842C285.308 343.386 288.158 346.287 291.635 346.287L316.601 338.606C335.353 332.859 347.095 314.06 344.302 294.401Z" fill="#34334B"/>
<path d="M311.339 225.313C312.351 222.819 311.383 220.154 309.177 219.36C306.972 218.566 304.364 219.944 303.353 222.438C302.342 224.931 303.31 227.597 305.515 228.391C307.721 229.185 310.328 227.807 311.339 225.313Z" fill="#FCD2B1"/>
<path d="M333.529 361.756L238.511 358.748L232.526 281.027H340.768L333.529 361.756Z" fill="#34334B"/>
<path d="M274.82 239.615L277.955 257.555L278.183 257.984C281.033 263.678 289.697 263.409 292.148 257.555L294.713 239.346L274.82 239.615Z" fill="#FCD2B1"/>
<path d="M307.253 216.626C307.253 239.454 297.563 243.965 285.65 243.965C273.737 243.965 264.047 239.507 264.047 216.626C264.047 204.219 273.737 194.175 285.65 194.175C297.563 194.121 307.253 204.219 307.253 216.626Z" fill="#FCD2B1"/>
<path d="M272.768 210.933C282.458 215.928 293.003 219.473 303.89 221.407C308.165 222.159 318.083 217.378 320.762 214.209C323.669 210.825 312.782 210.986 310.502 207.227C307.253 201.909 304.004 194.927 298.532 191.65C293.06 188.374 284.966 191.543 278.582 192.724C272.882 193.799 271.172 191.972 266.612 195.41C262.851 198.257 260.514 203.843 259.203 208.193C257.892 212.544 259.602 221.783 264.333 222.803C265.472 216.358 268.208 214.693 269.462 211.524L272.768 210.933Z" fill="#34334B"/>
<path d="M266.429 228.396C268.634 227.601 269.602 224.936 268.591 222.442C267.58 219.948 264.973 218.57 262.767 219.364C260.562 220.159 259.594 222.824 260.605 225.318C261.616 227.812 264.223 229.19 266.429 228.396Z" fill="#FCD2B1"/>
<path d="M280.235 230.86H269.405C267.638 230.86 266.213 229.517 266.213 227.852V224.791C266.213 223.126 267.638 221.783 269.405 221.783H280.235C282.002 221.783 283.427 223.126 283.427 224.791V227.852C283.427 229.517 282.002 230.86 280.235 230.86Z" stroke="#34334B" stroke-width="2" stroke-miterlimit="10"/>
<path d="M301.895 230.86H291.065C289.298 230.86 287.873 229.517 287.873 227.852V224.79C287.873 223.125 289.298 221.782 291.065 221.782H301.895C303.662 221.782 305.087 223.125 305.087 224.79V227.852C305.087 229.517 303.662 230.86 301.895 230.86Z" stroke="#34334B" stroke-width="2" stroke-miterlimit="10"/>
<path d="M283.427 226.294C285.023 225.488 286.163 224.951 287.873 226.294" stroke="#34334B" stroke-width="2" stroke-miterlimit="10"/>
<path d="M330.68 371.478H239.082C236.289 371.478 233.952 369.329 233.952 366.644L231.387 308.259C231.387 305.627 233.667 303.425 236.517 303.425H333.245C336.038 303.425 338.374 305.573 338.374 308.259L335.81 366.644C335.753 369.329 333.473 371.478 330.68 371.478Z" fill="#D3D3D3"/>
<path d="M284.681 346.609C290.033 346.609 294.371 342.521 294.371 337.478C294.371 332.435 290.033 328.347 284.681 328.347C279.33 328.347 274.991 332.435 274.991 337.478C274.991 342.521 279.33 346.609 284.681 346.609Z" fill="white"/>
<path d="M357.982 387.108C343.162 390.599 288.5 396.346 261.311 399.032C255.269 399.623 250.595 400.106 247.973 400.321C246.548 400.482 245.75 400.536 245.75 400.536C245.75 400.536 238.625 400.106 229.962 399.676C221.982 399.247 203.571 399.354 197.187 399.139C194.793 399.085 193.995 396.024 196.047 394.896C199.809 392.855 215.598 386.785 223.35 385.872C228.138 385.335 233.382 381.253 237.542 378.997C240.734 377.225 244.382 380.286 247.289 381.307C248.714 381.79 249.74 384.798 251.336 384.905C251.735 384.959 252.134 384.959 252.533 385.013C254.528 385.12 256.637 385.013 258.632 384.798C259.202 384.744 259.715 384.637 260.285 384.583C266.612 383.67 271.856 381.736 271.856 381.736C291.236 372.283 333.871 346.985 367.045 353.645C367.33 353.699 367.615 353.753 367.843 353.806C368.128 353.86 368.413 353.914 368.641 353.967C402.043 361.97 377.932 382.381 357.982 387.108Z" fill="#FCD2B1"/>
<path d="M357.982 387.108C343.163 390.599 288.5 396.346 261.311 399.032L256.353 372.015C257.322 371.854 258.348 371.8 259.373 371.8C269.861 371.693 280.235 369.652 289.925 365.784C311.927 356.922 343.049 348.006 368.698 354.021C402.043 361.971 377.932 382.381 357.982 387.108Z" fill="#34334B"/>
<path d="M239.252 379.642C239.252 376.956 235.832 375.345 235.832 375.345L209.27 384.583L194.792 391.995L191.942 395.755L195.362 398.172L225.002 394.144L234.692 388.773L239.252 379.642Z" fill="#34334B"/>
<path d="M252.59 385.013L247.973 400.321C246.548 400.482 245.75 400.536 245.75 400.536C245.75 400.536 238.625 400.106 229.962 399.676C221.982 399.247 203.571 399.354 197.187 399.139C194.793 399.086 193.995 396.024 196.047 394.896C199.809 392.855 215.598 386.786 223.35 385.872C228.138 385.335 233.382 381.253 237.542 378.997C240.734 377.225 244.382 380.286 247.289 381.307C248.714 381.79 249.74 384.798 251.336 384.906C251.849 385.013 252.248 385.013 252.59 385.013Z" fill="#34334B"/>
<path d="M507.719 29.4402H394.861C381.409 29.4402 370.351 40.9345 370.351 54.9533C370.351 67.7905 379.528 78.4791 391.384 80.1979L391.726 91.4237L403.524 80.4665H507.719C521.171 80.4665 532.229 68.9721 532.229 54.9533C532.229 40.9345 521.228 29.4402 507.719 29.4402Z" fill="#FF8C4A"/>
<path d="M99.3189 311.965C124.66 311.965 145.203 292.607 145.203 268.727C145.203 244.847 124.66 225.489 99.3189 225.489C73.9776 225.489 53.4344 244.847 53.4344 268.727C53.4344 292.607 73.9776 311.965 99.3189 311.965Z" fill="#FF8C4A"/>
<path d="M529.208 342.097C524.534 321.418 509.999 302.941 490.448 292.628C500.936 311.266 513.419 328.83 527.783 345.051L529.208 342.097Z" fill="#4E4C82"/>
<path d="M534.452 349.832C515.813 325.286 506.465 294.563 508.46 264.43C520.544 292.253 529.664 321.204 535.649 350.691L534.452 349.832Z" fill="#4F4D76"/>
<path d="M529.094 350.691C528.524 335.598 527.954 320.344 530.462 305.412C532.97 290.48 538.783 275.709 549.556 264.483C551.209 295.421 543.229 326.736 526.985 353.645L529.094 350.691Z" fill="#4E4C82"/>
<path d="M529.892 352.034C519.404 323.459 521.114 291.125 534.566 263.678C543.002 292.36 535.535 322.761 528.068 351.658L529.892 352.034Z" fill="#7B79AC"/>
<path d="M531.26 341.453C534.167 316.369 551.894 293.327 576.289 282.96C566.428 307.936 549.5 330.442 527.783 347.576L531.26 341.453Z" fill="#4F4D76"/>
<path d="M556.397 337.048L553.376 385.711C553.376 388.075 551.324 389.955 548.873 389.955H513.077C510.569 389.955 508.574 388.021 508.574 385.711L507.89 374.7L505.553 337.048C505.553 334.685 507.605 332.805 510.056 332.805H551.894C553.547 332.805 554.972 333.611 555.77 334.846C556.112 335.491 556.397 336.243 556.397 337.048Z" fill="#34334B"/>
<path d="M556.396 337.048L553.375 385.711C553.375 388.075 551.323 389.955 548.872 389.955H513.077C510.569 389.955 508.574 388.021 508.574 385.711L507.89 374.7C524.591 370.189 541.805 350.745 555.769 334.846C556.111 335.491 556.396 336.243 556.396 337.048Z" fill="#34334B"/>
<path d="M25.6185 358.64C22.5405 345.105 13.0786 333.02 0.253784 326.252C7.09371 338.445 15.3016 349.939 24.7065 360.574L25.6185 358.64Z" fill="#4E4C82"/>
<path d="M29.0387 363.689C16.8409 347.629 10.7419 327.541 12.0529 307.829C19.9758 326.037 25.9608 344.997 29.8367 364.334L29.0387 363.689Z" fill="#4F4D76"/>
<path d="M25.5617 364.28C25.1627 354.397 24.8207 344.406 26.4737 334.631C28.1267 324.855 31.9456 315.187 39.0136 307.829C40.0966 328.078 34.9096 348.596 24.1937 366.213L25.5617 364.28Z" fill="#4E4C82"/>
<path d="M26.0745 365.139C19.1776 346.448 20.3176 325.231 29.1525 307.292C34.6814 326.037 29.7795 345.964 24.8775 364.871L26.0745 365.139Z" fill="#7B79AC"/>
<path d="M26.9865 358.21C28.8675 341.828 40.4954 326.681 56.4552 319.914C49.9573 336.296 38.8994 351.013 24.7065 362.239L26.9865 358.21Z" fill="#4F4D76"/>
<path d="M43.4026 355.31L41.4076 387.161C41.4076 388.719 40.0966 389.954 38.4437 389.954H15.0169C13.364 389.954 12.053 388.719 12.053 387.161L11.597 379.964L10.115 355.31C10.115 353.752 11.426 352.517 13.079 352.517H40.4956C41.5786 352.517 42.4906 353.054 43.0036 353.86C43.2886 354.29 43.4026 354.827 43.4026 355.31Z" fill="#34334B"/>
<path d="M43.4026 355.31L41.4076 387.161C41.4076 388.719 40.0966 389.954 38.4436 389.954H15.0169C13.3639 389.954 12.0529 388.719 12.0529 387.161L11.5969 379.964C22.5408 377.01 33.8267 364.28 42.9466 353.86C43.2886 354.29 43.4026 354.827 43.4026 355.31Z" fill="#34334B"/>
<path d="M399.945 60H402.098V56.6989H403.908C406.249 56.6989 407.612 55.3018 407.612 53.2685C407.612 51.245 406.274 49.8182 403.963 49.8182H399.945V60ZM402.098 54.9737V51.5781H403.55C404.793 51.5781 405.394 52.2543 405.394 53.2685C405.394 54.2777 404.793 54.9737 403.56 54.9737H402.098ZM418.366 54.9091C418.366 51.5781 416.298 49.679 413.599 49.679C410.884 49.679 408.831 51.5781 408.831 54.9091C408.831 58.2251 410.884 60.1392 413.599 60.1392C416.298 60.1392 418.366 58.2401 418.366 54.9091ZM416.184 54.9091C416.184 57.0668 415.16 58.2351 413.599 58.2351C412.033 58.2351 411.013 57.0668 411.013 54.9091C411.013 52.7514 412.033 51.5831 413.599 51.5831C415.16 51.5831 416.184 52.7514 416.184 54.9091ZM419.961 60H422.114V56.3906H423.685L425.614 60H427.99L425.828 56.0426C426.986 55.5455 427.627 54.5362 427.627 53.1442C427.627 51.1207 426.29 49.8182 423.978 49.8182H419.961V60ZM422.114 54.6605V51.5781H423.566C424.808 51.5781 425.41 52.13 425.41 53.1442C425.41 54.1534 424.808 54.6605 423.575 54.6605H422.114ZM438.505 54.9091C438.505 51.5781 436.437 49.679 433.737 49.679C431.023 49.679 428.97 51.5781 428.97 54.9091C428.97 58.2251 431.023 60.1392 433.737 60.1392C436.437 60.1392 438.505 58.2401 438.505 54.9091ZM436.323 54.9091C436.323 57.0668 435.298 58.2351 433.737 58.2351C432.171 58.2351 431.152 57.0668 431.152 54.9091C431.152 52.7514 432.171 51.5831 433.737 51.5831C435.298 51.5831 436.323 52.7514 436.323 54.9091ZM439.99 60H447.786V58.2251H442.69L447.776 51.0959V49.8182H439.98V51.593H445.071L439.99 58.7223V60ZM455.727 49.8182V56.2464C455.727 57.4098 454.911 58.25 453.659 58.25C452.411 58.25 451.59 57.4098 451.59 56.2464V49.8182H449.438V56.4304C449.438 58.6577 451.118 60.1442 453.659 60.1442C456.189 60.1442 457.879 58.6577 457.879 56.4304V49.8182H455.727ZM459.651 49.8182V60H461.739V53.348H461.823L464.458 59.9503H465.88L468.515 53.3729H468.599V60H470.688V49.8182H468.033L465.229 56.6591H465.109L462.305 49.8182H459.651ZM472.461 60H479.342V58.2251H474.614V55.794H478.969V54.0192H474.614V51.593H479.322V49.8182H472.461V60ZM489.55 49.8182H487.407V56.2216H487.317L482.923 49.8182H481.033V60H483.186V53.5916H483.261L487.69 60H489.55V49.8182ZM493.481 49.8182H491.328V60H493.481V49.8182ZM495.252 60H502.133V58.2251H497.405V55.794H501.76V54.0192H497.405V51.593H502.113V49.8182H495.252V60Z" fill="white"/>
<path d="M68.6714 264.818H66.5187V275H68.6714V264.818ZM78.9589 264.818H76.8161V271.222H76.7267L72.3318 264.818H70.4426V275H72.5953V268.592H72.6698L77.0995 275H78.9589V264.818ZM90.094 269.909C90.094 266.578 88.0258 264.679 85.3263 264.679C82.6118 264.679 80.5585 266.578 80.5585 269.909C80.5585 273.225 82.6118 275.139 85.3263 275.139C88.0258 275.139 90.094 273.24 90.094 269.909ZM87.9115 269.909C87.9115 272.067 86.8873 273.235 85.3263 273.235C83.7602 273.235 82.741 272.067 82.741 269.909C82.741 267.751 83.7602 266.583 85.3263 266.583C86.8873 266.583 87.9115 267.751 87.9115 269.909ZM92.9539 264.818H90.5626L94.0775 275H96.8517L100.362 264.818H97.9752L95.5093 272.554H95.4149L92.9539 264.818ZM101.989 275L102.744 272.678H106.418L107.174 275H109.481L105.971 264.818H103.197L99.6817 275H101.989ZM103.291 270.998L104.544 267.145H104.623L105.876 270.998H103.291ZM103.823 263.834H105.32L106.836 261.572H104.877L103.823 263.834ZM119.211 268.383C118.928 266.031 117.148 264.679 114.792 264.679C112.102 264.679 110.049 266.578 110.049 269.909C110.049 273.23 112.067 275.139 114.792 275.139C117.402 275.139 118.978 273.404 119.211 271.53L117.034 271.52C116.83 272.609 115.975 273.235 114.826 273.235C113.28 273.235 112.231 272.087 112.231 269.909C112.231 267.791 113.265 266.583 114.841 266.583C116.02 266.583 116.87 267.264 117.034 268.383H119.211ZM122.908 264.818H120.755V275H122.908V264.818ZM124.679 275H131.56V273.225H126.832V270.794H131.187V269.019H126.832V266.593H131.54V264.818H124.679V275Z" fill="white"/>
<path d="M62.3404 62.8182H60.1877V73H62.3404V62.8182ZM63.7237 64.593H66.8409V73H68.9688V64.593H72.0859V62.8182H63.7237V64.593ZM76.7033 73H78.856V69.6989H80.6657C83.0073 69.6989 84.3695 68.3018 84.3695 66.2685C84.3695 64.245 83.0321 62.8182 80.7203 62.8182H76.7033V73ZM78.856 67.9737V64.5781H80.3077C81.5506 64.5781 82.1522 65.2543 82.1522 66.2685C82.1522 67.2777 81.5506 67.9737 80.3176 67.9737H78.856ZM86.3469 73L87.1026 70.6783H90.7766L91.5323 73H93.8391L90.3292 62.8182H87.555L84.0401 73H86.3469ZM87.6495 68.9979L88.9023 65.1449H88.9819L90.2347 68.9979H87.6495ZM95.0646 73H97.2173V69.3906H98.7884L100.717 73H103.094L100.931 69.0426C102.089 68.5455 102.731 67.5362 102.731 66.1442C102.731 64.1207 101.393 62.8182 99.0817 62.8182H95.0646V73ZM97.2173 67.6605V64.5781H98.669C99.9119 64.5781 100.513 65.13 100.513 66.1442C100.513 67.1534 99.9119 67.6605 98.679 67.6605H97.2173ZM103.864 64.593H106.982V73H109.109V64.593H112.227V62.8182H103.864V64.593ZM122.12 62.8182H119.977V69.2216H119.888L115.493 62.8182H113.604V73H115.756V66.5916H115.831L120.261 73H122.12V62.8182ZM123.899 73H130.779V71.2251H126.051V68.794H130.406V67.0192H126.051V64.593H130.759V62.8182H123.899V73ZM132.471 73H134.624V69.3906H136.195L138.124 73H140.5L138.337 69.0426C139.496 68.5455 140.137 67.5362 140.137 66.1442C140.137 64.1207 138.8 62.8182 136.488 62.8182H132.471V73ZM134.624 67.6605V64.5781H136.075C137.318 64.5781 137.92 65.13 137.92 66.1442C137.92 67.1534 137.318 67.6605 136.085 67.6605H134.624ZM143.811 62.8182H141.658V73H143.811V62.8182Z" fill="#98999A"/>
</svg>
