<svg width="50" height="50" viewBox="0 0 50 50" fill="none" xmlns="http://www.w3.org/2000/svg">
<path d="M25 0C22.2385 0 20 2.23854 20 5C20 7.76146 22.2385 10 25 10C27.7603 9.99729 29.9973 7.76031 30 5C30 2.23854 27.7615 0 25 0ZM25 8.33333C23.1591 8.33333 21.6667 6.84094 21.6667 5C21.6667 3.15906 23.1591 1.66667 25 1.66667C26.8409 1.66667 28.3333 3.15906 28.3333 5C28.3333 6.84094 26.8409 8.33333 25 8.33333Z" fill="#98999A"/>
<path d="M28.3333 10.8335H28.1367L27.9608 10.921C26.0961 11.8494 23.9039 11.8494 22.0392 10.921L21.8633 10.8335H21.6667C19.3667 10.8362 17.5027 12.7002 17.5 15.0002V20.0002C17.5 21.3809 18.6193 22.5002 20 22.5002H30C31.3807 22.5002 32.5 21.3809 32.5 20.0002V15.0002C32.4973 12.7002 30.6333 10.8362 28.3333 10.8335ZM30.8333 20.0002C30.8333 20.4604 30.4602 20.8335 30 20.8335H20C19.5398 20.8335 19.1667 20.4604 19.1667 20.0002V15.0002C19.1669 13.6885 20.1807 12.6 21.4892 12.5068C23.7157 13.5402 26.2844 13.5402 28.5108 12.5068C29.8192 12.6 30.8331 13.6885 30.8333 15.0002V20.0002Z" fill="#98999A"/>
<path d="M42.5 27.5C39.7385 27.5 37.5 29.7385 37.5 32.5C37.5 35.2615 39.7385 37.5 42.5 37.5C45.2615 37.5 47.5 35.2615 47.5 32.5C47.4973 29.7397 45.2603 27.5027 42.5 27.5ZM42.5 35.8333C40.6591 35.8333 39.1667 34.3409 39.1667 32.5C39.1667 30.6591 40.6591 29.1667 42.5 29.1667C44.3409 29.1667 45.8333 30.6591 45.8333 32.5C45.8333 34.3409 44.3409 35.8333 42.5 35.8333Z" fill="#98999A"/>
<path d="M45.8333 38.3335H45.6367L45.4608 38.4168C43.5961 39.3452 41.4039 39.3452 39.5392 38.4168L39.3633 38.3335H39.1667C36.8667 38.3362 35.0027 40.2002 35 42.5002V47.5002C35 48.8809 36.1193 50.0002 37.5 50.0002H47.5C48.8807 50.0002 50 48.8809 50 47.5002V42.5002C49.9973 40.2002 48.1333 38.3362 45.8333 38.3335ZM48.3333 47.5002C48.3333 47.9604 47.9602 48.3335 47.5 48.3335H37.5C37.0398 48.3335 36.6667 47.9604 36.6667 47.5002V42.5002C36.6669 41.1885 37.6807 40.1 38.9892 40.0068C41.2157 41.0402 43.7843 41.0402 46.0108 40.0068C47.3193 40.1 48.3331 41.1885 48.3333 42.5002V47.5002Z" fill="#98999A"/>
<path d="M7.5 27.5C4.73854 27.5 2.5 29.7385 2.5 32.5C2.5 35.2615 4.73854 37.5 7.5 37.5C10.2615 37.5 12.5 35.2615 12.5 32.5C12.4973 29.7397 10.2603 27.5027 7.5 27.5ZM7.5 35.8333C5.65906 35.8333 4.16667 34.3409 4.16667 32.5C4.16667 30.6591 5.65906 29.1667 7.5 29.1667C9.34094 29.1667 10.8333 30.6591 10.8333 32.5C10.8333 34.3409 9.34094 35.8333 7.5 35.8333Z" fill="#98999A"/>
<path d="M10.8333 38.3335H10.6367L10.4608 38.4168C8.59615 39.3452 6.40385 39.3452 4.53917 38.4168L4.36333 38.3335H4.16667C1.86667 38.3362 0.00270833 40.2002 0 42.5002V47.5002C0 48.8809 1.11927 50.0002 2.5 50.0002H12.5C13.8807 50.0002 15 48.8809 15 47.5002V42.5002C14.9973 40.2002 13.1333 38.3362 10.8333 38.3335ZM13.3333 47.5002C13.3333 47.9604 12.9602 48.3335 12.5 48.3335H2.5C2.03979 48.3335 1.66667 47.9604 1.66667 47.5002V42.5002C1.66688 41.1885 2.68073 40.1 3.98917 40.0068C6.21573 41.0402 8.78427 41.0402 11.0108 40.0068C12.3193 40.1 13.3331 41.1885 13.3333 42.5002V47.5002Z" fill="#98999A"/>
<path d="M33.2679 42.3206C33.2675 42.3196 33.267 42.3187 33.2666 42.3176C33.0862 41.8942 32.5967 41.6972 32.1734 41.8776C28.4104 43.4547 24.2312 43.7424 20.2876 42.696L21.0676 42.4668C21.5094 42.3374 21.7628 41.8745 21.6334 41.4326C21.504 40.9908 21.0411 40.7374 20.5992 40.8668L17.2659 41.8443C17.2534 41.8443 17.2442 41.8585 17.2326 41.8626C17.1554 41.8914 17.0829 41.9316 17.0176 41.9818C16.9886 41.9974 16.9608 42.0149 16.9342 42.0343C16.8463 42.1128 16.7766 42.2094 16.7301 42.3176C16.6849 42.4266 16.6633 42.5439 16.6667 42.6618C16.687 42.7746 16.7149 42.886 16.7501 42.9951C16.7551 43.0068 16.7501 43.0201 16.7592 43.0318L18.4259 46.221C18.639 46.6292 19.1427 46.7874 19.5509 46.5743C19.9591 46.3612 20.1174 45.8575 19.9042 45.4493L19.2259 44.1526C23.7065 45.4995 28.517 45.2378 32.8251 43.4126C33.2488 43.2334 33.4472 42.7444 33.2679 42.3206Z" fill="#98999A"/>
<path d="M47.2559 21.9107C46.9305 21.5854 46.403 21.5854 46.0776 21.9107L44.8984 23.0899C44.2084 15.7909 39.5744 9.45694 32.8267 6.58986C32.4033 6.40944 31.9138 6.60642 31.7334 7.02986C31.553 7.4533 31.75 7.94278 32.1734 8.12319C38.2265 10.6958 42.4342 16.3179 43.1959 22.8507L42.2559 21.9107C41.9249 21.5909 41.3974 21.6001 41.0776 21.9311C40.7657 22.254 40.7657 22.766 41.0776 23.089L43.5776 25.589C43.9026 25.9149 44.4303 25.9156 44.7561 25.5905C44.7566 25.59 44.7572 25.5894 44.7576 25.589L47.2576 23.089C47.5825 22.7632 47.5817 22.2357 47.2559 21.9107Z" fill="#98999A"/>
<path d="M18.3092 7.21599C18.3065 7.16734 18.2993 7.11911 18.2875 7.07182C18.2875 7.06432 18.2783 7.05932 18.275 7.05099C18.2717 7.04265 18.275 7.03682 18.275 7.03015C18.2523 6.98963 18.226 6.95109 18.1967 6.91515C18.1697 6.8663 18.1378 6.82026 18.1017 6.77765C18.0524 6.73401 17.9978 6.69682 17.9392 6.66682C17.9099 6.64192 17.8787 6.61932 17.8458 6.59932L14.5125 5.07682C14.0868 4.90203 13.5999 5.10546 13.4251 5.53119C13.2598 5.9338 13.4322 6.39588 13.8208 6.59182L15.5467 7.38099C9.04948 10.8582 4.99532 17.631 5 25.0002C5 25.4604 5.37313 25.8335 5.83334 25.8335C6.29355 25.8335 6.66667 25.4604 6.66667 25.0002C6.6625 18.5113 10.0939 12.5052 15.6858 9.21348L15.0833 10.4727C14.8847 10.8869 15.0588 11.3838 15.4725 11.5835C15.5849 11.6384 15.7082 11.6669 15.8333 11.6668C16.1533 11.6664 16.4448 11.4828 16.5833 11.1943L18.25 7.71682C18.25 7.70849 18.25 7.69932 18.2567 7.69099C18.2783 7.63401 18.2934 7.57474 18.3017 7.51432C18.3159 7.46942 18.3266 7.42349 18.3333 7.37682C18.3305 7.32255 18.3225 7.26869 18.3092 7.21599Z" fill="#98999A"/>
</svg>
