<svg width="65" height="65" viewBox="0 0 65 65" fill="none" xmlns="http://www.w3.org/2000/svg">
<path d="M32.5 0C28.9101 0 26 2.9101 26 6.5C26 10.0899 28.9101 13 32.5 13C36.0884 12.9965 38.9965 10.0884 39 6.5C39 2.9101 36.0899 0 32.5 0ZM32.5 10.8333C30.1068 10.8333 28.1667 8.89322 28.1667 6.5C28.1667 4.10678 30.1068 2.16667 32.5 2.16667C34.8932 2.16667 36.8333 4.10678 36.8333 6.5C36.8333 8.89322 34.8932 10.8333 32.5 10.8333Z" fill="white"/>
<path d="M36.8333 14.084H36.5777L36.3491 14.1977C33.925 15.4047 31.075 15.4047 28.6509 14.1977L28.4223 14.084H28.1667C25.1767 14.0875 22.7535 16.5107 22.75 19.5007V26.0007C22.75 27.7956 24.2051 29.2507 26 29.2507H39C40.7949 29.2507 42.25 27.7956 42.25 26.0007V19.5007C42.2465 16.5107 39.8233 14.0875 36.8333 14.084ZM40.0833 26.0007C40.0833 26.5989 39.5983 27.084 39 27.084H26C25.4017 27.084 24.9167 26.5989 24.9167 26.0007V19.5007C24.9169 17.7955 26.2349 16.3804 27.9359 16.2593C30.8304 17.6027 34.1697 17.6027 37.0641 16.2593C38.7649 16.3804 40.0831 17.7955 40.0833 19.5007V26.0007Z" fill="white"/>
<path d="M55.25 35.75C51.6601 35.75 48.75 38.6601 48.75 42.25C48.75 45.8399 51.6601 48.75 55.25 48.75C58.8399 48.75 61.75 45.8399 61.75 42.25C61.7465 38.6616 58.8384 35.7535 55.25 35.75ZM55.25 46.5833C52.8568 46.5833 50.9167 44.6432 50.9167 42.25C50.9167 39.8568 52.8568 37.9167 55.25 37.9167C57.6432 37.9167 59.5833 39.8568 59.5833 42.25C59.5833 44.6432 57.6432 46.5833 55.25 46.5833Z" fill="white"/>
<path d="M59.5833 49.834H59.3277L59.0991 49.9423C56.675 51.1491 53.825 51.1491 51.4009 49.9423L51.1723 49.834H50.9167C47.9267 49.8375 45.5035 52.2607 45.5 55.2507V61.7507C45.5 63.5456 46.9551 65.0007 48.75 65.0007H61.75C63.5449 65.0007 65 63.5456 65 61.7507V55.2507C64.9965 52.2607 62.5733 49.8375 59.5833 49.834ZM62.8333 61.7507C62.8333 62.3489 62.3483 62.834 61.75 62.834H48.75C48.1517 62.834 47.6667 62.3489 47.6667 61.7507V55.2507C47.6669 53.5455 48.9849 52.1304 50.6859 52.0093C53.5804 53.3527 56.9196 53.3527 59.8141 52.0093C61.5151 52.1304 62.8331 53.5455 62.8333 55.2507V61.7507Z" fill="white"/>
<path d="M9.75 35.75C6.1601 35.75 3.25 38.6601 3.25 42.25C3.25 45.8399 6.1601 48.75 9.75 48.75C13.3399 48.75 16.25 45.8399 16.25 42.25C16.2465 38.6616 13.3384 35.7535 9.75 35.75ZM9.75 46.5833C7.35678 46.5833 5.41667 44.6432 5.41667 42.25C5.41667 39.8568 7.35678 37.9167 9.75 37.9167C12.1432 37.9167 14.0833 39.8568 14.0833 42.25C14.0833 44.6432 12.1432 46.5833 9.75 46.5833Z" fill="white"/>
<path d="M14.0833 49.834H13.8277L13.5991 49.9423C11.175 51.1491 8.32501 51.1491 5.90092 49.9423L5.67233 49.834H5.41667C2.42667 49.8375 0.00352083 52.2607 0 55.2507V61.7507C0 63.5456 1.45505 65.0007 3.25 65.0007H16.25C18.0449 65.0007 19.5 63.5456 19.5 61.7507V55.2507C19.4965 52.2607 17.0733 49.8375 14.0833 49.834ZM17.3333 61.7507C17.3333 62.3489 16.8483 62.834 16.25 62.834H3.25C2.65173 62.834 2.16667 62.3489 2.16667 61.7507V55.2507C2.16694 53.5455 3.48495 52.1304 5.18592 52.0093C8.08045 53.3527 11.4196 53.3527 14.3141 52.0093C16.0151 52.1304 17.3331 53.5455 17.3333 55.2507V61.7507Z" fill="white"/>
<path d="M43.2482 55.0159C43.2477 55.0146 43.2471 55.0134 43.2466 55.0121C43.012 54.4616 42.3757 54.2055 41.8254 54.4401C36.9335 56.4903 31.5005 56.8643 26.3738 55.5039L27.3878 55.206C27.9622 55.0378 28.2916 54.436 28.1234 53.8616C27.9552 53.2871 27.3534 52.9578 26.779 53.126L22.4456 54.3967C22.4294 54.3967 22.4175 54.4151 22.4023 54.4206C22.302 54.4579 22.2077 54.5102 22.1228 54.5755C22.0852 54.5958 22.049 54.6185 22.0145 54.6437C21.9002 54.7457 21.8096 54.8714 21.7491 55.0121C21.6903 55.1537 21.6623 55.3062 21.6667 55.4595C21.6931 55.6061 21.7293 55.7509 21.7751 55.8928C21.7816 55.908 21.7751 55.9253 21.787 55.9405L23.9536 60.0864C24.2307 60.6171 24.8854 60.8228 25.4161 60.5457C25.9468 60.2687 26.1525 59.6139 25.8755 59.0832L24.9936 57.3976C30.8185 59.1485 37.0721 58.8082 42.6726 56.4356C43.2234 56.2025 43.4813 55.5669 43.2482 55.0159Z" fill="white"/>
<path d="M61.4325 28.4845C61.0095 28.0616 60.3237 28.0616 59.9007 28.4845L58.3677 30.0175C57.4707 20.5288 51.4465 12.2947 42.6746 8.56745C42.1241 8.33291 41.4878 8.58899 41.2532 9.13945C41.0187 9.68992 41.2748 10.3262 41.8252 10.5608C49.6943 13.9052 55.1643 21.2139 56.1545 29.7065L54.9325 28.4845C54.5021 28.0688 53.8164 28.0807 53.4007 28.5111C52.9952 28.9309 52.9952 29.5964 53.4007 30.0164L56.6507 33.2664C57.0732 33.69 57.7592 33.6909 58.1828 33.2683C58.1834 33.2676 58.1841 33.2669 58.1847 33.2664L61.4347 30.0164C61.857 29.5928 61.8561 28.907 61.4325 28.4845Z" fill="white"/>
<path d="M23.8019 9.37995C23.7984 9.31671 23.7891 9.25401 23.7738 9.19253C23.7738 9.18278 23.7618 9.17628 23.7575 9.16545C23.7532 9.15462 23.7575 9.14703 23.7575 9.13837C23.728 9.08569 23.6939 9.03559 23.6557 8.98887C23.6206 8.92536 23.5792 8.8655 23.5322 8.81012C23.4681 8.75338 23.3972 8.70503 23.3209 8.66603C23.2829 8.63367 23.2422 8.60428 23.1996 8.57828L18.8663 6.59903C18.3128 6.37181 17.6799 6.63627 17.4526 7.18972C17.2377 7.71311 17.4618 8.31382 17.9671 8.56853L20.2107 9.59445C11.7643 14.1148 6.49391 22.9194 6.50001 32.4994C6.50001 33.0976 6.98507 33.5827 7.58334 33.5827C8.18161 33.5827 8.66667 33.0976 8.66667 32.4994C8.66126 24.0639 13.122 16.2559 20.3916 11.9767L19.6083 13.6136C19.3501 14.1522 19.5764 14.7981 20.1143 15.0577C20.2604 15.1291 20.4207 15.1662 20.5833 15.166C20.9993 15.1655 21.3782 14.9268 21.5583 14.5518L23.725 10.031C23.725 10.0202 23.725 10.0083 23.7337 9.99745C23.7618 9.92338 23.7815 9.84633 23.7922 9.76778C23.8107 9.70942 23.8245 9.6497 23.8333 9.58903C23.8297 9.51848 23.8193 9.44847 23.8019 9.37995Z" fill="white"/>
</svg>
