<svg width="177" height="144" viewBox="0 0 177 144" fill="none" xmlns="http://www.w3.org/2000/svg">
<path d="M7.01057 75.7148C12.1219 38.3476 57.7548 5.83723 109.291 13.2858C160.827 20.7345 174.84 38.2708 169.729 75.638C164.617 113.005 118.695 137.259 67.1593 129.81C15.6231 122.362 1.89921 113.082 7.01057 75.7148Z" fill="#D3D3D3" fill-opacity="0.23"/>
<path d="M142.399 42.6945H37.9653V109.578H142.399V42.6945Z" fill="#D3D3D3"/>
<path d="M139.412 51.0835H40.9514V105.622H139.412V51.0835Z" fill="white"/>
<path d="M142.354 42.6353H37.9204V47.072H142.354V42.6353Z" fill="#4E4C82" fill-opacity="0.5"/>
<path d="M41.2173 45.7259C41.6715 45.7259 42.0396 45.3578 42.0396 44.9036C42.0396 44.4495 41.6715 44.0813 41.2173 44.0813C40.7632 44.0813 40.395 44.4495 40.395 44.9036C40.395 45.3578 40.7632 45.7259 41.2173 45.7259Z" fill="white"/>
<path d="M44.3389 45.7259C44.7931 45.7259 45.1612 45.3578 45.1612 44.9036C45.1612 44.4495 44.7931 44.0813 44.3389 44.0813C43.8848 44.0813 43.5166 44.4495 43.5166 44.9036C43.5166 45.3578 43.8848 45.7259 44.3389 45.7259Z" fill="white"/>
<path d="M47.46 45.7259C47.9142 45.7259 48.2823 45.3578 48.2823 44.9036C48.2823 44.4495 47.9142 44.0813 47.46 44.0813C47.0059 44.0813 46.6377 44.4495 46.6377 44.9036C46.6377 45.3578 47.0059 45.7259 47.46 45.7259Z" fill="white"/>
<path d="M75.1978 56.7423H49.8979V99.9629H75.1978V56.7423Z" fill="#D3D3D3"/>
<path d="M100.648 56.7423H79.5647V68.6393H100.648V56.7423Z" fill="#4E4C82" fill-opacity="0.5"/>
<path d="M100.648 71.9523H79.5647V84.7528H100.648V71.9523Z" fill="#D3D3D3"/>
<path d="M100.648 88.0658H79.5647V99.9628H100.648V88.0658Z" fill="#D3D3D3"/>
<path d="M130.466 56.7423H105.166V75.5776H130.466V56.7423Z" fill="#D3D3D3"/>
<path d="M130.466 81.1278H105.166V99.9631H130.466V81.1278Z" fill="#4E4C82" fill-opacity="0.5"/>
<path d="M90.3236 62.1202L89.9934 62.0325L97.2005 34.9203H139.005V35.2619H97.4631L90.3236 62.1202Z" fill="#98999A"/>
<path d="M142.421 38.6777C141.712 38.6777 141.019 38.4674 140.429 38.0733C139.839 37.6791 139.379 37.119 139.108 36.4636C138.836 35.8082 138.765 35.0871 138.904 34.3913C139.042 33.6956 139.384 33.0565 139.885 32.5549C140.387 32.0533 141.026 31.7117 141.722 31.5733C142.417 31.4349 143.139 31.5059 143.794 31.7774C144.449 32.0489 145.009 32.5086 145.404 33.0984C145.798 33.6882 146.008 34.3817 146.008 35.0911C146.007 36.042 145.629 36.9536 144.956 37.626C144.284 38.2984 143.372 38.6766 142.421 38.6777ZM142.421 31.846C141.78 31.846 141.152 32.0363 140.619 32.3929C140.085 32.7494 139.669 33.2563 139.423 33.8492C139.178 34.4422 139.113 35.0947 139.239 35.7241C139.364 36.3536 139.673 36.9318 140.127 37.3857C140.581 37.8395 141.159 38.1486 141.788 38.2738C142.418 38.399 143.07 38.3347 143.663 38.0891C144.256 37.8435 144.763 37.4276 145.12 36.8939C145.476 36.3603 145.666 35.7329 145.666 35.0911C145.665 34.2307 145.323 33.4059 144.715 32.7975C144.107 32.1892 143.282 31.847 142.421 31.846Z" fill="#98999A"/>
<path d="M142.421 36.4572C143.176 36.4572 143.788 35.8454 143.788 35.0908C143.788 34.3362 143.176 33.7245 142.421 33.7245C141.667 33.7245 141.055 34.3362 141.055 35.0908C141.055 35.8454 141.667 36.4572 142.421 36.4572Z" fill="#4E4C82" fill-opacity="0.5"/>
<path d="M111.127 117.584H69.3218V117.242H110.864L118.004 90.3839L118.334 90.4717L111.127 117.584Z" fill="#98999A"/>
<path d="M65.906 121C65.1966 121 64.5032 120.79 63.9134 120.395C63.3235 120.001 62.8638 119.441 62.5924 118.786C62.3209 118.13 62.2499 117.409 62.3883 116.713C62.5266 116.018 62.8682 115.379 63.3698 114.877C63.8714 114.375 64.5105 114.034 65.2063 113.895C65.902 113.757 66.6232 113.828 67.2786 114.1C67.9339 114.371 68.4941 114.831 68.8882 115.421C69.2823 116.01 69.4927 116.704 69.4927 117.413C69.4916 118.364 69.1134 119.276 68.441 119.948C67.7686 120.621 66.8569 120.999 65.906 121ZM65.906 114.168C65.2642 114.168 64.6368 114.358 64.1031 114.715C63.5695 115.072 63.1535 115.578 62.9079 116.171C62.6623 116.764 62.5981 117.417 62.7233 118.046C62.8485 118.676 63.1575 119.254 63.6114 119.708C64.0652 120.162 64.6434 120.471 65.2729 120.596C65.9024 120.721 66.5549 120.657 67.1478 120.411C67.7408 120.166 68.2476 119.75 68.6042 119.216C68.9608 118.682 69.1511 118.055 69.1511 117.413C69.1501 116.553 68.8079 115.728 68.1995 115.12C67.5912 114.511 66.7663 114.169 65.906 114.168Z" fill="#98999A"/>
<path d="M65.9059 118.78C66.6605 118.78 67.2722 118.168 67.2722 117.413C67.2722 116.659 66.6605 116.047 65.9059 116.047C65.1513 116.047 64.5396 116.659 64.5396 117.413C64.5396 118.168 65.1513 118.78 65.9059 118.78Z" fill="#4E4C82" fill-opacity="0.5"/>
</svg>
