<svg width="236" height="192" viewBox="0 0 236 192" fill="none" xmlns="http://www.w3.org/2000/svg">
<path d="M8.15069 101.333C14.9915 51.3226 76.0644 7.81227 145.038 17.7811C214.011 27.75 232.766 51.2198 225.925 101.23C219.084 151.241 157.624 183.701 88.6508 173.732C19.6773 163.763 1.30989 151.344 8.15069 101.333Z" fill="#D3D3D3" fill-opacity="0.23"/>
<path d="M189.348 57.1404H49.5789V146.655H189.348V57.1404Z" fill="#D3D3D3"/>
<path d="M185.351 68.3678H53.5754V141.359H185.351V68.3678Z" fill="white"/>
<path d="M189.288 57.0612H49.5188V62.9991H189.288V57.0612Z" fill="#4E4C82" fill-opacity="0.5"/>
<path d="M53.9314 61.1975C54.5392 61.1975 55.0319 60.7048 55.0319 60.097C55.0319 59.4892 54.5392 58.9965 53.9314 58.9965C53.3235 58.9965 52.8308 59.4892 52.8308 60.097C52.8308 60.7048 53.3235 61.1975 53.9314 61.1975Z" fill="white"/>
<path d="M58.1091 61.1975C58.7169 61.1975 59.2096 60.7048 59.2096 60.097C59.2096 59.4892 58.7169 58.9965 58.1091 58.9965C57.5013 58.9965 57.0085 59.4892 57.0085 60.097C57.0085 60.7048 57.5013 61.1975 58.1091 61.1975Z" fill="white"/>
<path d="M62.2861 61.1975C62.8939 61.1975 63.3866 60.7048 63.3866 60.097C63.3866 59.4892 62.8939 58.9965 62.2861 58.9965C61.6783 58.9965 61.1855 59.4892 61.1855 60.097C61.1855 60.7048 61.6783 61.1975 62.2861 61.1975Z" fill="white"/>
<path d="M99.4092 75.9413H65.5491V133.786H99.4092V75.9413Z" fill="#D3D3D3"/>
<path d="M133.47 75.9413H105.253V91.8636H133.47V75.9413Z" fill="#4E4C82" fill-opacity="0.5"/>
<path d="M133.47 96.2976H105.253V113.429H133.47V96.2976Z" fill="#D3D3D3"/>
<path d="M133.47 117.863H105.253V133.785H133.47V117.863Z" fill="#D3D3D3"/>
<path d="M173.377 75.9413H139.517V101.15H173.377V75.9413Z" fill="#D3D3D3"/>
<path d="M173.377 108.578H139.517V133.786H173.377V108.578Z" fill="#4E4C82" fill-opacity="0.5"/>
<path d="M119.653 83.1388L119.211 83.0214L128.856 46.7357H184.806V47.1929H129.208L119.653 83.1388Z" fill="#98999A"/>
<path d="M189.378 51.7645C188.428 51.7645 187.5 51.483 186.711 50.9555C185.922 50.4281 185.306 49.6784 184.943 48.8012C184.58 47.9241 184.485 46.959 184.67 46.0278C184.855 45.0967 185.312 44.2413 185.984 43.57C186.655 42.8987 187.51 42.4415 188.441 42.2563C189.373 42.0711 190.338 42.1661 191.215 42.5295C192.092 42.8928 192.842 43.508 193.369 44.2974C193.897 45.0868 194.178 46.0149 194.178 46.9643C194.177 48.2369 193.67 49.457 192.771 50.3569C191.871 51.2569 190.651 51.763 189.378 51.7645V51.7645ZM189.378 42.6212C188.519 42.6212 187.679 42.8759 186.965 43.3532C186.251 43.8304 185.694 44.5087 185.365 45.3023C185.037 46.0959 184.951 46.9691 185.118 47.8116C185.286 48.654 185.699 49.4279 186.307 50.0353C186.914 50.6427 187.688 51.0563 188.531 51.2239C189.373 51.3915 190.246 51.3055 191.04 50.9767C191.833 50.648 192.512 50.0914 192.989 49.3772C193.466 48.6629 193.721 47.8233 193.721 46.9643C193.72 45.8128 193.262 44.7089 192.447 43.8947C191.633 43.0805 190.529 42.6225 189.378 42.6212V42.6212Z" fill="#98999A"/>
<path d="M189.378 48.7927C190.388 48.7927 191.206 47.974 191.206 46.964C191.206 45.9541 190.388 45.1354 189.378 45.1354C188.368 45.1354 187.549 45.9541 187.549 46.964C187.549 47.974 188.368 48.7927 189.378 48.7927Z" fill="#4E4C82" fill-opacity="0.5"/>
<path d="M147.495 157.369H91.5449V156.912H147.143L156.698 120.966L157.14 121.083L147.495 157.369Z" fill="#98999A"/>
<path d="M86.9733 161.941C86.0239 161.941 85.0958 161.659 84.3065 161.132C83.5171 160.604 82.9018 159.854 82.5385 158.977C82.1752 158.1 82.0801 157.135 82.2653 156.204C82.4506 155.273 82.9077 154.417 83.579 153.746C84.2504 153.075 85.1057 152.618 86.0368 152.432C86.968 152.247 87.9332 152.342 88.8103 152.705C89.6874 153.069 90.4371 153.684 90.9645 154.473C91.492 155.263 91.7735 156.191 91.7735 157.14C91.7721 158.413 91.2659 159.633 90.366 160.533C89.4661 161.433 88.246 161.939 86.9733 161.941ZM86.9733 152.797C86.1143 152.797 85.2747 153.052 84.5604 153.529C83.8462 154.006 83.2896 154.685 82.9609 155.478C82.6321 156.272 82.5461 157.145 82.7137 157.988C82.8813 158.83 83.2949 159.604 83.9023 160.211C84.5097 160.819 85.2836 161.232 86.126 161.4C86.9685 161.567 87.8417 161.481 88.6353 161.153C89.4289 160.824 90.1072 160.267 90.5844 159.553C91.0617 158.839 91.3164 157.999 91.3164 157.14C91.3151 155.989 90.8571 154.885 90.0429 154.071C89.2287 153.257 88.1248 152.799 86.9733 152.797V152.797Z" fill="#98999A"/>
<path d="M86.9732 158.969C87.9831 158.969 88.8018 158.15 88.8018 157.14C88.8018 156.13 87.9831 155.312 86.9732 155.312C85.9632 155.312 85.1445 156.13 85.1445 157.14C85.1445 158.15 85.9632 158.969 86.9732 158.969Z" fill="#4E4C82" fill-opacity="0.5"/>
</svg>
