<svg width="236" height="192" viewBox="0 0 236 192" fill="none" xmlns="http://www.w3.org/2000/svg">
<path d="M8.15045 101.333C14.9913 51.3227 76.0642 7.81239 145.038 17.7813C214.011 27.7501 232.765 51.2199 225.924 101.23C219.084 151.241 157.624 183.701 88.6506 173.732C19.6771 163.763 1.30965 151.344 8.15045 101.333Z" fill="#D3D3D3" fill-opacity="0.23"/>
<path d="M99.4005 89.1609C83.1892 89.1609 70 102.35 70 118.561C70 124.206 71.5948 129.662 74.6191 134.387L70.6811 145.423C70.5003 145.931 70.627 146.497 71.0085 146.878C71.3895 147.259 71.9556 147.386 72.4627 147.205L83.4742 143.276C88.2239 146.344 93.7138 147.961 99.4 147.961C115.611 147.961 128.801 134.772 128.801 118.561C128.801 102.35 115.612 89.1609 99.4005 89.1609ZM99.4005 145.173C94.0378 145.173 88.867 143.583 84.4481 140.576C84.2139 140.417 83.94 140.335 83.6639 140.335C83.506 140.335 83.3476 140.361 83.1953 140.416L74.2967 143.591L77.479 134.671C77.6285 134.253 77.5694 133.79 77.3217 133.422C74.3564 129.026 72.789 123.887 72.789 118.562C72.789 103.888 84.7265 91.9504 99.4005 91.9504C114.075 91.9504 126.012 103.888 126.012 118.562C126.012 133.235 114.075 145.173 99.4005 145.173Z" fill="#98999A" fill-opacity="0.5"/>
<path d="M173 77C173 91.9117 162.5 100.5 146 104C131.088 104 119 91.9117 119 77C119 62.0883 131.088 50 146 50C160.912 50 173 62.0883 173 77Z" fill="white"/>
<path d="M171.266 101.713L161.357 98.1058L167.5 91.5L171.266 101.713Z" fill="white"/>
<path d="M98.9454 145.364C84.035 145.167 75.5861 134.555 72.3044 118.01C72.5013 103.1 84.7482 91.172 99.6586 91.369C114.569 91.5659 126.497 103.813 126.3 118.723C126.103 133.634 113.856 145.561 98.9454 145.364Z" fill="white"/>
<path d="M74.2576 143.304L77.9954 133.443L84.5194 139.673L74.2576 143.304Z" fill="white"/>
<path d="M170.715 92.2259C173.739 87.5008 175.334 82.0449 175.334 76.4005C175.334 60.1892 162.145 47 145.933 47C129.722 47 116.533 60.1892 116.533 76.4005C116.533 92.6119 129.722 105.801 145.933 105.801C151.618 105.801 157.109 104.183 161.858 101.116L172.871 105.045C173.377 105.226 173.944 105.099 174.325 104.717C174.706 104.336 174.833 103.77 174.652 103.263L170.715 92.2259ZM162.138 98.2546C161.721 98.1045 161.254 98.1642 160.886 98.4152C156.466 101.423 151.297 103.012 145.933 103.012C131.259 103.012 119.322 91.0746 119.322 76.4005C119.322 61.7265 131.259 49.789 145.933 49.789C160.607 49.789 172.545 61.727 172.545 76.4005C172.545 81.7253 170.977 86.8638 168.012 91.2609C167.764 91.6285 167.705 92.092 167.855 92.5093L171.037 101.43L162.138 98.2546Z" fill="#98999A" fill-opacity="0.5"/>
<path d="M98.9813 128.419C97.6872 128.419 96.8935 128.993 96.4562 129.475C95.8716 130.117 95.562 130.931 95.562 131.829C95.562 132.729 95.88 133.538 96.4818 134.171C96.9186 134.631 97.7068 135.179 98.9813 135.179C100.22 135.179 101.009 134.647 101.452 134.201C102.085 133.564 102.42 132.743 102.42 131.829C102.42 130.916 102.096 130.092 101.48 129.446C100.84 128.774 99.9764 128.419 98.9813 128.419Z" fill="#4E4C82" fill-opacity="0.5"/>
<path d="M106.154 104.44C104.512 102.783 102.295 101.943 99.5666 101.943C96.9276 101.943 94.6992 102.748 92.9432 104.334C91.141 105.963 90.2111 108.133 90.1793 110.783V110.783C90.1671 111.797 90.9854 112.625 91.9989 112.625H94.3204C95.3133 112.625 96.1227 111.829 96.1394 110.836C96.1573 109.821 96.4496 109.063 97.0336 108.518C97.6455 107.948 98.4738 107.671 99.5666 107.671C100.595 107.671 101.343 107.937 101.852 108.484C102.397 109.069 102.662 109.915 102.662 111.072C102.662 111.684 102.589 112.222 102.445 112.672C102.301 113.122 102.096 113.538 101.833 113.91C101.623 114.209 101.057 114.875 99.5582 116.35C98.0828 117.801 97.1284 119.076 96.6387 120.249C96.1545 121.408 95.904 122.839 95.8739 124.621V124.621C95.8566 125.638 96.676 126.472 97.6935 126.472H100.016C101.021 126.472 101.836 125.658 101.836 124.653V124.652C101.836 122.825 102.346 121.544 103.451 120.613C105.407 118.816 106.72 117.246 107.463 115.815C108.233 114.332 108.623 112.722 108.623 111.031C108.622 108.311 107.792 106.093 106.154 104.44Z" fill="#4E4C82" fill-opacity="0.5"/>
<path d="M148.092 86.5896H143.775C143.219 86.5896 142.769 87.0403 142.769 87.5964V89.3931C142.769 91.1413 144.185 92.5581 145.934 92.5581C147.682 92.5581 149.098 91.1413 149.098 89.3931V87.5964C149.098 87.0403 148.648 86.5896 148.092 86.5896Z" fill="#4E4C82" fill-opacity="0.5"/>
<path d="M146.062 85.4571C146.284 85.4571 146.464 85.2769 146.464 85.0544V76.1948C146.464 75.8997 146.223 75.661 145.928 75.6643C145.638 75.6671 145.403 75.9042 145.403 76.1948V85.0544C145.403 85.2769 145.583 85.4571 145.806 85.4571H146.062Z" fill="#4E4C82" fill-opacity="0.5"/>
<path d="M144.932 64.4805C140.98 64.9167 137.751 68.0566 137.219 71.9963C136.836 74.8338 137.807 77.4538 139.577 79.3035C141.078 80.8715 141.985 82.908 142.083 85.0656C142.093 85.2831 142.266 85.4571 142.484 85.4571C142.706 85.4571 142.886 85.277 142.886 85.0544V74.7357C142.676 74.5862 142.474 74.4238 142.284 74.2426C141.794 73.7751 141.698 72.9897 142.133 72.4715C142.6 71.9165 143.42 71.8741 143.941 72.3444C144.259 72.6311 144.597 72.905 145.005 73.036C146.026 73.3635 147.063 73.1041 147.775 72.3968C148.218 71.9567 148.953 71.9004 149.444 72.2852C150.051 72.761 150.09 73.6413 149.562 74.1695C149.38 74.3513 149.184 74.5125 148.982 74.6637V85.0544C148.982 85.277 149.162 85.4571 149.384 85.4571C149.602 85.4571 149.775 85.2831 149.785 85.0656C149.882 82.913 150.78 80.8765 152.28 79.3152C153.798 77.7344 154.731 75.588 154.731 73.2229C154.731 68.0342 150.239 63.8943 144.932 64.4805Z" fill="#4E4C82" fill-opacity="0.5"/>
<path d="M134.911 73.1175C134.911 72.5987 134.491 72.1787 133.972 72.1787H131.654C131.136 72.1787 130.715 72.5993 130.715 73.1175C130.715 73.6362 131.136 74.0563 131.654 74.0563H133.972C134.491 74.0563 134.911 73.6362 134.911 73.1175Z" fill="#4E4C82" fill-opacity="0.5"/>
<path d="M160.213 72.1787H157.896C157.377 72.1787 156.957 72.5993 156.957 73.1175C156.957 73.6362 157.377 74.0563 157.896 74.0563H160.213C160.732 74.0563 161.152 73.6357 161.152 73.1175C161.152 72.5987 160.732 72.1787 160.213 72.1787Z" fill="#4E4C82" fill-opacity="0.5"/>
<path d="M145.934 62.0941C146.453 62.0941 146.873 61.6736 146.873 61.1554V58.8377C146.873 58.3189 146.453 57.8989 145.934 57.8989C145.415 57.8989 144.995 58.3195 144.995 58.8377V61.1554C144.995 61.6741 145.415 62.0941 145.934 62.0941Z" fill="#4E4C82" fill-opacity="0.5"/>
<path d="M136.812 65.3228C137.178 65.6893 137.773 65.6893 138.139 65.3228C138.506 64.9563 138.506 64.3617 138.139 63.9952L136.501 62.3564C136.134 61.9899 135.54 61.9899 135.173 62.3564C134.807 62.7229 134.807 63.3175 135.173 63.684L136.812 65.3228Z" fill="#4E4C82" fill-opacity="0.5"/>
<path d="M155.056 80.9123C154.69 80.5458 154.095 80.5458 153.728 80.9123C153.362 81.2788 153.362 81.8734 153.728 82.2399L155.367 83.8787C155.734 84.2452 156.328 84.2452 156.695 83.8787C157.061 83.5122 157.061 82.9176 156.695 82.5511L155.056 80.9123Z" fill="#4E4C82" fill-opacity="0.5"/>
<path d="M136.812 80.9122L135.173 82.5511C134.806 82.9175 134.806 83.5121 135.173 83.8786C135.539 84.2451 136.134 84.2451 136.5 83.8786L138.139 82.2398C138.506 81.8733 138.506 81.2787 138.139 80.9122C137.773 80.5452 137.178 80.5452 136.812 80.9122Z" fill="#4E4C82" fill-opacity="0.5"/>
<path d="M155.056 65.3228L156.695 63.684C157.061 63.3175 157.061 62.7229 156.695 62.3564C156.328 61.9899 155.734 61.9899 155.367 62.3564L153.728 63.9952C153.362 64.3617 153.362 64.9563 153.728 65.3228C154.095 65.6893 154.69 65.6898 155.056 65.3228Z" fill="#4E4C82" fill-opacity="0.5"/>
</svg>
