<svg width="566" height="346" viewBox="0 0 566 346" fill="none" xmlns="http://www.w3.org/2000/svg">
<path d="M145 337.087C222.92 337.087 286.087 273.92 286.087 196C286.087 118.08 222.92 54.9134 145 54.9134C67.0802 54.9134 3.91357 118.08 3.91357 196C3.91357 273.92 67.0802 337.087 145 337.087Z" fill="#D3D3D3" fill-opacity="0.23"/>
<path d="M145 310.631C208.309 310.631 259.631 259.309 259.631 196C259.631 132.691 208.309 81.3693 145 81.3693C81.6915 81.3693 30.3696 132.691 30.3696 196C30.3696 259.309 81.6915 310.631 145 310.631Z" fill="white"/>
<path d="M145 202.855C148.786 202.855 151.855 199.786 151.855 196C151.855 192.214 148.786 189.145 145 189.145C141.214 189.145 138.145 192.214 138.145 196C138.145 199.786 141.214 202.855 145 202.855Z" fill="url(#paint0_linear)"/>
<path d="M147.586 196.845L143.36 195.425L181.395 106.405L185.622 108.391L147.586 196.845Z" fill="url(#paint1_linear)"/>
<path d="M181.848 107.223L144.618 195.4L147.328 196.545L184.557 108.367L181.848 107.223Z" fill="#4E4C82" fill-opacity="0.5"/>
<path d="M168.717 243.333L144.205 197.69L147.586 196L172.943 240.797L168.717 243.333Z" fill="url(#paint2_linear)"/>
<path d="M147.259 196.306L144.674 197.71L169.167 242.783L171.751 241.378L147.259 196.306Z" fill="#4E4C82" fill-opacity="0.5"/>
<path d="M251.795 201.883C253.42 201.883 254.737 200.566 254.737 198.941C254.737 197.317 253.42 196 251.795 196C250.171 196 248.854 197.317 248.854 198.941C248.854 200.566 250.171 201.883 251.795 201.883Z" fill="#CAD1DD" fill-opacity="0.41"/>
<path d="M56.319 145.097C57.374 143.27 56.7479 140.933 54.9206 139.878C53.0933 138.823 50.7567 139.449 49.7017 141.277C48.6467 143.104 49.2728 145.441 51.1001 146.496C52.9274 147.551 55.264 146.924 56.319 145.097Z" fill="url(#paint3_linear)"/>
<path d="M55.8976 255.244C57.7249 254.189 58.351 251.853 57.296 250.025C56.241 248.198 53.9045 247.572 52.0772 248.627C50.2499 249.682 49.6238 252.019 50.6788 253.846C51.7338 255.673 54.0703 256.299 55.8976 255.244Z" fill="url(#paint4_linear)"/>
<path d="M38.2126 202.762C40.3225 202.762 42.033 201.051 42.033 198.941C42.033 196.831 40.3225 195.121 38.2126 195.121C36.1026 195.121 34.3921 196.831 34.3921 198.941C34.3921 201.051 36.1026 202.762 38.2126 202.762Z" fill="url(#paint5_linear)"/>
<path d="M93.9079 107.307C95.7352 106.252 96.3613 103.915 95.3063 102.088C94.2513 100.261 91.9147 99.6345 90.0874 100.689C88.2601 101.744 87.6341 104.081 88.689 105.908C89.744 107.736 92.0806 108.362 93.9079 107.307Z" fill="url(#paint6_linear)"/>
<path d="M146.815 93.5954C148.642 92.5404 149.268 90.2039 148.213 88.3766C147.159 86.5493 144.822 85.9232 142.995 86.9782C141.167 88.0332 140.541 90.3697 141.596 92.197C142.651 94.0243 144.988 94.6504 146.815 93.5954Z" fill="url(#paint7_linear)"/>
<path d="M199.721 107.311C201.548 106.256 202.174 103.919 201.119 102.092C200.064 100.265 197.728 99.6387 195.9 100.694C194.073 101.749 193.447 104.085 194.502 105.913C195.557 107.74 197.894 108.366 199.721 107.311Z" fill="url(#paint8_linear)"/>
<path d="M238.909 146.502C240.737 145.447 241.363 143.111 240.308 141.284C239.253 139.456 236.916 138.83 235.089 139.885C233.262 140.94 232.636 143.277 233.691 145.104C234.746 146.931 237.082 147.557 238.909 146.502Z" fill="url(#paint9_linear)"/>
<path d="M237.933 255.253C239.761 254.198 240.387 251.861 239.332 250.034C238.277 248.207 235.94 247.581 234.113 248.636C232.286 249.691 231.659 252.027 232.714 253.854C233.769 255.682 236.106 256.308 237.933 255.253Z" fill="url(#paint10_linear)"/>
<path d="M197.761 293.46C199.589 292.405 200.215 290.068 199.16 288.241C198.105 286.414 195.768 285.788 193.941 286.843C192.114 287.898 191.488 290.234 192.543 292.062C193.598 293.889 195.934 294.515 197.761 293.46Z" fill="url(#paint11_linear)"/>
<path d="M146.811 305.223C148.639 304.168 149.265 301.831 148.21 300.004C147.155 298.176 144.818 297.55 142.991 298.605C141.163 299.66 140.537 301.997 141.592 303.824C142.647 305.651 144.984 306.278 146.811 305.223Z" fill="url(#paint12_linear)"/>
<path d="M95.8683 293.464C97.6956 292.409 98.3217 290.073 97.2667 288.245C96.2117 286.418 93.8752 285.792 92.0479 286.847C90.2206 287.902 89.5945 290.238 90.6495 292.066C91.7045 293.893 94.041 294.519 95.8683 293.464Z" fill="url(#paint13_linear)"/>
<path d="M145 93.1265C146.625 93.1265 147.941 91.8095 147.941 90.185C147.941 88.5605 146.625 87.2436 145 87.2436C143.376 87.2436 142.059 88.5605 142.059 90.185C142.059 91.8095 143.376 93.1265 145 93.1265Z" fill="#4E4C82" fill-opacity="0.5"/>
<path d="M200.454 105.83C201.266 104.423 200.784 102.624 199.377 101.811C197.971 100.999 196.172 101.481 195.359 102.888C194.547 104.295 195.029 106.094 196.436 106.906C197.843 107.718 199.642 107.236 200.454 105.83Z" fill="#4E4C82" fill-opacity="0.5"/>
<path d="M238.104 145.641C239.511 144.828 239.993 143.029 239.181 141.623C238.369 140.216 236.57 139.734 235.163 140.546C233.756 141.358 233.274 143.157 234.086 144.564C234.899 145.971 236.698 146.453 238.104 145.641Z" fill="#4E4C82" fill-opacity="0.5"/>
<path d="M238.569 253.408C239.381 252.001 238.899 250.202 237.492 249.39C236.085 248.578 234.286 249.06 233.474 250.467C232.662 251.874 233.144 253.673 234.551 254.485C235.958 255.297 237.757 254.815 238.569 253.408Z" fill="#4E4C82" fill-opacity="0.5"/>
<path d="M197.322 292.498C198.729 291.685 199.211 289.886 198.398 288.48C197.586 287.073 195.787 286.591 194.38 287.403C192.973 288.215 192.491 290.014 193.304 291.421C194.116 292.828 195.915 293.31 197.322 292.498Z" fill="#4E4C82" fill-opacity="0.5"/>
<path d="M93.562 106.915C94.9689 106.103 95.4509 104.304 94.6386 102.897C93.8264 101.49 92.0274 101.008 90.6206 101.82C89.2137 102.633 88.7317 104.432 89.544 105.839C90.3562 107.245 92.1551 107.727 93.562 106.915Z" fill="#4E4C82" fill-opacity="0.5"/>
<path d="M55.9159 144.566C56.7282 143.159 56.2462 141.36 54.8393 140.548C53.4325 139.735 51.6335 140.217 50.8213 141.624C50.009 143.031 50.4911 144.83 51.8979 145.642C53.3048 146.455 55.1037 145.973 55.9159 144.566Z" fill="#4E4C82" fill-opacity="0.5"/>
<path d="M253.613 202.35C255.44 201.295 256.066 198.958 255.011 197.131C253.956 195.304 251.619 194.678 249.792 195.733C247.965 196.788 247.339 199.124 248.394 200.952C249.449 202.779 251.785 203.405 253.613 202.35Z" fill="#4E4C82" fill-opacity="0.5"/>
<path d="M55.4585 254.483C56.8654 253.671 57.3474 251.872 56.5351 250.465C55.7229 249.058 53.9239 248.576 52.5171 249.388C51.1102 250.201 50.6282 252 51.4404 253.406C52.2527 254.813 54.0516 255.295 55.4585 254.483Z" fill="#4E4C82" fill-opacity="0.5"/>
<path d="M96.6967 291.425C97.509 290.018 97.0269 288.219 95.6201 287.407C94.2132 286.594 92.4143 287.076 91.602 288.483C90.7898 289.89 91.2718 291.689 92.6787 292.501C94.0855 293.314 95.8845 292.832 96.6967 291.425Z" fill="#4E4C82" fill-opacity="0.5"/>
<path d="M38.2134 201.883C39.8379 201.883 41.1548 200.566 41.1548 198.941C41.1548 197.317 39.8379 196 38.2134 196C36.5889 196 35.272 197.317 35.272 198.941C35.272 200.566 36.5889 201.883 38.2134 201.883Z" fill="#4E4C82" fill-opacity="0.5"/>
<path d="M145 304.748C146.625 304.748 147.941 303.431 147.941 301.806C147.941 300.182 146.625 298.865 145 298.865C143.376 298.865 142.059 300.182 142.059 301.806C142.059 303.431 143.376 304.748 145 304.748Z" fill="#4E4C82" fill-opacity="0.5"/>
<path d="M145 200.902C147.708 200.902 149.902 198.707 149.902 196C149.902 193.292 147.708 191.098 145 191.098C142.293 191.098 140.098 193.292 140.098 196C140.098 198.707 142.293 200.902 145 200.902Z" fill="#4E4C82" fill-opacity="0.5"/>
<path d="M194.844 195.901V341.044" stroke="#1F120C" stroke-width="1.9084" stroke-miterlimit="10"/>
<path d="M139.102 199.811H250.383V191.843H139.102V199.811Z" fill="#FF8C4A"/>
<path d="M170.145 191.386H225.121C226.715 191.386 228.043 189.925 228.043 188.199C228.043 186.473 226.715 185.012 225.121 185.012H170.145C168.552 185.012 167.224 186.473 167.224 188.199C167.224 189.925 168.552 191.386 170.145 191.386Z" fill="#34334B"/>
<path d="M169.746 189.129C169.879 189.129 170.012 189.129 170.145 188.996C170.543 188.73 170.676 188.199 170.41 187.668L142.524 139.331C142.258 138.933 141.727 138.8 141.329 139.066C140.93 139.331 140.797 139.863 141.063 140.394L168.949 188.73C169.082 188.996 169.348 189.129 169.746 189.129Z" fill="#34334B"/>
<path d="M286.205 216.617L228.308 218.21C218.481 218.609 211.177 228.17 212.505 238.793C213.7 247.558 220.738 254.197 228.839 254.197H297.758C297.758 254.197 322.591 244.636 314.756 221.397L286.205 216.617Z" fill="#4E4C82"/>
<path d="M225.917 331.084L216.223 336.263C215.161 336.794 214.63 338.122 214.895 339.317C215.161 340.247 215.958 341.044 218.082 341.044C222.863 341.177 244.11 337.724 244.11 337.724V340.114L253.936 338.919C253.936 338.919 254.6 326.702 251.679 324.976L225.917 331.084Z" fill="#34334B"/>
<path d="M241.454 318.867L225.785 331.084C225.785 331.084 227.511 335.732 234.815 332.678C242.251 329.624 251.414 324.843 251.414 324.843L250.086 317.539L241.454 318.867Z" fill="#FCD2B1"/>
<path d="M251.679 324.843L242.251 278.897L226.582 280.49L239.728 323.249L251.679 324.843Z" fill="#FCD2B1"/>
<path d="M212.505 238.793L225.652 314.22H255.53L243.977 239.988L212.505 238.793Z" fill="#4E4C82"/>
<path d="M283.416 216.617L239.728 218.21C229.901 218.609 222.597 228.17 223.925 238.793C225.12 247.558 232.158 254.197 240.259 254.197H309.178C309.178 254.197 334.01 244.636 326.176 221.397L283.416 216.617Z" fill="#4E4C82"/>
<path d="M237.337 331.084L227.643 336.263C226.581 336.794 226.05 338.122 226.315 339.317C226.581 340.247 227.378 341.044 229.502 341.044C234.283 341.177 255.53 337.724 255.53 337.724V340.114L265.356 338.919C265.356 338.919 266.02 326.702 263.099 324.976L237.337 331.084Z" fill="#34334B"/>
<path d="M253.006 318.867L237.337 331.084C237.337 331.084 239.063 335.732 246.367 332.678C253.803 329.624 262.966 324.843 262.966 324.843L261.638 317.539L253.006 318.867Z" fill="#FCD2B1"/>
<path d="M263.099 324.843L253.671 278.897L238.001 280.49L251.281 323.249L263.099 324.843Z" fill="#FCD2B1"/>
<path d="M224.059 238.793L237.072 314.22H266.951L255.398 239.988L224.059 238.793Z" fill="#4E4C82"/>
<path d="M301.334 317.422H310.63V261.649H301.334V317.422Z" fill="#E6E6E6"/>
<path d="M308.248 310.369L335.072 323.515L334.674 327.233L306.654 317.539L308.248 310.369Z" fill="#E6E6E6"/>
<path d="M303.733 310.369L276.909 323.515L277.308 327.233L305.194 317.539L303.733 310.369Z" fill="#E6E6E6"/>
<path d="M333.878 340.778C337.398 340.778 340.252 337.687 340.252 333.873C340.252 330.059 337.398 326.968 333.878 326.968C330.358 326.968 327.504 330.059 327.504 333.873C327.504 337.687 330.358 340.778 333.878 340.778Z" fill="#34334B"/>
<path d="M276.91 340.778C280.43 340.778 283.284 337.687 283.284 333.873C283.284 330.059 280.43 326.968 276.91 326.968C273.389 326.968 270.536 330.059 270.536 333.873C270.536 337.687 273.389 340.778 276.91 340.778Z" fill="#34334B"/>
<path d="M279.698 265.617H333.745C336.799 265.617 339.189 262.961 339.189 259.774C339.189 256.587 336.799 253.932 333.745 253.932H279.698C276.644 253.932 274.253 256.587 274.253 259.774C274.253 262.961 276.644 265.617 279.698 265.617Z" fill="#FF8C4A"/>
<path d="M286.603 149.025L263.63 182.622C260.178 187.668 260.709 194.573 264.825 198.955C269.739 204.134 277.839 203.47 281.956 197.362L302.539 167.218L286.603 149.025Z" fill="#ECA646"/>
<path d="M243.844 166.156C243.844 166.156 239.728 157.79 232.69 155.798C227.245 154.337 222.73 163.234 221.004 167.218C220.606 168.147 221.004 169.343 221.933 169.608C222.465 169.741 222.996 169.475 223.394 169.077L225.253 166.288C225.253 166.288 224.855 172.264 229.635 171.733C234.416 171.202 235.877 169.21 235.877 169.21L241.188 173.194L243.844 166.156Z" fill="#FCD2B1"/>
<path d="M276.777 183.153L243.313 158.719L234.416 173.194L268.942 202.01L276.777 183.153Z" fill="#34334B"/>
<path d="M285.674 141.722C285.674 141.722 300.68 148.096 311.436 170.67C322.192 193.245 326.309 221.265 326.309 221.265C326.309 221.265 306.39 227.24 283.417 216.484L275.316 188.332C275.316 188.332 268.146 179.302 275.316 151.017L285.674 141.722Z" fill="#34334B"/>
<path d="M236.01 175.185C236.01 175.185 230.3 168.147 223.129 168.147C217.552 168.147 215.029 177.974 214.099 182.356C213.834 183.419 214.63 184.348 215.56 184.348C216.091 184.348 216.622 183.95 216.888 183.419L218.216 180.232C218.216 180.232 219.012 186.207 223.527 184.348C228.042 182.489 229.105 180.232 229.105 180.232L235.08 182.622L236.01 175.185Z" fill="#FCD2B1"/>
<path d="M270.271 185.278L232.425 169.874L226.98 186.34L266.686 205.595L270.271 185.278Z" fill="#34334B"/>
<path d="M283.683 152.743L260.709 186.34C257.257 191.386 257.788 198.291 261.904 202.674C266.818 207.852 274.918 207.189 279.035 201.08L299.618 170.936L283.683 152.743Z" fill="#34334B"/>
<path d="M266.154 126.318L256.062 126.716C250.618 132.825 252.742 144.643 252.742 144.643L269.209 139.464L266.154 126.318Z" fill="#34334B"/>
<path d="M264.958 134.949L275.316 151.15L285.674 141.722L270.536 118.085L264.958 134.949Z" fill="#FCD2B1"/>
<path d="M270.536 143.581L270.404 132.559L266.021 136.676L270.536 143.581Z" fill="#EFBEAA"/>
<path d="M251.679 102.017C251.679 102.017 244.774 105.602 247.032 115.561C247.032 115.561 248.758 122.732 251.281 133.09C252.609 138.535 258.319 141.456 262.834 138.8C265.623 137.207 268.544 134.816 270.934 131.364L273.989 125.787C280.628 110.914 266.685 94.8458 252.742 101.485C252.343 101.751 252.078 101.884 251.679 102.017Z" fill="#FCD2B1"/>
<path d="M250.617 125.521L248.227 129.903C247.961 130.567 248.36 131.231 249.024 131.098L252.343 130.434L250.617 125.521Z" fill="#FCD2B1"/>
<path d="M266.022 116.624C266.022 116.624 263.897 91.5259 247.563 107.063C247.563 107.063 251.414 91.7915 270.271 94.3146C274.255 94.8457 279.035 98.2983 280.762 102.282C283.55 108.523 281.691 115.163 279.035 127.247L270.537 121.272C269.74 119.811 266.022 116.624 266.022 116.624Z" fill="#34334B"/>
<path d="M270.271 107.727L269.076 118.748C242.517 118.085 250.352 102.282 250.352 102.282C250.352 102.282 268.279 89.7996 270.271 107.727Z" fill="#34334B"/>
<path d="M259.249 116.225L264.162 120.74L266.685 112.906L259.249 116.225Z" fill="#34334B"/>
<path d="M254.203 102.548C254.203 102.548 246.235 106.664 246.766 113.304C246.766 113.304 238.268 107.992 251.016 100.689C258.585 96.4393 254.203 102.548 254.203 102.548Z" fill="#34334B"/>
<path d="M268.942 121.803C268.942 121.803 273.723 133.223 273.723 137.871L293.775 130.301C293.775 130.301 287.932 123.662 286.073 117.819C284.612 113.171 283.948 101.618 275.184 96.4393L275.582 111.71L268.942 121.803Z" fill="#34334B"/>
<path d="M273.591 117.819C274.52 120.608 273.325 123.795 270.669 124.857C268.146 125.919 265.225 124.459 264.162 121.67C263.233 118.881 264.428 115.694 267.084 114.632C269.74 113.57 272.661 115.03 273.591 117.819Z" fill="#FCD2B1"/>
<path d="M285.674 141.722C285.674 141.722 282.487 151.814 274.254 155.665L276.644 144.377L285.674 141.722Z" fill="#FCD2B1"/>
<path d="M304.132 91.3932L312.896 96.4393L312.232 101.618L319.137 107.86L309.974 118.35L288.728 103.876C288.728 103.876 294.438 85.8159 295.766 86.2143C297.093 86.8783 304.132 91.3932 304.132 91.3932Z" fill="#FCD2B1"/>
<path d="M291.516 86.347L295.234 113.171L310.107 113.57L313.692 86.347H291.516Z" fill="#34334B"/>
<path d="M288.33 86.7455H316.349V84.0896H313.694V79.973L290.986 83.0272L290.853 84.488H288.33V87.011" fill="#34334B"/>
<path d="M290.321 104.54C285.142 104.938 291.649 92.19 291.649 92.19C291.649 92.19 305.593 91.3932 305.725 92.0572C305.858 92.7211 305.858 93.9163 304.663 94.1819C303.601 94.4475 294.836 95.5098 294.836 95.5098C294.836 95.5098 303.866 95.9082 303.734 96.8377C303.468 98.1657 302.406 98.2984 299.75 98.6968C297.492 98.9624 292.446 99.0952 292.446 99.0952C292.446 99.0952 302.007 99.228 301.874 99.8919C301.609 100.423 302.273 102.282 298.953 101.751C291.384 100.689 290.321 104.54 290.321 104.54Z" fill="#FCD2B1"/>
<path d="M312.764 93.5179C312.764 93.5179 316.083 87.4094 320.2 87.675C320.2 87.675 315.287 93.1195 314.623 96.8377C313.959 100.556 313.693 103.079 313.693 103.079H311.568L312.764 93.5179Z" fill="#FCD2B1"/>
<path d="M353.132 156.196C353.132 156.196 338.923 246.894 345.563 266.149C352.202 285.404 354.725 302.799 354.725 302.799L387.658 294.035C387.658 294.035 376.769 248.62 375.175 239.988C373.582 231.224 390.447 160.445 390.447 160.445L353.132 156.196Z" fill="#34334B"/>
<path d="M368.669 162.703L384.206 308.509H415.678C415.678 308.509 405.453 154.204 407.312 152.876C409.171 151.681 368.669 162.703 368.669 162.703Z" fill="#34334B"/>
<path d="M356.187 73.8645C356.187 73.8645 352.867 122.732 345.564 121.006C338.26 119.28 318.872 106.532 318.872 106.532L307.054 118.217C307.054 118.217 343.041 154.47 357.781 139.597C372.786 124.857 356.187 73.8645 356.187 73.8645Z" fill="#34334B"/>
<path d="M366.013 332.811L363.889 322.984L386.862 314.618L390.447 329.225L389.119 329.358C383.94 331.483 358.975 341.973 354.992 342.372C350.609 342.77 366.013 332.811 366.013 332.811Z" fill="#34334B"/>
<path d="M420.591 189.394L418.068 192.714C418.068 192.714 416.873 194.972 413.952 198.291C413.155 199.221 412.225 199.885 411.163 200.549C409.835 201.213 408.109 202.142 407.047 202.408C405.719 202.674 405.32 204.267 406.515 204.798C407.711 205.329 411.562 204.533 415.147 202.142C418.732 199.619 417.139 205.993 416.475 208.251C415.944 210.508 414.483 217.679 415.147 218.476C416.076 219.538 417.537 218.874 418.068 216.484C418.6 214.094 420.591 207.321 421.919 207.72C423.247 207.985 420.193 219.671 420.193 219.671C420.193 219.671 419.131 222.061 420.591 222.46C423.38 223.256 425.638 210.641 425.77 209.446C425.903 208.649 427.364 208.915 427.098 209.844C426.965 210.774 423.778 221.397 426.567 222.194C428.692 222.858 428.559 211.836 430.551 209.977C432.543 208.118 429.754 218.343 431.746 218.874C432.543 219.007 433.074 219.14 433.871 213.031C434.535 206.79 433.472 189.66 433.472 189.66L420.326 189.793" fill="#FCD2B1"/>
<path d="M374.911 57.3982C375.176 55.4063 374.114 47.3059 374.114 47.3059C374.114 47.3059 365.881 46.7748 365.084 39.3384C364.287 31.902 364.154 14.9045 364.154 14.9045L378.894 7.86646L395.759 18.7555L399.61 26.8558L394.564 46.1108V55.8047L374.911 57.3982Z" fill="#FCD2B1"/>
<path d="M374.113 47.3059C374.113 47.3059 379.558 47.1731 384.87 43.7205C384.87 43.7205 382.612 49.165 374.379 49.165L374.113 47.3059Z" fill="#FF8C4A"/>
<path d="M399.344 34.9562C397.087 39.4712 395.759 45.978 395.759 45.978C394.564 47.9699 394.165 41.5958 394.165 41.5958C394.165 41.5958 393.103 35.3546 394.033 32.9643C394.033 32.9643 398.149 34.1594 399.079 27.387C399.477 24.0672 394.033 22.4737 392.439 26.4574L388.987 26.723C388.987 26.723 388.721 14.1077 380.753 16.3652C380.753 16.3652 374.91 19.5522 371.458 17.5603C368.005 15.5684 368.271 14.9045 368.271 14.9045C368.271 14.9045 366.545 18.2243 362.162 16.0996C357.647 13.9749 357.116 9.99113 358.71 8.13203C359.639 7.06969 360.436 5.87456 361.897 5.60897C363.358 5.34339 364.951 5.87456 365.881 6.9369C364.818 5.47618 365.615 3.3515 367.209 2.28915C368.802 1.3596 371.059 1.35961 372.786 2.02357C374.512 2.68754 376.106 3.74987 377.566 4.94501C378.629 2.28915 381.683 0.430057 384.87 0.695643C387.924 0.961229 390.713 3.21871 391.244 6.00736C392.97 4.14826 396.157 3.74988 398.548 4.67943C400.938 5.60898 402.531 7.99925 403.063 10.3895C403.461 12.7798 402.93 15.3029 402 17.5603C403.859 16.6308 406.515 17.2947 407.71 18.8883C408.905 20.4818 409.038 22.7392 408.109 24.4656C407.179 26.1919 405.453 27.5198 403.594 28.4493C405.054 29.5117 405.453 31.5036 404.523 32.9643C403.594 34.425 401.602 35.2218 399.876 34.6906" fill="#34334B"/>
<path d="M393.501 30.4412C393.501 30.4412 393.634 30.574 393.767 30.574C393.9 30.7068 394.298 30.7068 394.697 30.7068C395.493 30.4412 396.157 29.5117 396.29 28.3166C396.29 27.7854 396.29 27.2542 396.025 26.723C395.892 26.1919 395.493 25.9263 395.228 25.7935C394.829 25.6607 394.564 25.9263 394.431 26.0591C394.298 26.1919 394.298 26.3247 394.298 26.3247C394.298 26.3247 394.165 26.1919 394.165 25.9263C394.165 25.7935 394.298 25.6607 394.431 25.5279C394.564 25.3951 394.829 25.3951 395.095 25.3951C395.626 25.3951 396.025 25.9263 396.29 26.4575C396.556 26.9886 396.688 27.6526 396.556 28.1838C396.423 29.5117 395.626 30.574 394.564 30.8396C394.033 30.9724 393.634 30.7068 393.501 30.574C393.501 30.574 393.501 30.4412 393.501 30.4412Z" fill="#FF8C4A"/>
<path d="M427.629 76.7859C427.629 76.7859 422.052 53.2816 394.696 55.6718C369.731 57.9293 369.731 57.9293 369.731 57.9293C369.731 57.9293 352.601 64.4362 354.991 83.0272C357.382 101.485 358.577 118.483 357.913 121.67C357.249 124.99 351.273 154.071 353.132 156.063C371.192 175.849 417.138 144.245 417.138 144.245L427.629 76.7859Z" fill="#4E4C82"/>
<path d="M394.696 55.8047L401.07 193.511L420.06 184.215L418.068 62.0459C417.935 62.0459 412.889 54.0784 394.696 55.8047Z" fill="#34334B"/>
<path d="M434.136 191.917L427.629 76.9188C425.637 69.8808 421.255 64.4362 415.678 59.9213V193.511L434.136 191.917Z" fill="#34334B"/>
<path d="M374.911 57.3982C374.911 57.3982 357.913 65.1002 358.71 90.862C359.507 116.757 348.485 189.793 348.485 189.793L334.276 187.137C334.276 187.137 350.743 117.952 351.407 105.735C352.071 93.385 350.875 75.8564 360.171 63.7722C366.678 55.2735 374.911 57.3982 374.911 57.3982Z" fill="#34334B"/>
<path d="M394.696 55.8047C394.696 55.8047 400.274 67.092 399.742 71.3414C399.211 75.458 397.219 84.2223 397.219 84.2223C397.219 84.2223 401.336 86.4798 401.07 88.4717C400.805 90.4636 396.821 110.383 396.821 110.383L394.696 55.8047Z" fill="#4E4C82"/>
<path d="M412.624 83.824C412.757 83.824 412.89 85.2847 413.155 88.0734C413.421 90.862 413.686 94.8458 413.819 99.7591C414.218 109.719 414.616 123.396 414.882 138.535C415.147 153.673 415.28 167.351 415.545 177.31C415.678 182.223 415.678 186.207 415.811 188.996C415.944 191.785 415.811 193.245 415.811 193.245C415.678 193.245 415.545 191.785 415.28 188.996C415.014 186.207 414.749 182.223 414.616 177.31C414.218 167.351 413.819 153.673 413.554 138.535C413.288 123.396 413.155 109.719 412.89 99.7591C412.757 94.8458 412.757 90.862 412.624 88.0734C412.491 85.4175 412.491 83.824 412.624 83.824Z" fill="#4E4C82"/>
<path d="M365.748 322.32C366.013 322.187 360.038 301.471 360.038 301.471L380.222 296.16L384.472 315.68L365.748 322.32Z" fill="#FCD2B1"/>
<path d="M412.225 308.509H389.252V324.843H412.225V308.509Z" fill="#FCD2B1"/>
<path d="M387.128 333.607L389.252 323.781H413.952L411.296 338.255H409.968C404.258 338.521 376.77 339.849 372.919 338.786C368.802 337.724 387.128 333.607 387.128 333.607Z" fill="#34334B"/>
<path d="M528.817 31.6364C530.544 37.2137 532.27 42.9237 533.996 48.501C534.262 49.2978 534.527 50.0946 534.395 50.8913C534.395 53.2816 532.004 55.1407 529.614 55.5391C527.224 55.9374 524.701 55.4063 522.311 54.7423C521.647 57.1326 518.725 58.1949 516.202 58.5933C504.915 60.718 492.963 59.2573 482.605 54.4767C487.12 48.2355 490.706 41.463 493.494 34.425C502.392 34.8234 511.156 35.2218 520.053 35.6201C521.647 35.7529 523.24 35.7529 524.701 35.2218C526.161 34.6906 527.489 33.4954 527.622 31.9019" fill="#34334B"/>
<path d="M425.903 105.868L423.247 102.946C423.247 102.946 421.388 101.485 418.732 98.1656C418.068 97.3689 417.537 96.3065 417.138 95.2441C416.74 94.049 416.209 92.3227 416.209 91.2604C416.209 90.0652 414.748 89.4012 413.951 90.3308C413.287 91.2603 413.022 94.5802 414.615 98.2984C416.209 102.017 410.499 99.0951 408.374 98.0328C406.249 96.9705 399.61 94.1818 398.68 94.4474C397.485 94.9786 397.883 96.4393 400.008 97.3688C402.133 98.2984 408.374 101.751 407.71 102.813C407.046 103.876 396.423 98.4312 396.423 98.4312C396.423 98.4312 394.298 96.9705 393.634 98.1656C392.306 100.29 404.125 105.204 405.187 105.735C405.984 106 405.32 107.196 404.523 106.797C403.726 106.399 394.032 101.22 392.572 103.345C391.509 105.071 402.266 107.461 403.594 109.586C404.921 111.71 395.626 106.93 394.696 108.523C394.298 109.187 394.165 109.586 399.875 111.71C405.851 113.835 422.716 116.889 422.716 116.889L425.504 105.602" fill="#FF8C4A"/>
<path d="M473.841 79.309C473.841 79.309 464.147 106.399 461.226 106.664C440.909 108.523 418.732 99.8919 418.732 99.8919L413.155 115.163C413.155 115.163 470.92 140.128 483.269 116.093C496.416 90.4636 495.752 86.4798 495.752 86.4798L473.841 79.309Z" fill="#FCD2B1"/>
<path d="M475.169 232.419C485.527 278.365 553.517 321.258 553.517 321.258L565.07 307.447C565.07 307.447 510.36 260.173 508.102 239.192C505.712 218.21 523.904 185.278 523.904 185.278L505.048 177.576L475.169 232.419Z" fill="#34334B"/>
<path d="M498.143 64.7018C498.541 62.8427 497.745 54.8751 497.745 54.8751C497.745 54.8751 490.308 54.0784 489.777 46.9076C489.246 39.7368 489.777 23.1376 489.777 23.1376L503.455 16.6308L518.46 27.6526L516.203 63.6395L498.143 64.7018Z" fill="#FCD2B1"/>
<path d="M517.264 33.2299C517.264 33.2299 505.047 32.1675 502.923 21.4113L489.644 33.2299C489.644 33.2299 485.66 25.2623 492.963 17.8259C500.267 10.3895 505.313 11.983 508.235 11.983C510.89 11.983 524.568 14.7717 528.552 29.7773C528.817 30.8396 529.083 33.4955 529.216 34.8234L517.264 33.2299Z" fill="#34334B"/>
<path d="M497.744 54.8751C497.744 54.8751 502.79 54.8751 507.571 51.688C507.571 51.688 505.313 56.9998 497.877 56.7342L497.744 54.8751Z" fill="#FF8C4A"/>
<path d="M482.34 145.838C482.34 148.361 483.27 151.947 483.27 151.947L535.856 166.687C535.856 166.687 539.574 143.581 530.013 130.833C525.631 124.99 526.56 116.624 528.419 109.586L534.66 85.4175L526.427 62.7099L493.229 64.8346C493.229 64.8346 473.974 62.9755 467.334 87.5422L479.684 105.469L479.817 112.242L482.34 145.838Z" fill="#FF8C4A"/>
<path d="M533.731 136.808C534.262 136.808 543.823 157.524 535.192 169.874C534.395 171.069 532.403 173.857 529.747 177.841C516.999 196.831 487.917 241.449 486.855 247.956C485.66 255.791 462.156 339.052 462.156 339.052L444.627 336.396L458.969 242.113L482.34 145.971L533.731 136.808Z" fill="#34334B"/>
<path d="M503.321 20.4817C503.321 20.4817 500.665 25.5279 501.728 29.3789L489.776 32.3003C489.776 32.4331 487.12 17.8259 503.321 20.4817Z" fill="#34334B"/>
<path d="M529.349 33.7611C529.349 33.7611 530.809 50.3602 516.335 53.2816L517.265 33.3627L529.349 33.7611Z" fill="#34334B"/>
<path opacity="0.34" d="M497.479 105.204L454.322 49.6962L373.318 85.1519L405.985 115.429L442.901 121.272L497.479 105.204Z" fill="url(#paint14_linear)"/>
<path d="M474.771 110.781L445.158 122.865L396.822 123.927L373.317 85.1519L423.115 81.9648L444.627 119.412L474.638 108.125L474.771 110.781Z" fill="#E5E5E5"/>
<path d="M469.46 82.3632L461.227 102.017L479.818 111.046L481.544 93.7834L469.46 82.3632Z" fill="#FF8C4A"/>
<path d="M520.85 62.8427L517.663 59.2573L504.251 62.5771L505.845 66.4281L520.85 62.8427Z" fill="#FF8C4A"/>
<path d="M505.845 66.4281L500.533 76.5203L500.4 66.4281L500.932 63.3738H504.517L505.845 66.4281Z" fill="#FCD2B1"/>
<path d="M500.399 66.4281L501.063 62.5771L497.744 61.2491L493.893 64.7018L500.399 66.4281Z" fill="#FF8C4A"/>
<path d="M479.685 111.312C479.685 111.312 479.95 110.914 479.95 109.984C479.95 109.055 479.419 107.859 478.357 106.664C477.427 105.469 475.834 104.274 475.568 102.415C475.435 101.485 475.435 100.556 475.834 99.4935C476.232 98.564 476.896 97.6344 477.693 97.1032C478.49 96.572 479.552 96.1737 480.482 96.1737H480.747V95.9081C481.278 92.1899 481.942 88.7373 482.208 86.347C482.473 83.9567 482.208 82.496 482.075 82.496C481.942 82.496 481.942 83.9567 481.677 86.347C481.411 88.7373 480.614 92.0571 479.95 95.9081L480.349 95.5097C479.286 95.5097 478.091 95.9081 477.162 96.5721C476.099 97.236 475.303 98.2984 474.904 99.3607C474.506 100.423 474.506 101.618 474.772 102.681C475.037 103.743 475.568 104.672 476.099 105.336C476.763 106 477.295 106.664 477.826 107.195C478.888 108.258 479.419 109.32 479.552 110.117C479.818 110.781 479.552 111.312 479.685 111.312Z" fill="#FF8C4A"/>
<path d="M479.684 85.2847C479.551 85.4175 479.95 86.347 480.481 87.4094C481.012 88.4717 481.277 89.534 481.543 89.534C481.809 89.534 481.809 88.3389 481.277 87.1438C480.746 85.9486 479.817 85.1519 479.684 85.2847Z" fill="#FF8C4A"/>
<path d="M460.562 102.017C460.429 102.149 464.679 104.54 470.123 106.93C475.568 109.32 480.083 110.914 480.083 110.781C480.215 110.515 475.833 108.656 470.389 106.266C465.077 103.876 460.695 101.884 460.562 102.017Z" fill="#FF8C4A"/>
<path d="M461.625 99.2279C461.492 99.3607 465.343 101.618 470.124 104.008C474.904 106.532 478.888 108.258 479.021 108.125C479.154 107.992 475.303 105.735 470.522 103.344C465.742 100.821 461.758 99.0951 461.625 99.2279Z" fill="#FF8C4A"/>
<path d="M486.589 85.9486C486.589 86.2142 487.652 86.347 489.112 86.4798C490.573 86.6126 491.635 86.4798 491.635 86.2142C491.635 85.9487 490.573 85.8158 489.112 85.683C487.784 85.683 486.589 85.6831 486.589 85.9486Z" fill="#FF8C4A"/>
<path d="M486.191 86.8782C486.191 87.1438 487.387 87.5421 489.113 87.9405C490.706 88.3389 492.167 88.4717 492.167 88.3389C492.167 88.0733 490.972 87.6749 489.246 87.2766C487.519 86.7454 486.191 86.6126 486.191 86.8782Z" fill="#FF8C4A"/>
<path d="M443.033 336.263C443.033 336.263 427.629 340.247 431.48 341.442C435.331 342.504 462.023 339.716 462.023 339.716L462.952 336.794L443.033 336.263Z" fill="#34334B"/>
<path d="M462.023 339.716L467.334 325.374H443.83L443.033 336.263L462.023 339.716Z" fill="#34334B"/>
<path d="M553.649 322.187C553.649 322.187 549.798 337.193 552.587 334.404C555.509 331.748 565.999 307.713 565.999 307.713L563.742 305.588L553.649 322.187Z" fill="#34334B"/>
<path d="M565.999 307.713L555.774 296.292L544.354 316.211L553.65 322.187L565.999 307.713Z" fill="#34334B"/>
<path d="M502.259 15.834C502.259 15.7012 500.798 15.7012 498.541 16.2324C496.283 16.7636 493.362 18.2243 490.972 20.7473C488.581 23.2704 487.386 26.1918 486.855 28.4493C486.457 30.574 486.589 32.0347 486.722 32.0347C486.855 32.0347 486.855 30.7068 487.519 28.5821C488.05 26.4574 489.378 23.6688 491.635 21.2785C493.893 18.8882 496.682 17.4275 498.806 16.7635C500.798 16.0996 502.259 15.9668 502.259 15.834Z" fill="#34334B"/>
<path d="M403.328 103.743C403.992 105.469 405.586 106.532 406.914 106.133C408.242 105.735 408.773 103.876 408.109 102.149C407.445 100.423 405.851 99.3607 404.523 99.7591C403.196 100.29 402.664 102.017 403.328 103.743Z" fill="#F3EFEA"/>
<path d="M510.89 146.768C510.89 146.768 510.226 80.3713 512.617 75.3252C512.617 75.3252 515.14 62.8427 524.966 62.5771L520.584 62.8427C520.584 62.8427 511.687 62.1787 509.031 79.309C506.508 96.3065 506.641 147.299 506.641 147.299L510.89 146.768Z" fill="#34334B"/>
<path d="M491.768 149.158C491.768 149.158 489.112 72.8022 491.237 64.8346H488.581C488.581 64.8346 486.191 71.3414 486.722 89.6668C486.988 100.689 486.722 149.158 486.722 149.158H491.768Z" fill="#34334B"/>
<path d="M460.297 115.163C460.297 115.163 447.416 123.131 444.627 122.998C441.838 122.998 433.738 122.732 434.535 123.795C435.332 124.857 444.627 126.318 444.627 126.318L460.297 115.163Z" fill="#FCD2B1"/>
<path d="M461.359 131.895C461.359 131.895 522.444 147.83 530.81 122.068C539.707 94.8458 539.84 101.884 539.84 101.884L520.718 83.9567C520.718 83.9567 510.493 115.429 507.571 116.093C491.503 120.076 473.311 117.553 466.937 116.358C466.273 115.827 465.343 115.03 464.414 114.233C463.617 113.437 462.953 112.64 462.422 111.578C461.758 110.383 461.094 108.789 460.961 107.859C460.828 106.664 459.102 106.266 458.571 107.195C458.04 108.125 458.438 111.578 460.563 115.03C460.563 115.03 446.088 124.06 444.893 126.318L461.359 131.895Z" fill="#FCD2B1"/>
<path d="M526.428 62.5771C526.428 62.5771 540.371 65.1002 540.902 86.4798C541.434 107.727 532.537 123.927 532.537 123.927L508.899 111.976L526.428 62.5771Z" fill="#FF8C4A"/>
<path d="M509.031 112.109C509.031 112.242 510.359 112.773 512.617 113.835C514.874 114.765 517.796 116.225 521.115 117.819C524.435 119.545 527.357 121.139 529.349 122.334C531.473 123.529 532.801 124.326 532.801 124.193C532.801 124.06 531.739 123.131 529.614 121.936C527.622 120.608 524.701 118.881 521.381 117.288C518.061 115.561 515.007 114.234 512.749 113.437C510.492 112.374 509.031 111.976 509.031 112.109Z" fill="#FF8C4A"/>
<path d="M509.961 110.515C509.961 110.648 511.289 111.179 513.546 111.976C515.804 112.773 518.858 114.101 522.045 115.561C525.365 117.155 528.154 118.616 530.278 119.811C532.403 121.006 533.598 121.67 533.731 121.537C533.731 121.404 532.668 120.608 530.677 119.28C528.685 117.952 525.763 116.358 522.576 114.765C519.256 113.171 516.202 112.109 513.945 111.312C511.422 110.781 509.961 110.383 509.961 110.515Z" fill="#FF8C4A"/>
<path d="M516.734 87.6749C516.999 87.6749 517.398 85.9486 517.132 83.6912C516.999 81.4337 516.203 79.7074 516.07 79.8402C515.804 79.8402 516.203 81.6993 516.335 83.824C516.601 85.8158 516.468 87.6749 516.734 87.6749Z" fill="#FF8C4A"/>
<path d="M509.031 111.976C509.164 111.976 510.093 110.383 511.289 107.727C512.617 105.071 514.077 101.22 515.405 96.9704C516.733 92.5883 517.53 88.6045 517.928 85.683C518.327 82.7616 518.459 80.9025 518.327 80.9025C518.194 80.9025 517.928 82.6288 517.264 85.5503C516.733 88.4717 515.804 92.3227 514.476 96.7049C513.148 100.954 511.687 104.805 510.625 107.461C509.695 110.25 508.898 111.843 509.031 111.976Z" fill="#FF8C4A"/>
<defs>
<linearGradient id="paint0_linear" x1="2490.05" y1="6997.51" x2="2490.05" y2="6775" gradientUnits="userSpaceOnUse">
<stop stop-color="#808080" stop-opacity="0.25"/>
<stop offset="0.54" stop-color="#808080" stop-opacity="0.12"/>
<stop offset="1" stop-color="#808080" stop-opacity="0.1"/>
</linearGradient>
<linearGradient id="paint1_linear" x1="8367.92" y1="44376.8" x2="8367.92" y2="34699.7" gradientUnits="userSpaceOnUse">
<stop stop-color="#808080" stop-opacity="0.25"/>
<stop offset="0.54" stop-color="#808080" stop-opacity="0.12"/>
<stop offset="1" stop-color="#808080" stop-opacity="0.1"/>
</linearGradient>
<linearGradient id="paint2_linear" x1="5535.74" y1="25968.9" x2="5535.74" y2="23318.2" gradientUnits="userSpaceOnUse">
<stop stop-color="#808080" stop-opacity="0.25"/>
<stop offset="0.54" stop-color="#808080" stop-opacity="0.12"/>
<stop offset="1" stop-color="#808080" stop-opacity="0.1"/>
</linearGradient>
<linearGradient id="paint3_linear" x1="-3097.61" y1="6195.17" x2="-3037.85" y2="6160.67" gradientUnits="userSpaceOnUse">
<stop stop-color="#808080" stop-opacity="0.25"/>
<stop offset="0.54" stop-color="#808080" stop-opacity="0.12"/>
<stop offset="1" stop-color="#808080" stop-opacity="0.1"/>
</linearGradient>
<linearGradient id="paint4_linear" x1="1930.36" y1="5437.59" x2="1930.36" y2="5368.59" gradientUnits="userSpaceOnUse">
<stop stop-color="white"/>
<stop offset="0.54" stop-color="#808080" stop-opacity="0.12"/>
<stop offset="1" stop-color="#808080" stop-opacity="0.1"/>
</linearGradient>
<linearGradient id="paint5_linear" x1="-597.965" y1="6322.85" x2="-563.428" y2="6263.03" gradientUnits="userSpaceOnUse">
<stop stop-color="#808080" stop-opacity="0.25"/>
<stop offset="0.54" stop-color="#808080" stop-opacity="0.12"/>
<stop offset="1" stop-color="#808080" stop-opacity="0.1"/>
</linearGradient>
<linearGradient id="paint6_linear" x1="-5219.67" y1="4720.09" x2="-5150.6" y2="4720.09" gradientUnits="userSpaceOnUse">
<stop stop-color="#808080" stop-opacity="0.25"/>
<stop offset="0.54" stop-color="#808080" stop-opacity="0.12"/>
<stop offset="1" stop-color="#808080" stop-opacity="0.1"/>
</linearGradient>
<linearGradient id="paint7_linear" x1="-4727.72" y1="4649.05" x2="-4658.65" y2="4649.05" gradientUnits="userSpaceOnUse">
<stop stop-color="#808080" stop-opacity="0.25"/>
<stop offset="0.54" stop-color="#808080" stop-opacity="0.12"/>
<stop offset="1" stop-color="#808080" stop-opacity="0.1"/>
</linearGradient>
<linearGradient id="paint8_linear" x1="-4263.11" y1="4825.91" x2="-4194.11" y2="4825.91" gradientUnits="userSpaceOnUse">
<stop stop-color="#808080" stop-opacity="0.25"/>
<stop offset="0.54" stop-color="#808080" stop-opacity="0.12"/>
<stop offset="1" stop-color="#808080" stop-opacity="0.1"/>
</linearGradient>
<linearGradient id="paint9_linear" x1="-3948.04" y1="5219.4" x2="-3878.96" y2="5219.4" gradientUnits="userSpaceOnUse">
<stop stop-color="#808080" stop-opacity="0.25"/>
<stop offset="0.54" stop-color="#808080" stop-opacity="0.12"/>
<stop offset="1" stop-color="#808080" stop-opacity="0.1"/>
</linearGradient>
<linearGradient id="paint10_linear" x1="-4065.68" y1="6201.49" x2="-3996.6" y2="6201.49" gradientUnits="userSpaceOnUse">
<stop stop-color="#D3D3D3" stop-opacity="0.23"/>
<stop offset="0.54" stop-color="#808080" stop-opacity="0.12"/>
<stop offset="1" stop-color="#808080" stop-opacity="0.1"/>
</linearGradient>
<linearGradient id="paint11_linear" x1="-4466.96" y1="6506.77" x2="-4397.96" y2="6506.77" gradientUnits="userSpaceOnUse">
<stop stop-color="#D3D3D3" stop-opacity="0.23"/>
<stop offset="0.54" stop-color="#808080" stop-opacity="0.12"/>
<stop offset="1" stop-color="#808080" stop-opacity="0.1"/>
</linearGradient>
<linearGradient id="paint12_linear" x1="-4939.35" y1="6562.11" x2="-4870.27" y2="6562.11" gradientUnits="userSpaceOnUse">
<stop stop-color="#808080" stop-opacity="0.25"/>
<stop offset="0.54" stop-color="#808080" stop-opacity="0.12"/>
<stop offset="1" stop-color="#808080" stop-opacity="0.1"/>
</linearGradient>
<linearGradient id="paint13_linear" x1="-5388.09" y1="6404.9" x2="-5319.1" y2="6404.9" gradientUnits="userSpaceOnUse">
<stop stop-color="#808080" stop-opacity="0.25"/>
<stop offset="0.54" stop-color="#808080" stop-opacity="0.12"/>
<stop offset="1" stop-color="#808080" stop-opacity="0.1"/>
</linearGradient>
<linearGradient id="paint14_linear" x1="407.519" y1="105.562" x2="468.493" y2="80.498" gradientUnits="userSpaceOnUse">
<stop stop-color="white"/>
<stop offset="0.2316" stop-color="white" stop-opacity="0.7684"/>
<stop offset="1" stop-color="white" stop-opacity="0"/>
</linearGradient>
</defs>
</svg>
