<svg width="524" height="346" viewBox="0 0 524 346" fill="none" xmlns="http://www.w3.org/2000/svg">
<path d="M115.795 328.96L113.537 292.176L97.6019 297.488L102.781 335.068L116.458 330.287L115.795 328.96Z" fill="#FCD2B1"/>
<path d="M99.7258 328.163C99.7258 328.163 112.075 331.217 116.458 322.586L147 333.209L97.8666 340.645L99.7258 328.163Z" fill="#34334B"/>
<path d="M147.665 337.458L98.3984 344.895L97.8672 340.645L147.001 333.209L147.665 337.458Z" fill="white"/>
<path d="M79.0113 156.329L79.808 158.719C87.9084 172.131 95.4776 188.863 100.656 203.869L114.334 243.308C115.795 247.425 116.724 251.674 116.99 255.923L122.036 314.087L94.8136 316.079L87.9084 257.517L55.7725 195.104L57.4988 158.586L79.0113 156.329Z" fill="#34334B"/>
<path d="M23.2383 318.867L42.8916 288.059L27.0892 282.349L9.29501 315.547L22.9727 320.328L23.2383 318.867Z" fill="#FCD2B1"/>
<path d="M10.888 308.111C10.888 308.111 18.9883 318.336 27.4871 314.087L45.6797 341.575L2.12365 316.875L10.888 308.111Z" fill="#34334B"/>
<path d="M43.5555 345.426L-0.000556946 320.726L2.12413 316.875L45.6802 341.708L43.5555 345.426Z" fill="white"/>
<path d="M70.9106 190.988L64.935 249.815C64.6694 252.604 63.8726 255.259 62.8103 257.783L38.3764 312.095L13.9425 298.284L35.0566 249.151L34.127 206.657C34.127 206.657 31.7368 167.882 44.2193 153.142L67.7236 156.993L70.9106 190.988Z" fill="#34334B"/>
<path d="M125.887 120.873L114.334 132.028L118.981 139.597L131.198 126.318L125.887 120.873Z" fill="#FCD2B1"/>
<path d="M125.887 120.873V106.797C125.887 106.133 126.418 105.469 127.082 105.336C127.878 105.204 128.675 105.602 128.808 106.399L129.87 110.25L138.9 100.423C139.697 99.6263 141.025 99.7591 141.556 100.821L144.61 106.399C144.876 106.797 144.876 107.461 144.61 107.859C143.017 111.179 136.51 124.06 131.066 126.45L125.887 120.873Z" fill="#FCD2B1"/>
<path d="M73.8322 97.6344C73.8322 97.6344 70.7779 104.54 85.3851 139.73C85.3851 139.73 93.3527 154.337 96.9381 154.868C102.648 155.665 118.583 147.033 130.8 129.505L121.638 122.732L103.711 133.09L93.2199 105.868C93.0871 105.735 86.9787 87.6749 73.8322 97.6344Z" fill="#FF8C4A"/>
<path d="M58.9593 85.8158L34.9238 96.4393C33.1975 97.236 32.2679 98.9623 32.4007 100.821L38.3764 163.367C38.3764 163.367 62.5447 170.538 84.1899 166.156L88.7049 101.751C88.9705 99.8919 88.3065 98.0328 86.8458 96.7049L71.4418 85.9486L58.9593 85.8158Z" fill="#FF8C4A"/>
<path d="M60.021 146.901L43.9531 146.635L41.8284 155.267L59.8882 154.603L60.021 146.901Z" fill="#FCD2B1"/>
<path d="M60.0217 146.901L70.114 136.941C70.6452 136.41 71.4419 136.41 71.9731 136.808C72.6371 137.207 72.9027 138.136 72.5043 138.8L70.5124 142.253L79.2767 143.315C80.339 143.315 81.2686 144.377 80.8702 145.44L79.0111 151.548C78.8783 152.079 78.4799 152.478 77.9488 152.611C74.4962 153.806 65.4663 156.727 59.889 154.47L60.0217 146.901Z" fill="#FCD2B1"/>
<path d="M33.9939 96.9704C33.9939 96.9704 27.0887 100.025 14.6061 134.551C14.6061 134.551 9.95839 147.83 12.2159 150.353C15.9341 154.47 34.5251 160.977 55.2408 156.063L55.5063 144.776L32.666 141.323L42.891 115.03C42.891 115.163 50.3274 98.1656 33.9939 96.9704Z" fill="#FF8C4A"/>
<path d="M74.3632 62.4443C74.2304 65.4985 76.4879 68.0216 79.4093 68.1544C82.3308 68.2872 84.8538 65.8969 84.9866 62.8427C85.1194 59.7885 82.8619 57.2654 79.9405 57.1326C77.019 56.9998 74.496 59.3901 74.3632 62.4443Z" fill="#FCD2B1"/>
<path d="M71.84 75.458L72.2384 85.4174C72.3712 90.0652 69.7153 92.5882 65.3332 92.5882C61.615 92.721 56.1705 90.0652 56.3033 86.0814V69.4823L71.84 75.458Z" fill="#FCD2B1"/>
<path d="M72.1055 84.0895C72.1055 84.0895 59.0918 83.8239 55.5064 71.8726C54.3112 68.1544 71.8399 73.9973 71.8399 73.9973L72.1055 84.0895Z" fill="#EABEAC"/>
<path d="M68.1216 79.309C75.558 79.1762 81.6665 72.8021 81.6665 66.5609V53.2816C81.6665 45.314 75.6908 38.8072 67.9888 38.5416C60.1541 38.1432 52.1865 44.3845 51.7881 52.4848L51.9209 62.8427C52.0537 72.1382 59.0917 78.9106 68.1216 79.309Z" fill="#FCD2B1"/>
<path d="M77.5504 31.6363C74.629 30.574 67.1926 29.5116 65.9975 36.0185C58.6939 35.7529 47.1409 36.4169 46.2113 42.7909C44.8834 52.0864 51.9214 60.9836 51.9214 60.9836L53.7805 61.7803C53.7805 61.7803 58.4283 59.1245 56.5692 48.1027C56.5692 48.1027 73.5667 51.4225 81.2686 46.7747C88.9706 42.2598 86.3148 34.9562 77.5504 31.6363Z" fill="#34334B"/>
<path d="M45.016 62.8427C44.8832 65.8969 47.1407 68.4199 50.0621 68.5527C52.9836 68.6855 55.3738 66.2953 55.5066 63.3738C55.6394 60.3196 53.3819 57.7965 50.4605 57.6637C47.6719 57.3981 45.1488 59.7884 45.016 62.8427Z" fill="#FCD2B1"/>
<path d="M71.5746 85.8158L75.5584 88.6045C75.5584 88.6045 77.9487 95.2441 66.6613 96.0409C55.3739 96.8376 52.0541 88.7373 52.0541 88.7373L60.0217 84.6207L71.5746 85.8158Z" fill="#FCD2B1"/>
<path d="M152.844 195.901V341.044" stroke="#1F120C" stroke-width="1.9084" stroke-miterlimit="10"/>
<path d="M97.1024 199.811H208.383V191.843H97.1024V199.811Z" fill="#FF8C4A"/>
<path d="M128.145 191.386H183.121C184.715 191.386 186.043 189.925 186.043 188.199C186.043 186.473 184.715 185.012 183.121 185.012H128.145C126.552 185.012 125.224 186.473 125.224 188.199C125.224 189.925 126.552 191.386 128.145 191.386Z" fill="#34334B"/>
<path d="M127.746 189.129C127.879 189.129 128.012 189.129 128.145 188.996C128.543 188.73 128.676 188.199 128.41 187.668L100.524 139.331C100.258 138.933 99.727 138.8 99.3286 139.066C98.9302 139.331 98.7974 139.863 99.063 140.394L126.949 188.73C127.082 188.996 127.348 189.129 127.746 189.129Z" fill="#34334B"/>
<path d="M244.205 216.617L186.308 218.21C176.481 218.609 169.177 228.17 170.505 238.793C171.7 247.558 178.738 254.197 186.839 254.197H255.758C255.758 254.197 280.591 244.636 272.756 221.397L244.205 216.617Z" fill="#F7F7F7"/>
<path d="M183.917 331.084L174.223 336.263C173.161 336.794 172.63 338.122 172.895 339.317C173.161 340.247 173.958 341.044 176.082 341.044C180.863 341.177 202.11 337.724 202.11 337.724V340.114L211.936 338.919C211.936 338.919 212.6 326.702 209.679 324.976L183.917 331.084Z" fill="#34334B"/>
<path d="M199.454 318.867L183.785 331.084C183.785 331.084 185.511 335.732 192.815 332.678C200.251 329.624 209.414 324.843 209.414 324.843L208.086 317.539L199.454 318.867Z" fill="#FCD2B1"/>
<path d="M209.679 324.843L200.251 278.897L184.582 280.49L197.728 323.249L209.679 324.843Z" fill="#FCD2B1"/>
<path d="M170.505 238.793L183.652 314.22H213.53L201.977 239.988L170.505 238.793Z" fill="#F7F7F7"/>
<path d="M241.416 216.617L197.728 218.21C187.901 218.609 180.597 228.17 181.925 238.793C183.12 247.558 190.158 254.197 198.259 254.197H267.178C267.178 254.197 292.01 244.636 284.176 221.397L241.416 216.617Z" fill="#F7F7F7"/>
<path d="M195.337 331.084L185.643 336.263C184.581 336.794 184.05 338.122 184.315 339.317C184.581 340.247 185.378 341.044 187.502 341.044C192.283 341.177 213.53 337.724 213.53 337.724V340.114L223.356 338.919C223.356 338.919 224.02 326.702 221.099 324.976L195.337 331.084Z" fill="#34334B"/>
<path d="M211.006 318.867L195.337 331.084C195.337 331.084 197.063 335.732 204.367 332.678C211.803 329.624 220.966 324.843 220.966 324.843L219.638 317.539L211.006 318.867Z" fill="#FCD2B1"/>
<path d="M221.099 324.843L211.671 278.897L196.001 280.49L209.281 323.249L221.099 324.843Z" fill="#FCD2B1"/>
<path d="M182.059 238.793L195.072 314.22H224.951L213.398 239.988L182.059 238.793Z" fill="#F7F7F7"/>
<path d="M259.334 317.422H268.63V261.649H259.334V317.422Z" fill="#E6E6E6"/>
<path d="M266.248 310.369L293.072 323.515L292.674 327.233L264.654 317.539L266.248 310.369Z" fill="#E6E6E6"/>
<path d="M261.733 310.369L234.909 323.515L235.308 327.233L263.194 317.539L261.733 310.369Z" fill="#E6E6E6"/>
<path d="M291.878 340.778C295.398 340.778 298.252 337.687 298.252 333.873C298.252 330.059 295.398 326.968 291.878 326.968C288.358 326.968 285.504 330.059 285.504 333.873C285.504 337.687 288.358 340.778 291.878 340.778Z" fill="#34334B"/>
<path d="M234.91 340.778C238.43 340.778 241.284 337.687 241.284 333.873C241.284 330.059 238.43 326.968 234.91 326.968C231.389 326.968 228.536 330.059 228.536 333.873C228.536 337.687 231.389 340.778 234.91 340.778Z" fill="#34334B"/>
<path d="M237.698 265.617H291.745C294.799 265.617 297.189 262.961 297.189 259.774C297.189 256.587 294.799 253.932 291.745 253.932H237.698C234.644 253.932 232.253 256.587 232.253 259.774C232.253 262.961 234.644 265.617 237.698 265.617Z" fill="#FF8C4A"/>
<path d="M244.603 149.025L221.63 182.622C218.178 187.668 218.709 194.573 222.825 198.955C227.739 204.134 235.839 203.47 239.956 197.362L260.539 167.218L244.603 149.025Z" fill="#ECA646"/>
<path d="M201.844 166.156C201.844 166.156 197.728 157.79 190.69 155.798C185.245 154.337 180.73 163.234 179.004 167.218C178.606 168.147 179.004 169.343 179.933 169.608C180.465 169.741 180.996 169.475 181.394 169.077L183.253 166.288C183.253 166.288 182.855 172.264 187.635 171.733C192.416 171.202 193.877 169.21 193.877 169.21L199.188 173.194L201.844 166.156Z" fill="#FCD2B1"/>
<path d="M234.777 183.153L201.313 158.719L192.416 173.194L226.942 202.01L234.777 183.153Z" fill="#34334B"/>
<path d="M243.674 141.722C243.674 141.722 258.68 148.096 269.436 170.67C280.192 193.245 284.309 221.265 284.309 221.265C284.309 221.265 264.39 227.24 241.417 216.484L233.316 188.332C233.316 188.332 226.146 179.302 233.316 151.017L243.674 141.722Z" fill="#34334B"/>
<path d="M194.01 175.185C194.01 175.185 188.3 168.147 181.129 168.147C175.552 168.147 173.029 177.974 172.099 182.356C171.834 183.419 172.63 184.348 173.56 184.348C174.091 184.348 174.622 183.95 174.888 183.419L176.216 180.232C176.216 180.232 177.012 186.207 181.527 184.348C186.042 182.489 187.105 180.232 187.105 180.232L193.08 182.622L194.01 175.185Z" fill="#FCD2B1"/>
<path d="M228.271 185.278L190.425 169.874L184.98 186.34L224.686 205.595L228.271 185.278Z" fill="#34334B"/>
<path d="M241.683 152.743L218.709 186.34C215.257 191.386 215.788 198.291 219.904 202.674C224.818 207.852 232.918 207.189 237.035 201.08L257.618 170.936L241.683 152.743Z" fill="#34334B"/>
<path d="M224.154 126.318L214.062 126.716C208.618 132.825 210.742 144.643 210.742 144.643L227.209 139.464L224.154 126.318Z" fill="#34334B"/>
<path d="M222.958 134.949L233.316 151.15L243.674 141.722L228.536 118.085L222.958 134.949Z" fill="#FCD2B1"/>
<path d="M228.536 143.581L228.404 132.559L224.021 136.676L228.536 143.581Z" fill="#EFBEAA"/>
<path d="M209.679 102.017C209.679 102.017 202.774 105.602 205.032 115.561C205.032 115.561 206.758 122.732 209.281 133.09C210.609 138.535 216.319 141.456 220.834 138.8C223.623 137.207 226.544 134.816 228.934 131.364L231.989 125.787C238.628 110.914 224.685 94.8458 210.742 101.485C210.343 101.751 210.078 101.884 209.679 102.017Z" fill="#FCD2B1"/>
<path d="M208.617 125.521L206.227 129.903C205.961 130.567 206.36 131.231 207.024 131.098L210.343 130.434L208.617 125.521Z" fill="#FCD2B1"/>
<path d="M224.022 116.624C224.022 116.624 221.897 91.5259 205.563 107.063C205.563 107.063 209.414 91.7915 228.271 94.3146C232.255 94.8457 237.035 98.2983 238.762 102.282C241.55 108.523 239.691 115.163 237.035 127.247L228.537 121.272C227.74 119.811 224.022 116.624 224.022 116.624Z" fill="#34334B"/>
<path d="M228.271 107.727L227.076 118.748C200.517 118.085 208.352 102.282 208.352 102.282C208.352 102.282 226.279 89.7996 228.271 107.727Z" fill="#34334B"/>
<path d="M217.249 116.225L222.162 120.74L224.685 112.906L217.249 116.225Z" fill="#34334B"/>
<path d="M212.203 102.548C212.203 102.548 204.235 106.664 204.766 113.304C204.766 113.304 196.268 107.992 209.016 100.689C216.585 96.4393 212.203 102.548 212.203 102.548Z" fill="#34334B"/>
<path d="M226.942 121.803C226.942 121.803 231.723 133.223 231.723 137.871L251.775 130.301C251.775 130.301 245.932 123.662 244.073 117.819C242.612 113.171 241.948 101.618 233.184 96.4393L233.582 111.71L226.942 121.803Z" fill="#34334B"/>
<path d="M231.591 117.819C232.52 120.608 231.325 123.795 228.669 124.857C226.146 125.919 223.225 124.459 222.162 121.67C221.233 118.881 222.428 115.694 225.084 114.632C227.74 113.57 230.661 115.03 231.591 117.819Z" fill="#FCD2B1"/>
<path d="M243.674 141.722C243.674 141.722 240.487 151.814 232.254 155.665L234.644 144.377L243.674 141.722Z" fill="#FCD2B1"/>
<path d="M262.132 91.3932L270.896 96.4393L270.232 101.618L277.137 107.86L267.974 118.35L246.728 103.876C246.728 103.876 252.438 85.8159 253.766 86.2143C255.093 86.8783 262.132 91.3932 262.132 91.3932Z" fill="#FCD2B1"/>
<path d="M249.516 86.347L253.234 113.171L268.107 113.57L271.692 86.347H249.516Z" fill="#34334B"/>
<path d="M246.33 86.7455H274.349V84.0896H271.694V79.973L248.986 83.0272L248.853 84.488H246.33V87.011" fill="#34334B"/>
<path d="M248.321 104.54C243.142 104.938 249.649 92.19 249.649 92.19C249.649 92.19 263.593 91.3932 263.725 92.0572C263.858 92.7211 263.858 93.9163 262.663 94.1819C261.601 94.4475 252.836 95.5098 252.836 95.5098C252.836 95.5098 261.866 95.9082 261.734 96.8377C261.468 98.1657 260.406 98.2984 257.75 98.6968C255.492 98.9624 250.446 99.0952 250.446 99.0952C250.446 99.0952 260.007 99.228 259.874 99.8919C259.609 100.423 260.273 102.282 256.953 101.751C249.384 100.689 248.321 104.54 248.321 104.54Z" fill="#FCD2B1"/>
<path d="M270.764 93.5179C270.764 93.5179 274.083 87.4094 278.2 87.675C278.2 87.675 273.287 93.1195 272.623 96.8377C271.959 100.556 271.693 103.079 271.693 103.079H269.568L270.764 93.5179Z" fill="#FCD2B1"/>
<path d="M311.132 156.196C311.132 156.196 296.923 246.894 303.563 266.149C310.202 285.404 312.725 302.799 312.725 302.799L345.658 294.035C345.658 294.035 334.769 248.62 333.175 239.988C331.582 231.224 348.447 160.445 348.447 160.445L311.132 156.196Z" fill="#34334B"/>
<path d="M326.669 162.703L342.206 308.509H373.678C373.678 308.509 363.453 154.204 365.312 152.876C367.171 151.681 326.669 162.703 326.669 162.703Z" fill="#34334B"/>
<path d="M314.187 73.8645C314.187 73.8645 310.867 122.732 303.564 121.006C296.26 119.28 276.872 106.532 276.872 106.532L265.054 118.217C265.054 118.217 301.041 154.47 315.781 139.597C330.786 124.857 314.187 73.8645 314.187 73.8645Z" fill="#34334B"/>
<path d="M324.013 332.811L321.889 322.984L344.862 314.618L348.447 329.225L347.119 329.358C341.94 331.483 316.975 341.973 312.992 342.372C308.609 342.77 324.013 332.811 324.013 332.811Z" fill="#34334B"/>
<path d="M378.591 189.394L376.068 192.714C376.068 192.714 374.873 194.972 371.952 198.291C371.155 199.221 370.225 199.885 369.163 200.549C367.835 201.213 366.109 202.142 365.047 202.408C363.719 202.674 363.32 204.267 364.515 204.798C365.711 205.329 369.562 204.533 373.147 202.142C376.732 199.619 375.139 205.993 374.475 208.251C373.944 210.508 372.483 217.679 373.147 218.476C374.076 219.538 375.537 218.874 376.068 216.484C376.6 214.094 378.591 207.321 379.919 207.72C381.247 207.985 378.193 219.671 378.193 219.671C378.193 219.671 377.131 222.061 378.591 222.46C381.38 223.256 383.638 210.641 383.77 209.446C383.903 208.649 385.364 208.915 385.098 209.844C384.965 210.774 381.778 221.397 384.567 222.194C386.692 222.858 386.559 211.836 388.551 209.977C390.543 208.118 387.754 218.343 389.746 218.874C390.543 219.007 391.074 219.14 391.871 213.031C392.535 206.79 391.472 189.66 391.472 189.66L378.326 189.793" fill="#FCD2B1"/>
<path d="M332.911 57.3982C333.176 55.4063 332.114 47.3059 332.114 47.3059C332.114 47.3059 323.881 46.7748 323.084 39.3384C322.287 31.902 322.154 14.9045 322.154 14.9045L336.894 7.86646L353.759 18.7555L357.61 26.8558L352.564 46.1108V55.8047L332.911 57.3982Z" fill="#FCD2B1"/>
<path d="M332.113 47.3059C332.113 47.3059 337.558 47.1731 342.87 43.7205C342.87 43.7205 340.612 49.165 332.379 49.165L332.113 47.3059Z" fill="#FF8C4A"/>
<path d="M357.344 34.9562C355.087 39.4712 353.759 45.978 353.759 45.978C352.564 47.9699 352.165 41.5958 352.165 41.5958C352.165 41.5958 351.103 35.3546 352.033 32.9643C352.033 32.9643 356.149 34.1594 357.079 27.387C357.477 24.0672 352.033 22.4737 350.439 26.4574L346.987 26.723C346.987 26.723 346.721 14.1077 338.753 16.3652C338.753 16.3652 332.91 19.5522 329.458 17.5603C326.005 15.5684 326.271 14.9045 326.271 14.9045C326.271 14.9045 324.545 18.2243 320.162 16.0996C315.647 13.9749 315.116 9.99113 316.71 8.13203C317.639 7.06969 318.436 5.87456 319.897 5.60897C321.358 5.34339 322.951 5.87456 323.881 6.9369C322.818 5.47618 323.615 3.3515 325.209 2.28915C326.802 1.3596 329.059 1.35961 330.786 2.02357C332.512 2.68754 334.106 3.74987 335.566 4.94501C336.629 2.28915 339.683 0.430057 342.87 0.695643C345.924 0.961229 348.713 3.21871 349.244 6.00736C350.97 4.14826 354.157 3.74988 356.548 4.67943C358.938 5.60898 360.531 7.99925 361.063 10.3895C361.461 12.7798 360.93 15.3029 360 17.5603C361.859 16.6308 364.515 17.2947 365.71 18.8883C366.905 20.4818 367.038 22.7392 366.109 24.4656C365.179 26.1919 363.453 27.5198 361.594 28.4493C363.054 29.5117 363.453 31.5036 362.523 32.9643C361.594 34.425 359.602 35.2218 357.876 34.6906" fill="#34334B"/>
<path d="M351.501 30.4412C351.501 30.4412 351.634 30.574 351.767 30.574C351.9 30.7068 352.298 30.7068 352.697 30.7068C353.493 30.4412 354.157 29.5117 354.29 28.3166C354.29 27.7854 354.29 27.2542 354.025 26.723C353.892 26.1919 353.493 25.9263 353.228 25.7935C352.829 25.6607 352.564 25.9263 352.431 26.0591C352.298 26.1919 352.298 26.3247 352.298 26.3247C352.298 26.3247 352.165 26.1919 352.165 25.9263C352.165 25.7935 352.298 25.6607 352.431 25.5279C352.564 25.3951 352.829 25.3951 353.095 25.3951C353.626 25.3951 354.025 25.9263 354.29 26.4575C354.556 26.9886 354.688 27.6526 354.556 28.1838C354.423 29.5117 353.626 30.574 352.564 30.8396C352.033 30.9724 351.634 30.7068 351.501 30.574C351.501 30.574 351.501 30.4412 351.501 30.4412Z" fill="#FF8C4A"/>
<path d="M385.629 76.7859C385.629 76.7859 380.052 53.2816 352.696 55.6718C327.731 57.9293 327.731 57.9293 327.731 57.9293C327.731 57.9293 310.601 64.4362 312.991 83.0272C315.382 101.485 316.577 118.483 315.913 121.67C315.249 124.99 309.273 154.071 311.132 156.063C329.192 175.849 375.138 144.245 375.138 144.245L385.629 76.7859Z" fill="#4E4C82"/>
<path d="M352.696 55.8047L359.07 193.511L378.06 184.215L376.068 62.0459C375.935 62.0459 370.889 54.0784 352.696 55.8047Z" fill="#34334B"/>
<path d="M392.136 191.917L385.629 76.9188C383.637 69.8808 379.255 64.4362 373.678 59.9213V193.511L392.136 191.917Z" fill="#34334B"/>
<path d="M332.911 57.3982C332.911 57.3982 315.913 65.1002 316.71 90.862C317.507 116.757 306.485 189.793 306.485 189.793L292.276 187.137C292.276 187.137 308.743 117.952 309.407 105.735C310.071 93.385 308.875 75.8564 318.171 63.7722C324.678 55.2735 332.911 57.3982 332.911 57.3982Z" fill="#34334B"/>
<path d="M352.696 55.8047C352.696 55.8047 358.274 67.092 357.742 71.3414C357.211 75.458 355.219 84.2223 355.219 84.2223C355.219 84.2223 359.336 86.4798 359.07 88.4717C358.805 90.4636 354.821 110.383 354.821 110.383L352.696 55.8047Z" fill="#4E4C82"/>
<path d="M370.624 83.824C370.757 83.824 370.89 85.2847 371.155 88.0734C371.421 90.862 371.686 94.8458 371.819 99.7591C372.218 109.719 372.616 123.396 372.882 138.535C373.147 153.673 373.28 167.351 373.545 177.31C373.678 182.223 373.678 186.207 373.811 188.996C373.944 191.785 373.811 193.245 373.811 193.245C373.678 193.245 373.545 191.785 373.28 188.996C373.014 186.207 372.749 182.223 372.616 177.31C372.218 167.351 371.819 153.673 371.554 138.535C371.288 123.396 371.155 109.719 370.89 99.7591C370.757 94.8458 370.757 90.862 370.624 88.0734C370.491 85.4175 370.491 83.824 370.624 83.824Z" fill="#4E4C82"/>
<path d="M323.748 322.32C324.013 322.187 318.038 301.471 318.038 301.471L338.222 296.16L342.472 315.68L323.748 322.32Z" fill="#FCD2B1"/>
<path d="M370.225 308.509H347.252V324.843H370.225V308.509Z" fill="#FCD2B1"/>
<path d="M345.128 333.607L347.252 323.781H371.952L369.296 338.255H367.968C362.258 338.521 334.77 339.849 330.919 338.786C326.802 337.724 345.128 333.607 345.128 333.607Z" fill="#34334B"/>
<path d="M486.817 31.6364C488.544 37.2137 490.27 42.9237 491.996 48.501C492.262 49.2978 492.527 50.0946 492.395 50.8913C492.395 53.2816 490.004 55.1407 487.614 55.5391C485.224 55.9374 482.701 55.4063 480.311 54.7423C479.647 57.1326 476.725 58.1949 474.202 58.5933C462.915 60.718 450.963 59.2573 440.605 54.4767C445.12 48.2355 448.706 41.463 451.494 34.425C460.392 34.8234 469.156 35.2218 478.053 35.6201C479.647 35.7529 481.24 35.7529 482.701 35.2218C484.161 34.6906 485.489 33.4954 485.622 31.9019" fill="#34334B"/>
<path d="M383.903 105.868L381.247 102.946C381.247 102.946 379.388 101.485 376.732 98.1656C376.068 97.3689 375.537 96.3065 375.138 95.2441C374.74 94.049 374.209 92.3227 374.209 91.2604C374.209 90.0652 372.748 89.4012 371.951 90.3308C371.287 91.2603 371.022 94.5802 372.615 98.2984C374.209 102.017 368.499 99.0951 366.374 98.0328C364.249 96.9705 357.61 94.1818 356.68 94.4474C355.485 94.9786 355.883 96.4393 358.008 97.3688C360.133 98.2984 366.374 101.751 365.71 102.813C365.046 103.876 354.423 98.4312 354.423 98.4312C354.423 98.4312 352.298 96.9705 351.634 98.1656C350.306 100.29 362.125 105.204 363.187 105.735C363.984 106 363.32 107.196 362.523 106.797C361.726 106.399 352.032 101.22 350.572 103.345C349.509 105.071 360.266 107.461 361.594 109.586C362.921 111.71 353.626 106.93 352.696 108.523C352.298 109.187 352.165 109.586 357.875 111.71C363.851 113.835 380.716 116.889 380.716 116.889L383.504 105.602" fill="#FF8C4A"/>
<path d="M431.841 79.309C431.841 79.309 422.147 106.399 419.226 106.664C398.909 108.523 376.732 99.8919 376.732 99.8919L371.155 115.163C371.155 115.163 428.92 140.128 441.269 116.093C454.416 90.4636 453.752 86.4798 453.752 86.4798L431.841 79.309Z" fill="#FCD2B1"/>
<path d="M433.169 232.419C443.527 278.365 511.517 321.258 511.517 321.258L523.07 307.447C523.07 307.447 468.36 260.173 466.102 239.192C463.712 218.21 481.904 185.278 481.904 185.278L463.048 177.576L433.169 232.419Z" fill="#34334B"/>
<path d="M456.143 64.7018C456.541 62.8427 455.745 54.8751 455.745 54.8751C455.745 54.8751 448.308 54.0784 447.777 46.9076C447.246 39.7368 447.777 23.1376 447.777 23.1376L461.455 16.6308L476.46 27.6526L474.203 63.6395L456.143 64.7018Z" fill="#FCD2B1"/>
<path d="M475.264 33.2299C475.264 33.2299 463.047 32.1675 460.923 21.4113L447.644 33.2299C447.644 33.2299 443.66 25.2623 450.963 17.8259C458.267 10.3895 463.313 11.983 466.235 11.983C468.89 11.983 482.568 14.7717 486.552 29.7773C486.817 30.8396 487.083 33.4955 487.216 34.8234L475.264 33.2299Z" fill="#34334B"/>
<path d="M455.744 54.8751C455.744 54.8751 460.79 54.8751 465.571 51.688C465.571 51.688 463.313 56.9998 455.877 56.7342L455.744 54.8751Z" fill="#FF8C4A"/>
<path d="M440.34 145.838C440.34 148.361 441.27 151.947 441.27 151.947L493.856 166.687C493.856 166.687 497.574 143.581 488.013 130.833C483.631 124.99 484.56 116.624 486.419 109.586L492.66 85.4175L484.427 62.7099L451.229 64.8346C451.229 64.8346 431.974 62.9755 425.334 87.5422L437.684 105.469L437.817 112.242L440.34 145.838Z" fill="#FF8C4A"/>
<path d="M491.731 136.808C492.262 136.808 501.823 157.524 493.192 169.874C492.395 171.069 490.403 173.857 487.747 177.841C474.999 196.831 445.917 241.449 444.855 247.956C443.66 255.791 420.156 339.052 420.156 339.052L402.627 336.396L416.969 242.113L440.34 145.971L491.731 136.808Z" fill="#34334B"/>
<path d="M461.321 20.4817C461.321 20.4817 458.665 25.5279 459.728 29.3789L447.776 32.3003C447.776 32.4331 445.12 17.8259 461.321 20.4817Z" fill="#34334B"/>
<path d="M487.349 33.7611C487.349 33.7611 488.809 50.3602 474.335 53.2816L475.265 33.3627L487.349 33.7611Z" fill="#34334B"/>
<path opacity="0.34" d="M455.479 105.204L412.322 49.6962L331.318 85.1519L363.985 115.429L400.901 121.272L455.479 105.204Z" fill="url(#paint0_linear)"/>
<path d="M432.771 110.781L403.158 122.865L354.822 123.927L331.317 85.1519L381.115 81.9648L402.627 119.412L432.638 108.125L432.771 110.781Z" fill="#E5E5E5"/>
<path d="M427.46 82.3632L419.227 102.017L437.818 111.046L439.544 93.7834L427.46 82.3632Z" fill="#FF8C4A"/>
<path d="M478.85 62.8427L475.663 59.2573L462.251 62.5771L463.845 66.4281L478.85 62.8427Z" fill="#FF8C4A"/>
<path d="M463.845 66.4281L458.533 76.5203L458.4 66.4281L458.932 63.3738H462.517L463.845 66.4281Z" fill="#FCD2B1"/>
<path d="M458.399 66.4281L459.063 62.5771L455.744 61.2491L451.893 64.7018L458.399 66.4281Z" fill="#FF8C4A"/>
<path d="M437.685 111.312C437.685 111.312 437.95 110.914 437.95 109.984C437.95 109.055 437.419 107.859 436.357 106.664C435.427 105.469 433.834 104.274 433.568 102.415C433.435 101.485 433.435 100.556 433.834 99.4935C434.232 98.564 434.896 97.6344 435.693 97.1032C436.49 96.572 437.552 96.1737 438.482 96.1737H438.747V95.9081C439.278 92.1899 439.942 88.7373 440.208 86.347C440.473 83.9567 440.208 82.496 440.075 82.496C439.942 82.496 439.942 83.9567 439.677 86.347C439.411 88.7373 438.614 92.0571 437.95 95.9081L438.349 95.5097C437.286 95.5097 436.091 95.9081 435.162 96.5721C434.099 97.236 433.303 98.2984 432.904 99.3607C432.506 100.423 432.506 101.618 432.772 102.681C433.037 103.743 433.568 104.672 434.099 105.336C434.763 106 435.295 106.664 435.826 107.195C436.888 108.258 437.419 109.32 437.552 110.117C437.818 110.781 437.552 111.312 437.685 111.312Z" fill="#FF8C4A"/>
<path d="M437.684 85.2847C437.551 85.4175 437.95 86.347 438.481 87.4094C439.012 88.4717 439.277 89.534 439.543 89.534C439.809 89.534 439.809 88.3389 439.277 87.1438C438.746 85.9486 437.817 85.1519 437.684 85.2847Z" fill="#FF8C4A"/>
<path d="M418.562 102.017C418.429 102.149 422.679 104.54 428.123 106.93C433.568 109.32 438.083 110.914 438.083 110.781C438.215 110.515 433.833 108.656 428.389 106.266C423.077 103.876 418.695 101.884 418.562 102.017Z" fill="#FF8C4A"/>
<path d="M419.625 99.2279C419.492 99.3607 423.343 101.618 428.124 104.008C432.904 106.532 436.888 108.258 437.021 108.125C437.154 107.992 433.303 105.735 428.522 103.344C423.742 100.821 419.758 99.0951 419.625 99.2279Z" fill="#FF8C4A"/>
<path d="M444.589 85.9486C444.589 86.2142 445.652 86.347 447.112 86.4798C448.573 86.6126 449.635 86.4798 449.635 86.2142C449.635 85.9487 448.573 85.8158 447.112 85.683C445.784 85.683 444.589 85.6831 444.589 85.9486Z" fill="#FF8C4A"/>
<path d="M444.191 86.8782C444.191 87.1438 445.387 87.5421 447.113 87.9405C448.706 88.3389 450.167 88.4717 450.167 88.3389C450.167 88.0733 448.972 87.6749 447.246 87.2766C445.519 86.7454 444.191 86.6126 444.191 86.8782Z" fill="#FF8C4A"/>
<path d="M401.033 336.263C401.033 336.263 385.629 340.247 389.48 341.442C393.331 342.504 420.023 339.716 420.023 339.716L420.952 336.794L401.033 336.263Z" fill="#34334B"/>
<path d="M420.023 339.716L425.334 325.374H401.83L401.033 336.263L420.023 339.716Z" fill="#34334B"/>
<path d="M511.649 322.187C511.649 322.187 507.798 337.193 510.587 334.404C513.509 331.748 523.999 307.713 523.999 307.713L521.742 305.588L511.649 322.187Z" fill="#34334B"/>
<path d="M523.999 307.713L513.774 296.292L502.354 316.211L511.65 322.187L523.999 307.713Z" fill="#34334B"/>
<path d="M460.259 15.834C460.259 15.7012 458.798 15.7012 456.541 16.2324C454.283 16.7636 451.362 18.2243 448.972 20.7473C446.581 23.2704 445.386 26.1918 444.855 28.4493C444.457 30.574 444.589 32.0347 444.722 32.0347C444.855 32.0347 444.855 30.7068 445.519 28.5821C446.05 26.4574 447.378 23.6688 449.635 21.2785C451.893 18.8882 454.682 17.4275 456.806 16.7635C458.798 16.0996 460.259 15.9668 460.259 15.834Z" fill="#34334B"/>
<path d="M361.328 103.743C361.992 105.469 363.586 106.532 364.914 106.133C366.242 105.735 366.773 103.876 366.109 102.149C365.445 100.423 363.851 99.3607 362.523 99.7591C361.196 100.29 360.664 102.017 361.328 103.743Z" fill="#F3EFEA"/>
<path d="M468.89 146.768C468.89 146.768 468.226 80.3713 470.617 75.3252C470.617 75.3252 473.14 62.8427 482.966 62.5771L478.584 62.8427C478.584 62.8427 469.687 62.1787 467.031 79.309C464.508 96.3065 464.641 147.299 464.641 147.299L468.89 146.768Z" fill="#34334B"/>
<path d="M449.768 149.158C449.768 149.158 447.112 72.8022 449.237 64.8346H446.581C446.581 64.8346 444.191 71.3414 444.722 89.6668C444.988 100.689 444.722 149.158 444.722 149.158H449.768Z" fill="#34334B"/>
<path d="M418.297 115.163C418.297 115.163 405.416 123.131 402.627 122.998C399.838 122.998 391.738 122.732 392.535 123.795C393.332 124.857 402.627 126.318 402.627 126.318L418.297 115.163Z" fill="#FCD2B1"/>
<path d="M419.359 131.895C419.359 131.895 480.444 147.83 488.81 122.068C497.707 94.8458 497.84 101.884 497.84 101.884L478.718 83.9567C478.718 83.9567 468.493 115.429 465.571 116.093C449.503 120.076 431.311 117.553 424.937 116.358C424.273 115.827 423.343 115.03 422.414 114.233C421.617 113.437 420.953 112.64 420.422 111.578C419.758 110.383 419.094 108.789 418.961 107.859C418.828 106.664 417.102 106.266 416.571 107.195C416.04 108.125 416.438 111.578 418.563 115.03C418.563 115.03 404.088 124.06 402.893 126.318L419.359 131.895Z" fill="#FCD2B1"/>
<path d="M484.428 62.5771C484.428 62.5771 498.371 65.1002 498.902 86.4798C499.434 107.727 490.537 123.927 490.537 123.927L466.899 111.976L484.428 62.5771Z" fill="#FF8C4A"/>
<path d="M467.031 112.109C467.031 112.242 468.359 112.773 470.617 113.835C472.874 114.765 475.796 116.225 479.115 117.819C482.435 119.545 485.357 121.139 487.349 122.334C489.473 123.529 490.801 124.326 490.801 124.193C490.801 124.06 489.739 123.131 487.614 121.936C485.622 120.608 482.701 118.881 479.381 117.288C476.061 115.561 473.007 114.234 470.749 113.437C468.492 112.374 467.031 111.976 467.031 112.109Z" fill="#FF8C4A"/>
<path d="M467.961 110.515C467.961 110.648 469.289 111.179 471.546 111.976C473.804 112.773 476.858 114.101 480.045 115.561C483.365 117.155 486.154 118.616 488.278 119.811C490.403 121.006 491.598 121.67 491.731 121.537C491.731 121.404 490.668 120.608 488.677 119.28C486.685 117.952 483.763 116.358 480.576 114.765C477.256 113.171 474.202 112.109 471.945 111.312C469.422 110.781 467.961 110.383 467.961 110.515Z" fill="#FF8C4A"/>
<path d="M474.734 87.6749C474.999 87.6749 475.398 85.9486 475.132 83.6912C474.999 81.4337 474.203 79.7074 474.07 79.8402C473.804 79.8402 474.203 81.6993 474.335 83.824C474.601 85.8158 474.468 87.6749 474.734 87.6749Z" fill="#FF8C4A"/>
<path d="M467.031 111.976C467.164 111.976 468.093 110.383 469.289 107.727C470.617 105.071 472.077 101.22 473.405 96.9704C474.733 92.5883 475.53 88.6045 475.928 85.683C476.327 82.7616 476.459 80.9025 476.327 80.9025C476.194 80.9025 475.928 82.6288 475.264 85.5503C474.733 88.4717 473.804 92.3227 472.476 96.7049C471.148 100.954 469.687 104.805 468.625 107.461C467.695 110.25 466.898 111.843 467.031 111.976Z" fill="#FF8C4A"/>
<defs>
<linearGradient id="paint0_linear" x1="365.519" y1="105.562" x2="426.493" y2="80.498" gradientUnits="userSpaceOnUse">
<stop stop-color="white"/>
<stop offset="0.2316" stop-color="white" stop-opacity="0.7684"/>
<stop offset="1" stop-color="white" stop-opacity="0"/>
</linearGradient>
</defs>
</svg>
