<svg width="66" height="59" viewBox="0 0 66 59" fill="none" xmlns="http://www.w3.org/2000/svg">
<path d="M61.8029 0H49.4007C48.8683 0 48.4367 0.431655 48.4367 0.96409C48.4367 1.49652 48.8683 1.92818 49.4007 1.92818H61.8029C62.9521 1.92818 63.887 2.86309 63.887 4.01229V40.6444H1.92818V4.01229C1.92818 2.86309 2.86309 1.92818 4.01229 1.92818H44.9015C45.434 1.92818 45.8656 1.49652 45.8656 0.96409C45.8656 0.431655 45.434 0 44.9015 0H4.01229C1.79989 0 0 1.79989 0 4.01229V43.7021C0 45.9145 1.79989 47.7144 4.01229 47.7144H13.242C13.7744 47.7144 14.2061 47.2827 14.2061 46.7503C14.2061 46.2178 13.7744 45.7862 13.242 45.7862H4.01229C2.86309 45.7862 1.92818 44.8513 1.92818 43.7021V42.5725H63.887V43.7021C63.887 44.8513 62.9521 45.7862 61.8029 45.7862H17.6986C17.1662 45.7862 16.7345 46.2178 16.7345 46.7503C16.7345 47.2827 17.1662 47.7144 17.6986 47.7144H23.7665L22.8146 53.2155H21.0553C19.4605 53.2155 18.1631 54.5129 18.1631 56.1077C18.1631 57.7026 19.4605 59 21.0553 59H44.7599C46.3547 59 47.6521 57.7026 47.6521 56.1077C47.6521 54.5129 46.3547 53.2155 44.7599 53.2155H43.0006L42.0487 47.7144H61.8028C64.0152 47.7144 65.8151 45.9145 65.8151 43.7021V4.01229C65.8152 1.79989 64.0153 0 61.8029 0V0ZM41.0438 53.2155H38.4191C37.8867 53.2155 37.455 53.6471 37.455 54.1795C37.455 54.712 37.8867 55.1436 38.4191 55.1436H44.7599C45.2915 55.1436 45.724 55.5761 45.724 56.1077C45.724 56.6394 45.2915 57.0718 44.7599 57.0718H21.0553C20.5237 57.0718 20.0913 56.6394 20.0913 56.1077C20.0913 55.5761 20.5237 55.1436 21.0553 55.1436H33.9185C34.4509 55.1436 34.8826 54.712 34.8826 54.1795C34.8826 53.6471 34.4509 53.2155 33.9185 53.2155H24.7715L25.7233 47.7144H40.092L41.0438 53.2155Z" fill="#4E4C82" fill-opacity="0.5"/>
<path d="M52.1532 24.3938C51.7905 24.3938 51.4585 24.5974 51.2939 24.9207L46.7442 33.863L42.9048 26.3167C42.7403 25.9934 42.4082 25.7898 42.0455 25.7898C41.6827 25.7898 41.3507 25.9934 41.1861 26.3167L39.1049 30.4074H35.7818C35.2494 30.4074 34.8177 30.8391 34.8177 31.3715C34.8177 31.9039 35.2494 32.3356 35.7818 32.3356H39.696C40.0588 32.3356 40.3908 32.132 40.5554 31.8087L42.0455 28.88L45.8849 36.4263C46.0494 36.7496 46.3814 36.9532 46.7442 36.9532C47.1069 36.9532 47.439 36.7496 47.6035 36.4263L52.1532 27.484L54.3536 31.8088C54.5181 32.1321 54.8501 32.3357 55.2129 32.3357H59.1271C59.6595 32.3357 60.0912 31.9041 60.0912 31.3716C60.0912 30.8392 59.6595 30.4075 59.1271 30.4075H55.8041L53.0126 24.9208C52.848 24.5974 52.516 24.3938 52.1532 24.3938V24.3938Z" fill="#4E4C82" fill-opacity="0.5"/>
<path d="M35.7823 21.5378H40.7852C41.3176 21.5378 41.7493 21.1061 41.7493 20.5737V10.4245C41.7493 9.8921 41.3176 9.46045 40.7852 9.46045H35.7823C35.2499 9.46045 34.8182 9.8921 34.8182 10.4245V20.5737C34.8182 21.1061 35.2499 21.5378 35.7823 21.5378ZM36.7464 11.3886H39.8211V19.6096H36.7464V11.3886Z" fill="#4E4C82" fill-opacity="0.5"/>
<path d="M49.9901 12.2184H44.9873C44.4548 12.2184 44.0232 12.65 44.0232 13.1825V20.5737C44.0232 21.1061 44.4548 21.5378 44.9873 21.5378H49.9901C50.5226 21.5378 50.9542 21.1061 50.9542 20.5737V13.1825C50.9542 12.65 50.5226 12.2184 49.9901 12.2184ZM49.0261 19.6096H45.9514V14.1466H49.0261V19.6096Z" fill="#4E4C82" fill-opacity="0.5"/>
<path d="M59.1271 21.5378C59.6595 21.5378 60.0912 21.1061 60.0912 20.5737V7.87998C60.0912 7.34755 59.6595 6.91589 59.1271 6.91589H54.1242C53.5918 6.91589 53.1602 7.34755 53.1602 7.87998V20.5737C53.1602 21.1061 53.5918 21.5378 54.1242 21.5378H59.1271ZM55.0883 8.84407H58.163V19.6096H55.0883V8.84407Z" fill="#4E4C82" fill-opacity="0.5"/>
<path d="M28.524 17.8219H6.67124C6.13881 17.8219 5.70715 18.2536 5.70715 18.786C5.70715 19.3184 6.13881 19.7501 6.67124 19.7501H28.524C29.0564 19.7501 29.488 19.3184 29.488 18.786C29.488 18.2536 29.0564 17.8219 28.524 17.8219Z" fill="#4E4C82" fill-opacity="0.5"/>
<path d="M6.67124 24.8715H10.5819C11.1143 24.8715 11.5459 24.4398 11.5459 23.9074C11.5459 23.375 11.1143 22.9433 10.5819 22.9433H6.67124C6.13881 22.9433 5.70715 23.375 5.70715 23.9074C5.70715 24.4398 6.13881 24.8715 6.67124 24.8715V24.8715Z" fill="#4E4C82" fill-opacity="0.5"/>
<path d="M28.524 22.9433H14.9994C14.4669 22.9433 14.0353 23.375 14.0353 23.9074C14.0353 24.4398 14.4669 24.8715 14.9994 24.8715H28.524C29.0564 24.8715 29.4881 24.4398 29.4881 23.9074C29.4881 23.375 29.0564 22.9433 28.524 22.9433Z" fill="#4E4C82" fill-opacity="0.5"/>
<path d="M28.524 6.91589H6.67124C6.13881 6.91589 5.70715 7.34755 5.70715 7.87998C5.70715 8.41242 6.13881 8.84407 6.67124 8.84407H28.524C29.0564 8.84407 29.488 8.41242 29.488 7.87998C29.488 7.34755 29.0564 6.91589 28.524 6.91589Z" fill="#4E4C82" fill-opacity="0.5"/>
<path d="M6.67124 13.9655H20.2228C20.7552 13.9655 21.1868 13.5339 21.1868 13.0014C21.1868 12.469 20.7552 12.0374 20.2228 12.0374H6.67124C6.13881 12.0374 5.70715 12.469 5.70715 13.0014C5.70715 13.5339 6.13881 13.9655 6.67124 13.9655V13.9655Z" fill="#4E4C82" fill-opacity="0.5"/>
<path d="M28.524 12.0374H24.6402C24.1078 12.0374 23.6761 12.469 23.6761 13.0014C23.6761 13.5339 24.1078 13.9655 24.6402 13.9655H28.524C29.0564 13.9655 29.4881 13.5339 29.4881 13.0014C29.4881 12.469 29.0564 12.0374 28.524 12.0374V12.0374Z" fill="#4E4C82" fill-opacity="0.5"/>
<path d="M29.488 28.9667C29.488 28.4342 29.0564 28.0026 28.524 28.0026H6.67124C6.13881 28.0026 5.70715 28.4342 5.70715 28.9667C5.70715 29.4991 6.13881 29.9307 6.67124 29.9307H28.524C29.0564 29.9307 29.488 29.4991 29.488 28.9667Z" fill="#4E4C82" fill-opacity="0.5"/>
<path d="M6.67124 33.0968C6.13881 33.0968 5.70715 33.5285 5.70715 34.0609C5.70715 34.5933 6.13881 35.025 6.67124 35.025H16.9549C17.4873 35.025 17.919 34.5933 17.919 34.0609C17.919 33.5285 17.4873 33.0968 16.9549 33.0968H6.67124Z" fill="#4E4C82" fill-opacity="0.5"/>
</svg>
