<svg width="237" height="192" viewBox="0 0 237 192" fill="none" xmlns="http://www.w3.org/2000/svg">
<path d="M8.90261 101.5C15.7434 51.4898 76.8159 7.97976 145.789 17.9486C214.762 27.9174 233.516 51.387 226.675 101.397C219.834 151.407 158.375 183.867 89.4022 173.898C20.4292 163.93 2.06185 151.51 8.90261 101.5Z" fill="#D3D3D3" fill-opacity="0.23"/>
<path d="M47.0384 107.93C51.7797 107.93 55.6233 104.086 55.6233 99.3447C55.6233 94.6034 51.7797 90.7598 47.0384 90.7598C42.297 90.7598 38.4534 94.6034 38.4534 99.3447C38.4534 104.086 42.297 107.93 47.0384 107.93Z" fill="#34334B"/>
<path d="M52.4039 83.9031C54.9131 83.9031 56.9472 81.8689 56.9472 79.3597C56.9472 76.8505 54.9131 74.8164 52.4039 74.8164C49.8947 74.8164 47.8606 76.8505 47.8606 79.3597C47.8606 81.8689 49.8947 83.9031 52.4039 83.9031Z" fill="#FF8C4A"/>
<path d="M61.5045 94.3416C62.3357 94.3416 63.0096 93.6677 63.0096 92.8364C63.0096 92.0052 62.3357 91.3313 61.5045 91.3313C60.6732 91.3313 59.9993 92.0052 59.9993 92.8364C59.9993 93.6677 60.6732 94.3416 61.5045 94.3416Z" fill="#34334B"/>
<path d="M87.1059 64.3917C87.1059 64.3917 85.6565 52.7268 89.3079 47.403C94.0742 40.4765 107.593 38.5393 114.045 42.358C121.181 46.5808 126.867 57.4791 124.372 67.0257C134.978 70.0778 137.515 82.133 130.058 85.2269L136.441 98.8987C140.413 107.4 136.358 117.56 127.243 121.95L110.924 129.81C110.924 129.81 80.8066 134.548 74.8417 120.598C68.8769 106.647 80.5557 96.4737 80.5557 96.4737C80.5557 96.4737 71.0231 85.8819 75.5664 75.5549C80.1237 65.2279 87.1059 64.3917 87.1059 64.3917Z" fill="#34334B"/>
<path d="M133.417 104.362C133.417 104.362 160.789 108.696 168.203 108.376C174.014 108.696 183.589 76.879 184.425 74.9279C189.066 72.0151 190.223 68.0293 190.153 65.8273C190.083 63.6253 184.16 61.7718 183.589 62.8867C184.564 59.9739 184.787 59.0541 185.052 58.0507C185.61 55.9741 184.021 54.3993 181.749 62.2177C179.505 69.9246 179.728 68.6564 179.185 71.3741C175.52 78.412 166.071 94.8293 165.429 97.31C153.179 97.0173 132.428 92.251 132.428 92.251L133.417 104.362Z" fill="#FCD2B1"/>
<path d="M78.6046 96.9337C78.6046 96.9337 65.6297 121.281 63.1071 128.082C60.5985 133.141 86.6599 156.443 88.1233 158.129C89.0292 163.662 91.4263 165.571 93.461 166.561C95.4957 167.536 99.4398 163.119 98.6454 162.087C100.945 164.345 101.698 164.972 102.506 165.697C104.192 167.174 106.241 166.505 99.9554 160.763C93.7537 155.091 94.8407 155.899 92.5551 154.115C87.5101 147.496 76.0821 131.246 74.0613 129.49C78.9809 118.661 91.2451 102.313 91.2451 102.313L78.6046 96.9337Z" fill="#FCD2B1"/>
<path d="M108.331 177.989L115.899 145.154L128.79 152.875C128.79 152.875 129.835 162.324 131.173 174.574C131.173 174.574 121.083 178.226 108.331 177.989Z" fill="#34334B"/>
<path d="M121.334 176.985C123.397 164.526 125.041 154.492 125.041 154.492C125.041 154.492 89.7678 149.586 89.6424 159.23C89.6006 162.185 89.949 167.871 90.7712 174.365C109.321 180.33 121.334 176.985 121.334 176.985Z" fill="#4E4C82"/>
<path d="M121.599 113.476C120.554 115.901 128.484 149.572 129.808 157.335C129.808 157.335 129.64 157.307 129.32 157.251C125.877 156.735 104.819 153.962 87.8028 161.056L86.2419 113.49L86.1722 111.72C86.1722 111.72 86.1722 109.922 86.3394 107.177V107.149C86.7296 101.491 87.9003 91.9443 91.5378 85.8122C93.4192 82.6347 95.9138 80.363 99.3283 80.0285C109.906 78.9833 109.85 83.3176 119.676 85.7425L135.619 89.7005C135.619 89.7005 133.835 102.062 135.619 105.742H124.554C124.554 105.728 122.63 111.023 121.599 113.476Z" fill="#FF8C4A"/>
<path d="M115.523 48.295C115.523 48.295 125.222 62.8448 120.136 69.9525C116.331 75.2763 109.948 78.0636 109.948 78.0636V85.7287C109.948 85.7287 109.181 86.4116 107.843 86.4813C105.516 86.6067 99.3282 82.8717 99.3282 82.8717V52.6851L115.523 48.295Z" fill="#FCD2B1"/>
<path d="M86.214 115.441C86.214 115.441 100.847 98.4806 98.52 90.3138C96.1926 82.1469 85.1269 84.9482 78.9391 94.3554C72.7512 103.763 70.2984 106.982 70.2984 106.982C70.2984 106.982 76.6674 115.595 86.214 115.441Z" fill="#FF8C4A"/>
<path d="M115.495 46.9153C115.495 46.9153 116.247 62.0643 108.945 65.7297C101.642 69.395 107.161 78.4259 100.206 85.1712C98.1437 87.1641 95.0777 86.8296 92.7224 86.1328C89.3497 85.1294 85.4893 85.8541 83.134 88.293C82.911 88.5299 82.702 88.7808 82.5347 89.0316C73.5038 83.0668 96.3877 49.9116 96.3877 49.9116L115.495 46.9153Z" fill="#34334B"/>
<path d="M142.016 129.741C138.853 134.632 137.013 140.458 137.013 146.715C137.013 163.983 151.019 177.989 168.287 177.989C185.554 177.989 199.56 163.983 199.56 146.715C199.56 129.448 185.554 115.442 168.287 115.442C160.663 115.442 153.667 118.173 148.246 122.717L137.64 119.915L142.016 129.741Z" fill="#FF8C4A"/>
<path d="M178.725 36.0587C178.725 40.7972 174.879 46.9153 170.14 46.9153C165.402 46.9153 161.555 40.7972 161.555 36.0587C161.555 31.3203 165.388 27.4738 170.14 27.4738C174.892 27.4738 178.725 31.3203 178.725 36.0587Z" fill="#FF8C4A"/>
<path d="M170.405 50.8036C169.527 50.8036 168.705 50.1904 167.98 48.9779C167.464 48.1139 167.854 45.5077 168.273 42.7483C168.384 42.0236 168.482 41.3128 168.579 40.6717C167.966 38.7624 168.105 37.5221 168.37 37.1597C168.468 37.0203 168.607 36.9785 168.732 37.0343C168.983 37.1597 169.123 37.6893 169.123 38.5394C169.123 39.0969 169.053 39.8077 168.955 40.602C168.997 40.7414 169.053 40.8808 169.109 41.0341C169.61 42.372 170.112 42.0793 170.279 41.9678C170.684 41.7309 171.074 41.062 171.366 40.2954C171.255 38.5673 171.38 37.327 171.576 36.9646C171.673 36.7695 171.799 36.7556 171.854 36.7556C172.049 36.7695 172.147 37.0343 172.175 37.1179C172.426 37.7869 172.203 39.1945 171.743 40.393C171.882 42.4138 172.356 45.1872 173.527 48.0999L173.582 48.2254L173.513 48.3368C173.457 48.4344 172.161 50.7339 170.447 50.7618C170.433 50.8036 170.419 50.8036 170.405 50.8036ZM168.83 41.4104C168.76 41.8703 168.691 42.3441 168.621 42.8319C168.259 45.2569 167.841 47.9884 168.259 48.6853C168.928 49.7863 169.652 50.3437 170.419 50.3298C171.743 50.3019 172.844 48.6574 173.123 48.2114C172.105 45.6471 171.603 43.1385 171.408 41.1316C171.116 41.717 170.767 42.1908 170.405 42.3999C170.07 42.6229 169.401 42.7622 168.83 41.4104ZM168.607 37.5081C168.509 37.6893 168.384 38.4279 168.677 39.6962C168.719 39.2641 168.746 38.8739 168.746 38.5534C168.746 37.8984 168.649 37.6057 168.607 37.5081ZM171.826 37.3409C171.743 37.6196 171.659 38.3165 171.673 39.3199C171.896 38.5116 171.98 37.7311 171.826 37.3409Z" fill="white"/>
<path d="M170.14 51.9744C168.412 51.9744 166.977 50.6644 166.837 48.9502L166.544 45.6611L167.422 45.9956C169.22 46.6785 171.199 46.6646 172.983 45.9538L173.722 45.6611L173.429 48.9502C173.29 50.6644 171.854 51.9744 170.14 51.9744Z" fill="#34334B"/>
<path d="M205.637 52.462C204.633 54.8452 201.4 57.1168 199.017 56.1134C196.634 55.11 195.992 51.2217 196.996 48.8246C197.999 46.4414 200.745 45.3125 203.142 46.316C205.539 47.3194 206.64 50.0649 205.637 52.462Z" fill="#FF8C4A"/>
<path d="M198.32 58.1203C197.874 57.9392 197.595 57.4514 197.484 56.6849C197.4 56.1413 198.153 54.9149 198.947 53.6188C199.156 53.2843 199.351 52.9499 199.532 52.6433C199.63 51.5562 199.964 50.9569 200.173 50.8315C200.257 50.7758 200.327 50.7897 200.382 50.8454C200.48 50.9569 200.438 51.2635 200.257 51.6816C200.146 51.9604 199.95 52.3088 199.727 52.6851C199.727 52.7687 199.714 52.8523 199.714 52.9359C199.686 53.7164 199.992 53.6746 200.104 53.6606C200.355 53.6188 200.689 53.368 201.01 53.0474C201.316 52.1555 201.651 51.5562 201.818 51.4168C201.902 51.3472 201.971 51.3611 201.999 51.375C202.097 51.4308 202.083 51.5701 202.083 51.6259C202.069 52.0161 201.651 52.6711 201.163 53.1868C200.801 54.232 200.452 55.7232 200.438 57.4374V57.5071L200.382 57.5489C200.341 57.5907 199.198 58.4688 198.334 58.1203C198.334 58.1203 198.334 58.1203 198.32 58.1203ZM199.518 53.0614C199.393 53.2843 199.254 53.5073 199.114 53.7303C198.417 54.8731 197.637 56.1692 197.693 56.6013C197.79 57.2981 198.041 57.7301 198.431 57.8834C199.1 58.1482 200.006 57.5489 200.243 57.3817C200.271 55.8765 200.55 54.5108 200.884 53.4516C200.619 53.6885 200.341 53.8418 200.118 53.8836C199.881 53.9254 199.518 53.8557 199.518 53.0614ZM200.229 51.0406C200.146 51.1102 199.923 51.4587 199.811 52.1555C199.923 51.9464 200.02 51.7513 200.09 51.598C200.215 51.2775 200.243 51.1102 200.229 51.0406ZM201.888 51.6398C201.79 51.7653 201.595 52.0997 201.4 52.6015C201.679 52.253 201.888 51.8768 201.888 51.6398Z" fill="white"/>
<path d="M197.944 58.6498C197.079 58.2875 196.633 57.3259 196.912 56.4339L197.47 54.7197L197.846 55.0681C198.599 55.7928 199.602 56.197 200.647 56.2249L201.079 56.2388L200.243 57.8276C199.811 58.6638 198.808 59.0122 197.944 58.6498Z" fill="#34334B"/>
<path d="M172.231 66.0921C172.398 68.0154 171.074 70.6354 169.151 70.8027C167.227 70.9699 165.443 68.6425 165.276 66.7193C165.109 64.796 166.517 63.0958 168.44 62.9285C170.363 62.7613 172.049 64.1689 172.231 66.0921Z" fill="#FF8C4A"/>
<path d="M169.388 72.3636C169.025 72.3914 168.677 72.1824 168.342 71.7085C168.105 71.3741 168.161 70.3009 168.231 69.1721C168.245 68.8794 168.259 68.5867 168.273 68.3219C167.952 67.5694 167.966 67.0677 168.064 66.9144C168.105 66.8586 168.147 66.8307 168.203 66.8447C168.314 66.8865 168.384 67.0955 168.412 67.4439C168.426 67.6669 168.426 67.9596 168.412 68.2941C168.44 68.3498 168.468 68.4056 168.496 68.4613C168.746 68.9909 168.942 68.8515 168.997 68.7958C169.151 68.6843 169.29 68.4056 169.374 68.085C169.262 67.3882 169.276 66.8865 169.332 66.7332C169.36 66.6496 169.415 66.6356 169.443 66.6356C169.527 66.6356 169.569 66.7332 169.583 66.775C169.708 67.0398 169.666 67.6112 169.527 68.1268C169.652 68.9352 169.945 70.0501 170.53 71.1789L170.558 71.2347L170.53 71.2904C170.516 71.3322 170.07 72.3078 169.374 72.3914C169.401 72.3636 169.401 72.3636 169.388 72.3636ZM168.412 68.6146C168.398 68.7958 168.384 69.0048 168.384 69.1999C168.328 70.1894 168.259 71.3183 168.454 71.5831C168.76 72.0012 169.081 72.2103 169.388 72.1684C169.917 72.1127 170.307 71.4019 170.405 71.2068C169.903 70.2034 169.61 69.2 169.443 68.3916C169.346 68.6425 169.22 68.8376 169.081 68.9491C168.955 69.0606 168.691 69.1442 168.412 68.6146ZM168.175 67.0398C168.133 67.1234 168.119 67.43 168.287 67.9178C168.287 67.7366 168.287 67.5833 168.273 67.4579C168.245 67.1931 168.203 67.0816 168.175 67.0398ZM169.485 66.8586C169.457 66.9701 169.457 67.2628 169.499 67.6669C169.555 67.3324 169.555 67.0119 169.485 66.8586Z" fill="white"/>
<path d="M169.332 72.8514C168.635 72.9211 168.008 72.4333 167.882 71.7504L167.645 70.4264L168.008 70.524C168.76 70.733 169.569 70.6494 170.266 70.301L170.558 70.1477V71.4856C170.558 72.2103 170.029 72.7957 169.332 72.8514Z" fill="#34334B"/>
</svg>
