<svg width="236" height="192" viewBox="0 0 236 192" fill="none" xmlns="http://www.w3.org/2000/svg">
<path d="M8.15059 101.333C14.9914 51.3223 76.0639 7.81228 145.037 17.7811C214.01 27.7499 232.764 51.2195 225.923 101.23C219.082 151.24 157.623 183.7 88.6502 173.731C19.6772 163.762 1.30984 151.343 8.15059 101.333Z" fill="#F5F5F5"/>
<path d="M46.2863 107.762C51.0277 107.762 54.8713 103.919 54.8713 99.1775C54.8713 94.4361 51.0277 90.5925 46.2863 90.5925C41.545 90.5925 37.7014 94.4361 37.7014 99.1775C37.7014 103.919 41.545 107.762 46.2863 107.762Z" fill="#34334B"/>
<path d="M51.652 83.7358C54.1612 83.7358 56.1953 81.7017 56.1953 79.1925C56.1953 76.6833 54.1612 74.6492 51.652 74.6492C49.1428 74.6492 47.1086 76.6833 47.1086 79.1925C47.1086 81.7017 49.1428 83.7358 51.652 83.7358Z" fill="#FF8C4A"/>
<path d="M60.7525 94.1741C61.5837 94.1741 62.2576 93.5002 62.2576 92.669C62.2576 91.8377 61.5837 91.1638 60.7525 91.1638C59.9212 91.1638 59.2473 91.8377 59.2473 92.669C59.2473 93.5002 59.9212 94.1741 60.7525 94.1741Z" fill="#34334B"/>
<path d="M86.3539 64.2245C86.3539 64.2245 84.9045 52.5595 88.5559 47.2358C93.3222 40.3093 106.841 38.3721 113.293 42.1907C120.429 46.4135 126.115 57.3119 123.62 66.8585C134.226 69.9106 136.763 81.9657 129.306 85.0596L135.689 98.7314C139.661 107.233 135.606 117.392 126.491 121.783L110.172 129.643C110.172 129.643 80.0546 134.381 74.0897 120.431C68.1249 106.48 79.8037 96.3065 79.8037 96.3065C79.8037 96.3065 70.2711 85.7147 74.8144 75.3877C79.3717 65.0606 86.3539 64.2245 86.3539 64.2245Z" fill="#34334B"/>
<path d="M132.665 104.195C132.665 104.195 160.036 108.529 167.451 108.208C173.262 108.529 182.837 76.7118 183.673 74.7606C188.314 71.8479 189.471 67.862 189.401 65.6601C189.331 63.4581 183.408 61.6045 182.837 62.7194C183.812 59.8067 184.035 58.8869 184.3 57.8834C184.858 55.8069 183.269 54.2321 180.997 62.0505C178.753 69.7574 178.976 68.4892 178.433 71.2068C174.767 78.2448 165.318 94.6621 164.677 97.1428C152.427 96.8501 131.676 92.0838 131.676 92.0838L132.665 104.195Z" fill="#FCD2B1"/>
<path d="M77.8525 96.7664C77.8525 96.7664 64.8776 121.114 62.3551 127.915C59.8465 132.974 85.9079 156.276 87.3712 157.962C88.2771 163.495 90.6742 165.404 92.7089 166.393C94.7437 167.369 98.6877 162.951 97.8933 161.92C100.193 164.178 100.945 164.805 101.754 165.529C103.44 167.007 105.489 166.338 99.2034 160.596C93.0016 154.924 94.0886 155.732 91.803 153.948C86.758 147.328 75.33 131.078 73.3092 129.322C78.2288 118.493 90.493 102.146 90.493 102.146L77.8525 96.7664Z" fill="#FCD2B1"/>
<path d="M107.579 177.821L115.147 144.987L128.038 152.708C128.038 152.708 129.083 162.157 130.421 174.407C130.421 174.407 120.331 178.058 107.579 177.821Z" fill="#34334B"/>
<path d="M120.582 176.818C122.645 164.359 124.289 154.324 124.289 154.324C124.289 154.324 89.0157 149.419 88.8903 159.063C88.8485 162.017 89.1969 167.703 90.0192 174.198C108.569 180.163 120.582 176.818 120.582 176.818Z" fill="#4E4C82"/>
<path d="M120.847 113.309C119.802 115.734 127.732 149.405 129.056 157.167C129.056 157.167 128.888 157.139 128.568 157.084C125.125 156.568 104.067 153.795 87.0507 160.888L85.4898 113.323L85.4202 111.553C85.4202 111.553 85.4202 109.755 85.5874 107.01V106.982C85.9776 101.324 87.1483 91.777 90.7857 85.6449C92.6672 82.4673 95.1618 80.1957 98.5763 79.8612C109.154 78.8159 109.098 83.1502 118.924 85.5752L134.867 89.5332C134.867 89.5332 133.083 101.895 134.867 105.574H123.801C123.801 105.56 121.878 110.856 120.847 113.309Z" fill="#FF8C4A"/>
<path d="M114.77 48.1277C114.77 48.1277 124.47 62.6775 119.383 69.7851C115.579 75.1089 109.196 77.8962 109.196 77.8962V85.5613C109.196 85.5613 108.429 86.2442 107.091 86.3139C104.764 86.4393 98.5762 82.7043 98.5762 82.7043V52.5177L114.77 48.1277Z" fill="#FCD2B1"/>
<path d="M85.462 115.274C85.462 115.274 100.095 98.3132 97.768 90.1464C95.4405 81.9796 84.3749 84.7808 78.1871 94.188C71.9992 103.595 69.5464 106.815 69.5464 106.815C69.5464 106.815 75.9154 115.427 85.462 115.274Z" fill="#FF8C4A"/>
<path d="M114.743 46.748C114.743 46.748 115.495 61.8971 108.192 65.5624C100.89 69.2277 106.409 78.2586 99.4543 85.0039C97.3916 86.9969 94.3256 86.6624 91.9703 85.9656C88.5977 84.9621 84.7372 85.6868 82.3819 88.1257C82.159 88.3627 81.9499 88.6135 81.7827 88.8644C72.7518 82.8995 95.6356 49.7444 95.6356 49.7444L114.743 46.748Z" fill="#34334B"/>
<path d="M141.264 129.573C138.1 134.465 136.261 140.29 136.261 146.548C136.261 163.815 150.267 177.822 167.534 177.822C184.802 177.822 198.808 163.815 198.808 146.548C198.808 129.28 184.802 115.274 167.534 115.274C159.911 115.274 152.915 118.006 147.494 122.549L136.888 119.748L141.264 129.573Z" fill="#FF8C4A"/>
<path d="M177.973 35.8913C177.973 40.6298 174.127 46.7479 169.388 46.7479C164.65 46.7479 160.803 40.6298 160.803 35.8913C160.803 31.1529 164.636 27.3064 169.388 27.3064C174.141 27.3064 177.973 31.1529 177.973 35.8913Z" fill="#FF8C4A"/>
<path d="M169.653 50.6362C168.775 50.6362 167.953 50.023 167.228 48.8105C166.712 47.9464 167.103 45.3403 167.521 42.5809C167.632 41.8562 167.73 41.1454 167.827 40.5043C167.214 38.595 167.353 37.3546 167.618 36.9923C167.716 36.8529 167.855 36.8111 167.981 36.8669C168.231 36.9923 168.371 37.5219 168.371 38.372C168.371 38.9295 168.301 39.6402 168.204 40.4346C168.245 40.574 168.301 40.7134 168.357 40.8667C168.859 42.2046 169.36 41.9119 169.528 41.8004C169.932 41.5635 170.322 40.8945 170.615 40.128C170.503 38.3999 170.629 37.1595 170.824 36.7972C170.921 36.6021 171.047 36.5881 171.102 36.5881C171.297 36.6021 171.395 36.8669 171.423 36.9505C171.674 37.6194 171.451 39.027 170.991 40.2256C171.13 42.2464 171.604 45.0198 172.775 47.9325L172.831 48.0579L172.761 48.1694C172.705 48.267 171.409 50.5665 169.695 50.5944C169.681 50.6362 169.667 50.6362 169.653 50.6362ZM168.078 41.243C168.008 41.7029 167.939 42.1767 167.869 42.6645C167.507 45.0894 167.089 47.821 167.507 48.5178C168.176 49.6188 168.9 50.1763 169.667 50.1624C170.991 50.1345 172.092 48.49 172.371 48.044C171.353 45.4797 170.852 42.9711 170.656 40.9642C170.364 41.5496 170.015 42.0234 169.653 42.2324C169.318 42.4554 168.65 42.5948 168.078 41.243ZM167.855 37.3407C167.758 37.5219 167.632 38.2605 167.925 39.5288C167.967 39.0967 167.995 38.7065 167.995 38.386C167.995 37.7309 167.897 37.4383 167.855 37.3407ZM171.075 37.1735C170.991 37.4522 170.907 38.149 170.921 39.1525C171.144 38.3441 171.228 37.5637 171.075 37.1735Z" fill="white"/>
<path d="M169.388 51.8069C167.66 51.8069 166.225 50.4969 166.085 48.7827L165.792 45.4937L166.67 45.8281C168.468 46.511 170.447 46.4971 172.231 45.7863L172.97 45.4937L172.677 48.7827C172.538 50.4969 171.102 51.8069 169.388 51.8069Z" fill="#34334B"/>
<path d="M204.884 52.2948C203.881 54.6779 200.648 56.9496 198.265 55.9462C195.881 54.9427 195.24 51.0544 196.244 48.6573C197.247 46.2742 199.993 45.1453 202.39 46.1487C204.787 47.1522 205.888 49.8977 204.884 52.2948Z" fill="#FF8C4A"/>
<path d="M197.568 57.953C197.122 57.7718 196.843 57.284 196.732 56.5175C196.648 55.974 197.401 54.7476 198.195 53.4515C198.404 53.117 198.599 52.7825 198.78 52.4759C198.878 51.3889 199.212 50.7896 199.421 50.6642C199.505 50.6084 199.575 50.6223 199.631 50.6781C199.728 50.7896 199.686 51.0962 199.505 51.5143C199.394 51.793 199.198 52.1414 198.976 52.5177C198.976 52.6013 198.962 52.685 198.962 52.7686C198.934 53.549 199.24 53.5072 199.352 53.4933C199.603 53.4515 199.937 53.2006 200.258 52.8801C200.564 51.9881 200.899 51.3889 201.066 51.2495C201.15 51.1798 201.219 51.1937 201.247 51.2077C201.345 51.2634 201.331 51.4028 201.331 51.4585C201.317 51.8488 200.899 52.5038 200.411 53.0194C200.049 54.0647 199.7 55.5559 199.686 57.2701V57.3398L199.631 57.3816C199.589 57.4234 198.446 58.3014 197.582 57.953C197.582 57.953 197.582 57.953 197.568 57.953ZM198.766 52.894C198.641 53.117 198.502 53.34 198.362 53.563C197.665 54.7058 196.885 56.0019 196.941 56.4339C197.038 57.1307 197.289 57.5628 197.679 57.7161C198.348 57.9809 199.254 57.3816 199.491 57.2143C199.519 55.7092 199.798 54.3434 200.132 53.2842C199.867 53.5211 199.589 53.6745 199.366 53.7163C199.129 53.7581 198.766 53.6884 198.766 52.894ZM199.477 50.8732C199.394 50.9429 199.171 51.2913 199.059 51.9881C199.171 51.7791 199.268 51.584 199.338 51.4307C199.463 51.1101 199.491 50.9429 199.477 50.8732ZM201.136 51.4725C201.038 51.5979 200.843 51.9324 200.648 52.4341C200.927 52.0857 201.136 51.7094 201.136 51.4725Z" fill="white"/>
<path d="M197.191 58.4826C196.327 58.1203 195.881 57.1586 196.16 56.2667L196.718 54.5525L197.094 54.9009C197.846 55.6256 198.85 56.0298 199.895 56.0576L200.327 56.0716L199.491 57.6603C199.059 58.4965 198.055 58.845 197.191 58.4826Z" fill="#34334B"/>
<path d="M171.479 65.9246C171.646 67.8479 170.322 70.468 168.399 70.6352C166.475 70.8024 164.691 68.475 164.524 66.5518C164.357 64.6285 165.765 62.9283 167.688 62.761C169.611 62.5938 171.297 64.0014 171.479 65.9246Z" fill="#FF8C4A"/>
<path d="M168.635 72.1962C168.273 72.2241 167.925 72.015 167.59 71.5412C167.353 71.2067 167.409 70.1336 167.479 69.0047C167.493 68.7121 167.507 68.4194 167.521 68.1546C167.2 67.402 167.214 66.9003 167.311 66.747C167.353 66.6912 167.395 66.6634 167.451 66.6773C167.562 66.7191 167.632 66.9282 167.66 67.2766C167.674 67.4996 167.674 67.7922 167.66 68.1267C167.688 68.1825 167.716 68.2382 167.744 68.294C167.994 68.8235 168.19 68.6842 168.245 68.6284C168.399 68.5169 168.538 68.2382 168.622 67.9177C168.51 67.2208 168.524 66.7191 168.58 66.5658C168.608 66.4822 168.663 66.4683 168.691 66.4683C168.775 66.4683 168.817 66.5658 168.831 66.6076C168.956 66.8724 168.914 67.4438 168.775 67.9595C168.9 68.7678 169.193 69.8827 169.778 71.0116L169.806 71.0673L169.778 71.1231C169.764 71.1649 169.318 72.1404 168.622 72.2241C168.649 72.1962 168.649 72.1962 168.635 72.1962ZM167.66 68.4473C167.646 68.6284 167.632 68.8375 167.632 69.0326C167.576 70.0221 167.507 71.151 167.702 71.4157C168.008 71.8338 168.329 72.0429 168.635 72.0011C169.165 71.9453 169.555 71.2346 169.653 71.0395C169.151 70.036 168.858 69.0326 168.691 68.2243C168.594 68.4751 168.468 68.6702 168.329 68.7817C168.203 68.8932 167.939 68.9768 167.66 68.4473ZM167.423 66.8724C167.381 66.956 167.367 67.2626 167.534 67.7504C167.534 67.5693 167.534 67.4159 167.521 67.2905C167.493 67.0257 167.451 66.9142 167.423 66.8724ZM168.733 66.6912C168.705 66.8027 168.705 67.0954 168.747 67.4996C168.803 67.1651 168.803 66.8446 168.733 66.6912Z" fill="white"/>
<path d="M168.58 72.6839C167.883 72.7536 167.256 72.2658 167.13 71.5829L166.894 70.259L167.256 70.3565C168.008 70.5656 168.817 70.4819 169.514 70.1335L169.806 69.9802V71.3181C169.806 72.0428 169.277 72.6282 168.58 72.6839Z" fill="#34334B"/>
</svg>
