<svg width="492" height="344" viewBox="0 0 492 344" fill="none" xmlns="http://www.w3.org/2000/svg">
<path d="M400 17.2263V128.009C400 128.766 399.771 129.505 399.343 130.128L398.014 132.064C397.691 132.535 397.066 132.687 396.563 132.418C396.053 132.146 395.419 132.305 395.114 132.795C393.294 135.722 391.788 139.187 392.021 142.412C392.102 143.558 392.311 144.975 392.607 146.556C392.917 148.213 394.332 149.422 396.013 149.538L398.878 149.737C399.255 149.764 399.548 150.077 399.548 150.455C399.548 150.797 399.308 151.091 398.973 151.16L398.23 151.312L393.888 152.2C393.873 152.203 393.858 152.212 393.85 152.226C393.84 152.244 393.836 152.264 393.841 152.284C394.065 153.228 394.301 154.183 394.543 155.135C395.596 159.278 392.531 163.381 388.257 163.42C387.143 163.43 386.049 163.441 384.995 163.452C383.129 163.471 381.621 161.943 381.676 160.078C381.694 159.487 381.712 158.881 381.73 158.264C381.755 157.371 381.029 156.635 380.136 156.635C379.512 156.635 378.87 156.625 378.242 156.616C377.122 156.606 376.061 156.589 375.322 156.57C375.271 156.569 375.234 156.63 375.249 156.679C375.268 156.742 375.215 156.801 375.15 156.797C374.964 156.786 374.618 156.763 374.144 156.73C373.834 156.709 373.556 156.92 373.493 157.224C372.749 160.86 371.998 164.03 371.684 165.328C371.6 165.674 371.812 166.022 372.159 166.108C372.56 166.206 372.766 166.651 372.582 167.021C372.136 167.915 371.623 168.953 371.063 170.095C370.493 171.259 369.311 172 368.014 172H27.7322C17.3943 172 9 166.974 9 160.776V17.2263C9 11.0265 17.3964 6 27.7322 6H381.245C391.604 6 400 11.0265 400 17.2263Z" fill="white"/>
<path d="M373.315 157.188C373.267 157.008 373.245 156.834 373.245 156.666C373.246 156.835 373.268 157.01 373.315 157.188ZM373.315 157.188C373.318 157.201 373.322 157.215 373.326 157.228C373.322 157.215 373.318 157.201 373.315 157.188ZM377.164 156.101C377.165 156.106 377.167 156.112 377.168 156.117C377.167 156.111 377.165 156.106 377.164 156.101ZM393.416 131.739C391.536 134.762 389.747 138.679 390.026 142.553C390.115 143.809 390.339 145.309 390.641 146.924C390.918 148.404 391.754 149.64 392.896 150.46C392.609 150.619 392.319 150.868 392.106 151.247L392.104 151.251C391.87 151.668 391.765 152.199 391.895 152.745L391.895 152.747C392.122 153.701 392.36 154.667 392.604 155.628C393.348 158.555 391.174 161.393 388.239 161.42C387.123 161.431 386.029 161.441 384.974 161.452C384.237 161.46 383.654 160.86 383.675 160.137C383.693 159.547 383.711 158.94 383.729 158.321C383.788 156.284 382.138 154.635 380.136 154.635C379.53 154.635 378.903 154.626 378.273 154.616L378.266 154.616L378.259 154.616C377.147 154.606 376.097 154.589 375.373 154.571C375.034 154.562 374.735 154.633 374.479 154.749C374.416 154.744 374.351 154.74 374.283 154.735C372.973 154.644 371.797 155.537 371.534 156.823C370.797 160.427 370.051 163.572 369.74 164.857L371.684 165.328L369.74 164.858C369.536 165.702 369.761 166.549 370.275 167.169C369.962 167.802 369.624 168.487 369.268 169.214C369.031 169.697 368.543 170 368.014 170H27.7322C22.8633 170 18.5482 168.812 15.5172 166.996C12.4454 165.156 11 162.894 11 160.776V17.2263C11 15.1069 12.446 12.8443 15.518 11.0039C18.5493 9.18782 22.8643 8 27.7322 8H381.245C386.125 8 390.446 9.18813 393.48 11.0043C396.554 12.8447 398 15.1072 398 17.2263V128.009C398 128.362 397.893 128.706 397.694 128.997L396.751 130.37C395.507 130.077 394.146 130.565 393.416 131.739Z" stroke="#D3D3D3" stroke-opacity="0.23" stroke-width="4"/>
<path d="M236.649 81.4707H117.317C116.917 81.4179 116.549 81.2212 116.282 80.9174C116.016 80.6135 115.869 80.2232 115.869 79.8191C115.869 79.415 116.016 79.0246 116.282 78.7208C116.549 78.4169 116.917 78.2203 117.317 78.1675H236.649C237.05 78.2203 237.418 78.4169 237.684 78.7208C237.95 79.0246 238.097 79.415 238.097 79.8191C238.097 80.2232 237.95 80.6135 237.684 80.9174C237.418 81.2212 237.05 81.4179 236.649 81.4707Z" fill="#D3D3D3" fill-opacity="0.5"/>
<path d="M366.698 81.801H247.366C246.965 81.7482 246.597 81.5515 246.331 81.2477C246.065 80.9438 245.918 80.5535 245.918 80.1494C245.918 79.7453 246.065 79.3549 246.331 79.0511C246.597 78.7472 246.965 78.5506 247.366 78.4978H366.698C367.098 78.5506 367.466 78.7472 367.733 79.0511C367.999 79.3549 368.146 79.7453 368.146 80.1494C368.146 80.5535 367.999 80.9438 367.733 81.2477C367.466 81.5515 367.098 81.7482 366.698 81.801H366.698Z" fill="#4E4C82"/>
<path d="M236.939 99.6381H117.607C117.206 99.5853 116.838 99.3887 116.572 99.0848C116.306 98.781 116.159 98.3907 116.159 97.9865C116.159 97.5824 116.306 97.1921 116.572 96.8882C116.838 96.5844 117.206 96.3878 117.607 96.335H236.939C237.339 96.3878 237.707 96.5844 237.974 96.8882C238.24 97.1921 238.387 97.5824 238.387 97.9865C238.387 98.3907 238.24 98.781 237.974 99.0848C237.707 99.3887 237.339 99.5853 236.939 99.6381Z" fill="#D3D3D3" fill-opacity="0.5"/>
<path d="M237.228 117.806H117.896C117.496 117.753 117.128 117.556 116.862 117.252C116.595 116.948 116.448 116.558 116.448 116.154C116.448 115.75 116.595 115.36 116.862 115.056C117.128 114.752 117.496 114.555 117.896 114.502H237.228C237.629 114.555 237.997 114.752 238.263 115.056C238.53 115.36 238.677 115.75 238.677 116.154C238.677 116.558 238.53 116.948 238.263 117.252C237.997 117.556 237.629 117.753 237.228 117.806Z" fill="#D3D3D3" fill-opacity="0.5"/>
<path d="M291.391 99.6381H257.214C256.813 99.5853 256.445 99.3887 256.179 99.0848C255.912 98.781 255.765 98.3907 255.765 97.9865C255.765 97.5824 255.912 97.1921 256.179 96.8882C256.445 96.5844 256.813 96.3878 257.214 96.335H291.391C291.792 96.3878 292.16 96.5844 292.426 96.8882C292.692 97.1921 292.839 97.5824 292.839 97.9865C292.839 98.3907 292.692 98.781 292.426 99.0848C292.16 99.3887 291.792 99.5853 291.391 99.6381Z" fill="#4E4C82"/>
<path d="M291.391 117.475H257.214C256.813 117.423 256.445 117.226 256.179 116.922C255.912 116.618 255.765 116.228 255.765 115.824C255.765 115.42 255.912 115.029 256.179 114.725C256.445 114.422 256.813 114.225 257.214 114.172H291.391C291.792 114.225 292.16 114.422 292.426 114.725C292.692 115.029 292.839 115.42 292.839 115.824C292.839 116.228 292.692 116.618 292.426 116.922C292.16 117.226 291.792 117.423 291.391 117.475Z" fill="#4E4C82"/>
<path d="M348.74 117.475H314.562C314.162 117.423 313.794 117.226 313.528 116.922C313.261 116.618 313.114 116.228 313.114 115.824C313.114 115.42 313.261 115.029 313.528 114.725C313.794 114.422 314.162 114.225 314.562 114.172H348.74C349.141 114.225 349.508 114.422 349.775 114.725C350.041 115.029 350.188 115.42 350.188 115.824C350.188 116.228 350.041 116.618 349.775 116.922C349.508 117.226 349.141 117.423 348.74 117.475Z" fill="#4E4C82"/>
<path d="M150.626 63.3032H116.448C116.048 63.2504 115.68 63.0537 115.413 62.7499C115.147 62.446 115 62.0557 115 61.6516C115 61.2475 115.147 60.8571 115.413 60.5533C115.68 60.2494 116.048 60.0528 116.448 60H150.626C151.027 60.0528 151.394 60.2494 151.661 60.5533C151.927 60.8571 152.074 61.2475 152.074 61.6516C152.074 62.0557 151.927 62.446 151.661 62.7499C151.394 63.0537 151.027 63.2504 150.626 63.3032Z" fill="#D3D3D3" fill-opacity="0.5"/>
<path d="M225.5 344C372.684 344 492 335.941 492 326C492 316.059 372.684 308 225.5 308C78.3161 308 -41 316.059 -41 326C-41 335.941 78.3161 344 225.5 344Z" fill="#D3D3D3" fill-opacity="0.23"/>
<path d="M333.491 119.796L340.768 123.87L340.162 128.036L345.923 133.036L338.443 141.554L320.856 129.981C320.856 129.981 325.607 115.445 326.719 115.815C327.729 116.093 333.491 119.796 333.491 119.796Z" fill="#FACBB6"/>
<path d="M323.08 115.723L326.213 137.202L338.443 137.573L341.375 115.723H323.08Z" fill="#FDE6CF"/>
<path d="M320.452 116.001H343.497V113.871H341.375V110.538L322.574 112.945V114.149H320.452V116.278" fill="#34334B"/>
<path d="M322.069 130.351C317.824 130.721 323.181 120.352 323.181 120.352C323.181 120.352 334.704 119.704 334.805 120.167C334.906 120.722 334.906 121.648 333.996 121.833C333.086 122.018 325.91 122.852 325.91 122.852C325.91 122.852 333.39 123.129 333.289 123.87C333.086 124.889 332.177 124.981 329.953 125.351C328.033 125.629 323.888 125.722 323.888 125.722C323.888 125.722 331.772 125.907 331.671 126.277C331.469 126.74 331.975 128.129 329.347 127.851C322.979 127.203 322.069 130.351 322.069 130.351Z" fill="#FACBB6"/>
<path d="M340.566 121.463C340.566 121.463 343.295 116.556 346.732 116.834C346.732 116.834 342.689 121.278 342.082 124.148C341.577 127.111 341.274 129.147 341.274 129.147H339.454L340.566 121.463Z" fill="#FACBB6"/>
<path d="M373.922 171.736C373.922 171.736 362.197 244.6 367.655 260.062C373.113 275.524 375.235 289.504 375.235 289.504L402.425 282.467C402.425 282.467 393.429 245.989 392.014 239.045C390.7 232.009 404.649 175.162 404.649 175.162L373.922 171.736Z" fill="#34334B"/>
<path d="M386.758 177.013L399.595 294.04H425.673C425.673 294.04 417.283 170.162 418.799 169.051C420.316 168.125 386.758 177.013 386.758 177.013Z" fill="#34334B"/>
<path d="M376.549 105.631C376.549 105.631 373.82 144.887 367.857 143.498C361.893 142.109 345.822 131.832 345.822 131.832L336.018 141.276C336.018 141.276 365.734 170.347 377.964 158.497C390.195 146.553 376.549 105.631 376.549 105.631Z" fill="#FF8C4A"/>
<path d="M384.636 313.668L382.917 305.706L401.92 299.04L404.952 310.798L403.941 310.983C399.696 312.743 378.975 321.168 375.741 321.353C371.9 321.631 384.636 313.668 384.636 313.668Z" fill="#34334B"/>
<path d="M429.716 198.4L427.593 200.993C427.593 200.993 426.582 202.752 424.156 205.437C423.55 206.177 422.741 206.733 421.933 207.196C420.922 207.751 419.507 208.492 418.496 208.677C417.384 208.862 417.081 210.251 418.092 210.622C419.103 210.992 422.236 210.436 425.167 208.492C428.2 206.455 426.784 211.547 426.279 213.399C425.774 215.251 424.662 220.991 425.167 221.639C425.976 222.472 427.088 221.917 427.593 220.065C427.997 218.213 429.716 212.751 430.828 213.029C431.939 213.307 429.311 222.658 429.311 222.658C429.311 222.658 428.402 224.602 429.615 224.972C431.838 225.62 433.759 215.436 433.86 214.51C433.961 213.862 435.174 214.047 434.972 214.788C434.77 215.529 432.142 224.046 434.466 224.787C436.185 225.25 436.084 216.454 437.802 214.973C439.419 213.492 437.094 221.639 438.813 222.102C439.419 222.287 439.924 222.287 440.531 217.38C441.137 212.381 440.228 198.586 440.228 198.586L429.412 198.678" fill="#FCD2B1"/>
<path d="M392.014 92.4842C392.216 90.9103 391.307 84.3368 391.307 84.3368C391.307 84.3368 384.433 83.8738 383.827 77.9484C383.22 72.023 383.119 58.3205 383.119 58.3205L395.35 52.6729L409.298 61.3758L412.533 67.8567L408.389 83.3183V91.0954L392.014 92.4842Z" fill="#FCD2B1"/>
<path d="M391.307 84.3364C391.307 84.3364 395.855 84.2438 400.1 81.4663C400.1 81.4663 398.281 85.9104 391.408 85.8178L391.307 84.3364Z" fill="#FCD2B1"/>
<path d="M412.23 74.3375C410.41 77.9483 409.298 83.2256 409.298 83.2256C408.288 84.8922 407.984 79.7074 407.984 79.7074C407.984 79.7074 407.075 74.7079 407.883 72.7636C407.883 72.7636 411.32 73.782 412.128 68.3195C412.533 65.6346 407.883 64.3384 406.67 67.5788L403.84 67.8566C403.84 67.8566 403.638 57.7649 396.967 59.6166C396.967 59.6166 392.115 62.2089 389.285 60.635C386.455 59.0611 386.657 58.5056 386.657 58.5056C386.657 58.5056 385.242 61.1905 381.603 59.4314C377.863 57.6723 377.459 54.5244 378.672 53.0431C379.38 52.2098 380.087 51.1914 381.3 51.0062C382.513 50.821 383.827 51.284 384.636 52.1172C383.726 50.9136 384.332 49.2471 385.747 48.4138C387.061 47.6732 388.881 47.6732 390.397 48.2287C391.913 48.7842 393.126 49.71 394.339 50.5433C395.148 48.4138 397.776 46.9325 400.404 47.1177C402.931 47.3028 405.255 49.1545 405.66 51.3766C407.075 49.8952 409.703 49.5249 411.724 50.3581C413.746 51.1914 415.06 53.0431 415.464 54.9873C415.868 56.9316 415.363 58.8759 414.554 60.7276C416.071 59.9869 418.193 60.5424 419.305 61.746C420.417 62.9496 420.316 64.8013 419.608 66.1901C418.8 67.5788 417.384 68.6899 415.868 69.4305C417.081 70.2638 417.384 71.8377 416.677 73.0413C415.969 74.2449 414.251 74.8004 412.836 74.3375" fill="#34334B"/>
<path d="M407.378 70.8194C407.378 70.8194 407.479 70.912 407.681 71.0046C407.883 71.0972 408.085 71.0972 408.389 71.0972C408.995 70.912 409.602 70.0787 409.703 69.2455C409.703 68.7825 409.703 68.3196 409.501 67.9493C409.399 67.5789 409.096 67.3012 408.793 67.2086C408.49 67.116 408.288 67.3012 408.187 67.3938C408.085 67.4864 408.085 67.6715 408.085 67.6715C408.085 67.6715 407.984 67.5789 407.984 67.3938C407.984 67.3012 408.085 67.2086 408.187 67.116C408.288 67.0234 408.49 67.0234 408.793 67.0234C409.197 67.116 409.602 67.4864 409.804 67.8567C410.006 68.227 410.107 68.7825 410.006 69.2455C409.905 70.2639 409.197 71.1897 408.389 71.3749C407.984 71.4675 407.681 71.2823 407.479 71.1897C407.378 70.912 407.378 70.8194 407.378 70.8194Z" fill="#FCD2B1"/>
<path d="M435.578 108.038C435.578 108.038 430.929 89.1512 408.288 91.0955C387.668 92.9472 387.668 92.9472 387.668 92.9472C387.668 92.9472 373.517 98.2245 375.438 113.131C377.358 128.037 378.369 141.554 377.864 144.239C377.358 146.831 372.405 170.255 373.82 171.922C388.78 187.846 426.684 162.478 426.684 162.478L435.578 108.038Z" fill="#FF8C4A"/>
<path d="M408.288 91.0957L413.544 201.642L429.211 194.235L427.593 96.1878C427.593 96.0952 423.348 89.7995 408.288 91.0957Z" fill="#FF8C4A"/>
<path d="M440.935 200.438L435.578 108.038C433.86 102.391 430.322 98.0393 425.673 94.3359V201.641L440.935 200.438Z" fill="#FF8C4A"/>
<path d="M392.014 92.4837C392.014 92.4837 377.863 98.5943 378.571 119.426C379.278 140.165 370.081 198.771 370.081 198.771L358.356 196.641C358.356 196.641 372.001 141.091 372.607 131.277C373.214 121.37 372.203 107.297 379.784 97.5759C385.242 90.7246 392.014 92.4837 392.014 92.4837Z" fill="#FF8C4A"/>
<path d="M408.288 91.0952C408.288 91.0952 412.937 100.168 412.432 103.502C411.926 106.835 410.41 113.871 410.41 113.871C410.41 113.871 413.847 115.723 413.544 117.297C413.24 118.871 410.006 134.888 410.006 134.888L408.288 91.0952Z" fill="#FF8C4A"/>
<path d="M423.146 113.686C423.146 113.686 423.247 113.963 423.348 114.611C423.449 115.167 423.449 116.093 423.55 117.204C423.752 119.426 423.954 122.666 424.157 126.647C424.561 134.61 424.763 145.627 424.965 157.756C425.167 169.884 425.369 180.902 425.471 188.864C425.572 192.845 425.673 195.993 425.673 198.308C425.673 199.419 425.673 200.252 425.673 200.9C425.673 201.456 425.673 201.826 425.572 201.826C425.572 201.826 425.471 201.548 425.369 200.9C425.268 200.345 425.268 199.419 425.167 198.308C424.965 196.086 424.763 192.845 424.561 188.864C424.157 180.902 423.954 169.884 423.752 157.756C423.55 145.627 423.348 134.61 423.247 126.647C423.146 122.666 423.045 119.518 423.045 117.204C423.045 116.093 423.045 115.259 423.045 114.611C423.045 113.963 423.146 113.686 423.146 113.686Z" fill="#FF8C4A"/>
<path d="M384.433 305.15C384.635 305.058 379.683 288.393 379.683 288.393L396.36 284.134L399.898 299.781L384.433 305.15Z" fill="#FCD2B1"/>
<path d="M422.843 294.04H403.941V307.094H422.843V294.04Z" fill="#FCD2B1"/>
<path d="M402.021 314.224L403.739 306.262H424.157L422.034 317.927L420.922 318.02C416.273 318.205 393.429 319.316 390.296 318.483C386.859 317.557 402.021 314.224 402.021 314.224Z" fill="#34334B"/>
<path d="M77.1312 97.9875C77.1312 109.005 67.3268 117.986 55.2986 117.986C43.2705 117.986 33.4661 109.005 33.4661 97.9875C33.4661 86.97 43.2705 77.9893 55.2986 77.9893C56.5116 77.9893 57.6234 78.0818 58.8363 78.267L55.2986 97.9875L75.514 90.303C76.5248 92.6176 77.1312 95.21 77.1312 97.9875Z" fill="#4E4C82"/>
<path d="M82.7915 83.6366L62.5762 91.3211L66.1139 71.6006C73.6946 72.619 79.9614 77.3408 82.7915 83.6366Z" fill="#FF8C4A"/>
<path d="M232.616 219.047C232.616 219.047 191.478 217.566 185.11 203.586C178.742 189.605 175.609 152.849 155.596 151.368C135.582 149.887 122.341 148.961 122.341 161.552C122.341 174.144 113.345 215.159 140.838 221.454C166.613 227.38 201.181 238.768 227.158 226.547C230.291 225.158 232.313 222.288 232.616 219.047Z" fill="#D3D3D3"/>
<path d="M194.51 227.194L225.844 317.927L236.76 321.075L205.831 231.824C202.394 231.361 198.957 230.898 194.51 227.194Z" fill="#34334B"/>
<path d="M108.696 318.112L144.376 214.788H134.571L98.8914 318.112H108.696Z" fill="#34334B"/>
<path d="M122.847 157.386C122.847 157.386 129.214 197.66 138.109 199.604C147.004 201.549 164.692 199.327 171.768 204.048C178.843 208.77 201.686 232.009 201.686 232.009C201.686 232.009 147.914 230.99 126.789 215.529C105.765 200.252 122.847 157.386 122.847 157.386Z" fill="#D3D3D3"/>
<path d="M194.409 95.6323C195.319 97.7618 194.611 100.076 194.005 102.298C193.398 104.52 193.095 107.02 194.712 108.872C196.329 110.724 199.362 111.372 201.484 112.946C203.506 114.427 204.618 116.742 204.213 118.871C203.91 120.352 203 121.926 204.011 123.223C204.517 123.871 205.426 124.241 206.336 124.611C208.256 125.352 210.278 126 212.097 126.926C213.917 127.852 215.534 129.055 216.343 130.722C217.454 132.944 216.646 135.444 215.635 137.666C214.725 139.888 213.411 142.202 210.884 143.313C208.964 144.147 206.639 144.147 204.416 143.961C197.947 143.499 191.579 142.11 185.615 139.888C181.875 138.499 178.237 136.647 175.912 133.962C172.273 129.703 172.677 124.148 173.688 119.149C174.295 116.371 175.103 113.501 177.529 111.372C179.854 109.335 183.392 108.224 186.929 108.131C190.467 107.946 190.972 94.7065 194.409 95.6323Z" fill="#34334B"/>
<path d="M165.299 111.001C162.368 107.205 161.155 102.576 161.963 98.1316C162.873 93.7802 165.804 89.7064 170.05 87.0215" fill="#34334B"/>
<path d="M195.723 186.642C195.723 186.642 274.058 176.551 286.995 197.753C299.933 218.954 301.247 279.412 301.247 279.412L283.862 282.19C283.862 282.19 266.073 212.844 257.178 209.789C248.182 206.733 187.738 208.77 187.738 208.77L195.723 186.642Z" fill="#FCD2B1"/>
<path d="M301.247 279.412C301.247 279.412 318.936 279.968 315.398 281.542C311.86 283.116 284.165 285.8 284.165 285.8L283.862 281.727L301.247 279.412Z" fill="#34334B"/>
<path d="M246.868 193.587L244.442 182.569C225.136 182.106 204.82 185.069 184.301 189.05L246.868 193.587Z" fill="#4E4C82"/>
<path d="M187.94 129.241C187.94 129.241 202.394 128.87 205.123 148.683C209.166 177.292 251.214 163.127 251.214 163.127L263.546 170.811C263.546 170.811 240.197 188.958 209.166 177.292C178.237 165.626 187.94 129.241 187.94 129.241Z" fill="#FCD2B1"/>
<path d="M149.733 148.96L147.712 163.589L143.163 190.901C155.494 196.827 173.385 197.197 190.972 199.975C186.727 186.272 185.312 172.755 191.377 159.33C191.377 159.33 197.947 156.83 195.015 153.404C191.276 149.146 190.467 145.535 190.467 145.535L151.654 144.887" fill="#4E4C82"/>
<path d="M182.179 128.222C181.977 126.556 183.493 119.982 183.493 119.982C183.493 119.982 191.276 119.982 192.286 113.964C193.297 107.946 194.207 93.9659 194.207 93.9659L180.663 87.2998L166.006 95.3547L163.682 125.722L182.179 128.222Z" fill="#FCD2B1"/>
<path d="M183.493 119.982C183.493 119.982 178.338 119.612 173.587 116.464C173.587 116.464 175.407 121.093 183.189 121.463L183.493 119.982Z" fill="#FCD2B1"/>
<path d="M143.871 190.902C143.871 190.902 138.918 220.066 169.847 223.769L166.107 189.42L143.871 190.902Z" fill="#FF8C4A"/>
<path d="M179.248 192.475C179.248 192.475 279.01 188.865 287.097 205.622C295.183 222.38 279.01 288.3 279.01 288.3L260.008 285.245C260.008 285.245 263.445 222.473 259.199 219.51C254.954 216.547 173.587 224.232 167.118 222.843C159.942 221.362 136.997 196.271 179.248 192.475Z" fill="#FCD2B1"/>
<path d="M277.494 286.912C277.494 286.912 294.273 291.726 290.23 292.374C286.187 293.022 259.806 289.041 259.806 289.041V283.301L277.494 286.912Z" fill="#34334B"/>
<path d="M250.305 163.496L253.236 161.922C253.236 161.922 255.257 161.182 258.29 159.33C259.098 158.867 259.705 158.219 260.311 157.571C260.918 156.738 261.726 155.627 261.928 154.886C262.131 153.96 263.647 153.775 264.152 154.608C264.556 155.349 264.051 157.849 261.726 160.256C259.503 162.571 265.264 161.552 267.285 161.274C269.408 160.904 275.978 160.071 276.585 160.534C277.595 161.182 276.888 162.108 274.765 162.385C272.643 162.663 266.477 163.959 266.78 164.793C267.083 165.626 277.696 163.774 277.696 163.774C277.696 163.774 279.92 163.126 280.324 164.052C281.032 165.904 269.509 167.2 268.397 167.292C267.589 167.385 267.892 168.311 268.701 168.218C269.509 168.126 279.314 166.181 280.021 168.033C280.628 169.422 270.52 169.144 268.802 170.44C267.083 171.736 276.483 169.977 276.888 171.366C277.09 171.829 277.09 172.292 271.531 172.662C265.87 173.033 250.102 172.107 250.102 172.107V163.496" fill="#FCD2B1"/>
<path d="M190.467 147.109V129.611L184.605 128.037L166.209 125.537C166.209 125.537 154.989 123.87 150.744 126.278C146.499 128.685 148.419 148.776 148.419 148.776L190.467 147.109Z" fill="#4E4C82"/>
<path d="M159.639 124.889C159.639 124.889 136.29 118.778 135.178 150.627C133.965 183.032 195.218 193.587 195.218 193.587L197.745 181.643C197.745 181.643 154.281 168.126 152.462 154.423C150.542 140.721 159.639 124.889 159.639 124.889Z" fill="#FCD2B1"/>
<path d="M245.655 195.253L273.35 157.664L270.52 155.997L242.522 192.383L200.878 185.902L200.17 188.124L245.655 195.253Z" fill="#34334B"/>
<path d="M196.127 97.2986C196.127 97.2986 198.351 87.7624 181.572 84.6145C164.794 81.5592 162.873 97.6689 162.873 97.6689L172.273 97.0208L174.699 93.0397L174.598 97.0208L181.572 97.206L181.471 94.2433L183.189 96.7431L196.127 97.2986Z" fill="#34334B"/>
<path d="M196.228 181.55C196.228 181.55 203.102 182.291 207.246 178.68C211.39 175.07 212.3 179.328 207.852 182.569C203.405 185.809 201.383 186.457 201.383 186.457C201.383 186.457 223.519 193.031 218.769 192.846C214.018 192.661 192.185 192.475 192.185 192.475L196.228 181.55Z" fill="#FCD2B1"/>
<path d="M244.948 221.825L251.315 194.327C251.315 194.327 168.23 184.328 155.899 191.642C143.669 198.956 147.307 223.306 169.746 223.769C192.185 224.232 244.948 221.825 244.948 221.825Z" fill="#FF8C4A"/>
<path d="M122.847 157.386C122.847 157.386 129.214 197.66 138.109 199.605C147.004 201.549 164.692 199.327 171.768 204.049C178.843 208.77 201.686 232.009 201.686 232.009C201.686 232.009 147.914 230.991 126.789 215.529C105.765 200.253 122.847 157.386 122.847 157.386Z" fill="#D3D3D3"/>
<path d="M91.3106 186.18H79.8889V317.742H91.3106V186.18Z" fill="#34334B"/>
<path d="M28.3398 186.18H16.9181V317.742H28.3398V186.18Z" fill="#34334B"/>
<path d="M372.809 186.18H361.388V317.742H372.809V186.18Z" fill="#34334B"/>
<path d="M309.839 186.18H298.417V317.742H309.839V186.18Z" fill="#34334B"/>
<path d="M380.694 182.754H9.13513V193.401H380.694V182.754Z" fill="#34334B"/>
<path d="M91.7149 182.754H9.13513V193.401H91.7149V182.754Z" fill="#34334B"/>
<path d="M281.841 181.643H213.513L225.642 148.96H294.071L281.841 181.643Z" fill="#D3D3D3"/>
<path d="M282.043 181.087H186.727V182.661H282.043V181.087Z" fill="#D3D3D3"/>
<path d="M259.907 166.181C259.907 167.755 258.188 169.051 256.066 169.051C253.943 169.051 252.225 167.755 252.225 166.181C252.225 164.607 253.943 163.311 256.066 163.311C258.188 163.311 259.907 164.607 259.907 166.181Z" fill="#D3D3D3"/>
<path d="M304.279 182.661H302.662C299.529 182.661 297.002 180.347 297.002 177.477V170.533H309.94V177.477C309.839 180.347 307.312 182.661 304.279 182.661Z" fill="#34334B"/>
<path d="M310.748 178.31C310.142 178.31 309.636 178.217 309.03 178.032L309.738 176.921C311.355 177.477 312.366 176.643 312.972 175.81C313.882 174.421 313.781 172.847 313.174 172.57C311.557 171.829 309.535 172.847 309.535 172.94L308.626 171.922C308.727 171.829 311.456 170.44 314.084 171.551C315.802 172.292 315.701 174.699 314.488 176.458C313.579 177.569 312.265 178.31 310.748 178.31Z" fill="#34334B"/>
<path d="M138.866 27.1815L138.642 27.1837L138.636 27.1824L133.782 27.2672L132.22 27.291L132.214 27.2896L128.641 27.3551L125.818 27.4024L117.156 27.5455L117.158 5.91831L121.088 5.91326L121.095 5.91466L134.2 5.92199L138.785 5.92079L138.788 13.0468L138.787 15.4963L138.807 18.4176L138.825 21.3456L138.855 25.7624L138.866 27.1815Z" fill="#FF8C4A"/>
<path d="M121.092 3.29419L134.201 3.29262L134.202 8.53592L121.093 8.53749L121.092 3.29419Z" fill="#4E4C82"/>
<path d="M153.546 25.5557L144.118 45.0246L124.649 35.5964L125.614 33.6128L128.641 27.355L134.077 16.1275L137.621 17.8426L138.807 18.4175L149.419 23.5586L153.546 25.5557Z" fill="#FF8C4A"/>
<path d="M150.559 21.1999L149.419 23.5586L148.272 25.9159L138.825 21.3454L136.473 20.2066L137.622 17.8426L138.762 15.4839L138.787 15.4961L148.29 20.0992L150.559 21.1999Z" fill="#4E4C82"/>
<path opacity="0.1" d="M138.787 15.4961L138.762 15.4839L137.621 17.8426L134.077 16.1275L128.641 27.3549L125.818 27.4023L129.552 19.6935L129.788 19.1982L129.789 19.1915L132.284 14.051L132.76 13.0686L132.773 13.0432L132.817 13.0663L134.389 13.8265L136.31 14.7569L137.45 12.3982L138.788 13.0466L138.787 15.4961Z" fill="#FF8C4A"/>
<path d="M133.999 24.7363L134.635 23.5254L147.852 30.4693L147.215 31.6803L133.999 24.7363Z" fill="white"/>
<path d="M136.946 30.5676L137.611 29.3737L142.617 32.1595L141.953 33.3534L136.946 30.5676Z" fill="white"/>
<path d="M131.943 27.7852L132.608 26.5912L135.111 27.9841L134.447 29.1781L131.943 27.7852Z" fill="white"/>
<path d="M129.793 31.5408L130.43 30.3298L143.646 37.2738L143.01 38.4847L129.793 31.5408Z" fill="white"/>
<path d="M132.247 12.9985L134.255 13.1581L134.413 14.4497L132.405 14.2902L132.247 12.9985Z" fill="white"/>
<path d="M120.285 13.1665L130.019 13.7385L130.192 14.9272L120.457 14.3552L120.285 13.1665Z" fill="white"/>
<path d="M125.561 18.3208L129.657 18.6494L129.796 19.7783L125.7 19.4497L125.561 18.3208Z" fill="white"/>
<path d="M120.655 18.4399L124.052 18.7249L124.189 19.8828L120.793 19.5978L120.655 18.4399Z" fill="white"/>
<path d="M298.866 47.1815L298.642 47.1837L298.636 47.1824L293.782 47.2672L292.22 47.291L292.214 47.2896L288.641 47.3551L285.818 47.4024L277.156 47.5455L277.158 25.9183L281.088 25.9133L281.095 25.9147L294.2 25.922L298.785 25.9208L298.788 33.0468L298.787 35.4963L298.807 38.4176L298.825 41.3456L298.855 45.7624L298.866 47.1815Z" fill="#FF8C4A"/>
<path d="M281.092 23.2942L294.201 23.2926L294.202 28.5359L281.093 28.5375L281.092 23.2942Z" fill="#4E4C82"/>
<path d="M313.546 45.5557L304.118 65.0246L284.649 55.5964L285.614 53.6128L288.641 47.355L294.077 36.1275L297.621 37.8426L298.807 38.4175L309.419 43.5586L313.546 45.5557Z" fill="#FF8C4A"/>
<path d="M310.559 41.1999L309.419 43.5586L308.272 45.9159L298.825 41.3454L296.473 40.2066L297.622 37.8426L298.762 35.4839L298.787 35.4961L308.29 40.0992L310.559 41.1999Z" fill="#4E4C82"/>
<path opacity="0.1" d="M298.787 35.4961L298.762 35.4839L297.621 37.8426L294.077 36.1275L288.641 47.3549L285.818 47.4023L289.552 39.6935L289.788 39.1982L289.789 39.1915L292.284 34.051L292.76 33.0686L292.773 33.0432L292.817 33.0663L294.389 33.8265L296.31 34.7569L297.45 32.3982L298.788 33.0466L298.787 35.4961Z" fill="#FF8C4A"/>
<path d="M293.999 44.7363L294.635 43.5254L307.852 50.4693L307.215 51.6803L293.999 44.7363Z" fill="white"/>
<path d="M296.946 50.5676L297.611 49.3737L302.617 52.1595L301.953 53.3534L296.946 50.5676Z" fill="white"/>
<path d="M291.943 47.7852L292.608 46.5912L295.111 47.9841L294.447 49.1781L291.943 47.7852Z" fill="white"/>
<path d="M289.793 51.5408L290.43 50.3298L303.646 57.2738L303.01 58.4847L289.793 51.5408Z" fill="white"/>
<path d="M292.247 32.9985L294.255 33.1581L294.413 34.4497L292.405 34.2902L292.247 32.9985Z" fill="white"/>
<path d="M280.285 33.1665L290.02 33.7383L290.192 34.9272L280.457 34.3554L280.285 33.1665Z" fill="white"/>
<path d="M285.561 38.3208L289.657 38.6494L289.796 39.7783L285.7 39.4498L285.561 38.3208Z" fill="white"/>
<path d="M280.655 38.4399L284.052 38.7249L284.189 39.8833L280.793 39.5983L280.655 38.4399Z" fill="white"/>
<path d="M43.3929 211.182L43.1691 211.184L43.1624 211.182L38.3084 211.267L36.7471 211.291L36.7404 211.29L33.1675 211.355L30.3452 211.402L21.6824 211.546L21.6849 189.918L25.6151 189.913L25.6218 189.915L38.7267 189.922L43.3121 189.921L43.3146 197.047L43.314 199.496L43.3337 202.418L43.3521 205.346L43.3814 209.762L43.3929 211.182Z" fill="#FF8C4A"/>
<path d="M25.6189 187.294L38.7278 187.293L38.7284 192.536L25.6195 192.537L25.6189 187.294Z" fill="#4E4C82"/>
<path d="M58.0731 209.556L48.6449 229.025L29.1761 219.596L30.1405 217.613L33.1675 211.355L38.6043 200.128L42.1483 201.843L43.3337 202.417L53.9458 207.559L58.0731 209.556Z" fill="#FF8C4A"/>
<path d="M55.0861 205.2L53.9458 207.559L52.7989 209.916L43.3521 205.345L41.0001 204.207L42.1484 201.843L43.2887 199.484L43.314 199.496L52.8168 204.099L55.0861 205.2Z" fill="#4E4C82"/>
<path opacity="0.1" d="M43.3139 199.496L43.2886 199.484L42.1483 201.843L38.6043 200.127L33.1675 211.355L30.3451 211.402L34.0791 203.693L34.3148 203.198L34.3162 203.192L36.8104 198.051L37.2872 197.069L37.2995 197.043L37.3435 197.066L38.916 197.827L40.8368 198.757L41.9771 196.398L43.3146 197.047L43.3139 199.496Z" fill="#FF8C4A"/>
<path d="M38.5255 208.736L39.1617 207.525L52.3784 214.469L51.7422 215.68L38.5255 208.736Z" fill="white"/>
<path d="M41.473 214.568L42.1374 213.374L47.1438 216.159L46.4794 217.353L41.473 214.568Z" fill="white"/>
<path d="M36.4703 211.785L37.1347 210.591L39.6379 211.984L38.9735 213.178L36.4703 211.785Z" fill="white"/>
<path d="M34.3203 215.541L34.9565 214.33L48.1732 221.274L47.537 222.485L34.3203 215.541Z" fill="white"/>
<path d="M36.7742 196.999L38.782 197.159L38.9396 198.449L36.9318 198.29L36.7742 196.999Z" fill="white"/>
<path d="M24.8121 197.167L34.5464 197.739L34.7185 198.927L24.9842 198.355L24.8121 197.167Z" fill="white"/>
<path d="M30.0879 202.321L34.1837 202.649L34.3224 203.778L30.2267 203.45L30.0879 202.321Z" fill="white"/>
<path d="M25.1824 202.44L28.5788 202.725L28.7163 203.883L25.3198 203.598L25.1824 202.44Z" fill="white"/>
</svg>
