<svg width="432" height="322" viewBox="0 0 432 322" fill="none" xmlns="http://www.w3.org/2000/svg">
<path d="M391 17.2263V128.009C391 128.766 390.771 129.505 390.343 130.128L389.014 132.064C388.691 132.535 388.066 132.687 387.563 132.418C387.053 132.146 386.419 132.305 386.114 132.795C384.294 135.722 382.788 139.187 383.021 142.412C383.102 143.558 383.311 144.975 383.607 146.556C383.917 148.213 385.332 149.422 387.013 149.538L389.878 149.737C390.255 149.764 390.548 150.077 390.548 150.455C390.548 150.797 390.308 151.091 389.973 151.16L389.23 151.312L384.888 152.2C384.873 152.203 384.858 152.212 384.85 152.226C384.84 152.244 384.836 152.264 384.841 152.284C385.065 153.228 385.301 154.183 385.543 155.135C386.596 159.278 383.531 163.381 379.257 163.42C378.143 163.43 377.049 163.441 375.995 163.452C374.129 163.471 372.621 161.943 372.676 160.078C372.694 159.487 372.712 158.881 372.73 158.264C372.755 157.371 372.029 156.635 371.136 156.635C370.512 156.635 369.87 156.625 369.242 156.616C368.122 156.606 367.061 156.589 366.322 156.57C366.271 156.569 366.234 156.63 366.249 156.679C366.268 156.742 366.215 156.801 366.15 156.797C365.964 156.786 365.618 156.763 365.144 156.73C364.834 156.709 364.556 156.92 364.493 157.224C363.749 160.86 362.998 164.03 362.684 165.328C362.6 165.674 362.812 166.022 363.159 166.108C363.56 166.206 363.766 166.651 363.582 167.021C363.136 167.915 362.623 168.953 362.063 170.095C361.493 171.259 360.311 172 359.014 172H18.7322C8.39431 172 0 166.974 0 160.776V17.2263C0 11.0265 8.39635 6 18.7322 6H372.245C382.604 6 391 11.0265 391 17.2263Z" fill="white"/>
<path d="M364.315 157.188C364.267 157.008 364.245 156.834 364.245 156.666C364.246 156.835 364.268 157.01 364.315 157.188ZM364.315 157.188C364.318 157.201 364.322 157.215 364.326 157.228C364.322 157.215 364.318 157.201 364.315 157.188ZM368.164 156.101C368.165 156.106 368.167 156.112 368.168 156.117C368.167 156.111 368.165 156.106 368.164 156.101ZM384.416 131.739C382.536 134.762 380.747 138.679 381.026 142.553C381.115 143.809 381.339 145.309 381.641 146.924C381.918 148.404 382.754 149.64 383.896 150.46C383.609 150.619 383.319 150.868 383.106 151.247L383.104 151.251C382.87 151.668 382.765 152.199 382.895 152.745L382.895 152.747C383.122 153.701 383.36 154.667 383.604 155.628C384.348 158.555 382.174 161.393 379.239 161.42C378.123 161.431 377.029 161.441 375.974 161.452C375.237 161.46 374.654 160.86 374.675 160.137C374.693 159.547 374.711 158.94 374.729 158.321C374.788 156.284 373.138 154.635 371.136 154.635C370.53 154.635 369.903 154.626 369.273 154.616L369.266 154.616L369.259 154.616C368.147 154.606 367.097 154.589 366.373 154.571C366.034 154.562 365.735 154.633 365.479 154.749C365.416 154.744 365.351 154.74 365.283 154.735C363.973 154.644 362.797 155.537 362.534 156.823C361.797 160.427 361.051 163.572 360.74 164.857L362.684 165.328L360.74 164.858C360.536 165.702 360.761 166.549 361.275 167.169C360.962 167.802 360.624 168.487 360.268 169.214C360.031 169.697 359.543 170 359.014 170H18.7322C13.8633 170 9.54825 168.812 6.51719 166.996C3.44543 165.156 2 162.894 2 160.776V17.2263C2 15.1069 3.44605 12.8443 6.51802 11.0039C9.54934 9.18782 13.8643 8 18.7322 8H372.245C377.125 8 381.446 9.18813 384.48 11.0043C387.554 12.8447 389 15.1072 389 17.2263V128.009C389 128.362 388.893 128.706 388.694 128.997L387.751 130.37C386.507 130.077 385.146 130.565 384.416 131.739Z" stroke="#D3D3D3" stroke-opacity="0.23" stroke-width="4"/>
<path d="M227.649 81.4707H108.317C107.917 81.4179 107.549 81.2212 107.282 80.9174C107.016 80.6135 106.869 80.2232 106.869 79.8191C106.869 79.415 107.016 79.0246 107.282 78.7208C107.549 78.4169 107.917 78.2203 108.317 78.1675H227.649C228.05 78.2203 228.418 78.4169 228.684 78.7208C228.95 79.0246 229.097 79.415 229.097 79.8191C229.097 80.2232 228.95 80.6135 228.684 80.9174C228.418 81.2212 228.05 81.4179 227.649 81.4707Z" fill="#D3D3D3" fill-opacity="0.5"/>
<path d="M357.698 81.801H238.366C237.965 81.7482 237.597 81.5515 237.331 81.2477C237.065 80.9438 236.918 80.5535 236.918 80.1494C236.918 79.7453 237.065 79.3549 237.331 79.0511C237.597 78.7472 237.965 78.5506 238.366 78.4978H357.698C358.098 78.5506 358.466 78.7472 358.733 79.0511C358.999 79.3549 359.146 79.7453 359.146 80.1494C359.146 80.5535 358.999 80.9438 358.733 81.2477C358.466 81.5515 358.098 81.7482 357.698 81.801H357.698Z" fill="#4E4C82"/>
<path d="M227.939 99.6381H108.607C108.206 99.5853 107.838 99.3887 107.572 99.0848C107.306 98.781 107.159 98.3907 107.159 97.9865C107.159 97.5824 107.306 97.1921 107.572 96.8882C107.838 96.5844 108.206 96.3878 108.607 96.335H227.939C228.339 96.3878 228.707 96.5844 228.974 96.8882C229.24 97.1921 229.387 97.5824 229.387 97.9865C229.387 98.3907 229.24 98.781 228.974 99.0848C228.707 99.3887 228.339 99.5853 227.939 99.6381Z" fill="#D3D3D3" fill-opacity="0.5"/>
<path d="M228.228 117.806H108.896C108.496 117.753 108.128 117.556 107.862 117.252C107.595 116.948 107.448 116.558 107.448 116.154C107.448 115.75 107.595 115.36 107.862 115.056C108.128 114.752 108.496 114.555 108.896 114.502H228.228C228.629 114.555 228.997 114.752 229.263 115.056C229.53 115.36 229.677 115.75 229.677 116.154C229.677 116.558 229.53 116.948 229.263 117.252C228.997 117.556 228.629 117.753 228.228 117.806Z" fill="#D3D3D3" fill-opacity="0.5"/>
<path d="M282.391 99.6381H248.214C247.813 99.5853 247.445 99.3887 247.179 99.0848C246.912 98.781 246.765 98.3907 246.765 97.9865C246.765 97.5824 246.912 97.1921 247.179 96.8882C247.445 96.5844 247.813 96.3878 248.214 96.335H282.391C282.792 96.3878 283.16 96.5844 283.426 96.8882C283.692 97.1921 283.839 97.5824 283.839 97.9865C283.839 98.3907 283.692 98.781 283.426 99.0848C283.16 99.3887 282.792 99.5853 282.391 99.6381Z" fill="#4E4C82"/>
<path d="M282.391 117.475H248.214C247.813 117.423 247.445 117.226 247.179 116.922C246.912 116.618 246.765 116.228 246.765 115.824C246.765 115.42 246.912 115.029 247.179 114.725C247.445 114.422 247.813 114.225 248.214 114.172H282.391C282.792 114.225 283.16 114.422 283.426 114.725C283.692 115.029 283.839 115.42 283.839 115.824C283.839 116.228 283.692 116.618 283.426 116.922C283.16 117.226 282.792 117.423 282.391 117.475Z" fill="#4E4C82"/>
<path d="M339.74 117.475H305.562C305.162 117.423 304.794 117.226 304.528 116.922C304.261 116.618 304.114 116.228 304.114 115.824C304.114 115.42 304.261 115.029 304.528 114.725C304.794 114.422 305.162 114.225 305.562 114.172H339.74C340.141 114.225 340.508 114.422 340.775 114.725C341.041 115.029 341.188 115.42 341.188 115.824C341.188 116.228 341.041 116.618 340.775 116.922C340.508 117.226 340.141 117.423 339.74 117.475Z" fill="#4E4C82"/>
<path d="M141.626 63.3032H107.448C107.048 63.2504 106.68 63.0537 106.413 62.7499C106.147 62.446 106 62.0557 106 61.6516C106 61.2475 106.147 60.8571 106.413 60.5533C106.68 60.2494 107.048 60.0528 107.448 60H141.626C142.027 60.0528 142.394 60.2494 142.661 60.5533C142.927 60.8571 143.074 61.2475 143.074 61.6516C143.074 62.0557 142.927 62.446 142.661 62.7499C142.394 63.0537 142.027 63.2504 141.626 63.3032Z" fill="#D3D3D3" fill-opacity="0.5"/>
<path d="M324.491 119.796L331.768 123.87L331.162 128.036L336.923 133.036L329.443 141.554L311.856 129.981C311.856 129.981 316.607 115.445 317.719 115.815C318.729 116.093 324.491 119.796 324.491 119.796Z" fill="#FACBB6"/>
<path d="M314.08 115.723L317.213 137.202L329.443 137.573L332.375 115.723H314.08Z" fill="#FDE6CF"/>
<path d="M311.452 116.001H334.497V113.871H332.375V110.538L313.574 112.945V114.149H311.452V116.278" fill="#34334B"/>
<path d="M313.069 130.351C308.824 130.721 314.181 120.352 314.181 120.352C314.181 120.352 325.704 119.704 325.805 120.167C325.906 120.722 325.906 121.648 324.996 121.833C324.086 122.018 316.91 122.852 316.91 122.852C316.91 122.852 324.39 123.129 324.289 123.87C324.086 124.889 323.177 124.981 320.953 125.351C319.033 125.629 314.888 125.722 314.888 125.722C314.888 125.722 322.772 125.907 322.671 126.277C322.469 126.74 322.975 128.129 320.347 127.851C313.979 127.203 313.069 130.351 313.069 130.351Z" fill="#FACBB6"/>
<path d="M331.566 121.463C331.566 121.463 334.295 116.556 337.732 116.834C337.732 116.834 333.689 121.278 333.082 124.148C332.577 127.111 332.274 129.147 332.274 129.147H330.454L331.566 121.463Z" fill="#FACBB6"/>
<path d="M364.922 171.736C364.922 171.736 353.197 244.6 358.655 260.062C364.113 275.524 366.235 289.504 366.235 289.504L393.425 282.467C393.425 282.467 384.429 245.989 383.014 239.045C381.7 232.009 395.649 175.162 395.649 175.162L364.922 171.736Z" fill="#34334B"/>
<path d="M377.758 177.013L390.595 294.04H416.673C416.673 294.04 408.283 170.162 409.799 169.051C411.316 168.125 377.758 177.013 377.758 177.013Z" fill="#34334B"/>
<path d="M367.549 105.631C367.549 105.631 364.82 144.887 358.857 143.498C352.893 142.109 336.822 131.832 336.822 131.832L327.018 141.276C327.018 141.276 356.734 170.347 368.964 158.497C381.195 146.553 367.549 105.631 367.549 105.631Z" fill="#FF8C4A"/>
<path d="M375.636 313.668L373.917 305.706L392.92 299.04L395.952 310.798L394.941 310.983C390.696 312.743 369.975 321.168 366.741 321.353C362.9 321.631 375.636 313.668 375.636 313.668Z" fill="#34334B"/>
<path d="M420.716 198.4L418.593 200.993C418.593 200.993 417.582 202.752 415.156 205.437C414.55 206.177 413.741 206.733 412.933 207.196C411.922 207.751 410.507 208.492 409.496 208.677C408.384 208.862 408.081 210.251 409.092 210.622C410.103 210.992 413.236 210.436 416.167 208.492C419.2 206.455 417.784 211.547 417.279 213.399C416.774 215.251 415.662 220.991 416.167 221.639C416.976 222.472 418.088 221.917 418.593 220.065C418.997 218.213 420.716 212.751 421.828 213.029C422.939 213.307 420.311 222.658 420.311 222.658C420.311 222.658 419.402 224.602 420.615 224.972C422.838 225.62 424.759 215.436 424.86 214.51C424.961 213.862 426.174 214.047 425.972 214.788C425.77 215.529 423.142 224.046 425.466 224.787C427.185 225.25 427.084 216.454 428.802 214.973C430.419 213.492 428.094 221.639 429.813 222.102C430.419 222.287 430.924 222.287 431.531 217.38C432.137 212.381 431.228 198.586 431.228 198.586L420.412 198.678" fill="#FCD2B1"/>
<path d="M383.014 92.4842C383.216 90.9103 382.307 84.3368 382.307 84.3368C382.307 84.3368 375.433 83.8738 374.827 77.9484C374.22 72.023 374.119 58.3205 374.119 58.3205L386.35 52.6729L400.298 61.3758L403.533 67.8567L399.389 83.3183V91.0954L383.014 92.4842Z" fill="#FCD2B1"/>
<path d="M382.307 84.3364C382.307 84.3364 386.855 84.2438 391.1 81.4663C391.1 81.4663 389.281 85.9104 382.408 85.8178L382.307 84.3364Z" fill="#FCD2B1"/>
<path d="M403.23 74.3375C401.41 77.9483 400.298 83.2256 400.298 83.2256C399.288 84.8922 398.984 79.7074 398.984 79.7074C398.984 79.7074 398.075 74.7079 398.883 72.7636C398.883 72.7636 402.32 73.782 403.128 68.3195C403.533 65.6346 398.883 64.3384 397.67 67.5788L394.84 67.8566C394.84 67.8566 394.638 57.7649 387.967 59.6166C387.967 59.6166 383.115 62.2089 380.285 60.635C377.455 59.0611 377.657 58.5056 377.657 58.5056C377.657 58.5056 376.242 61.1905 372.603 59.4314C368.863 57.6723 368.459 54.5244 369.672 53.0431C370.38 52.2098 371.087 51.1914 372.3 51.0062C373.513 50.821 374.827 51.284 375.636 52.1172C374.726 50.9136 375.332 49.2471 376.747 48.4138C378.061 47.6732 379.881 47.6732 381.397 48.2287C382.913 48.7842 384.126 49.71 385.339 50.5433C386.148 48.4138 388.776 46.9325 391.404 47.1177C393.931 47.3028 396.255 49.1545 396.66 51.3766C398.075 49.8952 400.703 49.5249 402.724 50.3581C404.746 51.1914 406.06 53.0431 406.464 54.9873C406.868 56.9316 406.363 58.8759 405.554 60.7276C407.071 59.9869 409.193 60.5424 410.305 61.746C411.417 62.9496 411.316 64.8013 410.608 66.1901C409.8 67.5788 408.384 68.6899 406.868 69.4305C408.081 70.2638 408.384 71.8377 407.677 73.0413C406.969 74.2449 405.251 74.8004 403.836 74.3375" fill="#34334B"/>
<path d="M398.378 70.8194C398.378 70.8194 398.479 70.912 398.681 71.0046C398.883 71.0972 399.085 71.0972 399.389 71.0972C399.995 70.912 400.602 70.0787 400.703 69.2455C400.703 68.7825 400.703 68.3196 400.501 67.9493C400.399 67.5789 400.096 67.3012 399.793 67.2086C399.49 67.116 399.288 67.3012 399.187 67.3938C399.085 67.4864 399.085 67.6715 399.085 67.6715C399.085 67.6715 398.984 67.5789 398.984 67.3938C398.984 67.3012 399.085 67.2086 399.187 67.116C399.288 67.0234 399.49 67.0234 399.793 67.0234C400.197 67.116 400.602 67.4864 400.804 67.8567C401.006 68.227 401.107 68.7825 401.006 69.2455C400.905 70.2639 400.197 71.1897 399.389 71.3749C398.984 71.4675 398.681 71.2823 398.479 71.1897C398.378 70.912 398.378 70.8194 398.378 70.8194Z" fill="#FCD2B1"/>
<path d="M426.578 108.038C426.578 108.038 421.929 89.1512 399.288 91.0955C378.668 92.9472 378.668 92.9472 378.668 92.9472C378.668 92.9472 364.517 98.2245 366.438 113.131C368.358 128.037 369.369 141.554 368.864 144.239C368.358 146.831 363.405 170.255 364.82 171.922C379.78 187.846 417.684 162.478 417.684 162.478L426.578 108.038Z" fill="#FF8C4A"/>
<path d="M399.288 91.0957L404.544 201.642L420.211 194.235L418.593 96.1878C418.593 96.0952 414.348 89.7995 399.288 91.0957Z" fill="#FF8C4A"/>
<path d="M431.935 200.438L426.578 108.038C424.86 102.391 421.322 98.0393 416.673 94.3359V201.641L431.935 200.438Z" fill="#FF8C4A"/>
<path d="M383.014 92.4837C383.014 92.4837 368.863 98.5943 369.571 119.426C370.278 140.165 361.081 198.771 361.081 198.771L349.356 196.641C349.356 196.641 363.001 141.091 363.607 131.277C364.214 121.37 363.203 107.297 370.784 97.5759C376.242 90.7246 383.014 92.4837 383.014 92.4837Z" fill="#FF8C4A"/>
<path d="M399.288 91.0952C399.288 91.0952 403.937 100.168 403.432 103.502C402.926 106.835 401.41 113.871 401.41 113.871C401.41 113.871 404.847 115.723 404.544 117.297C404.24 118.871 401.006 134.888 401.006 134.888L399.288 91.0952Z" fill="#FF8C4A"/>
<path d="M414.146 113.686C414.146 113.686 414.247 113.963 414.348 114.611C414.449 115.167 414.449 116.093 414.55 117.204C414.752 119.426 414.954 122.666 415.157 126.647C415.561 134.61 415.763 145.627 415.965 157.756C416.167 169.884 416.369 180.902 416.471 188.864C416.572 192.845 416.673 195.993 416.673 198.308C416.673 199.419 416.673 200.252 416.673 200.9C416.673 201.456 416.673 201.826 416.572 201.826C416.572 201.826 416.471 201.548 416.369 200.9C416.268 200.345 416.268 199.419 416.167 198.308C415.965 196.086 415.763 192.845 415.561 188.864C415.157 180.902 414.954 169.884 414.752 157.756C414.55 145.627 414.348 134.61 414.247 126.647C414.146 122.666 414.045 119.518 414.045 117.204C414.045 116.093 414.045 115.259 414.045 114.611C414.045 113.963 414.146 113.686 414.146 113.686Z" fill="#FF8C4A"/>
<path d="M375.433 305.15C375.635 305.058 370.683 288.393 370.683 288.393L387.36 284.134L390.898 299.781L375.433 305.15Z" fill="#FCD2B1"/>
<path d="M413.843 294.04H394.941V307.094H413.843V294.04Z" fill="#FCD2B1"/>
<path d="M393.021 314.224L394.739 306.262H415.157L413.034 317.927L411.922 318.02C407.273 318.205 384.429 319.316 381.296 318.483C377.859 317.557 393.021 314.224 393.021 314.224Z" fill="#34334B"/>
<path d="M68.1312 97.9875C68.1312 109.005 58.3268 117.986 46.2986 117.986C34.2705 117.986 24.4661 109.005 24.4661 97.9875C24.4661 86.97 34.2705 77.9893 46.2986 77.9893C47.5116 77.9893 48.6234 78.0818 49.8363 78.267L46.2986 97.9875L66.514 90.303C67.5248 92.6176 68.1312 95.21 68.1312 97.9875Z" fill="#4E4C82"/>
<path d="M73.7915 83.6366L53.5762 91.3211L57.1139 71.6006C64.6946 72.619 70.9614 77.3408 73.7915 83.6366Z" fill="#FF8C4A"/>
<path d="M223.616 219.047C223.616 219.047 182.478 217.566 176.11 203.586C169.742 189.605 166.609 152.849 146.596 151.368C126.582 149.887 113.341 148.961 113.341 161.552C113.341 174.144 104.345 215.159 131.838 221.454C157.613 227.38 192.181 238.768 218.158 226.547C221.291 225.158 223.313 222.288 223.616 219.047Z" fill="#D3D3D3"/>
<path d="M185.51 227.194L216.844 317.927L227.76 321.075L196.831 231.824C193.394 231.361 189.957 230.898 185.51 227.194Z" fill="#34334B"/>
<path d="M99.6958 318.112L135.376 214.788H125.571L89.8914 318.112H99.6958Z" fill="#34334B"/>
<path d="M113.847 157.386C113.847 157.386 120.214 197.66 129.109 199.604C138.004 201.549 155.692 199.327 162.768 204.048C169.843 208.77 192.686 232.009 192.686 232.009C192.686 232.009 138.914 230.99 117.789 215.529C96.7646 200.252 113.847 157.386 113.847 157.386Z" fill="#D3D3D3"/>
<path d="M185.409 95.6323C186.319 97.7618 185.611 100.076 185.005 102.298C184.398 104.52 184.095 107.02 185.712 108.872C187.329 110.724 190.362 111.372 192.484 112.946C194.506 114.427 195.618 116.742 195.213 118.871C194.91 120.352 194 121.926 195.011 123.223C195.517 123.871 196.426 124.241 197.336 124.611C199.256 125.352 201.278 126 203.097 126.926C204.917 127.852 206.534 129.055 207.343 130.722C208.454 132.944 207.646 135.444 206.635 137.666C205.725 139.888 204.411 142.202 201.884 143.313C199.964 144.147 197.639 144.147 195.416 143.961C188.947 143.499 182.579 142.11 176.615 139.888C172.875 138.499 169.237 136.647 166.912 133.962C163.273 129.703 163.677 124.148 164.688 119.149C165.295 116.371 166.103 113.501 168.529 111.372C170.854 109.335 174.392 108.224 177.929 108.131C181.467 107.946 181.972 94.7065 185.409 95.6323Z" fill="#34334B"/>
<path d="M156.299 111.001C153.368 107.205 152.155 102.576 152.963 98.1316C153.873 93.7802 156.804 89.7064 161.05 87.0215" fill="#34334B"/>
<path d="M186.723 186.642C186.723 186.642 265.058 176.551 277.995 197.753C290.933 218.954 292.247 279.412 292.247 279.412L274.862 282.19C274.862 282.19 257.073 212.844 248.178 209.789C239.182 206.733 178.738 208.77 178.738 208.77L186.723 186.642Z" fill="#FCD2B1"/>
<path d="M292.247 279.412C292.247 279.412 309.936 279.968 306.398 281.542C302.86 283.116 275.165 285.8 275.165 285.8L274.862 281.727L292.247 279.412Z" fill="#34334B"/>
<path d="M237.868 193.587L235.442 182.569C216.136 182.106 195.82 185.069 175.301 189.05L237.868 193.587Z" fill="#4E4C82"/>
<path d="M178.94 129.241C178.94 129.241 193.394 128.87 196.123 148.683C200.166 177.292 242.214 163.127 242.214 163.127L254.546 170.811C254.546 170.811 231.197 188.958 200.166 177.292C169.237 165.626 178.94 129.241 178.94 129.241Z" fill="#FCD2B1"/>
<path d="M140.733 148.96L138.712 163.589L134.163 190.901C146.494 196.827 164.385 197.197 181.972 199.975C177.727 186.272 176.312 172.755 182.377 159.33C182.377 159.33 188.947 156.83 186.015 153.404C182.276 149.146 181.467 145.535 181.467 145.535L142.654 144.887" fill="#4E4C82"/>
<path d="M173.179 128.222C172.977 126.556 174.493 119.982 174.493 119.982C174.493 119.982 182.276 119.982 183.286 113.964C184.297 107.946 185.207 93.9659 185.207 93.9659L171.663 87.2998L157.006 95.3547L154.682 125.722L173.179 128.222Z" fill="#FCD2B1"/>
<path d="M174.493 119.982C174.493 119.982 169.338 119.612 164.587 116.464C164.587 116.464 166.407 121.093 174.189 121.463L174.493 119.982Z" fill="#FCD2B1"/>
<path d="M134.871 190.902C134.871 190.902 129.918 220.066 160.847 223.769L157.107 189.42L134.871 190.902Z" fill="#FF8C4A"/>
<path d="M170.248 192.475C170.248 192.475 270.01 188.865 278.097 205.622C286.183 222.38 270.01 288.3 270.01 288.3L251.008 285.245C251.008 285.245 254.445 222.473 250.199 219.51C245.954 216.547 164.587 224.232 158.118 222.843C150.942 221.362 127.997 196.271 170.248 192.475Z" fill="#FCD2B1"/>
<path d="M268.494 286.912C268.494 286.912 285.273 291.726 281.23 292.374C277.187 293.022 250.806 289.041 250.806 289.041V283.301L268.494 286.912Z" fill="#34334B"/>
<path d="M241.305 163.496L244.236 161.922C244.236 161.922 246.257 161.182 249.29 159.33C250.098 158.867 250.705 158.219 251.311 157.571C251.918 156.738 252.726 155.627 252.928 154.886C253.131 153.96 254.647 153.775 255.152 154.608C255.556 155.349 255.051 157.849 252.726 160.256C250.503 162.571 256.264 161.552 258.285 161.274C260.408 160.904 266.978 160.071 267.585 160.534C268.595 161.182 267.888 162.108 265.765 162.385C263.643 162.663 257.477 163.959 257.78 164.793C258.083 165.626 268.696 163.774 268.696 163.774C268.696 163.774 270.92 163.126 271.324 164.052C272.032 165.904 260.509 167.2 259.397 167.292C258.589 167.385 258.892 168.311 259.701 168.218C260.509 168.126 270.314 166.181 271.021 168.033C271.628 169.422 261.52 169.144 259.802 170.44C258.083 171.736 267.483 169.977 267.888 171.366C268.09 171.829 268.09 172.292 262.531 172.662C256.87 173.033 241.102 172.107 241.102 172.107V163.496" fill="#FCD2B1"/>
<path d="M181.467 147.109V129.611L175.605 128.037L157.209 125.537C157.209 125.537 145.989 123.87 141.744 126.278C137.499 128.685 139.419 148.776 139.419 148.776L181.467 147.109Z" fill="#4E4C82"/>
<path d="M150.639 124.889C150.639 124.889 127.29 118.778 126.178 150.627C124.965 183.032 186.218 193.587 186.218 193.587L188.745 181.643C188.745 181.643 145.281 168.126 143.462 154.423C141.542 140.721 150.639 124.889 150.639 124.889Z" fill="#FCD2B1"/>
<path d="M236.655 195.253L264.35 157.664L261.52 155.997L233.522 192.383L191.878 185.902L191.17 188.124L236.655 195.253Z" fill="#34334B"/>
<path d="M187.127 97.2986C187.127 97.2986 189.351 87.7624 172.572 84.6145C155.794 81.5592 153.873 97.6689 153.873 97.6689L163.273 97.0208L165.699 93.0397L165.598 97.0208L172.572 97.206L172.471 94.2433L174.189 96.7431L187.127 97.2986Z" fill="#34334B"/>
<path d="M187.228 181.55C187.228 181.55 194.102 182.291 198.246 178.68C202.39 175.07 203.3 179.328 198.852 182.569C194.405 185.809 192.383 186.457 192.383 186.457C192.383 186.457 214.519 193.031 209.769 192.846C205.018 192.661 183.185 192.475 183.185 192.475L187.228 181.55Z" fill="#FCD2B1"/>
<path d="M235.948 221.825L242.315 194.327C242.315 194.327 159.23 184.328 146.899 191.642C134.669 198.956 138.307 223.306 160.746 223.769C183.185 224.232 235.948 221.825 235.948 221.825Z" fill="#FF8C4A"/>
<path d="M113.847 157.386C113.847 157.386 120.214 197.66 129.109 199.605C138.004 201.549 155.692 199.327 162.768 204.049C169.843 208.77 192.686 232.009 192.686 232.009C192.686 232.009 138.914 230.991 117.789 215.529C96.7646 200.253 113.847 157.386 113.847 157.386Z" fill="#D3D3D3"/>
<path d="M82.3106 186.18H70.8889V317.742H82.3106V186.18Z" fill="#34334B"/>
<path d="M19.3398 186.18H7.91809V317.742H19.3398V186.18Z" fill="#34334B"/>
<path d="M363.809 186.18H352.388V317.742H363.809V186.18Z" fill="#34334B"/>
<path d="M300.839 186.18H289.417V317.742H300.839V186.18Z" fill="#34334B"/>
<path d="M371.694 182.754H0.135132V193.401H371.694V182.754Z" fill="#34334B"/>
<path d="M82.7149 182.754H0.135132V193.401H82.7149V182.754Z" fill="#34334B"/>
<path d="M272.841 181.643H204.513L216.642 148.96H285.071L272.841 181.643Z" fill="#D3D3D3"/>
<path d="M273.043 181.087H177.727V182.661H273.043V181.087Z" fill="#D3D3D3"/>
<path d="M250.907 166.181C250.907 167.755 249.188 169.051 247.066 169.051C244.943 169.051 243.225 167.755 243.225 166.181C243.225 164.607 244.943 163.311 247.066 163.311C249.188 163.311 250.907 164.607 250.907 166.181Z" fill="#D3D3D3"/>
<path d="M295.279 182.661H293.662C290.529 182.661 288.002 180.347 288.002 177.477V170.533H300.94V177.477C300.839 180.347 298.312 182.661 295.279 182.661Z" fill="#34334B"/>
<path d="M301.748 178.31C301.142 178.31 300.636 178.217 300.03 178.032L300.738 176.921C302.355 177.477 303.366 176.643 303.972 175.81C304.882 174.421 304.781 172.847 304.174 172.57C302.557 171.829 300.535 172.847 300.535 172.94L299.626 171.922C299.727 171.829 302.456 170.44 305.084 171.551C306.802 172.292 306.701 174.699 305.488 176.458C304.579 177.569 303.265 178.31 301.748 178.31Z" fill="#34334B"/>
<path d="M129.866 27.1815L129.642 27.1837L129.636 27.1824L124.782 27.2672L123.22 27.291L123.214 27.2896L119.641 27.3551L116.818 27.4024L108.156 27.5455L108.158 5.91831L112.088 5.91326L112.095 5.91466L125.2 5.92199L129.785 5.92079L129.788 13.0468L129.787 15.4963L129.807 18.4176L129.825 21.3456L129.855 25.7624L129.866 27.1815Z" fill="#FF8C4A"/>
<path d="M112.092 3.29419L125.201 3.29262L125.202 8.53592L112.093 8.53749L112.092 3.29419Z" fill="#4E4C82"/>
<path d="M144.546 25.5557L135.118 45.0246L115.649 35.5964L116.614 33.6128L119.641 27.355L125.077 16.1275L128.621 17.8426L129.807 18.4175L140.419 23.5586L144.546 25.5557Z" fill="#FF8C4A"/>
<path d="M141.559 21.1999L140.419 23.5586L139.272 25.9159L129.825 21.3454L127.473 20.2066L128.622 17.8426L129.762 15.4839L129.787 15.4961L139.29 20.0992L141.559 21.1999Z" fill="#4E4C82"/>
<path opacity="0.1" d="M129.787 15.4961L129.762 15.4839L128.621 17.8426L125.077 16.1275L119.641 27.3549L116.818 27.4023L120.552 19.6935L120.788 19.1982L120.789 19.1915L123.284 14.051L123.76 13.0686L123.773 13.0432L123.817 13.0663L125.389 13.8265L127.31 14.7569L128.45 12.3982L129.788 13.0466L129.787 15.4961Z" fill="#FF8C4A"/>
<path d="M124.999 24.7363L125.635 23.5254L138.852 30.4693L138.215 31.6803L124.999 24.7363Z" fill="white"/>
<path d="M127.946 30.5676L128.611 29.3737L133.617 32.1595L132.953 33.3534L127.946 30.5676Z" fill="white"/>
<path d="M122.943 27.7852L123.608 26.5912L126.111 27.9841L125.447 29.1781L122.943 27.7852Z" fill="white"/>
<path d="M120.793 31.5408L121.43 30.3298L134.646 37.2738L134.01 38.4847L120.793 31.5408Z" fill="white"/>
<path d="M123.247 12.9985L125.255 13.1581L125.413 14.4497L123.405 14.2902L123.247 12.9985Z" fill="white"/>
<path d="M111.285 13.1665L121.019 13.7385L121.192 14.9272L111.457 14.3552L111.285 13.1665Z" fill="white"/>
<path d="M116.561 18.3208L120.657 18.6494L120.796 19.7783L116.7 19.4497L116.561 18.3208Z" fill="white"/>
<path d="M111.655 18.4399L115.052 18.7249L115.189 19.8828L111.793 19.5978L111.655 18.4399Z" fill="white"/>
<path d="M289.866 47.1815L289.642 47.1837L289.636 47.1824L284.782 47.2672L283.22 47.291L283.214 47.2896L279.641 47.3551L276.818 47.4024L268.156 47.5455L268.158 25.9183L272.088 25.9133L272.095 25.9147L285.2 25.922L289.785 25.9208L289.788 33.0468L289.787 35.4963L289.807 38.4176L289.825 41.3456L289.855 45.7624L289.866 47.1815Z" fill="#FF8C4A"/>
<path d="M272.092 23.2942L285.201 23.2926L285.202 28.5359L272.093 28.5375L272.092 23.2942Z" fill="#4E4C82"/>
<path d="M304.546 45.5557L295.118 65.0246L275.649 55.5964L276.614 53.6128L279.641 47.355L285.077 36.1275L288.621 37.8426L289.807 38.4175L300.419 43.5586L304.546 45.5557Z" fill="#FF8C4A"/>
<path d="M301.559 41.1999L300.419 43.5586L299.272 45.9159L289.825 41.3454L287.473 40.2066L288.622 37.8426L289.762 35.4839L289.787 35.4961L299.29 40.0992L301.559 41.1999Z" fill="#4E4C82"/>
<path opacity="0.1" d="M289.787 35.4961L289.762 35.4839L288.621 37.8426L285.077 36.1275L279.641 47.3549L276.818 47.4023L280.552 39.6935L280.788 39.1982L280.789 39.1915L283.284 34.051L283.76 33.0686L283.773 33.0432L283.817 33.0663L285.389 33.8265L287.31 34.7569L288.45 32.3982L289.788 33.0466L289.787 35.4961Z" fill="#FF8C4A"/>
<path d="M284.999 44.7363L285.635 43.5254L298.852 50.4693L298.215 51.6803L284.999 44.7363Z" fill="white"/>
<path d="M287.946 50.5676L288.611 49.3737L293.617 52.1595L292.953 53.3534L287.946 50.5676Z" fill="white"/>
<path d="M282.943 47.7852L283.608 46.5912L286.111 47.9841L285.447 49.1781L282.943 47.7852Z" fill="white"/>
<path d="M280.793 51.5408L281.43 50.3298L294.646 57.2738L294.01 58.4847L280.793 51.5408Z" fill="white"/>
<path d="M283.247 32.9985L285.255 33.1581L285.413 34.4497L283.405 34.2902L283.247 32.9985Z" fill="white"/>
<path d="M271.285 33.1665L281.02 33.7383L281.192 34.9272L271.457 34.3554L271.285 33.1665Z" fill="white"/>
<path d="M276.561 38.3208L280.657 38.6494L280.796 39.7783L276.7 39.4498L276.561 38.3208Z" fill="white"/>
<path d="M271.655 38.4399L275.052 38.7249L275.189 39.8833L271.793 39.5983L271.655 38.4399Z" fill="white"/>
<path d="M34.3929 211.182L34.1691 211.184L34.1624 211.182L29.3084 211.267L27.7471 211.291L27.7404 211.29L24.1675 211.355L21.3452 211.402L12.6824 211.546L12.6849 189.918L16.6151 189.913L16.6218 189.915L29.7267 189.922L34.3121 189.921L34.3146 197.047L34.314 199.496L34.3337 202.418L34.3521 205.346L34.3814 209.762L34.3929 211.182Z" fill="#FF8C4A"/>
<path d="M16.6189 187.294L29.7278 187.293L29.7284 192.536L16.6195 192.537L16.6189 187.294Z" fill="#4E4C82"/>
<path d="M49.0731 209.556L39.6449 229.025L20.1761 219.596L21.1405 217.613L24.1675 211.355L29.6043 200.128L33.1483 201.843L34.3337 202.417L44.9458 207.559L49.0731 209.556Z" fill="#FF8C4A"/>
<path d="M46.0861 205.2L44.9458 207.559L43.7989 209.916L34.3521 205.345L32.0001 204.207L33.1484 201.843L34.2887 199.484L34.314 199.496L43.8168 204.099L46.0861 205.2Z" fill="#4E4C82"/>
<path opacity="0.1" d="M34.3139 199.496L34.2886 199.484L33.1483 201.843L29.6043 200.127L24.1675 211.355L21.3451 211.402L25.0791 203.693L25.3148 203.198L25.3162 203.192L27.8104 198.051L28.2872 197.069L28.2995 197.043L28.3435 197.066L29.916 197.827L31.8368 198.757L32.9771 196.398L34.3146 197.047L34.3139 199.496Z" fill="#FF8C4A"/>
<path d="M29.5255 208.736L30.1617 207.525L43.3784 214.469L42.7422 215.68L29.5255 208.736Z" fill="white"/>
<path d="M32.473 214.568L33.1374 213.374L38.1438 216.159L37.4794 217.353L32.473 214.568Z" fill="white"/>
<path d="M27.4703 211.785L28.1347 210.591L30.6379 211.984L29.9735 213.178L27.4703 211.785Z" fill="white"/>
<path d="M25.3203 215.541L25.9565 214.33L39.1732 221.274L38.537 222.485L25.3203 215.541Z" fill="white"/>
<path d="M27.7742 196.999L29.782 197.159L29.9396 198.449L27.9318 198.29L27.7742 196.999Z" fill="white"/>
<path d="M15.8121 197.167L25.5464 197.739L25.7185 198.927L15.9842 198.355L15.8121 197.167Z" fill="white"/>
<path d="M21.0879 202.321L25.1837 202.649L25.3224 203.778L21.2267 203.45L21.0879 202.321Z" fill="white"/>
<path d="M16.1824 202.44L19.5788 202.725L19.7163 203.883L16.3198 203.598L16.1824 202.44Z" fill="white"/>
</svg>
