<svg width="65" height="66" viewBox="0 0 65 66" fill="none" xmlns="http://www.w3.org/2000/svg">
<path d="M28.302 37.7793C25.9959 37.7793 24.1091 39.6661 24.1091 41.9722V44.0686C24.1091 46.3747 25.9959 48.2615 28.302 48.2615C30.6081 48.2615 32.4949 46.3747 32.4949 44.0686V41.9722C32.4949 39.6661 30.6081 37.7793 28.302 37.7793ZM30.3985 44.0686C30.3985 45.2217 29.4551 46.1651 28.302 46.1651C27.149 46.1651 26.2056 45.2217 26.2056 44.0686V41.9722C26.2056 40.8191 27.149 39.8757 28.302 39.8757C29.4551 39.8757 30.3985 40.8191 30.3985 41.9722V44.0686Z" fill="white"/>
<path d="M15.7234 52.454C16.3523 52.454 16.7716 52.0347 16.7716 51.4057C16.7716 50.7768 16.3523 50.3575 15.7234 50.3575C14.5704 50.3575 13.627 49.4141 13.627 48.2611V46.1646C13.627 45.7453 13.7318 45.3261 14.0463 45.0116C14.3607 44.4875 14.2559 43.8585 13.7318 43.5441C13.2077 43.2296 12.5787 43.3344 12.2643 43.8585C11.7402 44.4875 11.5305 45.3261 11.5305 46.1646V48.2611C11.5305 50.5672 13.4173 52.454 15.7234 52.454Z" fill="white"/>
<path d="M49.2665 52.4539C51.5726 52.4539 53.4594 50.5671 53.4594 48.261V46.1646C53.4594 43.8585 51.5726 41.9717 49.2665 41.9717C46.9604 41.9717 45.0736 43.8585 45.0736 46.1646V48.261C45.0736 50.5671 46.9604 52.4539 49.2665 52.4539ZM47.1701 46.1646C47.1701 45.0115 48.1135 44.0681 49.2665 44.0681C50.4195 44.0681 51.3629 45.0115 51.3629 46.1646V48.261C51.3629 49.4141 50.4195 50.3575 49.2665 50.3575C48.1135 50.3575 47.1701 49.4141 47.1701 48.261V46.1646Z" fill="white"/>
<path d="M61.8452 44.3831C62.4741 44.3831 62.8934 43.9638 62.8934 43.3349V38.9323C62.8934 37.36 61.8452 35.9973 60.3777 35.6828C58.386 35.3684 56.6041 36.9407 56.6041 38.8275V44.9072L52.7256 54.5509H45.8074L43.1868 47.8422C42.9772 47.3181 42.3482 47.0037 41.8241 47.2133C41.3 47.4229 40.9855 48.0519 41.1952 48.576L44.1302 55.9135C44.3399 56.3328 44.6543 56.5425 45.0736 56.5425H53.4594C53.8787 56.5425 54.298 56.3328 54.4028 55.9135L58.7005 45.3265V38.8275C58.7005 38.1986 59.1198 37.7793 59.7487 37.7793C60.3777 37.7793 60.7969 38.1986 60.7969 38.8275V43.3349C60.7969 43.859 61.2162 44.3831 61.8452 44.3831Z" fill="white"/>
<path d="M46.3314 15.0331C46.5411 15.3475 47.0652 15.7668 47.7989 15.2427C48.2182 14.9282 48.323 14.1945 48.0086 13.7752C45.5977 10.7354 42.1385 8.74374 38.2601 8.1148C37.736 8.00998 37.1071 8.42927 37.1071 8.95338C37.1071 9.47749 37.4215 10.1064 37.9456 10.1064C41.2999 10.6305 44.235 12.4125 46.3314 15.0331Z" fill="white"/>
<path d="M52.7256 19.7494C52.8304 19.7494 53.669 20.0639 54.0883 19.1205C54.298 18.5964 54.0883 17.9675 53.4594 17.7578C52.8304 17.5482 52.2015 17.2337 51.6774 16.9192C51.1533 16.6048 50.5244 16.8144 50.2099 17.3385C49.8954 17.8626 50.1051 18.4916 50.6292 18.806C51.3629 19.1205 51.9919 19.5398 52.7256 19.7494Z" fill="white"/>
<path d="M63.9415 62.9366H57.6522L58.5956 58.01L62.3692 48.4712C62.6837 47.7374 62.7885 47.0037 62.7885 46.2699C62.7885 45.641 62.3692 45.2217 61.7403 45.2217C61.1113 45.2217 60.692 45.641 60.692 46.2699C60.692 46.794 60.5872 47.2133 60.3776 47.7374L56.604 57.3811L55.5558 62.9366H53.669C53.04 62.9366 52.6207 63.3559 52.6207 63.9849C52.6207 64.6138 53.04 65.0331 53.669 65.0331H63.9415C64.5705 65.0331 64.9898 64.6138 64.9898 63.9849C64.9898 63.3559 64.5705 62.9366 63.9415 62.9366Z" fill="white"/>
<path d="M49.6857 62.9363H42.9771L41.9288 57.3807L40.5662 54.0264C40.3565 53.5023 39.7276 53.1878 39.2035 53.3975C38.6794 53.6071 38.3649 54.236 38.5745 54.7602L39.8324 57.9048L40.8806 62.9363H35.8492L37.6311 53.8167L41.4047 44.2779C41.7192 43.5442 41.824 42.8104 41.824 42.0767V34.7391C41.824 33.1668 40.7758 31.8041 39.3083 31.4896C37.4215 31.1751 35.6395 32.7475 35.6395 34.6343V40.714L31.7611 50.3576H24.8428L20.9644 40.714V34.6343C20.9644 33.6909 20.5451 32.8523 19.9162 32.3282L26.8344 20.3784L31.7611 21.1122C35.1154 21.6363 38.0504 23.3135 40.1469 25.934C40.3565 26.2485 40.8806 26.563 41.6144 26.1437C42.1385 25.8292 42.1385 25.0955 41.824 24.6762C39.4131 21.6363 35.954 19.6447 32.0756 19.0158L27.9875 18.3868L35.2202 5.80815L40.1469 6.54191C43.5012 7.06602 46.4362 8.74318 48.5326 11.3637C50.9436 14.4036 54.4027 16.3952 58.2811 17.0241L62.3692 17.6531L55.1364 30.2317L50.2098 29.498C48.0085 29.1835 45.8073 28.2401 44.0253 26.8774C43.606 26.563 42.8722 26.563 42.5578 27.0871C42.2433 27.5064 42.2433 28.2401 42.7674 28.5546C44.8639 30.1269 47.2748 31.1751 49.8953 31.5944L55.4509 32.433C55.4509 32.433 56.1847 32.6427 56.4991 31.9089L64.8849 17.3386C65.3042 16.1856 64.4656 15.8711 64.1512 15.7663L58.5956 14.9277C55.2413 14.4036 52.3062 12.7264 50.2098 10.1059C47.7989 7.06602 44.3398 5.0744 40.4613 4.44546L36.3733 3.81653L37.736 1.51044C37.9456 1.09115 37.736 0.462218 37.2118 0.147751C36.6877 -0.166716 36.0588 0.0429289 35.8492 0.56704L17.9245 31.4896C17.9245 31.4896 14.9895 31.1751 14.6751 34.6343V42.0767C14.6751 42.8104 14.7799 43.5442 15.0943 44.2779L18.8679 53.8167L20.6499 62.9363H14.6751C14.0461 62.9363 13.6268 63.3556 13.6268 63.9845C13.6268 64.6134 14.0461 65.0327 14.6751 65.0327H49.6857C50.3146 65.0327 50.7339 64.6134 50.7339 63.9845C50.7339 63.3556 50.3146 62.9363 49.6857 62.9363ZM35.6395 53.1878L33.7527 62.9363H22.8512L20.9644 53.1878L17.086 43.4394C16.8763 43.0201 16.7715 42.6008 16.7715 42.0767V34.6343C16.7715 34.0053 17.1908 33.5861 17.8197 33.5861C18.4487 33.5861 18.8679 34.0053 18.8679 34.6343V41.1333L23.1657 51.8251C23.3753 52.2444 23.6898 52.4541 24.1091 52.4541H32.4948C32.9141 52.4541 33.3334 52.2444 33.4382 51.8251L37.736 41.1333V34.6343C37.736 34.0053 38.1552 33.5861 38.7842 33.5861C39.4131 33.5861 39.8324 34.0053 39.8324 34.6343V42.0767C39.8324 42.6008 39.7276 43.0201 39.5179 43.5442L35.6395 53.1878Z" fill="white"/>
<path d="M10.7967 62.9366H9.434L8.38578 57.3811L4.50736 47.6326C4.29771 47.2133 4.19289 46.794 4.19289 46.2699V38.8275C4.19289 38.1986 4.61218 37.7793 5.24111 37.7793C5.87005 37.7793 6.28934 38.1986 6.28934 38.8275V45.3265L10.587 56.0184C10.7967 56.4377 11.1112 56.6473 11.5304 56.6473H17.1909C17.8198 56.6473 18.2391 56.228 18.2391 55.5991C18.2391 54.9701 17.8198 54.5509 17.1909 54.5509H12.2642L8.38578 44.9072V38.9323C8.38578 37.36 7.33756 35.9973 5.87005 35.6828C3.87842 35.3684 2.09645 36.9407 2.09645 38.8275V46.2699C2.09645 47.0037 2.20127 47.7374 2.51573 48.4712L6.28934 58.01L7.33756 62.9366H1.04822C0.419289 62.9366 0 63.3559 0 63.9849C0 64.6138 0.419289 65.0331 1.04822 65.0331H10.7967C11.4256 65.0331 11.8449 64.6138 11.8449 63.9849C11.8449 63.3559 11.4256 62.9366 10.7967 62.9366Z" fill="white"/>
</svg>
