<svg width="55" height="56" viewBox="0 0 55 56" fill="none" xmlns="http://www.w3.org/2000/svg">
<path d="M23.9477 31.9668C21.9964 31.9668 20.3999 33.5633 20.3999 35.5146V37.2885C20.3999 39.2398 21.9964 40.8364 23.9477 40.8364C25.899 40.8364 27.4956 39.2398 27.4956 37.2885V35.5146C27.4956 33.5633 25.899 31.9668 23.9477 31.9668ZM25.7216 37.2885C25.7216 38.2642 24.9234 39.0625 23.9477 39.0625C22.9721 39.0625 22.1738 38.2642 22.1738 37.2885V35.5146C22.1738 34.539 22.9721 33.7407 23.9477 33.7407C24.9234 33.7407 25.7216 34.539 25.7216 35.5146V37.2885Z" fill="#98999A"/>
<path d="M13.3044 44.3841C13.8366 44.3841 14.1914 44.0293 14.1914 43.4972C14.1914 42.965 13.8366 42.6102 13.3044 42.6102C12.3288 42.6102 11.5305 41.8119 11.5305 40.8363V39.0624C11.5305 38.7076 11.6192 38.3528 11.8853 38.0867C12.1514 37.6433 12.0627 37.1111 11.6192 36.845C11.1757 36.5789 10.6435 36.6676 10.3775 37.1111C9.93398 37.6432 9.75659 38.3528 9.75659 39.0624V40.8363C9.75659 42.7876 11.3531 44.3841 13.3044 44.3841Z" fill="#98999A"/>
<path d="M41.687 44.3842C43.6383 44.3842 45.2348 42.7877 45.2348 40.8364V39.0625C45.2348 37.1112 43.6383 35.5146 41.687 35.5146C39.7357 35.5146 38.1392 37.1112 38.1392 39.0625V40.8364C38.1392 42.7877 39.7357 44.3842 41.687 44.3842ZM39.9131 39.0625C39.9131 38.0868 40.7113 37.2886 41.687 37.2886C42.6626 37.2886 43.4609 38.0868 43.4609 39.0625V40.8364C43.4609 41.812 42.6626 42.6103 41.687 42.6103C40.7113 42.6103 39.9131 41.812 39.9131 40.8364V39.0625Z" fill="#98999A"/>
<path d="M52.3304 37.5545C52.8626 37.5545 53.2173 37.1997 53.2173 36.6676V32.9423C53.2173 31.6119 52.3304 30.4589 51.0886 30.1928C49.4034 29.9267 47.8956 31.2571 47.8956 32.8536V37.998L44.6139 46.158H38.7599L36.5425 40.4815C36.3652 40.038 35.833 39.7719 35.3895 39.9493C34.946 40.1267 34.6799 40.6589 34.8573 41.1023L37.3408 47.311C37.5182 47.6658 37.7843 47.8432 38.1391 47.8432H45.2347C45.5895 47.8432 45.9443 47.6658 46.033 47.311L49.6695 38.3528V32.8536C49.6695 32.3215 50.0243 31.9667 50.5565 31.9667C51.0886 31.9667 51.4434 32.3215 51.4434 32.8536V36.6676C51.4434 37.111 51.7982 37.5545 52.3304 37.5545Z" fill="#98999A"/>
<path d="M39.2034 12.7197C39.3808 12.9857 39.8243 13.3405 40.4452 12.897C40.7999 12.631 40.8886 12.0101 40.6226 11.6553C38.5825 9.08313 35.6556 7.39791 32.3738 6.86573C31.9304 6.77704 31.3982 7.13182 31.3982 7.5753C31.3982 8.01878 31.6643 8.55095 32.1078 8.55095C34.946 8.99443 37.4295 10.5023 39.2034 12.7197Z" fill="#98999A"/>
<path d="M44.6141 16.7112C44.7028 16.7112 45.4123 16.9773 45.7671 16.179C45.9445 15.7356 45.7671 15.2034 45.2349 15.026C44.7028 14.8486 44.1706 14.5825 43.7271 14.3164C43.2836 14.0503 42.7515 14.2277 42.4854 14.6712C42.2193 15.1147 42.3967 15.6469 42.8402 15.9129C43.461 16.179 43.9932 16.5338 44.6141 16.7112Z" fill="#98999A"/>
<path d="M54.1045 53.2537H48.7828L49.581 49.085L52.7741 41.0137C53.0402 40.3929 53.1289 39.772 53.1289 39.1511C53.1289 38.6189 52.7741 38.2642 52.2419 38.2642C51.7097 38.2642 51.355 38.6189 51.355 39.1511C51.355 39.5946 51.2663 39.9494 51.0889 40.3929L47.8958 48.5529L47.0089 53.2537H45.4123C44.8802 53.2537 44.5254 53.6085 44.5254 54.1407C44.5254 54.6729 44.8802 55.0277 45.4123 55.0277H54.1045C54.6367 55.0277 54.9915 54.6729 54.9915 54.1407C54.9915 53.6085 54.6367 53.2537 54.1045 53.2537Z" fill="#98999A"/>
<path d="M42.0419 53.2538H36.3653L35.4784 48.5529L34.3253 45.7146C34.1479 45.2712 33.6158 45.0051 33.1723 45.1825C32.7288 45.3599 32.4627 45.892 32.6401 46.3355L33.7045 48.9964L34.5914 53.2538H30.334L31.8418 45.5373L35.0349 37.4659C35.301 36.8451 35.3897 36.2242 35.3897 35.6033V29.3946C35.3897 28.0642 34.5027 26.9111 33.261 26.6451C31.6645 26.379 30.1566 27.7094 30.1566 29.3059V34.4503L26.8749 42.6103H21.021L17.7392 34.4503V29.3059C17.7392 28.5077 17.3844 27.7981 16.8523 27.3546L22.7062 17.2433L26.8749 17.8642C29.7131 18.3077 32.1966 19.7268 33.9705 21.9442C34.1479 22.2103 34.5914 22.4764 35.2123 22.1216C35.6558 21.8555 35.6558 21.2346 35.3897 20.8798C33.3497 18.3077 30.4227 16.6224 27.141 16.0903L23.6818 15.5581L29.8018 4.91459L33.9705 5.53546C36.8088 5.97894 39.2923 7.39807 41.0662 9.61547C43.1062 12.1876 46.0332 13.8729 49.3149 14.405L52.774 14.9372L46.654 25.5807L42.4853 24.9598C40.6227 24.6937 38.7601 23.8955 37.2523 22.7424C36.8975 22.4764 36.2766 22.4764 36.0105 22.9198C35.7445 23.2746 35.7445 23.8955 36.1879 24.1616C37.9619 25.492 40.0019 26.379 42.2193 26.7338L46.9201 27.4433C46.9201 27.4433 47.541 27.6207 47.8071 26.9998L54.9027 14.6711C55.2575 13.6955 54.548 13.4294 54.2819 13.3407L49.581 12.6311C46.7427 12.1876 44.2593 10.7685 42.4853 8.55112C40.4453 5.97894 37.5184 4.29372 34.2366 3.76155L30.7775 3.22937L31.9305 1.27807C32.1079 0.923282 31.9305 0.391108 31.4871 0.12502C31.0436 -0.141067 30.5114 0.0363245 30.334 0.479803L15.167 26.6451C15.167 26.6451 12.6836 26.379 12.4175 29.3059V35.6033C12.4175 36.2242 12.5062 36.8451 12.7723 37.4659L15.9653 45.5373L17.4731 53.2538H12.4175C11.8853 53.2538 11.5305 53.6086 11.5305 54.1407C11.5305 54.6729 11.8853 55.0277 12.4175 55.0277H42.0419C42.574 55.0277 42.9288 54.6729 42.9288 54.1407C42.9288 53.6086 42.574 53.2538 42.0419 53.2538ZM30.1566 45.0051L28.5601 53.2538H19.3357L17.7392 45.0051L14.4575 36.7564C14.2801 36.4016 14.1914 36.0468 14.1914 35.6033V29.3059C14.1914 28.7738 14.5462 28.419 15.0783 28.419C15.6105 28.419 15.9653 28.7738 15.9653 29.3059V34.8051L19.6018 43.852C19.7792 44.2068 20.0453 44.3842 20.4001 44.3842H27.4958C27.8505 44.3842 28.2053 44.2068 28.294 43.852L31.9305 34.8051V29.3059C31.9305 28.7738 32.2853 28.419 32.8175 28.419C33.3497 28.419 33.7045 28.7738 33.7045 29.3059V35.6033C33.7045 36.0468 33.6158 36.4016 33.4384 36.8451L30.1566 45.0051Z" fill="#98999A"/>
<path d="M9.13566 53.2537H7.98262L7.09566 48.5528L3.81392 40.3041C3.63653 39.9493 3.54783 39.5945 3.54783 39.151V32.8536C3.54783 32.3215 3.90261 31.9667 4.43479 31.9667C4.96696 31.9667 5.32175 32.3215 5.32175 32.8536V38.3528L8.95827 47.3997C9.13566 47.7545 9.40175 47.9319 9.75653 47.9319H14.5461C15.0783 47.9319 15.4331 47.5771 15.4331 47.045C15.4331 46.5128 15.0783 46.158 14.5461 46.158H10.3774L7.09566 37.998V32.9423C7.09566 31.6119 6.2087 30.4589 4.96696 30.1928C3.28174 29.9267 1.77392 31.2571 1.77392 32.8536V39.151C1.77392 39.7719 1.86261 40.3928 2.1287 41.0136L5.32175 49.085L6.2087 53.2537H0.886958C0.354783 53.2537 0 53.6084 0 54.1406C0 54.6728 0.354783 55.0276 0.886958 55.0276H9.13566C9.66784 55.0276 10.0226 54.6728 10.0226 54.1406C10.0226 53.6084 9.66784 53.2537 9.13566 53.2537Z" fill="#98999A"/>
</svg>
