<svg width="55" height="57" viewBox="0 0 55 57" fill="none" xmlns="http://www.w3.org/2000/svg">
<path d="M45.487 48.0616L45.0957 48.0596L45.0841 48.057L36.5951 48.0776L33.8649 48.0782L33.8532 48.0756L27.6047 48.0961L22.669 48.1046L7.51956 48.1269L8.09278 10.3147L14.9643 10.4093L14.976 10.4119L37.888 10.7694L45.905 10.888L45.7219 23.3469L45.6564 27.6295L45.614 32.7375L45.5691 37.8572L45.5042 45.5801L45.487 48.0616Z" fill="#FF8C4A"/>
<path d="M15.04 5.83038L37.9593 6.17248L37.8225 15.3397L14.9032 14.9976L15.04 5.83038Z" fill="#4E4C82"/>
<path d="M34.2861 23.146L37.8537 23.2199L38.0388 25.6255L34.4712 25.5516L34.2861 23.146Z" fill="white"/>
<path d="M13.3596 23.6517L30.4349 23.3287L30.6541 25.8259L13.5788 26.1488L13.3596 23.6517Z" fill="white"/>
<path d="M22.4556 32.3298L29.669 32.4668L29.8257 34.7686L22.6123 34.6315L22.4556 32.3298Z" fill="white"/>
<path d="M13.876 32.3911L19.8672 32.5355L20.0205 34.823L14.0292 34.6786L13.876 32.3911Z" fill="white"/>
</svg>
