<svg width="103" height="25" viewBox="0 0 103 25" fill="none" xmlns="http://www.w3.org/2000/svg">
<path opacity="0.54" d="M2.67573 24.1264H0.000976562V0.511882H12.1486V3.41313H2.67573V11.1661H11.2199V14.0004H2.67573V24.1264ZM17.1779 3.91041C16.5403 4.6371 15.5391 4.75127 14.7868 4.18307C14.0345 3.61487 13.7408 2.52264 14.0855 1.57467C14.4301 0.626696 15.317 0.0871653 16.2035 0.286187C17.09 0.485209 17.7291 1.36732 17.7297 2.3928C17.7383 2.96393 17.5377 3.5135 17.1757 3.91041H17.1779ZM17.1779 24.1264H14.5032V7.96598H17.1779V24.1264ZM23.0474 24.1264H20.3727V7.96598H22.9293V10.6044H23.0451C23.3539 9.67465 23.9471 8.90189 24.7163 8.42719C25.4508 7.8921 26.3005 7.59537 27.173 7.56918C27.8581 7.5471 28.54 7.68206 29.178 7.96598L28.1607 10.8002C27.7022 10.627 27.22 10.5485 26.7371 10.5683C25.7563 10.574 24.8228 11.0471 24.1645 11.8721C23.4183 12.7413 23.0451 13.8793 23.0451 15.2861L23.0474 24.1264ZM36.5074 24.6417C34.3564 24.6417 32.6081 23.8284 31.2624 22.2017C29.9167 20.575 29.2431 18.5232 29.2416 16.0462C29.202 13.816 29.9022 11.6503 31.2033 9.9783C32.4495 8.31402 34.2929 7.37988 36.2168 7.43778C38.3284 7.43778 40.0193 8.21849 41.2893 9.7799C42.5593 11.3413 43.1935 13.4301 43.192 16.0462L43.1625 16.6079H31.9118C31.989 18.2346 32.4688 19.5229 33.3513 20.4728C34.1766 21.392 35.2897 21.9018 36.4461 21.8899C38.364 21.8899 39.662 20.9666 40.3402 19.1201L42.7243 20.2409C42.2412 21.5186 41.4443 22.6116 40.4287 23.3895C39.3615 24.2243 38.0544 24.6417 36.5074 24.6417ZM40.3447 14.0777C40.2872 13.1535 39.914 12.274 39.2253 11.4392C38.5366 10.6044 37.5125 10.1956 36.1532 10.2128C35.2104 10.194 34.2945 10.5701 33.5806 11.2692C32.8327 12.0129 32.3093 13.0042 32.0843 14.1034L40.3447 14.0777ZM52.8556 24.6417C51.8436 24.6645 50.8427 24.3987 49.9447 23.8687C49.1561 23.4174 48.4888 22.734 48.0125 21.8899H47.8967V24.1264H45.3377V0.511882H48.0125V7.96598L47.8967 10.2076H48.0125C48.4888 9.36356 49.1561 8.68015 49.9447 8.22879C50.8413 7.69266 51.8423 7.42067 52.8556 7.43778C54.6963 7.43778 56.2857 8.26229 57.6238 9.91131C58.962 11.5603 59.6303 13.6053 59.6288 16.0462C59.6288 18.4871 58.9605 20.532 57.6238 22.1811C56.2872 23.8301 54.6978 24.6503 52.8556 24.6417ZM52.4197 21.8719C53.6381 21.8829 54.8022 21.3003 55.6166 20.2718C56.5082 19.2051 56.954 17.7923 56.954 16.0333C56.954 14.2743 56.5082 12.8615 55.6166 11.7948C54.7929 10.7787 53.6326 10.1992 52.4158 10.1962C51.1991 10.1933 50.0366 10.7672 49.2091 11.7793C48.3281 12.834 47.8876 14.252 47.8876 16.0333C47.8876 17.8146 48.3326 19.2369 49.2227 20.3001C50.0422 21.3247 51.2094 21.9016 52.4287 21.8848L52.4197 21.8719ZM66.4382 24.6417C64.9245 24.6417 63.6606 24.147 62.6464 23.1576C61.6322 22.1682 61.1236 20.8601 61.1205 19.2334C61.1205 17.4745 61.7215 16.0951 62.9234 15.0954C64.1253 14.0957 65.6072 13.5958 67.3692 13.5958C68.9389 13.5958 70.2256 13.9256 71.2292 14.5853V14.124C71.2675 13.0378 70.8721 11.9899 70.1529 11.2718C69.4206 10.5561 68.4782 10.1782 67.5122 10.2128C66.7729 10.202 66.0449 10.4183 65.4051 10.8389C64.8058 11.2156 64.3463 11.8248 64.1109 12.5549L61.67 11.3671C62 10.3966 62.6494 9.49648 63.6182 8.66681C64.587 7.83715 65.8661 7.42489 67.4555 7.43005C69.2719 7.43005 70.7857 8.03125 71.9966 9.23366C73.2076 10.4361 73.8086 12.1401 73.7995 14.3456V24.1264H71.2337V21.8848H71.1179C70.0507 23.7227 68.4909 24.6417 66.4382 24.6417ZM66.8742 21.8719C67.9982 21.8674 69.077 21.3698 69.885 20.4831C70.746 19.6594 71.2443 18.4476 71.2473 17.1696C70.4905 16.4653 69.3552 16.1132 67.8415 16.1132C66.5427 16.1132 65.5641 16.4318 64.9056 17.0691C64.2911 17.6051 63.9271 18.4313 63.9179 19.3107C63.9054 20.0761 64.251 20.7917 64.8261 21.1917C65.431 21.6531 66.1453 21.8949 66.8742 21.8848V21.8719ZM81.667 24.6417C80.0776 24.6417 78.7652 24.202 77.7299 23.3225C76.7225 22.4782 75.9374 21.3379 75.4593 20.0245L77.8434 18.9036C78.6003 20.9271 79.8869 21.9389 81.7034 21.9389C82.425 21.9724 83.1382 21.7539 83.7469 21.3128C84.2488 20.9592 84.5518 20.3341 84.5461 19.6637C84.5461 18.609 83.8968 17.8945 82.598 17.52L79.7212 16.729C78.7745 16.4448 77.8926 15.9334 77.135 15.2294C76.3285 14.5157 75.8739 13.4054 75.9134 12.2457C75.9134 10.8166 76.4704 9.65709 77.5845 8.7673C78.7499 7.85951 80.1381 7.39242 81.5512 7.43262C82.7311 7.41123 83.8945 7.7484 84.9208 8.40915C85.8897 9.03335 86.6388 10.0182 87.0415 11.197L84.7187 12.274C84.1965 10.8449 83.1111 10.1303 81.4627 10.1303C80.7615 10.1039 80.0675 10.2983 79.4578 10.692C78.9582 10.9858 78.6446 11.5711 78.6449 12.2096C78.6449 13.1338 79.2746 13.7607 80.534 14.0906L83.3518 14.8506C84.6884 15.1942 85.6769 15.7954 86.3172 16.6543C86.9374 17.4566 87.2781 18.4883 87.2754 19.5555C87.2878 20.9784 86.7058 22.3239 85.7064 23.1834C84.6604 24.1556 83.314 24.6417 81.667 24.6417ZM96.0535 24.6417C93.9025 24.6417 92.1541 23.8284 90.8084 22.2017C89.4627 20.575 88.7891 18.5189 88.7876 16.0333C88.7481 13.8031 89.4482 11.6375 90.7494 9.96542C92.0002 8.30532 93.8456 7.3762 95.7696 7.43778C97.8889 7.43778 99.5797 8.21849 100.842 9.7799C102.105 11.3413 102.739 13.4301 102.745 16.0462L102.715 16.6079H91.4555C91.5327 18.2346 92.0126 19.5229 92.8951 20.4728C93.7228 21.392 94.8386 21.9 95.9967 21.8848C97.9146 21.8848 99.2126 20.9615 99.8908 19.1149L102.275 20.2357C101.792 21.5135 100.995 22.6066 99.9793 23.3843C98.9121 24.2226 97.6035 24.6417 96.0535 24.6417ZM99.8908 14.0777C99.8332 13.1535 99.4601 12.274 98.7714 11.4392C98.0826 10.6044 97.0601 10.1956 95.7038 10.2128C94.761 10.1943 93.8452 10.5703 93.1312 11.2692C92.3833 12.0129 91.8599 13.0042 91.6349 14.1034L99.8908 14.0777Z" fill="#98999A"/>
</svg>
