<svg width="151" height="50" viewBox="0 0 151 50" fill="none" xmlns="http://www.w3.org/2000/svg">
<path opacity="0.54" d="M50.6757 37.1264H48.001V13.5119H60.1486V16.4131H50.6757V24.1661H59.2199V27.0004H50.6757V37.1264ZM65.1779 16.9104C64.5403 17.6371 63.5391 17.7513 62.7868 17.1831C62.0345 16.6149 61.7408 15.5226 62.0855 14.5747C62.4301 13.6267 63.317 13.0872 64.2035 13.2862C65.09 13.4852 65.7291 14.3673 65.7297 15.3928C65.7383 15.9639 65.5377 16.5135 65.1757 16.9104H65.1779ZM65.1779 37.1264H62.5032V20.966H65.1779V37.1264ZM71.0474 37.1264H68.3727V20.966H70.9293V23.6044H71.0451C71.3539 22.6746 71.9471 21.9019 72.7163 21.4272C73.4508 20.8921 74.3005 20.5954 75.173 20.5692C75.8581 20.5471 76.54 20.6821 77.178 20.966L76.1607 23.8002C75.7022 23.627 75.22 23.5485 74.7371 23.5683C73.7563 23.574 72.8228 24.0471 72.1645 24.8721C71.4183 25.7413 71.0451 26.8793 71.0451 28.2861L71.0474 37.1264ZM84.5074 37.6417C82.3564 37.6417 80.6081 36.8284 79.2624 35.2017C77.9167 33.575 77.2431 31.5232 77.2416 29.0462C77.202 26.816 77.9022 24.6503 79.2033 22.9783C80.4495 21.314 82.2929 20.3799 84.2168 20.4378C86.3284 20.4378 88.0193 21.2185 89.2893 22.7799C90.5593 24.3413 91.1935 26.4301 91.192 29.0462L91.1625 29.6079H79.9118C79.989 31.2346 80.4688 32.5229 81.3513 33.4728C82.1766 34.392 83.2897 34.9018 84.4461 34.8899C86.364 34.8899 87.662 33.9666 88.3402 32.1201L90.7243 33.2409C90.2412 34.5186 89.4443 35.6116 88.4287 36.3895C87.3615 37.2243 86.0544 37.6417 84.5074 37.6417ZM88.3447 27.0777C88.2872 26.1535 87.914 25.274 87.2253 24.4392C86.5366 23.6044 85.5125 23.1956 84.1532 23.2128C83.2104 23.194 82.2945 23.5701 81.5806 24.2692C80.8327 25.0129 80.3093 26.0042 80.0843 27.1034L88.3447 27.0777ZM100.856 37.6417C99.8436 37.6645 98.8427 37.3987 97.9447 36.8687C97.1561 36.4174 96.4888 35.734 96.0125 34.8899H95.8967V37.1264H93.3377V13.5119H96.0125V20.966L95.8967 23.2076H96.0125C96.4888 22.3636 97.1561 21.6801 97.9447 21.2288C98.8413 20.6927 99.8423 20.4207 100.856 20.4378C102.696 20.4378 104.286 21.2623 105.624 22.9113C106.962 24.5603 107.63 26.6053 107.629 29.0462C107.629 31.4871 106.96 33.532 105.624 35.1811C104.287 36.8301 102.698 37.6503 100.856 37.6417ZM100.42 34.8719C101.638 34.8829 102.802 34.3003 103.617 33.2718C104.508 32.2051 104.954 30.7923 104.954 29.0333C104.954 27.2743 104.508 25.8615 103.617 24.7948C102.793 23.7787 101.633 23.1992 100.416 23.1962C99.1991 23.1933 98.0366 23.7672 97.2091 24.7793C96.3281 25.834 95.8876 27.252 95.8876 29.0333C95.8876 30.8146 96.3326 32.2369 97.2227 33.3001C98.0422 34.3247 99.2094 34.9016 100.429 34.8848L100.42 34.8719ZM114.438 37.6417C112.925 37.6417 111.661 37.147 110.646 36.1576C109.632 35.1682 109.124 33.8601 109.121 32.2334C109.121 30.4745 109.721 29.0951 110.923 28.0954C112.125 27.0957 113.607 26.5958 115.369 26.5958C116.939 26.5958 118.226 26.9256 119.229 27.5853V27.124C119.267 26.0378 118.872 24.9899 118.153 24.2718C117.421 23.5561 116.478 23.1782 115.512 23.2128C114.773 23.202 114.045 23.4183 113.405 23.8389C112.806 24.2156 112.346 24.8248 112.111 25.5549L109.67 24.3671C110 23.3966 110.649 22.4965 111.618 21.6668C112.587 20.8371 113.866 20.4249 115.455 20.43C117.272 20.43 118.786 21.0313 119.997 22.2337C121.208 23.4361 121.809 25.1401 121.799 27.3456V37.1264H119.234V34.8848H119.118C118.051 36.7227 116.491 37.6417 114.438 37.6417ZM114.874 34.8719C115.998 34.8674 117.077 34.3698 117.885 33.4831C118.746 32.6594 119.244 31.4476 119.247 30.1696C118.49 29.4653 117.355 29.1132 115.841 29.1132C114.543 29.1132 113.564 29.4318 112.906 30.0691C112.291 30.6051 111.927 31.4313 111.918 32.3107C111.905 33.0761 112.251 33.7917 112.826 34.1917C113.431 34.6531 114.145 34.8949 114.874 34.8848V34.8719ZM129.667 37.6417C128.078 37.6417 126.765 37.202 125.73 36.3225C124.723 35.4782 123.937 34.3379 123.459 33.0245L125.843 31.9036C126.6 33.9271 127.887 34.9389 129.703 34.9389C130.425 34.9724 131.138 34.7539 131.747 34.3128C132.249 33.9592 132.552 33.3341 132.546 32.6637C132.546 31.609 131.897 30.8945 130.598 30.52L127.721 29.729C126.774 29.4448 125.893 28.9334 125.135 28.2294C124.329 27.5157 123.874 26.4054 123.913 25.2457C123.913 23.8166 124.47 22.6571 125.585 21.7673C126.75 20.8595 128.138 20.3924 129.551 20.4326C130.731 20.4112 131.894 20.7484 132.921 21.4092C133.89 22.0333 134.639 23.0182 135.042 24.197L132.719 25.274C132.196 23.8449 131.111 23.1303 129.463 23.1303C128.761 23.1039 128.068 23.2983 127.458 23.692C126.958 23.9858 126.645 24.5711 126.645 25.2096C126.645 26.1338 127.275 26.7607 128.534 27.0906L131.352 27.8506C132.688 28.1942 133.677 28.7954 134.317 29.6543C134.937 30.4566 135.278 31.4883 135.275 32.5555C135.288 33.9784 134.706 35.3239 133.706 36.1834C132.66 37.1556 131.314 37.6417 129.667 37.6417ZM144.053 37.6417C141.902 37.6417 140.154 36.8284 138.808 35.2017C137.463 33.575 136.789 31.5189 136.788 29.0333C136.748 26.8031 137.448 24.6375 138.749 22.9654C140 21.3053 141.846 20.3762 143.77 20.4378C145.889 20.4378 147.58 21.2185 148.842 22.7799C150.105 24.3413 150.739 26.4301 150.745 29.0462L150.715 29.6079H139.456C139.533 31.2346 140.013 32.5229 140.895 33.4728C141.723 34.392 142.839 34.9 143.997 34.8848C145.915 34.8848 147.213 33.9615 147.891 32.1149L150.275 33.2357C149.792 34.5135 148.995 35.6066 147.979 36.3843C146.912 37.2226 145.604 37.6417 144.053 37.6417ZM147.891 27.0777C147.833 26.1535 147.46 25.274 146.771 24.4392C146.083 23.6044 145.06 23.1956 143.704 23.2128C142.761 23.1943 141.845 23.5703 141.131 24.2692C140.383 25.0129 139.86 26.0042 139.635 27.1034L147.891 27.0777Z" fill="#98999A"/>
<mask id="mask0" mask-type="alpha" maskUnits="userSpaceOnUse" x="8" y="2" width="30" height="46">
<path d="M33.2715 12.2947C33.2148 11.9122 32.9767 11.5978 32.6543 11.4798C32.3319 11.3619 31.9791 11.46 31.7396 11.7343L27.0399 17.1367L23.3448 9.06938C23.1883 8.72828 22.8798 8.5147 22.5437 8.5147C22.2076 8.5147 21.8992 8.72828 21.7427 9.06938L19.7221 13.4806L14.6535 2.63942C14.4696 2.24565 14.0867 2.0309 13.7028 2.10623C13.3189 2.18157 13.0201 2.5301 12.9609 2.97156L8.06201 38.9331L21.1634 47.3559C21.9861 47.8827 22.9882 47.8827 23.8109 47.3559L37.0255 38.9331L33.2715 12.2947Z" fill="#98999A"/>
</mask>
<g mask="url(#mask0)">
</g>
</svg>
