<svg width="433" height="365" viewBox="0 0 433 365" fill="none" xmlns="http://www.w3.org/2000/svg">
<path d="M361.946 57.873L367.064 108.43H409.188L407.163 31.5835C407.163 15.043 395.715 0.575439 379.155 0.575439C362.596 0.575439 351.823 14.3689 351.823 30.9095L349.123 108.43H355.991L361.946 57.873Z" fill="#34334B"/>
<path d="M387.123 322.993C387.123 322.993 385.305 334.494 382.275 336.31C379.244 338.126 398.032 342.363 398.032 342.363L401.062 324.204L387.123 322.993Z" fill="#FCD2B1"/>
<path d="M409.547 191.637L416.213 199.506L413.183 226.746L410.759 280.62C410.759 280.62 415.607 327.23 410.759 328.441C405.91 329.651 384.093 329.046 384.699 326.019C385.305 322.993 385.911 320.571 387.123 316.334C388.335 312.097 385.911 296.964 385.911 296.964L388.941 280.015L378.032 206.77L409.547 191.637Z" fill="#34334B"/>
<path d="M387.729 334.494C387.729 334.494 381.063 333.283 380.457 334.494C379.851 335.705 368.336 348.417 366.518 348.417C364.7 348.417 351.367 360.523 365.306 361.128C379.245 361.734 402.274 350.838 402.274 350.838C402.274 350.838 398.885 335.434 399.065 336.175C399.244 336.915 387.729 337.521 387.729 334.494Z" fill="#34334B"/>
<path d="M380.457 306.649C380.457 306.649 397.426 325.414 398.032 327.23C398.638 329.046 407.728 327.23 407.728 327.23L411.365 315.124L408.335 310.886L391.365 296.964L380.457 306.649Z" fill="#FCD2B1"/>
<path d="M404.698 320.572L395.911 328.833C395.911 328.833 407.122 345.995 407.122 347.811C407.122 349.627 407.728 364.76 413.789 362.339C419.849 359.918 420.455 335.705 420.455 335.705C420.455 335.705 419.849 310.886 416.213 309.07C412.577 307.254 404.607 307.828 404.607 307.828C404.607 307.828 409.547 319.966 404.698 320.572Z" fill="#34334B"/>
<path d="M354.397 137.763C354.397 137.763 351.366 147.448 350.76 149.869C350.154 152.291 346.518 158.949 346.518 169.24C346.518 179.53 347.73 191.637 346.518 192.848C345.306 194.058 325.913 261.855 334.397 269.119C342.882 276.383 370.76 300.596 372.578 303.622C374.396 306.649 375.002 313.913 378.638 312.702C382.275 311.492 396.214 299.385 396.82 296.964C397.426 294.543 388.941 290.305 388.941 290.305C388.941 290.305 371.972 265.487 367.73 266.092C363.487 266.697 364.093 263.065 364.699 261.25C365.305 259.434 366.518 258.223 364.699 258.223C362.881 258.223 364.093 253.38 364.699 250.959C365.305 248.538 379.244 215.85 379.244 215.85L416.213 199.506C416.213 199.506 414.395 155.317 401.062 143.211L398.032 135.947C398.032 135.947 364.093 133.525 354.397 137.763Z" fill="#34334B"/>
<path d="M369.548 42.1211C369.548 42.1211 372.578 63.3076 365.306 64.5182C358.033 65.7289 351.973 65.1236 351.973 65.7289C351.973 66.3342 370.154 85.0993 370.154 85.0993L387.123 83.8887L402.274 67.5448C402.274 67.5448 388.335 65.1235 388.335 56.6489C388.335 48.1743 387.729 42.1211 387.729 42.1211L369.548 42.1211Z" fill="#FCD2B1"/>
<path d="M378.942 50.8983C389.318 50.8983 397.729 42.4969 397.729 32.1332C397.729 21.7695 389.318 13.368 378.942 13.368C368.566 13.368 360.154 21.7695 360.154 32.1332C360.154 42.4969 368.566 50.8983 378.942 50.8983Z" fill="#FCD2B1"/>
<path d="M367.977 62.9772C367.977 62.9772 338.64 65.7289 336.822 73.5981C335.003 81.4674 348.942 130.499 350.761 134.736C352.579 138.973 351.973 142 351.973 142C354.715 139.952 357.865 138.514 361.21 137.783C364.555 137.052 368.018 137.045 371.366 137.763C382.881 140.184 399.244 138.973 399.244 138.973C399.244 138.973 404.698 116.576 405.91 114.155C407.123 111.734 411.971 98.4166 411.971 94.7846C411.971 91.1526 419.243 76.0195 419.243 76.0195C419.243 76.0195 415.607 65.1235 402.274 65.7289C402.274 65.7289 396.459 63.129 394.821 65.0343C393.184 66.9396 384.093 75.4141 372.578 71.7822C361.063 68.1502 367.977 62.9772 367.977 62.9772Z" fill="#FF8C4A"/>
<path d="M407.729 72.9928L419.243 76.0194C419.243 76.0194 427.728 106.891 428.334 107.496C428.94 108.102 429.546 111.734 429.546 111.734C429.546 111.734 429.546 112.339 430.758 114.155C431.97 115.971 433.788 114.76 432.576 117.182C431.364 119.603 429.546 118.392 430.758 120.814C431.97 123.235 431.364 129.894 431.364 129.894C431.364 129.894 428.334 118.392 417.425 121.419L410.153 88.7313L407.729 72.9928Z" fill="#FF8C4A"/>
<path d="M411.534 78.7871L411.493 78.9256L391.531 141.738L378.428 138.831L364.259 135.69L384.262 70.9183L411.534 78.7871Z" fill="#FF8C4A"/>
<path d="M348.546 72.9928L337.031 76.0194C337.031 76.0194 328.547 106.891 327.941 107.496C327.335 108.102 326.729 111.734 326.729 111.734C326.729 111.734 326.729 112.339 325.516 114.155C324.304 115.971 322.486 114.76 323.698 117.182C324.91 119.603 326.729 118.392 325.516 120.814C324.304 123.235 324.91 129.894 324.91 129.894C324.91 129.894 327.941 118.392 338.849 121.419L346.122 88.7313L348.546 72.9928Z" fill="#FF8C4A"/>
<path d="M328.547 119.603L324.761 125.923C324.761 125.923 323.092 137.763 331.577 137.763C340.062 137.763 352.182 126.262 352.182 126.262C352.182 126.262 358.243 123.84 361.879 124.446C365.515 125.051 385.515 124.446 377.03 114.155C368.545 103.864 354 114.155 354 114.155L338.849 121.419L330.971 117.182L328.547 119.603Z" fill="#FCD2B1"/>
<path d="M333.698 111.431L339.759 121.116C339.759 121.116 325.82 122.932 324.608 125.959C323.395 128.986 330.062 110.22 330.062 110.22L333.698 111.431Z" fill="#D3D3D3" fill-opacity="0.23"/>
<path d="M363.296 25.5168C375.5 18.9446 380.514 19.2229 395.69 25.5168L399.74 15.6628C399.737 13.8074 398.999 12.0286 397.685 10.7166C396.372 9.40463 394.591 8.66664 392.733 8.66455H365.578C363.72 8.66665 361.94 9.40464 360.626 10.7166C359.312 12.0286 358.574 13.8074 358.572 15.6628L363.296 25.5168Z" fill="#34334B"/>
<path opacity="0.2" d="M411.493 78.9255L391.531 141.738L378.428 138.831L398.12 75.0707L411.493 78.9255Z" fill="#34334B"/>
<path d="M402.274 75.0693L382.274 139.839L409.546 145.892L429.546 82.9381L402.274 75.0693Z" fill="#4E4C82"/>
<path d="M427.728 119.603L431.514 125.923C431.514 125.923 433.182 137.763 424.698 137.763C416.213 137.763 404.092 126.262 404.092 126.262C404.092 126.262 398.032 123.84 394.396 124.446C390.759 125.051 370.76 124.446 379.245 114.155C387.729 103.864 402.274 114.155 402.274 114.155L417.425 121.419L425.304 117.182L427.728 119.603Z" fill="#FCD2B1"/>
<path d="M422.577 111.431L416.516 121.116C416.516 121.116 430.455 122.932 431.667 125.959C432.879 128.986 426.213 110.22 426.213 110.22L422.577 111.431Z" fill="#D3D3D3" fill-opacity="0.23"/>
<path d="M101.979 174.181H5.40674L7.25975 63H100.6L101.979 174.181Z" fill="white"/>
<path d="M208.635 174.181H0.451172V188.229H208.635V174.181Z" fill="#34334B"/>
<path d="M141.366 227.229H67.6768V235.417H141.366V227.229Z" fill="#34334B"/>
<path d="M0.451172 364.912L90.1283 179.869L99.5227 184.437L12.0002 364.955L0.451172 364.912Z" fill="#34334B"/>
<path d="M208.592 364.912L118.915 179.869L109.563 184.437L197.043 364.955L208.592 364.912Z" fill="#34334B"/>
<path d="M54.4471 152.246C74.7007 152.246 91.1195 137.139 91.1195 118.504C91.1195 99.869 74.7007 84.7622 54.4471 84.7622C34.1935 84.7622 17.7747 99.869 17.7747 118.504C17.7747 137.139 34.1935 152.246 54.4471 152.246Z" fill="#4E4C82"/>
<path d="M54.4471 118.504H91.1195C91.1195 125.615 88.6632 132.553 84.1384 138.284C79.6136 144.058 73.1927 148.325 65.8669 150.522L54.4471 118.504Z" fill="#CCE9FF"/>
<path d="M54.4472 118.504L29.9702 93.3809C36.6928 87.8649 45.3976 84.7622 54.4472 84.7622C74.5718 84.7622 91.1196 99.9741 91.1196 118.504C91.1196 118.547 91.1196 118.634 91.1196 118.677L54.4472 118.504Z" fill="#34334B"/>
<path d="M194.5 174.181H112.925L114.476 116.349H193.294L194.5 174.181Z" fill="white"/>
<path d="M143.952 133.328H135.075V167.286H143.952V133.328Z" fill="#34334B"/>
<path d="M159.164 137.379H150.287V167.329H159.164V137.379Z" fill="#34334B"/>
<path d="M174.333 129.019H165.456V167.286H174.333V129.019Z" fill="#FF8C4A"/>
<path d="M128.525 125.27H127.577V167.76H128.525V125.27Z" fill="#34334B"/>
<path d="M186.829 167.286H127.576V168.018H186.829V167.286Z" fill="#34334B"/>
<path d="M16.3094 155.693H13.0774V158.925H16.3094V155.693Z" fill="#34334B"/>
<path d="M30.5733 156.814H18.1194V157.849H30.5733V156.814Z" fill="#34334B"/>
<path d="M30.5733 162.373H18.1194V163.408H30.5733V162.373Z" fill="#34334B"/>
<path d="M30.5733 167.975H18.1194V169.01H30.5733V167.975Z" fill="#34334B"/>
<path d="M16.3094 161.296H13.0774V164.528H16.3094V161.296Z" fill="#4E4C82"/>
<path d="M16.3094 166.855H13.0774V170.087H16.3094V166.855Z" fill="#CCE9FF"/>
</svg>
