<svg width="158" height="314" viewBox="0 0 158 314" fill="none" xmlns="http://www.w3.org/2000/svg">
<path d="M67.6634 266.49L67.5903 278.251C67.5903 278.251 69.0514 285.775 70.2932 293.811C71.462 301.847 72.4117 310.394 71.1698 312.366C68.7592 316.311 64.0108 312.366 63.2073 308.421C62.4037 304.477 61.2349 279.858 61.2349 279.858L60.4313 264.006L67.6634 266.49Z" fill="#34334B"/>
<path d="M79.6437 264.883L77.8174 275.475C77.8174 275.475 74.2379 304.403 76.2103 308.787C78.1827 313.17 84.5381 311.197 84.1729 305.207C83.8076 299.29 85.3417 278.251 85.3417 278.251L88.9212 265.54L79.6437 264.883Z" fill="#34334B"/>
<path d="M74.7493 135.948L73.8727 148.951L107.476 165.168C113.539 168.456 116.461 175.542 114.489 182.116L91.2589 268.535L79.7168 264.883L89.8709 185.403C90.6014 180.509 87.2411 175.98 82.3466 175.176L70.3663 173.277L57.6554 160.274L72.4117 173.496C75.9912 176.71 77.7444 181.459 77.087 186.207L67.6634 266.49L57.2171 269.12L52.5418 190.152C52.1766 185.111 48.8162 180.874 44.0679 179.34L23.3945 172.766C20.1072 170.793 18.0618 167.214 17.9156 163.342L18.7923 135.51L74.7493 135.948Z" fill="#34334B"/>
<path d="M16.6007 165.095L22.1526 57.1259C22.1526 57.1259 45.0906 55.7379 51.9574 55.7379C55.683 55.7379 62.0384 57.4911 67.0789 59.0983C71.8272 60.6323 75.6989 60.4862 78.0366 64.8693L115.658 137.044L92.5007 139.235L84.7573 130.469L88.7021 124.552L74.6032 91.3868L77.3792 151.654L16.6007 165.095Z" fill="#FF8C4A"/>
<path opacity="0.08" d="M75.1146 78.2376L100.098 123.31L92.3546 132.441C92.3546 132.441 89.2134 133.099 86.2183 132.076L84.8303 130.469L88.7751 124.552L74.6763 91.3868L75.1146 78.2376Z" fill="#FF8C4A"/>
<path d="M52.9071 88.3917C45.3098 88.3917 31.4301 68.5949 31.4301 60.9976C31.4301 59.4635 31.7223 58.0025 32.1606 56.6145C39.2465 56.2493 48.0857 55.811 51.9574 55.811C53.6376 55.811 55.8291 56.1762 58.2398 56.6876C58.6781 58.0755 58.9703 59.4635 58.9703 60.9976C58.8973 68.5949 60.5044 88.3917 52.9071 88.3917Z" fill="white"/>
<path opacity="0.08" d="M19.3766 75.8269L16.6007 165.753L53.7106 156.841L19.3766 75.8269Z" fill="#FF8C4A"/>
<path d="M54.222 44.7072C53.5645 46.0221 49.0353 63.7005 49.0353 63.7005C49.0353 63.7005 47.4282 66.6225 43.5565 66.2572C39.6848 65.965 38.0777 60.4862 38.0777 60.4862L44.8715 38.2787L54.222 44.7072Z" fill="#FCD2B1"/>
<path d="M56.9797 60.1133C70.5187 57.9062 79.705 45.1415 77.4979 31.6025C75.2908 18.0636 62.526 8.87731 48.9871 11.0844C35.4481 13.2915 26.2618 26.0562 28.469 39.5952C30.6761 53.1342 43.4408 62.3204 56.9797 60.1133Z" fill="#FCD2B1"/>
<path d="M48.3048 154.722C49.2545 154.43 57.4362 150.412 63.2073 150.412C68.9783 150.412 76.0642 156.548 76.0642 156.548C76.0642 156.548 77.0139 159.763 73.1422 159.105C69.2705 158.448 73.6535 161.516 73.6535 161.516C73.6535 161.516 73.4344 161.662 68.9052 162.319C64.3761 162.977 46.8438 162.027 46.8438 162.027L48.3048 154.722Z" fill="#FCD2B1"/>
<path d="M22.1526 57.1989L19.0114 128.205L48.2318 154.649L46.8438 162.1L5.71613 140.112C1.77137 137.993 -0.493196 133.61 0.0912119 129.154L7.61546 74.8042C8.19986 68.0105 12.3638 62.0203 18.427 59.0252L22.1526 57.1989Z" fill="#FF8C4A"/>
<path d="M45.3098 168.163H119.676V162.685H45.3098C43.7757 162.685 42.6069 163.926 42.6069 165.387C42.5338 166.921 43.7757 168.163 45.3098 168.163Z" fill="#D3D3D3"/>
<path d="M65.691 168.163H137.427C140.568 168.163 143.344 166.045 144.221 162.977L156.859 115.274C158.027 110.818 154.667 106.508 150.065 106.508H87.4602C84.319 106.508 81.5431 108.627 80.6665 111.695L65.691 168.163Z" fill="#D3D3D3"/>
<path opacity="0.22" d="M65.691 168.163H137.427C140.568 168.163 143.344 166.045 144.221 162.977L156.859 115.274C158.027 110.818 154.667 106.508 150.065 106.508H87.4602C84.319 106.508 81.5431 108.627 80.6665 111.695L65.691 168.163Z" fill="white"/>
<path d="M107.914 141.573C107.111 144.714 109.083 147.198 112.298 147.198C115.512 147.198 118.726 144.641 119.53 141.573C120.333 138.432 118.361 135.948 115.146 135.948C111.932 135.875 108.718 138.432 107.914 141.573Z" fill="white"/>
<path d="M52.9801 10.7385C65.7641 10.7385 76.2103 20.3812 77.6714 32.7268C73.3614 35.9411 67.7365 37.3291 62.4037 36.4524C56.1213 35.3567 50.4964 31.0467 47.8666 25.2756C48.0857 28.0516 48.2318 30.8275 47.7935 33.5304C47.3552 36.2333 46.1864 38.9362 43.9949 40.6894C43.8488 38.7901 43.6296 36.7446 42.68 35.0645C41.6572 33.3843 39.5388 32.2155 37.7855 32.946C36.4706 33.4573 35.667 34.7723 35.4479 36.1602C35.2287 37.5482 35.594 38.9362 36.1054 40.2511C36.9089 42.2965 38.0777 44.1958 39.5387 45.7299C36.6167 46.1682 33.4755 46.5335 30.5535 46.2413C29.0194 42.954 28.0698 39.3745 28.0698 35.5028C28.0698 21.8422 39.2465 10.7385 52.9801 10.7385Z" fill="#34334B"/>
<path d="M31.5762 39.6667C31.5762 43.8306 34.9365 47.1909 39.1004 47.1909C43.2644 47.1909 46.6247 43.8306 46.6247 39.6667C46.6247 35.5028 43.2644 32.1424 39.1004 32.1424C35.0096 32.1424 31.5762 35.5028 31.5762 39.6667Z" fill="#FCD2B1"/>
<path d="M79.6438 264.883L78.3289 272.845L86.2184 275.329L88.4099 267.513L79.6438 264.883Z" fill="#FCD2B1"/>
<path d="M67.5903 275.329L61.0157 276.571L60.6505 268.243L67.6633 266.49L67.5903 275.329Z" fill="#FCD2B1"/>
<path d="M39.1005 22.2075C45.2329 22.2075 50.2042 17.2362 50.2042 11.1037C50.2042 4.97131 45.2329 0 39.1005 0C32.968 0 27.9967 4.97131 27.9967 11.1037C27.9967 17.2362 32.968 22.2075 39.1005 22.2075Z" fill="#34334B"/>
</svg>
