<svg width="225" height="76" viewBox="0 0 225 76" fill="none" xmlns="http://www.w3.org/2000/svg">
<path d="M9.12 0H215.384C220.415 0 224.504 4.0888 224.504 9.12V66.88C224.504 71.9112 220.415 76 215.384 76H9.12C4.0888 76 0 71.9112 0 66.88V9.12C0 4.0888 4.0888 0 9.12 0Z" fill="white"/>
<path d="M27.3904 36.48C27.3904 36.48 11.9016 27.892 10.9896 27.3904C10.0776 26.8888 9.16565 27.1928 9.16565 28.2416V65.2536C9.16565 66.044 9.81925 66.3784 10.6096 65.9528C11.4 65.512 27.3904 56.6504 27.3904 56.6504C27.3904 56.6504 29.564 55.4496 30.6432 54.8416C32.3912 53.8688 35.8872 51.9384 35.8872 51.9384C35.8872 51.9384 43.1072 47.9408 44.0648 47.4088C45.0224 46.8768 44.9312 46.1472 44.1256 45.7368C43.32 45.3264 35.9024 41.1768 35.9024 41.1768L27.3904 36.48V36.48Z" fill="#4E4C82" fill-opacity="0.5"/>
<path d="M153.763 53.0329L152.076 54.6289C151.681 54.8417 151.301 55.1001 150.921 55.2673C149.75 55.7993 148.565 55.9361 147.501 55.9361C146.376 55.9361 144.613 55.8601 142.819 54.5529C140.326 52.7897 139.232 49.7345 139.232 47.0897C139.232 41.6025 143.67 38.9121 147.303 38.9121C148.565 38.9121 149.872 39.2313 150.921 39.9001C152.684 41.0705 153.14 42.5905 153.383 43.4113L145.114 46.7705L142.409 46.9833C143.29 51.4825 146.315 54.0969 149.659 54.0969C151.331 54.0969 152.562 53.5497 153.702 52.9873C153.702 52.9873 153.93 52.8657 153.763 53.0329V53.0329ZM148.717 44.0041C149.386 43.7609 149.72 43.5481 149.72 43.0465C149.72 41.6177 148.154 39.9761 146.27 39.9761C144.886 39.9761 142.272 41.0857 142.272 44.9313C142.272 45.5393 142.348 46.1777 142.378 46.8161L148.717 44.0041V44.0041Z" fill="#4E4C82" fill-opacity="0.5"/>
<path d="M136.496 52.835C136.496 54.203 136.739 54.4158 137.894 54.5222C138.502 54.5982 139.095 54.6286 139.688 54.6894L138.396 55.4646H132.21C133.015 54.4006 133.167 54.2942 133.167 53.595V52.8046L133.152 31.8286H130.416L133.046 30.5518H138.062C136.967 31.1902 136.648 31.5702 136.511 32.8014L136.496 52.835" fill="#4E4C82" fill-opacity="0.5"/>
<path d="M126.905 40.645C127.71 41.3138 129.382 42.7274 129.382 45.4026C129.382 48.017 127.923 49.2482 126.449 50.4186C125.993 50.8746 125.461 51.3762 125.461 52.1514C125.461 52.9266 125.993 53.3522 126.373 53.6714L127.634 54.6594C129.17 55.9666 130.568 57.1674 130.568 59.5994C130.568 62.913 127.376 66.2722 121.357 66.2722C116.28 66.2722 113.833 63.8402 113.833 61.2258C113.833 59.949 114.456 58.1554 116.538 56.9242C118.712 55.5866 121.646 55.4042 123.226 55.2978C122.74 54.6594 122.178 53.9906 122.178 52.8962C122.178 52.3034 122.36 51.9386 122.527 51.513C122.147 51.5434 121.752 51.589 121.402 51.589C117.694 51.589 115.596 48.7922 115.596 46.041C115.596 44.4146 116.326 42.621 117.846 41.3138C119.837 39.657 122.223 39.3682 124.108 39.3682H131.328L129.078 40.645H126.905ZM124.442 56.2858C124.154 56.2402 123.986 56.2402 123.637 56.2402C123.318 56.2402 121.402 56.3162 119.928 56.8178C119.153 57.1066 116.888 57.973 116.888 60.5266C116.888 63.0802 119.32 64.9194 123.105 64.9194C126.494 64.9194 128.288 63.2626 128.288 61.0434C128.288 59.189 127.118 58.2162 124.442 56.2858ZM125.43 49.4762C126.236 48.6706 126.312 47.5458 126.312 46.9074C126.312 44.369 124.822 40.4322 121.919 40.4322C121.022 40.4322 120.034 40.8882 119.472 41.6026C118.879 42.3322 118.712 43.2898 118.712 44.2018C118.712 46.5578 120.08 50.4642 123.074 50.4642C123.941 50.4642 124.883 50.0386 125.43 49.4762V49.4762Z" fill="#4E4C82" fill-opacity="0.5"/>
<path d="M105.078 55.9361C99.4992 55.9361 96.52 51.5281 96.52 47.5457C96.52 42.8945 100.274 38.9121 105.61 38.9121C110.762 38.9121 114 43.0009 114 47.3025C114 51.4977 110.808 55.9361 105.078 55.9361ZM109.44 53.0633C110.291 51.9233 110.504 50.4945 110.504 49.1113C110.504 45.9649 109.03 39.9761 104.652 39.9761C103.497 39.9761 102.326 40.4321 101.475 41.1921C100.107 42.4385 99.8488 44.0041 99.8488 45.5393C99.8488 49.0657 101.566 54.8721 105.838 54.8721C107.236 54.8721 108.634 54.2033 109.44 53.0633Z" fill="#4E4C82" fill-opacity="0.5"/>
<path d="M86.3816 55.9361C80.8032 55.9361 77.824 51.5281 77.824 47.5457C77.824 42.8945 81.5784 38.9121 86.9136 38.9121C92.0664 38.9121 95.304 43.0009 95.304 47.3025C95.304 51.4977 92.112 55.9361 86.3816 55.9361ZM90.744 53.0633C91.5952 51.9233 91.808 50.4945 91.808 49.1113C91.808 45.9649 90.3184 39.9761 85.956 39.9761C84.7856 39.9761 83.6304 40.4321 82.7792 41.1921C81.396 42.4385 81.1528 44.0041 81.1528 45.5393C81.1528 49.0657 82.8856 54.8721 87.1416 54.8721C88.54 54.8721 89.9384 54.2033 90.744 53.0633Z" fill="#4E4C82" fill-opacity="0.5"/>
<path d="M75.5136 54.8865L70.7864 55.9809C68.8712 56.2849 67.1536 56.5585 65.3296 56.5585C56.2096 56.5433 52.744 49.7945 52.744 44.5049C52.744 38.0601 57.6688 32.0713 66.0896 32.0713C67.868 32.0713 69.5856 32.3297 71.1512 32.7705C73.6288 33.4697 74.784 34.3361 75.5136 34.8377L72.7624 37.4673L71.6072 37.7257L72.428 36.4033C71.3032 35.3089 69.2512 33.2721 65.36 33.2721C60.1464 33.2721 56.2096 37.2545 56.2096 43.0761C56.2096 49.3233 60.6936 55.2057 67.8984 55.2057C70.0112 55.2057 71.1056 54.7801 72.0936 54.3849V49.0193L67.108 49.2929L69.7528 47.8641H76.76L75.9088 48.7001C75.6808 48.8977 75.6504 48.9585 75.5744 49.2321C75.544 49.5361 75.5136 50.4937 75.5136 50.8433V54.8865" fill="#4E4C82" fill-opacity="0.5"/>
<path d="M163.962 53.1849V62.1681H162.184V39.3225H163.962V41.9217C165.118 40.2345 167.246 38.9121 169.693 38.9121C174.101 38.9121 177.08 42.2713 177.08 47.5761C177.08 52.8505 174.116 56.2705 169.693 56.2705C167.382 56.2705 165.3 55.0697 163.962 53.1849ZM175.256 47.7129C175.256 43.6697 173.174 40.5841 169.465 40.5841C167.17 40.5841 164.966 42.4081 164.008 44.0041V51.3913C164.966 52.9873 167.17 54.8721 169.465 54.8721C173.174 54.8721 175.256 51.7561 175.256 47.7129Z" fill="#4E4C82" fill-opacity="0.5"/>
<path d="M179.512 32.9844H181.336V55.9364H179.512V32.9844Z" fill="#4E4C82" fill-opacity="0.5"/>
<path d="M201.172 60.587C201.552 60.7542 202.206 60.8606 202.616 60.8606C203.71 60.8606 204.455 60.4198 205.139 58.839L206.431 55.8902L199.424 39.2158H201.415L207.419 53.671L213.378 39.2158H215.384L206.842 59.3862C205.96 61.4686 204.562 62.4718 202.646 62.4718C202.069 62.4718 201.309 62.3654 200.868 62.2286L201.172 60.587" fill="#4E4C82" fill-opacity="0.5"/>
<path d="M196.141 55.9209C196.019 55.3433 195.928 54.8417 195.867 54.4161C195.806 53.9905 195.776 53.5649 195.776 53.1241C195.168 54.0209 194.302 54.7809 193.177 55.3737C192.067 55.9665 191.003 56.2553 189.559 56.2553C187.811 56.2553 186.458 55.8297 185.501 54.9481C184.543 54.0817 184.057 52.8961 184.057 51.4065C184.057 49.9169 184.756 48.7009 186.154 47.7737C187.553 46.8465 189.362 46.3753 191.596 46.3753H195.761V44.3081C195.761 43.1225 195.35 42.1801 194.545 41.5113C193.739 40.8273 192.599 40.4929 191.125 40.4929C189.772 40.4929 188.678 40.8121 187.842 41.4201C187.021 42.0433 186.595 42.8185 186.595 43.7457H184.771L184.741 43.6545C184.68 42.3929 185.242 41.2985 186.474 40.3409C187.69 39.3833 189.27 38.9121 191.231 38.9121C193.177 38.9121 194.758 39.3833 195.943 40.3257C197.129 41.2529 197.722 42.6057 197.722 44.3537V52.5617C197.722 53.1545 197.752 53.7169 197.828 54.2793C197.904 54.8417 198.026 55.3889 198.178 55.9209H196.141V55.9209ZM189.787 54.7201C191.307 54.7201 192.402 54.3705 193.511 53.7017C194.621 53.0329 195.366 52.1513 195.761 51.0873V47.8801H191.566C189.97 47.8801 188.647 48.2297 187.598 48.9593C186.55 49.6737 186.033 50.5401 186.033 51.5585C186.033 52.5161 186.367 53.2761 187.036 53.8537C187.72 54.4313 188.632 54.7201 189.787 54.7201V54.7201Z" fill="#4E4C82" fill-opacity="0.5"/>
<path d="M52.136 17.5253C52.136 14.2573 54.7504 12.1445 58.0032 12.1445C60.1768 12.1445 61.6056 13.1173 62.5024 14.3029L60.9064 15.1541C60.2984 14.3789 59.2496 13.7709 58.0032 13.7709C55.7992 13.7709 54.1424 15.3365 54.1424 17.5253C54.1576 19.6989 55.7992 21.2797 58.0032 21.2797C59.1432 21.2797 60.1464 20.7933 60.648 20.3373V18.7413H57.304V17.1301H62.5936V21.0061C61.4992 22.1461 59.9336 22.9061 58.0032 22.9061C54.7504 22.9213 52.136 20.7933 52.136 17.5253Z" fill="#4E4C82" fill-opacity="0.5"/>
<path d="M65.132 22.7701V12.3125H72.8992V13.9237H67.1232V16.6141H72.7776V18.2405H67.1232V21.1589H72.8992V22.7701H65.132Z" fill="#4E4C82" fill-opacity="0.5"/>
<path d="M78.1736 22.7701V13.9237H74.7992V12.3125H83.5088V13.9237H80.1344V22.7701H78.1736" fill="#4E4C82" fill-opacity="0.5"/>
<path d="M90.4856 12.3125H92.3856V22.7701H90.4856V12.3125Z" fill="#4E4C82" fill-opacity="0.5"/>
<path d="M97.8272 22.7701V13.9237H94.4528V12.3125H103.162V13.9237H99.788V22.7701H97.8272" fill="#4E4C82" fill-opacity="0.5"/>
<path d="M109.668 17.541C109.668 14.4402 112.054 12.1602 115.459 12.1602C118.834 12.1602 121.235 14.4402 121.235 17.541C121.235 20.6418 118.818 22.9218 115.459 22.9218C112.054 22.9218 109.668 20.6418 109.668 17.541ZM119.168 17.4498C119.168 15.3218 117.709 13.7258 115.444 13.7258C113.164 13.7258 111.72 15.3218 111.72 17.4498C111.72 19.5626 113.164 21.1738 115.444 21.1738C117.709 21.1738 119.168 19.5778 119.168 17.4498Z" fill="#4E4C82" fill-opacity="0.5"/>
<path d="M131.222 22.7701L125.4 15.2917V22.7701H123.439V12.3125H125.446L131.146 19.5629V12.3125H133.106V22.7701H131.222Z" fill="#4E4C82" fill-opacity="0.5"/>
</svg>
