<svg width="308" height="260" viewBox="0 0 308 260" fill="none" xmlns="http://www.w3.org/2000/svg">
<g opacity="0.56">
<rect x="13.064" y="129.934" width="71.6314" height="70.6314" rx="35.3157" fill="#4E4C82" fill-opacity="0.5"/>
</g>
<g clip-path="url(#clip0)">
<path d="M28.8358 170.591H22.7398V169.679L27.5758 163.103H22.9918V162.215H28.6678V163.127L23.8198 169.703H28.8358V170.591ZM34.6487 169.583H34.6007C34.2247 170.351 33.6207 170.735 32.7887 170.735C32.4047 170.735 32.0567 170.659 31.7447 170.507C31.4327 170.355 31.1647 170.139 30.9407 169.859C30.7247 169.579 30.5567 169.239 30.4367 168.839C30.3247 168.439 30.2687 167.991 30.2687 167.495C30.2687 166.999 30.3247 166.551 30.4367 166.151C30.5567 165.751 30.7247 165.411 30.9407 165.131C31.1647 164.851 31.4327 164.635 31.7447 164.483C32.0567 164.331 32.4047 164.255 32.7887 164.255C33.2207 164.255 33.5887 164.351 33.8927 164.543C34.2047 164.727 34.4407 165.015 34.6007 165.407H34.6487V161.711H35.6087V170.591H34.6487V169.583ZM33.0527 169.871C33.2687 169.871 33.4727 169.843 33.6647 169.787C33.8647 169.731 34.0367 169.651 34.1807 169.547C34.3247 169.435 34.4367 169.303 34.5167 169.151C34.6047 168.991 34.6487 168.811 34.6487 168.611V166.307C34.6487 166.139 34.6047 165.983 34.5167 165.839C34.4367 165.687 34.3247 165.559 34.1807 165.455C34.0367 165.351 33.8647 165.271 33.6647 165.215C33.4727 165.151 33.2687 165.119 33.0527 165.119C32.5087 165.119 32.0807 165.291 31.7687 165.635C31.4567 165.971 31.3007 166.415 31.3007 166.967V168.023C31.3007 168.575 31.4567 169.023 31.7687 169.367C32.0807 169.703 32.5087 169.871 33.0527 169.871ZM38.5297 162.947C38.3217 162.947 38.1697 162.899 38.0737 162.803C37.9857 162.699 37.9417 162.567 37.9417 162.407V162.251C37.9417 162.091 37.9857 161.963 38.0737 161.867C38.1697 161.763 38.3217 161.711 38.5297 161.711C38.7377 161.711 38.8857 161.763 38.9737 161.867C39.0697 161.963 39.1177 162.091 39.1177 162.251V162.407C39.1177 162.567 39.0697 162.699 38.9737 162.803C38.8857 162.899 38.7377 162.947 38.5297 162.947ZM38.0497 164.399H39.0097V170.591H38.0497V164.399ZM43.7777 170.735C43.3537 170.735 42.9697 170.659 42.6257 170.507C42.2897 170.355 41.9977 170.139 41.7497 169.859C41.5097 169.571 41.3217 169.231 41.1857 168.839C41.0577 168.439 40.9937 167.991 40.9937 167.495C40.9937 167.007 41.0577 166.563 41.1857 166.163C41.3217 165.763 41.5097 165.423 41.7497 165.143C41.9977 164.855 42.2897 164.635 42.6257 164.483C42.9697 164.331 43.3537 164.255 43.7777 164.255C44.1937 164.255 44.5657 164.331 44.8937 164.483C45.2217 164.635 45.5017 164.847 45.7337 165.119C45.9657 165.383 46.1417 165.699 46.2617 166.067C46.3897 166.435 46.4537 166.839 46.4537 167.279V167.735H42.0017V168.023C42.0017 168.287 42.0417 168.535 42.1217 168.767C42.2097 168.991 42.3297 169.187 42.4817 169.355C42.6417 169.523 42.8337 169.655 43.0577 169.751C43.2897 169.847 43.5497 169.895 43.8377 169.895C44.2297 169.895 44.5697 169.803 44.8577 169.619C45.1537 169.435 45.3817 169.171 45.5417 168.827L46.2257 169.319C46.0257 169.743 45.7137 170.087 45.2897 170.351C44.8657 170.607 44.3617 170.735 43.7777 170.735ZM43.7777 165.059C43.5137 165.059 43.2737 165.107 43.0577 165.203C42.8417 165.291 42.6537 165.419 42.4937 165.587C42.3417 165.755 42.2217 165.955 42.1337 166.187C42.0457 166.411 42.0017 166.659 42.0017 166.931V167.015H45.4217V166.883C45.4217 166.331 45.2697 165.891 44.9657 165.563C44.6697 165.227 44.2737 165.059 43.7777 165.059ZM49.4556 170.591C49.1196 170.591 48.8636 170.499 48.6876 170.315C48.5196 170.123 48.4356 169.883 48.4356 169.595V161.711H49.3956V169.751H50.3076V170.591H49.4556ZM56.6051 170.591C56.2451 170.591 55.9851 170.495 55.8251 170.303C55.6731 170.111 55.5771 169.871 55.5371 169.583H55.4771C55.3411 169.967 55.1171 170.255 54.8051 170.447C54.4931 170.639 54.1211 170.735 53.6891 170.735C53.0331 170.735 52.5211 170.567 52.1531 170.231C51.7931 169.895 51.6131 169.439 51.6131 168.863C51.6131 168.279 51.8251 167.831 52.2491 167.519C52.6811 167.207 53.3491 167.051 54.2531 167.051H55.4771V166.439C55.4771 165.999 55.3571 165.663 55.1171 165.431C54.8771 165.199 54.5091 165.083 54.0131 165.083C53.6371 165.083 53.3211 165.167 53.0651 165.335C52.8171 165.503 52.6091 165.727 52.4411 166.007L51.8651 165.467C52.0331 165.131 52.3011 164.847 52.6691 164.615C53.0371 164.375 53.5011 164.255 54.0611 164.255C54.8131 164.255 55.3971 164.439 55.8131 164.807C56.2291 165.175 56.4371 165.687 56.4371 166.343V169.751H57.1451V170.591H56.6051ZM53.8451 169.919C54.0851 169.919 54.3051 169.891 54.5051 169.835C54.7051 169.779 54.8771 169.699 55.0211 169.595C55.1651 169.491 55.2771 169.371 55.3571 169.235C55.4371 169.099 55.4771 168.951 55.4771 168.791V167.771H54.2051C53.6531 167.771 53.2491 167.851 52.9931 168.011C52.7451 168.171 52.6211 168.403 52.6211 168.707V168.959C52.6211 169.263 52.7291 169.499 52.9451 169.667C53.1691 169.835 53.4691 169.919 53.8451 169.919ZM58.9153 170.591V164.399H59.8753V165.407H59.9233C60.0753 165.055 60.2873 164.775 60.5593 164.567C60.8393 164.359 61.2113 164.255 61.6753 164.255C62.3153 164.255 62.8193 164.463 63.1873 164.879C63.5633 165.287 63.7513 165.867 63.7513 166.619V170.591H62.7913V166.787C62.7913 165.675 62.3233 165.119 61.3873 165.119C61.1953 165.119 61.0073 165.143 60.8233 165.191C60.6473 165.239 60.4873 165.311 60.3433 165.407C60.1993 165.503 60.0833 165.627 59.9953 165.779C59.9153 165.923 59.8753 166.095 59.8753 166.295V170.591H58.9153ZM66.6156 162.947C66.4076 162.947 66.2556 162.899 66.1596 162.803C66.0716 162.699 66.0276 162.567 66.0276 162.407V162.251C66.0276 162.091 66.0716 161.963 66.1596 161.867C66.2556 161.763 66.4076 161.711 66.6156 161.711C66.8236 161.711 66.9716 161.763 67.0596 161.867C67.1556 161.963 67.2036 162.091 67.2036 162.251V162.407C67.2036 162.567 67.1556 162.699 67.0596 162.803C66.9716 162.899 66.8236 162.947 66.6156 162.947ZM66.1356 164.399H67.0956V170.591H66.1356V164.399ZM71.8636 170.735C71.4396 170.735 71.0556 170.659 70.7116 170.507C70.3756 170.355 70.0836 170.139 69.8356 169.859C69.5956 169.571 69.4076 169.231 69.2716 168.839C69.1436 168.439 69.0796 167.991 69.0796 167.495C69.0796 167.007 69.1436 166.563 69.2716 166.163C69.4076 165.763 69.5956 165.423 69.8356 165.143C70.0836 164.855 70.3756 164.635 70.7116 164.483C71.0556 164.331 71.4396 164.255 71.8636 164.255C72.2796 164.255 72.6516 164.331 72.9796 164.483C73.3076 164.635 73.5876 164.847 73.8196 165.119C74.0516 165.383 74.2276 165.699 74.3476 166.067C74.4756 166.435 74.5396 166.839 74.5396 167.279V167.735H70.0876V168.023C70.0876 168.287 70.1276 168.535 70.2076 168.767C70.2956 168.991 70.4156 169.187 70.5676 169.355C70.7276 169.523 70.9196 169.655 71.1436 169.751C71.3756 169.847 71.6356 169.895 71.9236 169.895C72.3156 169.895 72.6556 169.803 72.9436 169.619C73.2396 169.435 73.4676 169.171 73.6276 168.827L74.3116 169.319C74.1116 169.743 73.7996 170.087 73.3756 170.351C72.9516 170.607 72.4476 170.735 71.8636 170.735ZM71.8636 165.059C71.5996 165.059 71.3596 165.107 71.1436 165.203C70.9276 165.291 70.7396 165.419 70.5796 165.587C70.4276 165.755 70.3076 165.955 70.2196 166.187C70.1316 166.411 70.0876 166.659 70.0876 166.931V167.015H73.5076V166.883C73.5076 166.331 73.3556 165.891 73.0516 165.563C72.7556 165.227 72.3596 165.059 71.8636 165.059Z" fill="white"/>
</g>
<g opacity="0.56">
<rect y="39.1631" width="85.2698" height="83.5499" rx="41.7749" fill="#4E4C82" fill-opacity="0.5"/>
</g>
<g clip-path="url(#clip1)">
<path d="M32.9326 86.6294C31.8686 86.6294 31.0406 86.2694 30.4486 85.5494C29.8566 84.8214 29.5606 83.7534 29.5606 82.3454C29.5606 80.9374 29.8566 79.8574 30.4486 79.1054C31.0406 78.3454 31.8686 77.9654 32.9326 77.9654C33.6366 77.9654 34.2246 78.1254 34.6966 78.4454C35.1766 78.7654 35.5486 79.2174 35.8126 79.8014L34.9966 80.2934C34.8286 79.8614 34.5726 79.5174 34.2286 79.2614C33.8846 78.9974 33.4526 78.8654 32.9326 78.8654C32.5726 78.8654 32.2486 78.9334 31.9606 79.0694C31.6806 79.2054 31.4406 79.4014 31.2406 79.6574C31.0486 79.9054 30.9006 80.2054 30.7966 80.5574C30.6926 80.9014 30.6406 81.2894 30.6406 81.7214V82.9694C30.6406 83.8334 30.8406 84.5094 31.2406 84.9974C31.6406 85.4854 32.2046 85.7294 32.9326 85.7294C33.4686 85.7294 33.9166 85.5934 34.2766 85.3214C34.6366 85.0414 34.9006 84.6734 35.0686 84.2174L35.8726 84.7214C35.6086 85.3134 35.2286 85.7814 34.7326 86.1254C34.2366 86.4614 33.6366 86.6294 32.9326 86.6294ZM37.7377 77.6054H38.6977V81.3014H38.7457C38.8977 80.9494 39.1097 80.6694 39.3817 80.4614C39.6617 80.2534 40.0337 80.1494 40.4977 80.1494C41.1377 80.1494 41.6417 80.3574 42.0097 80.7734C42.3857 81.1814 42.5737 81.7614 42.5737 82.5134V86.4854H41.6137V82.6814C41.6137 81.5694 41.1457 81.0134 40.2097 81.0134C40.0177 81.0134 39.8297 81.0374 39.6457 81.0854C39.4697 81.1334 39.3097 81.2054 39.1657 81.3014C39.0217 81.3974 38.9057 81.5214 38.8177 81.6734C38.7377 81.8174 38.6977 81.9894 38.6977 82.1894V86.4854H37.7377V77.6054ZM49.458 86.4854C49.098 86.4854 48.838 86.3894 48.678 86.1974C48.526 86.0054 48.43 85.7654 48.39 85.4774H48.33C48.194 85.8614 47.97 86.1494 47.658 86.3414C47.346 86.5334 46.974 86.6294 46.542 86.6294C45.886 86.6294 45.374 86.4614 45.006 86.1254C44.646 85.7894 44.466 85.3334 44.466 84.7574C44.466 84.1734 44.678 83.7254 45.102 83.4134C45.534 83.1014 46.202 82.9454 47.106 82.9454H48.33V82.3334C48.33 81.8934 48.21 81.5574 47.97 81.3254C47.73 81.0934 47.362 80.9774 46.866 80.9774C46.49 80.9774 46.174 81.0614 45.918 81.2294C45.67 81.3974 45.462 81.6214 45.294 81.9014L44.718 81.3614C44.886 81.0254 45.154 80.7414 45.522 80.5094C45.89 80.2694 46.354 80.1494 46.914 80.1494C47.666 80.1494 48.25 80.3334 48.666 80.7014C49.082 81.0694 49.29 81.5814 49.29 82.2374V85.6454H49.998V86.4854H49.458ZM46.698 85.8134C46.938 85.8134 47.158 85.7854 47.358 85.7294C47.558 85.6734 47.73 85.5934 47.874 85.4894C48.018 85.3854 48.13 85.2654 48.21 85.1294C48.29 84.9934 48.33 84.8454 48.33 84.6854V83.6654H47.058C46.506 83.6654 46.102 83.7454 45.846 83.9054C45.598 84.0654 45.474 84.2974 45.474 84.6014V84.8534C45.474 85.1574 45.582 85.3934 45.798 85.5614C46.022 85.7294 46.322 85.8134 46.698 85.8134ZM53.1362 86.4854C52.8002 86.4854 52.5442 86.3934 52.3682 86.2094C52.2002 86.0174 52.1162 85.7694 52.1162 85.4654V81.1334H51.0962V80.2934H51.6722C51.8802 80.2934 52.0202 80.2534 52.0922 80.1734C52.1722 80.0854 52.2122 79.9374 52.2122 79.7294V78.5774H53.0762V80.2934H54.4322V81.1334H53.0762V85.6454H54.3362V86.4854H53.1362Z" fill="white"/>
</g>
<g opacity="0.24">
<rect x="91.447" y="0.262695" width="85.2698" height="83.5499" rx="41.7749" fill="#4E4C82" fill-opacity="0.5"/>
</g>
<g clip-path="url(#clip2)">
<path d="M105.943 42.473L104.935 40.613H104.899V47.585H103.915V39.209H105.079L108.139 44.321L109.147 46.181H109.183V39.209H110.167V47.585H109.003L105.943 42.473ZM115.044 47.729C114.628 47.729 114.248 47.653 113.904 47.501C113.56 47.349 113.264 47.133 113.016 46.853C112.776 46.565 112.588 46.225 112.452 45.833C112.316 45.433 112.248 44.985 112.248 44.489C112.248 44.001 112.316 43.557 112.452 43.157C112.588 42.757 112.776 42.417 113.016 42.137C113.264 41.849 113.56 41.629 113.904 41.477C114.248 41.325 114.628 41.249 115.044 41.249C115.46 41.249 115.836 41.325 116.172 41.477C116.516 41.629 116.812 41.849 117.06 42.137C117.308 42.417 117.5 42.757 117.636 43.157C117.772 43.557 117.84 44.001 117.84 44.489C117.84 44.985 117.772 45.433 117.636 45.833C117.5 46.225 117.308 46.565 117.06 46.853C116.812 47.133 116.516 47.349 116.172 47.501C115.836 47.653 115.46 47.729 115.044 47.729ZM115.044 46.877C115.564 46.877 115.988 46.717 116.316 46.397C116.644 46.077 116.808 45.589 116.808 44.933V44.045C116.808 43.389 116.644 42.901 116.316 42.581C115.988 42.261 115.564 42.101 115.044 42.101C114.524 42.101 114.1 42.261 113.772 42.581C113.444 42.901 113.28 43.389 113.28 44.045V44.933C113.28 45.589 113.444 46.077 113.772 46.397C114.1 46.717 114.524 46.877 115.044 46.877ZM121.186 47.585C120.85 47.585 120.594 47.493 120.418 47.309C120.25 47.117 120.166 46.869 120.166 46.565V42.233H119.146V41.393H119.722C119.93 41.393 120.07 41.353 120.142 41.273C120.222 41.185 120.262 41.037 120.262 40.829V39.677H121.126V41.393H122.482V42.233H121.126V46.745H122.386V47.585H121.186ZM124.905 39.941C124.697 39.941 124.545 39.893 124.449 39.797C124.361 39.693 124.317 39.561 124.317 39.401V39.245C124.317 39.085 124.361 38.957 124.449 38.861C124.545 38.757 124.697 38.705 124.905 38.705C125.113 38.705 125.261 38.757 125.349 38.861C125.445 38.957 125.493 39.085 125.493 39.245V39.401C125.493 39.561 125.445 39.693 125.349 39.797C125.261 39.893 125.113 39.941 124.905 39.941ZM124.425 41.393H125.385V47.585H124.425V41.393ZM128.161 42.233H127.153V41.393H128.161V40.145C128.161 39.713 128.273 39.365 128.497 39.101C128.721 38.837 129.061 38.705 129.517 38.705H130.453V39.545H129.121V41.393H132.589V47.585H131.629V42.233H129.121V47.585H128.161V42.233ZM132.109 39.941C131.901 39.941 131.749 39.893 131.653 39.797C131.565 39.693 131.521 39.561 131.521 39.401V39.245C131.521 39.085 131.565 38.957 131.653 38.861C131.749 38.757 131.901 38.705 132.109 38.705C132.317 38.705 132.465 38.757 132.553 38.861C132.649 38.957 132.697 39.085 132.697 39.245V39.401C132.697 39.561 132.649 39.693 132.553 39.797C132.465 39.893 132.317 39.941 132.109 39.941ZM135.034 38.705H135.994V44.333H136.042L136.99 43.277L138.742 41.393H139.906L137.614 43.841L140.134 47.585H138.97L136.918 44.429L135.994 45.377V47.585H135.034V38.705ZM146.204 47.585C145.844 47.585 145.584 47.489 145.424 47.297C145.272 47.105 145.176 46.865 145.136 46.577H145.076C144.94 46.961 144.716 47.249 144.404 47.441C144.092 47.633 143.72 47.729 143.288 47.729C142.632 47.729 142.12 47.561 141.752 47.225C141.392 46.889 141.212 46.433 141.212 45.857C141.212 45.273 141.424 44.825 141.848 44.513C142.28 44.201 142.948 44.045 143.852 44.045H145.076V43.433C145.076 42.993 144.956 42.657 144.716 42.425C144.476 42.193 144.108 42.077 143.612 42.077C143.236 42.077 142.92 42.161 142.664 42.329C142.416 42.497 142.208 42.721 142.04 43.001L141.464 42.461C141.632 42.125 141.9 41.841 142.268 41.609C142.636 41.369 143.1 41.249 143.66 41.249C144.412 41.249 144.996 41.433 145.412 41.801C145.828 42.169 146.036 42.681 146.036 43.337V46.745H146.744V47.585H146.204ZM143.444 46.913C143.684 46.913 143.904 46.885 144.104 46.829C144.304 46.773 144.476 46.693 144.62 46.589C144.764 46.485 144.876 46.365 144.956 46.229C145.036 46.093 145.076 45.945 145.076 45.785V44.765H143.804C143.252 44.765 142.848 44.845 142.592 45.005C142.344 45.165 142.22 45.397 142.22 45.701V45.953C142.22 46.257 142.328 46.493 142.544 46.661C142.768 46.829 143.068 46.913 143.444 46.913ZM143.804 40.565L143.18 40.277L144.2 38.237L145.076 38.657L143.804 40.565ZM150.818 47.729C150.386 47.729 149.998 47.653 149.654 47.501C149.31 47.349 149.018 47.133 148.778 46.853C148.546 46.573 148.366 46.233 148.238 45.833C148.118 45.433 148.058 44.985 148.058 44.489C148.058 43.993 148.118 43.545 148.238 43.145C148.366 42.745 148.546 42.405 148.778 42.125C149.018 41.845 149.31 41.629 149.654 41.477C149.998 41.325 150.386 41.249 150.818 41.249C151.434 41.249 151.926 41.385 152.294 41.657C152.67 41.921 152.95 42.269 153.134 42.701L152.33 43.109C152.218 42.789 152.034 42.541 151.778 42.365C151.522 42.189 151.202 42.101 150.818 42.101C150.53 42.101 150.278 42.149 150.062 42.245C149.846 42.333 149.666 42.461 149.522 42.629C149.378 42.789 149.27 42.985 149.198 43.217C149.126 43.441 149.09 43.689 149.09 43.961V45.017C149.09 45.561 149.234 46.009 149.522 46.361C149.818 46.705 150.25 46.877 150.818 46.877C151.594 46.877 152.154 46.517 152.498 45.797L153.194 46.265C152.994 46.713 152.694 47.069 152.294 47.333C151.902 47.597 151.41 47.729 150.818 47.729ZM155.429 39.941C155.221 39.941 155.069 39.893 154.973 39.797C154.885 39.693 154.841 39.561 154.841 39.401V39.245C154.841 39.085 154.885 38.957 154.973 38.861C155.069 38.757 155.221 38.705 155.429 38.705C155.637 38.705 155.785 38.757 155.873 38.861C155.969 38.957 156.017 39.085 156.017 39.245V39.401C156.017 39.561 155.969 39.693 155.873 39.797C155.785 39.893 155.637 39.941 155.429 39.941ZM154.949 41.393H155.909V47.585H154.949V41.393ZM160.677 47.729C160.253 47.729 159.869 47.653 159.525 47.501C159.189 47.349 158.897 47.133 158.649 46.853C158.409 46.565 158.221 46.225 158.085 45.833C157.957 45.433 157.893 44.985 157.893 44.489C157.893 44.001 157.957 43.557 158.085 43.157C158.221 42.757 158.409 42.417 158.649 42.137C158.897 41.849 159.189 41.629 159.525 41.477C159.869 41.325 160.253 41.249 160.677 41.249C161.093 41.249 161.465 41.325 161.793 41.477C162.121 41.629 162.401 41.841 162.633 42.113C162.865 42.377 163.041 42.693 163.161 43.061C163.289 43.429 163.353 43.833 163.353 44.273V44.729H158.901V45.017C158.901 45.281 158.941 45.529 159.021 45.761C159.109 45.985 159.229 46.181 159.381 46.349C159.541 46.517 159.733 46.649 159.957 46.745C160.189 46.841 160.449 46.889 160.737 46.889C161.129 46.889 161.469 46.797 161.757 46.613C162.053 46.429 162.281 46.165 162.441 45.821L163.125 46.313C162.925 46.737 162.613 47.081 162.189 47.345C161.765 47.601 161.261 47.729 160.677 47.729ZM160.677 42.053C160.413 42.053 160.173 42.101 159.957 42.197C159.741 42.285 159.553 42.413 159.393 42.581C159.241 42.749 159.121 42.949 159.033 43.181C158.945 43.405 158.901 43.653 158.901 43.925V44.009H162.321V43.877C162.321 43.325 162.169 42.885 161.865 42.557C161.569 42.221 161.173 42.053 160.677 42.053Z" fill="#4E4C82"/>
</g>
<g opacity="0.56">
<rect x="156.766" y="188.284" width="71.6314" height="70.6314" rx="35.3157" fill="#4E4C82" fill-opacity="0.5"/>
</g>
<g clip-path="url(#clip3)">
<path d="M169.741 220.941V212.565H173.077C173.829 212.565 174.405 212.781 174.805 213.213C175.213 213.637 175.417 214.221 175.417 214.965C175.417 215.709 175.213 216.297 174.805 216.729C174.405 217.153 173.829 217.365 173.077 217.365H170.749V220.941H169.741ZM170.749 216.477H173.077C173.477 216.477 173.785 216.373 174.001 216.165C174.225 215.957 174.337 215.661 174.337 215.277V214.653C174.337 214.269 174.225 213.973 174.001 213.765C173.785 213.557 173.477 213.453 173.077 213.453H170.749V216.477ZM179.428 221.085C179.012 221.085 178.632 221.009 178.288 220.857C177.944 220.705 177.648 220.489 177.4 220.209C177.16 219.921 176.972 219.581 176.836 219.189C176.7 218.789 176.632 218.341 176.632 217.845C176.632 217.357 176.7 216.913 176.836 216.513C176.972 216.113 177.16 215.773 177.4 215.493C177.648 215.205 177.944 214.985 178.288 214.833C178.632 214.681 179.012 214.605 179.428 214.605C179.844 214.605 180.22 214.681 180.556 214.833C180.9 214.985 181.196 215.205 181.444 215.493C181.692 215.773 181.884 216.113 182.02 216.513C182.156 216.913 182.224 217.357 182.224 217.845C182.224 218.341 182.156 218.789 182.02 219.189C181.884 219.581 181.692 219.921 181.444 220.209C181.196 220.489 180.9 220.705 180.556 220.857C180.22 221.009 179.844 221.085 179.428 221.085ZM179.428 220.233C179.948 220.233 180.372 220.073 180.7 219.753C181.028 219.433 181.192 218.945 181.192 218.289V217.401C181.192 216.745 181.028 216.257 180.7 215.937C180.372 215.617 179.948 215.457 179.428 215.457C178.908 215.457 178.484 215.617 178.156 215.937C177.828 216.257 177.664 216.745 177.664 217.401V218.289C177.664 218.945 177.828 219.433 178.156 219.753C178.484 220.073 178.908 220.233 179.428 220.233ZM188.163 219.933H188.115C187.739 220.701 187.135 221.085 186.303 221.085C185.919 221.085 185.571 221.009 185.259 220.857C184.947 220.705 184.679 220.489 184.455 220.209C184.239 219.929 184.071 219.589 183.951 219.189C183.839 218.789 183.783 218.341 183.783 217.845C183.783 217.349 183.839 216.901 183.951 216.501C184.071 216.101 184.239 215.761 184.455 215.481C184.679 215.201 184.947 214.985 185.259 214.833C185.571 214.681 185.919 214.605 186.303 214.605C186.735 214.605 187.103 214.701 187.407 214.893C187.719 215.077 187.955 215.365 188.115 215.757H188.163V212.061H189.123V220.941H188.163V219.933ZM186.567 220.221C186.783 220.221 186.987 220.193 187.179 220.137C187.379 220.081 187.551 220.001 187.695 219.897C187.839 219.785 187.951 219.653 188.031 219.501C188.119 219.341 188.163 219.161 188.163 218.961V216.657C188.163 216.489 188.119 216.333 188.031 216.189C187.951 216.037 187.839 215.909 187.695 215.805C187.551 215.701 187.379 215.621 187.179 215.565C186.987 215.501 186.783 215.469 186.567 215.469C186.023 215.469 185.595 215.641 185.283 215.985C184.971 216.321 184.815 216.765 184.815 217.317V218.373C184.815 218.925 184.971 219.373 185.283 219.717C185.595 220.053 186.023 220.221 186.567 220.221ZM191.564 214.749H192.524V215.757H192.572C192.732 215.365 192.964 215.077 193.268 214.893C193.58 214.701 193.952 214.605 194.384 214.605C194.768 214.605 195.116 214.681 195.428 214.833C195.74 214.985 196.004 215.201 196.22 215.481C196.444 215.761 196.612 216.101 196.724 216.501C196.844 216.901 196.904 217.349 196.904 217.845C196.904 218.341 196.844 218.789 196.724 219.189C196.612 219.589 196.444 219.929 196.22 220.209C196.004 220.489 195.74 220.705 195.428 220.857C195.116 221.009 194.768 221.085 194.384 221.085C193.544 221.085 192.94 220.701 192.572 219.933H192.524V223.341H191.564V214.749ZM194.12 220.221C194.664 220.221 195.092 220.053 195.404 219.717C195.716 219.373 195.872 218.925 195.872 218.373V217.317C195.872 216.765 195.716 216.321 195.404 215.985C195.092 215.641 194.664 215.469 194.12 215.469C193.904 215.469 193.696 215.501 193.496 215.565C193.304 215.621 193.136 215.701 192.992 215.805C192.848 215.909 192.732 216.037 192.644 216.189C192.564 216.333 192.524 216.489 192.524 216.657V218.961C192.524 219.161 192.564 219.341 192.644 219.501C192.732 219.653 192.848 219.785 192.992 219.897C193.136 220.001 193.304 220.081 193.496 220.137C193.696 220.193 193.904 220.221 194.12 220.221ZM201.264 221.085C200.848 221.085 200.468 221.009 200.124 220.857C199.78 220.705 199.484 220.489 199.236 220.209C198.996 219.921 198.808 219.581 198.672 219.189C198.536 218.789 198.468 218.341 198.468 217.845C198.468 217.357 198.536 216.913 198.672 216.513C198.808 216.113 198.996 215.773 199.236 215.493C199.484 215.205 199.78 214.985 200.124 214.833C200.468 214.681 200.848 214.605 201.264 214.605C201.68 214.605 202.056 214.681 202.392 214.833C202.736 214.985 203.032 215.205 203.28 215.493C203.528 215.773 203.72 216.113 203.856 216.513C203.992 216.913 204.06 217.357 204.06 217.845C204.06 218.341 203.992 218.789 203.856 219.189C203.72 219.581 203.528 219.921 203.28 220.209C203.032 220.489 202.736 220.705 202.392 220.857C202.056 221.009 201.68 221.085 201.264 221.085ZM201.264 220.233C201.784 220.233 202.208 220.073 202.536 219.753C202.864 219.433 203.028 218.945 203.028 218.289V217.401C203.028 216.745 202.864 216.257 202.536 215.937C202.208 215.617 201.784 215.457 201.264 215.457C200.744 215.457 200.32 215.617 199.992 215.937C199.664 216.257 199.5 216.745 199.5 217.401V218.289C199.5 218.945 199.664 219.433 199.992 219.753C200.32 220.073 200.744 220.233 201.264 220.233ZM206.039 220.941V214.749H206.999V215.889H207.059C207.171 215.593 207.371 215.329 207.659 215.097C207.947 214.865 208.343 214.749 208.847 214.749H209.219V215.709H208.655C208.135 215.709 207.727 215.809 207.431 216.009C207.143 216.201 206.999 216.445 206.999 216.741V220.941H206.039ZM215.299 220.941C214.939 220.941 214.679 220.845 214.519 220.653C214.367 220.461 214.271 220.221 214.231 219.933H214.171C214.035 220.317 213.811 220.605 213.499 220.797C213.187 220.989 212.815 221.085 212.383 221.085C211.727 221.085 211.215 220.917 210.847 220.581C210.487 220.245 210.307 219.789 210.307 219.213C210.307 218.629 210.519 218.181 210.943 217.869C211.375 217.557 212.043 217.401 212.947 217.401H214.171V216.789C214.171 216.349 214.051 216.013 213.811 215.781C213.571 215.549 213.203 215.433 212.707 215.433C212.331 215.433 212.015 215.517 211.759 215.685C211.511 215.853 211.303 216.077 211.135 216.357L210.559 215.817C210.727 215.481 210.995 215.197 211.363 214.965C211.731 214.725 212.195 214.605 212.755 214.605C213.507 214.605 214.091 214.789 214.507 215.157C214.923 215.525 215.131 216.037 215.131 216.693V220.101H215.839V220.941H215.299ZM212.539 220.269C212.779 220.269 212.999 220.241 213.199 220.185C213.399 220.129 213.571 220.049 213.715 219.945C213.859 219.841 213.971 219.721 214.051 219.585C214.131 219.449 214.171 219.301 214.171 219.141V218.121H212.899C212.347 218.121 211.943 218.201 211.687 218.361C211.439 218.521 211.315 218.753 211.315 219.057V219.309C211.315 219.613 211.423 219.849 211.639 220.017C211.863 220.185 212.163 220.269 212.539 220.269ZM185.583 236.941V228.565H190.695V229.453H186.591V232.261H190.455V233.149H186.591V236.053H190.695V236.941H185.583ZM195.007 231.829L193.999 229.969H193.963V236.941H192.979V228.565H194.143L197.203 233.677L198.211 235.537H198.247V228.565H199.231V236.941H198.067L195.007 231.829Z" fill="white"/>
</g>
<g opacity="0.24">
<rect x="91.447" y="142.9" width="58.7129" height="58.7129" rx="29.3565" fill="#4E4C82" fill-opacity="0.5"/>
</g>
<g clip-path="url(#clip4)">
<path d="M105.842 162.781L104.834 160.921H104.798V167.893H103.814V159.517H104.978L108.038 164.629L109.046 166.489H109.082V159.517H110.066V167.893H108.902L105.842 162.781ZM114.943 168.037C114.527 168.037 114.147 167.961 113.803 167.809C113.459 167.657 113.163 167.441 112.915 167.161C112.675 166.873 112.487 166.533 112.351 166.141C112.215 165.741 112.147 165.293 112.147 164.797C112.147 164.309 112.215 163.865 112.351 163.465C112.487 163.065 112.675 162.725 112.915 162.445C113.163 162.157 113.459 161.937 113.803 161.785C114.147 161.633 114.527 161.557 114.943 161.557C115.359 161.557 115.735 161.633 116.071 161.785C116.415 161.937 116.711 162.157 116.959 162.445C117.207 162.725 117.399 163.065 117.535 163.465C117.671 163.865 117.739 164.309 117.739 164.797C117.739 165.293 117.671 165.741 117.535 166.141C117.399 166.533 117.207 166.873 116.959 167.161C116.711 167.441 116.415 167.657 116.071 167.809C115.735 167.961 115.359 168.037 114.943 168.037ZM114.943 167.185C115.463 167.185 115.887 167.025 116.215 166.705C116.543 166.385 116.707 165.897 116.707 165.241V164.353C116.707 163.697 116.543 163.209 116.215 162.889C115.887 162.569 115.463 162.409 114.943 162.409C114.423 162.409 113.999 162.569 113.671 162.889C113.343 163.209 113.179 163.697 113.179 164.353V165.241C113.179 165.897 113.343 166.385 113.671 166.705C113.999 167.025 114.423 167.185 114.943 167.185ZM122.021 168.037C121.589 168.037 121.201 167.961 120.857 167.809C120.513 167.657 120.221 167.441 119.981 167.161C119.749 166.881 119.569 166.541 119.441 166.141C119.321 165.741 119.261 165.293 119.261 164.797C119.261 164.301 119.321 163.853 119.441 163.453C119.569 163.053 119.749 162.713 119.981 162.433C120.221 162.153 120.513 161.937 120.857 161.785C121.201 161.633 121.589 161.557 122.021 161.557C122.637 161.557 123.129 161.693 123.497 161.965C123.873 162.229 124.153 162.577 124.337 163.009L123.533 163.417C123.421 163.097 123.237 162.849 122.981 162.673C122.725 162.497 122.405 162.409 122.021 162.409C121.733 162.409 121.481 162.457 121.265 162.553C121.049 162.641 120.869 162.769 120.725 162.937C120.581 163.097 120.473 163.293 120.401 163.525C120.329 163.749 120.293 163.997 120.293 164.269V165.325C120.293 165.869 120.437 166.317 120.725 166.669C121.021 167.013 121.453 167.185 122.021 167.185C122.797 167.185 123.357 166.825 123.701 166.105L124.397 166.573C124.197 167.021 123.897 167.377 123.497 167.641C123.105 167.905 122.613 168.037 122.021 168.037ZM121.421 160.705L120.089 158.989L120.617 158.617L122.021 160.021L123.425 158.617L123.953 158.989L122.621 160.705H121.421ZM126.153 167.893V161.701H127.113V162.709H127.161C127.313 162.357 127.525 162.077 127.797 161.869C128.077 161.661 128.449 161.557 128.913 161.557C129.553 161.557 130.057 161.765 130.425 162.181C130.801 162.589 130.989 163.169 130.989 163.921V167.893H130.029V164.089C130.029 162.977 129.561 162.421 128.625 162.421C128.433 162.421 128.245 162.445 128.061 162.493C127.885 162.541 127.725 162.613 127.581 162.709C127.437 162.805 127.321 162.929 127.233 163.081C127.153 163.225 127.113 163.397 127.113 163.597V167.893H126.153ZM135.701 168.037C135.277 168.037 134.893 167.961 134.549 167.809C134.213 167.657 133.921 167.441 133.673 167.161C133.433 166.873 133.245 166.533 133.109 166.141C132.981 165.741 132.917 165.293 132.917 164.797C132.917 164.309 132.981 163.865 133.109 163.465C133.245 163.065 133.433 162.725 133.673 162.445C133.921 162.157 134.213 161.937 134.549 161.785C134.893 161.633 135.277 161.557 135.701 161.557C136.117 161.557 136.489 161.633 136.817 161.785C137.145 161.937 137.425 162.149 137.657 162.421C137.889 162.685 138.065 163.001 138.185 163.369C138.313 163.737 138.377 164.141 138.377 164.581V165.037H133.925V165.325C133.925 165.589 133.965 165.837 134.045 166.069C134.133 166.293 134.253 166.489 134.405 166.657C134.565 166.825 134.757 166.957 134.981 167.053C135.213 167.149 135.473 167.197 135.761 167.197C136.153 167.197 136.493 167.105 136.781 166.921C137.077 166.737 137.305 166.473 137.465 166.129L138.149 166.621C137.949 167.045 137.637 167.389 137.213 167.653C136.789 167.909 136.285 168.037 135.701 168.037ZM135.701 162.361C135.437 162.361 135.197 162.409 134.981 162.505C134.765 162.593 134.577 162.721 134.417 162.889C134.265 163.057 134.145 163.257 134.057 163.489C133.969 163.713 133.925 163.961 133.925 164.233V164.317H137.345V164.185C137.345 163.633 137.193 163.193 136.889 162.865C136.593 162.529 136.197 162.361 135.701 162.361ZM135.797 160.873L135.173 160.585L136.193 158.545L137.069 158.965L135.797 160.873ZM105.641 175.517V180.701C105.641 181.501 105.789 182.109 106.085 182.525C106.381 182.933 106.901 183.137 107.645 183.137C108.389 183.137 108.909 182.933 109.205 182.525C109.501 182.109 109.649 181.501 109.649 180.701V175.517H110.657V180.461C110.657 181.069 110.601 181.597 110.489 182.045C110.385 182.493 110.213 182.865 109.973 183.161C109.733 183.457 109.417 183.677 109.025 183.821C108.641 183.965 108.169 184.037 107.609 184.037C107.049 184.037 106.577 183.965 106.193 183.821C105.817 183.677 105.513 183.457 105.281 183.161C105.049 182.865 104.881 182.493 104.777 182.045C104.681 181.597 104.633 181.069 104.633 180.461V175.517H105.641ZM107.705 174.833L107.081 174.545L108.101 172.505L108.977 172.925L107.705 174.833ZM114.99 184.037C114.414 184.037 113.93 183.929 113.538 183.713C113.154 183.489 112.822 183.193 112.542 182.825L113.226 182.273C113.466 182.577 113.734 182.813 114.03 182.981C114.326 183.141 114.67 183.221 115.062 183.221C115.47 183.221 115.786 183.133 116.01 182.957C116.242 182.781 116.358 182.533 116.358 182.213C116.358 181.973 116.278 181.769 116.118 181.601C115.966 181.425 115.686 181.305 115.278 181.241L114.786 181.169C114.498 181.129 114.234 181.069 113.994 180.989C113.754 180.901 113.542 180.789 113.358 180.653C113.182 180.509 113.042 180.333 112.938 180.125C112.842 179.917 112.794 179.669 112.794 179.381C112.794 179.077 112.85 178.813 112.962 178.589C113.074 178.357 113.226 178.165 113.418 178.013C113.618 177.861 113.854 177.749 114.126 177.677C114.398 177.597 114.69 177.557 115.002 177.557C115.506 177.557 115.926 177.645 116.262 177.821C116.606 177.997 116.906 178.241 117.162 178.553L116.526 179.129C116.39 178.937 116.19 178.765 115.926 178.613C115.662 178.453 115.33 178.373 114.93 178.373C114.53 178.373 114.226 178.461 114.018 178.637C113.818 178.805 113.718 179.037 113.718 179.333C113.718 179.637 113.818 179.857 114.018 179.993C114.226 180.129 114.522 180.229 114.906 180.293L115.386 180.365C116.074 180.469 116.562 180.669 116.85 180.965C117.138 181.253 117.282 181.633 117.282 182.105C117.282 182.705 117.078 183.177 116.67 183.521C116.262 183.865 115.702 184.037 114.99 184.037ZM121.706 184.037C121.282 184.037 120.898 183.961 120.554 183.809C120.218 183.657 119.926 183.441 119.678 183.161C119.438 182.873 119.25 182.533 119.114 182.141C118.986 181.741 118.922 181.293 118.922 180.797C118.922 180.309 118.986 179.865 119.114 179.465C119.25 179.065 119.438 178.725 119.678 178.445C119.926 178.157 120.218 177.937 120.554 177.785C120.898 177.633 121.282 177.557 121.706 177.557C122.122 177.557 122.494 177.633 122.822 177.785C123.15 177.937 123.43 178.149 123.662 178.421C123.894 178.685 124.07 179.001 124.19 179.369C124.318 179.737 124.382 180.141 124.382 180.581V181.037H119.93V181.325C119.93 181.589 119.97 181.837 120.05 182.069C120.138 182.293 120.258 182.489 120.41 182.657C120.57 182.825 120.762 182.957 120.986 183.053C121.218 183.149 121.478 183.197 121.766 183.197C122.158 183.197 122.498 183.105 122.786 182.921C123.082 182.737 123.31 182.473 123.47 182.129L124.154 182.621C123.954 183.045 123.642 183.389 123.218 183.653C122.794 183.909 122.29 184.037 121.706 184.037ZM121.706 178.361C121.442 178.361 121.202 178.409 120.986 178.505C120.77 178.593 120.582 178.721 120.422 178.889C120.27 179.057 120.15 179.257 120.062 179.489C119.974 179.713 119.93 179.961 119.93 180.233V180.317H123.35V180.185C123.35 179.633 123.198 179.193 122.894 178.865C122.598 178.529 122.202 178.361 121.706 178.361ZM126.363 175.013H127.323V180.641H127.371L128.319 179.585L130.071 177.701H131.235L128.943 180.149L131.463 183.893H130.299L128.247 180.737L127.323 181.685V183.893H126.363V175.013ZM136.908 177.701H137.856L135.084 185.333C135.012 185.517 134.94 185.669 134.868 185.789C134.796 185.917 134.708 186.017 134.604 186.089C134.5 186.161 134.368 186.213 134.208 186.245C134.056 186.277 133.868 186.293 133.644 186.293H133.152V185.453H134.124L134.592 184.133L132.276 177.701H133.236L134.724 181.913L135.012 182.921H135.072L135.408 181.913L136.908 177.701Z" fill="#4E4C82"/>
</g>
<g opacity="0.56">
<rect x="143.702" y="84.5479" width="51.3938" height="52.3938" rx="25.6969" fill="#4E4C82" fill-opacity="0.5"/>
</g>
<g clip-path="url(#clip5)">
<path d="M163.303 107.72V115.208H162.295V107.72H159.631V106.832H165.967V107.72H163.303ZM167.654 115.208V109.016H168.614V115.208H167.654ZM168.23 108.188L167.606 107.9L168.626 105.86L169.502 106.28L168.23 108.188ZM171.054 115.208V109.016H172.014V110.024H172.062C172.134 109.864 172.214 109.716 172.302 109.58C172.398 109.436 172.51 109.312 172.638 109.208C172.774 109.104 172.93 109.024 173.106 108.968C173.282 108.904 173.49 108.872 173.73 108.872C174.138 108.872 174.514 108.972 174.858 109.172C175.202 109.364 175.458 109.684 175.626 110.132H175.65C175.762 109.796 175.97 109.504 176.274 109.256C176.586 109 177.006 108.872 177.534 108.872C178.166 108.872 178.658 109.08 179.01 109.496C179.37 109.904 179.55 110.484 179.55 111.236V115.208H178.59V111.404C178.59 110.852 178.482 110.436 178.266 110.156C178.05 109.876 177.706 109.736 177.234 109.736C177.042 109.736 176.858 109.76 176.682 109.808C176.514 109.856 176.362 109.928 176.226 110.024C176.09 110.12 175.982 110.244 175.902 110.396C175.822 110.54 175.782 110.712 175.782 110.912V115.208H174.822V111.404C174.822 110.852 174.714 110.436 174.498 110.156C174.282 109.876 173.946 109.736 173.49 109.736C173.298 109.736 173.114 109.76 172.938 109.808C172.762 109.856 172.606 109.928 172.47 110.024C172.334 110.12 172.222 110.244 172.134 110.396C172.054 110.54 172.014 110.712 172.014 110.912V115.208H171.054Z" fill="white"/>
</g>
<g opacity="0.56">
<rect x="182.894" y="39.1631" width="45.7945" height="45.0746" rx="22.5373" fill="#4E4C82" fill-opacity="0.5"/>
</g>
<g clip-path="url(#clip6)">
<path d="M193.937 66.6342C193.257 66.6342 192.677 66.5062 192.197 66.2502C191.717 65.9862 191.309 65.6262 190.973 65.1702L191.717 64.5462C192.013 64.9382 192.341 65.2382 192.701 65.4462C193.061 65.6462 193.485 65.7462 193.973 65.7462C194.573 65.7462 195.029 65.6022 195.341 65.3142C195.661 65.0262 195.821 64.6422 195.821 64.1622C195.821 63.7622 195.701 63.4542 195.461 63.2382C195.221 63.0222 194.825 62.8502 194.273 62.7222L193.589 62.5662C192.821 62.3902 192.233 62.1262 191.825 61.7742C191.425 61.4142 191.225 60.9102 191.225 60.2622C191.225 59.8942 191.293 59.5662 191.429 59.2782C191.565 58.9902 191.753 58.7502 191.993 58.5582C192.241 58.3662 192.533 58.2222 192.869 58.1262C193.213 58.0222 193.589 57.9702 193.997 57.9702C194.629 57.9702 195.169 58.0862 195.617 58.3182C196.073 58.5502 196.457 58.8902 196.769 59.3382L196.013 59.8902C195.781 59.5702 195.501 59.3182 195.173 59.1342C194.845 58.9502 194.437 58.8582 193.949 58.8582C193.413 58.8582 192.989 58.9742 192.677 59.2062C192.373 59.4302 192.221 59.7702 192.221 60.2262C192.221 60.6262 192.349 60.9302 192.605 61.1382C192.869 61.3382 193.265 61.4982 193.793 61.6182L194.477 61.7742C195.301 61.9582 195.897 62.2382 196.265 62.6142C196.633 62.9902 196.817 63.4902 196.817 64.1142C196.817 64.4982 196.749 64.8462 196.613 65.1582C196.485 65.4702 196.297 65.7342 196.049 65.9502C195.801 66.1662 195.497 66.3342 195.137 66.4542C194.785 66.5742 194.385 66.6342 193.937 66.6342ZM193.337 57.2622L192.005 55.5462L192.533 55.1742L193.937 56.5782L195.341 55.1742L195.869 55.5462L194.537 57.2622H193.337ZM201.202 66.6342C200.786 66.6342 200.406 66.5582 200.062 66.4062C199.718 66.2542 199.422 66.0382 199.174 65.7582C198.934 65.4702 198.746 65.1302 198.61 64.7382C198.474 64.3382 198.406 63.8902 198.406 63.3942C198.406 62.9062 198.474 62.4622 198.61 62.0622C198.746 61.6622 198.934 61.3222 199.174 61.0422C199.422 60.7542 199.718 60.5342 200.062 60.3822C200.406 60.2302 200.786 60.1542 201.202 60.1542C201.618 60.1542 201.994 60.2302 202.33 60.3822C202.674 60.5342 202.97 60.7542 203.218 61.0422C203.466 61.3222 203.658 61.6622 203.794 62.0622C203.93 62.4622 203.998 62.9062 203.998 63.3942C203.998 63.8902 203.93 64.3382 203.794 64.7382C203.658 65.1302 203.466 65.4702 203.218 65.7582C202.97 66.0382 202.674 66.2542 202.33 66.4062C201.994 66.5582 201.618 66.6342 201.202 66.6342ZM201.202 65.7822C201.722 65.7822 202.146 65.6222 202.474 65.3022C202.802 64.9822 202.966 64.4942 202.966 63.8382V62.9502C202.966 62.2942 202.802 61.8062 202.474 61.4862C202.146 61.1662 201.722 61.0062 201.202 61.0062C200.682 61.0062 200.258 61.1662 199.93 61.4862C199.602 61.8062 199.438 62.2942 199.438 62.9502V63.8382C199.438 64.4942 199.602 64.9822 199.93 65.3022C200.258 65.6222 200.682 65.7822 201.202 65.7822ZM206.242 61.1382H205.234V60.2982H206.242V59.0502C206.242 58.6182 206.354 58.2702 206.578 58.0062C206.802 57.7422 207.142 57.6102 207.598 57.6102H208.534V58.4502H207.202V60.2982H208.534V61.1382H207.202V66.4902H206.242V61.1382ZM212.478 66.6342C212.054 66.6342 211.67 66.5582 211.326 66.4062C210.99 66.2542 210.698 66.0382 210.45 65.7582C210.21 65.4702 210.022 65.1302 209.886 64.7382C209.758 64.3382 209.694 63.8902 209.694 63.3942C209.694 62.9062 209.758 62.4622 209.886 62.0622C210.022 61.6622 210.21 61.3222 210.45 61.0422C210.698 60.7542 210.99 60.5342 211.326 60.3822C211.67 60.2302 212.054 60.1542 212.478 60.1542C212.894 60.1542 213.266 60.2302 213.594 60.3822C213.922 60.5342 214.202 60.7462 214.434 61.0182C214.666 61.2822 214.842 61.5982 214.962 61.9662C215.09 62.3342 215.154 62.7382 215.154 63.1782V63.6342H210.702V63.9222C210.702 64.1862 210.742 64.4342 210.822 64.6662C210.91 64.8902 211.03 65.0862 211.182 65.2542C211.342 65.4222 211.534 65.5542 211.758 65.6502C211.99 65.7462 212.25 65.7942 212.538 65.7942C212.93 65.7942 213.27 65.7022 213.558 65.5182C213.854 65.3342 214.082 65.0702 214.242 64.7262L214.926 65.2182C214.726 65.6422 214.414 65.9862 213.99 66.2502C213.566 66.5062 213.062 66.6342 212.478 66.6342ZM212.478 60.9582C212.214 60.9582 211.974 61.0062 211.758 61.1022C211.542 61.1902 211.354 61.3182 211.194 61.4862C211.042 61.6542 210.922 61.8542 210.834 62.0862C210.746 62.3102 210.702 62.5582 210.702 62.8302V62.9142H214.122V62.7822C214.122 62.2302 213.97 61.7902 213.666 61.4622C213.37 61.1262 212.974 60.9582 212.478 60.9582ZM212.574 59.4702L211.95 59.1822L212.97 57.1422L213.846 57.5622L212.574 59.4702ZM217.136 66.4902V60.2982H218.096V61.4382H218.156C218.268 61.1422 218.468 60.8782 218.756 60.6462C219.044 60.4142 219.44 60.2982 219.944 60.2982H220.316V61.2582H219.752C219.232 61.2582 218.824 61.3582 218.528 61.5582C218.24 61.7502 218.096 61.9942 218.096 62.2902V66.4902H217.136Z" fill="white"/>
</g>
<rect x="202.489" y="78.0654" width="105.507" height="103.788" rx="51.8938" fill="#4E4C82"/>
<g clip-path="url(#clip7)">
<path d="M223.118 133.161H223.082C222.978 133.553 222.722 133.881 222.314 134.145C221.914 134.401 221.394 134.529 220.754 134.529C220.242 134.529 219.77 134.437 219.338 134.253C218.914 134.061 218.55 133.785 218.246 133.425C217.942 133.057 217.702 132.605 217.526 132.069C217.358 131.525 217.274 130.901 217.274 130.197C217.274 129.501 217.358 128.885 217.526 128.349C217.694 127.805 217.934 127.353 218.246 126.993C218.558 126.625 218.934 126.345 219.374 126.153C219.814 125.961 220.302 125.865 220.838 125.865C221.59 125.865 222.218 126.033 222.722 126.369C223.226 126.705 223.614 127.149 223.886 127.701L223.058 128.205C222.866 127.757 222.578 127.405 222.194 127.149C221.818 126.893 221.366 126.765 220.838 126.765C220.47 126.765 220.134 126.833 219.83 126.969C219.526 127.097 219.262 127.281 219.038 127.521C218.822 127.761 218.654 128.049 218.534 128.385C218.414 128.721 218.354 129.097 218.354 129.513V130.869C218.354 131.285 218.414 131.665 218.534 132.009C218.654 132.345 218.822 132.633 219.038 132.873C219.262 133.113 219.534 133.301 219.854 133.437C220.174 133.565 220.534 133.629 220.934 133.629C221.222 133.629 221.494 133.593 221.75 133.521C222.014 133.441 222.242 133.325 222.434 133.173C222.634 133.021 222.79 132.833 222.902 132.609C223.014 132.377 223.07 132.105 223.07 131.793V130.965H221.222V130.077H224.054V134.385H223.118V133.161ZM226.437 134.385V126.009H229.773C230.525 126.009 231.101 126.225 231.501 126.657C231.909 127.081 232.113 127.665 232.113 128.409C232.113 129.153 231.909 129.741 231.501 130.173C231.101 130.597 230.525 130.809 229.773 130.809H227.445V134.385H226.437ZM227.445 129.921H229.773C230.173 129.921 230.481 129.817 230.697 129.609C230.921 129.401 231.033 129.105 231.033 128.721V128.097C231.033 127.713 230.921 127.417 230.697 127.209C230.481 127.001 230.173 126.897 229.773 126.897H227.445V129.921ZM236.467 134.529C235.787 134.529 235.207 134.401 234.727 134.145C234.247 133.881 233.839 133.521 233.503 133.065L234.247 132.441C234.543 132.833 234.871 133.133 235.231 133.341C235.591 133.541 236.015 133.641 236.503 133.641C237.103 133.641 237.559 133.497 237.871 133.209C238.191 132.921 238.351 132.537 238.351 132.057C238.351 131.657 238.231 131.349 237.991 131.133C237.751 130.917 237.355 130.745 236.803 130.617L236.119 130.461C235.351 130.285 234.763 130.021 234.355 129.669C233.955 129.309 233.755 128.805 233.755 128.157C233.755 127.789 233.823 127.461 233.959 127.173C234.095 126.885 234.283 126.645 234.523 126.453C234.771 126.261 235.063 126.117 235.399 126.021C235.743 125.917 236.119 125.865 236.527 125.865C237.159 125.865 237.699 125.981 238.147 126.213C238.603 126.445 238.987 126.785 239.299 127.233L238.543 127.785C238.311 127.465 238.031 127.213 237.703 127.029C237.375 126.845 236.967 126.753 236.479 126.753C235.943 126.753 235.519 126.869 235.207 127.101C234.903 127.325 234.751 127.665 234.751 128.121C234.751 128.521 234.879 128.825 235.135 129.033C235.399 129.233 235.795 129.393 236.323 129.513L237.007 129.669C237.831 129.853 238.427 130.133 238.795 130.509C239.163 130.885 239.347 131.385 239.347 132.009C239.347 132.393 239.279 132.741 239.143 133.053C239.015 133.365 238.827 133.629 238.579 133.845C238.331 134.061 238.027 134.229 237.667 134.349C237.315 134.469 236.915 134.529 236.467 134.529ZM247.543 126.897V134.385H246.535V126.897H243.871V126.009H250.207V126.897H247.543ZM251.355 134.385V128.193H252.315V129.333H252.375C252.487 129.037 252.687 128.773 252.975 128.541C253.263 128.309 253.659 128.193 254.163 128.193H254.535V129.153H253.971C253.451 129.153 253.043 129.253 252.747 129.453C252.459 129.645 252.315 129.889 252.315 130.185V134.385H251.355ZM260.615 134.385C260.255 134.385 259.995 134.289 259.835 134.097C259.683 133.905 259.587 133.665 259.547 133.377H259.487C259.351 133.761 259.127 134.049 258.815 134.241C258.503 134.433 258.131 134.529 257.699 134.529C257.043 134.529 256.531 134.361 256.163 134.025C255.803 133.689 255.623 133.233 255.623 132.657C255.623 132.073 255.835 131.625 256.259 131.313C256.691 131.001 257.359 130.845 258.263 130.845H259.487V130.233C259.487 129.793 259.367 129.457 259.127 129.225C258.887 128.993 258.519 128.877 258.023 128.877C257.647 128.877 257.331 128.961 257.075 129.129C256.827 129.297 256.619 129.521 256.451 129.801L255.875 129.261C256.043 128.925 256.311 128.641 256.679 128.409C257.047 128.169 257.511 128.049 258.071 128.049C258.823 128.049 259.407 128.233 259.823 128.601C260.239 128.969 260.447 129.481 260.447 130.137V133.545H261.155V134.385H260.615ZM257.855 133.713C258.095 133.713 258.315 133.685 258.515 133.629C258.715 133.573 258.887 133.493 259.031 133.389C259.175 133.285 259.287 133.165 259.367 133.029C259.447 132.893 259.487 132.745 259.487 132.585V131.565H258.215C257.663 131.565 257.259 131.645 257.003 131.805C256.755 131.965 256.631 132.197 256.631 132.501V132.753C256.631 133.057 256.739 133.293 256.955 133.461C257.179 133.629 257.479 133.713 257.855 133.713ZM265.229 134.529C264.797 134.529 264.409 134.453 264.065 134.301C263.721 134.149 263.429 133.933 263.189 133.653C262.957 133.373 262.777 133.033 262.649 132.633C262.529 132.233 262.469 131.785 262.469 131.289C262.469 130.793 262.529 130.345 262.649 129.945C262.777 129.545 262.957 129.205 263.189 128.925C263.429 128.645 263.721 128.429 264.065 128.277C264.409 128.125 264.797 128.049 265.229 128.049C265.845 128.049 266.337 128.185 266.705 128.457C267.081 128.721 267.361 129.069 267.545 129.501L266.741 129.909C266.629 129.589 266.445 129.341 266.189 129.165C265.933 128.989 265.613 128.901 265.229 128.901C264.941 128.901 264.689 128.949 264.473 129.045C264.257 129.133 264.077 129.261 263.933 129.429C263.789 129.589 263.681 129.785 263.609 130.017C263.537 130.241 263.501 130.489 263.501 130.761V131.817C263.501 132.361 263.645 132.809 263.933 133.161C264.229 133.505 264.661 133.677 265.229 133.677C266.005 133.677 266.565 133.317 266.909 132.597L267.605 133.065C267.405 133.513 267.105 133.869 266.705 134.133C266.313 134.397 265.821 134.529 265.229 134.529ZM269.36 125.505H270.32V131.133H270.368L271.316 130.077L273.068 128.193H274.232L271.94 130.641L274.46 134.385H273.296L271.244 131.229L270.32 132.177V134.385H269.36V125.505ZM276.568 126.741C276.36 126.741 276.208 126.693 276.112 126.597C276.024 126.493 275.98 126.361 275.98 126.201V126.045C275.98 125.885 276.024 125.757 276.112 125.661C276.208 125.557 276.36 125.505 276.568 125.505C276.776 125.505 276.924 125.557 277.012 125.661C277.108 125.757 277.156 125.885 277.156 126.045V126.201C277.156 126.361 277.108 126.493 277.012 126.597C276.924 126.693 276.776 126.741 276.568 126.741ZM276.088 128.193H277.048V134.385H276.088V128.193ZM279.488 134.385V128.193H280.448V129.201H280.496C280.648 128.849 280.86 128.569 281.132 128.361C281.412 128.153 281.784 128.049 282.248 128.049C282.888 128.049 283.392 128.257 283.76 128.673C284.136 129.081 284.324 129.661 284.324 130.413V134.385H283.364V130.581C283.364 129.469 282.896 128.913 281.96 128.913C281.768 128.913 281.58 128.937 281.396 128.985C281.22 129.033 281.06 129.105 280.916 129.201C280.772 129.297 280.656 129.421 280.568 129.573C280.488 129.717 280.448 129.889 280.448 130.089V134.385H279.488ZM291.929 135.069C291.929 135.709 291.677 136.177 291.173 136.473C290.677 136.777 289.929 136.929 288.929 136.929C287.961 136.929 287.265 136.797 286.841 136.533C286.417 136.269 286.205 135.893 286.205 135.405C286.205 135.069 286.293 134.805 286.469 134.613C286.645 134.429 286.885 134.293 287.189 134.205V134.073C286.821 133.897 286.637 133.609 286.637 133.209C286.637 132.897 286.737 132.661 286.937 132.501C287.137 132.333 287.393 132.209 287.705 132.129V132.081C287.337 131.905 287.049 131.653 286.841 131.325C286.641 130.997 286.541 130.617 286.541 130.185C286.541 129.873 286.597 129.585 286.709 129.321C286.821 129.057 286.977 128.833 287.177 128.649C287.385 128.457 287.629 128.309 287.909 128.205C288.197 128.101 288.517 128.049 288.869 128.049C289.309 128.049 289.701 128.129 290.045 128.289V128.181C290.045 127.941 290.101 127.745 290.213 127.593C290.325 127.433 290.509 127.353 290.765 127.353H291.689V128.193H290.513V128.589C290.737 128.781 290.909 129.013 291.029 129.285C291.157 129.549 291.221 129.849 291.221 130.185C291.221 130.497 291.165 130.785 291.053 131.049C290.941 131.313 290.781 131.541 290.573 131.733C290.373 131.917 290.129 132.061 289.841 132.165C289.553 132.269 289.233 132.321 288.881 132.321C288.681 132.321 288.481 132.301 288.281 132.261C288.073 132.317 287.885 132.401 287.717 132.513C287.549 132.617 287.465 132.765 287.465 132.957C287.465 133.141 287.553 133.265 287.729 133.329C287.905 133.393 288.133 133.425 288.413 133.425H289.733C290.501 133.425 291.057 133.573 291.401 133.869C291.753 134.157 291.929 134.557 291.929 135.069ZM291.029 135.141C291.029 134.893 290.933 134.693 290.741 134.541C290.557 134.397 290.225 134.325 289.745 134.325H287.681C287.297 134.501 287.105 134.781 287.105 135.165C287.105 135.437 287.205 135.669 287.405 135.861C287.613 136.053 287.961 136.149 288.449 136.149H289.337C289.873 136.149 290.289 136.065 290.585 135.897C290.881 135.729 291.029 135.477 291.029 135.141ZM288.881 131.553C289.289 131.553 289.613 131.457 289.853 131.265C290.093 131.065 290.213 130.761 290.213 130.353V130.017C290.213 129.609 290.093 129.309 289.853 129.117C289.613 128.917 289.289 128.817 288.881 128.817C288.473 128.817 288.149 128.917 287.909 129.117C287.669 129.309 287.549 129.609 287.549 130.017V130.353C287.549 130.761 287.669 131.065 287.909 131.265C288.149 131.457 288.473 131.553 288.881 131.553Z" fill="white"/>
</g>
<g opacity="0.24">
<rect x="91.447" y="91.0322" width="45.7945" height="45.0746" rx="22.5373" fill="#4E4C82" fill-opacity="0.5"/>
</g>
<g clip-path="url(#clip8)">
<path d="M99.5469 118.359V109.983H104.539V110.871H100.555V113.679H104.191V114.567H100.555V118.359H99.5469ZM108.589 118.503C108.173 118.503 107.793 118.427 107.449 118.275C107.105 118.123 106.809 117.907 106.561 117.627C106.321 117.339 106.133 116.999 105.997 116.607C105.861 116.207 105.793 115.759 105.793 115.263C105.793 114.775 105.861 114.331 105.997 113.931C106.133 113.531 106.321 113.191 106.561 112.911C106.809 112.623 107.105 112.403 107.449 112.251C107.793 112.099 108.173 112.023 108.589 112.023C109.005 112.023 109.381 112.099 109.717 112.251C110.061 112.403 110.357 112.623 110.605 112.911C110.853 113.191 111.045 113.531 111.181 113.931C111.317 114.331 111.385 114.775 111.385 115.263C111.385 115.759 111.317 116.207 111.181 116.607C111.045 116.999 110.853 117.339 110.605 117.627C110.357 117.907 110.061 118.123 109.717 118.275C109.381 118.427 109.005 118.503 108.589 118.503ZM108.589 117.651C109.109 117.651 109.533 117.491 109.861 117.171C110.189 116.851 110.353 116.363 110.353 115.707V114.819C110.353 114.163 110.189 113.675 109.861 113.355C109.533 113.035 109.109 112.875 108.589 112.875C108.069 112.875 107.645 113.035 107.317 113.355C106.989 113.675 106.825 114.163 106.825 114.819V115.707C106.825 116.363 106.989 116.851 107.317 117.171C107.645 117.491 108.069 117.651 108.589 117.651ZM114.732 118.359C114.396 118.359 114.14 118.267 113.964 118.083C113.796 117.891 113.712 117.643 113.712 117.339V113.007H112.692V112.167H113.268C113.476 112.167 113.616 112.127 113.688 112.047C113.768 111.959 113.808 111.811 113.808 111.603V110.451H114.672V112.167H116.028V113.007H114.672V117.519H115.932V118.359H114.732ZM117.971 109.479H118.931V115.107H118.979L119.927 114.051L121.679 112.167H122.843L120.551 114.615L123.071 118.359H121.907L119.855 115.203L118.931 116.151V118.359H117.971V109.479ZM128.515 112.167H129.463L126.691 119.799C126.619 119.983 126.547 120.135 126.475 120.255C126.403 120.383 126.315 120.483 126.211 120.555C126.107 120.627 125.975 120.679 125.815 120.711C125.663 120.743 125.475 120.759 125.251 120.759H124.759V119.919H125.731L126.199 118.599L123.883 112.167H124.843L126.331 116.379L126.619 117.387H126.679L127.015 116.379L128.515 112.167Z" fill="#4E4C82"/>
</g>
<defs>
<clipPath id="clip0">
<rect width="64.4817" height="64.0039" fill="white" transform="translate(16.7485 133.591)"/>
</clipPath>
<clipPath id="clip1">
<rect width="76.2056" height="75.6409" fill="white" transform="translate(4.35449 43.4854)"/>
</clipPath>
<clipPath id="clip2">
<rect width="76.2057" height="75.641" fill="white" transform="translate(95.8015 4.58496)"/>
</clipPath>
<clipPath id="clip3">
<rect width="64.4817" height="64.0039" fill="white" transform="translate(160.451 191.941)"/>
</clipPath>
<clipPath id="clip4">
<rect width="52.7578" height="52.3668" fill="white" transform="translate(94.4617 145.893)"/>
</clipPath>
<clipPath id="clip5">
<rect width="46.8958" height="46.5483" fill="white" transform="translate(146.382 87.208)"/>
</clipPath>
<clipPath id="clip6">
<rect width="41.0338" height="40.7298" fill="white" transform="translate(185.238 41.4902)"/>
</clipPath>
<clipPath id="clip7">
<rect width="93.7916" height="93.0965" fill="white" transform="translate(207.849 83.3848)"/>
</clipPath>
<clipPath id="clip8">
<rect width="41.0338" height="40.7297" fill="white" transform="translate(93.7917 93.3594)"/>
</clipPath>
</defs>
</svg>
