<svg width="354" height="299" viewBox="0 0 354 299" fill="none" xmlns="http://www.w3.org/2000/svg">
<g opacity="0.56">
<rect x="15.0115" y="149.264" width="82.6314" height="81.6314" rx="40.8157" fill="#4E4C82" fill-opacity="0.5"/>
</g>
<g clip-path="url(#clip0)">
<path d="M36.3326 195.466H30.2366V194.554L35.0726 187.978H30.4886V187.09H36.1646V188.002L31.3166 194.578H36.3326V195.466ZM42.1455 194.458H42.0975C41.7215 195.226 41.1175 195.61 40.2855 195.61C39.9015 195.61 39.5535 195.534 39.2415 195.382C38.9295 195.23 38.6615 195.014 38.4375 194.734C38.2215 194.454 38.0535 194.114 37.9335 193.714C37.8215 193.314 37.7655 192.866 37.7655 192.37C37.7655 191.874 37.8215 191.426 37.9335 191.026C38.0535 190.626 38.2215 190.286 38.4375 190.006C38.6615 189.726 38.9295 189.51 39.2415 189.358C39.5535 189.206 39.9015 189.13 40.2855 189.13C40.7175 189.13 41.0855 189.226 41.3895 189.418C41.7015 189.602 41.9375 189.89 42.0975 190.282H42.1455V186.586H43.1055V195.466H42.1455V194.458ZM40.5495 194.746C40.7655 194.746 40.9695 194.718 41.1615 194.662C41.3615 194.606 41.5335 194.526 41.6775 194.422C41.8215 194.31 41.9335 194.178 42.0135 194.026C42.1015 193.866 42.1455 193.686 42.1455 193.486V191.182C42.1455 191.014 42.1015 190.858 42.0135 190.714C41.9335 190.562 41.8215 190.434 41.6775 190.33C41.5335 190.226 41.3615 190.146 41.1615 190.09C40.9695 190.026 40.7655 189.994 40.5495 189.994C40.0055 189.994 39.5775 190.166 39.2655 190.51C38.9535 190.846 38.7975 191.29 38.7975 191.842V192.898C38.7975 193.45 38.9535 193.898 39.2655 194.242C39.5775 194.578 40.0055 194.746 40.5495 194.746ZM46.0265 187.822C45.8185 187.822 45.6665 187.774 45.5705 187.678C45.4825 187.574 45.4385 187.442 45.4385 187.282V187.126C45.4385 186.966 45.4825 186.838 45.5705 186.742C45.6665 186.638 45.8185 186.586 46.0265 186.586C46.2345 186.586 46.3825 186.638 46.4705 186.742C46.5665 186.838 46.6145 186.966 46.6145 187.126V187.282C46.6145 187.442 46.5665 187.574 46.4705 187.678C46.3825 187.774 46.2345 187.822 46.0265 187.822ZM45.5465 189.274H46.5065V195.466H45.5465V189.274ZM51.2745 195.61C50.8505 195.61 50.4665 195.534 50.1225 195.382C49.7865 195.23 49.4945 195.014 49.2465 194.734C49.0065 194.446 48.8185 194.106 48.6825 193.714C48.5545 193.314 48.4905 192.866 48.4905 192.37C48.4905 191.882 48.5545 191.438 48.6825 191.038C48.8185 190.638 49.0065 190.298 49.2465 190.018C49.4945 189.73 49.7865 189.51 50.1225 189.358C50.4665 189.206 50.8505 189.13 51.2745 189.13C51.6905 189.13 52.0625 189.206 52.3905 189.358C52.7185 189.51 52.9985 189.722 53.2305 189.994C53.4625 190.258 53.6385 190.574 53.7585 190.942C53.8865 191.31 53.9505 191.714 53.9505 192.154V192.61H49.4985V192.898C49.4985 193.162 49.5385 193.41 49.6185 193.642C49.7065 193.866 49.8265 194.062 49.9785 194.23C50.1385 194.398 50.3305 194.53 50.5545 194.626C50.7865 194.722 51.0465 194.77 51.3345 194.77C51.7265 194.77 52.0665 194.678 52.3545 194.494C52.6505 194.31 52.8785 194.046 53.0385 193.702L53.7225 194.194C53.5225 194.618 53.2105 194.962 52.7865 195.226C52.3625 195.482 51.8585 195.61 51.2745 195.61ZM51.2745 189.934C51.0105 189.934 50.7705 189.982 50.5545 190.078C50.3385 190.166 50.1505 190.294 49.9905 190.462C49.8385 190.63 49.7185 190.83 49.6305 191.062C49.5425 191.286 49.4985 191.534 49.4985 191.806V191.89H52.9185V191.758C52.9185 191.206 52.7665 190.766 52.4625 190.438C52.1665 190.102 51.7705 189.934 51.2745 189.934ZM56.9524 195.466C56.6164 195.466 56.3604 195.374 56.1844 195.19C56.0164 194.998 55.9324 194.758 55.9324 194.47V186.586H56.8924V194.626H57.8044V195.466H56.9524ZM64.102 195.466C63.742 195.466 63.482 195.37 63.322 195.178C63.17 194.986 63.074 194.746 63.034 194.458H62.974C62.838 194.842 62.614 195.13 62.302 195.322C61.99 195.514 61.618 195.61 61.186 195.61C60.53 195.61 60.018 195.442 59.65 195.106C59.29 194.77 59.11 194.314 59.11 193.738C59.11 193.154 59.322 192.706 59.746 192.394C60.178 192.082 60.846 191.926 61.75 191.926H62.974V191.314C62.974 190.874 62.854 190.538 62.614 190.306C62.374 190.074 62.006 189.958 61.51 189.958C61.134 189.958 60.818 190.042 60.562 190.21C60.314 190.378 60.106 190.602 59.938 190.882L59.362 190.342C59.53 190.006 59.798 189.722 60.166 189.49C60.534 189.25 60.998 189.13 61.558 189.13C62.31 189.13 62.894 189.314 63.31 189.682C63.726 190.05 63.934 190.562 63.934 191.218V194.626H64.642V195.466H64.102ZM61.342 194.794C61.582 194.794 61.802 194.766 62.002 194.71C62.202 194.654 62.374 194.574 62.518 194.47C62.662 194.366 62.774 194.246 62.854 194.11C62.934 193.974 62.974 193.826 62.974 193.666V192.646H61.702C61.15 192.646 60.746 192.726 60.49 192.886C60.242 193.046 60.118 193.278 60.118 193.582V193.834C60.118 194.138 60.226 194.374 60.442 194.542C60.666 194.71 60.966 194.794 61.342 194.794ZM66.4121 195.466V189.274H67.3721V190.282H67.4201C67.5721 189.93 67.7841 189.65 68.0561 189.442C68.3361 189.234 68.7081 189.13 69.1721 189.13C69.8121 189.13 70.3161 189.338 70.6841 189.754C71.0601 190.162 71.2481 190.742 71.2481 191.494V195.466H70.2881V191.662C70.2881 190.55 69.8201 189.994 68.8841 189.994C68.6921 189.994 68.5041 190.018 68.3201 190.066C68.1441 190.114 67.9841 190.186 67.8401 190.282C67.6961 190.378 67.5801 190.502 67.4921 190.654C67.4121 190.798 67.3721 190.97 67.3721 191.17V195.466H66.4121ZM74.1124 187.822C73.9044 187.822 73.7524 187.774 73.6564 187.678C73.5684 187.574 73.5244 187.442 73.5244 187.282V187.126C73.5244 186.966 73.5684 186.838 73.6564 186.742C73.7524 186.638 73.9044 186.586 74.1124 186.586C74.3204 186.586 74.4684 186.638 74.5564 186.742C74.6524 186.838 74.7004 186.966 74.7004 187.126V187.282C74.7004 187.442 74.6524 187.574 74.5564 187.678C74.4684 187.774 74.3204 187.822 74.1124 187.822ZM73.6324 189.274H74.5924V195.466H73.6324V189.274ZM79.3604 195.61C78.9364 195.61 78.5524 195.534 78.2084 195.382C77.8724 195.23 77.5804 195.014 77.3324 194.734C77.0924 194.446 76.9044 194.106 76.7684 193.714C76.6404 193.314 76.5764 192.866 76.5764 192.37C76.5764 191.882 76.6404 191.438 76.7684 191.038C76.9044 190.638 77.0924 190.298 77.3324 190.018C77.5804 189.73 77.8724 189.51 78.2084 189.358C78.5524 189.206 78.9364 189.13 79.3604 189.13C79.7764 189.13 80.1484 189.206 80.4764 189.358C80.8044 189.51 81.0844 189.722 81.3164 189.994C81.5484 190.258 81.7244 190.574 81.8444 190.942C81.9724 191.31 82.0364 191.714 82.0364 192.154V192.61H77.5844V192.898C77.5844 193.162 77.6244 193.41 77.7044 193.642C77.7924 193.866 77.9124 194.062 78.0644 194.23C78.2244 194.398 78.4164 194.53 78.6404 194.626C78.8724 194.722 79.1324 194.77 79.4204 194.77C79.8124 194.77 80.1524 194.678 80.4404 194.494C80.7364 194.31 80.9644 194.046 81.1244 193.702L81.8084 194.194C81.6084 194.618 81.2964 194.962 80.8724 195.226C80.4484 195.482 79.9444 195.61 79.3604 195.61ZM79.3604 189.934C79.0964 189.934 78.8564 189.982 78.6404 190.078C78.4244 190.166 78.2364 190.294 78.0764 190.462C77.9244 190.63 77.8044 190.83 77.7164 191.062C77.6284 191.286 77.5844 191.534 77.5844 191.806V191.89H81.0044V191.758C81.0044 191.206 80.8524 190.766 80.5484 190.438C80.2524 190.102 79.8564 189.934 79.3604 189.934Z" fill="white"/>
</g>
<g opacity="0.56">
<rect y="44.9619" width="98.2698" height="96.5499" rx="48.2749" fill="#4E4C82" fill-opacity="0.5"/>
</g>
<g clip-path="url(#clip1)">
<path d="M39.5818 98.0727C38.5178 98.0727 37.6898 97.7127 37.0978 96.9927C36.5058 96.2647 36.2098 95.1967 36.2098 93.7887C36.2098 92.3807 36.5058 91.3007 37.0978 90.5487C37.6898 89.7887 38.5178 89.4087 39.5818 89.4087C40.2858 89.4087 40.8738 89.5687 41.3458 89.8887C41.8258 90.2087 42.1978 90.6607 42.4618 91.2447L41.6458 91.7367C41.4778 91.3047 41.2218 90.9607 40.8778 90.7047C40.5338 90.4407 40.1018 90.3087 39.5818 90.3087C39.2218 90.3087 38.8978 90.3767 38.6098 90.5127C38.3298 90.6487 38.0898 90.8447 37.8898 91.1007C37.6978 91.3487 37.5498 91.6487 37.4458 92.0007C37.3418 92.3447 37.2898 92.7327 37.2898 93.1647V94.4127C37.2898 95.2767 37.4898 95.9527 37.8898 96.4407C38.2898 96.9287 38.8538 97.1727 39.5818 97.1727C40.1178 97.1727 40.5658 97.0367 40.9258 96.7647C41.2858 96.4847 41.5498 96.1167 41.7178 95.6607L42.5218 96.1647C42.2578 96.7567 41.8778 97.2247 41.3818 97.5687C40.8858 97.9047 40.2858 98.0727 39.5818 98.0727ZM44.3869 89.0487H45.3469V92.7447H45.3949C45.5469 92.3927 45.7589 92.1127 46.0309 91.9047C46.3109 91.6967 46.6829 91.5927 47.1469 91.5927C47.7869 91.5927 48.2909 91.8007 48.6589 92.2167C49.0349 92.6247 49.2229 93.2047 49.2229 93.9567V97.9287H48.2629V94.1247C48.2629 93.0127 47.7949 92.4567 46.8589 92.4567C46.6669 92.4567 46.4789 92.4807 46.2949 92.5287C46.1189 92.5767 45.9589 92.6487 45.8149 92.7447C45.6709 92.8407 45.5549 92.9647 45.4669 93.1167C45.3869 93.2607 45.3469 93.4327 45.3469 93.6327V97.9287H44.3869V89.0487ZM56.1072 97.9287C55.7472 97.9287 55.4872 97.8327 55.3272 97.6407C55.1752 97.4487 55.0792 97.2087 55.0392 96.9207H54.9792C54.8432 97.3047 54.6192 97.5927 54.3072 97.7847C53.9952 97.9767 53.6232 98.0727 53.1912 98.0727C52.5352 98.0727 52.0232 97.9047 51.6552 97.5687C51.2952 97.2327 51.1152 96.7767 51.1152 96.2007C51.1152 95.6167 51.3272 95.1687 51.7512 94.8567C52.1832 94.5447 52.8512 94.3887 53.7552 94.3887H54.9792V93.7767C54.9792 93.3367 54.8592 93.0007 54.6192 92.7687C54.3792 92.5367 54.0112 92.4207 53.5152 92.4207C53.1392 92.4207 52.8232 92.5047 52.5672 92.6727C52.3192 92.8407 52.1112 93.0647 51.9432 93.3447L51.3672 92.8047C51.5352 92.4687 51.8032 92.1847 52.1712 91.9527C52.5392 91.7127 53.0032 91.5927 53.5632 91.5927C54.3152 91.5927 54.8992 91.7767 55.3152 92.1447C55.7312 92.5127 55.9392 93.0247 55.9392 93.6807V97.0887H56.6472V97.9287H56.1072ZM53.3472 97.2567C53.5872 97.2567 53.8072 97.2287 54.0072 97.1727C54.2072 97.1167 54.3792 97.0367 54.5232 96.9327C54.6672 96.8287 54.7792 96.7087 54.8592 96.5727C54.9392 96.4367 54.9792 96.2887 54.9792 96.1287V95.1087H53.7072C53.1552 95.1087 52.7512 95.1887 52.4952 95.3487C52.2472 95.5087 52.1232 95.7407 52.1232 96.0447V96.2967C52.1232 96.6007 52.2312 96.8367 52.4472 97.0047C52.6712 97.1727 52.9712 97.2567 53.3472 97.2567ZM59.7854 97.9287C59.4494 97.9287 59.1934 97.8367 59.0174 97.6527C58.8494 97.4607 58.7654 97.2127 58.7654 96.9087V92.5767H57.7454V91.7367H58.3214C58.5294 91.7367 58.6694 91.6967 58.7414 91.6167C58.8214 91.5287 58.8614 91.3807 58.8614 91.1727V90.0207H59.7254V91.7367H61.0814V92.5767H59.7254V97.0887H60.9854V97.9287H59.7854Z" fill="white"/>
</g>
<g opacity="0.24">
<rect x="105.079" y="0.262695" width="98.2698" height="96.5499" rx="48.2749" fill="#4E4C82" fill-opacity="0.5"/>
</g>
<g clip-path="url(#clip2)">
<path d="M126.224 48.1175L125.216 46.2575H125.18V53.2295H124.196V44.8535H125.36L128.42 49.9655L129.428 51.8255H129.464V44.8535H130.448V53.2295H129.284L126.224 48.1175ZM135.325 53.3735C134.909 53.3735 134.529 53.2975 134.185 53.1455C133.841 52.9935 133.545 52.7775 133.297 52.4975C133.057 52.2095 132.869 51.8695 132.733 51.4775C132.597 51.0775 132.529 50.6295 132.529 50.1335C132.529 49.6455 132.597 49.2015 132.733 48.8015C132.869 48.4015 133.057 48.0615 133.297 47.7815C133.545 47.4935 133.841 47.2735 134.185 47.1215C134.529 46.9695 134.909 46.8935 135.325 46.8935C135.741 46.8935 136.117 46.9695 136.453 47.1215C136.797 47.2735 137.093 47.4935 137.341 47.7815C137.589 48.0615 137.781 48.4015 137.917 48.8015C138.053 49.2015 138.121 49.6455 138.121 50.1335C138.121 50.6295 138.053 51.0775 137.917 51.4775C137.781 51.8695 137.589 52.2095 137.341 52.4975C137.093 52.7775 136.797 52.9935 136.453 53.1455C136.117 53.2975 135.741 53.3735 135.325 53.3735ZM135.325 52.5215C135.845 52.5215 136.269 52.3615 136.597 52.0415C136.925 51.7215 137.089 51.2335 137.089 50.5775V49.6895C137.089 49.0335 136.925 48.5455 136.597 48.2255C136.269 47.9055 135.845 47.7455 135.325 47.7455C134.805 47.7455 134.381 47.9055 134.053 48.2255C133.725 48.5455 133.561 49.0335 133.561 49.6895V50.5775C133.561 51.2335 133.725 51.7215 134.053 52.0415C134.381 52.3615 134.805 52.5215 135.325 52.5215ZM141.467 53.2295C141.131 53.2295 140.875 53.1375 140.699 52.9535C140.531 52.7615 140.447 52.5135 140.447 52.2095V47.8775H139.427V47.0375H140.003C140.211 47.0375 140.351 46.9975 140.423 46.9175C140.503 46.8295 140.543 46.6815 140.543 46.4735V45.3215H141.407V47.0375H142.763V47.8775H141.407V52.3895H142.667V53.2295H141.467ZM145.186 45.5855C144.978 45.5855 144.826 45.5375 144.73 45.4415C144.642 45.3375 144.598 45.2055 144.598 45.0455V44.8895C144.598 44.7295 144.642 44.6015 144.73 44.5055C144.826 44.4015 144.978 44.3495 145.186 44.3495C145.394 44.3495 145.542 44.4015 145.63 44.5055C145.726 44.6015 145.774 44.7295 145.774 44.8895V45.0455C145.774 45.2055 145.726 45.3375 145.63 45.4415C145.542 45.5375 145.394 45.5855 145.186 45.5855ZM144.706 47.0375H145.666V53.2295H144.706V47.0375ZM148.442 47.8775H147.434V47.0375H148.442V45.7895C148.442 45.3575 148.554 45.0095 148.778 44.7455C149.002 44.4815 149.342 44.3495 149.798 44.3495H150.734V45.1895H149.402V47.0375H152.87V53.2295H151.91V47.8775H149.402V53.2295H148.442V47.8775ZM152.39 45.5855C152.182 45.5855 152.03 45.5375 151.934 45.4415C151.846 45.3375 151.802 45.2055 151.802 45.0455V44.8895C151.802 44.7295 151.846 44.6015 151.934 44.5055C152.03 44.4015 152.182 44.3495 152.39 44.3495C152.598 44.3495 152.746 44.4015 152.834 44.5055C152.93 44.6015 152.978 44.7295 152.978 44.8895V45.0455C152.978 45.2055 152.93 45.3375 152.834 45.4415C152.746 45.5375 152.598 45.5855 152.39 45.5855ZM155.315 44.3495H156.275V49.9775H156.323L157.271 48.9215L159.023 47.0375H160.187L157.895 49.4855L160.415 53.2295H159.251L157.199 50.0735L156.275 51.0215V53.2295H155.315V44.3495ZM166.485 53.2295C166.125 53.2295 165.865 53.1335 165.705 52.9415C165.553 52.7495 165.457 52.5095 165.417 52.2215H165.357C165.221 52.6055 164.997 52.8935 164.685 53.0855C164.373 53.2775 164.001 53.3735 163.569 53.3735C162.913 53.3735 162.401 53.2055 162.033 52.8695C161.673 52.5335 161.493 52.0775 161.493 51.5015C161.493 50.9175 161.705 50.4695 162.129 50.1575C162.561 49.8455 163.229 49.6895 164.133 49.6895H165.357V49.0775C165.357 48.6375 165.237 48.3015 164.997 48.0695C164.757 47.8375 164.389 47.7215 163.893 47.7215C163.517 47.7215 163.201 47.8055 162.945 47.9735C162.697 48.1415 162.489 48.3655 162.321 48.6455L161.745 48.1055C161.913 47.7695 162.181 47.4855 162.549 47.2535C162.917 47.0135 163.381 46.8935 163.941 46.8935C164.693 46.8935 165.277 47.0775 165.693 47.4455C166.109 47.8135 166.317 48.3255 166.317 48.9815V52.3895H167.025V53.2295H166.485ZM163.725 52.5575C163.965 52.5575 164.185 52.5295 164.385 52.4735C164.585 52.4175 164.757 52.3375 164.901 52.2335C165.045 52.1295 165.157 52.0095 165.237 51.8735C165.317 51.7375 165.357 51.5895 165.357 51.4295V50.4095H164.085C163.533 50.4095 163.129 50.4895 162.873 50.6495C162.625 50.8095 162.501 51.0415 162.501 51.3455V51.5975C162.501 51.9015 162.609 52.1375 162.825 52.3055C163.049 52.4735 163.349 52.5575 163.725 52.5575ZM164.085 46.2095L163.461 45.9215L164.481 43.8815L165.357 44.3015L164.085 46.2095ZM171.099 53.3735C170.667 53.3735 170.279 53.2975 169.935 53.1455C169.591 52.9935 169.299 52.7775 169.059 52.4975C168.827 52.2175 168.647 51.8775 168.519 51.4775C168.399 51.0775 168.339 50.6295 168.339 50.1335C168.339 49.6375 168.399 49.1895 168.519 48.7895C168.647 48.3895 168.827 48.0495 169.059 47.7695C169.299 47.4895 169.591 47.2735 169.935 47.1215C170.279 46.9695 170.667 46.8935 171.099 46.8935C171.715 46.8935 172.207 47.0295 172.575 47.3015C172.951 47.5655 173.231 47.9135 173.415 48.3455L172.611 48.7535C172.499 48.4335 172.315 48.1855 172.059 48.0095C171.803 47.8335 171.483 47.7455 171.099 47.7455C170.811 47.7455 170.559 47.7935 170.343 47.8895C170.127 47.9775 169.947 48.1055 169.803 48.2735C169.659 48.4335 169.551 48.6295 169.479 48.8615C169.407 49.0855 169.371 49.3335 169.371 49.6055V50.6615C169.371 51.2055 169.515 51.6535 169.803 52.0055C170.099 52.3495 170.531 52.5215 171.099 52.5215C171.875 52.5215 172.435 52.1615 172.779 51.4415L173.475 51.9095C173.275 52.3575 172.975 52.7135 172.575 52.9775C172.183 53.2415 171.691 53.3735 171.099 53.3735ZM175.71 45.5855C175.502 45.5855 175.35 45.5375 175.254 45.4415C175.166 45.3375 175.122 45.2055 175.122 45.0455V44.8895C175.122 44.7295 175.166 44.6015 175.254 44.5055C175.35 44.4015 175.502 44.3495 175.71 44.3495C175.918 44.3495 176.066 44.4015 176.154 44.5055C176.25 44.6015 176.298 44.7295 176.298 44.8895V45.0455C176.298 45.2055 176.25 45.3375 176.154 45.4415C176.066 45.5375 175.918 45.5855 175.71 45.5855ZM175.23 47.0375H176.19V53.2295H175.23V47.0375ZM180.958 53.3735C180.534 53.3735 180.15 53.2975 179.806 53.1455C179.47 52.9935 179.178 52.7775 178.93 52.4975C178.69 52.2095 178.502 51.8695 178.366 51.4775C178.238 51.0775 178.174 50.6295 178.174 50.1335C178.174 49.6455 178.238 49.2015 178.366 48.8015C178.502 48.4015 178.69 48.0615 178.93 47.7815C179.178 47.4935 179.47 47.2735 179.806 47.1215C180.15 46.9695 180.534 46.8935 180.958 46.8935C181.374 46.8935 181.746 46.9695 182.074 47.1215C182.402 47.2735 182.682 47.4855 182.914 47.7575C183.146 48.0215 183.322 48.3375 183.442 48.7055C183.57 49.0735 183.634 49.4775 183.634 49.9175V50.3735H179.182V50.6615C179.182 50.9255 179.222 51.1735 179.302 51.4055C179.39 51.6295 179.51 51.8255 179.662 51.9935C179.822 52.1615 180.014 52.2935 180.238 52.3895C180.47 52.4855 180.73 52.5335 181.018 52.5335C181.41 52.5335 181.75 52.4415 182.038 52.2575C182.334 52.0735 182.562 51.8095 182.722 51.4655L183.406 51.9575C183.206 52.3815 182.894 52.7255 182.47 52.9895C182.046 53.2455 181.542 53.3735 180.958 53.3735ZM180.958 47.6975C180.694 47.6975 180.454 47.7455 180.238 47.8415C180.022 47.9295 179.834 48.0575 179.674 48.2255C179.522 48.3935 179.402 48.5935 179.314 48.8255C179.226 49.0495 179.182 49.2975 179.182 49.5695V49.6535H182.602V49.5215C182.602 48.9695 182.45 48.5295 182.146 48.2015C181.85 47.8655 181.454 47.6975 180.958 47.6975Z" fill="#4E4C82"/>
</g>
<g opacity="0.56">
<rect x="180.135" y="216.312" width="82.6314" height="81.6314" rx="40.8157" fill="#4E4C82" fill-opacity="0.5"/>
</g>
<g clip-path="url(#clip3)">
<path d="M188.901 262.515V254.139H192.237C192.989 254.139 193.565 254.355 193.965 254.787C194.373 255.211 194.577 255.795 194.577 256.539C194.577 257.283 194.373 257.871 193.965 258.303C193.565 258.727 192.989 258.939 192.237 258.939H189.909V262.515H188.901ZM189.909 258.051H192.237C192.637 258.051 192.945 257.947 193.161 257.739C193.385 257.531 193.497 257.235 193.497 256.851V256.227C193.497 255.843 193.385 255.547 193.161 255.339C192.945 255.131 192.637 255.027 192.237 255.027H189.909V258.051ZM198.588 262.659C198.172 262.659 197.792 262.583 197.448 262.431C197.104 262.279 196.808 262.063 196.56 261.783C196.32 261.495 196.132 261.155 195.996 260.763C195.86 260.363 195.792 259.915 195.792 259.419C195.792 258.931 195.86 258.487 195.996 258.087C196.132 257.687 196.32 257.347 196.56 257.067C196.808 256.779 197.104 256.559 197.448 256.407C197.792 256.255 198.172 256.179 198.588 256.179C199.004 256.179 199.38 256.255 199.716 256.407C200.06 256.559 200.356 256.779 200.604 257.067C200.852 257.347 201.044 257.687 201.18 258.087C201.316 258.487 201.384 258.931 201.384 259.419C201.384 259.915 201.316 260.363 201.18 260.763C201.044 261.155 200.852 261.495 200.604 261.783C200.356 262.063 200.06 262.279 199.716 262.431C199.38 262.583 199.004 262.659 198.588 262.659ZM198.588 261.807C199.108 261.807 199.532 261.647 199.86 261.327C200.188 261.007 200.352 260.519 200.352 259.863V258.975C200.352 258.319 200.188 257.831 199.86 257.511C199.532 257.191 199.108 257.031 198.588 257.031C198.068 257.031 197.644 257.191 197.316 257.511C196.988 257.831 196.824 258.319 196.824 258.975V259.863C196.824 260.519 196.988 261.007 197.316 261.327C197.644 261.647 198.068 261.807 198.588 261.807ZM207.323 261.507H207.275C206.899 262.275 206.295 262.659 205.463 262.659C205.079 262.659 204.731 262.583 204.419 262.431C204.107 262.279 203.839 262.063 203.615 261.783C203.399 261.503 203.231 261.163 203.111 260.763C202.999 260.363 202.943 259.915 202.943 259.419C202.943 258.923 202.999 258.475 203.111 258.075C203.231 257.675 203.399 257.335 203.615 257.055C203.839 256.775 204.107 256.559 204.419 256.407C204.731 256.255 205.079 256.179 205.463 256.179C205.895 256.179 206.263 256.275 206.567 256.467C206.879 256.651 207.115 256.939 207.275 257.331H207.323V253.635H208.283V262.515H207.323V261.507ZM205.727 261.795C205.943 261.795 206.147 261.767 206.339 261.711C206.539 261.655 206.711 261.575 206.855 261.471C206.999 261.359 207.111 261.227 207.191 261.075C207.279 260.915 207.323 260.735 207.323 260.535V258.231C207.323 258.063 207.279 257.907 207.191 257.763C207.111 257.611 206.999 257.483 206.855 257.379C206.711 257.275 206.539 257.195 206.339 257.139C206.147 257.075 205.943 257.043 205.727 257.043C205.183 257.043 204.755 257.215 204.443 257.559C204.131 257.895 203.975 258.339 203.975 258.891V259.947C203.975 260.499 204.131 260.947 204.443 261.291C204.755 261.627 205.183 261.795 205.727 261.795ZM210.724 256.323H211.684V257.331H211.732C211.892 256.939 212.124 256.651 212.428 256.467C212.74 256.275 213.112 256.179 213.544 256.179C213.928 256.179 214.276 256.255 214.588 256.407C214.9 256.559 215.164 256.775 215.38 257.055C215.604 257.335 215.772 257.675 215.884 258.075C216.004 258.475 216.064 258.923 216.064 259.419C216.064 259.915 216.004 260.363 215.884 260.763C215.772 261.163 215.604 261.503 215.38 261.783C215.164 262.063 214.9 262.279 214.588 262.431C214.276 262.583 213.928 262.659 213.544 262.659C212.704 262.659 212.1 262.275 211.732 261.507H211.684V264.915H210.724V256.323ZM213.28 261.795C213.824 261.795 214.252 261.627 214.564 261.291C214.876 260.947 215.032 260.499 215.032 259.947V258.891C215.032 258.339 214.876 257.895 214.564 257.559C214.252 257.215 213.824 257.043 213.28 257.043C213.064 257.043 212.856 257.075 212.656 257.139C212.464 257.195 212.296 257.275 212.152 257.379C212.008 257.483 211.892 257.611 211.804 257.763C211.724 257.907 211.684 258.063 211.684 258.231V260.535C211.684 260.735 211.724 260.915 211.804 261.075C211.892 261.227 212.008 261.359 212.152 261.471C212.296 261.575 212.464 261.655 212.656 261.711C212.856 261.767 213.064 261.795 213.28 261.795ZM220.424 262.659C220.008 262.659 219.628 262.583 219.284 262.431C218.94 262.279 218.644 262.063 218.396 261.783C218.156 261.495 217.968 261.155 217.832 260.763C217.696 260.363 217.628 259.915 217.628 259.419C217.628 258.931 217.696 258.487 217.832 258.087C217.968 257.687 218.156 257.347 218.396 257.067C218.644 256.779 218.94 256.559 219.284 256.407C219.628 256.255 220.008 256.179 220.424 256.179C220.84 256.179 221.216 256.255 221.552 256.407C221.896 256.559 222.192 256.779 222.44 257.067C222.688 257.347 222.88 257.687 223.016 258.087C223.152 258.487 223.22 258.931 223.22 259.419C223.22 259.915 223.152 260.363 223.016 260.763C222.88 261.155 222.688 261.495 222.44 261.783C222.192 262.063 221.896 262.279 221.552 262.431C221.216 262.583 220.84 262.659 220.424 262.659ZM220.424 261.807C220.944 261.807 221.368 261.647 221.696 261.327C222.024 261.007 222.188 260.519 222.188 259.863V258.975C222.188 258.319 222.024 257.831 221.696 257.511C221.368 257.191 220.944 257.031 220.424 257.031C219.904 257.031 219.48 257.191 219.152 257.511C218.824 257.831 218.66 258.319 218.66 258.975V259.863C218.66 260.519 218.824 261.007 219.152 261.327C219.48 261.647 219.904 261.807 220.424 261.807ZM225.199 262.515V256.323H226.159V257.463H226.219C226.331 257.167 226.531 256.903 226.819 256.671C227.107 256.439 227.503 256.323 228.007 256.323H228.379V257.283H227.815C227.295 257.283 226.887 257.383 226.591 257.583C226.303 257.775 226.159 258.019 226.159 258.315V262.515H225.199ZM234.459 262.515C234.099 262.515 233.839 262.419 233.679 262.227C233.527 262.035 233.431 261.795 233.391 261.507H233.331C233.195 261.891 232.971 262.179 232.659 262.371C232.347 262.563 231.975 262.659 231.543 262.659C230.887 262.659 230.375 262.491 230.007 262.155C229.647 261.819 229.467 261.363 229.467 260.787C229.467 260.203 229.679 259.755 230.103 259.443C230.535 259.131 231.203 258.975 232.107 258.975H233.331V258.363C233.331 257.923 233.211 257.587 232.971 257.355C232.731 257.123 232.363 257.007 231.867 257.007C231.491 257.007 231.175 257.091 230.919 257.259C230.671 257.427 230.463 257.651 230.295 257.931L229.719 257.391C229.887 257.055 230.155 256.771 230.523 256.539C230.891 256.299 231.355 256.179 231.915 256.179C232.667 256.179 233.251 256.363 233.667 256.731C234.083 257.099 234.291 257.611 234.291 258.267V261.675H234.999V262.515H234.459ZM231.699 261.843C231.939 261.843 232.159 261.815 232.359 261.759C232.559 261.703 232.731 261.623 232.875 261.519C233.019 261.415 233.131 261.295 233.211 261.159C233.291 261.023 233.331 260.875 233.331 260.715V259.695H232.059C231.507 259.695 231.103 259.775 230.847 259.935C230.599 260.095 230.475 260.327 230.475 260.631V260.883C230.475 261.187 230.583 261.423 230.799 261.591C231.023 261.759 231.323 261.843 231.699 261.843ZM240.101 262.515V254.139H245.213V255.027H241.109V257.835H244.973V258.723H241.109V261.627H245.213V262.515H240.101ZM249.525 257.403L248.517 255.543H248.481V262.515H247.497V254.139H248.661L251.721 259.251L252.729 261.111H252.765V254.139H253.749V262.515H252.585L249.525 257.403Z" fill="white"/>
</g>
<g opacity="0.24">
<rect x="105.079" y="164.163" width="67.7129" height="67.7129" rx="33.8565" fill="#4E4C82" fill-opacity="0.5"/>
</g>
<g clip-path="url(#clip4)">
<path d="M123.923 188.49L122.915 186.63H122.879V193.602H121.895V185.226H123.059L126.119 190.338L127.127 192.198H127.163V185.226H128.147V193.602H126.983L123.923 188.49ZM133.024 193.746C132.608 193.746 132.228 193.67 131.884 193.518C131.54 193.366 131.244 193.15 130.996 192.87C130.756 192.582 130.568 192.242 130.432 191.85C130.296 191.45 130.228 191.002 130.228 190.506C130.228 190.018 130.296 189.574 130.432 189.174C130.568 188.774 130.756 188.434 130.996 188.154C131.244 187.866 131.54 187.646 131.884 187.494C132.228 187.342 132.608 187.266 133.024 187.266C133.44 187.266 133.816 187.342 134.152 187.494C134.496 187.646 134.792 187.866 135.04 188.154C135.288 188.434 135.48 188.774 135.616 189.174C135.752 189.574 135.82 190.018 135.82 190.506C135.82 191.002 135.752 191.45 135.616 191.85C135.48 192.242 135.288 192.582 135.04 192.87C134.792 193.15 134.496 193.366 134.152 193.518C133.816 193.67 133.44 193.746 133.024 193.746ZM133.024 192.894C133.544 192.894 133.968 192.734 134.296 192.414C134.624 192.094 134.788 191.606 134.788 190.95V190.062C134.788 189.406 134.624 188.918 134.296 188.598C133.968 188.278 133.544 188.118 133.024 188.118C132.504 188.118 132.08 188.278 131.752 188.598C131.424 188.918 131.26 189.406 131.26 190.062V190.95C131.26 191.606 131.424 192.094 131.752 192.414C132.08 192.734 132.504 192.894 133.024 192.894ZM140.103 193.746C139.671 193.746 139.283 193.67 138.939 193.518C138.595 193.366 138.303 193.15 138.063 192.87C137.831 192.59 137.651 192.25 137.523 191.85C137.403 191.45 137.343 191.002 137.343 190.506C137.343 190.01 137.403 189.562 137.523 189.162C137.651 188.762 137.831 188.422 138.063 188.142C138.303 187.862 138.595 187.646 138.939 187.494C139.283 187.342 139.671 187.266 140.103 187.266C140.719 187.266 141.211 187.402 141.579 187.674C141.955 187.938 142.235 188.286 142.419 188.718L141.615 189.126C141.503 188.806 141.319 188.558 141.063 188.382C140.807 188.206 140.487 188.118 140.103 188.118C139.815 188.118 139.563 188.166 139.347 188.262C139.131 188.35 138.951 188.478 138.807 188.646C138.663 188.806 138.555 189.002 138.483 189.234C138.411 189.458 138.375 189.706 138.375 189.978V191.034C138.375 191.578 138.519 192.026 138.807 192.378C139.103 192.722 139.535 192.894 140.103 192.894C140.879 192.894 141.439 192.534 141.783 191.814L142.479 192.282C142.279 192.73 141.979 193.086 141.579 193.35C141.187 193.614 140.695 193.746 140.103 193.746ZM139.503 186.414L138.171 184.698L138.699 184.326L140.103 185.73L141.507 184.326L142.035 184.698L140.703 186.414H139.503ZM144.234 193.602V187.41H145.194V188.418H145.242C145.394 188.066 145.606 187.786 145.878 187.578C146.158 187.37 146.53 187.266 146.994 187.266C147.634 187.266 148.138 187.474 148.506 187.89C148.882 188.298 149.07 188.878 149.07 189.63V193.602H148.11V189.798C148.11 188.686 147.642 188.13 146.706 188.13C146.514 188.13 146.326 188.154 146.142 188.202C145.966 188.25 145.806 188.322 145.662 188.418C145.518 188.514 145.402 188.638 145.314 188.79C145.234 188.934 145.194 189.106 145.194 189.306V193.602H144.234ZM153.782 193.746C153.358 193.746 152.974 193.67 152.63 193.518C152.294 193.366 152.002 193.15 151.754 192.87C151.514 192.582 151.326 192.242 151.19 191.85C151.062 191.45 150.998 191.002 150.998 190.506C150.998 190.018 151.062 189.574 151.19 189.174C151.326 188.774 151.514 188.434 151.754 188.154C152.002 187.866 152.294 187.646 152.63 187.494C152.974 187.342 153.358 187.266 153.782 187.266C154.198 187.266 154.57 187.342 154.898 187.494C155.226 187.646 155.506 187.858 155.738 188.13C155.97 188.394 156.146 188.71 156.266 189.078C156.394 189.446 156.458 189.85 156.458 190.29V190.746H152.006V191.034C152.006 191.298 152.046 191.546 152.126 191.778C152.214 192.002 152.334 192.198 152.486 192.366C152.646 192.534 152.838 192.666 153.062 192.762C153.294 192.858 153.554 192.906 153.842 192.906C154.234 192.906 154.574 192.814 154.862 192.63C155.158 192.446 155.386 192.182 155.546 191.838L156.23 192.33C156.03 192.754 155.718 193.098 155.294 193.362C154.87 193.618 154.366 193.746 153.782 193.746ZM153.782 188.07C153.518 188.07 153.278 188.118 153.062 188.214C152.846 188.302 152.658 188.43 152.498 188.598C152.346 188.766 152.226 188.966 152.138 189.198C152.05 189.422 152.006 189.67 152.006 189.942V190.026H155.426V189.894C155.426 189.342 155.274 188.902 154.97 188.574C154.674 188.238 154.278 188.07 153.782 188.07ZM153.878 186.582L153.254 186.294L154.274 184.254L155.15 184.674L153.878 186.582ZM123.722 201.226V206.41C123.722 207.21 123.87 207.818 124.166 208.234C124.462 208.642 124.982 208.846 125.726 208.846C126.47 208.846 126.99 208.642 127.286 208.234C127.582 207.818 127.73 207.21 127.73 206.41V201.226H128.738V206.17C128.738 206.778 128.682 207.306 128.57 207.754C128.466 208.202 128.294 208.574 128.054 208.87C127.814 209.166 127.498 209.386 127.106 209.53C126.722 209.674 126.25 209.746 125.69 209.746C125.13 209.746 124.658 209.674 124.274 209.53C123.898 209.386 123.594 209.166 123.362 208.87C123.13 208.574 122.962 208.202 122.858 207.754C122.762 207.306 122.714 206.778 122.714 206.17V201.226H123.722ZM125.786 200.542L125.162 200.254L126.182 198.214L127.058 198.634L125.786 200.542ZM133.071 209.746C132.495 209.746 132.011 209.638 131.619 209.422C131.235 209.198 130.903 208.902 130.623 208.534L131.307 207.982C131.547 208.286 131.815 208.522 132.111 208.69C132.407 208.85 132.751 208.93 133.143 208.93C133.551 208.93 133.867 208.842 134.091 208.666C134.323 208.49 134.439 208.242 134.439 207.922C134.439 207.682 134.359 207.478 134.199 207.31C134.047 207.134 133.767 207.014 133.359 206.95L132.867 206.878C132.579 206.838 132.315 206.778 132.075 206.698C131.835 206.61 131.623 206.498 131.439 206.362C131.263 206.218 131.123 206.042 131.019 205.834C130.923 205.626 130.875 205.378 130.875 205.09C130.875 204.786 130.931 204.522 131.043 204.298C131.155 204.066 131.307 203.874 131.499 203.722C131.699 203.57 131.935 203.458 132.207 203.386C132.479 203.306 132.771 203.266 133.083 203.266C133.587 203.266 134.007 203.354 134.343 203.53C134.687 203.706 134.987 203.95 135.243 204.262L134.607 204.838C134.471 204.646 134.271 204.474 134.007 204.322C133.743 204.162 133.411 204.082 133.011 204.082C132.611 204.082 132.307 204.17 132.099 204.346C131.899 204.514 131.799 204.746 131.799 205.042C131.799 205.346 131.899 205.566 132.099 205.702C132.307 205.838 132.603 205.938 132.987 206.002L133.467 206.074C134.155 206.178 134.643 206.378 134.931 206.674C135.219 206.962 135.363 207.342 135.363 207.814C135.363 208.414 135.159 208.886 134.751 209.23C134.343 209.574 133.783 209.746 133.071 209.746ZM139.787 209.746C139.363 209.746 138.979 209.67 138.635 209.518C138.299 209.366 138.007 209.15 137.759 208.87C137.519 208.582 137.331 208.242 137.195 207.85C137.067 207.45 137.003 207.002 137.003 206.506C137.003 206.018 137.067 205.574 137.195 205.174C137.331 204.774 137.519 204.434 137.759 204.154C138.007 203.866 138.299 203.646 138.635 203.494C138.979 203.342 139.363 203.266 139.787 203.266C140.203 203.266 140.575 203.342 140.903 203.494C141.231 203.646 141.511 203.858 141.743 204.13C141.975 204.394 142.151 204.71 142.271 205.078C142.399 205.446 142.463 205.85 142.463 206.29V206.746H138.011V207.034C138.011 207.298 138.051 207.546 138.131 207.778C138.219 208.002 138.339 208.198 138.491 208.366C138.651 208.534 138.843 208.666 139.067 208.762C139.299 208.858 139.559 208.906 139.847 208.906C140.239 208.906 140.579 208.814 140.867 208.63C141.163 208.446 141.391 208.182 141.551 207.838L142.235 208.33C142.035 208.754 141.723 209.098 141.299 209.362C140.875 209.618 140.371 209.746 139.787 209.746ZM139.787 204.07C139.523 204.07 139.283 204.118 139.067 204.214C138.851 204.302 138.663 204.43 138.503 204.598C138.351 204.766 138.231 204.966 138.143 205.198C138.055 205.422 138.011 205.67 138.011 205.942V206.026H141.431V205.894C141.431 205.342 141.279 204.902 140.975 204.574C140.679 204.238 140.283 204.07 139.787 204.07ZM144.445 200.722H145.405V206.35H145.453L146.401 205.294L148.153 203.41H149.317L147.025 205.858L149.545 209.602H148.381L146.329 206.446L145.405 207.394V209.602H144.445V200.722ZM154.989 203.41H155.937L153.165 211.042C153.093 211.226 153.021 211.378 152.949 211.498C152.877 211.626 152.789 211.726 152.685 211.798C152.581 211.87 152.449 211.922 152.289 211.954C152.137 211.986 151.949 212.002 151.725 212.002H151.233V211.162H152.205L152.673 209.842L150.357 203.41H151.317L152.805 207.622L153.093 208.63H153.153L153.489 207.622L154.989 203.41Z" fill="#4E4C82"/>
</g>
<g opacity="0.56">
<rect x="165.124" y="97.1123" width="59.3938" height="60.3938" rx="29.6969" fill="#4E4C82" fill-opacity="0.5"/>
</g>
<g clip-path="url(#clip5)">
<path d="M188.624 123.681V131.169H187.616V123.681H184.952V122.793H191.288V123.681H188.624ZM192.975 131.169V124.977H193.935V131.169H192.975ZM193.551 124.149L192.927 123.861L193.947 121.821L194.823 122.241L193.551 124.149ZM196.375 131.169V124.977H197.335V125.985H197.383C197.455 125.825 197.535 125.677 197.623 125.541C197.719 125.397 197.831 125.273 197.959 125.169C198.095 125.065 198.251 124.985 198.427 124.929C198.603 124.865 198.811 124.833 199.051 124.833C199.459 124.833 199.835 124.933 200.179 125.133C200.523 125.325 200.779 125.645 200.947 126.093H200.971C201.083 125.757 201.291 125.465 201.595 125.217C201.907 124.961 202.327 124.833 202.855 124.833C203.487 124.833 203.979 125.041 204.331 125.457C204.691 125.865 204.871 126.445 204.871 127.197V131.169H203.911V127.365C203.911 126.813 203.803 126.397 203.587 126.117C203.371 125.837 203.027 125.697 202.555 125.697C202.363 125.697 202.179 125.721 202.003 125.769C201.835 125.817 201.683 125.889 201.547 125.985C201.411 126.081 201.303 126.205 201.223 126.357C201.143 126.501 201.103 126.673 201.103 126.873V131.169H200.143V127.365C200.143 126.813 200.035 126.397 199.819 126.117C199.603 125.837 199.267 125.697 198.811 125.697C198.619 125.697 198.435 125.721 198.259 125.769C198.083 125.817 197.927 125.889 197.791 125.985C197.655 126.081 197.543 126.205 197.455 126.357C197.375 126.501 197.335 126.673 197.335 126.873V131.169H196.375Z" fill="white"/>
</g>
<g opacity="0.56">
<rect x="210.157" y="44.9619" width="52.7945" height="52.0746" rx="26.0373" fill="#4E4C82" fill-opacity="0.5"/>
</g>
<g clip-path="url(#clip6)">
<path d="M224.551 75.7797C223.871 75.7797 223.291 75.6517 222.811 75.3957C222.331 75.1317 221.923 74.7717 221.587 74.3157L222.331 73.6917C222.627 74.0837 222.955 74.3837 223.315 74.5917C223.675 74.7917 224.099 74.8917 224.587 74.8917C225.187 74.8917 225.643 74.7477 225.955 74.4597C226.275 74.1717 226.435 73.7877 226.435 73.3077C226.435 72.9077 226.315 72.5997 226.075 72.3837C225.835 72.1677 225.439 71.9957 224.887 71.8677L224.203 71.7117C223.435 71.5357 222.847 71.2717 222.439 70.9197C222.039 70.5597 221.839 70.0557 221.839 69.4077C221.839 69.0397 221.907 68.7117 222.043 68.4237C222.179 68.1357 222.367 67.8957 222.607 67.7037C222.855 67.5117 223.147 67.3677 223.483 67.2717C223.827 67.1677 224.203 67.1157 224.611 67.1157C225.243 67.1157 225.783 67.2317 226.231 67.4637C226.687 67.6957 227.071 68.0357 227.383 68.4837L226.627 69.0357C226.395 68.7157 226.115 68.4637 225.787 68.2797C225.459 68.0957 225.051 68.0037 224.563 68.0037C224.027 68.0037 223.603 68.1197 223.291 68.3517C222.987 68.5757 222.835 68.9157 222.835 69.3717C222.835 69.7717 222.963 70.0757 223.219 70.2837C223.483 70.4837 223.879 70.6437 224.407 70.7637L225.091 70.9197C225.915 71.1037 226.511 71.3837 226.879 71.7597C227.247 72.1357 227.431 72.6357 227.431 73.2597C227.431 73.6437 227.363 73.9917 227.227 74.3037C227.099 74.6157 226.911 74.8797 226.663 75.0957C226.415 75.3117 226.111 75.4797 225.751 75.5997C225.399 75.7197 224.999 75.7797 224.551 75.7797ZM223.951 66.4077L222.619 64.6917L223.147 64.3197L224.551 65.7237L225.955 64.3197L226.483 64.6917L225.151 66.4077H223.951ZM231.815 75.7797C231.399 75.7797 231.019 75.7037 230.675 75.5517C230.331 75.3997 230.035 75.1837 229.787 74.9037C229.547 74.6157 229.359 74.2757 229.223 73.8837C229.087 73.4837 229.019 73.0357 229.019 72.5397C229.019 72.0517 229.087 71.6077 229.223 71.2077C229.359 70.8077 229.547 70.4677 229.787 70.1877C230.035 69.8997 230.331 69.6797 230.675 69.5277C231.019 69.3757 231.399 69.2997 231.815 69.2997C232.231 69.2997 232.607 69.3757 232.943 69.5277C233.287 69.6797 233.583 69.8997 233.831 70.1877C234.079 70.4677 234.271 70.8077 234.407 71.2077C234.543 71.6077 234.611 72.0517 234.611 72.5397C234.611 73.0357 234.543 73.4837 234.407 73.8837C234.271 74.2757 234.079 74.6157 233.831 74.9037C233.583 75.1837 233.287 75.3997 232.943 75.5517C232.607 75.7037 232.231 75.7797 231.815 75.7797ZM231.815 74.9277C232.335 74.9277 232.759 74.7677 233.087 74.4477C233.415 74.1277 233.579 73.6397 233.579 72.9837V72.0957C233.579 71.4397 233.415 70.9517 233.087 70.6317C232.759 70.3117 232.335 70.1517 231.815 70.1517C231.295 70.1517 230.871 70.3117 230.543 70.6317C230.215 70.9517 230.051 71.4397 230.051 72.0957V72.9837C230.051 73.6397 230.215 74.1277 230.543 74.4477C230.871 74.7677 231.295 74.9277 231.815 74.9277ZM236.856 70.2837H235.848V69.4437H236.856V68.1957C236.856 67.7637 236.968 67.4157 237.192 67.1517C237.416 66.8877 237.756 66.7557 238.212 66.7557H239.148V67.5957H237.816V69.4437H239.148V70.2837H237.816V75.6357H236.856V70.2837ZM243.091 75.7797C242.667 75.7797 242.283 75.7037 241.939 75.5517C241.603 75.3997 241.311 75.1837 241.063 74.9037C240.823 74.6157 240.635 74.2757 240.499 73.8837C240.371 73.4837 240.307 73.0357 240.307 72.5397C240.307 72.0517 240.371 71.6077 240.499 71.2077C240.635 70.8077 240.823 70.4677 241.063 70.1877C241.311 69.8997 241.603 69.6797 241.939 69.5277C242.283 69.3757 242.667 69.2997 243.091 69.2997C243.507 69.2997 243.879 69.3757 244.207 69.5277C244.535 69.6797 244.815 69.8917 245.047 70.1637C245.279 70.4277 245.455 70.7437 245.575 71.1117C245.703 71.4797 245.767 71.8837 245.767 72.3237V72.7797H241.315V73.0677C241.315 73.3317 241.355 73.5797 241.435 73.8117C241.523 74.0357 241.643 74.2317 241.795 74.3997C241.955 74.5677 242.147 74.6997 242.371 74.7957C242.603 74.8917 242.863 74.9397 243.151 74.9397C243.543 74.9397 243.883 74.8477 244.171 74.6637C244.467 74.4797 244.695 74.2157 244.855 73.8717L245.539 74.3637C245.339 74.7877 245.027 75.1317 244.603 75.3957C244.179 75.6517 243.675 75.7797 243.091 75.7797ZM243.091 70.1037C242.827 70.1037 242.587 70.1517 242.371 70.2477C242.155 70.3357 241.967 70.4637 241.807 70.6317C241.655 70.7997 241.535 70.9997 241.447 71.2317C241.359 71.4557 241.315 71.7037 241.315 71.9757V72.0597H244.735V71.9277C244.735 71.3757 244.583 70.9357 244.279 70.6077C243.983 70.2717 243.587 70.1037 243.091 70.1037ZM243.187 68.6157L242.563 68.3277L243.583 66.2877L244.459 66.7077L243.187 68.6157ZM247.749 75.6357V69.4437H248.709V70.5837H248.769C248.881 70.2877 249.081 70.0237 249.369 69.7917C249.657 69.5597 250.053 69.4437 250.557 69.4437H250.929V70.4037H250.365C249.845 70.4037 249.437 70.5037 249.141 70.7037C248.853 70.8957 248.709 71.1397 248.709 71.4357V75.6357H247.749Z" fill="white"/>
</g>
<rect x="232.674" y="89.6631" width="120.507" height="118.788" rx="59.3938" fill="#4E4C82"/>
<g clip-path="url(#clip7)">
<path d="M261.102 152.551H261.066C260.962 152.943 260.706 153.271 260.298 153.535C259.898 153.791 259.378 153.919 258.738 153.919C258.226 153.919 257.754 153.827 257.322 153.643C256.898 153.451 256.534 153.175 256.23 152.815C255.926 152.447 255.686 151.995 255.51 151.459C255.342 150.915 255.258 150.291 255.258 149.587C255.258 148.891 255.342 148.275 255.51 147.739C255.678 147.195 255.918 146.743 256.23 146.383C256.542 146.015 256.918 145.735 257.358 145.543C257.798 145.351 258.286 145.255 258.822 145.255C259.574 145.255 260.202 145.423 260.706 145.759C261.21 146.095 261.598 146.539 261.87 147.091L261.042 147.595C260.85 147.147 260.562 146.795 260.178 146.539C259.802 146.283 259.35 146.155 258.822 146.155C258.454 146.155 258.118 146.223 257.814 146.359C257.51 146.487 257.246 146.671 257.022 146.911C256.806 147.151 256.638 147.439 256.518 147.775C256.398 148.111 256.338 148.487 256.338 148.903V150.259C256.338 150.675 256.398 151.055 256.518 151.399C256.638 151.735 256.806 152.023 257.022 152.263C257.246 152.503 257.518 152.691 257.838 152.827C258.158 152.955 258.518 153.019 258.918 153.019C259.206 153.019 259.478 152.983 259.734 152.911C259.998 152.831 260.226 152.715 260.418 152.563C260.618 152.411 260.774 152.223 260.886 151.999C260.998 151.767 261.054 151.495 261.054 151.183V150.355H259.206V149.467H262.038V153.775H261.102V152.551ZM264.421 153.775V145.399H267.757C268.509 145.399 269.085 145.615 269.485 146.047C269.893 146.471 270.097 147.055 270.097 147.799C270.097 148.543 269.893 149.131 269.485 149.563C269.085 149.987 268.509 150.199 267.757 150.199H265.429V153.775H264.421ZM265.429 149.311H267.757C268.157 149.311 268.465 149.207 268.681 148.999C268.905 148.791 269.017 148.495 269.017 148.111V147.487C269.017 147.103 268.905 146.807 268.681 146.599C268.465 146.391 268.157 146.287 267.757 146.287H265.429V149.311ZM274.451 153.919C273.771 153.919 273.191 153.791 272.711 153.535C272.231 153.271 271.823 152.911 271.487 152.455L272.231 151.831C272.527 152.223 272.855 152.523 273.215 152.731C273.575 152.931 273.999 153.031 274.487 153.031C275.087 153.031 275.543 152.887 275.855 152.599C276.175 152.311 276.335 151.927 276.335 151.447C276.335 151.047 276.215 150.739 275.975 150.523C275.735 150.307 275.339 150.135 274.787 150.007L274.103 149.851C273.335 149.675 272.747 149.411 272.339 149.059C271.939 148.699 271.739 148.195 271.739 147.547C271.739 147.179 271.807 146.851 271.943 146.563C272.079 146.275 272.267 146.035 272.507 145.843C272.755 145.651 273.047 145.507 273.383 145.411C273.727 145.307 274.103 145.255 274.511 145.255C275.143 145.255 275.683 145.371 276.131 145.603C276.587 145.835 276.971 146.175 277.283 146.623L276.527 147.175C276.295 146.855 276.015 146.603 275.687 146.419C275.359 146.235 274.951 146.143 274.463 146.143C273.927 146.143 273.503 146.259 273.191 146.491C272.887 146.715 272.735 147.055 272.735 147.511C272.735 147.911 272.863 148.215 273.119 148.423C273.383 148.623 273.779 148.783 274.307 148.903L274.991 149.059C275.815 149.243 276.411 149.523 276.779 149.899C277.147 150.275 277.331 150.775 277.331 151.399C277.331 151.783 277.263 152.131 277.127 152.443C276.999 152.755 276.811 153.019 276.563 153.235C276.315 153.451 276.011 153.619 275.651 153.739C275.299 153.859 274.899 153.919 274.451 153.919ZM285.527 146.287V153.775H284.519V146.287H281.855V145.399H288.191V146.287H285.527ZM289.339 153.775V147.583H290.299V148.723H290.359C290.471 148.427 290.671 148.163 290.959 147.931C291.247 147.699 291.643 147.583 292.147 147.583H292.519V148.543H291.955C291.435 148.543 291.027 148.643 290.731 148.843C290.443 149.035 290.299 149.279 290.299 149.575V153.775H289.339ZM298.599 153.775C298.239 153.775 297.979 153.679 297.819 153.487C297.667 153.295 297.571 153.055 297.531 152.767H297.471C297.335 153.151 297.111 153.439 296.799 153.631C296.487 153.823 296.115 153.919 295.683 153.919C295.027 153.919 294.515 153.751 294.147 153.415C293.787 153.079 293.607 152.623 293.607 152.047C293.607 151.463 293.819 151.015 294.243 150.703C294.675 150.391 295.343 150.235 296.247 150.235H297.471V149.623C297.471 149.183 297.351 148.847 297.111 148.615C296.871 148.383 296.503 148.267 296.007 148.267C295.631 148.267 295.315 148.351 295.059 148.519C294.811 148.687 294.603 148.911 294.435 149.191L293.859 148.651C294.027 148.315 294.295 148.031 294.663 147.799C295.031 147.559 295.495 147.439 296.055 147.439C296.807 147.439 297.391 147.623 297.807 147.991C298.223 148.359 298.431 148.871 298.431 149.527V152.935H299.139V153.775H298.599ZM295.839 153.103C296.079 153.103 296.299 153.075 296.499 153.019C296.699 152.963 296.871 152.883 297.015 152.779C297.159 152.675 297.271 152.555 297.351 152.419C297.431 152.283 297.471 152.135 297.471 151.975V150.955H296.199C295.647 150.955 295.243 151.035 294.987 151.195C294.739 151.355 294.615 151.587 294.615 151.891V152.143C294.615 152.447 294.723 152.683 294.939 152.851C295.163 153.019 295.463 153.103 295.839 153.103ZM303.213 153.919C302.781 153.919 302.393 153.843 302.049 153.691C301.705 153.539 301.413 153.323 301.173 153.043C300.941 152.763 300.761 152.423 300.633 152.023C300.513 151.623 300.453 151.175 300.453 150.679C300.453 150.183 300.513 149.735 300.633 149.335C300.761 148.935 300.941 148.595 301.173 148.315C301.413 148.035 301.705 147.819 302.049 147.667C302.393 147.515 302.781 147.439 303.213 147.439C303.829 147.439 304.321 147.575 304.689 147.847C305.065 148.111 305.345 148.459 305.529 148.891L304.725 149.299C304.613 148.979 304.429 148.731 304.173 148.555C303.917 148.379 303.597 148.291 303.213 148.291C302.925 148.291 302.673 148.339 302.457 148.435C302.241 148.523 302.061 148.651 301.917 148.819C301.773 148.979 301.665 149.175 301.593 149.407C301.521 149.631 301.485 149.879 301.485 150.151V151.207C301.485 151.751 301.629 152.199 301.917 152.551C302.213 152.895 302.645 153.067 303.213 153.067C303.989 153.067 304.549 152.707 304.893 151.987L305.589 152.455C305.389 152.903 305.089 153.259 304.689 153.523C304.297 153.787 303.805 153.919 303.213 153.919ZM307.344 144.895H308.304V150.523H308.352L309.3 149.467L311.052 147.583H312.216L309.924 150.031L312.444 153.775H311.28L309.228 150.619L308.304 151.567V153.775H307.344V144.895ZM314.552 146.131C314.344 146.131 314.192 146.083 314.096 145.987C314.008 145.883 313.964 145.751 313.964 145.591V145.435C313.964 145.275 314.008 145.147 314.096 145.051C314.192 144.947 314.344 144.895 314.552 144.895C314.76 144.895 314.908 144.947 314.996 145.051C315.092 145.147 315.14 145.275 315.14 145.435V145.591C315.14 145.751 315.092 145.883 314.996 145.987C314.908 146.083 314.76 146.131 314.552 146.131ZM314.072 147.583H315.032V153.775H314.072V147.583ZM317.472 153.775V147.583H318.432V148.591H318.48C318.632 148.239 318.844 147.959 319.116 147.751C319.396 147.543 319.768 147.439 320.232 147.439C320.872 147.439 321.376 147.647 321.744 148.063C322.12 148.471 322.308 149.051 322.308 149.803V153.775H321.348V149.971C321.348 148.859 320.88 148.303 319.944 148.303C319.752 148.303 319.564 148.327 319.38 148.375C319.204 148.423 319.044 148.495 318.9 148.591C318.756 148.687 318.64 148.811 318.552 148.963C318.472 149.107 318.432 149.279 318.432 149.479V153.775H317.472ZM329.912 154.459C329.912 155.099 329.66 155.567 329.156 155.863C328.66 156.167 327.912 156.319 326.912 156.319C325.944 156.319 325.248 156.187 324.824 155.923C324.4 155.659 324.188 155.283 324.188 154.795C324.188 154.459 324.276 154.195 324.452 154.003C324.628 153.819 324.868 153.683 325.172 153.595V153.463C324.804 153.287 324.62 152.999 324.62 152.599C324.62 152.287 324.72 152.051 324.92 151.891C325.12 151.723 325.376 151.599 325.688 151.519V151.471C325.32 151.295 325.032 151.043 324.824 150.715C324.624 150.387 324.524 150.007 324.524 149.575C324.524 149.263 324.58 148.975 324.692 148.711C324.804 148.447 324.96 148.223 325.16 148.039C325.368 147.847 325.612 147.699 325.892 147.595C326.18 147.491 326.5 147.439 326.852 147.439C327.292 147.439 327.684 147.519 328.028 147.679V147.571C328.028 147.331 328.084 147.135 328.196 146.983C328.308 146.823 328.492 146.743 328.748 146.743H329.672V147.583H328.496V147.979C328.72 148.171 328.892 148.403 329.012 148.675C329.14 148.939 329.204 149.239 329.204 149.575C329.204 149.887 329.148 150.175 329.036 150.439C328.924 150.703 328.764 150.931 328.556 151.123C328.356 151.307 328.112 151.451 327.824 151.555C327.536 151.659 327.216 151.711 326.864 151.711C326.664 151.711 326.464 151.691 326.264 151.651C326.056 151.707 325.868 151.791 325.7 151.903C325.532 152.007 325.448 152.155 325.448 152.347C325.448 152.531 325.536 152.655 325.712 152.719C325.888 152.783 326.116 152.815 326.396 152.815H327.716C328.484 152.815 329.04 152.963 329.384 153.259C329.736 153.547 329.912 153.947 329.912 154.459ZM329.012 154.531C329.012 154.283 328.916 154.083 328.724 153.931C328.54 153.787 328.208 153.715 327.728 153.715H325.664C325.28 153.891 325.088 154.171 325.088 154.555C325.088 154.827 325.188 155.059 325.388 155.251C325.596 155.443 325.944 155.539 326.432 155.539H327.32C327.856 155.539 328.272 155.455 328.568 155.287C328.864 155.119 329.012 154.867 329.012 154.531ZM326.864 150.943C327.272 150.943 327.596 150.847 327.836 150.655C328.076 150.455 328.196 150.151 328.196 149.743V149.407C328.196 148.999 328.076 148.699 327.836 148.507C327.596 148.307 327.272 148.207 326.864 148.207C326.456 148.207 326.132 148.307 325.892 148.507C325.652 148.699 325.532 148.999 325.532 149.407V149.743C325.532 150.151 325.652 150.455 325.892 150.655C326.132 150.847 326.456 150.943 326.864 150.943Z" fill="white"/>
</g>
<g opacity="0.24">
<rect x="105.079" y="104.563" width="52.7945" height="52.0746" rx="26.0373" fill="#4E4C82" fill-opacity="0.5"/>
</g>
<g clip-path="url(#clip8)">
<path d="M116.528 135.238V126.862H121.52V127.75H117.536V130.558H121.172V131.446H117.536V135.238H116.528ZM125.571 135.382C125.155 135.382 124.775 135.306 124.431 135.154C124.087 135.002 123.791 134.786 123.543 134.506C123.303 134.218 123.115 133.878 122.979 133.486C122.843 133.086 122.775 132.638 122.775 132.142C122.775 131.654 122.843 131.21 122.979 130.81C123.115 130.41 123.303 130.07 123.543 129.79C123.791 129.502 124.087 129.282 124.431 129.13C124.775 128.978 125.155 128.902 125.571 128.902C125.987 128.902 126.363 128.978 126.699 129.13C127.043 129.282 127.339 129.502 127.587 129.79C127.835 130.07 128.027 130.41 128.163 130.81C128.299 131.21 128.367 131.654 128.367 132.142C128.367 132.638 128.299 133.086 128.163 133.486C128.027 133.878 127.835 134.218 127.587 134.506C127.339 134.786 127.043 135.002 126.699 135.154C126.363 135.306 125.987 135.382 125.571 135.382ZM125.571 134.53C126.091 134.53 126.515 134.37 126.843 134.05C127.171 133.73 127.335 133.242 127.335 132.586V131.698C127.335 131.042 127.171 130.554 126.843 130.234C126.515 129.914 126.091 129.754 125.571 129.754C125.051 129.754 124.627 129.914 124.299 130.234C123.971 130.554 123.807 131.042 123.807 131.698V132.586C123.807 133.242 123.971 133.73 124.299 134.05C124.627 134.37 125.051 134.53 125.571 134.53ZM131.714 135.238C131.378 135.238 131.122 135.146 130.946 134.962C130.778 134.77 130.694 134.522 130.694 134.218V129.886H129.674V129.046H130.25C130.458 129.046 130.598 129.006 130.67 128.926C130.75 128.838 130.79 128.69 130.79 128.482V127.33H131.654V129.046H133.01V129.886H131.654V134.398H132.914V135.238H131.714ZM134.953 126.358H135.913V131.986H135.961L136.909 130.93L138.661 129.046H139.825L137.533 131.494L140.053 135.238H138.889L136.837 132.082L135.913 133.03V135.238H134.953V126.358ZM145.497 129.046H146.445L143.673 136.678C143.601 136.862 143.529 137.014 143.457 137.134C143.385 137.262 143.297 137.362 143.193 137.434C143.089 137.506 142.957 137.558 142.797 137.59C142.645 137.622 142.457 137.638 142.233 137.638H141.741V136.798H142.713L143.181 135.478L140.865 129.046H141.825L143.313 133.258L143.601 134.266H143.661L143.997 133.258L145.497 129.046Z" fill="#4E4C82"/>
</g>
<defs>
<clipPath id="clip0">
<rect width="74.0939" height="73.5449" fill="white" transform="translate(19.2454 153.466)"/>
</clipPath>
<clipPath id="clip1">
<rect width="87.5656" height="86.9167" fill="white" transform="translate(5.00366 49.9287)"/>
</clipPath>
<clipPath id="clip2">
<rect width="87.5656" height="86.9167" fill="white" transform="translate(110.083 5.22949)"/>
</clipPath>
<clipPath id="clip3">
<rect width="74.0939" height="73.5449" fill="white" transform="translate(184.369 220.515)"/>
</clipPath>
<clipPath id="clip4">
<rect width="60.6223" height="60.1731" fill="white" transform="translate(108.543 167.602)"/>
</clipPath>
<clipPath id="clip5">
<rect width="53.8865" height="53.4872" fill="white" transform="translate(168.203 100.169)"/>
</clipPath>
<clipPath id="clip6">
<rect width="47.1507" height="46.8013" fill="white" transform="translate(212.852 47.6357)"/>
</clipPath>
<clipPath id="clip7">
<rect width="107.773" height="106.974" fill="white" transform="translate(238.833 95.7754)"/>
</clipPath>
<clipPath id="clip8">
<rect width="47.1507" height="46.8013" fill="white" transform="translate(107.773 107.238)"/>
</clipPath>
</defs>
</svg>
