<svg width="354" height="299" viewBox="0 0 354 299" fill="none" xmlns="http://www.w3.org/2000/svg">
<g opacity="0.56">
<rect x="15.0115" y="149.264" width="82.6314" height="81.6314" rx="40.8157" fill="#4E4C82" fill-opacity="0.5"/>
</g>
<g clip-path="url(#clip0)">
<path d="M40.1648 195.61C39.4848 195.61 38.9048 195.482 38.4248 195.226C37.9448 194.962 37.5368 194.602 37.2008 194.146L37.9448 193.522C38.2408 193.914 38.5688 194.214 38.9288 194.422C39.2888 194.622 39.7128 194.722 40.2008 194.722C40.8008 194.722 41.2568 194.578 41.5688 194.29C41.8888 194.002 42.0488 193.618 42.0488 193.138C42.0488 192.738 41.9288 192.43 41.6888 192.214C41.4488 191.998 41.0528 191.826 40.5008 191.698L39.8168 191.542C39.0488 191.366 38.4608 191.102 38.0528 190.75C37.6528 190.39 37.4528 189.886 37.4528 189.238C37.4528 188.87 37.5208 188.542 37.6568 188.254C37.7928 187.966 37.9808 187.726 38.2208 187.534C38.4688 187.342 38.7608 187.198 39.0968 187.102C39.4408 186.998 39.8168 186.946 40.2248 186.946C40.8568 186.946 41.3968 187.062 41.8448 187.294C42.3008 187.526 42.6848 187.866 42.9968 188.314L42.2408 188.866C42.0088 188.546 41.7288 188.294 41.4008 188.11C41.0728 187.926 40.6648 187.834 40.1768 187.834C39.6408 187.834 39.2168 187.95 38.9048 188.182C38.6008 188.406 38.4488 188.746 38.4488 189.202C38.4488 189.602 38.5768 189.906 38.8328 190.114C39.0968 190.314 39.4928 190.474 40.0208 190.594L40.7048 190.75C41.5288 190.934 42.1248 191.214 42.4928 191.59C42.8608 191.966 43.0448 192.466 43.0448 193.09C43.0448 193.474 42.9768 193.822 42.8408 194.134C42.7128 194.446 42.5248 194.71 42.2768 194.926C42.0288 195.142 41.7248 195.31 41.3648 195.43C41.0128 195.55 40.6128 195.61 40.1648 195.61ZM49.0495 194.458H49.0015C48.6255 195.226 48.0215 195.61 47.1895 195.61C46.8055 195.61 46.4575 195.534 46.1455 195.382C45.8335 195.23 45.5655 195.014 45.3415 194.734C45.1255 194.454 44.9575 194.114 44.8375 193.714C44.7255 193.314 44.6695 192.866 44.6695 192.37C44.6695 191.874 44.7255 191.426 44.8375 191.026C44.9575 190.626 45.1255 190.286 45.3415 190.006C45.5655 189.726 45.8335 189.51 46.1455 189.358C46.4575 189.206 46.8055 189.13 47.1895 189.13C47.6215 189.13 47.9895 189.226 48.2935 189.418C48.6055 189.602 48.8415 189.89 49.0015 190.282H49.0495V186.586H50.0095V195.466H49.0495V194.458ZM47.4535 194.746C47.6695 194.746 47.8735 194.718 48.0655 194.662C48.2655 194.606 48.4375 194.526 48.5815 194.422C48.7255 194.31 48.8375 194.178 48.9175 194.026C49.0055 193.866 49.0495 193.686 49.0495 193.486V191.182C49.0495 191.014 49.0055 190.858 48.9175 190.714C48.8375 190.562 48.7255 190.434 48.5815 190.33C48.4375 190.226 48.2655 190.146 48.0655 190.09C47.8735 190.026 47.6695 189.994 47.4535 189.994C46.9095 189.994 46.4815 190.166 46.1695 190.51C45.8575 190.846 45.7015 191.29 45.7015 191.842V192.898C45.7015 193.45 45.8575 193.898 46.1695 194.242C46.4815 194.578 46.9095 194.746 47.4535 194.746ZM52.4504 195.466V189.274H53.4104V195.466H52.4504ZM53.0264 188.446L52.4024 188.158L53.4224 186.118L54.2984 186.538L53.0264 188.446ZM56.8704 195.466C56.5344 195.466 56.2784 195.374 56.1024 195.19C55.9344 194.998 55.8504 194.758 55.8504 194.47V186.586H56.8104V194.626H57.7224V195.466H56.8704ZM61.8479 195.61C61.4239 195.61 61.0399 195.534 60.6959 195.382C60.3599 195.23 60.0679 195.014 59.8199 194.734C59.5799 194.446 59.3919 194.106 59.2559 193.714C59.1279 193.314 59.0639 192.866 59.0639 192.37C59.0639 191.882 59.1279 191.438 59.2559 191.038C59.3919 190.638 59.5799 190.298 59.8199 190.018C60.0679 189.73 60.3599 189.51 60.6959 189.358C61.0399 189.206 61.4239 189.13 61.8479 189.13C62.2639 189.13 62.6359 189.206 62.9639 189.358C63.2919 189.51 63.5719 189.722 63.8039 189.994C64.0359 190.258 64.2119 190.574 64.3319 190.942C64.4599 191.31 64.5239 191.714 64.5239 192.154V192.61H60.0719V192.898C60.0719 193.162 60.1119 193.41 60.1919 193.642C60.2799 193.866 60.3999 194.062 60.5519 194.23C60.7119 194.398 60.9039 194.53 61.1279 194.626C61.3599 194.722 61.6199 194.77 61.9079 194.77C62.2999 194.77 62.6399 194.678 62.9279 194.494C63.2239 194.31 63.4519 194.046 63.6119 193.702L64.2959 194.194C64.0959 194.618 63.7839 194.962 63.3599 195.226C62.9359 195.482 62.4319 195.61 61.8479 195.61ZM61.8479 189.934C61.5839 189.934 61.3439 189.982 61.1279 190.078C60.9119 190.166 60.7239 190.294 60.5639 190.462C60.4119 190.63 60.2919 190.83 60.2039 191.062C60.1159 191.286 60.0719 191.534 60.0719 191.806V191.89H63.4919V191.758C63.4919 191.206 63.3399 190.766 63.0359 190.438C62.7399 190.102 62.3439 189.934 61.8479 189.934ZM66.5059 195.466V189.274H67.4659V190.282H67.5139C67.6659 189.93 67.8779 189.65 68.1499 189.442C68.4299 189.234 68.8019 189.13 69.2659 189.13C69.9059 189.13 70.4099 189.338 70.7779 189.754C71.1539 190.162 71.3419 190.742 71.3419 191.494V195.466H70.3819V191.662C70.3819 190.55 69.9139 189.994 68.9779 189.994C68.7859 189.994 68.5979 190.018 68.4139 190.066C68.2379 190.114 68.0779 190.186 67.9339 190.282C67.7899 190.378 67.6739 190.502 67.5859 190.654C67.5059 190.798 67.4659 190.97 67.4659 191.17V195.466H66.5059ZM73.7262 195.466V189.274H74.6862V195.466H73.7262ZM74.3022 188.446L73.6782 188.158L74.6982 186.118L75.5742 186.538L74.3022 188.446Z" fill="white"/>
</g>
<g opacity="0.56">
<rect y="44.9619" width="98.2698" height="96.5499" rx="48.2749" fill="#4E4C82" fill-opacity="0.5"/>
</g>
<g clip-path="url(#clip1)">
<path d="M39.5818 98.0727C38.5178 98.0727 37.6898 97.7127 37.0978 96.9927C36.5058 96.2647 36.2098 95.1967 36.2098 93.7887C36.2098 92.3807 36.5058 91.3007 37.0978 90.5487C37.6898 89.7887 38.5178 89.4087 39.5818 89.4087C40.2858 89.4087 40.8738 89.5687 41.3458 89.8887C41.8258 90.2087 42.1978 90.6607 42.4618 91.2447L41.6458 91.7367C41.4778 91.3047 41.2218 90.9607 40.8778 90.7047C40.5338 90.4407 40.1018 90.3087 39.5818 90.3087C39.2218 90.3087 38.8978 90.3767 38.6098 90.5127C38.3298 90.6487 38.0898 90.8447 37.8898 91.1007C37.6978 91.3487 37.5498 91.6487 37.4458 92.0007C37.3418 92.3447 37.2898 92.7327 37.2898 93.1647V94.4127C37.2898 95.2767 37.4898 95.9527 37.8898 96.4407C38.2898 96.9287 38.8538 97.1727 39.5818 97.1727C40.1178 97.1727 40.5658 97.0367 40.9258 96.7647C41.2858 96.4847 41.5498 96.1167 41.7178 95.6607L42.5218 96.1647C42.2578 96.7567 41.8778 97.2247 41.3818 97.5687C40.8858 97.9047 40.2858 98.0727 39.5818 98.0727ZM44.3869 89.0487H45.3469V92.7447H45.3949C45.5469 92.3927 45.7589 92.1127 46.0309 91.9047C46.3109 91.6967 46.6829 91.5927 47.1469 91.5927C47.7869 91.5927 48.2909 91.8007 48.6589 92.2167C49.0349 92.6247 49.2229 93.2047 49.2229 93.9567V97.9287H48.2629V94.1247C48.2629 93.0127 47.7949 92.4567 46.8589 92.4567C46.6669 92.4567 46.4789 92.4807 46.2949 92.5287C46.1189 92.5767 45.9589 92.6487 45.8149 92.7447C45.6709 92.8407 45.5549 92.9647 45.4669 93.1167C45.3869 93.2607 45.3469 93.4327 45.3469 93.6327V97.9287H44.3869V89.0487ZM56.1072 97.9287C55.7472 97.9287 55.4872 97.8327 55.3272 97.6407C55.1752 97.4487 55.0792 97.2087 55.0392 96.9207H54.9792C54.8432 97.3047 54.6192 97.5927 54.3072 97.7847C53.9952 97.9767 53.6232 98.0727 53.1912 98.0727C52.5352 98.0727 52.0232 97.9047 51.6552 97.5687C51.2952 97.2327 51.1152 96.7767 51.1152 96.2007C51.1152 95.6167 51.3272 95.1687 51.7512 94.8567C52.1832 94.5447 52.8512 94.3887 53.7552 94.3887H54.9792V93.7767C54.9792 93.3367 54.8592 93.0007 54.6192 92.7687C54.3792 92.5367 54.0112 92.4207 53.5152 92.4207C53.1392 92.4207 52.8232 92.5047 52.5672 92.6727C52.3192 92.8407 52.1112 93.0647 51.9432 93.3447L51.3672 92.8047C51.5352 92.4687 51.8032 92.1847 52.1712 91.9527C52.5392 91.7127 53.0032 91.5927 53.5632 91.5927C54.3152 91.5927 54.8992 91.7767 55.3152 92.1447C55.7312 92.5127 55.9392 93.0247 55.9392 93.6807V97.0887H56.6472V97.9287H56.1072ZM53.3472 97.2567C53.5872 97.2567 53.8072 97.2287 54.0072 97.1727C54.2072 97.1167 54.3792 97.0367 54.5232 96.9327C54.6672 96.8287 54.7792 96.7087 54.8592 96.5727C54.9392 96.4367 54.9792 96.2887 54.9792 96.1287V95.1087H53.7072C53.1552 95.1087 52.7512 95.1887 52.4952 95.3487C52.2472 95.5087 52.1232 95.7407 52.1232 96.0447V96.2967C52.1232 96.6007 52.2312 96.8367 52.4472 97.0047C52.6712 97.1727 52.9712 97.2567 53.3472 97.2567ZM59.7854 97.9287C59.4494 97.9287 59.1934 97.8367 59.0174 97.6527C58.8494 97.4607 58.7654 97.2127 58.7654 96.9087V92.5767H57.7454V91.7367H58.3214C58.5294 91.7367 58.6694 91.6967 58.7414 91.6167C58.8214 91.5287 58.8614 91.3807 58.8614 91.1727V90.0207H59.7254V91.7367H61.0814V92.5767H59.7254V97.0887H60.9854V97.9287H59.7854Z" fill="white"/>
</g>
<g opacity="0.24">
<rect x="105.079" y="0.262695" width="98.2698" height="96.5499" rx="48.2749" fill="#4E4C82" fill-opacity="0.5"/>
</g>
<g clip-path="url(#clip2)">
<path d="M127.959 48.1175L126.951 46.2575H126.915V53.2295H125.931V44.8535H127.095L130.155 49.9655L131.163 51.8255H131.199V44.8535H132.183V53.2295H131.019L127.959 48.1175ZM137.06 53.3735C136.644 53.3735 136.264 53.2975 135.92 53.1455C135.576 52.9935 135.28 52.7775 135.032 52.4975C134.792 52.2095 134.604 51.8695 134.468 51.4775C134.332 51.0775 134.264 50.6295 134.264 50.1335C134.264 49.6455 134.332 49.2015 134.468 48.8015C134.604 48.4015 134.792 48.0615 135.032 47.7815C135.28 47.4935 135.576 47.2735 135.92 47.1215C136.264 46.9695 136.644 46.8935 137.06 46.8935C137.476 46.8935 137.852 46.9695 138.188 47.1215C138.532 47.2735 138.828 47.4935 139.076 47.7815C139.324 48.0615 139.516 48.4015 139.652 48.8015C139.788 49.2015 139.856 49.6455 139.856 50.1335C139.856 50.6295 139.788 51.0775 139.652 51.4775C139.516 51.8695 139.324 52.2095 139.076 52.4975C138.828 52.7775 138.532 52.9935 138.188 53.1455C137.852 53.2975 137.476 53.3735 137.06 53.3735ZM137.06 52.5215C137.58 52.5215 138.004 52.3615 138.332 52.0415C138.66 51.7215 138.824 51.2335 138.824 50.5775V49.6895C138.824 49.0335 138.66 48.5455 138.332 48.2255C138.004 47.9055 137.58 47.7455 137.06 47.7455C136.54 47.7455 136.116 47.9055 135.788 48.2255C135.46 48.5455 135.296 49.0335 135.296 49.6895V50.5775C135.296 51.2335 135.46 51.7215 135.788 52.0415C136.116 52.3615 136.54 52.5215 137.06 52.5215ZM143.203 53.2295C142.867 53.2295 142.611 53.1375 142.435 52.9535C142.267 52.7615 142.183 52.5135 142.183 52.2095V47.8775H141.163V47.0375H141.739C141.947 47.0375 142.087 46.9975 142.159 46.9175C142.239 46.8295 142.279 46.6815 142.279 46.4735V45.3215H143.143V47.0375H144.499V47.8775H143.143V52.3895H144.403V53.2295H143.203ZM146.922 45.5855C146.714 45.5855 146.562 45.5375 146.466 45.4415C146.378 45.3375 146.334 45.2055 146.334 45.0455V44.8895C146.334 44.7295 146.378 44.6015 146.466 44.5055C146.562 44.4015 146.714 44.3495 146.922 44.3495C147.13 44.3495 147.278 44.4015 147.366 44.5055C147.462 44.6015 147.51 44.7295 147.51 44.8895V45.0455C147.51 45.2055 147.462 45.3375 147.366 45.4415C147.278 45.5375 147.13 45.5855 146.922 45.5855ZM146.442 47.0375H147.402V53.2295H146.442V47.0375ZM150.178 47.8775H149.17V47.0375H150.178V45.7895C150.178 45.3575 150.29 45.0095 150.514 44.7455C150.738 44.4815 151.078 44.3495 151.534 44.3495H152.47V45.1895H151.138V47.0375H154.606V53.2295H153.646V47.8775H151.138V53.2295H150.178V47.8775ZM154.126 45.5855C153.918 45.5855 153.766 45.5375 153.67 45.4415C153.582 45.3375 153.538 45.2055 153.538 45.0455V44.8895C153.538 44.7295 153.582 44.6015 153.67 44.5055C153.766 44.4015 153.918 44.3495 154.126 44.3495C154.334 44.3495 154.482 44.4015 154.57 44.5055C154.666 44.6015 154.714 44.7295 154.714 44.8895V45.0455C154.714 45.2055 154.666 45.3375 154.57 45.4415C154.482 45.5375 154.334 45.5855 154.126 45.5855ZM157.05 44.3495H158.01V49.9775H158.058L159.006 48.9215L160.758 47.0375H161.922L159.63 49.4855L162.15 53.2295H160.986L158.934 50.0735L158.01 51.0215V53.2295H157.05V44.3495ZM168.22 53.2295C167.86 53.2295 167.6 53.1335 167.44 52.9415C167.288 52.7495 167.192 52.5095 167.152 52.2215H167.092C166.956 52.6055 166.732 52.8935 166.42 53.0855C166.108 53.2775 165.736 53.3735 165.304 53.3735C164.648 53.3735 164.136 53.2055 163.768 52.8695C163.408 52.5335 163.228 52.0775 163.228 51.5015C163.228 50.9175 163.44 50.4695 163.864 50.1575C164.296 49.8455 164.964 49.6895 165.868 49.6895H167.092V49.0775C167.092 48.6375 166.972 48.3015 166.732 48.0695C166.492 47.8375 166.124 47.7215 165.628 47.7215C165.252 47.7215 164.936 47.8055 164.68 47.9735C164.432 48.1415 164.224 48.3655 164.056 48.6455L163.48 48.1055C163.648 47.7695 163.916 47.4855 164.284 47.2535C164.652 47.0135 165.116 46.8935 165.676 46.8935C166.428 46.8935 167.012 47.0775 167.428 47.4455C167.844 47.8135 168.052 48.3255 168.052 48.9815V52.3895H168.76V53.2295H168.22ZM165.46 52.5575C165.7 52.5575 165.92 52.5295 166.12 52.4735C166.32 52.4175 166.492 52.3375 166.636 52.2335C166.78 52.1295 166.892 52.0095 166.972 51.8735C167.052 51.7375 167.092 51.5895 167.092 51.4295V50.4095H165.82C165.268 50.4095 164.864 50.4895 164.608 50.6495C164.36 50.8095 164.236 51.0415 164.236 51.3455V51.5975C164.236 51.9015 164.344 52.1375 164.56 52.3055C164.784 52.4735 165.084 52.5575 165.46 52.5575ZM172.834 53.3735C172.402 53.3735 172.014 53.2975 171.67 53.1455C171.326 52.9935 171.034 52.7775 170.794 52.4975C170.562 52.2175 170.382 51.8775 170.254 51.4775C170.134 51.0775 170.074 50.6295 170.074 50.1335C170.074 49.6375 170.134 49.1895 170.254 48.7895C170.382 48.3895 170.562 48.0495 170.794 47.7695C171.034 47.4895 171.326 47.2735 171.67 47.1215C172.014 46.9695 172.402 46.8935 172.834 46.8935C173.45 46.8935 173.942 47.0295 174.31 47.3015C174.686 47.5655 174.966 47.9135 175.15 48.3455L174.346 48.7535C174.234 48.4335 174.05 48.1855 173.794 48.0095C173.538 47.8335 173.218 47.7455 172.834 47.7455C172.546 47.7455 172.294 47.7935 172.078 47.8895C171.862 47.9775 171.682 48.1055 171.538 48.2735C171.394 48.4335 171.286 48.6295 171.214 48.8615C171.142 49.0855 171.106 49.3335 171.106 49.6055V50.6615C171.106 51.2055 171.25 51.6535 171.538 52.0055C171.834 52.3495 172.266 52.5215 172.834 52.5215C173.61 52.5215 174.17 52.1615 174.514 51.4415L175.21 51.9095C175.01 52.3575 174.71 52.7135 174.31 52.9775C173.918 53.2415 173.426 53.3735 172.834 53.3735ZM179.223 53.3735C178.799 53.3735 178.415 53.2975 178.071 53.1455C177.735 52.9935 177.443 52.7775 177.195 52.4975C176.955 52.2095 176.767 51.8695 176.631 51.4775C176.503 51.0775 176.439 50.6295 176.439 50.1335C176.439 49.6455 176.503 49.2015 176.631 48.8015C176.767 48.4015 176.955 48.0615 177.195 47.7815C177.443 47.4935 177.735 47.2735 178.071 47.1215C178.415 46.9695 178.799 46.8935 179.223 46.8935C179.639 46.8935 180.011 46.9695 180.339 47.1215C180.667 47.2735 180.947 47.4855 181.179 47.7575C181.411 48.0215 181.587 48.3375 181.707 48.7055C181.835 49.0735 181.899 49.4775 181.899 49.9175V50.3735H177.447V50.6615C177.447 50.9255 177.487 51.1735 177.567 51.4055C177.655 51.6295 177.775 51.8255 177.927 51.9935C178.087 52.1615 178.279 52.2935 178.503 52.3895C178.735 52.4855 178.995 52.5335 179.283 52.5335C179.675 52.5335 180.015 52.4415 180.303 52.2575C180.599 52.0735 180.827 51.8095 180.987 51.4655L181.671 51.9575C181.471 52.3815 181.159 52.7255 180.735 52.9895C180.311 53.2455 179.807 53.3735 179.223 53.3735ZM179.223 47.6975C178.959 47.6975 178.719 47.7455 178.503 47.8415C178.287 47.9295 178.099 48.0575 177.939 48.2255C177.787 48.3935 177.667 48.5935 177.579 48.8255C177.491 49.0495 177.447 49.2975 177.447 49.5695V49.6535H180.867V49.5215C180.867 48.9695 180.715 48.5295 180.411 48.2015C180.115 47.8655 179.719 47.6975 179.223 47.6975Z" fill="#4E4C82"/>
</g>
<g opacity="0.56">
<rect x="180.135" y="216.312" width="82.6314" height="81.6314" rx="40.8157" fill="#4E4C82" fill-opacity="0.5"/>
</g>
<g clip-path="url(#clip3)">
<path d="M188.901 262.515V254.139H192.237C192.989 254.139 193.565 254.355 193.965 254.787C194.373 255.211 194.577 255.795 194.577 256.539C194.577 257.283 194.373 257.871 193.965 258.303C193.565 258.727 192.989 258.939 192.237 258.939H189.909V262.515H188.901ZM189.909 258.051H192.237C192.637 258.051 192.945 257.947 193.161 257.739C193.385 257.531 193.497 257.235 193.497 256.851V256.227C193.497 255.843 193.385 255.547 193.161 255.339C192.945 255.131 192.637 255.027 192.237 255.027H189.909V258.051ZM198.588 262.659C198.172 262.659 197.792 262.583 197.448 262.431C197.104 262.279 196.808 262.063 196.56 261.783C196.32 261.495 196.132 261.155 195.996 260.763C195.86 260.363 195.792 259.915 195.792 259.419C195.792 258.931 195.86 258.487 195.996 258.087C196.132 257.687 196.32 257.347 196.56 257.067C196.808 256.779 197.104 256.559 197.448 256.407C197.792 256.255 198.172 256.179 198.588 256.179C199.004 256.179 199.38 256.255 199.716 256.407C200.06 256.559 200.356 256.779 200.604 257.067C200.852 257.347 201.044 257.687 201.18 258.087C201.316 258.487 201.384 258.931 201.384 259.419C201.384 259.915 201.316 260.363 201.18 260.763C201.044 261.155 200.852 261.495 200.604 261.783C200.356 262.063 200.06 262.279 199.716 262.431C199.38 262.583 199.004 262.659 198.588 262.659ZM198.588 261.807C199.108 261.807 199.532 261.647 199.86 261.327C200.188 261.007 200.352 260.519 200.352 259.863V258.975C200.352 258.319 200.188 257.831 199.86 257.511C199.532 257.191 199.108 257.031 198.588 257.031C198.068 257.031 197.644 257.191 197.316 257.511C196.988 257.831 196.824 258.319 196.824 258.975V259.863C196.824 260.519 196.988 261.007 197.316 261.327C197.644 261.647 198.068 261.807 198.588 261.807ZM207.323 261.507H207.275C206.899 262.275 206.295 262.659 205.463 262.659C205.079 262.659 204.731 262.583 204.419 262.431C204.107 262.279 203.839 262.063 203.615 261.783C203.399 261.503 203.231 261.163 203.111 260.763C202.999 260.363 202.943 259.915 202.943 259.419C202.943 258.923 202.999 258.475 203.111 258.075C203.231 257.675 203.399 257.335 203.615 257.055C203.839 256.775 204.107 256.559 204.419 256.407C204.731 256.255 205.079 256.179 205.463 256.179C205.895 256.179 206.263 256.275 206.567 256.467C206.879 256.651 207.115 256.939 207.275 257.331H207.323V253.635H208.283V262.515H207.323V261.507ZM205.727 261.795C205.943 261.795 206.147 261.767 206.339 261.711C206.539 261.655 206.711 261.575 206.855 261.471C206.999 261.359 207.111 261.227 207.191 261.075C207.279 260.915 207.323 260.735 207.323 260.535V258.231C207.323 258.063 207.279 257.907 207.191 257.763C207.111 257.611 206.999 257.483 206.855 257.379C206.711 257.275 206.539 257.195 206.339 257.139C206.147 257.075 205.943 257.043 205.727 257.043C205.183 257.043 204.755 257.215 204.443 257.559C204.131 257.895 203.975 258.339 203.975 258.891V259.947C203.975 260.499 204.131 260.947 204.443 261.291C204.755 261.627 205.183 261.795 205.727 261.795ZM210.724 256.323H211.684V257.331H211.732C211.892 256.939 212.124 256.651 212.428 256.467C212.74 256.275 213.112 256.179 213.544 256.179C213.928 256.179 214.276 256.255 214.588 256.407C214.9 256.559 215.164 256.775 215.38 257.055C215.604 257.335 215.772 257.675 215.884 258.075C216.004 258.475 216.064 258.923 216.064 259.419C216.064 259.915 216.004 260.363 215.884 260.763C215.772 261.163 215.604 261.503 215.38 261.783C215.164 262.063 214.9 262.279 214.588 262.431C214.276 262.583 213.928 262.659 213.544 262.659C212.704 262.659 212.1 262.275 211.732 261.507H211.684V264.915H210.724V256.323ZM213.28 261.795C213.824 261.795 214.252 261.627 214.564 261.291C214.876 260.947 215.032 260.499 215.032 259.947V258.891C215.032 258.339 214.876 257.895 214.564 257.559C214.252 257.215 213.824 257.043 213.28 257.043C213.064 257.043 212.856 257.075 212.656 257.139C212.464 257.195 212.296 257.275 212.152 257.379C212.008 257.483 211.892 257.611 211.804 257.763C211.724 257.907 211.684 258.063 211.684 258.231V260.535C211.684 260.735 211.724 260.915 211.804 261.075C211.892 261.227 212.008 261.359 212.152 261.471C212.296 261.575 212.464 261.655 212.656 261.711C212.856 261.767 213.064 261.795 213.28 261.795ZM220.424 262.659C220.008 262.659 219.628 262.583 219.284 262.431C218.94 262.279 218.644 262.063 218.396 261.783C218.156 261.495 217.968 261.155 217.832 260.763C217.696 260.363 217.628 259.915 217.628 259.419C217.628 258.931 217.696 258.487 217.832 258.087C217.968 257.687 218.156 257.347 218.396 257.067C218.644 256.779 218.94 256.559 219.284 256.407C219.628 256.255 220.008 256.179 220.424 256.179C220.84 256.179 221.216 256.255 221.552 256.407C221.896 256.559 222.192 256.779 222.44 257.067C222.688 257.347 222.88 257.687 223.016 258.087C223.152 258.487 223.22 258.931 223.22 259.419C223.22 259.915 223.152 260.363 223.016 260.763C222.88 261.155 222.688 261.495 222.44 261.783C222.192 262.063 221.896 262.279 221.552 262.431C221.216 262.583 220.84 262.659 220.424 262.659ZM220.424 261.807C220.944 261.807 221.368 261.647 221.696 261.327C222.024 261.007 222.188 260.519 222.188 259.863V258.975C222.188 258.319 222.024 257.831 221.696 257.511C221.368 257.191 220.944 257.031 220.424 257.031C219.904 257.031 219.48 257.191 219.152 257.511C218.824 257.831 218.66 258.319 218.66 258.975V259.863C218.66 260.519 218.824 261.007 219.152 261.327C219.48 261.647 219.904 261.807 220.424 261.807ZM225.199 262.515V256.323H226.159V257.463H226.219C226.331 257.167 226.531 256.903 226.819 256.671C227.107 256.439 227.503 256.323 228.007 256.323H228.379V257.283H227.815C227.295 257.283 226.887 257.383 226.591 257.583C226.303 257.775 226.159 258.019 226.159 258.315V262.515H225.199ZM234.459 262.515C234.099 262.515 233.839 262.419 233.679 262.227C233.527 262.035 233.431 261.795 233.391 261.507H233.331C233.195 261.891 232.971 262.179 232.659 262.371C232.347 262.563 231.975 262.659 231.543 262.659C230.887 262.659 230.375 262.491 230.007 262.155C229.647 261.819 229.467 261.363 229.467 260.787C229.467 260.203 229.679 259.755 230.103 259.443C230.535 259.131 231.203 258.975 232.107 258.975H233.331V258.363C233.331 257.923 233.211 257.587 232.971 257.355C232.731 257.123 232.363 257.007 231.867 257.007C231.491 257.007 231.175 257.091 230.919 257.259C230.671 257.427 230.463 257.651 230.295 257.931L229.719 257.391C229.887 257.055 230.155 256.771 230.523 256.539C230.891 256.299 231.355 256.179 231.915 256.179C232.667 256.179 233.251 256.363 233.667 256.731C234.083 257.099 234.291 257.611 234.291 258.267V261.675H234.999V262.515H234.459ZM231.699 261.843C231.939 261.843 232.159 261.815 232.359 261.759C232.559 261.703 232.731 261.623 232.875 261.519C233.019 261.415 233.131 261.295 233.211 261.159C233.291 261.023 233.331 260.875 233.331 260.715V259.695H232.059C231.507 259.695 231.103 259.775 230.847 259.935C230.599 260.095 230.475 260.327 230.475 260.631V260.883C230.475 261.187 230.583 261.423 230.799 261.591C231.023 261.759 231.323 261.843 231.699 261.843ZM240.101 262.515V254.139H245.213V255.027H241.109V257.835H244.973V258.723H241.109V261.627H245.213V262.515H240.101ZM249.525 257.403L248.517 255.543H248.481V262.515H247.497V254.139H248.661L251.721 259.251L252.729 261.111H252.765V254.139H253.749V262.515H252.585L249.525 257.403Z" fill="white"/>
</g>
<g opacity="0.24">
<rect x="105.079" y="164.163" width="67.7129" height="67.7129" rx="33.8565" fill="#4E4C82" fill-opacity="0.5"/>
</g>
<g clip-path="url(#clip4)">
<path d="M125.716 188.49L124.708 186.63H124.672V193.602H123.688V185.226H124.852L127.912 190.338L128.92 192.198H128.956V185.226H129.94V193.602H128.776L125.716 188.49ZM134.817 193.746C134.401 193.746 134.021 193.67 133.677 193.518C133.333 193.366 133.037 193.15 132.789 192.87C132.549 192.582 132.361 192.242 132.225 191.85C132.089 191.45 132.021 191.002 132.021 190.506C132.021 190.018 132.089 189.574 132.225 189.174C132.361 188.774 132.549 188.434 132.789 188.154C133.037 187.866 133.333 187.646 133.677 187.494C134.021 187.342 134.401 187.266 134.817 187.266C135.233 187.266 135.609 187.342 135.945 187.494C136.289 187.646 136.585 187.866 136.833 188.154C137.081 188.434 137.273 188.774 137.409 189.174C137.545 189.574 137.613 190.018 137.613 190.506C137.613 191.002 137.545 191.45 137.409 191.85C137.273 192.242 137.081 192.582 136.833 192.87C136.585 193.15 136.289 193.366 135.945 193.518C135.609 193.67 135.233 193.746 134.817 193.746ZM134.817 192.894C135.337 192.894 135.761 192.734 136.089 192.414C136.417 192.094 136.581 191.606 136.581 190.95V190.062C136.581 189.406 136.417 188.918 136.089 188.598C135.761 188.278 135.337 188.118 134.817 188.118C134.297 188.118 133.873 188.278 133.545 188.598C133.217 188.918 133.053 189.406 133.053 190.062V190.95C133.053 191.606 133.217 192.094 133.545 192.414C133.873 192.734 134.297 192.894 134.817 192.894ZM141.896 193.746C141.464 193.746 141.076 193.67 140.732 193.518C140.388 193.366 140.096 193.15 139.856 192.87C139.624 192.59 139.444 192.25 139.316 191.85C139.196 191.45 139.136 191.002 139.136 190.506C139.136 190.01 139.196 189.562 139.316 189.162C139.444 188.762 139.624 188.422 139.856 188.142C140.096 187.862 140.388 187.646 140.732 187.494C141.076 187.342 141.464 187.266 141.896 187.266C142.512 187.266 143.004 187.402 143.372 187.674C143.748 187.938 144.028 188.286 144.212 188.718L143.408 189.126C143.296 188.806 143.112 188.558 142.856 188.382C142.6 188.206 142.28 188.118 141.896 188.118C141.608 188.118 141.356 188.166 141.14 188.262C140.924 188.35 140.744 188.478 140.6 188.646C140.456 188.806 140.348 189.002 140.276 189.234C140.204 189.458 140.168 189.706 140.168 189.978V191.034C140.168 191.578 140.312 192.026 140.6 192.378C140.896 192.722 141.328 192.894 141.896 192.894C142.672 192.894 143.232 192.534 143.576 191.814L144.272 192.282C144.072 192.73 143.772 193.086 143.372 193.35C142.98 193.614 142.488 193.746 141.896 193.746ZM141.296 186.414L139.964 184.698L140.492 184.326L141.896 185.73L143.3 184.326L143.828 184.698L142.496 186.414H141.296ZM146.027 193.602V187.41H146.987V188.418H147.035C147.187 188.066 147.399 187.786 147.671 187.578C147.951 187.37 148.323 187.266 148.787 187.266C149.427 187.266 149.931 187.474 150.299 187.89C150.675 188.298 150.863 188.878 150.863 189.63V193.602H149.903V189.798C149.903 188.686 149.435 188.13 148.499 188.13C148.307 188.13 148.119 188.154 147.935 188.202C147.759 188.25 147.599 188.322 147.455 188.418C147.311 188.514 147.195 188.638 147.107 188.79C147.027 188.934 146.987 189.106 146.987 189.306V193.602H146.027ZM153.247 193.602V187.41H154.207V193.602H153.247ZM153.823 186.582L153.199 186.294L154.219 184.254L155.095 184.674L153.823 186.582ZM123.722 201.226V206.41C123.722 207.21 123.87 207.818 124.166 208.234C124.462 208.642 124.982 208.846 125.726 208.846C126.47 208.846 126.99 208.642 127.286 208.234C127.582 207.818 127.73 207.21 127.73 206.41V201.226H128.738V206.17C128.738 206.778 128.682 207.306 128.57 207.754C128.466 208.202 128.294 208.574 128.054 208.87C127.814 209.166 127.498 209.386 127.106 209.53C126.722 209.674 126.25 209.746 125.69 209.746C125.13 209.746 124.658 209.674 124.274 209.53C123.898 209.386 123.594 209.166 123.362 208.87C123.13 208.574 122.962 208.202 122.858 207.754C122.762 207.306 122.714 206.778 122.714 206.17V201.226H123.722ZM125.786 200.542L125.162 200.254L126.182 198.214L127.058 198.634L125.786 200.542ZM133.071 209.746C132.495 209.746 132.011 209.638 131.619 209.422C131.235 209.198 130.903 208.902 130.623 208.534L131.307 207.982C131.547 208.286 131.815 208.522 132.111 208.69C132.407 208.85 132.751 208.93 133.143 208.93C133.551 208.93 133.867 208.842 134.091 208.666C134.323 208.49 134.439 208.242 134.439 207.922C134.439 207.682 134.359 207.478 134.199 207.31C134.047 207.134 133.767 207.014 133.359 206.95L132.867 206.878C132.579 206.838 132.315 206.778 132.075 206.698C131.835 206.61 131.623 206.498 131.439 206.362C131.263 206.218 131.123 206.042 131.019 205.834C130.923 205.626 130.875 205.378 130.875 205.09C130.875 204.786 130.931 204.522 131.043 204.298C131.155 204.066 131.307 203.874 131.499 203.722C131.699 203.57 131.935 203.458 132.207 203.386C132.479 203.306 132.771 203.266 133.083 203.266C133.587 203.266 134.007 203.354 134.343 203.53C134.687 203.706 134.987 203.95 135.243 204.262L134.607 204.838C134.471 204.646 134.271 204.474 134.007 204.322C133.743 204.162 133.411 204.082 133.011 204.082C132.611 204.082 132.307 204.17 132.099 204.346C131.899 204.514 131.799 204.746 131.799 205.042C131.799 205.346 131.899 205.566 132.099 205.702C132.307 205.838 132.603 205.938 132.987 206.002L133.467 206.074C134.155 206.178 134.643 206.378 134.931 206.674C135.219 206.962 135.363 207.342 135.363 207.814C135.363 208.414 135.159 208.886 134.751 209.23C134.343 209.574 133.783 209.746 133.071 209.746ZM139.787 209.746C139.363 209.746 138.979 209.67 138.635 209.518C138.299 209.366 138.007 209.15 137.759 208.87C137.519 208.582 137.331 208.242 137.195 207.85C137.067 207.45 137.003 207.002 137.003 206.506C137.003 206.018 137.067 205.574 137.195 205.174C137.331 204.774 137.519 204.434 137.759 204.154C138.007 203.866 138.299 203.646 138.635 203.494C138.979 203.342 139.363 203.266 139.787 203.266C140.203 203.266 140.575 203.342 140.903 203.494C141.231 203.646 141.511 203.858 141.743 204.13C141.975 204.394 142.151 204.71 142.271 205.078C142.399 205.446 142.463 205.85 142.463 206.29V206.746H138.011V207.034C138.011 207.298 138.051 207.546 138.131 207.778C138.219 208.002 138.339 208.198 138.491 208.366C138.651 208.534 138.843 208.666 139.067 208.762C139.299 208.858 139.559 208.906 139.847 208.906C140.239 208.906 140.579 208.814 140.867 208.63C141.163 208.446 141.391 208.182 141.551 207.838L142.235 208.33C142.035 208.754 141.723 209.098 141.299 209.362C140.875 209.618 140.371 209.746 139.787 209.746ZM139.787 204.07C139.523 204.07 139.283 204.118 139.067 204.214C138.851 204.302 138.663 204.43 138.503 204.598C138.351 204.766 138.231 204.966 138.143 205.198C138.055 205.422 138.011 205.67 138.011 205.942V206.026H141.431V205.894C141.431 205.342 141.279 204.902 140.975 204.574C140.679 204.238 140.283 204.07 139.787 204.07ZM144.445 200.722H145.405V206.35H145.453L146.401 205.294L148.153 203.41H149.317L147.025 205.858L149.545 209.602H148.381L146.329 206.446L145.405 207.394V209.602H144.445V200.722ZM154.989 203.41H155.937L153.165 211.042C153.093 211.226 153.021 211.378 152.949 211.498C152.877 211.626 152.789 211.726 152.685 211.798C152.581 211.87 152.449 211.922 152.289 211.954C152.137 211.986 151.949 212.002 151.725 212.002H151.233V211.162H152.205L152.673 209.842L150.357 203.41H151.317L152.805 207.622L153.093 208.63H153.153L153.489 207.622L154.989 203.41Z" fill="#4E4C82"/>
</g>
<g opacity="0.56">
<rect x="165.124" y="97.1123" width="59.3938" height="60.3938" rx="29.6969" fill="#4E4C82" fill-opacity="0.5"/>
</g>
<g clip-path="url(#clip5)">
<path d="M187.37 123.681V131.169H186.362V123.681H183.698V122.793H190.034V123.681H187.37ZM195.057 124.977H196.005L193.233 132.609C193.161 132.793 193.089 132.945 193.017 133.065C192.945 133.193 192.857 133.293 192.753 133.365C192.649 133.437 192.517 133.489 192.357 133.521C192.205 133.553 192.017 133.569 191.793 133.569H191.301V132.729H192.273L192.741 131.409L190.425 124.977H191.385L192.873 129.189L193.161 130.197H193.221L193.557 129.189L195.057 124.977ZM193.317 124.149L192.693 123.861L193.713 121.821L194.589 122.241L193.317 124.149ZM197.629 131.169V124.977H198.589V125.985H198.637C198.709 125.825 198.789 125.677 198.877 125.541C198.973 125.397 199.085 125.273 199.213 125.169C199.349 125.065 199.505 124.985 199.681 124.929C199.857 124.865 200.065 124.833 200.305 124.833C200.713 124.833 201.089 124.933 201.433 125.133C201.777 125.325 202.033 125.645 202.201 126.093H202.225C202.337 125.757 202.545 125.465 202.849 125.217C203.161 124.961 203.581 124.833 204.109 124.833C204.741 124.833 205.233 125.041 205.585 125.457C205.945 125.865 206.125 126.445 206.125 127.197V131.169H205.165V127.365C205.165 126.813 205.057 126.397 204.841 126.117C204.625 125.837 204.281 125.697 203.809 125.697C203.617 125.697 203.433 125.721 203.257 125.769C203.089 125.817 202.937 125.889 202.801 125.985C202.665 126.081 202.557 126.205 202.477 126.357C202.397 126.501 202.357 126.673 202.357 126.873V131.169H201.397V127.365C201.397 126.813 201.289 126.397 201.073 126.117C200.857 125.837 200.521 125.697 200.065 125.697C199.873 125.697 199.689 125.721 199.513 125.769C199.337 125.817 199.181 125.889 199.045 125.985C198.909 126.081 198.797 126.205 198.709 126.357C198.629 126.501 198.589 126.673 198.589 126.873V131.169H197.629Z" fill="white"/>
</g>
<g opacity="0.56">
<rect x="210.157" y="44.9619" width="52.7945" height="52.0746" rx="26.0373" fill="#4E4C82" fill-opacity="0.5"/>
</g>
<g clip-path="url(#clip6)">
<path d="M224.551 75.7797C223.871 75.7797 223.291 75.6517 222.811 75.3957C222.331 75.1317 221.923 74.7717 221.587 74.3157L222.331 73.6917C222.627 74.0837 222.955 74.3837 223.315 74.5917C223.675 74.7917 224.099 74.8917 224.587 74.8917C225.187 74.8917 225.643 74.7477 225.955 74.4597C226.275 74.1717 226.435 73.7877 226.435 73.3077C226.435 72.9077 226.315 72.5997 226.075 72.3837C225.835 72.1677 225.439 71.9957 224.887 71.8677L224.203 71.7117C223.435 71.5357 222.847 71.2717 222.439 70.9197C222.039 70.5597 221.839 70.0557 221.839 69.4077C221.839 69.0397 221.907 68.7117 222.043 68.4237C222.179 68.1357 222.367 67.8957 222.607 67.7037C222.855 67.5117 223.147 67.3677 223.483 67.2717C223.827 67.1677 224.203 67.1157 224.611 67.1157C225.243 67.1157 225.783 67.2317 226.231 67.4637C226.687 67.6957 227.071 68.0357 227.383 68.4837L226.627 69.0357C226.395 68.7157 226.115 68.4637 225.787 68.2797C225.459 68.0957 225.051 68.0037 224.563 68.0037C224.027 68.0037 223.603 68.1197 223.291 68.3517C222.987 68.5757 222.835 68.9157 222.835 69.3717C222.835 69.7717 222.963 70.0757 223.219 70.2837C223.483 70.4837 223.879 70.6437 224.407 70.7637L225.091 70.9197C225.915 71.1037 226.511 71.3837 226.879 71.7597C227.247 72.1357 227.431 72.6357 227.431 73.2597C227.431 73.6437 227.363 73.9917 227.227 74.3037C227.099 74.6157 226.911 74.8797 226.663 75.0957C226.415 75.3117 226.111 75.4797 225.751 75.5997C225.399 75.7197 224.999 75.7797 224.551 75.7797ZM223.951 66.4077L222.619 64.6917L223.147 64.3197L224.551 65.7237L225.955 64.3197L226.483 64.6917L225.151 66.4077H223.951ZM231.815 75.7797C231.399 75.7797 231.019 75.7037 230.675 75.5517C230.331 75.3997 230.035 75.1837 229.787 74.9037C229.547 74.6157 229.359 74.2757 229.223 73.8837C229.087 73.4837 229.019 73.0357 229.019 72.5397C229.019 72.0517 229.087 71.6077 229.223 71.2077C229.359 70.8077 229.547 70.4677 229.787 70.1877C230.035 69.8997 230.331 69.6797 230.675 69.5277C231.019 69.3757 231.399 69.2997 231.815 69.2997C232.231 69.2997 232.607 69.3757 232.943 69.5277C233.287 69.6797 233.583 69.8997 233.831 70.1877C234.079 70.4677 234.271 70.8077 234.407 71.2077C234.543 71.6077 234.611 72.0517 234.611 72.5397C234.611 73.0357 234.543 73.4837 234.407 73.8837C234.271 74.2757 234.079 74.6157 233.831 74.9037C233.583 75.1837 233.287 75.3997 232.943 75.5517C232.607 75.7037 232.231 75.7797 231.815 75.7797ZM231.815 74.9277C232.335 74.9277 232.759 74.7677 233.087 74.4477C233.415 74.1277 233.579 73.6397 233.579 72.9837V72.0957C233.579 71.4397 233.415 70.9517 233.087 70.6317C232.759 70.3117 232.335 70.1517 231.815 70.1517C231.295 70.1517 230.871 70.3117 230.543 70.6317C230.215 70.9517 230.051 71.4397 230.051 72.0957V72.9837C230.051 73.6397 230.215 74.1277 230.543 74.4477C230.871 74.7677 231.295 74.9277 231.815 74.9277ZM236.856 70.2837H235.848V69.4437H236.856V68.1957C236.856 67.7637 236.968 67.4157 237.192 67.1517C237.416 66.8877 237.756 66.7557 238.212 66.7557H239.148V67.5957H237.816V69.4437H239.148V70.2837H237.816V75.6357H236.856V70.2837ZM243.091 75.7797C242.667 75.7797 242.283 75.7037 241.939 75.5517C241.603 75.3997 241.311 75.1837 241.063 74.9037C240.823 74.6157 240.635 74.2757 240.499 73.8837C240.371 73.4837 240.307 73.0357 240.307 72.5397C240.307 72.0517 240.371 71.6077 240.499 71.2077C240.635 70.8077 240.823 70.4677 241.063 70.1877C241.311 69.8997 241.603 69.6797 241.939 69.5277C242.283 69.3757 242.667 69.2997 243.091 69.2997C243.507 69.2997 243.879 69.3757 244.207 69.5277C244.535 69.6797 244.815 69.8917 245.047 70.1637C245.279 70.4277 245.455 70.7437 245.575 71.1117C245.703 71.4797 245.767 71.8837 245.767 72.3237V72.7797H241.315V73.0677C241.315 73.3317 241.355 73.5797 241.435 73.8117C241.523 74.0357 241.643 74.2317 241.795 74.3997C241.955 74.5677 242.147 74.6997 242.371 74.7957C242.603 74.8917 242.863 74.9397 243.151 74.9397C243.543 74.9397 243.883 74.8477 244.171 74.6637C244.467 74.4797 244.695 74.2157 244.855 73.8717L245.539 74.3637C245.339 74.7877 245.027 75.1317 244.603 75.3957C244.179 75.6517 243.675 75.7797 243.091 75.7797ZM243.091 70.1037C242.827 70.1037 242.587 70.1517 242.371 70.2477C242.155 70.3357 241.967 70.4637 241.807 70.6317C241.655 70.7997 241.535 70.9997 241.447 71.2317C241.359 71.4557 241.315 71.7037 241.315 71.9757V72.0597H244.735V71.9277C244.735 71.3757 244.583 70.9357 244.279 70.6077C243.983 70.2717 243.587 70.1037 243.091 70.1037ZM243.187 68.6157L242.563 68.3277L243.583 66.2877L244.459 66.7077L243.187 68.6157ZM247.749 75.6357V69.4437H248.709V70.5837H248.769C248.881 70.2877 249.081 70.0237 249.369 69.7917C249.657 69.5597 250.053 69.4437 250.557 69.4437H250.929V70.4037H250.365C249.845 70.4037 249.437 70.5037 249.141 70.7037C248.853 70.8957 248.709 71.1397 248.709 71.4357V75.6357H247.749Z" fill="white"/>
</g>
<rect x="232.674" y="89.6631" width="120.507" height="118.788" rx="59.3938" fill="#4E4C82"/>
<g clip-path="url(#clip7)">
<path d="M261.102 152.551H261.066C260.962 152.943 260.706 153.271 260.298 153.535C259.898 153.791 259.378 153.919 258.738 153.919C258.226 153.919 257.754 153.827 257.322 153.643C256.898 153.451 256.534 153.175 256.23 152.815C255.926 152.447 255.686 151.995 255.51 151.459C255.342 150.915 255.258 150.291 255.258 149.587C255.258 148.891 255.342 148.275 255.51 147.739C255.678 147.195 255.918 146.743 256.23 146.383C256.542 146.015 256.918 145.735 257.358 145.543C257.798 145.351 258.286 145.255 258.822 145.255C259.574 145.255 260.202 145.423 260.706 145.759C261.21 146.095 261.598 146.539 261.87 147.091L261.042 147.595C260.85 147.147 260.562 146.795 260.178 146.539C259.802 146.283 259.35 146.155 258.822 146.155C258.454 146.155 258.118 146.223 257.814 146.359C257.51 146.487 257.246 146.671 257.022 146.911C256.806 147.151 256.638 147.439 256.518 147.775C256.398 148.111 256.338 148.487 256.338 148.903V150.259C256.338 150.675 256.398 151.055 256.518 151.399C256.638 151.735 256.806 152.023 257.022 152.263C257.246 152.503 257.518 152.691 257.838 152.827C258.158 152.955 258.518 153.019 258.918 153.019C259.206 153.019 259.478 152.983 259.734 152.911C259.998 152.831 260.226 152.715 260.418 152.563C260.618 152.411 260.774 152.223 260.886 151.999C260.998 151.767 261.054 151.495 261.054 151.183V150.355H259.206V149.467H262.038V153.775H261.102V152.551ZM264.421 153.775V145.399H267.757C268.509 145.399 269.085 145.615 269.485 146.047C269.893 146.471 270.097 147.055 270.097 147.799C270.097 148.543 269.893 149.131 269.485 149.563C269.085 149.987 268.509 150.199 267.757 150.199H265.429V153.775H264.421ZM265.429 149.311H267.757C268.157 149.311 268.465 149.207 268.681 148.999C268.905 148.791 269.017 148.495 269.017 148.111V147.487C269.017 147.103 268.905 146.807 268.681 146.599C268.465 146.391 268.157 146.287 267.757 146.287H265.429V149.311ZM274.451 153.919C273.771 153.919 273.191 153.791 272.711 153.535C272.231 153.271 271.823 152.911 271.487 152.455L272.231 151.831C272.527 152.223 272.855 152.523 273.215 152.731C273.575 152.931 273.999 153.031 274.487 153.031C275.087 153.031 275.543 152.887 275.855 152.599C276.175 152.311 276.335 151.927 276.335 151.447C276.335 151.047 276.215 150.739 275.975 150.523C275.735 150.307 275.339 150.135 274.787 150.007L274.103 149.851C273.335 149.675 272.747 149.411 272.339 149.059C271.939 148.699 271.739 148.195 271.739 147.547C271.739 147.179 271.807 146.851 271.943 146.563C272.079 146.275 272.267 146.035 272.507 145.843C272.755 145.651 273.047 145.507 273.383 145.411C273.727 145.307 274.103 145.255 274.511 145.255C275.143 145.255 275.683 145.371 276.131 145.603C276.587 145.835 276.971 146.175 277.283 146.623L276.527 147.175C276.295 146.855 276.015 146.603 275.687 146.419C275.359 146.235 274.951 146.143 274.463 146.143C273.927 146.143 273.503 146.259 273.191 146.491C272.887 146.715 272.735 147.055 272.735 147.511C272.735 147.911 272.863 148.215 273.119 148.423C273.383 148.623 273.779 148.783 274.307 148.903L274.991 149.059C275.815 149.243 276.411 149.523 276.779 149.899C277.147 150.275 277.331 150.775 277.331 151.399C277.331 151.783 277.263 152.131 277.127 152.443C276.999 152.755 276.811 153.019 276.563 153.235C276.315 153.451 276.011 153.619 275.651 153.739C275.299 153.859 274.899 153.919 274.451 153.919ZM285.527 146.287V153.775H284.519V146.287H281.855V145.399H288.191V146.287H285.527ZM289.339 153.775V147.583H290.299V148.723H290.359C290.471 148.427 290.671 148.163 290.959 147.931C291.247 147.699 291.643 147.583 292.147 147.583H292.519V148.543H291.955C291.435 148.543 291.027 148.643 290.731 148.843C290.443 149.035 290.299 149.279 290.299 149.575V153.775H289.339ZM298.599 153.775C298.239 153.775 297.979 153.679 297.819 153.487C297.667 153.295 297.571 153.055 297.531 152.767H297.471C297.335 153.151 297.111 153.439 296.799 153.631C296.487 153.823 296.115 153.919 295.683 153.919C295.027 153.919 294.515 153.751 294.147 153.415C293.787 153.079 293.607 152.623 293.607 152.047C293.607 151.463 293.819 151.015 294.243 150.703C294.675 150.391 295.343 150.235 296.247 150.235H297.471V149.623C297.471 149.183 297.351 148.847 297.111 148.615C296.871 148.383 296.503 148.267 296.007 148.267C295.631 148.267 295.315 148.351 295.059 148.519C294.811 148.687 294.603 148.911 294.435 149.191L293.859 148.651C294.027 148.315 294.295 148.031 294.663 147.799C295.031 147.559 295.495 147.439 296.055 147.439C296.807 147.439 297.391 147.623 297.807 147.991C298.223 148.359 298.431 148.871 298.431 149.527V152.935H299.139V153.775H298.599ZM295.839 153.103C296.079 153.103 296.299 153.075 296.499 153.019C296.699 152.963 296.871 152.883 297.015 152.779C297.159 152.675 297.271 152.555 297.351 152.419C297.431 152.283 297.471 152.135 297.471 151.975V150.955H296.199C295.647 150.955 295.243 151.035 294.987 151.195C294.739 151.355 294.615 151.587 294.615 151.891V152.143C294.615 152.447 294.723 152.683 294.939 152.851C295.163 153.019 295.463 153.103 295.839 153.103ZM303.213 153.919C302.781 153.919 302.393 153.843 302.049 153.691C301.705 153.539 301.413 153.323 301.173 153.043C300.941 152.763 300.761 152.423 300.633 152.023C300.513 151.623 300.453 151.175 300.453 150.679C300.453 150.183 300.513 149.735 300.633 149.335C300.761 148.935 300.941 148.595 301.173 148.315C301.413 148.035 301.705 147.819 302.049 147.667C302.393 147.515 302.781 147.439 303.213 147.439C303.829 147.439 304.321 147.575 304.689 147.847C305.065 148.111 305.345 148.459 305.529 148.891L304.725 149.299C304.613 148.979 304.429 148.731 304.173 148.555C303.917 148.379 303.597 148.291 303.213 148.291C302.925 148.291 302.673 148.339 302.457 148.435C302.241 148.523 302.061 148.651 301.917 148.819C301.773 148.979 301.665 149.175 301.593 149.407C301.521 149.631 301.485 149.879 301.485 150.151V151.207C301.485 151.751 301.629 152.199 301.917 152.551C302.213 152.895 302.645 153.067 303.213 153.067C303.989 153.067 304.549 152.707 304.893 151.987L305.589 152.455C305.389 152.903 305.089 153.259 304.689 153.523C304.297 153.787 303.805 153.919 303.213 153.919ZM307.344 144.895H308.304V150.523H308.352L309.3 149.467L311.052 147.583H312.216L309.924 150.031L312.444 153.775H311.28L309.228 150.619L308.304 151.567V153.775H307.344V144.895ZM314.552 146.131C314.344 146.131 314.192 146.083 314.096 145.987C314.008 145.883 313.964 145.751 313.964 145.591V145.435C313.964 145.275 314.008 145.147 314.096 145.051C314.192 144.947 314.344 144.895 314.552 144.895C314.76 144.895 314.908 144.947 314.996 145.051C315.092 145.147 315.14 145.275 315.14 145.435V145.591C315.14 145.751 315.092 145.883 314.996 145.987C314.908 146.083 314.76 146.131 314.552 146.131ZM314.072 147.583H315.032V153.775H314.072V147.583ZM317.472 153.775V147.583H318.432V148.591H318.48C318.632 148.239 318.844 147.959 319.116 147.751C319.396 147.543 319.768 147.439 320.232 147.439C320.872 147.439 321.376 147.647 321.744 148.063C322.12 148.471 322.308 149.051 322.308 149.803V153.775H321.348V149.971C321.348 148.859 320.88 148.303 319.944 148.303C319.752 148.303 319.564 148.327 319.38 148.375C319.204 148.423 319.044 148.495 318.9 148.591C318.756 148.687 318.64 148.811 318.552 148.963C318.472 149.107 318.432 149.279 318.432 149.479V153.775H317.472ZM329.912 154.459C329.912 155.099 329.66 155.567 329.156 155.863C328.66 156.167 327.912 156.319 326.912 156.319C325.944 156.319 325.248 156.187 324.824 155.923C324.4 155.659 324.188 155.283 324.188 154.795C324.188 154.459 324.276 154.195 324.452 154.003C324.628 153.819 324.868 153.683 325.172 153.595V153.463C324.804 153.287 324.62 152.999 324.62 152.599C324.62 152.287 324.72 152.051 324.92 151.891C325.12 151.723 325.376 151.599 325.688 151.519V151.471C325.32 151.295 325.032 151.043 324.824 150.715C324.624 150.387 324.524 150.007 324.524 149.575C324.524 149.263 324.58 148.975 324.692 148.711C324.804 148.447 324.96 148.223 325.16 148.039C325.368 147.847 325.612 147.699 325.892 147.595C326.18 147.491 326.5 147.439 326.852 147.439C327.292 147.439 327.684 147.519 328.028 147.679V147.571C328.028 147.331 328.084 147.135 328.196 146.983C328.308 146.823 328.492 146.743 328.748 146.743H329.672V147.583H328.496V147.979C328.72 148.171 328.892 148.403 329.012 148.675C329.14 148.939 329.204 149.239 329.204 149.575C329.204 149.887 329.148 150.175 329.036 150.439C328.924 150.703 328.764 150.931 328.556 151.123C328.356 151.307 328.112 151.451 327.824 151.555C327.536 151.659 327.216 151.711 326.864 151.711C326.664 151.711 326.464 151.691 326.264 151.651C326.056 151.707 325.868 151.791 325.7 151.903C325.532 152.007 325.448 152.155 325.448 152.347C325.448 152.531 325.536 152.655 325.712 152.719C325.888 152.783 326.116 152.815 326.396 152.815H327.716C328.484 152.815 329.04 152.963 329.384 153.259C329.736 153.547 329.912 153.947 329.912 154.459ZM329.012 154.531C329.012 154.283 328.916 154.083 328.724 153.931C328.54 153.787 328.208 153.715 327.728 153.715H325.664C325.28 153.891 325.088 154.171 325.088 154.555C325.088 154.827 325.188 155.059 325.388 155.251C325.596 155.443 325.944 155.539 326.432 155.539H327.32C327.856 155.539 328.272 155.455 328.568 155.287C328.864 155.119 329.012 154.867 329.012 154.531ZM326.864 150.943C327.272 150.943 327.596 150.847 327.836 150.655C328.076 150.455 328.196 150.151 328.196 149.743V149.407C328.196 148.999 328.076 148.699 327.836 148.507C327.596 148.307 327.272 148.207 326.864 148.207C326.456 148.207 326.132 148.307 325.892 148.507C325.652 148.699 325.532 148.999 325.532 149.407V149.743C325.532 150.151 325.652 150.455 325.892 150.655C326.132 150.847 326.456 150.943 326.864 150.943Z" fill="white"/>
</g>
<g opacity="0.24">
<rect x="105.079" y="104.563" width="52.7945" height="52.0746" rx="26.0373" fill="#4E4C82" fill-opacity="0.5"/>
</g>
<g clip-path="url(#clip8)">
<path d="M116.528 135.238V126.862H121.52V127.75H117.536V130.558H121.172V131.446H117.536V135.238H116.528ZM125.571 135.382C125.155 135.382 124.775 135.306 124.431 135.154C124.087 135.002 123.791 134.786 123.543 134.506C123.303 134.218 123.115 133.878 122.979 133.486C122.843 133.086 122.775 132.638 122.775 132.142C122.775 131.654 122.843 131.21 122.979 130.81C123.115 130.41 123.303 130.07 123.543 129.79C123.791 129.502 124.087 129.282 124.431 129.13C124.775 128.978 125.155 128.902 125.571 128.902C125.987 128.902 126.363 128.978 126.699 129.13C127.043 129.282 127.339 129.502 127.587 129.79C127.835 130.07 128.027 130.41 128.163 130.81C128.299 131.21 128.367 131.654 128.367 132.142C128.367 132.638 128.299 133.086 128.163 133.486C128.027 133.878 127.835 134.218 127.587 134.506C127.339 134.786 127.043 135.002 126.699 135.154C126.363 135.306 125.987 135.382 125.571 135.382ZM125.571 134.53C126.091 134.53 126.515 134.37 126.843 134.05C127.171 133.73 127.335 133.242 127.335 132.586V131.698C127.335 131.042 127.171 130.554 126.843 130.234C126.515 129.914 126.091 129.754 125.571 129.754C125.051 129.754 124.627 129.914 124.299 130.234C123.971 130.554 123.807 131.042 123.807 131.698V132.586C123.807 133.242 123.971 133.73 124.299 134.05C124.627 134.37 125.051 134.53 125.571 134.53ZM131.714 135.238C131.378 135.238 131.122 135.146 130.946 134.962C130.778 134.77 130.694 134.522 130.694 134.218V129.886H129.674V129.046H130.25C130.458 129.046 130.598 129.006 130.67 128.926C130.75 128.838 130.79 128.69 130.79 128.482V127.33H131.654V129.046H133.01V129.886H131.654V134.398H132.914V135.238H131.714ZM134.953 126.358H135.913V131.986H135.961L136.909 130.93L138.661 129.046H139.825L137.533 131.494L140.053 135.238H138.889L136.837 132.082L135.913 133.03V135.238H134.953V126.358ZM145.497 129.046H146.445L143.673 136.678C143.601 136.862 143.529 137.014 143.457 137.134C143.385 137.262 143.297 137.362 143.193 137.434C143.089 137.506 142.957 137.558 142.797 137.59C142.645 137.622 142.457 137.638 142.233 137.638H141.741V136.798H142.713L143.181 135.478L140.865 129.046H141.825L143.313 133.258L143.601 134.266H143.661L143.997 133.258L145.497 129.046Z" fill="#4E4C82"/>
</g>
<defs>
<clipPath id="clip0">
<rect width="74.0939" height="73.5449" fill="white" transform="translate(19.2454 153.466)"/>
</clipPath>
<clipPath id="clip1">
<rect width="87.5656" height="86.9167" fill="white" transform="translate(5.00366 49.9287)"/>
</clipPath>
<clipPath id="clip2">
<rect width="87.5656" height="86.9167" fill="white" transform="translate(110.083 5.22949)"/>
</clipPath>
<clipPath id="clip3">
<rect width="74.0939" height="73.5449" fill="white" transform="translate(184.369 220.515)"/>
</clipPath>
<clipPath id="clip4">
<rect width="60.6223" height="60.1731" fill="white" transform="translate(108.543 167.602)"/>
</clipPath>
<clipPath id="clip5">
<rect width="53.8865" height="53.4872" fill="white" transform="translate(168.203 100.169)"/>
</clipPath>
<clipPath id="clip6">
<rect width="47.1507" height="46.8013" fill="white" transform="translate(212.852 47.6357)"/>
</clipPath>
<clipPath id="clip7">
<rect width="107.773" height="106.974" fill="white" transform="translate(238.833 95.7754)"/>
</clipPath>
<clipPath id="clip8">
<rect width="47.1507" height="46.8013" fill="white" transform="translate(107.773 107.238)"/>
</clipPath>
</defs>
</svg>
