<svg width="228" height="295" viewBox="0 0 228 295" fill="none" xmlns="http://www.w3.org/2000/svg">
<g opacity="0.4">
<g opacity="0.8">
<rect x="68" y="263" width="12" height="12" rx="6" fill="#4E4C82"/>
</g>
</g>
<g opacity="0.8">
<rect x="124" y="263" width="12" height="12" rx="6" fill="#4E4C82"/>
</g>
<path d="M144.28 274L142.24 265.624H143.308L144.208 269.656L144.904 272.788H144.928L145.708 269.656L146.764 265.624H147.916L148.936 269.656L149.716 272.776H149.752L150.472 269.656L151.42 265.624H152.452L150.304 274H149.188L148.096 269.824L147.328 266.752H147.304L146.512 269.824L145.396 274H144.28ZM156.26 274.144C155.836 274.144 155.452 274.068 155.108 273.916C154.772 273.764 154.48 273.548 154.232 273.268C153.992 272.98 153.804 272.64 153.668 272.248C153.54 271.848 153.476 271.4 153.476 270.904C153.476 270.416 153.54 269.972 153.668 269.572C153.804 269.172 153.992 268.832 154.232 268.552C154.48 268.264 154.772 268.044 155.108 267.892C155.452 267.74 155.836 267.664 156.26 267.664C156.676 267.664 157.048 267.74 157.376 267.892C157.704 268.044 157.984 268.256 158.216 268.528C158.448 268.792 158.624 269.108 158.744 269.476C158.872 269.844 158.936 270.248 158.936 270.688V271.144H154.484V271.432C154.484 271.696 154.524 271.944 154.604 272.176C154.692 272.4 154.812 272.596 154.964 272.764C155.124 272.932 155.316 273.064 155.54 273.16C155.772 273.256 156.032 273.304 156.32 273.304C156.712 273.304 157.052 273.212 157.34 273.028C157.636 272.844 157.864 272.58 158.024 272.236L158.708 272.728C158.508 273.152 158.196 273.496 157.772 273.76C157.348 274.016 156.844 274.144 156.26 274.144ZM156.26 268.468C155.996 268.468 155.756 268.516 155.54 268.612C155.324 268.7 155.136 268.828 154.976 268.996C154.824 269.164 154.704 269.364 154.616 269.596C154.528 269.82 154.484 270.068 154.484 270.34V270.424H157.904V270.292C157.904 269.74 157.752 269.3 157.448 268.972C157.152 268.636 156.756 268.468 156.26 268.468ZM160.918 265.12H161.878V268.816H161.926C162.086 268.424 162.318 268.136 162.622 267.952C162.934 267.76 163.306 267.664 163.738 267.664C164.122 267.664 164.47 267.74 164.782 267.892C165.094 268.044 165.358 268.26 165.574 268.54C165.798 268.82 165.966 269.16 166.078 269.56C166.198 269.96 166.258 270.408 166.258 270.904C166.258 271.4 166.198 271.848 166.078 272.248C165.966 272.648 165.798 272.988 165.574 273.268C165.358 273.548 165.094 273.764 164.782 273.916C164.47 274.068 164.122 274.144 163.738 274.144C162.898 274.144 162.294 273.76 161.926 272.992H161.878V274H160.918V265.12ZM163.474 273.28C164.018 273.28 164.446 273.112 164.758 272.776C165.07 272.432 165.226 271.984 165.226 271.432V270.376C165.226 269.824 165.07 269.38 164.758 269.044C164.446 268.7 164.018 268.528 163.474 268.528C163.258 268.528 163.05 268.56 162.85 268.624C162.658 268.68 162.49 268.76 162.346 268.864C162.202 268.968 162.086 269.096 161.998 269.248C161.918 269.392 161.878 269.548 161.878 269.716V272.02C161.878 272.22 161.918 272.4 161.998 272.56C162.086 272.712 162.202 272.844 162.346 272.956C162.49 273.06 162.658 273.14 162.85 273.196C163.05 273.252 163.258 273.28 163.474 273.28Z" fill="#98999A"/>
<path d="M31.0568 265.273V274H32.0455V267.369H32.1307L34.858 274H35.8125L38.5398 267.369H38.625V274H39.6136V265.273H38.3523L35.3864 272.517H35.2841L32.3182 265.273H31.0568ZM44.6553 274.136C46.4281 274.136 47.6212 272.79 47.6212 270.761C47.6212 268.716 46.4281 267.369 44.6553 267.369C42.8826 267.369 41.6894 268.716 41.6894 270.761C41.6894 272.79 42.8826 274.136 44.6553 274.136ZM44.6553 273.233C43.3087 273.233 42.6951 272.074 42.6951 270.761C42.6951 269.449 43.3087 268.273 44.6553 268.273C46.0019 268.273 46.6156 269.449 46.6156 270.761C46.6156 272.074 46.0019 273.233 44.6553 273.233ZM49.6928 274H50.6643V272.994H50.7837C51.0053 273.352 51.4314 274.136 52.6928 274.136C54.3291 274.136 55.4712 272.824 55.4712 270.744C55.4712 268.682 54.3291 267.369 52.6757 267.369C51.3973 267.369 51.0053 268.153 50.7837 268.494H50.6984V265.273H49.6928V274ZM50.6814 270.727C50.6814 269.261 51.3291 268.273 52.5564 268.273C53.8348 268.273 54.4655 269.347 54.4655 270.727C54.4655 272.125 53.8178 273.233 52.5564 273.233C51.3462 273.233 50.6814 272.21 50.6814 270.727ZM57.4095 274H58.4152V267.455H57.4095V274ZM57.9209 266.364C58.3129 266.364 58.6368 266.057 58.6368 265.682C58.6368 265.307 58.3129 265 57.9209 265C57.5288 265 57.205 265.307 57.205 265.682C57.205 266.057 57.5288 266.364 57.9209 266.364ZM61.6629 265.273H60.6572V274H61.6629V265.273Z" fill="#98999A"/>
<path d="M95.8126 172L99.0166 164.488H95.4406V166.048H94.5406V163.624H100.037V164.512L96.8926 172H95.8126ZM107.324 164.512H103.652L103.412 167.704H103.496C103.696 167.424 103.92 167.2 104.168 167.032C104.424 166.864 104.772 166.78 105.212 166.78C105.572 166.78 105.904 166.84 106.208 166.96C106.512 167.08 106.776 167.252 107 167.476C107.224 167.692 107.396 167.96 107.516 168.28C107.644 168.6 107.708 168.964 107.708 169.372C107.708 169.78 107.644 170.156 107.516 170.5C107.388 170.836 107.2 171.128 106.952 171.376C106.712 171.616 106.416 171.804 106.064 171.94C105.72 172.076 105.328 172.144 104.888 172.144C104.536 172.144 104.224 172.104 103.952 172.024C103.688 171.944 103.452 171.836 103.244 171.7C103.036 171.564 102.852 171.412 102.692 171.244C102.54 171.076 102.4 170.9 102.272 170.716L103.028 170.14C103.132 170.308 103.24 170.46 103.352 170.596C103.472 170.732 103.6 170.848 103.736 170.944C103.88 171.04 104.044 171.116 104.228 171.172C104.412 171.22 104.632 171.244 104.888 171.244C105.464 171.244 105.9 171.092 106.196 170.788C106.492 170.484 106.64 170.056 106.64 169.504V169.384C106.64 168.832 106.492 168.404 106.196 168.1C105.9 167.796 105.464 167.644 104.888 167.644C104.504 167.644 104.2 167.716 103.976 167.86C103.76 167.996 103.564 168.16 103.388 168.352L102.536 168.232L102.836 163.624H107.324V164.512ZM110.615 170.596C110.871 170.596 111.055 170.664 111.167 170.8C111.287 170.928 111.347 171.096 111.347 171.304V171.472C111.347 171.8 111.251 172.16 111.059 172.552C110.867 172.952 110.599 173.3 110.255 173.596H109.451C109.691 173.34 109.883 173.096 110.027 172.864C110.179 172.64 110.287 172.388 110.351 172.108C110.191 172.068 110.071 171.992 109.991 171.88C109.919 171.768 109.883 171.632 109.883 171.472V171.304C109.883 171.096 109.939 170.928 110.051 170.8C110.171 170.664 110.359 170.596 110.615 170.596ZM118.669 164.512H114.997L114.757 167.704H114.841C115.041 167.424 115.265 167.2 115.513 167.032C115.769 166.864 116.117 166.78 116.557 166.78C116.917 166.78 117.249 166.84 117.553 166.96C117.857 167.08 118.121 167.252 118.345 167.476C118.569 167.692 118.741 167.96 118.861 168.28C118.989 168.6 119.053 168.964 119.053 169.372C119.053 169.78 118.989 170.156 118.861 170.5C118.733 170.836 118.545 171.128 118.297 171.376C118.057 171.616 117.761 171.804 117.409 171.94C117.065 172.076 116.673 172.144 116.233 172.144C115.881 172.144 115.569 172.104 115.297 172.024C115.033 171.944 114.797 171.836 114.589 171.7C114.381 171.564 114.197 171.412 114.037 171.244C113.885 171.076 113.745 170.9 113.617 170.716L114.373 170.14C114.477 170.308 114.585 170.46 114.697 170.596C114.817 170.732 114.945 170.848 115.081 170.944C115.225 171.04 115.389 171.116 115.573 171.172C115.757 171.22 115.977 171.244 116.233 171.244C116.809 171.244 117.245 171.092 117.541 170.788C117.837 170.484 117.985 170.056 117.985 169.504V169.384C117.985 168.832 117.837 168.404 117.541 168.1C117.245 167.796 116.809 167.644 116.233 167.644C115.849 167.644 115.545 167.716 115.321 167.86C115.105 167.996 114.909 168.16 114.733 168.352L113.881 168.232L114.181 163.624H118.669V164.512ZM125.8 172L131.608 163.624H132.532L126.724 172H125.8ZM126.28 168.232C125.672 168.232 125.204 168.032 124.876 167.632C124.548 167.224 124.384 166.632 124.384 165.856C124.384 165.08 124.548 164.492 124.876 164.092C125.204 163.684 125.672 163.48 126.28 163.48C126.888 163.48 127.356 163.684 127.684 164.092C128.012 164.492 128.176 165.08 128.176 165.856C128.176 166.632 128.012 167.224 127.684 167.632C127.356 168.032 126.888 168.232 126.28 168.232ZM126.28 167.608C126.968 167.608 127.312 167.144 127.312 166.216V165.496C127.312 164.568 126.968 164.104 126.28 164.104C125.592 164.104 125.248 164.568 125.248 165.496V166.216C125.248 167.144 125.592 167.608 126.28 167.608ZM132.052 172.144C131.444 172.144 130.976 171.944 130.648 171.544C130.32 171.136 130.156 170.544 130.156 169.768C130.156 168.992 130.32 168.404 130.648 168.004C130.976 167.596 131.444 167.392 132.052 167.392C132.66 167.392 133.128 167.596 133.456 168.004C133.784 168.404 133.948 168.992 133.948 169.768C133.948 170.544 133.784 171.136 133.456 171.544C133.128 171.944 132.66 172.144 132.052 172.144ZM132.052 171.52C132.74 171.52 133.084 171.056 133.084 170.128V169.408C133.084 168.48 132.74 168.016 132.052 168.016C131.364 168.016 131.02 168.48 131.02 169.408V170.128C131.02 171.056 131.364 171.52 132.052 171.52Z" fill="#4E4C82"/>
<path d="M90.6224 163.267L93.8264 155.755H90.2504V157.315H89.3504V154.891H94.8464V155.779L91.7024 163.267H90.6224ZM102.134 155.779H98.4617L98.2217 158.971H98.3057C98.5057 158.691 98.7297 158.467 98.9777 158.299C99.2337 158.131 99.5817 158.047 100.022 158.047C100.382 158.047 100.714 158.107 101.018 158.227C101.322 158.347 101.586 158.519 101.81 158.743C102.034 158.959 102.206 159.227 102.326 159.547C102.454 159.867 102.518 160.231 102.518 160.639C102.518 161.047 102.454 161.423 102.326 161.767C102.198 162.103 102.01 162.395 101.762 162.643C101.522 162.883 101.226 163.071 100.874 163.207C100.53 163.343 100.138 163.411 99.6977 163.411C99.3457 163.411 99.0337 163.371 98.7617 163.291C98.4977 163.211 98.2617 163.103 98.0537 162.967C97.8457 162.831 97.6617 162.679 97.5017 162.511C97.3497 162.343 97.2097 162.167 97.0817 161.983L97.8377 161.407C97.9417 161.575 98.0497 161.727 98.1617 161.863C98.2817 161.999 98.4097 162.115 98.5457 162.211C98.6897 162.307 98.8537 162.383 99.0377 162.439C99.2217 162.487 99.4417 162.511 99.6977 162.511C100.274 162.511 100.71 162.359 101.006 162.055C101.302 161.751 101.45 161.323 101.45 160.771V160.651C101.45 160.099 101.302 159.671 101.006 159.367C100.71 159.063 100.274 158.911 99.6977 158.911C99.3137 158.911 99.0097 158.983 98.7857 159.127C98.5697 159.263 98.3737 159.427 98.1977 159.619L97.3457 159.499L97.6457 154.891H102.134V155.779ZM105.425 161.863C105.681 161.863 105.865 161.931 105.977 162.067C106.097 162.195 106.157 162.363 106.157 162.571V162.739C106.157 163.067 106.061 163.427 105.869 163.819C105.677 164.219 105.409 164.567 105.065 164.863H104.261C104.501 164.607 104.693 164.363 104.837 164.131C104.989 163.907 105.097 163.655 105.161 163.375C105.001 163.335 104.881 163.259 104.801 163.147C104.729 163.035 104.693 162.899 104.693 162.739V162.571C104.693 162.363 104.749 162.195 104.861 162.067C104.981 161.931 105.169 161.863 105.425 161.863ZM113.479 155.779H109.807L109.567 158.971H109.651C109.851 158.691 110.075 158.467 110.323 158.299C110.579 158.131 110.927 158.047 111.367 158.047C111.727 158.047 112.059 158.107 112.363 158.227C112.667 158.347 112.931 158.519 113.155 158.743C113.379 158.959 113.551 159.227 113.671 159.547C113.799 159.867 113.863 160.231 113.863 160.639C113.863 161.047 113.799 161.423 113.671 161.767C113.543 162.103 113.355 162.395 113.107 162.643C112.867 162.883 112.571 163.071 112.219 163.207C111.875 163.343 111.483 163.411 111.043 163.411C110.691 163.411 110.379 163.371 110.107 163.291C109.843 163.211 109.607 163.103 109.399 162.967C109.191 162.831 109.007 162.679 108.847 162.511C108.695 162.343 108.555 162.167 108.427 161.983L109.183 161.407C109.287 161.575 109.395 161.727 109.507 161.863C109.627 161.999 109.755 162.115 109.891 162.211C110.035 162.307 110.199 162.383 110.383 162.439C110.567 162.487 110.787 162.511 111.043 162.511C111.619 162.511 112.055 162.359 112.351 162.055C112.647 161.751 112.795 161.323 112.795 160.771V160.651C112.795 160.099 112.647 159.671 112.351 159.367C112.055 159.063 111.619 158.911 111.043 158.911C110.659 158.911 110.355 158.983 110.131 159.127C109.915 159.263 109.719 159.427 109.543 159.619L108.691 159.499L108.991 154.891H113.479V155.779ZM117.334 163.267L123.142 154.891H124.066L118.258 163.267H117.334ZM117.814 159.499C117.206 159.499 116.738 159.299 116.41 158.899C116.082 158.491 115.918 157.899 115.918 157.123C115.918 156.347 116.082 155.759 116.41 155.359C116.738 154.951 117.206 154.747 117.814 154.747C118.422 154.747 118.89 154.951 119.218 155.359C119.546 155.759 119.71 156.347 119.71 157.123C119.71 157.899 119.546 158.491 119.218 158.899C118.89 159.299 118.422 159.499 117.814 159.499ZM117.814 158.875C118.502 158.875 118.846 158.411 118.846 157.483V156.763C118.846 155.835 118.502 155.371 117.814 155.371C117.126 155.371 116.782 155.835 116.782 156.763V157.483C116.782 158.411 117.126 158.875 117.814 158.875ZM123.586 163.411C122.978 163.411 122.51 163.211 122.182 162.811C121.854 162.403 121.69 161.811 121.69 161.035C121.69 160.259 121.854 159.671 122.182 159.271C122.51 158.863 122.978 158.659 123.586 158.659C124.194 158.659 124.662 158.863 124.99 159.271C125.318 159.671 125.482 160.259 125.482 161.035C125.482 161.811 125.318 162.403 124.99 162.811C124.662 163.211 124.194 163.411 123.586 163.411ZM123.586 162.787C124.274 162.787 124.618 162.323 124.618 161.395V160.675C124.618 159.747 124.274 159.283 123.586 159.283C122.898 159.283 122.554 159.747 122.554 160.675V161.395C122.554 162.323 122.898 162.787 123.586 162.787Z" fill="white"/>
<rect opacity="0.24" width="225" height="225" rx="112.5" fill="#4E4C82" fill-opacity="0.5"/>
<path d="M112.5 112.5V0C143.479 0 171.525 12.8146 191.827 33.1731L112.5 112.5Z" fill="#4E4C82" fill-opacity="0.5"/>
<path d="M128.9 48.583V47.695H131.24V40.951H131.156L129.044 42.919L128.456 42.283L130.676 40.207H132.248V47.695H134.408V48.583H128.9ZM141.875 48.583H136.379V47.551L139.115 45.031C139.507 44.671 139.835 44.291 140.099 43.891C140.363 43.483 140.495 43.075 140.495 42.667V42.523C140.495 42.059 140.367 41.683 140.111 41.395C139.855 41.107 139.467 40.963 138.947 40.963C138.691 40.963 138.467 40.999 138.275 41.071C138.083 41.143 137.915 41.243 137.771 41.371C137.635 41.499 137.519 41.651 137.423 41.827C137.335 41.995 137.263 42.179 137.207 42.379L136.307 42.031C136.387 41.783 136.495 41.543 136.631 41.311C136.775 41.071 136.951 40.859 137.159 40.675C137.375 40.491 137.631 40.343 137.927 40.231C138.231 40.119 138.587 40.063 138.995 40.063C139.403 40.063 139.767 40.123 140.087 40.243C140.407 40.363 140.675 40.531 140.891 40.747C141.107 40.963 141.271 41.219 141.383 41.515C141.503 41.811 141.563 42.139 141.563 42.499C141.563 42.827 141.515 43.131 141.419 43.411C141.331 43.691 141.207 43.959 141.047 44.215C140.887 44.463 140.691 44.707 140.459 44.947C140.235 45.187 139.991 45.427 139.727 45.667L137.471 47.695H141.875V48.583ZM144.746 47.179C145.002 47.179 145.186 47.247 145.298 47.383C145.418 47.511 145.478 47.679 145.478 47.887V48.055C145.478 48.383 145.382 48.743 145.19 49.135C144.998 49.535 144.73 49.883 144.386 50.179H143.582C143.822 49.923 144.014 49.679 144.158 49.447C144.31 49.223 144.418 48.971 144.482 48.691C144.322 48.651 144.202 48.575 144.122 48.463C144.05 48.351 144.014 48.215 144.014 48.055V47.887C144.014 47.679 144.07 47.511 144.182 47.383C144.302 47.247 144.49 47.179 144.746 47.179ZM152.8 41.095H149.128L148.888 44.287H148.972C149.172 44.007 149.396 43.783 149.644 43.615C149.9 43.447 150.248 43.363 150.688 43.363C151.048 43.363 151.38 43.423 151.684 43.543C151.988 43.663 152.252 43.835 152.476 44.059C152.7 44.275 152.872 44.543 152.992 44.863C153.12 45.183 153.184 45.547 153.184 45.955C153.184 46.363 153.12 46.739 152.992 47.083C152.864 47.419 152.676 47.711 152.428 47.959C152.188 48.199 151.892 48.387 151.54 48.523C151.196 48.659 150.804 48.727 150.364 48.727C150.012 48.727 149.7 48.687 149.428 48.607C149.164 48.527 148.928 48.419 148.72 48.283C148.512 48.147 148.328 47.995 148.168 47.827C148.016 47.659 147.876 47.483 147.748 47.299L148.504 46.723C148.608 46.891 148.716 47.043 148.828 47.179C148.948 47.315 149.076 47.431 149.212 47.527C149.356 47.623 149.52 47.699 149.704 47.755C149.888 47.803 150.108 47.827 150.364 47.827C150.94 47.827 151.376 47.675 151.672 47.371C151.968 47.067 152.116 46.639 152.116 46.087V45.967C152.116 45.415 151.968 44.987 151.672 44.683C151.376 44.379 150.94 44.227 150.364 44.227C149.98 44.227 149.676 44.299 149.452 44.443C149.236 44.579 149.04 44.743 148.864 44.935L148.012 44.815L148.312 40.207H152.8V41.095ZM159.931 48.583L165.739 40.207H166.663L160.855 48.583H159.931ZM160.411 44.815C159.803 44.815 159.335 44.615 159.007 44.215C158.679 43.807 158.515 43.215 158.515 42.439C158.515 41.663 158.679 41.075 159.007 40.675C159.335 40.267 159.803 40.063 160.411 40.063C161.019 40.063 161.487 40.267 161.815 40.675C162.143 41.075 162.307 41.663 162.307 42.439C162.307 43.215 162.143 43.807 161.815 44.215C161.487 44.615 161.019 44.815 160.411 44.815ZM160.411 44.191C161.099 44.191 161.443 43.727 161.443 42.799V42.079C161.443 41.151 161.099 40.687 160.411 40.687C159.723 40.687 159.379 41.151 159.379 42.079V42.799C159.379 43.727 159.723 44.191 160.411 44.191ZM166.183 48.727C165.575 48.727 165.107 48.527 164.779 48.127C164.451 47.719 164.287 47.127 164.287 46.351C164.287 45.575 164.451 44.987 164.779 44.587C165.107 44.179 165.575 43.975 166.183 43.975C166.791 43.975 167.259 44.179 167.587 44.587C167.915 44.987 168.079 45.575 168.079 46.351C168.079 47.127 167.915 47.719 167.587 48.127C167.259 48.527 166.791 48.727 166.183 48.727ZM166.183 48.103C166.871 48.103 167.215 47.639 167.215 46.711V45.991C167.215 45.063 166.871 44.599 166.183 44.599C165.495 44.599 165.151 45.063 165.151 45.991V46.711C165.151 47.639 165.495 48.103 166.183 48.103Z" fill="white"/>
</svg>
