<svg width="284" height="239" viewBox="0 0 284 239" fill="none" xmlns="http://www.w3.org/2000/svg">
<g opacity="0.56">
<rect x="12.1177" y="119.5" width="65.6314" height="65.6314" rx="32.8157" fill="#4E4C82" fill-opacity="0.5"/>
</g>
<g clip-path="url(#clip0)">
<path d="M25.1007 156.87H19.0047V155.958L23.8407 149.382H19.2567V148.494H24.9327V149.406L20.0847 155.982H25.1007V156.87ZM30.9136 155.862H30.8656C30.4896 156.63 29.8856 157.014 29.0536 157.014C28.6696 157.014 28.3216 156.938 28.0096 156.786C27.6976 156.634 27.4296 156.418 27.2056 156.138C26.9896 155.858 26.8216 155.518 26.7016 155.118C26.5896 154.718 26.5336 154.27 26.5336 153.774C26.5336 153.278 26.5896 152.83 26.7016 152.43C26.8216 152.03 26.9896 151.69 27.2056 151.41C27.4296 151.13 27.6976 150.914 28.0096 150.762C28.3216 150.61 28.6696 150.534 29.0536 150.534C29.4856 150.534 29.8536 150.63 30.1576 150.822C30.4696 151.006 30.7056 151.294 30.8656 151.686H30.9136V147.99H31.8736V156.87H30.9136V155.862ZM29.3176 156.15C29.5336 156.15 29.7376 156.122 29.9296 156.066C30.1296 156.01 30.3016 155.93 30.4456 155.826C30.5896 155.714 30.7016 155.582 30.7816 155.43C30.8696 155.27 30.9136 155.09 30.9136 154.89V152.586C30.9136 152.418 30.8696 152.262 30.7816 152.118C30.7016 151.966 30.5896 151.838 30.4456 151.734C30.3016 151.63 30.1296 151.55 29.9296 151.494C29.7376 151.43 29.5336 151.398 29.3176 151.398C28.7736 151.398 28.3456 151.57 28.0336 151.914C27.7216 152.25 27.5656 152.694 27.5656 153.246V154.302C27.5656 154.854 27.7216 155.302 28.0336 155.646C28.3456 155.982 28.7736 156.15 29.3176 156.15ZM34.7946 149.226C34.5866 149.226 34.4346 149.178 34.3386 149.082C34.2506 148.978 34.2066 148.846 34.2066 148.686V148.53C34.2066 148.37 34.2506 148.242 34.3386 148.146C34.4346 148.042 34.5866 147.99 34.7946 147.99C35.0026 147.99 35.1506 148.042 35.2386 148.146C35.3346 148.242 35.3826 148.37 35.3826 148.53V148.686C35.3826 148.846 35.3346 148.978 35.2386 149.082C35.1506 149.178 35.0026 149.226 34.7946 149.226ZM34.3146 150.678H35.2746V156.87H34.3146V150.678ZM40.0426 157.014C39.6186 157.014 39.2346 156.938 38.8906 156.786C38.5546 156.634 38.2626 156.418 38.0146 156.138C37.7746 155.85 37.5866 155.51 37.4506 155.118C37.3226 154.718 37.2586 154.27 37.2586 153.774C37.2586 153.286 37.3226 152.842 37.4506 152.442C37.5866 152.042 37.7746 151.702 38.0146 151.422C38.2626 151.134 38.5546 150.914 38.8906 150.762C39.2346 150.61 39.6186 150.534 40.0426 150.534C40.4586 150.534 40.8306 150.61 41.1586 150.762C41.4866 150.914 41.7666 151.126 41.9986 151.398C42.2306 151.662 42.4066 151.978 42.5266 152.346C42.6546 152.714 42.7186 153.118 42.7186 153.558V154.014H38.2666V154.302C38.2666 154.566 38.3066 154.814 38.3866 155.046C38.4746 155.27 38.5946 155.466 38.7466 155.634C38.9066 155.802 39.0986 155.934 39.3226 156.03C39.5546 156.126 39.8146 156.174 40.1026 156.174C40.4946 156.174 40.8346 156.082 41.1226 155.898C41.4186 155.714 41.6466 155.45 41.8066 155.106L42.4906 155.598C42.2906 156.022 41.9786 156.366 41.5546 156.63C41.1306 156.886 40.6266 157.014 40.0426 157.014ZM40.0426 151.338C39.7786 151.338 39.5386 151.386 39.3226 151.482C39.1066 151.57 38.9186 151.698 38.7586 151.866C38.6066 152.034 38.4866 152.234 38.3986 152.466C38.3106 152.69 38.2666 152.938 38.2666 153.21V153.294H41.6866V153.162C41.6866 152.61 41.5346 152.17 41.2306 151.842C40.9346 151.506 40.5386 151.338 40.0426 151.338ZM45.7205 156.87C45.3845 156.87 45.1285 156.778 44.9525 156.594C44.7845 156.402 44.7005 156.162 44.7005 155.874V147.99H45.6605V156.03H46.5725V156.87H45.7205ZM52.87 156.87C52.51 156.87 52.25 156.774 52.09 156.582C51.938 156.39 51.842 156.15 51.802 155.862H51.742C51.606 156.246 51.382 156.534 51.07 156.726C50.758 156.918 50.386 157.014 49.954 157.014C49.298 157.014 48.786 156.846 48.418 156.51C48.058 156.174 47.878 155.718 47.878 155.142C47.878 154.558 48.09 154.11 48.514 153.798C48.946 153.486 49.614 153.33 50.518 153.33H51.742V152.718C51.742 152.278 51.622 151.942 51.382 151.71C51.142 151.478 50.774 151.362 50.278 151.362C49.902 151.362 49.586 151.446 49.33 151.614C49.082 151.782 48.874 152.006 48.706 152.286L48.13 151.746C48.298 151.41 48.566 151.126 48.934 150.894C49.302 150.654 49.766 150.534 50.326 150.534C51.078 150.534 51.662 150.718 52.078 151.086C52.494 151.454 52.702 151.966 52.702 152.622V156.03H53.41V156.87H52.87ZM50.11 156.198C50.35 156.198 50.57 156.17 50.77 156.114C50.97 156.058 51.142 155.978 51.286 155.874C51.43 155.77 51.542 155.65 51.622 155.514C51.702 155.378 51.742 155.23 51.742 155.07V154.05H50.47C49.918 154.05 49.514 154.13 49.258 154.29C49.01 154.45 48.886 154.682 48.886 154.986V155.238C48.886 155.542 48.994 155.778 49.21 155.946C49.434 156.114 49.734 156.198 50.11 156.198ZM55.1802 156.87V150.678H56.1402V151.686H56.1882C56.3402 151.334 56.5522 151.054 56.8242 150.846C57.1042 150.638 57.4762 150.534 57.9402 150.534C58.5802 150.534 59.0842 150.742 59.4522 151.158C59.8282 151.566 60.0162 152.146 60.0162 152.898V156.87H59.0562V153.066C59.0562 151.954 58.5882 151.398 57.6522 151.398C57.4602 151.398 57.2722 151.422 57.0882 151.47C56.9122 151.518 56.7522 151.59 56.6082 151.686C56.4642 151.782 56.3482 151.906 56.2602 152.058C56.1802 152.202 56.1402 152.374 56.1402 152.574V156.87H55.1802ZM62.8805 149.226C62.6725 149.226 62.5205 149.178 62.4245 149.082C62.3365 148.978 62.2925 148.846 62.2925 148.686V148.53C62.2925 148.37 62.3365 148.242 62.4245 148.146C62.5205 148.042 62.6725 147.99 62.8805 147.99C63.0885 147.99 63.2365 148.042 63.3245 148.146C63.4205 148.242 63.4685 148.37 63.4685 148.53V148.686C63.4685 148.846 63.4205 148.978 63.3245 149.082C63.2365 149.178 63.0885 149.226 62.8805 149.226ZM62.4005 150.678H63.3605V156.87H62.4005V150.678ZM68.1285 157.014C67.7045 157.014 67.3205 156.938 66.9765 156.786C66.6405 156.634 66.3485 156.418 66.1005 156.138C65.8605 155.85 65.6725 155.51 65.5365 155.118C65.4085 154.718 65.3445 154.27 65.3445 153.774C65.3445 153.286 65.4085 152.842 65.5365 152.442C65.6725 152.042 65.8605 151.702 66.1005 151.422C66.3485 151.134 66.6405 150.914 66.9765 150.762C67.3205 150.61 67.7045 150.534 68.1285 150.534C68.5445 150.534 68.9165 150.61 69.2445 150.762C69.5725 150.914 69.8525 151.126 70.0845 151.398C70.3165 151.662 70.4925 151.978 70.6125 152.346C70.7405 152.714 70.8045 153.118 70.8045 153.558V154.014H66.3525V154.302C66.3525 154.566 66.3925 154.814 66.4725 155.046C66.5605 155.27 66.6805 155.466 66.8325 155.634C66.9925 155.802 67.1845 155.934 67.4085 156.03C67.6405 156.126 67.9005 156.174 68.1885 156.174C68.5805 156.174 68.9205 156.082 69.2085 155.898C69.5045 155.714 69.7325 155.45 69.8925 155.106L70.5765 155.598C70.3765 156.022 70.0645 156.366 69.6405 156.63C69.2165 156.886 68.7125 157.014 68.1285 157.014ZM68.1285 151.338C67.8645 151.338 67.6245 151.386 67.4085 151.482C67.1925 151.57 67.0045 151.698 66.8445 151.866C66.6925 152.034 66.5725 152.234 66.4845 152.466C66.3965 152.69 66.3525 152.938 66.3525 153.21V153.294H69.7725V153.162C69.7725 152.61 69.6205 152.17 69.3165 151.842C69.0205 151.506 68.6245 151.338 68.1285 151.338Z" fill="white"/>
</g>
<g opacity="0.56">
<rect x="0.0783691" y="35.8496" width="78.2698" height="77.5499" rx="38.7749" fill="#4E4C82" fill-opacity="0.5"/>
</g>
<g clip-path="url(#clip1)">
<path d="M29.6694 79.977C28.6054 79.977 27.7774 79.617 27.1854 78.897C26.5934 78.169 26.2974 77.101 26.2974 75.693C26.2974 74.285 26.5934 73.205 27.1854 72.453C27.7774 71.693 28.6054 71.313 29.6694 71.313C30.3734 71.313 30.9614 71.473 31.4334 71.793C31.9134 72.113 32.2854 72.565 32.5494 73.149L31.7334 73.641C31.5654 73.209 31.3094 72.865 30.9654 72.609C30.6214 72.345 30.1894 72.213 29.6694 72.213C29.3094 72.213 28.9854 72.281 28.6974 72.417C28.4174 72.553 28.1774 72.749 27.9774 73.005C27.7854 73.253 27.6374 73.553 27.5334 73.905C27.4294 74.249 27.3774 74.637 27.3774 75.069V76.317C27.3774 77.181 27.5774 77.857 27.9774 78.345C28.3774 78.833 28.9414 79.077 29.6694 79.077C30.2054 79.077 30.6534 78.941 31.0134 78.669C31.3734 78.389 31.6374 78.021 31.8054 77.565L32.6094 78.069C32.3454 78.661 31.9654 79.129 31.4694 79.473C30.9734 79.809 30.3734 79.977 29.6694 79.977ZM34.4746 70.953H35.4346V74.649H35.4826C35.6346 74.297 35.8466 74.017 36.1186 73.809C36.3986 73.601 36.7706 73.497 37.2346 73.497C37.8746 73.497 38.3786 73.705 38.7466 74.121C39.1226 74.529 39.3106 75.109 39.3106 75.861V79.833H38.3506V76.029C38.3506 74.917 37.8826 74.361 36.9466 74.361C36.7546 74.361 36.5666 74.385 36.3826 74.433C36.2066 74.481 36.0466 74.553 35.9026 74.649C35.7586 74.745 35.6426 74.869 35.5546 75.021C35.4746 75.165 35.4346 75.337 35.4346 75.537V79.833H34.4746V70.953ZM46.1949 79.833C45.8349 79.833 45.5749 79.737 45.4149 79.545C45.2629 79.353 45.1669 79.113 45.1269 78.825H45.0669C44.9309 79.209 44.7069 79.497 44.3949 79.689C44.0829 79.881 43.7109 79.977 43.2789 79.977C42.6229 79.977 42.1109 79.809 41.7429 79.473C41.3829 79.137 41.2029 78.681 41.2029 78.105C41.2029 77.521 41.4149 77.073 41.8389 76.761C42.2709 76.449 42.9389 76.293 43.8429 76.293H45.0669V75.681C45.0669 75.241 44.9469 74.905 44.7069 74.673C44.4669 74.441 44.0989 74.325 43.6029 74.325C43.2269 74.325 42.9109 74.409 42.6549 74.577C42.4069 74.745 42.1989 74.969 42.0309 75.249L41.4549 74.709C41.6229 74.373 41.8909 74.089 42.2589 73.857C42.6269 73.617 43.0909 73.497 43.6509 73.497C44.4029 73.497 44.9869 73.681 45.4029 74.049C45.8189 74.417 46.0269 74.929 46.0269 75.585V78.993H46.7349V79.833H46.1949ZM43.4349 79.161C43.6749 79.161 43.8949 79.133 44.0949 79.077C44.2949 79.021 44.4669 78.941 44.6109 78.837C44.7549 78.733 44.8669 78.613 44.9469 78.477C45.0269 78.341 45.0669 78.193 45.0669 78.033V77.013H43.7949C43.2429 77.013 42.8389 77.093 42.5829 77.253C42.3349 77.413 42.2109 77.645 42.2109 77.949V78.201C42.2109 78.505 42.3189 78.741 42.5349 78.909C42.7589 79.077 43.0589 79.161 43.4349 79.161ZM49.873 79.833C49.537 79.833 49.281 79.741 49.105 79.557C48.937 79.365 48.853 79.117 48.853 78.813V74.481H47.833V73.641H48.409C48.617 73.641 48.757 73.601 48.829 73.521C48.909 73.433 48.949 73.285 48.949 73.077V71.925H49.813V73.641H51.169V74.481H49.813V78.993H51.073V79.833H49.873Z" fill="white"/>
</g>
<g opacity="0.24">
<rect x="84.353" width="78.2698" height="77.5499" rx="38.7749" fill="#4E4C82" fill-opacity="0.5"/>
</g>
<g clip-path="url(#clip2)">
<path d="M95.5076 38.8714L94.4996 37.0114H94.4636V43.9834H93.4796V35.6074H94.6436L97.7036 40.7194L98.7116 42.5794H98.7476V35.6074H99.7316V43.9834H98.5676L95.5076 38.8714ZM104.608 44.1274C104.192 44.1274 103.812 44.0514 103.468 43.8994C103.124 43.7474 102.828 43.5314 102.58 43.2514C102.34 42.9634 102.152 42.6234 102.016 42.2314C101.88 41.8314 101.812 41.3834 101.812 40.8874C101.812 40.3994 101.88 39.9554 102.016 39.5554C102.152 39.1554 102.34 38.8154 102.58 38.5354C102.828 38.2474 103.124 38.0274 103.468 37.8754C103.812 37.7234 104.192 37.6474 104.608 37.6474C105.024 37.6474 105.4 37.7234 105.736 37.8754C106.08 38.0274 106.376 38.2474 106.624 38.5354C106.872 38.8154 107.064 39.1554 107.2 39.5554C107.336 39.9554 107.404 40.3994 107.404 40.8874C107.404 41.3834 107.336 41.8314 107.2 42.2314C107.064 42.6234 106.872 42.9634 106.624 43.2514C106.376 43.5314 106.08 43.7474 105.736 43.8994C105.4 44.0514 105.024 44.1274 104.608 44.1274ZM104.608 43.2754C105.128 43.2754 105.552 43.1154 105.88 42.7954C106.208 42.4754 106.372 41.9874 106.372 41.3314V40.4434C106.372 39.7874 106.208 39.2994 105.88 38.9794C105.552 38.6594 105.128 38.4994 104.608 38.4994C104.088 38.4994 103.664 38.6594 103.336 38.9794C103.008 39.2994 102.844 39.7874 102.844 40.4434V41.3314C102.844 41.9874 103.008 42.4754 103.336 42.7954C103.664 43.1154 104.088 43.2754 104.608 43.2754ZM110.751 43.9834C110.415 43.9834 110.159 43.8914 109.983 43.7074C109.815 43.5154 109.731 43.2674 109.731 42.9634V38.6314H108.711V37.7914H109.287C109.495 37.7914 109.635 37.7514 109.707 37.6714C109.787 37.5834 109.827 37.4354 109.827 37.2274V36.0754H110.691V37.7914H112.047V38.6314H110.691V43.1434H111.951V43.9834H110.751ZM114.47 36.3394C114.262 36.3394 114.11 36.2914 114.014 36.1954C113.926 36.0914 113.882 35.9594 113.882 35.7994V35.6434C113.882 35.4834 113.926 35.3554 114.014 35.2594C114.11 35.1554 114.262 35.1034 114.47 35.1034C114.678 35.1034 114.826 35.1554 114.914 35.2594C115.01 35.3554 115.058 35.4834 115.058 35.6434V35.7994C115.058 35.9594 115.01 36.0914 114.914 36.1954C114.826 36.2914 114.678 36.3394 114.47 36.3394ZM113.99 37.7914H114.95V43.9834H113.99V37.7914ZM117.726 38.6314H116.718V37.7914H117.726V36.5434C117.726 36.1114 117.838 35.7634 118.062 35.4994C118.286 35.2354 118.626 35.1034 119.082 35.1034H120.018V35.9434H118.686V37.7914H122.154V43.9834H121.194V38.6314H118.686V43.9834H117.726V38.6314ZM121.674 36.3394C121.466 36.3394 121.314 36.2914 121.218 36.1954C121.13 36.0914 121.086 35.9594 121.086 35.7994V35.6434C121.086 35.4834 121.13 35.3554 121.218 35.2594C121.314 35.1554 121.466 35.1034 121.674 35.1034C121.882 35.1034 122.03 35.1554 122.118 35.2594C122.214 35.3554 122.262 35.4834 122.262 35.6434V35.7994C122.262 35.9594 122.214 36.0914 122.118 36.1954C122.03 36.2914 121.882 36.3394 121.674 36.3394ZM124.598 35.1034H125.558V40.7314H125.606L126.554 39.6754L128.306 37.7914H129.47L127.178 40.2394L129.698 43.9834H128.534L126.482 40.8274L125.558 41.7754V43.9834H124.598V35.1034ZM135.768 43.9834C135.408 43.9834 135.148 43.8874 134.988 43.6954C134.836 43.5034 134.74 43.2634 134.7 42.9754H134.64C134.504 43.3594 134.28 43.6474 133.968 43.8394C133.656 44.0314 133.284 44.1274 132.852 44.1274C132.196 44.1274 131.684 43.9594 131.316 43.6234C130.956 43.2874 130.776 42.8314 130.776 42.2554C130.776 41.6714 130.988 41.2234 131.412 40.9114C131.844 40.5994 132.512 40.4434 133.416 40.4434H134.64V39.8314C134.64 39.3914 134.52 39.0554 134.28 38.8234C134.04 38.5914 133.672 38.4754 133.176 38.4754C132.8 38.4754 132.484 38.5594 132.228 38.7274C131.98 38.8954 131.772 39.1194 131.604 39.3994L131.028 38.8594C131.196 38.5234 131.464 38.2394 131.832 38.0074C132.2 37.7674 132.664 37.6474 133.224 37.6474C133.976 37.6474 134.56 37.8314 134.976 38.1994C135.392 38.5674 135.6 39.0794 135.6 39.7354V43.1434H136.308V43.9834H135.768ZM133.008 43.3114C133.248 43.3114 133.468 43.2834 133.668 43.2274C133.868 43.1714 134.04 43.0914 134.184 42.9874C134.328 42.8834 134.44 42.7634 134.52 42.6274C134.6 42.4914 134.64 42.3434 134.64 42.1834V41.1634H133.368C132.816 41.1634 132.412 41.2434 132.156 41.4034C131.908 41.5634 131.784 41.7954 131.784 42.0994V42.3514C131.784 42.6554 131.892 42.8914 132.108 43.0594C132.332 43.2274 132.632 43.3114 133.008 43.3114ZM133.368 36.9634L132.744 36.6754L133.764 34.6354L134.64 35.0554L133.368 36.9634ZM140.382 44.1274C139.95 44.1274 139.562 44.0514 139.218 43.8994C138.874 43.7474 138.582 43.5314 138.342 43.2514C138.11 42.9714 137.93 42.6314 137.802 42.2314C137.682 41.8314 137.622 41.3834 137.622 40.8874C137.622 40.3914 137.682 39.9434 137.802 39.5434C137.93 39.1434 138.11 38.8034 138.342 38.5234C138.582 38.2434 138.874 38.0274 139.218 37.8754C139.562 37.7234 139.95 37.6474 140.382 37.6474C140.998 37.6474 141.49 37.7834 141.858 38.0554C142.234 38.3194 142.514 38.6674 142.698 39.0994L141.894 39.5074C141.782 39.1874 141.598 38.9394 141.342 38.7634C141.086 38.5874 140.766 38.4994 140.382 38.4994C140.094 38.4994 139.842 38.5474 139.626 38.6434C139.41 38.7314 139.23 38.8594 139.086 39.0274C138.942 39.1874 138.834 39.3834 138.762 39.6154C138.69 39.8394 138.654 40.0874 138.654 40.3594V41.4154C138.654 41.9594 138.798 42.4074 139.086 42.7594C139.382 43.1034 139.814 43.2754 140.382 43.2754C141.158 43.2754 141.718 42.9154 142.062 42.1954L142.758 42.6634C142.558 43.1114 142.258 43.4674 141.858 43.7314C141.466 43.9954 140.974 44.1274 140.382 44.1274ZM144.993 36.3394C144.785 36.3394 144.633 36.2914 144.537 36.1954C144.449 36.0914 144.405 35.9594 144.405 35.7994V35.6434C144.405 35.4834 144.449 35.3554 144.537 35.2594C144.633 35.1554 144.785 35.1034 144.993 35.1034C145.201 35.1034 145.349 35.1554 145.437 35.2594C145.533 35.3554 145.581 35.4834 145.581 35.6434V35.7994C145.581 35.9594 145.533 36.0914 145.437 36.1954C145.349 36.2914 145.201 36.3394 144.993 36.3394ZM144.513 37.7914H145.473V43.9834H144.513V37.7914ZM150.241 44.1274C149.817 44.1274 149.433 44.0514 149.089 43.8994C148.753 43.7474 148.461 43.5314 148.213 43.2514C147.973 42.9634 147.785 42.6234 147.649 42.2314C147.521 41.8314 147.457 41.3834 147.457 40.8874C147.457 40.3994 147.521 39.9554 147.649 39.5554C147.785 39.1554 147.973 38.8154 148.213 38.5354C148.461 38.2474 148.753 38.0274 149.089 37.8754C149.433 37.7234 149.817 37.6474 150.241 37.6474C150.657 37.6474 151.029 37.7234 151.357 37.8754C151.685 38.0274 151.965 38.2394 152.197 38.5114C152.429 38.7754 152.605 39.0914 152.725 39.4594C152.853 39.8274 152.917 40.2314 152.917 40.6714V41.1274H148.465V41.4154C148.465 41.6794 148.505 41.9274 148.585 42.1594C148.673 42.3834 148.793 42.5794 148.945 42.7474C149.105 42.9154 149.297 43.0474 149.521 43.1434C149.753 43.2394 150.013 43.2874 150.301 43.2874C150.693 43.2874 151.033 43.1954 151.321 43.0114C151.617 42.8274 151.845 42.5634 152.005 42.2194L152.689 42.7114C152.489 43.1354 152.177 43.4794 151.753 43.7434C151.329 43.9994 150.825 44.1274 150.241 44.1274ZM150.241 38.4514C149.977 38.4514 149.737 38.4994 149.521 38.5954C149.305 38.6834 149.117 38.8114 148.957 38.9794C148.805 39.1474 148.685 39.3474 148.597 39.5794C148.509 39.8034 148.465 40.0514 148.465 40.3234V40.4074H151.885V40.2754C151.885 39.7234 151.733 39.2834 151.429 38.9554C151.133 38.6194 150.737 38.4514 150.241 38.4514Z" fill="#4E4C82"/>
</g>
<g opacity="0.56">
<rect x="144.549" y="173.275" width="65.6314" height="65.6314" rx="32.8157" fill="#4E4C82" fill-opacity="0.5"/>
</g>
<g clip-path="url(#clip3)">
<path d="M154.735 202.646V194.27H158.071C158.823 194.27 159.399 194.486 159.799 194.918C160.207 195.342 160.411 195.926 160.411 196.67C160.411 197.414 160.207 198.002 159.799 198.434C159.399 198.858 158.823 199.07 158.071 199.07H155.743V202.646H154.735ZM155.743 198.182H158.071C158.471 198.182 158.779 198.078 158.995 197.87C159.219 197.662 159.331 197.366 159.331 196.982V196.358C159.331 195.974 159.219 195.678 158.995 195.47C158.779 195.262 158.471 195.158 158.071 195.158H155.743V198.182ZM164.422 202.79C164.006 202.79 163.626 202.714 163.282 202.562C162.938 202.41 162.642 202.194 162.394 201.914C162.154 201.626 161.966 201.286 161.83 200.894C161.694 200.494 161.626 200.046 161.626 199.55C161.626 199.062 161.694 198.618 161.83 198.218C161.966 197.818 162.154 197.478 162.394 197.198C162.642 196.91 162.938 196.69 163.282 196.538C163.626 196.386 164.006 196.31 164.422 196.31C164.838 196.31 165.214 196.386 165.55 196.538C165.894 196.69 166.19 196.91 166.438 197.198C166.686 197.478 166.878 197.818 167.014 198.218C167.15 198.618 167.218 199.062 167.218 199.55C167.218 200.046 167.15 200.494 167.014 200.894C166.878 201.286 166.686 201.626 166.438 201.914C166.19 202.194 165.894 202.41 165.55 202.562C165.214 202.714 164.838 202.79 164.422 202.79ZM164.422 201.938C164.942 201.938 165.366 201.778 165.694 201.458C166.022 201.138 166.186 200.65 166.186 199.994V199.106C166.186 198.45 166.022 197.962 165.694 197.642C165.366 197.322 164.942 197.162 164.422 197.162C163.902 197.162 163.478 197.322 163.15 197.642C162.822 197.962 162.658 198.45 162.658 199.106V199.994C162.658 200.65 162.822 201.138 163.15 201.458C163.478 201.778 163.902 201.938 164.422 201.938ZM173.157 201.638H173.109C172.733 202.406 172.129 202.79 171.297 202.79C170.913 202.79 170.565 202.714 170.253 202.562C169.941 202.41 169.673 202.194 169.449 201.914C169.233 201.634 169.065 201.294 168.945 200.894C168.833 200.494 168.777 200.046 168.777 199.55C168.777 199.054 168.833 198.606 168.945 198.206C169.065 197.806 169.233 197.466 169.449 197.186C169.673 196.906 169.941 196.69 170.253 196.538C170.565 196.386 170.913 196.31 171.297 196.31C171.729 196.31 172.097 196.406 172.401 196.598C172.713 196.782 172.949 197.07 173.109 197.462H173.157V193.766H174.117V202.646H173.157V201.638ZM171.561 201.926C171.777 201.926 171.981 201.898 172.173 201.842C172.373 201.786 172.545 201.706 172.689 201.602C172.833 201.49 172.945 201.358 173.025 201.206C173.113 201.046 173.157 200.866 173.157 200.666V198.362C173.157 198.194 173.113 198.038 173.025 197.894C172.945 197.742 172.833 197.614 172.689 197.51C172.545 197.406 172.373 197.326 172.173 197.27C171.981 197.206 171.777 197.174 171.561 197.174C171.017 197.174 170.589 197.346 170.277 197.69C169.965 198.026 169.809 198.47 169.809 199.022V200.078C169.809 200.63 169.965 201.078 170.277 201.422C170.589 201.758 171.017 201.926 171.561 201.926ZM176.558 196.454H177.518V197.462H177.566C177.726 197.07 177.958 196.782 178.262 196.598C178.574 196.406 178.946 196.31 179.378 196.31C179.762 196.31 180.11 196.386 180.422 196.538C180.734 196.69 180.998 196.906 181.214 197.186C181.438 197.466 181.606 197.806 181.718 198.206C181.838 198.606 181.898 199.054 181.898 199.55C181.898 200.046 181.838 200.494 181.718 200.894C181.606 201.294 181.438 201.634 181.214 201.914C180.998 202.194 180.734 202.41 180.422 202.562C180.11 202.714 179.762 202.79 179.378 202.79C178.538 202.79 177.934 202.406 177.566 201.638H177.518V205.046H176.558V196.454ZM179.114 201.926C179.658 201.926 180.086 201.758 180.398 201.422C180.71 201.078 180.866 200.63 180.866 200.078V199.022C180.866 198.47 180.71 198.026 180.398 197.69C180.086 197.346 179.658 197.174 179.114 197.174C178.898 197.174 178.69 197.206 178.49 197.27C178.298 197.326 178.13 197.406 177.986 197.51C177.842 197.614 177.726 197.742 177.638 197.894C177.558 198.038 177.518 198.194 177.518 198.362V200.666C177.518 200.866 177.558 201.046 177.638 201.206C177.726 201.358 177.842 201.49 177.986 201.602C178.13 201.706 178.298 201.786 178.49 201.842C178.69 201.898 178.898 201.926 179.114 201.926ZM186.259 202.79C185.843 202.79 185.463 202.714 185.119 202.562C184.775 202.41 184.479 202.194 184.231 201.914C183.991 201.626 183.803 201.286 183.667 200.894C183.531 200.494 183.463 200.046 183.463 199.55C183.463 199.062 183.531 198.618 183.667 198.218C183.803 197.818 183.991 197.478 184.231 197.198C184.479 196.91 184.775 196.69 185.119 196.538C185.463 196.386 185.843 196.31 186.259 196.31C186.675 196.31 187.051 196.386 187.387 196.538C187.731 196.69 188.027 196.91 188.275 197.198C188.523 197.478 188.715 197.818 188.851 198.218C188.987 198.618 189.055 199.062 189.055 199.55C189.055 200.046 188.987 200.494 188.851 200.894C188.715 201.286 188.523 201.626 188.275 201.914C188.027 202.194 187.731 202.41 187.387 202.562C187.051 202.714 186.675 202.79 186.259 202.79ZM186.259 201.938C186.779 201.938 187.203 201.778 187.531 201.458C187.859 201.138 188.023 200.65 188.023 199.994V199.106C188.023 198.45 187.859 197.962 187.531 197.642C187.203 197.322 186.779 197.162 186.259 197.162C185.739 197.162 185.315 197.322 184.987 197.642C184.659 197.962 184.495 198.45 184.495 199.106V199.994C184.495 200.65 184.659 201.138 184.987 201.458C185.315 201.778 185.739 201.938 186.259 201.938ZM191.033 202.646V196.454H191.993V197.594H192.053C192.165 197.298 192.365 197.034 192.653 196.802C192.941 196.57 193.337 196.454 193.841 196.454H194.213V197.414H193.649C193.129 197.414 192.721 197.514 192.425 197.714C192.137 197.906 191.993 198.15 191.993 198.446V202.646H191.033ZM200.293 202.646C199.933 202.646 199.673 202.55 199.513 202.358C199.361 202.166 199.265 201.926 199.225 201.638H199.165C199.029 202.022 198.805 202.31 198.493 202.502C198.181 202.694 197.809 202.79 197.377 202.79C196.721 202.79 196.209 202.622 195.841 202.286C195.481 201.95 195.301 201.494 195.301 200.918C195.301 200.334 195.513 199.886 195.937 199.574C196.369 199.262 197.037 199.106 197.941 199.106H199.165V198.494C199.165 198.054 199.045 197.718 198.805 197.486C198.565 197.254 198.197 197.138 197.701 197.138C197.325 197.138 197.009 197.222 196.753 197.39C196.505 197.558 196.297 197.782 196.129 198.062L195.553 197.522C195.721 197.186 195.989 196.902 196.357 196.67C196.725 196.43 197.189 196.31 197.749 196.31C198.501 196.31 199.085 196.494 199.501 196.862C199.917 197.23 200.125 197.742 200.125 198.398V201.806H200.833V202.646H200.293ZM197.533 201.974C197.773 201.974 197.993 201.946 198.193 201.89C198.393 201.834 198.565 201.754 198.709 201.65C198.853 201.546 198.965 201.426 199.045 201.29C199.125 201.154 199.165 201.006 199.165 200.846V199.826H197.893C197.341 199.826 196.937 199.906 196.681 200.066C196.433 200.226 196.309 200.458 196.309 200.762V201.014C196.309 201.318 196.417 201.554 196.633 201.722C196.857 201.89 197.157 201.974 197.533 201.974ZM170.577 218.646V210.27H175.689V211.158H171.585V213.966H175.449V214.854H171.585V217.758H175.689V218.646H170.577ZM180.001 213.534L178.993 211.674H178.957V218.646H177.973V210.27H179.137L182.197 215.382L183.205 217.242H183.241V210.27H184.225V218.646H183.061L180.001 213.534Z" fill="white"/>
</g>
<g opacity="0.24">
<rect x="84.353" y="131.45" width="53.7129" height="54.7129" rx="26.8565" fill="#4E4C82" fill-opacity="0.5"/>
</g>
<g clip-path="url(#clip4)">
<path d="M96.5119 149.096L95.5039 147.236H95.4679V154.208H94.4839V145.832H95.6479L98.7079 150.944L99.7159 152.804H99.7519V145.832H100.736V154.208H99.5719L96.5119 149.096ZM105.612 154.352C105.196 154.352 104.816 154.276 104.472 154.124C104.128 153.972 103.832 153.756 103.584 153.476C103.344 153.188 103.156 152.848 103.02 152.456C102.884 152.056 102.816 151.608 102.816 151.112C102.816 150.624 102.884 150.18 103.02 149.78C103.156 149.38 103.344 149.04 103.584 148.76C103.832 148.472 104.128 148.252 104.472 148.1C104.816 147.948 105.196 147.872 105.612 147.872C106.028 147.872 106.404 147.948 106.74 148.1C107.084 148.252 107.38 148.472 107.628 148.76C107.876 149.04 108.068 149.38 108.204 149.78C108.34 150.18 108.408 150.624 108.408 151.112C108.408 151.608 108.34 152.056 108.204 152.456C108.068 152.848 107.876 153.188 107.628 153.476C107.38 153.756 107.084 153.972 106.74 154.124C106.404 154.276 106.028 154.352 105.612 154.352ZM105.612 153.5C106.132 153.5 106.556 153.34 106.884 153.02C107.212 152.7 107.376 152.212 107.376 151.556V150.668C107.376 150.012 107.212 149.524 106.884 149.204C106.556 148.884 106.132 148.724 105.612 148.724C105.092 148.724 104.668 148.884 104.34 149.204C104.012 149.524 103.848 150.012 103.848 150.668V151.556C103.848 152.212 104.012 152.7 104.34 153.02C104.668 153.34 105.092 153.5 105.612 153.5ZM112.691 154.352C112.259 154.352 111.871 154.276 111.527 154.124C111.183 153.972 110.891 153.756 110.651 153.476C110.419 153.196 110.239 152.856 110.111 152.456C109.991 152.056 109.931 151.608 109.931 151.112C109.931 150.616 109.991 150.168 110.111 149.768C110.239 149.368 110.419 149.028 110.651 148.748C110.891 148.468 111.183 148.252 111.527 148.1C111.871 147.948 112.259 147.872 112.691 147.872C113.307 147.872 113.799 148.008 114.167 148.28C114.543 148.544 114.823 148.892 115.007 149.324L114.203 149.732C114.091 149.412 113.907 149.164 113.651 148.988C113.395 148.812 113.075 148.724 112.691 148.724C112.403 148.724 112.151 148.772 111.935 148.868C111.719 148.956 111.539 149.084 111.395 149.252C111.251 149.412 111.143 149.608 111.071 149.84C110.999 150.064 110.963 150.312 110.963 150.584V151.64C110.963 152.184 111.107 152.632 111.395 152.984C111.691 153.328 112.123 153.5 112.691 153.5C113.467 153.5 114.027 153.14 114.371 152.42L115.067 152.888C114.867 153.336 114.567 153.692 114.167 153.956C113.775 154.22 113.283 154.352 112.691 154.352ZM112.091 147.02L110.759 145.304L111.287 144.932L112.691 146.336L114.095 144.932L114.623 145.304L113.291 147.02H112.091ZM116.822 154.208V148.016H117.782V149.024H117.83C117.982 148.672 118.194 148.392 118.466 148.184C118.746 147.976 119.118 147.872 119.582 147.872C120.222 147.872 120.726 148.08 121.094 148.496C121.47 148.904 121.658 149.484 121.658 150.236V154.208H120.698V150.404C120.698 149.292 120.23 148.736 119.294 148.736C119.102 148.736 118.914 148.76 118.73 148.808C118.554 148.856 118.394 148.928 118.25 149.024C118.106 149.12 117.99 149.244 117.902 149.396C117.822 149.54 117.782 149.712 117.782 149.912V154.208H116.822ZM126.371 154.352C125.947 154.352 125.563 154.276 125.219 154.124C124.883 153.972 124.591 153.756 124.343 153.476C124.103 153.188 123.915 152.848 123.779 152.456C123.651 152.056 123.587 151.608 123.587 151.112C123.587 150.624 123.651 150.18 123.779 149.78C123.915 149.38 124.103 149.04 124.343 148.76C124.591 148.472 124.883 148.252 125.219 148.1C125.563 147.948 125.947 147.872 126.371 147.872C126.787 147.872 127.159 147.948 127.487 148.1C127.815 148.252 128.095 148.464 128.327 148.736C128.559 149 128.735 149.316 128.855 149.684C128.983 150.052 129.047 150.456 129.047 150.896V151.352H124.595V151.64C124.595 151.904 124.635 152.152 124.715 152.384C124.803 152.608 124.923 152.804 125.075 152.972C125.235 153.14 125.427 153.272 125.651 153.368C125.883 153.464 126.143 153.512 126.431 153.512C126.823 153.512 127.163 153.42 127.451 153.236C127.747 153.052 127.975 152.788 128.135 152.444L128.819 152.936C128.619 153.36 128.307 153.704 127.883 153.968C127.459 154.224 126.955 154.352 126.371 154.352ZM126.371 148.676C126.107 148.676 125.867 148.724 125.651 148.82C125.435 148.908 125.247 149.036 125.087 149.204C124.935 149.372 124.815 149.572 124.727 149.804C124.639 150.028 124.595 150.276 124.595 150.548V150.632H128.015V150.5C128.015 149.948 127.863 149.508 127.559 149.18C127.263 148.844 126.867 148.676 126.371 148.676ZM126.467 147.188L125.843 146.9L126.863 144.86L127.739 145.28L126.467 147.188ZM96.3108 161.832V167.016C96.3108 167.816 96.4588 168.424 96.7548 168.84C97.0508 169.248 97.5708 169.452 98.3148 169.452C99.0588 169.452 99.5788 169.248 99.8748 168.84C100.171 168.424 100.319 167.816 100.319 167.016V161.832H101.327V166.776C101.327 167.384 101.271 167.912 101.159 168.36C101.055 168.808 100.883 169.18 100.643 169.476C100.403 169.772 100.087 169.992 99.6948 170.136C99.3108 170.28 98.8388 170.352 98.2788 170.352C97.7188 170.352 97.2468 170.28 96.8628 170.136C96.4868 169.992 96.1828 169.772 95.9508 169.476C95.7188 169.18 95.5508 168.808 95.4468 168.36C95.3508 167.912 95.3028 167.384 95.3028 166.776V161.832H96.3108ZM98.3748 161.148L97.7508 160.86L98.7708 158.82L99.6468 159.24L98.3748 161.148ZM105.66 170.352C105.084 170.352 104.6 170.244 104.208 170.028C103.824 169.804 103.492 169.508 103.212 169.14L103.896 168.588C104.136 168.892 104.404 169.128 104.7 169.296C104.996 169.456 105.34 169.536 105.732 169.536C106.14 169.536 106.456 169.448 106.68 169.272C106.912 169.096 107.028 168.848 107.028 168.528C107.028 168.288 106.948 168.084 106.788 167.916C106.636 167.74 106.356 167.62 105.948 167.556L105.456 167.484C105.168 167.444 104.904 167.384 104.664 167.304C104.424 167.216 104.212 167.104 104.028 166.968C103.852 166.824 103.712 166.648 103.608 166.44C103.512 166.232 103.464 165.984 103.464 165.696C103.464 165.392 103.52 165.128 103.632 164.904C103.744 164.672 103.896 164.48 104.088 164.328C104.288 164.176 104.524 164.064 104.796 163.992C105.068 163.912 105.36 163.872 105.672 163.872C106.176 163.872 106.596 163.96 106.932 164.136C107.276 164.312 107.576 164.556 107.832 164.868L107.196 165.444C107.06 165.252 106.86 165.08 106.596 164.928C106.332 164.768 106 164.688 105.6 164.688C105.2 164.688 104.896 164.776 104.688 164.952C104.488 165.12 104.388 165.352 104.388 165.648C104.388 165.952 104.488 166.172 104.688 166.308C104.896 166.444 105.192 166.544 105.576 166.608L106.056 166.68C106.744 166.784 107.232 166.984 107.52 167.28C107.808 167.568 107.952 167.948 107.952 168.42C107.952 169.02 107.748 169.492 107.34 169.836C106.932 170.18 106.372 170.352 105.66 170.352ZM112.375 170.352C111.951 170.352 111.567 170.276 111.223 170.124C110.887 169.972 110.595 169.756 110.347 169.476C110.107 169.188 109.919 168.848 109.783 168.456C109.655 168.056 109.591 167.608 109.591 167.112C109.591 166.624 109.655 166.18 109.783 165.78C109.919 165.38 110.107 165.04 110.347 164.76C110.595 164.472 110.887 164.252 111.223 164.1C111.567 163.948 111.951 163.872 112.375 163.872C112.791 163.872 113.163 163.948 113.491 164.1C113.819 164.252 114.099 164.464 114.331 164.736C114.563 165 114.739 165.316 114.859 165.684C114.987 166.052 115.051 166.456 115.051 166.896V167.352H110.599V167.64C110.599 167.904 110.639 168.152 110.719 168.384C110.807 168.608 110.927 168.804 111.079 168.972C111.239 169.14 111.431 169.272 111.655 169.368C111.887 169.464 112.147 169.512 112.435 169.512C112.827 169.512 113.167 169.42 113.455 169.236C113.751 169.052 113.979 168.788 114.139 168.444L114.823 168.936C114.623 169.36 114.311 169.704 113.887 169.968C113.463 170.224 112.959 170.352 112.375 170.352ZM112.375 164.676C112.111 164.676 111.871 164.724 111.655 164.82C111.439 164.908 111.251 165.036 111.091 165.204C110.939 165.372 110.819 165.572 110.731 165.804C110.643 166.028 110.599 166.276 110.599 166.548V166.632H114.019V166.5C114.019 165.948 113.867 165.508 113.563 165.18C113.267 164.844 112.871 164.676 112.375 164.676ZM117.033 161.328H117.993V166.956H118.041L118.989 165.9L120.741 164.016H121.905L119.613 166.464L122.133 170.208H120.969L118.917 167.052L117.993 168V170.208H117.033V161.328ZM127.577 164.016H128.525L125.753 171.648C125.681 171.832 125.609 171.984 125.537 172.104C125.465 172.232 125.377 172.332 125.273 172.404C125.169 172.476 125.037 172.528 124.877 172.56C124.725 172.592 124.537 172.608 124.313 172.608H123.821V171.768H124.793L125.261 170.448L122.945 164.016H123.905L125.393 168.228L125.681 169.236H125.741L126.077 168.228L127.577 164.016Z" fill="#4E4C82"/>
</g>
<g opacity="0.56">
<rect x="132.51" y="77.6748" width="47.3938" height="48.3938" rx="23.6969" fill="#4E4C82" fill-opacity="0.5"/>
</g>
<g clip-path="url(#clip5)">
<path d="M149.901 98.638V106.126H148.893V98.638H146.229V97.75H152.565V98.638H149.901ZM154.252 106.126V99.934H155.212V106.126H154.252ZM154.828 99.106L154.204 98.818L155.224 96.778L156.1 97.198L154.828 99.106ZM157.652 106.126V99.934H158.612V100.942H158.66C158.732 100.782 158.812 100.634 158.9 100.498C158.996 100.354 159.108 100.23 159.236 100.126C159.372 100.022 159.528 99.942 159.704 99.886C159.88 99.822 160.088 99.79 160.328 99.79C160.736 99.79 161.112 99.89 161.456 100.09C161.8 100.282 162.056 100.602 162.224 101.05H162.248C162.36 100.714 162.568 100.422 162.872 100.174C163.184 99.918 163.604 99.79 164.132 99.79C164.764 99.79 165.256 99.998 165.608 100.414C165.968 100.822 166.148 101.402 166.148 102.154V106.126H165.188V102.322C165.188 101.77 165.08 101.354 164.864 101.074C164.648 100.794 164.304 100.654 163.832 100.654C163.64 100.654 163.456 100.678 163.28 100.726C163.112 100.774 162.96 100.846 162.824 100.942C162.688 101.038 162.58 101.162 162.5 101.314C162.42 101.458 162.38 101.63 162.38 101.83V106.126H161.42V102.322C161.42 101.77 161.312 101.354 161.096 101.074C160.88 100.794 160.544 100.654 160.088 100.654C159.896 100.654 159.712 100.678 159.536 100.726C159.36 100.774 159.204 100.846 159.068 100.942C158.932 101.038 158.82 101.162 158.732 101.314C158.652 101.458 158.612 101.63 158.612 101.83V106.126H157.652Z" fill="white"/>
</g>
<g opacity="0.56">
<rect x="168.627" y="35.8496" width="41.7945" height="42.0746" rx="20.8972" fill="#4E4C82" fill-opacity="0.5"/>
</g>
<g clip-path="url(#clip6)">
<path d="M177.987 62.1381C177.307 62.1381 176.727 62.0101 176.247 61.7541C175.767 61.4901 175.359 61.1301 175.023 60.6741L175.767 60.0501C176.063 60.4421 176.391 60.7421 176.751 60.9501C177.111 61.1501 177.535 61.2501 178.023 61.2501C178.623 61.2501 179.079 61.1061 179.391 60.8181C179.711 60.5301 179.871 60.1461 179.871 59.6661C179.871 59.2661 179.751 58.9581 179.511 58.7421C179.271 58.5261 178.875 58.3541 178.323 58.2261L177.639 58.0701C176.871 57.8941 176.283 57.6301 175.875 57.2781C175.475 56.9181 175.275 56.4141 175.275 55.7661C175.275 55.3981 175.343 55.0701 175.479 54.7821C175.615 54.4941 175.803 54.2541 176.043 54.0621C176.291 53.8701 176.583 53.7261 176.919 53.6301C177.263 53.5261 177.639 53.4741 178.047 53.4741C178.679 53.4741 179.219 53.5901 179.667 53.8221C180.123 54.0541 180.507 54.3941 180.819 54.8421L180.063 55.3941C179.831 55.0741 179.551 54.8221 179.223 54.6381C178.895 54.4541 178.487 54.3621 177.999 54.3621C177.463 54.3621 177.039 54.4781 176.727 54.7101C176.423 54.9341 176.271 55.2741 176.271 55.7301C176.271 56.1301 176.399 56.4341 176.655 56.6421C176.919 56.8421 177.315 57.0021 177.843 57.1221L178.527 57.2781C179.351 57.4621 179.947 57.7421 180.315 58.1181C180.683 58.4941 180.867 58.9941 180.867 59.6181C180.867 60.0021 180.799 60.3501 180.663 60.6621C180.535 60.9741 180.347 61.2381 180.099 61.4541C179.851 61.6701 179.547 61.8381 179.187 61.9581C178.835 62.0781 178.435 62.1381 177.987 62.1381ZM177.387 52.7661L176.055 51.0501L176.583 50.6781L177.987 52.0821L179.391 50.6781L179.919 51.0501L178.587 52.7661H177.387ZM185.252 62.1381C184.836 62.1381 184.456 62.0621 184.112 61.9101C183.768 61.7581 183.472 61.5421 183.224 61.2621C182.984 60.9741 182.796 60.6341 182.66 60.2421C182.524 59.8421 182.456 59.3941 182.456 58.8981C182.456 58.4101 182.524 57.9661 182.66 57.5661C182.796 57.1661 182.984 56.8261 183.224 56.5461C183.472 56.2581 183.768 56.0381 184.112 55.8861C184.456 55.7341 184.836 55.6581 185.252 55.6581C185.668 55.6581 186.044 55.7341 186.38 55.8861C186.724 56.0381 187.02 56.2581 187.268 56.5461C187.516 56.8261 187.708 57.1661 187.844 57.5661C187.98 57.9661 188.048 58.4101 188.048 58.8981C188.048 59.3941 187.98 59.8421 187.844 60.2421C187.708 60.6341 187.516 60.9741 187.268 61.2621C187.02 61.5421 186.724 61.7581 186.38 61.9101C186.044 62.0621 185.668 62.1381 185.252 62.1381ZM185.252 61.2861C185.772 61.2861 186.196 61.1261 186.524 60.8061C186.852 60.4861 187.016 59.9981 187.016 59.3421V58.4541C187.016 57.7981 186.852 57.3101 186.524 56.9901C186.196 56.6701 185.772 56.5101 185.252 56.5101C184.732 56.5101 184.308 56.6701 183.98 56.9901C183.652 57.3101 183.488 57.7981 183.488 58.4541V59.3421C183.488 59.9981 183.652 60.4861 183.98 60.8061C184.308 61.1261 184.732 61.2861 185.252 61.2861ZM190.292 56.6421H189.284V55.8021H190.292V54.5541C190.292 54.1221 190.404 53.7741 190.628 53.5101C190.852 53.2461 191.192 53.1141 191.648 53.1141H192.584V53.9541H191.252V55.8021H192.584V56.6421H191.252V61.9941H190.292V56.6421ZM196.528 62.1381C196.104 62.1381 195.72 62.0621 195.376 61.9101C195.04 61.7581 194.748 61.5421 194.5 61.2621C194.26 60.9741 194.072 60.6341 193.936 60.2421C193.808 59.8421 193.744 59.3941 193.744 58.8981C193.744 58.4101 193.808 57.9661 193.936 57.5661C194.072 57.1661 194.26 56.8261 194.5 56.5461C194.748 56.2581 195.04 56.0381 195.376 55.8861C195.72 55.7341 196.104 55.6581 196.528 55.6581C196.944 55.6581 197.316 55.7341 197.644 55.8861C197.972 56.0381 198.252 56.2501 198.484 56.5221C198.716 56.7861 198.892 57.1021 199.012 57.4701C199.14 57.8381 199.204 58.2421 199.204 58.6821V59.1381H194.752V59.4261C194.752 59.6901 194.792 59.9381 194.872 60.1701C194.96 60.3941 195.08 60.5901 195.232 60.7581C195.392 60.9261 195.584 61.0581 195.808 61.1541C196.04 61.2501 196.3 61.2981 196.588 61.2981C196.98 61.2981 197.32 61.2061 197.608 61.0221C197.904 60.8381 198.132 60.5741 198.292 60.2301L198.976 60.7221C198.776 61.1461 198.464 61.4901 198.04 61.7541C197.616 62.0101 197.112 62.1381 196.528 62.1381ZM196.528 56.4621C196.264 56.4621 196.024 56.5101 195.808 56.6061C195.592 56.6941 195.404 56.8221 195.244 56.9901C195.092 57.1581 194.972 57.3581 194.884 57.5901C194.796 57.8141 194.752 58.0621 194.752 58.3341V58.4181H198.172V58.2861C198.172 57.7341 198.02 57.2941 197.716 56.9661C197.42 56.6301 197.024 56.4621 196.528 56.4621ZM196.624 54.9741L196 54.6861L197.02 52.6461L197.896 53.0661L196.624 54.9741ZM201.186 61.9941V55.8021H202.146V56.9421H202.206C202.318 56.6461 202.518 56.3821 202.806 56.1501C203.094 55.9181 203.49 55.8021 203.994 55.8021H204.366V56.7621H203.802C203.282 56.7621 202.874 56.8621 202.578 57.0621C202.29 57.2541 202.146 57.4981 202.146 57.7941V61.9941H201.186Z" fill="white"/>
</g>
<rect x="186.686" y="71.7002" width="96.5074" height="95.7875" rx="47.8938" fill="#4E4C82"/>
<g clip-path="url(#clip7)">
<path d="M202.894 123.379H202.858C202.754 123.771 202.498 124.099 202.09 124.363C201.69 124.619 201.17 124.747 200.53 124.747C200.018 124.747 199.546 124.655 199.114 124.471C198.69 124.279 198.326 124.003 198.022 123.643C197.718 123.275 197.478 122.823 197.302 122.287C197.134 121.743 197.05 121.119 197.05 120.415C197.05 119.719 197.134 119.103 197.302 118.567C197.47 118.023 197.71 117.571 198.022 117.211C198.334 116.843 198.71 116.563 199.15 116.371C199.59 116.179 200.078 116.083 200.614 116.083C201.366 116.083 201.994 116.251 202.498 116.587C203.002 116.923 203.39 117.367 203.662 117.919L202.834 118.423C202.642 117.975 202.354 117.623 201.97 117.367C201.594 117.111 201.142 116.983 200.614 116.983C200.246 116.983 199.91 117.051 199.606 117.187C199.302 117.315 199.038 117.499 198.814 117.739C198.598 117.979 198.43 118.267 198.31 118.603C198.19 118.939 198.13 119.315 198.13 119.731V121.087C198.13 121.503 198.19 121.883 198.31 122.227C198.43 122.563 198.598 122.851 198.814 123.091C199.038 123.331 199.31 123.519 199.63 123.655C199.95 123.783 200.31 123.847 200.71 123.847C200.998 123.847 201.27 123.811 201.526 123.739C201.79 123.659 202.018 123.543 202.21 123.391C202.41 123.239 202.566 123.051 202.678 122.827C202.79 122.595 202.846 122.323 202.846 122.011V121.183H200.998V120.295H203.83V124.603H202.894V123.379ZM206.214 124.603V116.227H209.55C210.302 116.227 210.878 116.443 211.278 116.875C211.686 117.299 211.89 117.883 211.89 118.627C211.89 119.371 211.686 119.959 211.278 120.391C210.878 120.815 210.302 121.027 209.55 121.027H207.222V124.603H206.214ZM207.222 120.139H209.55C209.95 120.139 210.258 120.035 210.474 119.827C210.698 119.619 210.81 119.323 210.81 118.939V118.315C210.81 117.931 210.698 117.635 210.474 117.427C210.258 117.219 209.95 117.115 209.55 117.115H207.222V120.139ZM216.244 124.747C215.564 124.747 214.984 124.619 214.504 124.363C214.024 124.099 213.616 123.739 213.28 123.283L214.024 122.659C214.32 123.051 214.648 123.351 215.008 123.559C215.368 123.759 215.792 123.859 216.28 123.859C216.88 123.859 217.336 123.715 217.648 123.427C217.968 123.139 218.128 122.755 218.128 122.275C218.128 121.875 218.008 121.567 217.768 121.351C217.528 121.135 217.132 120.963 216.58 120.835L215.896 120.679C215.128 120.503 214.54 120.239 214.132 119.887C213.732 119.527 213.532 119.023 213.532 118.375C213.532 118.007 213.6 117.679 213.736 117.391C213.872 117.103 214.06 116.863 214.3 116.671C214.548 116.479 214.84 116.335 215.176 116.239C215.52 116.135 215.896 116.083 216.304 116.083C216.936 116.083 217.476 116.199 217.924 116.431C218.38 116.663 218.764 117.003 219.076 117.451L218.32 118.003C218.088 117.683 217.808 117.431 217.48 117.247C217.152 117.063 216.744 116.971 216.256 116.971C215.72 116.971 215.296 117.087 214.984 117.319C214.68 117.543 214.528 117.883 214.528 118.339C214.528 118.739 214.656 119.043 214.912 119.251C215.176 119.451 215.572 119.611 216.1 119.731L216.784 119.887C217.608 120.071 218.204 120.351 218.572 120.727C218.94 121.103 219.124 121.603 219.124 122.227C219.124 122.611 219.056 122.959 218.92 123.271C218.792 123.583 218.604 123.847 218.356 124.063C218.108 124.279 217.804 124.447 217.444 124.567C217.092 124.687 216.692 124.747 216.244 124.747ZM227.32 117.115V124.603H226.312V117.115H223.648V116.227H229.984V117.115H227.32ZM231.132 124.603V118.411H232.092V119.551H232.152C232.264 119.255 232.464 118.991 232.752 118.759C233.04 118.527 233.436 118.411 233.94 118.411H234.312V119.371H233.748C233.228 119.371 232.82 119.471 232.524 119.671C232.236 119.863 232.092 120.107 232.092 120.403V124.603H231.132ZM240.392 124.603C240.032 124.603 239.772 124.507 239.612 124.315C239.46 124.123 239.364 123.883 239.324 123.595H239.264C239.128 123.979 238.904 124.267 238.592 124.459C238.28 124.651 237.908 124.747 237.476 124.747C236.82 124.747 236.308 124.579 235.94 124.243C235.58 123.907 235.4 123.451 235.4 122.875C235.4 122.291 235.612 121.843 236.036 121.531C236.468 121.219 237.136 121.063 238.04 121.063H239.264V120.451C239.264 120.011 239.144 119.675 238.904 119.443C238.664 119.211 238.296 119.095 237.8 119.095C237.424 119.095 237.108 119.179 236.852 119.347C236.604 119.515 236.396 119.739 236.228 120.019L235.652 119.479C235.82 119.143 236.088 118.859 236.456 118.627C236.824 118.387 237.288 118.267 237.848 118.267C238.6 118.267 239.184 118.451 239.6 118.819C240.016 119.187 240.224 119.699 240.224 120.355V123.763H240.932V124.603H240.392ZM237.632 123.931C237.872 123.931 238.092 123.903 238.292 123.847C238.492 123.791 238.664 123.711 238.808 123.607C238.952 123.503 239.064 123.383 239.144 123.247C239.224 123.111 239.264 122.963 239.264 122.803V121.783H237.992C237.44 121.783 237.036 121.863 236.78 122.023C236.532 122.183 236.408 122.415 236.408 122.719V122.971C236.408 123.275 236.516 123.511 236.732 123.679C236.956 123.847 237.256 123.931 237.632 123.931ZM245.006 124.747C244.574 124.747 244.186 124.671 243.842 124.519C243.498 124.367 243.206 124.151 242.966 123.871C242.734 123.591 242.554 123.251 242.426 122.851C242.306 122.451 242.246 122.003 242.246 121.507C242.246 121.011 242.306 120.563 242.426 120.163C242.554 119.763 242.734 119.423 242.966 119.143C243.206 118.863 243.498 118.647 243.842 118.495C244.186 118.343 244.574 118.267 245.006 118.267C245.622 118.267 246.114 118.403 246.482 118.675C246.858 118.939 247.138 119.287 247.322 119.719L246.518 120.127C246.406 119.807 246.222 119.559 245.966 119.383C245.71 119.207 245.39 119.119 245.006 119.119C244.718 119.119 244.466 119.167 244.25 119.263C244.034 119.351 243.854 119.479 243.71 119.647C243.566 119.807 243.458 120.003 243.386 120.235C243.314 120.459 243.278 120.707 243.278 120.979V122.035C243.278 122.579 243.422 123.027 243.71 123.379C244.006 123.723 244.438 123.895 245.006 123.895C245.782 123.895 246.342 123.535 246.686 122.815L247.382 123.283C247.182 123.731 246.882 124.087 246.482 124.351C246.09 124.615 245.598 124.747 245.006 124.747ZM249.137 115.723H250.097V121.351H250.145L251.093 120.295L252.845 118.411H254.009L251.717 120.859L254.237 124.603H253.073L251.021 121.447L250.097 122.395V124.603H249.137V115.723ZM256.345 116.959C256.137 116.959 255.985 116.911 255.889 116.815C255.801 116.711 255.757 116.579 255.757 116.419V116.263C255.757 116.103 255.801 115.975 255.889 115.879C255.985 115.775 256.137 115.723 256.345 115.723C256.553 115.723 256.701 115.775 256.789 115.879C256.885 115.975 256.933 116.103 256.933 116.263V116.419C256.933 116.579 256.885 116.711 256.789 116.815C256.701 116.911 256.553 116.959 256.345 116.959ZM255.865 118.411H256.825V124.603H255.865V118.411ZM259.265 124.603V118.411H260.225V119.419H260.273C260.425 119.067 260.637 118.787 260.909 118.579C261.189 118.371 261.561 118.267 262.025 118.267C262.665 118.267 263.169 118.475 263.537 118.891C263.913 119.299 264.101 119.879 264.101 120.631V124.603H263.141V120.799C263.141 119.687 262.673 119.131 261.737 119.131C261.545 119.131 261.357 119.155 261.173 119.203C260.997 119.251 260.837 119.323 260.693 119.419C260.549 119.515 260.433 119.639 260.345 119.791C260.265 119.935 260.225 120.107 260.225 120.307V124.603H259.265ZM271.705 125.287C271.705 125.927 271.453 126.395 270.949 126.691C270.453 126.995 269.705 127.147 268.705 127.147C267.737 127.147 267.041 127.015 266.617 126.751C266.193 126.487 265.981 126.111 265.981 125.623C265.981 125.287 266.069 125.023 266.245 124.831C266.421 124.647 266.661 124.511 266.965 124.423V124.291C266.597 124.115 266.413 123.827 266.413 123.427C266.413 123.115 266.513 122.879 266.713 122.719C266.913 122.551 267.169 122.427 267.481 122.347V122.299C267.113 122.123 266.825 121.871 266.617 121.543C266.417 121.215 266.317 120.835 266.317 120.403C266.317 120.091 266.373 119.803 266.485 119.539C266.597 119.275 266.753 119.051 266.953 118.867C267.161 118.675 267.405 118.527 267.685 118.423C267.973 118.319 268.293 118.267 268.645 118.267C269.085 118.267 269.477 118.347 269.821 118.507V118.399C269.821 118.159 269.877 117.963 269.989 117.811C270.101 117.651 270.285 117.571 270.541 117.571H271.465V118.411H270.289V118.807C270.513 118.999 270.685 119.231 270.805 119.503C270.933 119.767 270.997 120.067 270.997 120.403C270.997 120.715 270.941 121.003 270.829 121.267C270.717 121.531 270.557 121.759 270.349 121.951C270.149 122.135 269.905 122.279 269.617 122.383C269.329 122.487 269.009 122.539 268.657 122.539C268.457 122.539 268.257 122.519 268.057 122.479C267.849 122.535 267.661 122.619 267.493 122.731C267.325 122.835 267.241 122.983 267.241 123.175C267.241 123.359 267.329 123.483 267.505 123.547C267.681 123.611 267.909 123.643 268.189 123.643H269.509C270.277 123.643 270.833 123.791 271.177 124.087C271.529 124.375 271.705 124.775 271.705 125.287ZM270.805 125.359C270.805 125.111 270.709 124.911 270.517 124.759C270.333 124.615 270.001 124.543 269.521 124.543H267.457C267.073 124.719 266.881 124.999 266.881 125.383C266.881 125.655 266.981 125.887 267.181 126.079C267.389 126.271 267.737 126.367 268.225 126.367H269.113C269.649 126.367 270.065 126.283 270.361 126.115C270.657 125.947 270.805 125.695 270.805 125.359ZM268.657 121.771C269.065 121.771 269.389 121.675 269.629 121.483C269.869 121.283 269.989 120.979 269.989 120.571V120.235C269.989 119.827 269.869 119.527 269.629 119.335C269.389 119.135 269.065 119.035 268.657 119.035C268.249 119.035 267.925 119.135 267.685 119.335C267.445 119.527 267.325 119.827 267.325 120.235V120.571C267.325 120.979 267.445 121.283 267.685 121.483C267.925 121.675 268.249 121.771 268.657 121.771Z" fill="white"/>
</g>
<g opacity="0.24">
<rect x="84.353" y="83.6504" width="41.7945" height="42.0746" rx="20.8972" fill="#4E4C82" fill-opacity="0.5"/>
</g>
<g clip-path="url(#clip8)">
<path d="M90.7691 109.795V101.419H95.7611V102.307H91.7771V105.115H95.4131V106.003H91.7771V109.795H90.7691ZM99.8115 109.939C99.3955 109.939 99.0155 109.863 98.6715 109.711C98.3275 109.559 98.0315 109.343 97.7835 109.063C97.5435 108.775 97.3555 108.435 97.2195 108.043C97.0835 107.643 97.0155 107.195 97.0155 106.699C97.0155 106.211 97.0835 105.767 97.2195 105.367C97.3555 104.967 97.5435 104.627 97.7835 104.347C98.0315 104.059 98.3275 103.839 98.6715 103.687C99.0155 103.535 99.3955 103.459 99.8115 103.459C100.228 103.459 100.604 103.535 100.94 103.687C101.284 103.839 101.58 104.059 101.828 104.347C102.076 104.627 102.268 104.967 102.404 105.367C102.54 105.767 102.608 106.211 102.608 106.699C102.608 107.195 102.54 107.643 102.404 108.043C102.268 108.435 102.076 108.775 101.828 109.063C101.58 109.343 101.284 109.559 100.94 109.711C100.604 109.863 100.228 109.939 99.8115 109.939ZM99.8115 109.087C100.332 109.087 100.756 108.927 101.084 108.607C101.412 108.287 101.576 107.799 101.576 107.143V106.255C101.576 105.599 101.412 105.111 101.084 104.791C100.756 104.471 100.332 104.311 99.8115 104.311C99.2915 104.311 98.8675 104.471 98.5395 104.791C98.2115 105.111 98.0475 105.599 98.0475 106.255V107.143C98.0475 107.799 98.2115 108.287 98.5395 108.607C98.8675 108.927 99.2915 109.087 99.8115 109.087ZM105.954 109.795C105.618 109.795 105.362 109.703 105.186 109.519C105.018 109.327 104.934 109.079 104.934 108.775V104.443H103.914V103.603H104.49C104.698 103.603 104.838 103.563 104.91 103.483C104.99 103.395 105.03 103.247 105.03 103.039V101.887H105.894V103.603H107.25V104.443H105.894V108.955H107.154V109.795H105.954ZM109.193 100.915H110.153V106.543H110.201L111.149 105.487L112.901 103.603H114.065L111.773 106.051L114.293 109.795H113.129L111.077 106.639L110.153 107.587V109.795H109.193V100.915ZM119.738 103.603H120.686L117.914 111.235C117.842 111.419 117.77 111.571 117.698 111.691C117.626 111.819 117.538 111.919 117.434 111.991C117.33 112.063 117.198 112.115 117.038 112.147C116.886 112.179 116.698 112.195 116.474 112.195H115.982V111.355H116.954L117.422 110.035L115.106 103.603H116.066L117.554 107.815L117.842 108.823H117.902L118.238 107.815L119.738 103.603Z" fill="#4E4C82"/>
</g>
<defs>
<clipPath id="clip0">
<rect width="59.4243" height="58.984" fill="white" transform="translate(15.5134 122.87)"/>
</clipPath>
<clipPath id="clip1">
<rect width="70.2288" height="69.7084" fill="white" transform="translate(4.09131 39.833)"/>
</clipPath>
<clipPath id="clip2">
<rect width="70.2288" height="69.7084" fill="white" transform="translate(88.366 3.9834)"/>
</clipPath>
<clipPath id="clip3">
<rect width="59.4243" height="58.984" fill="white" transform="translate(147.945 176.646)"/>
</clipPath>
<clipPath id="clip4">
<rect width="48.6199" height="48.2596" fill="white" transform="translate(87.1313 134.208)"/>
</clipPath>
<clipPath id="clip5">
<rect width="43.2177" height="42.8974" fill="white" transform="translate(134.979 80.126)"/>
</clipPath>
<clipPath id="clip6">
<rect width="37.8155" height="37.5353" fill="white" transform="translate(170.788 37.9941)"/>
</clipPath>
<clipPath id="clip7">
<rect width="86.4354" height="85.7949" fill="white" transform="translate(191.625 76.6025)"/>
</clipPath>
<clipPath id="clip8">
<rect width="37.8155" height="37.5353" fill="white" transform="translate(86.5139 85.7949)"/>
</clipPath>
</defs>
</svg>
