<svg width="356" height="298" viewBox="0 0 356 298" fill="none" xmlns="http://www.w3.org/2000/svg">
<g opacity="0.24">
<g opacity="0.8">
<rect width="356" height="35" rx="2" transform="matrix(1 0 0 -1 0 35)" fill="#4E4C82" fill-opacity="0.5"/>
</g>
</g>
<g opacity="0.24">
<g opacity="0.8">
<rect width="290" height="35" rx="2" transform="matrix(1 0 0 -1 0 81)" fill="#4E4C82" fill-opacity="0.5"/>
</g>
</g>
<g opacity="0.24">
<g opacity="0.8">
<rect width="239" height="35" rx="2" transform="matrix(1 0 0 -1 0 126.834)" fill="#4E4C82" fill-opacity="0.5"/>
</g>
</g>
<g opacity="0.24">
<g opacity="0.8">
<rect width="202" height="35" rx="2" transform="matrix(1 0 0 -1 0 172.956)" fill="#4E4C82" fill-opacity="0.5"/>
</g>
</g>
<g opacity="0.24">
<g opacity="0.8">
<rect width="249" height="35" rx="2" transform="matrix(1 0 0 -1 0 219.077)" fill="#4E4C82" fill-opacity="0.5"/>
</g>
</g>
<g opacity="0.4">
<g opacity="0.8">
<rect width="278" height="35" rx="2" transform="matrix(1 0 0 -1 0 35)" fill="#4E4C82"/>
</g>
</g>
<g opacity="0.4">
<g opacity="0.8">
<rect width="225" height="35" rx="2" transform="matrix(1 0 0 -1 0 80.7129)" fill="#4E4C82"/>
</g>
</g>
<g opacity="0.4">
<g opacity="0.8">
<rect width="110" height="35" rx="2" transform="matrix(1 0 0 -1 0 126.834)" fill="#4E4C82"/>
</g>
</g>
<g opacity="0.4">
<g opacity="0.8">
<rect width="69" height="35" rx="2" transform="matrix(1 0 0 -1 0 173)" fill="#4E4C82"/>
</g>
</g>
<g opacity="0.4">
<g opacity="0.8">
<rect width="225" height="35" rx="2" transform="matrix(1 0 0 -1 0 219)" fill="#4E4C82"/>
</g>
</g>
<path d="M15.1203 67.2421C14.6469 67.2421 14.2203 67.1687 13.8403 67.0221C13.4603 66.8687 13.1369 66.6454 12.8703 66.3521C12.6036 66.0521 12.3969 65.6821 12.2503 65.2421C12.1036 64.7954 12.0303 64.2754 12.0303 63.6821C12.0303 63.0954 12.1036 62.5754 12.2503 62.1221C12.3969 61.6621 12.6036 61.2787 12.8703 60.9721C13.1369 60.6587 13.4603 60.4221 13.8403 60.2621C14.2203 60.1021 14.6469 60.0221 15.1203 60.0221C15.7669 60.0221 16.3003 60.1554 16.7203 60.4221C17.1403 60.6821 17.4769 61.0954 17.7303 61.6621L16.4203 62.3421C16.3269 62.0487 16.1803 61.8154 15.9803 61.6421C15.7869 61.4621 15.5003 61.3721 15.1203 61.3721C14.6736 61.3721 14.3136 61.5187 14.0403 61.8121C13.7736 62.0987 13.6403 62.5187 13.6403 63.0721V64.1921C13.6403 64.7454 13.7736 65.1687 14.0403 65.4621C14.3136 65.7487 14.6736 65.8921 15.1203 65.8921C15.4936 65.8921 15.7903 65.7921 16.0103 65.5921C16.2369 65.3854 16.4036 65.1387 16.5103 64.8521L17.7503 65.5721C17.4903 66.1054 17.1469 66.5187 16.7203 66.8121C16.3003 67.0987 15.7669 67.2421 15.1203 67.2421ZM14.4603 59.6421L13.1403 58.0521L13.8703 57.4721L15.0803 58.6221L16.2903 57.4721L17.0203 58.0521L15.7003 59.6421H14.4603ZM20.3139 67.1221V60.1421H25.0639V61.4921H21.8339V62.9221H24.6039V64.2621H21.8339V65.7721H25.0639V67.1221H20.3139ZM30.1482 67.2421C29.5348 67.2421 29.0148 67.1387 28.5882 66.9321C28.1615 66.7187 27.7982 66.4454 27.4982 66.1121L28.4982 65.1021C28.9715 65.6354 29.5548 65.9021 30.2482 65.9021C30.6215 65.9021 30.8982 65.8254 31.0782 65.6721C31.2582 65.5187 31.3482 65.3154 31.3482 65.0621C31.3482 64.8687 31.2948 64.7087 31.1882 64.5821C31.0815 64.4487 30.8648 64.3587 30.5382 64.3121L29.8482 64.2221C29.1082 64.1287 28.5648 63.9054 28.2182 63.5521C27.8782 63.1987 27.7082 62.7287 27.7082 62.1421C27.7082 61.8287 27.7682 61.5421 27.8882 61.2821C28.0082 61.0221 28.1782 60.7987 28.3982 60.6121C28.6248 60.4254 28.8982 60.2821 29.2182 60.1821C29.5448 60.0754 29.9148 60.0221 30.3282 60.0221C30.8548 60.0221 31.3182 60.1054 31.7182 60.2721C32.1182 60.4387 32.4615 60.6821 32.7482 61.0021L31.7382 62.0221C31.5715 61.8287 31.3682 61.6721 31.1282 61.5521C30.8948 61.4254 30.5982 61.3621 30.2382 61.3621C29.8982 61.3621 29.6448 61.4221 29.4782 61.5421C29.3115 61.6621 29.2282 61.8287 29.2282 62.0421C29.2282 62.2821 29.2915 62.4554 29.4182 62.5621C29.5515 62.6687 29.7648 62.7454 30.0582 62.7921L30.7482 62.9021C31.4682 63.0154 32.0015 63.2387 32.3482 63.5721C32.6948 63.8987 32.8682 64.3654 32.8682 64.9721C32.8682 65.3054 32.8082 65.6121 32.6882 65.8921C32.5682 66.1721 32.3915 66.4121 32.1582 66.6121C31.9315 66.8121 31.6482 66.9687 31.3082 67.0821C30.9682 67.1887 30.5815 67.2421 30.1482 67.2421ZM38.0584 64.0821L37.1484 65.1821V67.1221H35.6284V60.1421H37.1484V63.4621H37.2084L38.1984 62.1121L39.7684 60.1421H41.4884L39.1384 63.0121L41.6984 67.1221H39.9084L38.0584 64.0821ZM46.4909 67.2421C46.0309 67.2421 45.6109 67.1654 45.2309 67.0121C44.8509 66.8587 44.5276 66.6321 44.2609 66.3321C43.9942 66.0254 43.7876 65.6487 43.6409 65.2021C43.4942 64.7487 43.4209 64.2254 43.4209 63.6321C43.4209 63.0387 43.4942 62.5187 43.6409 62.0721C43.7876 61.6187 43.9942 61.2421 44.2609 60.9421C44.5276 60.6354 44.8509 60.4054 45.2309 60.2521C45.6109 60.0987 46.0309 60.0221 46.4909 60.0221C46.9509 60.0221 47.3709 60.0987 47.7509 60.2521C48.1309 60.4054 48.4542 60.6354 48.7209 60.9421C48.9876 61.2421 49.1942 61.6187 49.3409 62.0721C49.4876 62.5187 49.5609 63.0387 49.5609 63.6321C49.5609 64.2254 49.4876 64.7487 49.3409 65.2021C49.1942 65.6487 48.9876 66.0254 48.7209 66.3321C48.4542 66.6321 48.1309 66.8587 47.7509 67.0121C47.3709 67.1654 46.9509 67.2421 46.4909 67.2421ZM46.4909 65.8921C46.9509 65.8921 47.3076 65.7421 47.5609 65.4421C47.8209 65.1421 47.9509 64.7121 47.9509 64.1521V63.1121C47.9509 62.5521 47.8209 62.1221 47.5609 61.8221C47.3076 61.5221 46.9509 61.3721 46.4909 61.3721C46.0309 61.3721 45.6709 61.5221 45.4109 61.8221C45.1576 62.1221 45.0309 62.5521 45.0309 63.1121V64.1521C45.0309 64.7121 45.1576 65.1421 45.4109 65.4421C45.6709 65.7421 46.0309 65.8921 46.4909 65.8921Z" fill="white"/>
<path d="M17.5203 108.664H17.4903L16.9803 109.684L15.6203 112.154L14.2903 109.694L13.7603 108.594H13.7303V113.244H12.3003V106.264H13.9103L15.6203 109.534H15.6403L17.3303 106.264H18.9503V113.244H17.5203V108.664ZM26.2936 113.244L25.7936 111.584H23.4636L22.9636 113.244H21.4236L23.7236 106.264H25.6036L27.8736 113.244H26.2936ZM24.6436 107.644H24.5936L23.8236 110.294H25.4236L24.6436 107.644ZM30.3393 106.264H32.9693C33.4293 106.264 33.8493 106.337 34.2293 106.484C34.6093 106.631 34.9327 106.851 35.1993 107.144C35.466 107.431 35.6727 107.794 35.8193 108.234C35.966 108.667 36.0393 109.174 36.0393 109.754C36.0393 110.334 35.966 110.844 35.8193 111.284C35.6727 111.717 35.466 112.081 35.1993 112.374C34.9327 112.661 34.6093 112.877 34.2293 113.024C33.8493 113.171 33.4293 113.244 32.9693 113.244H30.3393V106.264ZM32.9693 111.894C33.4227 111.894 33.7793 111.767 34.0393 111.514C34.2993 111.261 34.4293 110.854 34.4293 110.294V109.214C34.4293 108.654 34.2993 108.247 34.0393 107.994C33.7793 107.741 33.4227 107.614 32.9693 107.614H31.8593V111.894H32.9693ZM32.1793 105.764L30.8593 104.174L31.5893 103.594L32.7993 104.744L34.0093 103.594L34.7393 104.174L33.4193 105.764H32.1793ZM42.7409 113.244L42.2409 111.584H39.9109L39.4109 113.244H37.8709L40.1709 106.264H42.0509L44.3209 113.244H42.7409ZM41.0909 107.644H41.0409L40.2709 110.294H41.8709L41.0909 107.644ZM48.3066 113.244H46.7866V106.264H50.0966C50.4166 106.264 50.7066 106.317 50.9666 106.424C51.2266 106.531 51.4466 106.684 51.6266 106.884C51.8133 107.077 51.9566 107.311 52.0566 107.584C52.1566 107.857 52.2066 108.161 52.2066 108.494C52.2066 108.967 52.0999 109.381 51.8866 109.734C51.6799 110.087 51.3633 110.344 50.9366 110.504L52.3066 113.244H50.6166L49.3966 110.684H48.3066V113.244ZM49.9066 109.404C50.1333 109.404 50.3099 109.347 50.4366 109.234C50.5699 109.114 50.6366 108.941 50.6366 108.714V108.274C50.6366 108.047 50.5699 107.877 50.4366 107.764C50.3099 107.644 50.1333 107.584 49.9066 107.584H48.3066V109.404H49.9066ZM57.2849 113.364C56.6715 113.364 56.1515 113.261 55.7249 113.054C55.2982 112.841 54.9349 112.567 54.6349 112.234L55.6349 111.224C56.1082 111.757 56.6915 112.024 57.3849 112.024C57.7582 112.024 58.0349 111.947 58.2149 111.794C58.3949 111.641 58.4849 111.437 58.4849 111.184C58.4849 110.991 58.4315 110.831 58.3249 110.704C58.2182 110.571 58.0015 110.481 57.6749 110.434L56.9849 110.344C56.2449 110.251 55.7015 110.027 55.3549 109.674C55.0149 109.321 54.8449 108.851 54.8449 108.264C54.8449 107.951 54.9049 107.664 55.0249 107.404C55.1449 107.144 55.3149 106.921 55.5349 106.734C55.7615 106.547 56.0349 106.404 56.3549 106.304C56.6815 106.197 57.0515 106.144 57.4649 106.144C57.9915 106.144 58.4549 106.227 58.8549 106.394C59.2549 106.561 59.5982 106.804 59.8849 107.124L58.8749 108.144C58.7082 107.951 58.5049 107.794 58.2649 107.674C58.0315 107.547 57.7349 107.484 57.3749 107.484C57.0349 107.484 56.7815 107.544 56.6149 107.664C56.4482 107.784 56.3649 107.951 56.3649 108.164C56.3649 108.404 56.4282 108.577 56.5549 108.684C56.6882 108.791 56.9015 108.867 57.1949 108.914L57.8849 109.024C58.6049 109.137 59.1382 109.361 59.4849 109.694C59.8315 110.021 60.0049 110.487 60.0049 111.094C60.0049 111.427 59.9449 111.734 59.8249 112.014C59.7049 112.294 59.5282 112.534 59.2949 112.734C59.0682 112.934 58.7849 113.091 58.4449 113.204C58.1049 113.311 57.7182 113.364 57.2849 113.364ZM65.1951 110.204L64.2851 111.304V113.244H62.7651V106.264H64.2851V109.584H64.3451L65.3351 108.234L66.9051 106.264H68.6251L66.2751 109.134L68.8351 113.244H67.0451L65.1951 110.204ZM73.6276 113.364C73.1676 113.364 72.7476 113.287 72.3676 113.134C71.9876 112.981 71.6643 112.754 71.3976 112.454C71.131 112.147 70.9243 111.771 70.7776 111.324C70.631 110.871 70.5576 110.347 70.5576 109.754C70.5576 109.161 70.631 108.641 70.7776 108.194C70.9243 107.741 71.131 107.364 71.3976 107.064C71.6643 106.757 71.9876 106.527 72.3676 106.374C72.7476 106.221 73.1676 106.144 73.6276 106.144C74.0876 106.144 74.5076 106.221 74.8876 106.374C75.2676 106.527 75.591 106.757 75.8576 107.064C76.1243 107.364 76.331 107.741 76.4776 108.194C76.6243 108.641 76.6976 109.161 76.6976 109.754C76.6976 110.347 76.6243 110.871 76.4776 111.324C76.331 111.771 76.1243 112.147 75.8576 112.454C75.591 112.754 75.2676 112.981 74.8876 113.134C74.5076 113.287 74.0876 113.364 73.6276 113.364ZM73.6276 112.014C74.0876 112.014 74.4443 111.864 74.6976 111.564C74.9576 111.264 75.0876 110.834 75.0876 110.274V109.234C75.0876 108.674 74.9576 108.244 74.6976 107.944C74.4443 107.644 74.0876 107.494 73.6276 107.494C73.1676 107.494 72.8076 107.644 72.5476 107.944C72.2943 108.244 72.1676 108.674 72.1676 109.234V110.274C72.1676 110.834 72.2943 111.264 72.5476 111.564C72.8076 111.864 73.1676 112.014 73.6276 112.014Z" fill="white"/>
<path d="M12.3003 159.365V152.385H15.6003C15.9269 152.385 16.2203 152.442 16.4803 152.555C16.7403 152.662 16.9603 152.812 17.1403 153.005C17.3269 153.199 17.4703 153.435 17.5703 153.715C17.6703 153.989 17.7203 154.289 17.7203 154.615C17.7203 154.949 17.6703 155.252 17.5703 155.525C17.4703 155.799 17.3269 156.032 17.1403 156.225C16.9603 156.419 16.7403 156.572 16.4803 156.685C16.2203 156.792 15.9269 156.845 15.6003 156.845H13.8203V159.365H12.3003ZM13.8203 155.525H15.4203C15.6469 155.525 15.8236 155.469 15.9503 155.355C16.0836 155.235 16.1503 155.062 16.1503 154.835V154.395C16.1503 154.169 16.0836 153.999 15.9503 153.885C15.8236 153.765 15.6469 153.705 15.4203 153.705H13.8203V155.525ZM23.1628 159.485C22.7028 159.485 22.2828 159.409 21.9028 159.255C21.5228 159.102 21.1994 158.875 20.9328 158.575C20.6661 158.269 20.4594 157.892 20.3128 157.445C20.1661 156.992 20.0928 156.469 20.0928 155.875C20.0928 155.282 20.1661 154.762 20.3128 154.315C20.4594 153.862 20.6661 153.485 20.9328 153.185C21.1994 152.879 21.5228 152.649 21.9028 152.495C22.2828 152.342 22.7028 152.265 23.1628 152.265C23.6228 152.265 24.0428 152.342 24.4228 152.495C24.8028 152.649 25.1261 152.879 25.3928 153.185C25.6594 153.485 25.8661 153.862 26.0128 154.315C26.1594 154.762 26.2328 155.282 26.2328 155.875C26.2328 156.469 26.1594 156.992 26.0128 157.445C25.8661 157.892 25.6594 158.269 25.3928 158.575C25.1261 158.875 24.8028 159.102 24.4228 159.255C24.0428 159.409 23.6228 159.485 23.1628 159.485ZM23.1628 158.135C23.6228 158.135 23.9794 157.985 24.2328 157.685C24.4928 157.385 24.6228 156.955 24.6228 156.395V155.355C24.6228 154.795 24.4928 154.365 24.2328 154.065C23.9794 153.765 23.6228 153.615 23.1628 153.615C22.7028 153.615 22.3428 153.765 22.0828 154.065C21.8294 154.365 21.7028 154.795 21.7028 155.355V156.395C21.7028 156.955 21.8294 157.385 22.0828 157.685C22.3428 157.985 22.7028 158.135 23.1628 158.135ZM29.0014 159.365V152.385H30.5214V158.015H33.1814V159.365H29.0014ZM32.2114 154.115H31.2414L31.3014 151.965H32.8714L32.2114 154.115ZM38.0642 159.485C37.4508 159.485 36.9308 159.382 36.5042 159.175C36.0775 158.962 35.7142 158.689 35.4142 158.355L36.4142 157.345C36.8875 157.879 37.4708 158.145 38.1642 158.145C38.5375 158.145 38.8142 158.069 38.9942 157.915C39.1742 157.762 39.2642 157.559 39.2642 157.305C39.2642 157.112 39.2108 156.952 39.1042 156.825C38.9975 156.692 38.7808 156.602 38.4542 156.555L37.7642 156.465C37.0242 156.372 36.4808 156.149 36.1342 155.795C35.7942 155.442 35.6242 154.972 35.6242 154.385C35.6242 154.072 35.6842 153.785 35.8042 153.525C35.9242 153.265 36.0942 153.042 36.3142 152.855C36.5408 152.669 36.8142 152.525 37.1342 152.425C37.4608 152.319 37.8308 152.265 38.2442 152.265C38.7708 152.265 39.2342 152.349 39.6342 152.515C40.0342 152.682 40.3775 152.925 40.6642 153.245L39.6542 154.265C39.4875 154.072 39.2842 153.915 39.0442 153.795C38.8108 153.669 38.5142 153.605 38.1542 153.605C37.8142 153.605 37.5608 153.665 37.3942 153.785C37.2275 153.905 37.1442 154.072 37.1442 154.285C37.1442 154.525 37.2075 154.699 37.3342 154.805C37.4675 154.912 37.6808 154.989 37.9742 155.035L38.6642 155.145C39.3842 155.259 39.9175 155.482 40.2642 155.815C40.6108 156.142 40.7842 156.609 40.7842 157.215C40.7842 157.549 40.7242 157.855 40.6042 158.135C40.4842 158.415 40.3075 158.655 40.0742 158.855C39.8475 159.055 39.5642 159.212 39.2242 159.325C38.8842 159.432 38.4975 159.485 38.0642 159.485ZM45.9744 156.325L45.0644 157.425V159.365H43.5444V152.385H45.0644V155.705H45.1244L46.1144 154.355L47.6844 152.385H49.4044L47.0544 155.255L49.6144 159.365H47.8244L45.9744 156.325ZM54.4069 159.485C53.9469 159.485 53.5269 159.409 53.1469 159.255C52.7669 159.102 52.4436 158.875 52.1769 158.575C51.9102 158.269 51.7036 157.892 51.5569 157.445C51.4102 156.992 51.3369 156.469 51.3369 155.875C51.3369 155.282 51.4102 154.762 51.5569 154.315C51.7036 153.862 51.9102 153.485 52.1769 153.185C52.4436 152.879 52.7669 152.649 53.1469 152.495C53.5269 152.342 53.9469 152.265 54.4069 152.265C54.8669 152.265 55.2869 152.342 55.6669 152.495C56.0469 152.649 56.3702 152.879 56.6369 153.185C56.9036 153.485 57.1102 153.862 57.2569 154.315C57.4036 154.762 57.4769 155.282 57.4769 155.875C57.4769 156.469 57.4036 156.992 57.2569 157.445C57.1102 157.892 56.9036 158.269 56.6369 158.575C56.3702 158.875 56.0469 159.102 55.6669 159.255C55.2869 159.409 54.8669 159.485 54.4069 159.485ZM54.4069 158.135C54.8669 158.135 55.2236 157.985 55.4769 157.685C55.7369 157.385 55.8669 156.955 55.8669 156.395V155.355C55.8669 154.795 55.7369 154.365 55.4769 154.065C55.2236 153.765 54.8669 153.615 54.4069 153.615C53.9469 153.615 53.5869 153.765 53.3269 154.065C53.0736 154.365 52.9469 154.795 52.9469 155.355V156.395C52.9469 156.955 53.0736 157.385 53.3269 157.685C53.5869 157.985 53.9469 158.135 54.4069 158.135Z" fill="white"/>
<path d="M13.8203 205.486H12.3003V198.506H15.6103C15.9303 198.506 16.2203 198.56 16.4803 198.666C16.7403 198.773 16.9603 198.926 17.1403 199.126C17.3269 199.32 17.4703 199.553 17.5703 199.826C17.6703 200.1 17.7203 200.403 17.7203 200.736C17.7203 201.21 17.6136 201.623 17.4003 201.976C17.1936 202.33 16.8769 202.586 16.4503 202.746L17.8203 205.486H16.1303L14.9103 202.926H13.8203V205.486ZM15.4203 201.646C15.6469 201.646 15.8236 201.59 15.9503 201.476C16.0836 201.356 16.1503 201.183 16.1503 200.956V200.516C16.1503 200.29 16.0836 200.12 15.9503 200.006C15.8236 199.886 15.6469 199.826 15.4203 199.826H13.8203V201.646H15.4203ZM24.8386 205.486L24.3386 203.826H22.0086L21.5086 205.486H19.9686L22.2686 198.506H24.1486L26.4186 205.486H24.8386ZM23.1886 199.886H23.1386L22.3686 202.536H23.9686L23.1886 199.886ZM31.3143 202.446L30.4043 203.546V205.486H28.8843V198.506H30.4043V201.826H30.4643L31.4543 200.476L33.0243 198.506H34.7443L32.3943 201.376L34.9543 205.486H33.1643L31.3143 202.446ZM38.7871 198.506V202.786C38.7871 203.28 38.8838 203.65 39.0771 203.896C39.2705 204.136 39.5938 204.256 40.0471 204.256C40.5005 204.256 40.8238 204.136 41.0171 203.896C41.2105 203.65 41.3071 203.28 41.3071 202.786V198.506H42.7871V202.626C42.7871 203.14 42.7371 203.586 42.6371 203.966C42.5438 204.34 42.3871 204.65 42.1671 204.896C41.9471 205.136 41.6638 205.316 41.3171 205.436C40.9705 205.55 40.5471 205.606 40.0471 205.606C39.5471 205.606 39.1238 205.55 38.7771 205.436C38.4305 205.316 38.1471 205.136 37.9271 204.896C37.7071 204.65 37.5471 204.34 37.4471 203.966C37.3538 203.586 37.3071 203.14 37.3071 202.626V198.506H38.7871ZM40.2071 198.086L39.3271 197.656L40.3171 195.716L41.5471 196.326L40.2071 198.086ZM48.0505 205.606C47.4372 205.606 46.9172 205.503 46.4905 205.296C46.0638 205.083 45.7005 204.81 45.4005 204.476L46.4005 203.466C46.8738 204 47.4572 204.266 48.1505 204.266C48.5238 204.266 48.8005 204.19 48.9805 204.036C49.1605 203.883 49.2505 203.68 49.2505 203.426C49.2505 203.233 49.1972 203.073 49.0905 202.946C48.9838 202.813 48.7672 202.723 48.4405 202.676L47.7505 202.586C47.0105 202.493 46.4672 202.27 46.1205 201.916C45.7805 201.563 45.6105 201.093 45.6105 200.506C45.6105 200.193 45.6705 199.906 45.7905 199.646C45.9105 199.386 46.0805 199.163 46.3005 198.976C46.5272 198.79 46.8005 198.646 47.1205 198.546C47.4472 198.44 47.8172 198.386 48.2305 198.386C48.7572 198.386 49.2205 198.47 49.6205 198.636C50.0205 198.803 50.3638 199.046 50.6505 199.366L49.6405 200.386C49.4738 200.193 49.2705 200.036 49.0305 199.916C48.7972 199.79 48.5005 199.726 48.1405 199.726C47.8005 199.726 47.5472 199.786 47.3805 199.906C47.2138 200.026 47.1305 200.193 47.1305 200.406C47.1305 200.646 47.1938 200.82 47.3205 200.926C47.4538 201.033 47.6672 201.11 47.9605 201.156L48.6505 201.266C49.3705 201.38 49.9038 201.603 50.2505 201.936C50.5972 202.263 50.7705 202.73 50.7705 203.336C50.7705 203.67 50.7105 203.976 50.5905 204.256C50.4705 204.536 50.2938 204.776 50.0605 204.976C49.8338 205.176 49.5505 205.333 49.2105 205.446C48.8705 205.553 48.4838 205.606 48.0505 205.606ZM55.9607 202.446L55.0507 203.546V205.486H53.5307V198.506H55.0507V201.826H55.1107L56.1007 200.476L57.6707 198.506H59.3907L57.0407 201.376L59.6007 205.486H57.8107L55.9607 202.446ZM64.3932 205.606C63.9332 205.606 63.5132 205.53 63.1332 205.376C62.7532 205.223 62.4299 204.996 62.1632 204.696C61.8966 204.39 61.6899 204.013 61.5432 203.566C61.3966 203.113 61.3232 202.59 61.3232 201.996C61.3232 201.403 61.3966 200.883 61.5432 200.436C61.6899 199.983 61.8966 199.606 62.1632 199.306C62.4299 199 62.7532 198.77 63.1332 198.616C63.5132 198.463 63.9332 198.386 64.3932 198.386C64.8532 198.386 65.2732 198.463 65.6532 198.616C66.0332 198.77 66.3566 199 66.6232 199.306C66.8899 199.606 67.0966 199.983 67.2432 200.436C67.3899 200.883 67.4632 201.403 67.4632 201.996C67.4632 202.59 67.3899 203.113 67.2432 203.566C67.0966 204.013 66.8899 204.39 66.6232 204.696C66.3566 204.996 66.0332 205.223 65.6532 205.376C65.2732 205.53 64.8532 205.606 64.3932 205.606ZM64.3932 204.256C64.8532 204.256 65.2099 204.106 65.4632 203.806C65.7232 203.506 65.8532 203.076 65.8532 202.516V201.476C65.8532 200.916 65.7232 200.486 65.4632 200.186C65.2099 199.886 64.8532 199.736 64.3932 199.736C63.9332 199.736 63.5732 199.886 63.3132 200.186C63.0599 200.486 62.9332 200.916 62.9332 201.476V202.516C62.9332 203.076 63.0599 203.506 63.3132 203.806C63.5732 204.106 63.9332 204.256 64.3932 204.256Z" fill="white"/>
<path d="M15.03 21.12C14.4167 21.12 13.8967 21.0167 13.47 20.81C13.0433 20.5967 12.68 20.3233 12.38 19.99L13.38 18.98C13.8533 19.5133 14.4367 19.78 15.13 19.78C15.5033 19.78 15.78 19.7033 15.96 19.55C16.14 19.3967 16.23 19.1933 16.23 18.94C16.23 18.7467 16.1767 18.5867 16.07 18.46C15.9633 18.3267 15.7467 18.2367 15.42 18.19L14.73 18.1C13.99 18.0067 13.4467 17.7833 13.1 17.43C12.76 17.0767 12.59 16.6067 12.59 16.02C12.59 15.7067 12.65 15.42 12.77 15.16C12.89 14.9 13.06 14.6767 13.28 14.49C13.5067 14.3033 13.78 14.16 14.1 14.06C14.4267 13.9533 14.7967 13.9 15.21 13.9C15.7367 13.9 16.2 13.9833 16.6 14.15C17 14.3167 17.3433 14.56 17.63 14.88L16.62 15.9C16.4533 15.7067 16.25 15.55 16.01 15.43C15.7767 15.3033 15.48 15.24 15.12 15.24C14.78 15.24 14.5267 15.3 14.36 15.42C14.1933 15.54 14.11 15.7067 14.11 15.92C14.11 16.16 14.1733 16.3333 14.3 16.44C14.4333 16.5467 14.6467 16.6233 14.94 16.67L15.63 16.78C16.35 16.8933 16.8833 17.1167 17.23 17.45C17.5767 17.7767 17.75 18.2433 17.75 18.85C17.75 19.1833 17.69 19.49 17.57 19.77C17.45 20.05 17.2733 20.29 17.04 20.49C16.8133 20.69 16.53 20.8467 16.19 20.96C15.85 21.0667 15.4633 21.12 15.03 21.12ZM20.5102 21V14.02H22.0302V19.65H24.6902V21H20.5102ZM29.7126 21.12C29.2526 21.12 28.8326 21.0433 28.4526 20.89C28.0726 20.7367 27.7492 20.51 27.4826 20.21C27.2159 19.9033 27.0092 19.5267 26.8626 19.08C26.7159 18.6267 26.6426 18.1033 26.6426 17.51C26.6426 16.9167 26.7159 16.3967 26.8626 15.95C27.0092 15.4967 27.2159 15.12 27.4826 14.82C27.7492 14.5133 28.0726 14.2833 28.4526 14.13C28.8326 13.9767 29.2526 13.9 29.7126 13.9C30.1726 13.9 30.5926 13.9767 30.9726 14.13C31.3526 14.2833 31.6759 14.5133 31.9426 14.82C32.2092 15.12 32.4159 15.4967 32.5626 15.95C32.7092 16.3967 32.7826 16.9167 32.7826 17.51C32.7826 18.1033 32.7092 18.6267 32.5626 19.08C32.4159 19.5267 32.2092 19.9033 31.9426 20.21C31.6759 20.51 31.3526 20.7367 30.9726 20.89C30.5926 21.0433 30.1726 21.12 29.7126 21.12ZM29.7126 19.77C30.1726 19.77 30.5292 19.62 30.7826 19.32C31.0426 19.02 31.1726 18.59 31.1726 18.03V16.99C31.1726 16.43 31.0426 16 30.7826 15.7C30.5292 15.4 30.1726 15.25 29.7126 15.25C29.2526 15.25 28.8926 15.4 28.6326 15.7C28.3792 16 28.2526 16.43 28.2526 16.99V18.03C28.2526 18.59 28.3792 19.02 28.6326 19.32C28.8926 19.62 29.2526 19.77 29.7126 19.77ZM36.8588 21L34.6088 14.02H36.1488L37.1888 17.37L37.7388 19.56H37.7688L38.2988 17.37L39.3388 14.02H40.8288L38.5588 21H36.8588ZM43.2427 21V14.02H47.9927V15.37H44.7627V16.8H47.5327V18.14H44.7627V19.65H47.9927V21H43.2427ZM52.9469 17.7L52.2769 16.3H52.2469V21H50.8169V14.02H52.4769L54.3869 17.32L55.0569 18.72H55.0869V14.02H56.5169V21H54.8569L52.9469 17.7ZM61.8132 21.12C61.1999 21.12 60.6799 21.0167 60.2532 20.81C59.8265 20.5967 59.4632 20.3233 59.1632 19.99L60.1632 18.98C60.6365 19.5133 61.2199 19.78 61.9132 19.78C62.2865 19.78 62.5632 19.7033 62.7432 19.55C62.9232 19.3967 63.0132 19.1933 63.0132 18.94C63.0132 18.7467 62.9599 18.5867 62.8532 18.46C62.7465 18.3267 62.5299 18.2367 62.2032 18.19L61.5132 18.1C60.7732 18.0067 60.2299 17.7833 59.8832 17.43C59.5432 17.0767 59.3732 16.6067 59.3732 16.02C59.3732 15.7067 59.4332 15.42 59.5532 15.16C59.6732 14.9 59.8432 14.6767 60.0632 14.49C60.2899 14.3033 60.5632 14.16 60.8832 14.06C61.2099 13.9533 61.5799 13.9 61.9932 13.9C62.5199 13.9 62.9832 13.9833 63.3832 14.15C63.7832 14.3167 64.1265 14.56 64.4132 14.88L63.4032 15.9C63.2365 15.7067 63.0332 15.55 62.7932 15.43C62.5599 15.3033 62.2632 15.24 61.9032 15.24C61.5632 15.24 61.3099 15.3 61.1432 15.42C60.9765 15.54 60.8932 15.7067 60.8932 15.92C60.8932 16.16 60.9565 16.3333 61.0832 16.44C61.2165 16.5467 61.4299 16.6233 61.7232 16.67L62.4132 16.78C63.1332 16.8933 63.6665 17.1167 64.0132 17.45C64.3599 17.7767 64.5332 18.2433 64.5332 18.85C64.5332 19.1833 64.4732 19.49 64.3532 19.77C64.2332 20.05 64.0565 20.29 63.8232 20.49C63.5965 20.69 63.3132 20.8467 62.9732 20.96C62.6332 21.0667 62.2465 21.12 61.8132 21.12ZM69.7234 17.96L68.8134 19.06V21H67.2934V14.02H68.8134V17.34H68.8734L69.8634 15.99L71.4334 14.02H73.1534L70.8034 16.89L73.3634 21H71.5734L69.7234 17.96ZM78.1559 21.12C77.6959 21.12 77.2759 21.0433 76.8959 20.89C76.5159 20.7367 76.1926 20.51 75.9259 20.21C75.6593 19.9033 75.4526 19.5267 75.3059 19.08C75.1593 18.6267 75.0859 18.1033 75.0859 17.51C75.0859 16.9167 75.1593 16.3967 75.3059 15.95C75.4526 15.4967 75.6593 15.12 75.9259 14.82C76.1926 14.5133 76.5159 14.2833 76.8959 14.13C77.2759 13.9767 77.6959 13.9 78.1559 13.9C78.6159 13.9 79.0359 13.9767 79.4159 14.13C79.7959 14.2833 80.1193 14.5133 80.3859 14.82C80.6526 15.12 80.8593 15.4967 81.0059 15.95C81.1526 16.3967 81.2259 16.9167 81.2259 17.51C81.2259 18.1033 81.1526 18.6267 81.0059 19.08C80.8593 19.5267 80.6526 19.9033 80.3859 20.21C80.1193 20.51 79.7959 20.7367 79.4159 20.89C79.0359 21.0433 78.6159 21.12 78.1559 21.12ZM78.1559 19.77C78.6159 19.77 78.9726 19.62 79.2259 19.32C79.4859 19.02 79.6159 18.59 79.6159 18.03V16.99C79.6159 16.43 79.4859 16 79.2259 15.7C78.9726 15.4 78.6159 15.25 78.1559 15.25C77.6959 15.25 77.3359 15.4 77.0759 15.7C76.8226 16 76.6959 16.43 76.6959 16.99V18.03C76.6959 18.59 76.8226 19.02 77.0759 19.32C77.3359 19.62 77.6959 19.77 78.1559 19.77Z" fill="white"/>
<g opacity="0.4">
<g opacity="0.8">
<rect x="37" y="266" width="12" height="12" rx="6" fill="#4E4C82"/>
</g>
</g>
<g opacity="0.8">
<rect x="87" y="266" width="12" height="12" rx="6" fill="#4E4C82"/>
</g>
<path d="M107.28 276L105.24 267.624H106.308L107.208 271.656L107.904 274.788H107.928L108.708 271.656L109.764 267.624H110.916L111.936 271.656L112.716 274.776H112.752L113.472 271.656L114.42 267.624H115.452L113.304 276H112.188L111.096 271.824L110.328 268.752H110.304L109.512 271.824L108.396 276H107.28ZM119.26 276.144C118.836 276.144 118.452 276.068 118.108 275.916C117.772 275.764 117.48 275.548 117.232 275.268C116.992 274.98 116.804 274.64 116.668 274.248C116.54 273.848 116.476 273.4 116.476 272.904C116.476 272.416 116.54 271.972 116.668 271.572C116.804 271.172 116.992 270.832 117.232 270.552C117.48 270.264 117.772 270.044 118.108 269.892C118.452 269.74 118.836 269.664 119.26 269.664C119.676 269.664 120.048 269.74 120.376 269.892C120.704 270.044 120.984 270.256 121.216 270.528C121.448 270.792 121.624 271.108 121.744 271.476C121.872 271.844 121.936 272.248 121.936 272.688V273.144H117.484V273.432C117.484 273.696 117.524 273.944 117.604 274.176C117.692 274.4 117.812 274.596 117.964 274.764C118.124 274.932 118.316 275.064 118.54 275.16C118.772 275.256 119.032 275.304 119.32 275.304C119.712 275.304 120.052 275.212 120.34 275.028C120.636 274.844 120.864 274.58 121.024 274.236L121.708 274.728C121.508 275.152 121.196 275.496 120.772 275.76C120.348 276.016 119.844 276.144 119.26 276.144ZM119.26 270.468C118.996 270.468 118.756 270.516 118.54 270.612C118.324 270.7 118.136 270.828 117.976 270.996C117.824 271.164 117.704 271.364 117.616 271.596C117.528 271.82 117.484 272.068 117.484 272.34V272.424H120.904V272.292C120.904 271.74 120.752 271.3 120.448 270.972C120.152 270.636 119.756 270.468 119.26 270.468ZM123.918 267.12H124.878V270.816H124.926C125.086 270.424 125.318 270.136 125.622 269.952C125.934 269.76 126.306 269.664 126.738 269.664C127.122 269.664 127.47 269.74 127.782 269.892C128.094 270.044 128.358 270.26 128.574 270.54C128.798 270.82 128.966 271.16 129.078 271.56C129.198 271.96 129.258 272.408 129.258 272.904C129.258 273.4 129.198 273.848 129.078 274.248C128.966 274.648 128.798 274.988 128.574 275.268C128.358 275.548 128.094 275.764 127.782 275.916C127.47 276.068 127.122 276.144 126.738 276.144C125.898 276.144 125.294 275.76 124.926 274.992H124.878V276H123.918V267.12ZM126.474 275.28C127.018 275.28 127.446 275.112 127.758 274.776C128.07 274.432 128.226 273.984 128.226 273.432V272.376C128.226 271.824 128.07 271.38 127.758 271.044C127.446 270.7 127.018 270.528 126.474 270.528C126.258 270.528 126.05 270.56 125.85 270.624C125.658 270.68 125.49 270.76 125.346 270.864C125.202 270.968 125.086 271.096 124.998 271.248C124.918 271.392 124.878 271.548 124.878 271.716V274.02C124.878 274.22 124.918 274.4 124.998 274.56C125.086 274.712 125.202 274.844 125.346 274.956C125.49 275.06 125.658 275.14 125.85 275.196C126.05 275.252 126.258 275.28 126.474 275.28Z" fill="#98999A"/>
<path d="M1.05682 268.273V277H2.04545V270.369H2.13068L4.85795 277H5.8125L8.53977 270.369H8.625V277H9.61364V268.273H8.35227L5.38636 275.517H5.28409L2.31818 268.273H1.05682ZM14.6553 277.136C16.4281 277.136 17.6212 275.79 17.6212 273.761C17.6212 271.716 16.4281 270.369 14.6553 270.369C12.8826 270.369 11.6894 271.716 11.6894 273.761C11.6894 275.79 12.8826 277.136 14.6553 277.136ZM14.6553 276.233C13.3087 276.233 12.6951 275.074 12.6951 273.761C12.6951 272.449 13.3087 271.273 14.6553 271.273C16.0019 271.273 16.6156 272.449 16.6156 273.761C16.6156 275.074 16.0019 276.233 14.6553 276.233ZM19.6928 277H20.6643V275.994H20.7837C21.0053 276.352 21.4314 277.136 22.6928 277.136C24.3291 277.136 25.4712 275.824 25.4712 273.744C25.4712 271.682 24.3291 270.369 22.6757 270.369C21.3973 270.369 21.0053 271.153 20.7837 271.494H20.6984V268.273H19.6928V277ZM20.6814 273.727C20.6814 272.261 21.3291 271.273 22.5564 271.273C23.8348 271.273 24.4655 272.347 24.4655 273.727C24.4655 275.125 23.8178 276.233 22.5564 276.233C21.3462 276.233 20.6814 275.21 20.6814 273.727ZM27.4095 277H28.4152V270.455H27.4095V277ZM27.9209 269.364C28.3129 269.364 28.6368 269.057 28.6368 268.682C28.6368 268.307 28.3129 268 27.9209 268C27.5288 268 27.205 268.307 27.205 268.682C27.205 269.057 27.5288 269.364 27.9209 269.364ZM31.6629 268.273H30.6572V277H31.6629V268.273Z" fill="#98999A"/>
</svg>
