<svg width="446" height="467" viewBox="0 0 446 467" fill="none" xmlns="http://www.w3.org/2000/svg">
<path d="M214.182 383.382C196.761 394.955 175.892 400.189 155.071 398.205C134.25 396.222 114.743 387.143 99.8202 372.489C84.8971 357.835 75.4641 338.497 73.1022 317.716C70.7403 296.935 75.5931 275.973 86.8472 258.344C98.1013 240.715 115.073 227.49 134.918 220.885C154.762 214.28 176.274 214.697 195.848 222.066C215.422 229.434 231.869 243.307 242.432 261.358C252.994 279.41 257.032 300.544 253.867 321.218L281.541 328.476L275.851 337.09C267.049 350.416 251.706 353.315 242.3 353.745C235.286 365.621 225.673 375.753 214.182 383.382V383.382ZM121.614 243.895C86.5562 267.161 76.9627 314.61 100.228 349.668C123.494 384.726 170.943 394.319 206.001 371.053C216.685 363.965 225.412 354.3 231.377 342.951L233.531 338.839L238.171 338.99C241.553 339.1 247.951 338.907 253.852 336.511L236.438 331.944L238.086 324.926C240.513 314.784 240.816 304.249 238.975 293.984C237.133 283.719 233.188 273.947 227.386 265.281C204.121 230.223 156.671 220.63 121.614 243.895V243.895Z" fill="#D3D3D3"/>
<path d="M233.552 261.188C207.99 222.67 156.043 212.167 117.524 237.729C79.0064 263.291 68.5035 315.239 94.0656 353.757C119.628 392.275 171.575 402.778 210.093 377.215C221.827 369.453 231.405 358.846 237.933 346.382C245.03 346.613 261.332 345.65 269.68 333.011L245.29 326.615C247.919 315.487 248.234 303.937 246.215 292.682C244.196 281.428 239.886 270.708 233.552 261.188Z" fill="white"/>
<path d="M86.3727 355.352C89.967 352.967 90.9471 348.119 88.5617 344.525C86.1764 340.931 81.329 339.951 77.7346 342.336C74.1403 344.721 73.1603 349.569 75.5456 353.163C77.9309 356.757 82.7784 357.737 86.3727 355.352Z" fill="#34334B"/>
<path d="M118.463 352.509L113.071 351.498L107.846 357.911L113.536 365.112L126.652 355.502L118.746 352.612L118.463 352.509Z" fill="#FCD2B1"/>
<path d="M111.251 357.201C117.062 353.345 118.646 345.508 114.79 339.698C110.933 333.887 103.097 332.302 97.286 336.159C91.4752 340.015 89.8908 347.852 93.747 353.662C97.6033 359.473 105.44 361.058 111.251 357.201Z" fill="#FCD2B1"/>
<path d="M185.571 327.425C185.571 327.425 213.238 341.06 218.527 342.353C221.079 343.023 223.669 343.542 226.282 343.907C226.282 343.907 228.019 349.664 225.602 351.022C224.237 351.814 222.739 352.351 221.181 352.607C221.181 352.607 218.385 350.624 215.816 350.645C213.247 350.667 189.033 345.976 186.318 341.143C183.604 336.309 185.571 327.425 185.571 327.425Z" fill="#34334B"/>
<path d="M160.576 389.672C160.576 389.672 181.456 391.222 193.515 368.742L194.341 366.483C194.341 366.483 195.684 374.418 196.533 376.247C197.519 378.368 197.915 394.358 197.117 395.667C196.318 396.975 196.394 397.643 196.394 397.643L204.893 399.79L205.822 397.248C205.822 397.248 206.245 382.518 207.098 379.309C207.951 376.1 205.259 350.627 205.259 350.627C205.259 350.627 204.299 340.993 194.528 346.705C184.758 352.416 182.129 357.857 182.129 357.857L167.182 371.6L160.576 389.672Z" fill="#34334B"/>
<path d="M225.744 342.75L235.915 342.947C235.915 342.947 246.657 339.832 242.41 345.321C238.162 350.811 224.171 361.062 222.146 358.721C220.121 356.38 218.346 351.758 219.212 351.501C220.078 351.243 225.938 349.223 225.744 342.75Z" fill="#34334B"/>
<path d="M205.338 395.182L211.33 401.411C211.33 401.411 219.655 405.992 213.806 406.739C207.956 407.485 193.394 405.238 193.583 402.615C193.773 399.992 195.483 396.15 196.158 396.515C196.833 396.881 201.567 399.188 205.338 395.182Z" fill="#34334B"/>
<path d="M171.06 372.376C171.06 372.376 168.95 389.53 161.5 390.648C154.049 391.765 110.357 376.434 109.24 368.983C108.122 361.532 109.816 362.152 109.816 362.152L122.568 355.289L115.433 352.041C115.433 352.041 116.259 349.782 118.903 350.429C121.548 351.075 130.486 351.142 136.541 355.596C142.595 360.05 148.716 355.565 148.716 355.565L171.06 372.376Z" fill="white"/>
<path d="M193.923 324.717L189.124 352.732L157.531 336.702L160.272 310.815L193.923 324.717Z" fill="#D3D3D3"/>
<path d="M192.574 325.343L187.96 350.226L159.177 335.703L161.181 312.267L192.574 325.343Z" fill="white"/>
<path d="M187.892 352.601L189.125 352.732L189.277 354.068L171.054 375.896L170.323 375.261L170.647 373.507L187.892 352.601Z" fill="#D3D3D3"/>
<path d="M189.228 352.45L170.592 375.408L138.283 357.835L157.532 336.702L189.228 352.45Z" fill="#D3D3D3"/>
<path d="M185.019 349.951L184.502 351.363L160.404 339.352L161.202 338.044L185.019 349.951Z" fill="#D3D3D3"/>
<path d="M183.422 352.568L175.443 362.136L150.882 349.636L159.22 340.84L183.422 352.568Z" fill="#D3D3D3"/>
<path d="M145.554 356.331L147.227 354.382C147.227 354.382 157.851 345.461 160.413 348.958C162.976 352.456 148.503 359.649 148.503 359.649L145.114 358.411L145.554 356.331Z" fill="#FCD2B1"/>
<path d="M166.396 365.87L168.482 362.791C168.482 362.791 174.561 353.169 170.401 352.288C166.241 351.408 161.498 360.879 161.498 360.879L160.955 363.241L166.396 365.87Z" fill="#FCD2B1"/>
<path d="M160.134 361.982C160.134 361.982 167.889 363.536 167.552 365.333C167.215 367.131 159.337 393.06 151.968 391.327C144.599 389.593 108.243 380.465 115.114 373.053C121.984 365.641 127.219 368.835 127.219 368.835L150.292 380.151L160.134 361.982Z" fill="white"/>
<path d="M136.781 357.125L146.174 354.637L149.722 360.255L141.032 364.762L136.781 357.125Z" fill="white"/>
<path opacity="0.2" d="M154.972 369.537L149.92 379.854L130.849 371.602L147.894 377.513L154.972 369.537Z" fill="#34334B"/>
<path d="M105.939 359.22C112.857 354.63 114.743 345.3 110.152 338.383C105.561 331.465 96.232 329.579 89.3145 334.17C82.3969 338.76 80.5106 348.09 85.1014 355.007C89.6922 361.925 99.0216 363.811 105.939 359.22Z" fill="#34334B"/>
<path d="M185.346 331.983L168.062 324.974L168.726 317.905L186.598 325.056L185.346 331.983Z" fill="white"/>
<path d="M188.521 337.307L162.288 326.757L162.418 325.524L188.62 336.161L188.521 337.307Z" fill="#D3D3D3"/>
<path d="M188.054 340.337L161.82 329.787L161.951 328.554L188.152 339.191L188.054 340.337Z" fill="#D3D3D3"/>
<path d="M187.513 342.697L161.279 332.147L161.41 330.915L187.611 341.552L187.513 342.697Z" fill="#D3D3D3"/>
<path d="M97.626 334.652L101.501 332.08C103.463 330.778 105.862 330.309 108.17 330.775C110.478 331.242 112.506 332.606 113.808 334.568V334.568L102.535 342.049L97.626 334.652Z" fill="#34334B"/>
<path d="M267.197 195.752C259.236 200.781 244.993 207.181 230.15 201.287L220.555 197.477L239.101 175.692C223.519 159.292 214.608 137.673 214.106 115.056C213.605 92.4388 221.551 70.4467 236.391 53.3722C251.232 36.2977 271.903 25.3663 294.369 22.7117C316.835 20.057 339.484 25.8697 357.896 39.0152C376.307 52.1606 389.159 71.6953 393.943 93.8063C398.727 115.917 395.1 139.017 383.769 158.598C372.439 178.179 354.218 192.834 332.664 199.704C311.109 206.574 287.769 205.165 267.197 195.752L267.197 195.752ZM228.817 114.664C229.017 125.091 231.372 135.363 235.734 144.835C240.097 154.308 246.372 162.775 254.165 169.705L259.532 174.518L247.862 188.226C254.073 186.816 259.431 183.313 262.141 181.289L265.861 178.51L269.98 180.651C281.366 186.546 294.053 189.48 306.871 189.181C348.935 188.206 382.363 153.192 381.388 111.128C380.413 69.0638 345.398 35.6354 303.335 36.6103C261.271 37.5853 227.842 72.6 228.817 114.664L228.817 114.664Z" fill="#D3D3D3"/>
<path d="M221.423 114.835C220.352 68.6193 256.949 30.2855 303.165 29.2143C349.381 28.1431 387.715 64.7403 388.786 110.956C389.857 157.172 353.26 195.506 307.044 196.577C292.979 196.924 279.055 193.703 266.571 187.216C260.881 191.466 246.96 200.002 232.883 194.412L249.227 175.212C240.704 167.589 233.838 158.297 229.056 147.911C224.273 137.525 221.675 126.267 221.423 114.835V114.835Z" fill="white"/>
<path d="M324.134 85.8553C318.444 76.7307 307.602 76.5506 307.602 76.5506C307.602 76.5506 297.015 75.4454 290.57 89.6925C284.563 102.972 276.147 115.854 289.838 118.613L292.12 110.899L293.834 119.091C295.777 119.185 297.723 119.173 299.664 119.055C314.239 118.246 328.143 118.533 327.575 113.309C326.819 106.365 329.609 94.635 324.134 85.8553Z" fill="#34334B"/>
<path d="M290.198 167.703C290.061 168.725 289.851 169.735 289.569 170.726C289.249 171.697 288.741 172.601 288.45 173.581C287.523 176.707 288.988 180.134 291.254 182.478C293.219 184.502 295.728 185.914 298.478 186.544C300.501 186.928 302.559 187.097 304.617 187.046C310.314 187.107 316.156 187.144 321.507 185.19C323.197 184.559 324.826 183.773 326.372 182.843C326.861 182.596 327.289 182.242 327.624 181.809C327.971 181.177 328.115 180.454 328.037 179.737C327.969 177.324 327.424 174.935 327.484 172.522C327.518 171.186 327.737 169.846 327.583 168.518C327.378 167.011 326.711 165.603 325.676 164.489C324.64 163.375 323.285 162.608 321.796 162.293C320.259 162 318.676 162.216 317.122 162.401C313.087 162.884 309.031 163.159 304.969 163.227C300.818 163.297 296.679 162.759 292.548 162.789C291.326 162.797 291.359 163.173 290.998 164.364C290.665 165.46 290.398 166.575 290.198 167.703V167.703Z" fill="#FF8C4A"/>
<path d="M300.595 107.851C300.419 108.9 300.229 109.987 299.621 110.86C298.922 111.864 297.758 112.456 297.003 113.418C295.867 114.868 295.846 116.871 295.884 118.712C295.919 120.408 295.995 122.217 296.974 123.603C297.667 124.462 298.52 125.179 299.485 125.715C303.087 128.023 306.977 130.368 311.255 130.347C313.028 130.339 314.917 129.837 316.052 128.476C316.541 127.837 316.921 127.122 317.175 126.359C318.206 123.638 318.803 120.772 318.944 117.865C319.07 116.498 318.91 115.119 318.476 113.816C317.923 112.379 316.845 111.212 316.118 109.855C315.26 108.24 314.917 106.402 315.136 104.587C315.167 104.459 315.154 104.324 315.097 104.204C315.038 104.141 314.966 104.093 314.885 104.062C314.805 104.032 314.718 104.02 314.632 104.029L306.138 103.615C305.348 103.594 304.559 103.522 303.778 103.4C303.318 103.318 302.096 102.696 301.664 102.879C300.865 103.217 300.74 106.981 300.595 107.851Z" fill="#FCD2B1"/>
<path opacity="0.1" d="M300.601 108.116C300.425 109.165 300.235 110.252 299.627 111.125C298.928 112.129 297.764 112.72 297.009 113.683C295.873 115.133 295.852 117.136 295.89 118.977C295.925 120.673 296.001 122.481 296.98 123.867C297.673 124.726 298.526 125.444 299.491 125.98C303.093 128.288 306.983 130.633 311.261 130.612C313.034 130.604 314.923 130.102 316.058 128.74C316.547 128.102 316.927 127.387 317.181 126.624C318.212 123.903 318.809 121.037 318.95 118.13C319.076 116.763 318.916 115.384 318.482 114.081C317.928 112.644 316.85 111.477 316.124 110.119C315.266 108.505 314.923 106.667 315.142 104.852C315.173 104.724 315.16 104.588 315.103 104.469C315.044 104.406 314.972 104.357 314.891 104.327C314.811 104.296 314.724 104.285 314.638 104.294L306.144 103.88C305.354 103.859 304.565 103.787 303.784 103.665C303.324 103.582 302.102 102.961 301.67 103.144C300.871 103.482 300.746 107.246 300.601 108.116Z" fill="#34334B"/>
<path d="M308.728 108.8C315.599 108.641 321.04 102.942 320.88 96.0706C320.721 89.1996 315.022 83.7587 308.151 83.9179C301.28 84.0772 295.839 89.7763 295.998 96.6473C296.158 103.518 301.857 108.959 308.728 108.8Z" fill="#FCD2B1"/>
<path d="M302.722 124.371C303.353 125.069 304.108 125.644 304.948 126.067C305.821 126.404 306.754 126.56 307.69 126.523C309.934 126.534 312.355 126.067 313.878 124.419C315.841 122.294 315.697 118.943 317.217 116.482C317.339 116.259 317.508 116.066 317.712 115.915C317.973 115.765 318.27 115.689 318.571 115.696C320.561 115.631 322.325 116.882 323.919 118.077C324.667 118.566 325.315 119.196 325.825 119.93C326.148 120.527 326.375 121.171 326.497 121.839C327.362 125.612 327.703 129.482 328.043 133.339C328.23 135.469 328.417 137.601 328.457 139.738C328.586 146.782 327.11 153.744 325.641 160.634C325.451 161.521 325.187 162.515 324.394 162.956C324.04 163.125 323.658 163.228 323.267 163.259C318.617 163.915 313.958 164.571 309.266 164.752C307.435 164.823 305.603 164.821 303.77 164.747C303.455 164.75 303.141 164.703 302.841 164.607C302.432 164.422 302.078 164.135 301.812 163.774C299.199 160.633 298.947 156.213 298.869 152.129C298.677 142.142 298.802 132.156 299.245 122.171C299.282 121.347 299.271 120.347 298.663 119.713C299.857 121.398 301.217 122.958 302.722 124.371V124.371Z" fill="white"/>
<path d="M299.755 110.067C299.352 110.838 296.298 112.798 295.715 113.442C292.455 117.042 286.353 117.051 283.385 120.894C282.34 122.247 281.82 123.927 281.448 125.595C280.921 127.953 280.67 130.518 281.695 132.706C282.681 134.812 284.687 136.237 286.069 138.107C287.588 140.159 288.307 142.677 288.998 145.135C289.508 146.95 290.023 148.81 289.884 150.69C289.726 152.828 288.74 154.804 288.178 156.873C287.616 158.941 287.568 161.39 289.014 162.972C290.077 164.134 291.711 164.567 293.269 164.795C295.263 165.048 297.272 165.176 299.282 165.178C301.058 165.216 303.014 165.186 304.351 164.017C305.406 163.094 305.84 161.627 305.868 160.226C305.896 158.825 305.573 157.445 305.358 156.06C305.136 154.624 305.029 153.173 304.935 151.723C304.511 145.218 304.323 138.704 304.37 132.18C304.439 130.822 304.341 129.462 304.078 128.128C303.658 126.393 302.679 124.856 301.855 123.272C300.214 120.291 299.423 116.915 299.57 113.514C299.727 110.02 301.187 107.326 299.755 110.067Z" fill="white"/>
<path d="M317.231 109.928C317.886 110.571 320.066 110.737 320.89 111.142C321.664 111.478 322.469 111.736 323.295 111.912C326.284 112.7 329.139 113.931 331.764 115.564C332.309 115.866 332.793 116.266 333.193 116.742C333.619 117.4 333.9 118.14 334.019 118.914C334.464 120.879 334.911 122.868 334.868 124.883C334.822 127.021 334.227 129.105 333.636 131.161L331.427 138.842C329.779 144.575 328.12 150.365 327.757 156.319C327.556 159.619 327.756 162.932 328.353 166.184C328.405 166.341 328.424 166.509 328.407 166.674C328.39 166.839 328.338 166.999 328.255 167.143C328.101 167.302 327.896 167.402 327.677 167.425C326.53 167.632 325.402 167.071 324.347 166.575C321.122 165.063 317.694 164.028 314.171 163.505C315.496 161.491 316.503 159.286 317.158 156.966C317.526 155.494 317.808 154.001 318.002 152.496L318.963 146.053C319.36 143.697 319.623 141.32 319.751 138.934C319.814 138.038 319.741 137.138 319.534 136.264C319.259 135.435 318.901 134.635 318.465 133.877C316.548 130.116 315.589 125.795 316.212 121.619C316.485 119.792 317.055 117.955 316.757 116.132C316.471 114.379 316.694 113.006 316.203 111.276C314.184 104.172 315.998 108.718 317.231 109.928Z" fill="white"/>
<path d="M283.491 126.909C282.697 128.659 281.338 130.165 280.906 132.037C280.742 132.911 280.684 133.801 280.732 134.689C280.681 136.03 280.845 137.371 281.217 138.661C281.501 139.475 281.949 140.222 282.278 141.019C282.737 142.133 282.957 143.331 282.926 144.535C282.881 146.203 282.352 147.834 282.346 149.503C282.338 152.128 283.608 154.565 284.846 156.88C285.127 156.135 285.567 155.461 286.136 154.904C286.705 154.347 287.388 153.921 288.139 153.656C288.889 153.391 289.689 153.293 290.481 153.369C291.273 153.445 292.039 153.693 292.726 154.096C292.989 153.757 293.108 153.327 293.056 152.901C293.073 149.856 293.087 146.811 293.098 143.766C293.117 139.056 293.128 134.284 291.939 129.727C291.403 127.669 290.594 125.626 289.163 124.053C288.409 123.225 285.865 121.058 284.681 122.032C284.149 122.47 284.303 123.626 284.231 124.215C284.122 125.145 283.873 126.054 283.491 126.909V126.909Z" fill="white"/>
<path d="M335.016 120.727C335.381 121.967 335.554 123.255 335.531 124.547C335.608 127.177 335.634 129.808 335.609 132.44C335.654 133.789 335.512 135.137 335.189 136.447C334.94 137.3 334.542 138.104 334.284 138.954C333.509 141.502 334.028 144.234 334.161 146.894C334.232 147.754 334.178 148.62 334.002 149.465C333.601 151.125 332.45 152.486 331.66 154C330.909 155.438 330.474 157.04 329.569 158.387C328.664 159.733 327.068 160.82 325.489 160.45C324.293 160.169 323.423 159.136 322.813 158.069C321.483 155.722 320.983 152.995 321.395 150.329C321.907 147.085 323.738 144.175 324.348 140.948C325.185 136.517 323.652 132 323.59 127.491C323.554 126.784 323.634 126.077 323.825 125.396C324.16 124.358 324.912 123.518 325.605 122.675C326.471 121.623 327.273 120.519 328.006 119.369C328.498 118.597 329.145 116.625 330.045 116.442C332.055 116.032 334.48 119.18 335.016 120.727Z" fill="white"/>
<path d="M273.925 166.119C272.802 165.864 271.649 165.768 270.5 165.835C269.294 165.93 268.121 166.28 267.06 166.863C265.999 167.446 265.075 168.249 264.348 169.217C263.622 170.185 263.109 171.296 262.845 172.478C262.582 173.659 262.572 174.883 262.818 176.068C263.127 177.351 263.611 178.585 264.258 179.736C265.206 181.553 266.335 183.362 268.039 184.501C269.065 185.126 270.165 185.618 271.313 185.968L280.223 189.09C281.534 189.55 282.845 190.009 284.168 190.433C290.813 192.559 297.718 193.766 304.69 194.02C306.814 194.17 308.947 194.012 311.026 193.552C311.529 193.474 311.986 193.214 312.308 192.82C312.47 192.523 312.562 192.193 312.576 191.855L313.032 188.037C313.141 187.505 313.112 186.953 312.948 186.434C312.685 185.801 312.051 185.413 311.448 185.085C305.564 181.884 298.741 180.201 293.747 175.737C292.572 174.686 291.569 173.001 290.154 172.301C288.55 171.508 286.672 171.077 285.015 170.35C281.394 168.761 277.828 166.921 273.925 166.119Z" fill="#FF8C4A"/>
<path opacity="0.1" d="M282.86 171.043C286.005 171.949 299.343 178.421 301.657 180.735C301.357 180.851 290.948 175.331 290.638 175.246C287.794 174.535 285.004 173.624 282.288 172.519C281.747 172.284 278.777 171.188 278.895 170.51C279.028 169.744 282.302 170.883 282.86 171.043Z" fill="#34334B"/>
<path d="M322.4 195.584C322.577 195.593 322.752 195.537 322.891 195.427C322.952 195.346 322.995 195.253 323.02 195.155C323.044 195.056 323.048 194.954 323.033 194.854L322.898 189.67C321.391 188.995 319.718 188.806 318.076 188.625L310.416 187.781C310.592 187.801 309.298 191.098 309.518 191.529C309.906 192.289 312.751 192.904 313.557 193.249C316.361 194.446 319.277 195.765 322.4 195.584Z" fill="#FCD2B1"/>
<path d="M298.303 190.223C296.867 190.486 295.262 190.726 294.354 191.87C293.203 193.321 293.757 195.431 294.362 197.181C294.402 197.408 294.487 197.624 294.612 197.818C294.736 198.011 294.899 198.178 295.089 198.307C295.279 198.437 295.494 198.527 295.72 198.572C295.945 198.617 296.178 198.617 296.403 198.571C297.72 198.623 299.121 198.656 300.255 197.985C300.767 197.629 301.26 197.245 301.73 196.834C302.564 196.251 303.485 195.804 304.459 195.509C306.249 194.9 308.096 194.475 309.971 194.239C310.711 194.188 311.442 194.042 312.144 193.804C312.495 193.682 312.813 193.481 313.074 193.216C313.334 192.951 313.53 192.63 313.646 192.277C313.89 191.329 313.321 190.381 312.776 189.567C312.146 188.499 311.338 187.546 310.387 186.75C308.939 185.678 308.255 186.543 306.838 187.283C304.156 188.685 301.279 189.676 298.303 190.223V190.223Z" fill="#FCD2B1"/>
<path d="M294.565 191.609L285.347 189.115C284.24 188.758 283.088 188.562 281.925 188.534C281.343 188.523 280.766 188.637 280.231 188.868C279.697 189.099 279.217 189.441 278.826 189.872C278.135 190.721 277.958 191.865 277.806 192.949L277.481 195.268C277.256 196.439 277.212 197.638 277.352 198.822C277.426 199.414 277.635 199.981 277.962 200.48C278.289 200.979 278.725 201.398 279.238 201.703C280.521 202.365 282.066 201.991 283.473 201.669C286.315 201.019 289.213 200.64 292.127 200.538C293.223 200.499 294.372 200.486 295.329 199.951C295.883 199.605 296.344 199.128 296.673 198.563C297.001 197.998 297.186 197.361 297.212 196.708C297.347 194.73 296.629 192.167 294.565 191.609Z" fill="#34334B"/>
<path d="M325.836 188.524C327.018 188.289 328.05 187.59 329.178 187.166C330.765 186.568 332.5 186.528 334.196 186.495C334.818 186.423 335.448 186.534 336.008 186.814C336.767 187.294 336.981 188.285 337.129 189.171L338.019 194.513C338.248 195.508 338.293 196.537 338.152 197.548C337.951 198.546 337.296 199.52 336.316 199.799C335.126 200.138 333.935 199.4 332.793 198.924C329.939 197.734 326.662 198.131 323.695 197.261C323.412 197.211 323.143 197.102 322.905 196.94C322.668 196.778 322.467 196.568 322.317 196.323C322.21 196.028 322.166 195.713 322.19 195.399C322.201 193.675 321.783 191.331 322.263 189.673C322.696 188.181 324.511 188.555 325.836 188.524Z" fill="#34334B"/>
<path d="M344.613 162.321C346.431 161.82 348.325 161.647 350.204 161.809C351.705 161.939 353.257 162.32 354.374 163.331C355.734 164.561 356.207 166.502 356.285 168.334C356.428 171.983 355.3 175.569 353.093 178.479C352.554 179.215 351.909 179.865 351.178 180.41C350.388 180.93 349.543 181.362 348.658 181.697L329.059 189.957C323.902 192.13 318.728 194.31 313.332 195.789C313.185 195.864 313.025 195.909 312.86 195.921C312.696 195.933 312.531 195.912 312.374 195.86C312.218 195.807 312.074 195.724 311.951 195.615C311.827 195.506 311.727 195.373 311.655 195.225C309.865 192.789 308.349 190.163 307.136 187.395C307.08 187.33 307.041 187.252 307.021 187.168C307.002 187.085 307.003 186.998 307.024 186.914C307.045 186.831 307.086 186.754 307.143 186.69C307.201 186.626 307.272 186.577 307.353 186.547L321.157 178.184C322.171 177.625 323.112 176.944 323.959 176.156C324.55 175.556 325.029 174.855 325.374 174.086C325.65 173.474 325.644 172.044 326.004 171.588C326.356 171.141 327.596 171.077 328.165 170.891C328.968 170.625 329.752 170.308 330.514 169.941C333.611 168.468 336.351 166.369 339.313 164.66C340.973 163.659 342.754 162.873 344.613 162.321V162.321Z" fill="#FF8C4A"/>
<path opacity="0.1" d="M336.823 168.509C334.461 170.37 331.387 172.101 329.048 174.01C328.249 174.661 314.872 182.595 314.704 183.612C316.935 183.935 330.863 173.702 332.866 172.666C334.869 171.631 336.632 170.196 338.379 168.771C338.825 168.408 340.722 167.304 339.411 166.94C338.673 166.735 337.356 168.135 336.823 168.509Z" fill="#FF8C4A"/>
<path d="M318.918 110.063L297.818 110.552C296.961 110.572 296.146 110.932 295.554 111.552C294.962 112.172 294.641 113.002 294.661 113.859L294.688 115.043L294.459 115.048L294.52 117.695L294.749 117.69L294.792 119.543L294.563 119.548L294.6 121.136L294.829 121.131L295.282 140.662C295.302 141.52 295.661 142.334 296.282 142.926C296.902 143.518 297.732 143.84 298.589 143.82L319.689 143.331C320.546 143.311 321.361 142.951 321.953 142.331C322.545 141.711 322.866 140.881 322.846 140.023L322.225 113.22C322.205 112.363 321.846 111.549 321.225 110.957C320.605 110.365 319.775 110.043 318.918 110.063V110.063Z" fill="#D3D3D3"/>
<path d="M321.693 85.0197L310.861 79.6618L296.135 82.2977L293.391 95.8734L300.995 95.4038L303.006 90.3933L303.12 95.2732L306.629 95.0567L308.484 87.1101L309.953 95.4895L322.433 94.9451L321.693 85.0197Z" fill="#34334B"/>
<path d="M287.105 161.904C287.608 162.716 288.312 163.385 289.149 163.845C289.696 164.08 290.29 164.187 290.885 164.157C291.479 164.127 292.06 163.962 292.581 163.674C293.621 163.085 294.464 162.2 295.001 161.132C296.117 159.051 296.301 156.588 296.101 154.235C295.901 151.883 295.344 149.575 295.067 147.23C294.866 145.526 294.813 143.808 294.76 142.092C294.712 141.733 294.779 141.367 294.952 141.047C295.256 140.731 295.654 140.521 296.086 140.448C298.417 139.696 299.924 137.46 300.991 135.255C301.703 133.782 302.315 132.177 302.133 130.551C301.952 128.926 300.743 127.312 299.112 127.184C297.768 127.078 296.55 127.958 295.604 128.92C293.219 131.359 291.723 134.53 291.357 137.922C291.183 139.583 291.284 141.283 290.87 142.901C289.988 146.356 287.028 148.531 285.6 151.654C284.026 155.096 285.028 158.939 287.105 161.904Z" fill="#FCD2B1"/>
<path d="M331.083 147.763C330.76 148.567 330.278 149.298 329.667 149.913C329.056 150.528 328.328 151.014 327.526 151.343C326.53 151.771 325.422 151.864 324.368 151.61C323.845 151.478 323.36 151.227 322.95 150.877C322.54 150.527 322.216 150.087 322.003 149.592C321.831 149.092 321.731 148.569 321.706 148.041C321.502 145.73 321.505 143.343 322.296 141.161C322.601 140.32 323.02 139.519 323.256 138.655C323.484 137.659 323.589 136.639 323.569 135.617L323.699 129.294C323.734 128.835 323.691 128.373 323.573 127.927C323.276 127.019 322.408 126.445 321.612 125.918C319.688 124.646 317.782 123.153 316.816 121.059C316.486 120.43 316.357 119.715 316.445 119.009C316.675 117.749 317.922 116.908 319.166 116.605C319.981 116.407 320.827 116.376 321.654 116.514C322.48 116.652 323.271 116.955 323.977 117.407C324.683 117.858 325.291 118.448 325.763 119.14C326.235 119.832 326.563 120.613 326.725 121.436C326.866 122.145 326.881 122.874 326.97 123.592C327.159 125.115 327.678 126.576 328.016 128.073C328.849 131.762 328.55 135.601 329.375 139.289C330.064 142.373 332.44 144.34 331.083 147.763Z" fill="#FCD2B1"/>
<path d="M308.978 124.511C310.44 124.477 311.598 123.264 311.564 121.802C311.53 120.34 310.317 119.182 308.855 119.216C307.393 119.25 306.235 120.463 306.269 121.925C306.303 123.387 307.516 124.544 308.978 124.511Z" fill="white"/>
</svg>
