<svg width="324" height="261" viewBox="0 0 324 261" fill="none" xmlns="http://www.w3.org/2000/svg">
<path d="M212.883 146.022C206.058 150.115 193.898 155.244 181.472 149.973L173.44 146.566L189.536 128.522C176.691 114.359 169.585 95.9177 169.605 76.7975C169.624 57.6773 176.768 39.2506 189.642 25.1141C202.516 10.9775 220.196 2.14581 239.231 0.34275C258.266 -1.46031 277.29 3.89471 292.589 15.3626C307.888 26.8304 318.365 43.588 321.974 62.3645C325.584 81.1409 322.066 100.588 312.109 116.911C302.152 133.234 286.469 145.26 268.122 150.643C249.775 156.026 230.081 154.378 212.883 146.022V146.022ZM182.042 76.7544C182.007 85.5684 183.795 94.2944 187.296 102.383C190.796 110.473 195.933 117.75 202.382 123.758L206.822 127.93L196.693 139.284C201.969 138.214 206.565 135.36 208.895 133.702L212.092 131.427L215.531 133.316C225.036 138.521 235.698 141.248 246.534 141.247C282.095 141.247 311.027 112.316 311.027 76.7544C311.027 41.1933 282.095 12.2621 246.534 12.2621C210.973 12.2621 182.042 41.1933 182.042 76.7544V76.7544Z" fill="#D3D3D3"/>
<path d="M175.79 76.7543C175.79 37.6829 207.464 6.00928 246.535 6.00928C285.607 6.00928 317.28 37.6829 317.28 76.7543C317.28 115.826 285.607 147.499 246.535 147.499C234.644 147.517 222.942 144.523 212.52 138.797C207.63 142.276 195.7 149.216 183.914 144.217L198.101 128.314C191.049 121.707 185.429 113.72 181.592 104.851C177.754 95.9818 175.779 86.4184 175.79 76.7543V76.7543Z" fill="white"/>
<path d="M83.5097 244.302C65.8327 244.31 48.69 238.242 34.9545 227.115C21.2189 215.988 11.7253 200.478 8.06459 183.184C4.40388 165.891 6.79855 147.864 14.8473 132.126C22.896 116.388 36.1097 103.894 52.2739 96.7389C68.438 89.5838 86.5704 88.2021 103.632 92.8251C120.694 97.4482 135.648 107.795 145.989 122.132C156.329 136.469 161.428 153.924 160.43 171.573C159.432 189.222 152.399 205.992 140.508 219.071L156.605 237.116L148.572 240.523C136.146 245.794 123.986 240.665 117.161 236.572C106.671 241.657 95.1665 244.3 83.5097 244.302V244.302ZM83.5097 102.812C47.9486 102.812 19.0173 131.743 19.0173 167.304C19.0173 202.865 47.9486 231.796 83.5097 231.796C94.3461 231.797 105.008 229.07 114.513 223.866L117.952 221.977L121.149 224.252C123.479 225.909 128.075 228.764 133.351 229.834L123.222 218.48L127.662 214.307C134.111 208.3 139.248 201.022 142.748 192.933C146.249 184.844 148.037 176.118 148.002 167.304C148.002 131.743 119.071 102.812 83.5097 102.812V102.812Z" fill="#D3D3D3"/>
<path d="M154.256 167.304C154.256 128.233 122.582 96.5591 83.5107 96.5591C44.4393 96.5591 12.7656 128.233 12.7656 167.304C12.7656 206.376 44.4393 238.049 83.5107 238.049C95.4018 238.067 107.104 235.073 117.525 229.347C122.416 232.826 134.346 239.766 146.131 234.767L131.945 218.864C138.997 212.256 144.616 204.27 148.454 195.401C152.292 186.532 154.267 176.968 154.256 167.304Z" fill="white"/>
<path d="M263.144 54.2788C258.515 46.4577 249.358 46.0932 249.358 46.0932C249.358 46.0932 240.434 44.9521 234.71 56.8638C229.374 67.9664 222.01 78.6863 233.524 81.2853L235.604 74.8122L236.892 81.7672C238.531 81.8851 240.176 81.9132 241.818 81.8514C254.149 81.4533 265.892 81.9679 265.514 77.5432C265.011 71.6612 267.598 61.8043 263.144 54.2788Z" fill="#34334B"/>
<path d="M232.866 122.772C232.73 123.632 232.533 124.482 232.276 125.314C231.986 126.128 231.539 126.881 231.274 127.704C230.43 130.327 231.6 133.252 233.469 135.276C235.09 137.025 237.182 138.267 239.494 138.854C241.195 139.218 242.931 139.4 244.671 139.398C249.483 139.561 254.418 139.707 258.978 138.16C260.418 137.66 261.81 137.028 263.134 136.272C263.552 136.073 263.921 135.783 264.213 135.423C264.518 134.896 264.654 134.288 264.602 133.681C264.592 131.641 264.178 129.611 264.276 127.574C264.331 126.445 264.542 125.318 264.438 124.192C264.294 122.915 263.759 121.713 262.905 120.751C262.052 119.789 260.922 119.114 259.671 118.819C258.377 118.541 257.036 118.693 255.719 118.819C252.301 119.148 248.868 119.301 245.434 119.279C241.926 119.257 238.439 118.721 234.948 118.665C233.915 118.649 233.936 118.967 233.608 119.966C233.305 120.886 233.057 121.823 232.866 122.772V122.772Z" fill="#FF8C4A"/>
<path d="M242.822 72.403C242.653 73.2858 242.471 74.2009 241.941 74.9264C241.33 75.7611 240.335 76.238 239.678 77.0369C238.69 78.2393 238.633 79.9312 238.629 81.4877C238.625 82.9216 238.655 84.451 239.454 85.6412C240.023 86.3806 240.73 87.0033 241.534 87.4753C244.533 89.4961 247.773 91.5532 251.389 91.6199C252.887 91.6475 254.493 91.2606 255.479 90.1322C255.904 89.6022 256.239 89.0052 256.469 88.3656C257.393 86.0868 257.954 83.6768 258.13 81.2239C258.263 80.0707 258.155 78.9025 257.814 77.7931C257.374 76.5685 256.486 75.561 255.899 74.3999C255.205 73.0193 254.952 71.4592 255.172 69.9299C255.201 69.8222 255.192 69.7077 255.147 69.6059C255.098 69.5514 255.038 69.5088 254.971 69.4815C254.903 69.4542 254.83 69.4428 254.758 69.4483L247.589 68.9322C246.921 68.8991 246.257 68.823 245.599 68.7045C245.212 68.626 244.191 68.0771 243.823 68.223C243.141 68.4932 242.962 71.6709 242.822 72.403Z" fill="#FCD2B1"/>
<path opacity="0.1" d="M242.822 72.6271C242.653 73.5099 242.471 74.425 241.941 75.1505C241.33 75.9852 240.335 76.4621 239.678 77.261C238.69 78.4634 238.633 80.1553 238.629 81.7118C238.625 83.1457 238.655 84.6751 239.454 85.8653C240.023 86.6047 240.73 87.2274 241.534 87.6994C244.533 89.7202 247.773 91.7774 251.389 91.844C252.887 91.8716 254.493 91.4847 255.479 90.3564C255.904 89.8263 256.239 89.2293 256.469 88.5897C257.393 86.3109 257.954 83.9009 258.13 81.448C258.263 80.2948 258.155 79.1266 257.813 78.0172C257.374 76.7927 256.486 75.7851 255.899 74.624C255.205 73.2434 254.952 71.6833 255.172 70.154C255.201 70.0463 255.192 69.9318 255.147 69.83C255.098 69.7755 255.038 69.733 254.971 69.7056C254.903 69.6783 254.83 69.6669 254.758 69.6724L247.589 69.1564C246.921 69.1232 246.257 69.0471 245.599 68.9287C245.212 68.8501 244.191 68.3012 243.823 68.4472C243.141 68.7173 242.962 71.895 242.822 72.6271Z" fill="#34334B"/>
<path d="M249.678 73.3644C255.486 73.3644 260.195 68.6555 260.195 62.8469C260.195 57.0382 255.486 52.3293 249.678 52.3293C243.869 52.3293 239.16 57.0382 239.16 62.8469C239.16 68.6555 243.869 73.3644 249.678 73.3644Z" fill="#FCD2B1"/>
<path d="M244.297 86.4037C244.817 87.0054 245.443 87.5059 246.145 87.8799C246.876 88.1821 247.661 88.3317 248.453 88.3193C250.349 88.3726 252.404 88.0253 253.723 86.6623C255.423 84.9053 255.367 82.0714 256.699 80.0216C256.807 79.8358 256.953 79.6755 257.129 79.552C257.352 79.4303 257.605 79.3722 257.859 79.3841C259.542 79.3683 261.008 80.4599 262.331 81.5001C262.954 81.9287 263.488 82.4731 263.905 83.1037C264.167 83.6141 264.346 84.1628 264.436 84.7293C265.093 87.9345 265.305 91.2117 265.517 94.4766C265.633 96.28 265.75 98.0851 265.741 99.8922C265.713 105.846 264.329 111.7 262.953 117.493C262.775 118.239 262.533 119.073 261.854 119.431C261.551 119.567 261.226 119.646 260.895 119.665C256.954 120.128 253.004 120.591 249.036 120.652C247.487 120.676 245.94 120.638 244.392 120.54C244.126 120.536 243.862 120.49 243.61 120.403C243.268 120.239 242.975 119.99 242.757 119.679C240.611 116.974 240.484 113.235 240.498 109.782C240.531 101.34 240.833 92.9048 241.403 84.4763C241.45 83.7806 241.46 82.9357 240.959 82.3885C241.935 83.835 243.053 85.1801 244.297 86.4037V86.4037Z" fill="white"/>
<path d="M242.069 74.2595C241.714 74.9026 239.095 76.4993 238.59 77.0322C235.765 80.0099 230.609 79.8981 228.025 83.0874C227.116 84.2095 226.644 85.6194 226.297 87.021C225.805 89.0035 225.543 91.1655 226.366 93.0347C227.158 94.8334 228.825 96.0769 229.957 97.6835C231.199 99.4476 231.758 101.59 232.293 103.68C232.689 105.223 233.087 106.805 232.933 108.391C232.758 110.194 231.886 111.845 231.371 113.581C230.855 115.318 230.767 117.386 231.958 118.751C232.833 119.754 234.205 120.151 235.517 120.375C237.197 120.628 238.892 120.775 240.591 120.817C242.09 120.883 243.743 120.896 244.896 119.934C245.806 119.176 246.201 117.945 246.252 116.761C246.304 115.578 246.057 114.405 245.903 113.231C245.743 112.013 245.682 110.785 245.631 109.558C245.4 104.054 245.368 98.5457 245.536 93.034C245.621 91.8885 245.564 90.7369 245.369 89.6051C245.047 88.1307 244.25 86.813 243.585 85.4583C242.257 82.9068 241.655 80.0391 241.846 77.1687C242.047 74.2188 243.333 71.9714 242.069 74.2595Z" fill="white"/>
<path d="M256.839 74.4835C257.38 75.0396 259.219 75.2229 259.907 75.5811C260.555 75.8801 261.23 76.114 261.924 76.2793C264.434 77.0036 266.822 78.0996 269.009 79.5309C269.463 79.7967 269.864 80.1436 270.193 80.5543C270.54 81.1181 270.763 81.7488 270.849 82.405C271.186 84.0744 271.524 85.764 271.449 87.4654C271.368 89.2714 270.824 91.0205 270.285 92.7459L268.268 99.1927C266.763 104.005 265.248 108.864 264.825 113.889C264.59 116.673 264.694 119.476 265.135 122.235C265.176 122.37 265.189 122.511 265.171 122.65C265.153 122.79 265.106 122.924 265.033 123.044C264.9 123.175 264.725 123.255 264.539 123.271C263.566 123.423 262.624 122.927 261.742 122.488C259.047 121.146 256.171 120.205 253.204 119.694C254.363 118.019 255.258 116.175 255.856 114.227C256.196 112.99 256.463 111.735 256.657 110.467L257.595 105.042C257.977 103.059 258.246 101.056 258.4 99.0422C258.471 98.2865 258.427 97.5245 258.269 96.7821C258.053 96.0755 257.766 95.3927 257.413 94.7439C255.867 91.5281 255.141 87.8583 255.75 84.3424C256.016 82.8037 256.533 81.263 256.317 79.7165C256.11 78.2296 256.326 77.0739 255.944 75.6024C254.378 69.5604 255.821 73.4373 256.839 74.4835Z" fill="white"/>
<path d="M227.998 88.1717C227.294 89.6342 226.115 90.8802 225.714 92.4534C225.558 93.1886 225.491 93.94 225.515 94.6913C225.446 95.8235 225.558 96.9595 225.847 98.0563C226.071 98.75 226.435 99.3898 226.697 100.07C227.063 101.02 227.226 102.036 227.176 103.053C227.105 104.462 226.626 105.83 226.589 107.24C226.53 109.457 227.556 111.542 228.557 113.521C228.808 112.898 229.194 112.336 229.685 111.877C230.176 111.418 230.762 111.071 231.402 110.862C232.041 110.652 232.718 110.585 233.386 110.665C234.054 110.745 234.697 110.97 235.269 111.324C235.498 111.042 235.607 110.682 235.571 110.32C235.645 107.748 235.717 105.175 235.786 102.602C235.894 98.6234 235.997 94.5913 235.082 90.7176C234.668 88.9686 234.025 87.2263 232.847 85.8697C232.226 85.1554 230.119 83.2739 229.1 84.0741C228.642 84.434 228.749 85.4136 228.676 85.9096C228.567 86.6937 228.338 87.4565 227.998 88.1717V88.1717Z" fill="white"/>
<path d="M271.655 83.9571C271.938 85.0117 272.059 86.1033 272.014 87.1945C272.028 89.4184 271.999 91.6421 271.926 93.8654C271.937 95.0058 271.791 96.1422 271.493 97.2428C271.265 97.9586 270.914 98.6297 270.679 99.343C269.974 101.481 270.359 103.799 270.42 106.049C270.462 106.778 270.4 107.508 270.235 108.219C269.863 109.614 268.864 110.741 268.167 112.005C267.505 113.205 267.105 114.551 266.314 115.67C265.523 116.79 264.154 117.677 262.827 117.334C261.821 117.073 261.107 116.183 260.612 115.269C259.534 113.261 259.165 110.947 259.566 108.702C260.062 105.971 261.666 103.548 262.244 100.834C263.039 97.106 261.831 93.2592 261.867 89.4479C261.851 88.8505 261.932 88.2544 262.107 87.683C262.411 86.8124 263.062 86.1171 263.665 85.419C264.417 84.5464 265.116 83.6292 265.757 82.6723C266.188 82.0294 266.774 80.3761 267.538 80.2387C269.244 79.9317 271.231 82.639 271.655 83.9571Z" fill="white"/>
<path d="M219.147 121.114C218.203 120.877 217.231 120.774 216.259 120.807C215.237 120.864 214.24 121.137 213.332 121.609C212.424 122.081 211.627 122.741 210.994 123.545C210.361 124.348 209.907 125.278 209.661 126.271C209.415 127.264 209.383 128.298 209.567 129.304C209.803 130.394 210.188 131.446 210.712 132.431C211.478 133.985 212.396 135.536 213.814 136.532C214.668 137.079 215.588 137.517 216.552 137.835L224.019 140.648C225.117 141.062 226.216 141.475 227.325 141.859C232.899 143.786 238.709 144.941 244.596 145.293C246.387 145.46 248.193 145.369 249.958 145.021C250.385 144.965 250.776 144.754 251.056 144.428C251.199 144.18 251.283 143.902 251.302 143.617L251.761 140.4C251.864 139.952 251.851 139.486 251.722 139.044C251.512 138.504 250.984 138.164 250.481 137.875C245.572 135.055 239.84 133.5 235.708 129.63C234.735 128.719 233.921 127.275 232.739 126.656C231.399 125.954 229.82 125.554 228.435 124.907C225.407 123.493 222.429 121.869 219.147 121.114Z" fill="#FF8C4A"/>
<path opacity="0.1" d="M226.601 125.451C229.241 126.278 240.384 132.008 242.294 134.008C242.038 134.1 233.352 129.232 233.091 129.154C230.702 128.498 228.362 127.673 226.089 126.687C225.637 126.477 223.149 125.493 223.262 124.922C223.389 124.278 226.133 125.304 226.601 125.451Z" fill="#34334B"/>
<path d="M259.529 146.961C259.678 146.972 259.827 146.928 259.947 146.838C260 146.77 260.038 146.693 260.061 146.61C260.083 146.527 260.089 146.441 260.078 146.356L260.066 141.974C258.805 141.373 257.396 141.181 256.012 140.996L249.556 140.133C249.705 140.153 248.547 142.914 248.725 143.282C249.037 143.932 251.428 144.507 252.103 144.814C254.449 145.88 256.887 147.053 259.529 146.961Z" fill="#FCD2B1"/>
<path d="M239.273 141.959C238.055 142.153 236.694 142.325 235.905 143.273C234.904 144.477 235.33 146.27 235.807 147.761C235.836 147.953 235.904 148.138 236.006 148.304C236.107 148.47 236.241 148.613 236.399 148.727C236.558 148.84 236.737 148.92 236.927 148.963C237.117 149.005 237.313 149.01 237.505 148.975C238.616 149.045 239.799 149.101 240.771 148.555C241.21 148.265 241.634 147.95 242.039 147.612C242.755 147.136 243.543 146.776 244.372 146.546C245.896 146.067 247.464 145.743 249.054 145.581C249.68 145.552 250.3 145.443 250.898 145.256C251.197 145.16 251.47 144.996 251.695 144.777C251.92 144.558 252.092 144.291 252.197 143.995C252.422 143.198 251.959 142.386 251.515 141.688C251.004 140.773 250.34 139.953 249.552 139.261C248.349 138.327 247.754 139.044 246.542 139.642C244.249 140.774 241.799 141.555 239.273 141.959V141.959Z" fill="#FCD2B1"/>
<path d="M236.088 143.057L228.349 140.769C227.42 140.446 226.45 140.258 225.469 140.211C224.977 140.191 224.487 140.276 224.031 140.46C223.574 140.645 223.163 140.924 222.824 141.281C222.223 141.985 222.052 142.948 221.902 143.861L221.582 145.814C221.369 146.799 221.308 147.811 221.403 148.814C221.454 149.316 221.62 149.799 221.886 150.227C222.152 150.656 222.513 151.017 222.94 151.285C224.011 151.87 225.324 151.584 226.519 151.34C228.934 150.846 231.389 150.583 233.854 150.553C234.78 150.542 235.752 150.554 236.57 150.12C237.045 149.838 237.444 149.445 237.733 148.974C238.021 148.503 238.19 147.968 238.225 147.417C238.378 145.749 237.822 143.569 236.088 143.057Z" fill="#34334B"/>
<path d="M262.57 141.063C263.574 140.887 264.459 140.317 265.421 139.981C266.774 139.507 268.24 139.507 269.674 139.512C270.201 139.464 270.731 139.57 271.199 139.817C271.83 140.238 271.992 141.079 272.1 141.83L272.747 146.362C272.921 147.207 272.939 148.077 272.8 148.929C272.61 149.769 272.038 150.578 271.205 150.795C270.193 151.058 269.2 150.411 268.245 149.987C265.857 148.925 263.08 149.197 260.59 148.403C260.352 148.355 260.127 148.258 259.929 148.117C259.732 147.975 259.566 147.794 259.444 147.584C259.359 147.332 259.329 147.065 259.355 146.801C259.398 145.344 259.091 143.355 259.529 141.963C259.924 140.712 261.45 141.063 262.57 141.063Z" fill="#34334B"/>
<path d="M278.95 119.29C280.496 118.903 282.099 118.793 283.684 118.967C284.95 119.106 286.254 119.458 287.178 120.335C288.303 121.401 288.664 123.05 288.695 124.599C288.744 127.686 287.72 130.694 285.798 133.109C285.329 133.72 284.771 134.257 284.143 134.703C283.465 135.127 282.742 135.475 281.988 135.741L265.266 142.337C260.867 144.072 256.452 145.812 251.863 146.956C251.738 147.017 251.601 147.052 251.462 147.059C251.323 147.066 251.184 147.045 251.053 146.998C250.922 146.95 250.802 146.877 250.7 146.782C250.597 146.688 250.515 146.574 250.458 146.447C248.993 144.354 247.763 142.105 246.793 139.742C246.747 139.686 246.715 139.62 246.7 139.549C246.685 139.478 246.688 139.404 246.707 139.334C246.727 139.264 246.763 139.2 246.813 139.147C246.862 139.094 246.924 139.054 246.992 139.03L258.82 132.234C259.687 131.782 260.496 131.225 261.228 130.575C261.739 130.08 262.157 129.497 262.464 128.855C262.709 128.342 262.732 127.134 263.045 126.756C263.351 126.385 264.4 126.355 264.885 126.21C265.568 126 266.237 125.747 266.888 125.452C269.533 124.269 271.89 122.549 274.426 121.163C275.848 120.35 277.369 119.72 278.95 119.29V119.29Z" fill="#FF8C4A"/>
<path opacity="0.1" d="M272.245 124.366C270.213 125.892 267.581 127.295 265.568 128.861C264.88 129.396 253.422 135.838 253.26 136.693C255.139 137.01 267.108 128.637 268.82 127.801C270.533 126.966 272.051 125.787 273.555 124.618C273.938 124.32 275.563 123.424 274.463 123.091C273.843 122.903 272.702 124.06 272.245 124.366Z" fill="#FF8C4A"/>
<path d="M258.261 74.6311H240.423C239.699 74.6311 239.004 74.919 238.491 75.4314C237.979 75.9439 237.691 76.6389 237.691 77.3636V78.3642H237.497V80.602H237.691V82.1684H237.497V83.5111H237.691V100.023C237.691 100.747 237.979 101.442 238.491 101.955C239.004 102.467 239.699 102.755 240.423 102.755H258.261C258.986 102.755 259.681 102.467 260.193 101.955C260.706 101.442 260.994 100.747 260.994 100.023V77.3636C260.994 76.6389 260.706 75.9439 260.193 75.4314C259.681 74.919 258.986 74.6311 258.261 74.6311V74.6311Z" fill="#D3D3D3"/>
<path d="M261.097 53.5251L252.05 48.7859L239.556 50.7247L236.971 62.1415L243.405 61.8937L245.203 57.6995V61.8249L248.172 61.7107L249.895 55.0327L250.972 62.1415L261.528 61.9259L261.097 53.5251Z" fill="#34334B"/>
<path d="M230.365 117.812C230.775 118.507 231.356 119.086 232.054 119.492C232.512 119.701 233.012 119.802 233.515 119.789C234.018 119.775 234.511 119.647 234.957 119.414C235.848 118.936 236.577 118.205 237.052 117.313C238.036 115.577 238.239 113.499 238.116 111.508C237.994 109.516 237.569 107.555 237.38 105.569C237.243 104.125 237.232 102.672 237.221 101.221C237.187 100.916 237.251 100.609 237.404 100.342C237.667 100.081 238.007 99.9111 238.374 99.858C240.358 99.2684 241.676 97.4084 242.62 95.5661C243.25 94.336 243.799 92.9913 243.677 91.6144C243.556 90.2374 242.566 88.8503 241.191 88.7098C240.057 88.594 239.01 89.3141 238.192 90.1078C236.129 92.1225 234.803 94.7722 234.428 97.6312C234.248 99.0313 234.3 100.469 233.919 101.829C233.106 104.731 230.562 106.51 229.294 109.121C227.897 111.999 228.668 115.266 230.365 117.812Z" fill="#FCD2B1"/>
<path d="M267.803 106.724C267.514 107.397 267.093 108.006 266.565 108.513C266.036 109.021 265.412 109.417 264.728 109.68C263.877 110.021 262.939 110.079 262.054 109.843C261.615 109.722 261.209 109.5 260.87 109.196C260.53 108.892 260.265 108.514 260.095 108.091C259.96 107.665 259.885 107.222 259.875 106.775C259.747 104.818 259.796 102.802 260.507 100.974C260.782 100.269 261.151 99.6003 261.368 98.8755C261.58 98.0384 261.689 97.1783 261.692 96.3146L261.925 90.9747C261.964 90.5871 261.937 90.1957 261.846 89.8169C261.613 89.0443 260.891 88.5421 260.228 88.0814C258.628 86.9686 257.047 85.6701 256.271 83.8819C256.005 83.3435 255.909 82.7366 255.998 82.1424C256.217 81.0821 257.287 80.3956 258.344 80.1643C259.036 80.013 259.752 80.0034 260.448 80.136C261.143 80.2685 261.805 80.5406 262.393 80.9358C262.981 81.3309 263.483 81.841 263.868 82.4353C264.254 83.0296 264.515 83.6958 264.636 84.3937C264.741 84.9963 264.74 85.6119 264.801 86.2204C264.931 87.5113 265.341 88.7557 265.597 90.0275C266.228 93.1603 265.901 96.3987 266.526 99.531C267.048 102.15 269.017 103.859 267.803 106.724Z" fill="#FCD2B1"/>
<path d="M249.581 86.644C250.816 86.644 251.818 85.6421 251.818 84.4062C251.818 83.1703 250.816 82.1685 249.581 82.1685C248.345 82.1685 247.343 83.1703 247.343 84.4062C247.343 85.6421 248.345 86.644 249.581 86.644Z" fill="white"/>
<path d="M6.60114 164.832C10.2469 164.832 13.2023 161.876 13.2023 158.231C13.2023 154.585 10.2469 151.63 6.60114 151.63C2.95543 151.63 0 154.585 0 158.231C0 161.876 2.95543 164.832 6.60114 164.832Z" fill="#34334B"/>
<path d="M30.5288 177.828L27.2039 174.596L20.5273 176.67L21.1686 184.4L34.8965 183.763L30.6792 178.032L30.5288 177.828Z" fill="#FCD2B1"/>
<path d="M23.2572 177.761C29.1513 177.761 33.9294 172.983 33.9294 167.089C33.9294 161.195 29.1513 156.417 23.2572 156.417C17.3631 156.417 12.585 161.195 12.585 167.089C12.585 172.983 17.3631 177.761 23.2572 177.761Z" fill="#FCD2B1"/>
<path d="M89.5116 191.526C89.5116 191.526 102.623 214.057 105.743 217.44C107.227 219.104 108.808 220.68 110.477 222.158C110.477 222.158 109.01 227.024 106.674 226.85C105.342 226.77 104.037 226.448 102.82 225.901C102.82 225.901 101.777 223.198 99.9586 222.012C98.1397 220.827 83.2798 206.208 83.6271 201.535C83.9744 196.863 89.5116 191.526 89.5116 191.526Z" fill="#34334B"/>
<path d="M42.8184 223.679C42.8184 223.679 56.7977 234.53 75.7961 224.334L77.4333 223.129C77.4333 223.129 74.6703 229.345 74.4139 231.03C74.1167 232.984 66.9232 244.43 65.7493 244.979C64.5754 245.527 64.3167 246.033 64.3167 246.033L69.2983 251.516L71.1402 250.161C71.1402 250.161 78.3222 239.985 80.4228 238.124C82.5234 236.262 92.5317 217.066 92.5317 217.066C92.5317 217.066 96.3582 209.833 86.8085 209.289C77.2589 208.745 72.8645 211.348 72.8645 211.348L55.9163 214.04L42.8184 223.679Z" fill="#34334B"/>
<path d="M110.639 221.093L117.71 225.985C117.71 225.985 126.73 228.811 121.174 230.692C115.617 232.573 100.974 233.253 100.642 230.658C100.31 228.063 101.219 223.979 101.95 224.202C102.68 224.425 107.751 225.742 110.639 221.093Z" fill="#34334B"/>
<path d="M71.7646 248.48L73.0733 255.666C73.0733 255.666 76.7946 262.783 72.3266 260.575C67.8585 258.367 58.6532 249.979 60.0125 248.22C61.3718 246.462 64.372 244.555 64.6767 245.128C64.9814 245.701 67.2364 249.538 71.7646 248.48Z" fill="#34334B"/>
<path d="M58.2851 216.399C58.2851 216.399 48.7823 227.494 43.0131 224.799C37.2438 222.104 13.6405 190.888 16.3356 185.119C19.0307 179.35 19.9343 180.578 19.9343 180.578L32.1214 181.705L28.6149 176.082C28.6149 176.082 30.2521 174.877 31.8123 176.569C33.3724 178.26 39.6361 182.484 41.8181 188.45C44.0002 194.416 50.4065 194.119 50.4065 194.119L58.2851 216.399Z" fill="white"/>
<path d="M96.6587 193.522L80.186 211.007L65.4297 184.954L79.458 168.005L96.6587 193.522Z" fill="#D3D3D3"/>
<path d="M95.4154 193.333L80.5376 208.698L67.0557 185.02L79.4197 169.454L95.4154 193.333Z" fill="white"/>
<path d="M79.3791 210.34L80.1862 211.008L79.6686 212.019L56.6348 218.875L56.417 218.086L57.4649 217.002L79.3791 210.34Z" fill="#D3D3D3"/>
<path d="M80.3904 210.857L56.5381 218.315L41.998 190.841L65.4294 184.955L80.3904 210.857Z" fill="#D3D3D3"/>
<path d="M78.5948 207.131L77.5714 207.884L66.2139 188.163L67.3877 187.615L78.5948 207.131Z" fill="#D3D3D3"/>
<path d="M76.2473 208.227L66.1573 211.236L54.7031 190.956L64.6852 188.658L76.2473 208.227Z" fill="#D3D3D3"/>
<path d="M47.821 193.18L49.9101 192.589C49.9101 192.589 61.5604 191.272 61.7304 194.933C61.9005 198.594 48.3464 196.895 48.3464 196.895L46.5391 194.439L47.821 193.18Z" fill="#FCD2B1"/>
<path d="M58.0404 209.638L60.9481 208.445C60.9481 208.445 69.7252 204.509 67.2074 201.945C64.6895 199.381 56.9241 203.834 56.9241 203.834L55.4375 205.244L58.0404 209.638Z" fill="#FCD2B1"/>
<path d="M55.4491 203.973C55.4491 203.973 60.1836 208.692 59.1062 209.8C58.0289 210.908 40.363 225.487 35.9838 220.822C31.6045 216.158 10.2684 192.738 18.5706 190.73C26.8729 188.721 29.0664 193.417 29.0664 193.417L40.0264 212.168L55.4491 203.973Z" fill="white"/>
<path d="M41.2723 189.639L49.0494 192.277L48.9224 197.891L40.6973 197.004L41.2723 189.639Z" fill="white"/>
<path opacity="0.2" d="M48.2819 206.881L39.9027 211.786L30.3291 197.062L39.5703 209.191L48.2819 206.881Z" fill="#34334B"/>
<path d="M18.5732 176.701C25.59 176.701 31.2782 171.012 31.2782 163.996C31.2782 156.979 25.59 151.291 18.5732 151.291C11.5564 151.291 5.86816 156.979 5.86816 163.996C5.86816 171.012 11.5564 176.701 18.5732 176.701Z" fill="#34334B"/>
<path d="M87.2222 194.63L78.3262 181.617L82.0973 176.948L91.341 190.337L87.2222 194.63Z" fill="white"/>
<path d="M86.9711 199.863L73.4277 180.174L74.0957 179.367L87.5758 199.102L86.9711 199.863Z" fill="#D3D3D3"/>
<path d="M85.225 201.778L71.6816 182.089L72.3496 181.282L85.8297 201.018L85.225 201.778Z" fill="#D3D3D3"/>
<path d="M83.7387 203.188L70.1953 183.499L70.8633 182.692L84.3434 202.428L83.7387 203.188Z" fill="#D3D3D3"/>
<path d="M24.2002 155.514H28.1305C30.1205 155.514 32.029 156.304 33.4361 157.711C34.8432 159.118 35.6337 161.027 35.6337 163.017V163.017H24.2002V155.514Z" fill="#34334B"/>
<path d="M78.339 150.739L77.6265 150.686C77.5989 151.056 77.5791 151.429 77.5556 151.8L74.3574 151.693L77.7122 157.98L81.4799 151.932L78.27 151.824C78.2929 151.462 78.3121 151.099 78.339 150.739Z" fill="#D3D3D3"/>
<path d="M97.0967 99.4958L97.6647 99.9295C98.5168 98.8135 99.4067 97.6994 100.31 96.618L99.7614 96.1599C98.8516 97.2492 97.955 98.3715 97.0967 99.4958Z" fill="#D3D3D3"/>
<path d="M102.57 92.9448L103.098 93.4267C104.046 92.3884 105.03 91.3574 106.023 90.3617L105.517 89.8572C104.517 90.86 103.525 91.8989 102.57 92.9448Z" fill="#D3D3D3"/>
<path d="M108.597 86.9026L109.08 87.4291C110.117 86.477 111.187 85.5367 112.262 84.634L111.802 84.0869C110.72 84.9962 109.641 85.9437 108.597 86.9026Z" fill="#D3D3D3"/>
<path d="M92.2197 106.506L92.8237 106.888C93.5748 105.7 94.3635 104.511 95.1678 103.355L94.5812 102.947C93.7709 104.112 92.9764 105.309 92.2197 106.506Z" fill="#D3D3D3"/>
<path d="M115.128 81.4152L115.563 81.9819C116.68 81.1245 117.828 80.2822 118.977 79.4783L118.567 78.8928C117.41 79.7029 116.253 80.5514 115.128 81.4152Z" fill="#D3D3D3"/>
<path d="M87.9795 113.923L88.6149 114.25C89.2587 112.998 89.9394 111.744 90.6381 110.522L90.0177 110.167C89.3138 111.398 88.628 112.662 87.9795 113.923Z" fill="#D3D3D3"/>
<path d="M81.0865 134.038L80.3946 133.859C80.0415 135.23 79.7145 136.629 79.4229 138.015L80.1221 138.162C80.4117 136.786 80.7362 135.398 81.0865 134.038Z" fill="#D3D3D3"/>
<path d="M122.113 76.5252L122.497 77.1282C123.681 76.3745 124.899 75.637 126.116 74.9362L125.76 74.3169C124.533 75.0231 123.306 75.766 122.113 76.5252Z" fill="#D3D3D3"/>
<path d="M79.3422 142.326L78.637 142.21C78.4076 143.605 78.2061 145.027 78.0381 146.436L78.7478 146.52C78.9144 145.122 79.1145 143.711 79.3422 142.326Z" fill="#D3D3D3"/>
<path d="M84.4121 121.691L85.074 121.96C85.6039 120.656 86.1707 119.346 86.7586 118.065L86.1093 117.767C85.5168 119.057 84.9458 120.378 84.4121 121.691Z" fill="#D3D3D3"/>
<path d="M81.5498 129.751L82.2333 129.96C82.6454 128.611 83.0933 127.255 83.5645 125.927L82.8911 125.688C82.4164 127.025 81.965 128.392 81.5498 129.751Z" fill="#D3D3D3"/>
<path d="M170.451 62.2823C171.852 62.2338 173.279 62.2144 174.69 62.2277L174.696 61.5131C173.275 61.4998 171.837 61.5192 170.427 61.568L170.451 62.2823Z" fill="#D3D3D3"/>
<path d="M129.499 72.2726L129.828 72.907C131.076 72.2604 132.353 71.6339 133.625 71.0448L133.324 70.3965C132.043 70.99 130.756 71.6212 129.499 72.2726Z" fill="#D3D3D3"/>
<path d="M187.361 63.1734C188.755 63.3708 190.162 63.6017 191.543 63.8601L191.674 63.1577C190.283 62.8974 188.866 62.6645 187.461 62.4658L187.361 63.1734Z" fill="#D3D3D3"/>
<path d="M195.69 64.7312C197.059 65.0508 198.44 65.406 199.794 65.7868L199.988 65.0987C198.623 64.7151 197.232 64.3575 195.853 64.0354L195.69 64.7312Z" fill="#D3D3D3"/>
<path d="M203.847 67.0244C205.181 67.4645 206.525 67.9412 207.84 68.4412L208.094 67.7733C206.769 67.2695 205.415 66.7892 204.071 66.3457L203.847 67.0244Z" fill="#D3D3D3"/>
<path d="M178.927 62.3573C180.334 62.4311 181.756 62.5372 183.153 62.6723L183.222 61.9611C181.814 61.8249 180.382 61.7181 178.964 61.6438L178.927 62.3573Z" fill="#D3D3D3"/>
<path d="M161.922 62.2364L162.009 62.9458C163.402 62.7745 164.82 62.6316 166.223 62.5213L166.168 61.8088C164.753 61.92 163.325 62.0639 161.922 62.2364Z" fill="#D3D3D3"/>
<path d="M145.25 65.8115L145.461 66.494C146.804 66.0782 148.175 65.6871 149.535 65.3314L149.354 64.6401C147.984 64.9983 146.603 65.3924 145.25 65.8115Z" fill="#D3D3D3"/>
<path d="M137.228 68.6926L137.499 69.3538C138.798 68.8207 140.125 68.3103 141.443 67.8367L141.202 67.1643C139.874 67.6413 138.537 68.1556 137.228 68.6926Z" fill="#D3D3D3"/>
<path d="M153.506 63.6527L153.656 64.3516C155.028 64.0573 156.428 63.7895 157.816 63.5559L157.698 62.8511C156.299 63.0866 154.889 63.3563 153.506 63.6527Z" fill="#D3D3D3"/>
<path d="M218.503 72.8597L214.51 66.9583L213.105 69.8485C212.766 69.6968 212.428 69.5417 212.088 69.3947L211.804 70.0507C212.136 70.1942 212.463 70.3446 212.793 70.4917L211.396 73.3683L218.503 72.8597Z" fill="#D3D3D3"/>
</svg>
