<svg width="230" height="304" viewBox="0 0 230 304" fill="none" xmlns="http://www.w3.org/2000/svg">
<path d="M123.911 65.7251C140.439 65.7251 153.838 51.012 153.838 32.8625C153.838 14.7131 140.439 0 123.911 0C107.383 0 93.9844 14.7131 93.9844 32.8625C93.9844 51.012 107.383 65.7251 123.911 65.7251Z" fill="#34334B"/>
<path d="M117.148 39.012C117.148 39.012 118.787 51.6958 113.868 54.3863C108.948 57.0768 119.607 72.4511 119.607 72.4511L132.316 75.5259L140.925 64.3796L139.285 52.8489C139.285 52.8489 129.446 43.6243 133.956 35.1685L117.148 39.012Z" fill="#FCD2B1"/>
<path opacity="0.1" d="M117.148 39.012C117.148 39.012 118.787 51.6958 113.868 54.3863C108.948 57.0768 119.607 72.4511 119.607 72.4511L132.316 75.5259L140.925 64.3796L139.285 52.8489C139.285 52.8489 129.446 43.6243 133.956 35.1685L117.148 39.012Z" fill="#34334B"/>
<path d="M98.6986 176.697C98.6986 176.697 93.7792 218.592 98.6986 228.585C103.618 238.578 116.737 266.636 116.737 266.636L112.637 274.708L123.706 272.402L128.215 264.33C128.215 264.33 122.886 244.728 122.066 237.809C121.246 230.891 115.097 218.207 115.097 218.207L126.575 172.469L98.6986 176.697Z" fill="#FCD2B1"/>
<path d="M137.645 169.693C137.645 169.693 138.054 211.973 140.924 218.531L139.284 275.8L148.303 276.929C148.303 276.929 161.422 228.884 159.372 217.354C157.322 205.823 159.782 164.312 159.782 164.312L137.645 169.693Z" fill="#FCD2B1"/>
<path d="M123.911 44.2011C132.515 44.2011 139.489 37.662 139.489 29.5956C139.489 21.5291 132.515 14.99 123.911 14.99C115.308 14.99 108.333 21.5291 108.333 29.5956C108.333 37.662 115.308 44.2011 123.911 44.2011Z" fill="#FCD2B1"/>
<path d="M177 175.075C177 175.075 165.931 181.993 161.422 176.996C156.912 172 101.569 180.071 94.5994 178.534C87.6302 176.996 98.289 152.397 98.289 139.714C98.289 130.224 101.962 115.787 103.811 109.115C104.434 106.87 104.848 105.506 104.848 105.506C104.848 105.506 109.054 94.2865 108.267 89.6242C108.214 89.2708 108.111 88.9257 107.96 88.598C107.894 88.4609 107.813 88.3307 107.718 88.2098C105.754 85.7537 100.126 67.8427 97.9406 60.1517C97.5839 59.0135 97.2897 57.8589 97.0592 56.6925C97.0592 55.5394 112.227 52.0802 116.02 51.9149C119.816 51.7497 120.836 56.6925 120.836 56.6925C122.066 57.4612 127.806 70.9137 127.806 70.9137L133.135 58.2299C133.135 58.2299 132.725 55.5394 132.315 55.5394C131.905 55.5394 138.378 51.9111 138.378 51.9111C138.378 51.9111 145.024 56.3082 148.713 55.5394C152.403 54.7707 161.012 61.6891 161.012 61.6891C161.012 61.6891 145.844 97.4344 151.993 105.121C158.142 112.809 177 175.075 177 175.075Z" fill="#FF8C4A"/>
<path d="M126.986 262.793C126.986 262.793 120.016 269.327 120.016 270.095L114.277 267.789C114.277 267.789 111.817 276.245 111.407 277.398C110.998 278.551 104.028 288.929 97.0591 293.541C90.0899 298.154 97.0591 303.919 103.208 302.766C109.358 301.613 124.936 288.545 124.936 288.545C124.936 288.545 135.595 288.545 139.284 280.857C139.284 280.857 129.445 262.024 126.986 262.793Z" fill="#34334B"/>
<path d="M147.483 273.879C147.483 273.879 136.952 266.704 136.273 273.366C135.595 280.028 135.595 294.634 135.595 294.634C135.595 294.634 132.315 304.243 142.564 303.09C152.813 301.937 153.633 299.246 153.633 299.246L148.713 280.797V272.726L147.483 273.879Z" fill="#34334B"/>
<path opacity="0.1" d="M107.718 88.2099C105.754 85.7539 100.125 67.8428 97.9404 60.1519H99.9287C99.9287 60.1519 104.922 78.4742 107.96 88.5981C107.894 88.461 107.813 88.3309 107.718 88.2099Z" fill="#34334B"/>
<path opacity="0.1" d="M134.775 113.578C134.775 113.578 129.036 113.962 108.128 110.118C106.671 109.856 105.23 109.521 103.812 109.115C104.435 106.871 104.849 105.506 104.849 105.506C104.849 105.506 109.055 94.2868 108.268 89.6245C109.248 92.8531 109.977 95.0324 110.178 95.1285C110.998 95.5129 137.235 99.7408 140.925 101.278C144.614 102.816 134.775 113.578 134.775 113.578Z" fill="#34334B"/>
<path opacity="0.1" d="M142.154 63.2735C142.154 63.2735 153.462 61.9655 154.162 63.6844C154.863 65.4033 157.733 82.0157 158.962 84.1455C160.192 86.2753 160.602 99.48 155.683 99.906C150.763 100.332 144.204 95.6464 145.434 91.8127C146.664 87.9791 142.154 63.2735 142.154 63.2735Z" fill="#34334B"/>
<path d="M136.414 98.5873C136.414 98.5873 153.632 100.509 156.502 98.5873C159.372 96.6655 171.26 96.6655 168.801 102.047C166.341 107.428 145.023 107.812 145.023 107.812H132.725L136.414 98.5873Z" fill="#FCD2B1"/>
<path d="M99.929 57.4614H97.0593C97.0593 57.4614 91.32 58.6145 92.1399 75.5262C92.9598 92.4379 87.2204 103.584 108.128 107.428C129.036 111.271 134.775 110.887 134.775 110.887C134.775 110.887 144.614 100.125 140.924 98.5876C137.235 97.0502 110.998 92.8223 110.178 92.4379C109.358 92.0536 99.929 57.4614 99.929 57.4614Z" fill="#FF8C4A"/>
<path d="M153.847 65.0477C153.847 65.0477 146.664 39.781 140.924 39.781C135.185 39.781 128.626 40.9341 133.545 45.9307C138.465 50.9274 144.614 56.3084 145.024 58.9989C145.434 61.6894 147.074 65.5329 147.074 65.5329L153.847 65.0477Z" fill="#FCD2B1"/>
<path d="M143.794 63.2735C143.794 63.2735 155.102 61.9655 155.802 63.6844C156.503 65.4033 159.373 82.0157 160.603 84.1455C161.832 86.2753 162.242 99.48 157.323 99.906C152.403 100.332 145.844 95.6464 147.074 91.8127C148.304 87.9791 143.794 63.2735 143.794 63.2735Z" fill="#FF8C4A"/>
<path d="M119.812 29.5956C127.963 29.5956 134.57 23.4006 134.57 15.7587C134.57 8.11685 127.963 1.92188 119.812 1.92188C111.661 1.92188 105.054 8.11685 105.054 15.7587C105.054 23.4006 111.661 29.5956 119.812 29.5956Z" fill="#34334B"/>
<path d="M47.4251 123.288C47.4251 136.351 36.7764 147 23.7126 147C10.6487 147 0 136.351 0 123.288C0 110.224 10.6487 99.575 23.7126 99.575C25.0299 99.575 26.2375 99.6847 27.5549 99.9043L23.7126 123.288L45.6687 114.176C46.7665 116.92 47.4251 119.994 47.4251 123.288Z" fill="#4E4C82"/>
<path d="M53.5728 106.271L31.6167 115.383L35.459 92C43.6926 93.2076 50.4989 98.8064 53.5728 106.271Z" fill="#FF8C4A"/>
<path d="M209.884 207.158C202.855 207.158 197.158 212.857 197.158 219.884C197.158 225.523 200.829 230.297 205.907 231.968V239.769H207.498V242.155H212.27V239.769H213.861V231.968C218.94 230.297 222.61 225.523 222.61 219.884C222.61 212.857 216.913 207.158 209.884 207.158Z" fill="#FF8C4A"/>
<path d="M209.884 200C209.444 200 209.089 200.356 209.089 200.795V203.977C209.089 204.417 209.444 204.772 209.884 204.772C210.324 204.772 210.68 204.417 210.68 203.977V200.795C210.68 200.356 210.324 200 209.884 200Z" fill="#FF8C4A"/>
<path d="M228.973 219.089H225.792C225.352 219.089 224.997 219.445 224.997 219.884C224.997 220.324 225.352 220.68 225.792 220.68H228.973C229.413 220.68 229.769 220.324 229.769 219.884C229.769 219.445 229.413 219.089 228.973 219.089Z" fill="#FF8C4A"/>
<path d="M193.977 219.089H190.795C190.356 219.089 190 219.445 190 219.884C190 220.324 190.356 220.68 190.795 220.68H193.977C194.417 220.68 194.772 220.324 194.772 219.884C194.772 219.445 194.417 219.089 193.977 219.089Z" fill="#FF8C4A"/>
<path d="M222.82 205.824L220.571 208.073C220.26 208.384 220.26 208.887 220.571 209.198C220.726 209.353 220.93 209.431 221.133 209.431C221.337 209.431 221.541 209.353 221.696 209.198L223.945 206.948C224.256 206.637 224.256 206.135 223.945 205.824C223.634 205.513 223.131 205.514 222.82 205.824Z" fill="#FF8C4A"/>
<path d="M198.073 230.571L195.824 232.82C195.513 233.131 195.513 233.634 195.824 233.945C195.979 234.1 196.182 234.178 196.386 234.178C196.59 234.178 196.793 234.1 196.948 233.945L199.198 231.696C199.509 231.385 199.509 230.882 199.198 230.571C198.887 230.26 198.384 230.26 198.073 230.571Z" fill="#FF8C4A"/>
<path d="M221.696 230.571C221.385 230.26 220.882 230.26 220.571 230.571C220.26 230.882 220.26 231.385 220.571 231.696L222.82 233.945C222.976 234.1 223.179 234.178 223.383 234.178C223.586 234.178 223.79 234.1 223.945 233.945C224.256 233.634 224.256 233.131 223.945 232.82L221.696 230.571Z" fill="#FF8C4A"/>
<path d="M196.948 205.824C196.637 205.513 196.135 205.513 195.824 205.824C195.513 206.135 195.513 206.637 195.824 206.948L198.073 209.198C198.228 209.353 198.432 209.431 198.635 209.431C198.839 209.431 199.042 209.353 199.198 209.198C199.509 208.887 199.509 208.384 199.198 208.073L196.948 205.824Z" fill="#FF8C4A"/>
<path d="M201.135 220.68C200.695 220.68 200.34 220.324 200.34 219.884C200.34 214.621 204.621 210.34 209.884 210.34C210.324 210.34 210.68 210.695 210.68 211.135C210.68 211.575 210.324 211.931 209.884 211.931C205.499 211.931 201.931 215.499 201.931 219.884C201.931 220.324 201.575 220.68 201.135 220.68Z" fill="#FCD2B1"/>
<path d="M205.908 234.201V239.769H207.498V242.155H212.271V239.769H213.861V234.201H205.908Z" fill="#34334B"/>
</svg>
