<svg width="236" height="192" viewBox="0 0 236 192" fill="none" xmlns="http://www.w3.org/2000/svg">
<path d="M8.15059 101.333C14.9914 51.3223 76.0639 7.81228 145.037 17.7811C214.01 27.7499 232.764 51.2195 225.923 101.23C219.082 151.24 157.623 183.7 88.6502 173.731C19.6772 163.762 1.30984 151.343 8.15059 101.333Z" fill="#F5F5F5"/>
<path d="M81.3431 114.302H43.9382L44.6559 71.239H80.8089L81.3431 114.302Z" fill="white"/>
<path d="M122.654 114.302H42.0188V119.743H122.654V114.302Z" fill="#34334B"/>
<path d="M96.599 134.849H68.0571V138.02H96.599V134.849Z" fill="#34334B"/>
<path d="M42.0188 188.177L76.753 116.505L80.3917 118.275L46.492 188.194L42.0188 188.177Z" fill="#34334B"/>
<path d="M122.637 188.177L87.9027 116.505L84.2808 118.275L118.164 188.194L122.637 188.177Z" fill="#34334B"/>
<path d="M62.9327 105.806C70.7774 105.806 77.1368 99.9552 77.1368 92.7373C77.1368 85.5194 70.7774 79.6682 62.9327 79.6682C55.0879 79.6682 48.7285 85.5194 48.7285 92.7373C48.7285 99.9552 55.0879 105.806 62.9327 105.806Z" fill="#4E4C82"/>
<path d="M62.9326 92.7372H77.1368C77.1368 95.4913 76.1854 98.1786 74.4328 100.398C72.6802 102.635 70.1933 104.288 67.3558 105.139L62.9326 92.7372Z" fill="#CCE9FF"/>
<path d="M62.9327 92.7373L53.4521 83.0064C56.056 80.8699 59.4276 79.6682 62.9327 79.6682C70.7275 79.6682 77.1369 85.5601 77.1369 92.7373C77.1369 92.754 77.1369 92.7874 77.1369 92.8041L62.9327 92.7373Z" fill="#34334B"/>
<path d="M117.179 114.302H85.5825L86.1834 91.9025H116.711L117.179 114.302Z" fill="white"/>
<path d="M97.6 98.4789H94.1616V111.632H97.6V98.4789Z" fill="#34334B"/>
<path d="M103.492 100.048H100.054V111.648H103.492V100.048Z" fill="#34334B"/>
<path d="M109.367 96.8098H105.929V111.631H109.367V96.8098Z" fill="#FF8C4A"/>
<path d="M91.6248 95.3576H91.2576V111.815H91.6248V95.3576Z" fill="#34334B"/>
<path d="M114.208 111.632H91.2576V111.915H114.208V111.632Z" fill="#34334B"/>
<path d="M48.161 107.142H46.9092V108.393H48.161V107.142Z" fill="#34334B"/>
<path d="M53.686 107.576H48.8623V107.976H53.686V107.576Z" fill="#34334B"/>
<path d="M53.686 109.729H48.8623V110.13H53.686V109.729Z" fill="#34334B"/>
<path d="M53.686 111.899H48.8623V112.299H53.686V111.899Z" fill="#34334B"/>
<path d="M48.161 109.311H46.9092V110.563H48.161V109.311Z" fill="#4E4C82"/>
<path d="M48.161 111.465H46.9092V112.717H48.161V111.465Z" fill="#CCE9FF"/>
<path d="M138.477 49.407L116.678 42.5637C120.267 31.0969 132.335 24.3203 144.002 27.2245C156.169 30.2456 163.68 42.7473 160.659 54.9151C157.638 67.083 145.137 74.594 132.969 71.5729C130.448 70.9553 128.062 69.9038 125.892 68.4683L138.477 49.407Z" fill="#FF8C4A"/>
<path d="M132.802 51.6436L119.966 71.239C115.727 68.4683 112.506 64.3789 110.77 59.622C109.05 54.8483 108.917 49.6574 110.402 44.8002L132.802 51.6436Z" fill="#FF8C4A"/>
<path d="M146.756 105.34L142.55 102.235L175.565 57.4698C176.216 56.5852 177.467 56.3849 178.369 57.0525L179.354 57.7869C180.238 58.4379 180.438 59.6897 179.771 60.591L146.756 105.34Z" fill="#D3D3D3"/>
<path d="M148.876 107.359L144.853 104.004L180.489 61.2911C181.19 60.4399 182.458 60.323 183.309 61.0407L184.244 61.8252C185.095 62.5262 185.212 63.7948 184.494 64.646L148.876 107.359Z" fill="white"/>
<path d="M179.901 59.4526C180.13 59.1063 179.541 58.3153 178.587 57.6859C177.633 57.0564 176.675 56.8268 176.446 57.173C176.218 57.5193 176.806 58.3103 177.76 58.9397C178.714 59.5692 179.673 59.7988 179.901 59.4526Z" fill="white"/>
<path d="M184.664 63.5627C184.893 63.2164 184.304 62.4254 183.35 61.796C182.396 61.1665 181.437 60.9369 181.209 61.2831C180.981 61.6294 181.569 62.4204 182.523 63.0499C183.477 63.6793 184.436 63.9089 184.664 63.5627Z" fill="white"/>
<path d="M161.26 179.732L161.811 183.153C162.028 184.522 161.227 185.841 159.908 186.275L154.033 188.211H167.736L166.084 179.732H161.26Z" fill="#FCD2B1"/>
<path d="M167.386 186.274L160.609 185.924C160.609 185.924 152.08 187.242 152.03 189.095H168.938L167.386 186.274Z" fill="#34334B"/>
<path d="M124.874 179.732L123.471 184.021C123.171 184.956 122.42 185.69 121.485 186.008L114.825 188.211H128.529L130.465 179.732H124.874Z" fill="#FCD2B1"/>
<path d="M128.796 186.275L121.385 185.924C121.385 185.924 112.856 187.243 112.806 189.095H129.714L128.796 186.275Z" fill="#34334B"/>
<path d="M159.424 100.599C159.424 100.599 162.762 102.819 163.731 111.331C164.699 119.844 163.347 126.019 164.114 130.993C164.882 135.967 166.384 181.167 166.384 181.167H159.107L146.973 100.649L159.424 100.599Z" fill="#FF8C4A"/>
<path d="M143.584 99.6808H156.47C156.47 99.6808 158.056 109.278 155.268 114.886C152.464 120.495 150.962 121.997 150.161 125.252C149.36 128.506 129.964 181.167 129.964 181.167H123.755L143.584 99.6808Z" fill="#FF8C4A"/>
<path d="M162.161 72.6411C162.161 72.6411 175.114 91.1014 173.628 96.0921C172.143 101.083 157.271 95.558 157.271 95.558V92.4534L167.453 93.7386L159.725 80.5193L162.161 72.6411Z" fill="#FCD2B1"/>
<path d="M140.113 82.2887C140.88 78.3163 145.487 72.3742 145.487 72.3742H163.731L158.924 97.3942C158.606 98.9966 162.579 100.666 158.289 100.666H143.401C142.666 100.666 142.082 100.082 142.082 99.3471V90.3339C142.082 89.1321 141.748 87.9303 141.064 86.9289C139.929 85.2097 139.896 83.4071 140.113 82.2887Z" fill="#4E4C82"/>
<path d="M148.425 58.7541L146.789 62.6264C146.789 62.6264 145.821 65.4973 146.388 67.1831C147.039 69.1193 149.944 69.1026 149.944 69.1026L149.076 73.8262H156.47V58.8876L148.425 58.7541Z" fill="#FFE3CA"/>
<path d="M148.842 60.3398C147.507 59.4384 147.256 57.6024 148.291 56.3673C149.743 54.6481 152.247 52.5784 155.802 52.8287C159.307 53.0791 162.679 55.2323 162.763 60.2563C162.813 63.6112 163.647 65.9313 166.017 70.1375C168.237 74.0933 164.682 78.5498 165.183 82.2052C165.683 85.8605 166.284 85.7938 166.384 88.9651C166.768 101.433 154.751 100.999 148.642 100.565C142.65 100.131 140.43 87.7633 144.552 83.0063C148.675 78.2494 147.29 72.808 147.707 70.5714C148.709 65.1468 151.279 64.0786 150.878 61.3579C150.127 61.1242 149.426 60.7404 148.842 60.3398Z" fill="#34334B"/>
<path d="M112.99 53.2628C112.956 49.4906 116.027 50.9761 116.194 51.7105C116.228 51.8607 116.595 51.9609 116.745 53.0625C116.895 54.1474 117.696 55.6329 117.847 55.249C118.147 54.4812 118.514 53.3629 118.781 53.6133C119.616 54.4478 119.149 56.0168 118.731 56.9849C118.498 57.5357 118.581 58.17 118.948 58.6373L129.948 72.3741H145.27C148.425 72.9917 146.873 79.568 143.084 79.4178C139.762 79.2843 131.166 78.9171 127.411 76.5636C123.655 74.1935 115.51 57.8362 115.51 57.8362C113.841 56.5676 112.99 53.5632 112.99 53.2628Z" fill="#FCD2B1"/>
</svg>
