<svg width="237" height="192" viewBox="0 0 237 192" fill="none" xmlns="http://www.w3.org/2000/svg">
<path d="M8.90259 101.5C15.7434 51.4898 76.8159 7.97976 145.789 17.9486C214.762 27.9174 233.516 51.387 226.675 101.397C219.834 151.407 158.375 183.867 89.4022 173.898C20.4292 163.93 2.06184 151.51 8.90259 101.5Z" fill="#D3D3D3" fill-opacity="0.23"/>
<path opacity="0.11" d="M108.484 192C147.201 192 178.587 190.065 178.587 187.677C178.587 185.289 147.201 183.354 108.484 183.354C69.7672 183.354 38.3811 185.289 38.3811 187.677C38.3811 190.065 69.7672 192 108.484 192Z" fill="#4E4C82"/>
<path d="M82.0952 114.47H44.6904L45.4081 71.4065H81.5611L82.0952 114.47Z" fill="white"/>
<path d="M123.406 114.47H42.7709V119.911H123.406V114.47Z" fill="#34334B"/>
<path d="M97.351 135.016H68.8091V138.188H97.351V135.016Z" fill="#34334B"/>
<path d="M42.771 188.345L77.5052 116.673L81.1439 118.442L47.2442 188.361L42.771 188.345Z" fill="#34334B"/>
<path d="M123.389 188.345L88.6549 116.673L85.0329 118.442L118.916 188.361L123.389 188.345Z" fill="#34334B"/>
<path d="M63.6849 105.974C71.5297 105.974 77.8891 100.123 77.8891 92.9047C77.8891 85.6868 71.5297 79.8356 63.6849 79.8356C55.8402 79.8356 49.4808 85.6868 49.4808 92.9047C49.4808 100.123 55.8402 105.974 63.6849 105.974Z" fill="#4E4C82"/>
<path d="M63.6849 92.9047H77.8891C77.8891 95.6587 76.9377 98.346 75.1851 100.566C73.4325 102.803 70.9456 104.455 68.1081 105.306L63.6849 92.9047Z" fill="#CCE9FF"/>
<path d="M63.6849 92.9047L54.2044 83.1738C56.8082 81.0373 60.1798 79.8356 63.6849 79.8356C71.4797 79.8356 77.8891 85.7275 77.8891 92.9047C77.8891 92.9214 77.8891 92.9548 77.8891 92.9715L63.6849 92.9047Z" fill="#34334B"/>
<path d="M117.931 114.47H86.3348L86.9357 92.0701H117.464L117.931 114.47Z" fill="white"/>
<path d="M98.3524 98.6464H94.914V111.799H98.3524V98.6464Z" fill="#34334B"/>
<path d="M104.244 100.215H100.806V111.816H104.244V100.215Z" fill="#34334B"/>
<path d="M110.12 96.9773H106.681V111.799H110.12V96.9773Z" fill="#FF8C4A"/>
<path d="M92.377 95.5251H92.0098V111.983H92.377V95.5251Z" fill="#34334B"/>
<path d="M114.96 111.799H92.0098V112.083H114.96V111.799Z" fill="#34334B"/>
<path d="M48.9133 107.309H47.6615V108.561H48.9133V107.309Z" fill="#34334B"/>
<path d="M54.438 107.743H49.6143V108.144H54.438V107.743Z" fill="#34334B"/>
<path d="M54.438 109.896H49.6143V110.297H54.438V109.896Z" fill="#34334B"/>
<path d="M54.438 112.066H49.6143V112.467H54.438V112.066Z" fill="#34334B"/>
<path d="M48.9133 109.479H47.6615V110.731H48.9133V109.479Z" fill="#4E4C82"/>
<path d="M48.9133 111.632H47.6615V112.884H48.9133V111.632Z" fill="#CCE9FF"/>
<path d="M139.229 49.5746L117.43 42.7312C121.019 31.2644 133.087 24.4878 144.754 27.3921C156.922 30.4132 164.433 42.9148 161.412 55.0827C158.39 67.2505 145.889 74.7615 133.721 71.7404C131.201 71.1228 128.814 70.0713 126.644 68.6359L139.229 49.5746Z" fill="#FF8C4A"/>
<path d="M133.554 51.8111L120.719 71.4065C116.479 68.6358 113.258 64.5465 111.522 59.7895C109.803 55.0158 109.669 49.8249 111.155 44.9678L133.554 51.8111Z" fill="#FF8C4A"/>
<path d="M147.508 105.507L143.302 102.403L176.317 57.6372C176.968 56.7526 178.22 56.5523 179.121 57.2199L180.106 57.9543C180.99 58.6053 181.191 59.8571 180.523 60.7585L147.508 105.507Z" fill="#D3D3D3"/>
<path d="M149.628 107.526L145.605 104.171L181.241 61.4586C181.942 60.6074 183.21 60.4906 184.061 61.2083L184.996 61.9928C185.847 62.6938 185.964 63.9623 185.247 64.8136L149.628 107.526Z" fill="white"/>
<path d="M180.653 59.6202C180.882 59.2739 180.293 58.4829 179.339 57.8534C178.385 57.2239 177.427 56.9943 177.198 57.3406C176.97 57.6868 177.558 58.4778 178.512 59.1073C179.466 59.7368 180.425 59.9664 180.653 59.6202Z" fill="white"/>
<path d="M185.416 63.7301C185.645 63.3839 185.056 62.5929 184.102 61.9634C183.148 61.3339 182.19 61.1043 181.961 61.4506C181.733 61.7968 182.321 62.5878 183.275 63.2173C184.229 63.8468 185.188 64.0764 185.416 63.7301Z" fill="white"/>
<path d="M162.012 179.899L162.563 183.321C162.78 184.689 161.979 186.008 160.66 186.442L154.785 188.378H168.489L166.836 179.899H162.012Z" fill="#FCD2B1"/>
<path d="M168.138 186.442L161.361 186.091C161.361 186.091 152.832 187.41 152.782 189.263H169.69L168.138 186.442Z" fill="#34334B"/>
<path d="M125.626 179.899L124.224 184.189C123.923 185.123 123.172 185.858 122.237 186.175L115.578 188.378H129.281L131.217 179.899H125.626Z" fill="#FCD2B1"/>
<path d="M129.548 186.442L122.137 186.091C122.137 186.091 113.608 187.41 113.558 189.263H130.466L129.548 186.442Z" fill="#34334B"/>
<path d="M160.176 100.766C160.176 100.766 163.515 102.986 164.483 111.499C165.451 120.011 164.099 126.187 164.867 131.161C165.634 136.135 167.137 181.334 167.137 181.334H159.859L147.725 100.816L160.176 100.766Z" fill="#FF8C4A"/>
<path d="M144.337 99.8483H157.222C157.222 99.8483 158.808 109.446 156.02 115.054C153.216 120.662 151.714 122.164 150.913 125.419C150.112 128.674 130.717 181.334 130.717 181.334H124.507L144.337 99.8483Z" fill="#FF8C4A"/>
<path d="M162.914 72.8086C162.914 72.8086 175.866 91.269 174.381 96.2596C172.895 101.25 158.023 95.7255 158.023 95.7255V92.621L168.205 93.9062L160.477 80.6868L162.914 72.8086Z" fill="#FCD2B1"/>
<path d="M140.865 82.4562C141.633 78.4837 146.239 72.5416 146.239 72.5416H164.483L159.676 97.5616C159.359 99.164 163.331 100.833 159.041 100.833H144.153C143.419 100.833 142.834 100.249 142.834 99.5145V90.5013C142.834 89.2995 142.5 88.0978 141.816 87.0963C140.681 85.3771 140.648 83.5745 140.865 82.4562Z" fill="#4E4C82"/>
<path d="M149.177 58.9215L147.541 62.7938C147.541 62.7938 146.573 65.6647 147.141 67.3505C147.792 69.2867 150.696 69.27 150.696 69.27L149.828 73.9936H157.222V59.055L149.177 58.9215Z" fill="#FFE3CA"/>
<path d="M149.594 60.5073C148.259 59.606 148.009 57.77 149.043 56.5348C150.496 54.8156 152.999 52.7459 156.554 52.9963C160.06 53.2467 163.431 55.3998 163.515 60.4238C163.565 63.7788 164.399 66.0988 166.769 70.305C168.989 74.2608 165.434 78.7173 165.935 82.3727C166.436 86.0281 167.036 85.9613 167.137 89.1326C167.52 101.601 155.503 101.167 149.394 100.733C143.402 100.299 141.182 87.9308 145.305 83.1739C149.427 78.4169 148.042 72.9756 148.459 70.739C149.461 65.3144 152.031 64.2461 151.631 61.5255C150.879 61.2918 150.178 60.9079 149.594 60.5073Z" fill="#34334B"/>
<path d="M113.742 53.4302C113.708 49.658 116.779 51.1435 116.946 51.8779C116.98 52.0281 117.347 52.1283 117.497 53.2299C117.647 54.3148 118.449 55.8003 118.599 55.4164C118.899 54.6487 119.266 53.5303 119.533 53.7807C120.368 54.6153 119.901 56.1842 119.483 57.1523C119.25 57.7031 119.333 58.3374 119.7 58.8047L130.7 72.5415H146.022C149.177 73.1591 147.625 79.7354 143.836 79.5852C140.514 79.4517 131.918 79.0845 128.163 76.731C124.407 74.3609 116.262 58.0036 116.262 58.0036C114.593 56.735 113.742 53.7306 113.742 53.4302Z" fill="#FCD2B1"/>
</svg>
