<svg width="66" height="57" viewBox="0 0 66 57" fill="none" xmlns="http://www.w3.org/2000/svg">
<path d="M49.3633 0H16.4544L0 28.4998L16.4544 57H49.3633L65.8178 28.4998L49.3633 0Z" fill="#4E4C82" fill-opacity="0.5"/>
<path d="M18.3014 53.8009H47.5165L62.1241 28.4999L47.5165 3.19888H18.3014L3.69385 28.4999L18.3014 53.8009Z" fill="white"/>
<path d="M41.4971 20.4169C41.4971 25.1601 32.9088 35.5726 32.9088 35.5726C32.9088 35.5726 24.3206 25.1601 24.3206 20.4169C24.3198 19.2886 24.5414 18.1712 24.9727 17.1286C25.404 16.086 26.0365 15.1386 26.834 14.3405C27.6316 13.5424 28.5786 12.9093 29.6209 12.4773C30.6633 12.0454 31.7805 11.8231 32.9088 11.8231C34.0371 11.8231 35.1543 12.0454 36.1967 12.4773C37.239 12.9093 38.186 13.5424 38.9836 14.3405C39.7812 15.1386 40.4137 16.086 40.8449 17.1286C41.2762 18.1712 41.4978 19.2886 41.4971 20.4169Z" fill="#4E4C82" fill-opacity="0.5"/>
<path d="M32.9089 23.7908C34.7723 23.7908 36.2828 22.2802 36.2828 20.4168C36.2828 18.5534 34.7723 17.0428 32.9089 17.0428C31.0455 17.0428 29.5349 18.5534 29.5349 20.4168C29.5349 22.2802 31.0455 23.7908 32.9089 23.7908Z" fill="white"/>
<path d="M32.6022 45.1712C34.4656 45.1712 35.9762 43.6606 35.9762 41.7972C35.9762 39.9338 34.4656 38.4233 32.6022 38.4233C30.7388 38.4233 29.2283 39.9338 29.2283 41.7972C29.2283 43.6606 30.7388 45.1712 32.6022 45.1712Z" fill="#4E4C82" fill-opacity="0.5"/>
</svg>
