<svg width="223" height="54" viewBox="0 0 223 54" fill="none" xmlns="http://www.w3.org/2000/svg">
<path d="M48.4 37.32C45.2267 37.32 42.8133 36.4 41.16 34.56C39.5067 32.6933 38.68 30.0133 38.68 26.52C38.68 23.0267 39.5067 20.36 41.16 18.52C42.8133 16.68 45.2267 15.76 48.4 15.76C51.5733 15.76 53.9733 16.68 55.6 18.52C57.2533 20.36 58.08 23.0267 58.08 26.52C58.08 30.0133 57.2533 32.6933 55.6 34.56C53.9733 36.4 51.5733 37.32 48.4 37.32ZM48.4 32.64C49.6533 32.64 50.5733 32.1333 51.16 31.12C51.7733 30.08 52.08 28.5467 52.08 26.52C52.08 24.4933 51.7733 22.9733 51.16 21.96C50.5733 20.9467 49.6533 20.44 48.4 20.44C47.1467 20.44 46.2133 20.9467 45.6 21.96C44.9867 22.9733 44.68 24.4933 44.68 26.52C44.68 30.6 45.92 32.64 48.4 32.64ZM85.2134 15.76C87.2134 15.76 88.6801 16.2933 89.6134 17.36C90.5734 18.4 91.0534 20.0267 91.0534 22.24V35.8C91.0534 36.6533 90.2534 37.08 88.6534 37.08H87.5334C85.9334 37.08 85.1334 36.6533 85.1334 35.8V23.12C85.1334 22.2933 84.9468 21.68 84.5734 21.28C84.2268 20.8533 83.6268 20.64 82.7734 20.64C81.5468 20.64 80.4934 21.4 79.6134 22.92V35.8C79.6134 36.6533 78.8134 37.08 77.2134 37.08H76.0934C74.4934 37.08 73.6934 36.6533 73.6934 35.8V23.12C73.6934 22.2933 73.5068 21.68 73.1334 21.28C72.7868 20.8533 72.1868 20.64 71.3334 20.64C70.6134 20.64 69.9868 20.88 69.4534 21.36C68.9201 21.8133 68.4934 22.3467 68.1734 22.96V35.8C68.1734 36.6533 67.3734 37.08 65.7734 37.08H64.6534C63.0534 37.08 62.2534 36.6533 62.2534 35.8V23.12C62.2534 21.9467 62.2134 21.0533 62.1334 20.44C62.0801 19.8 62.0001 19.0933 61.8934 18.32C61.8134 17.9467 61.7734 17.6667 61.7734 17.48C61.7734 17.0533 62.3068 16.7333 63.3734 16.52C64.4668 16.3067 65.4268 16.2 66.2534 16.2C66.7334 16.2 67.0668 16.3867 67.2534 16.76C67.4401 17.1067 67.5734 17.4933 67.6534 17.92C67.7601 18.3467 67.8268 18.64 67.8534 18.8C68.4934 17.9467 69.3334 17.2267 70.3734 16.64C71.4401 16.0533 72.5734 15.76 73.7734 15.76C75.1601 15.76 76.2801 16.0133 77.1334 16.52C78.0134 17 78.6534 17.76 79.0534 18.8C79.7201 17.9467 80.6001 17.2267 81.6934 16.64C82.7868 16.0533 83.9601 15.76 85.2134 15.76ZM98.8797 45.24C97.2797 45.24 96.4797 44.8133 96.4797 43.96V23.12C96.4797 21.9467 96.4397 21.0533 96.3597 20.44C96.3064 19.8 96.2264 19.0933 96.1197 18.32C96.0397 17.9467 95.9997 17.6667 95.9997 17.48C95.9997 17.0533 96.533 16.7333 97.5997 16.52C98.693 16.3067 99.653 16.2 100.48 16.2C100.96 16.2 101.293 16.3867 101.48 16.76C101.666 17.1067 101.8 17.4933 101.88 17.92C101.986 18.32 102.053 18.6 102.08 18.76C102.56 17.88 103.266 17.16 104.2 16.6C105.16 16.04 106.24 15.76 107.44 15.76C108.88 15.76 110.16 16.1867 111.28 17.04C112.426 17.8667 113.32 19.0933 113.96 20.72C114.6 22.3467 114.92 24.2933 114.92 26.56C114.92 29.8667 114.173 32.4933 112.68 34.44C111.213 36.36 109.146 37.32 106.48 37.32C104.906 37.32 103.546 36.9067 102.4 36.08V43.96C102.4 44.8133 101.6 45.24 99.9997 45.24H98.8797ZM105.2 32.64C107.68 32.64 108.92 30.6133 108.92 26.56C108.92 22.5867 107.84 20.6 105.68 20.6C104.4 20.6 103.306 21.3867 102.4 22.96V31.88C103.306 32.3867 104.24 32.64 105.2 32.64ZM121.369 37.08C119.769 37.08 118.969 36.6533 118.969 35.8V17.28C118.969 16.4267 119.769 16 121.369 16H122.489C124.089 16 124.889 16.4267 124.889 17.28V35.8C124.889 36.6533 124.089 37.08 122.489 37.08H121.369ZM121.929 14.04C119.956 14.04 118.969 13.6133 118.969 12.76V9.64C118.969 8.78667 119.956 8.36 121.929 8.36C123.903 8.36 124.889 8.78667 124.889 9.64V12.76C124.889 13.6133 123.903 14.04 121.929 14.04ZM135.555 37.32C131.662 37.32 129.715 35.16 129.715 30.84V8.12C129.715 7.26667 130.515 6.84 132.115 6.84H133.235C134.835 6.84 135.635 7.26667 135.635 8.12V30.92C135.635 31.5333 135.742 31.9733 135.955 32.24C136.195 32.5067 136.569 32.64 137.075 32.64C137.209 32.64 137.382 32.6133 137.595 32.56C137.835 32.5067 138.022 32.48 138.155 32.48C138.395 32.48 138.609 32.68 138.795 33.08C138.982 33.48 139.129 33.92 139.235 34.4C139.342 34.88 139.395 35.2 139.395 35.36C139.395 36.6667 138.115 37.32 135.555 37.32ZM146.67 37.32C144.617 37.32 143.11 36.7867 142.15 35.72C141.217 34.6533 140.75 33.24 140.75 31.48C140.75 29.3467 141.524 27.5733 143.07 26.16C144.644 24.7467 147.697 24.04 152.23 24.04V22.72C152.23 21.9467 151.977 21.3733 151.47 21C150.99 20.6267 150.204 20.44 149.11 20.44C148.204 20.44 147.404 20.5333 146.71 20.72C146.044 20.9067 145.444 21.12 144.91 21.36C144.377 21.6 144.07 21.72 143.99 21.72C143.724 21.72 143.43 21.52 143.11 21.12C142.79 20.72 142.51 20.2667 142.27 19.76C142.03 19.2267 141.91 18.8133 141.91 18.52C141.91 18.0667 142.244 17.6267 142.91 17.2C143.577 16.7733 144.497 16.4267 145.67 16.16C146.844 15.8933 148.137 15.76 149.55 15.76C152.564 15.76 154.75 16.36 156.11 17.56C157.47 18.7333 158.15 20.36 158.15 22.44V29.96C158.15 31.1867 158.177 32.12 158.23 32.76C158.31 33.4 158.404 34.1067 158.51 34.88C158.59 35.2267 158.63 35.52 158.63 35.76C158.63 36.1867 158.084 36.5067 156.99 36.72C155.924 36.9333 154.977 37.04 154.15 37.04C153.67 37.04 153.337 36.8533 153.15 36.48C152.964 36.08 152.817 35.6533 152.71 35.2C152.63 34.7467 152.577 34.44 152.55 34.28C152.39 34.5733 152.07 34.96 151.59 35.44C151.11 35.8933 150.444 36.32 149.59 36.72C148.737 37.12 147.764 37.32 146.67 37.32ZM148.63 32.64C149.377 32.64 150.084 32.4 150.75 31.92C151.417 31.44 151.91 30.84 152.23 30.12V27.92C148.497 27.92 146.63 28.9067 146.63 30.88C146.63 31.4133 146.804 31.84 147.15 32.16C147.497 32.48 147.99 32.64 148.63 32.64ZM148.51 14.12C147.87 14.12 147.43 14.0667 147.19 13.96C146.977 13.8533 146.87 13.7067 146.87 13.52C146.87 13.3867 146.937 13.2133 147.07 13C147.204 12.76 147.31 12.56 147.39 12.4L148.99 9.52C149.257 9.01333 149.59 8.68 149.99 8.52C150.39 8.36 151.19 8.28 152.39 8.28C153.19 8.28 153.737 8.33333 154.03 8.44C154.35 8.52 154.51 8.69333 154.51 8.96C154.51 9.33333 154.257 9.81333 153.75 10.4L151.47 12.92C151.07 13.3467 150.63 13.6533 150.15 13.84C149.67 14.0267 149.124 14.12 148.51 14.12ZM169.787 37.32C165.894 37.32 163.947 35.16 163.947 30.84V20.76H163.307C162.881 20.76 162.574 20.6 162.387 20.28C162.201 19.96 162.107 19.4533 162.107 18.76V18.08C162.107 17.3867 162.201 16.88 162.387 16.56C162.574 16.24 162.881 16.08 163.307 16.08H163.947L164.467 12.28C164.601 11.4267 165.321 11 166.627 11H167.867C169.201 11 169.867 11.4267 169.867 12.28V16.08H171.827C172.254 16.08 172.561 16.24 172.747 16.56C172.934 16.88 173.027 17.3867 173.027 18.08V18.76C173.027 19.4533 172.934 19.96 172.747 20.28C172.561 20.6 172.254 20.76 171.827 20.76H169.867V30.92C169.867 31.5333 169.974 31.9733 170.187 32.24C170.427 32.5067 170.801 32.64 171.307 32.64C171.441 32.64 171.614 32.6133 171.827 32.56C172.067 32.5067 172.254 32.48 172.387 32.48C172.627 32.48 172.841 32.68 173.027 33.08C173.214 33.48 173.361 33.92 173.467 34.4C173.574 34.88 173.627 35.2 173.627 35.36C173.627 36.6667 172.347 37.32 169.787 37.32ZM185.939 37.32C182.766 37.32 180.352 36.4 178.699 34.56C177.046 32.6933 176.219 30.0133 176.219 26.52C176.219 23.0267 177.046 20.36 178.699 18.52C180.352 16.68 182.766 15.76 185.939 15.76C189.112 15.76 191.512 16.68 193.139 18.52C194.792 20.36 195.619 23.0267 195.619 26.52C195.619 30.0133 194.792 32.6933 193.139 34.56C191.512 36.4 189.112 37.32 185.939 37.32ZM185.939 32.64C187.192 32.64 188.112 32.1333 188.699 31.12C189.312 30.08 189.619 28.5467 189.619 26.52C189.619 24.4933 189.312 22.9733 188.699 21.96C188.112 20.9467 187.192 20.44 185.939 20.44C184.686 20.44 183.752 20.9467 183.139 21.96C182.526 22.9733 182.219 24.4933 182.219 26.52C182.219 30.6 183.459 32.64 185.939 32.64ZM202.193 37.08C200.593 37.08 199.793 36.6533 199.793 35.8V23.12C199.793 21.9467 199.753 21.0533 199.673 20.44C199.619 19.8 199.539 19.0933 199.433 18.32C199.353 17.9467 199.313 17.6667 199.313 17.48C199.313 17.0533 199.846 16.7333 200.913 16.52C202.006 16.3067 202.966 16.2 203.793 16.2C204.273 16.2 204.606 16.3867 204.793 16.76C204.979 17.1067 205.113 17.4933 205.193 17.92C205.299 18.3467 205.366 18.64 205.393 18.8C205.899 17.8667 206.486 17.1333 207.153 16.6C207.846 16.04 208.713 15.76 209.753 15.76C210.659 15.76 211.259 15.9467 211.553 16.32C211.873 16.6667 212.033 17.2 212.033 17.92C212.033 18.48 211.913 19.1867 211.673 20.04C211.433 20.8667 211.139 21.28 210.793 21.28C210.633 21.28 210.353 21.2267 209.953 21.12C209.553 21.0133 209.206 20.96 208.913 20.96C208.193 20.96 207.553 21.1733 206.993 21.6C206.459 22 206.033 22.4533 205.713 22.96V35.8C205.713 36.6533 204.913 37.08 203.313 37.08H202.193Z" fill="#4E4C82" fill-opacity="0.5"/>
<path d="M28.0853 12.1972C25.612 10.7743 22.6756 10.8026 20.2301 12.2716L8.42408 19.3639C7.54905 19.8896 6.80528 20.5636 6.21359 21.3434V14.1406C6.21359 12.406 4.82268 11 3.1068 11C1.39091 11 0 12.406 0 14.1406V37.852C0 39.5866 1.39091 40.9926 3.1068 40.9926C4.82268 40.9926 6.21359 39.5866 6.21359 37.852V30.8063C6.80544 31.5861 7.5492 32.2601 8.42408 32.7858L20.2301 39.878H20.2302C21.4746 40.6256 22.846 41 24.219 41C25.5441 41 26.8707 40.6511 28.0854 39.9525C30.5365 38.5425 32 36.006 32 33.1671V18.9826C31.9998 16.1437 30.5364 13.6072 28.0853 12.1972V12.1972ZM25.7863 33.1671C25.7863 33.9337 25.3014 34.327 25.0125 34.4932C24.7691 34.6329 24.1257 34.9118 23.4043 34.4783H23.4044L11.5984 27.386C10.947 26.9947 10.8497 26.3964 10.8497 26.0747C10.8497 25.7529 10.947 25.1548 11.5984 24.7633L23.4043 17.6711C24.1258 17.2375 24.7689 17.5162 25.0125 17.6562C25.3014 17.8225 25.7863 18.2157 25.7863 18.9823V33.1671Z" fill="#4E4C82"/>
</svg>
