<svg width="537" height="370" viewBox="0 0 537 370" fill="none" xmlns="http://www.w3.org/2000/svg">
<path opacity="0.1" d="M88.3077 139.931L101.152 111.743L118.937 152.788L103.623 123.117L88.3077 139.931Z" fill="black"/>
<path opacity="0.1" d="M213.05 320.352C208.12 320.129 203.184 320.019 198.244 320.02L141.189 193.443L213.05 320.352Z" fill="black"/>
<path opacity="0.1" d="M168.543 155.869L182.667 144.876L246.891 219.054L181.679 155.755L168.543 155.869Z" fill="black"/>
<path opacity="0.1" d="M360.414 318.982C356.051 321.298 351.516 323.273 346.848 324.887L246.99 210.286L360.414 318.982Z" fill="black"/>
<path d="M414.273 224.731C411.669 247.059 406.26 264.985 398.835 279.282C388.954 298.331 372.053 306.006 356.956 314.037C352.593 316.353 348.057 318.327 343.39 319.941C315.917 329.486 285.168 326.954 261.015 321.915C244.075 318.377 226.879 316.201 209.592 315.407C204.661 315.184 199.726 315.074 194.786 315.075C187.168 315.085 50.0006 317.691 16.6043 250.011C8.35894 233.316 2.70724 212.922 0.676783 188.063C-5.06877 117.781 26.5096 71.6226 67.2422 41.4519C144.296 -15.6208 249.914 -13.2273 325.832 45.3487C376.401 84.3665 423.748 143.417 414.273 224.731Z" fill="#3F3D56"/>
<path d="M398.835 279.282C388.954 298.331 375.512 310.951 360.414 318.982C356.051 321.299 351.516 323.273 346.848 324.887C319.375 334.431 288.627 331.899 264.474 326.86C247.533 323.322 230.337 321.146 213.05 320.352C208.12 320.129 203.184 320.019 198.244 320.021C190.626 320.031 183.01 320.314 175.395 320.871C125.908 324.511 50.0007 317.691 16.6043 250.011L100.164 88.0062L131.264 167.931L141.189 193.443L168.543 155.869L182.667 136.469L246.99 210.286L265.17 170.097L391.039 272.918L398.059 278.649L398.835 279.282Z" fill="#F2F2F2"/>
<path d="M177.233 51.9061C178.051 51.9061 178.715 51.2419 178.715 50.4225C178.715 49.6032 178.051 48.939 177.233 48.939C176.414 48.939 175.751 49.6032 175.751 50.4225C175.751 51.2419 176.414 51.9061 177.233 51.9061Z" fill="#F2F2F2"/>
<path d="M136.229 102.842C137.047 102.842 137.711 102.178 137.711 101.358C137.711 100.539 137.047 99.8746 136.229 99.8746C135.41 99.8746 134.746 100.539 134.746 101.358C134.746 102.178 135.41 102.842 136.229 102.842Z" fill="#F2F2F2"/>
<path d="M236.516 111.249C237.062 111.249 237.505 110.806 237.505 110.26C237.505 109.713 237.062 109.271 236.516 109.271C235.971 109.271 235.528 109.713 235.528 110.26C235.528 110.806 235.971 111.249 236.516 111.249Z" fill="#F2F2F2"/>
<path d="M29.0243 133.502C29.57 133.502 30.0123 133.059 30.0123 132.513C30.0123 131.967 29.57 131.524 29.0243 131.524C28.4786 131.524 28.0362 131.967 28.0362 132.513C28.0362 133.059 28.4786 133.502 29.0243 133.502Z" fill="#F2F2F2"/>
<path d="M242.445 49.928C242.99 49.928 243.433 49.4852 243.433 48.939C243.433 48.3928 242.99 47.95 242.445 47.95C241.899 47.95 241.457 48.3928 241.457 48.939C241.457 49.4852 241.899 49.928 242.445 49.928Z" fill="#F2F2F2"/>
<path d="M303.704 97.4019C304.25 97.4019 304.692 96.9591 304.692 96.4129C304.692 95.8666 304.25 95.4238 303.704 95.4238C303.159 95.4238 302.716 95.8666 302.716 96.4129C302.716 96.9591 303.159 97.4019 303.704 97.4019Z" fill="#F2F2F2"/>
<path d="M363.976 172.569C364.522 172.569 364.964 172.126 364.964 171.58C364.964 171.034 364.522 170.591 363.976 170.591C363.43 170.591 362.988 171.034 362.988 171.58C362.988 172.126 363.43 172.569 363.976 172.569Z" fill="#F2F2F2"/>
<path d="M90.2838 59.9469H88.9203V58.582H88.1891V59.9469H86.8256V60.6793H88.1891V62.0437H88.9203V60.6793H90.2838V59.9469Z" fill="#F2F2F2"/>
<path d="M358.048 209.787H356.684V208.422H355.953V209.787H354.589V210.519H355.953V211.884H356.684V210.519H358.048V209.787Z" fill="#F2F2F2"/>
<path d="M212.65 93.2496H189.014V315.164H212.65V93.2496Z" fill="#D3D3D3"/>
<path d="M309.163 143.804H164.065V103.098H309.163L351.182 123.451L309.163 143.804Z" fill="#D3D3D3"/>
<path opacity="0.1" d="M309.163 140.521H164.065V143.804H309.163L351.182 123.451L347.794 121.81L309.163 140.521Z" fill="#34334B"/>
<path d="M93.1577 197.641H238.255V156.935H93.1577L51.1385 177.288L93.1577 197.641Z" fill="#D3D3D3"/>
<path opacity="0.1" d="M54.5269 175.647L51.1385 177.288L93.1577 197.641H238.255V194.359H93.1577L54.5269 175.647Z" fill="#34334B"/>
<path d="M270.426 110.977H245.477V135.925H270.426V110.977Z" fill="white"/>
<path d="M145.025 189.763C151.915 189.763 157.5 184.178 157.5 177.288C157.5 170.399 151.915 164.814 145.025 164.814C138.136 164.814 132.551 170.399 132.551 177.288C132.551 184.178 138.136 189.763 145.025 189.763Z" fill="white"/>
<path d="M200.832 129.36C204.821 129.36 208.054 126.127 208.054 122.138C208.054 118.149 204.821 114.916 200.832 114.916C196.843 114.916 193.61 118.149 193.61 122.138C193.61 126.127 196.843 129.36 200.832 129.36Z" fill="white"/>
<path d="M200.832 183.197C204.821 183.197 208.054 179.964 208.054 175.975C208.054 171.986 204.821 168.753 200.832 168.753C196.843 168.753 193.61 171.986 193.61 175.975C193.61 179.964 196.843 183.197 200.832 183.197Z" fill="white"/>
<path d="M454.943 348.592C454.943 348.592 445.647 356.42 440.754 355.931C435.862 355.441 426.565 355.441 430.48 360.823C434.394 366.205 450.54 369.141 457.389 369.63C464.239 370.119 479.407 370.609 478.428 367.673C477.45 364.737 476.471 351.038 472.557 350.059C468.643 349.081 454.943 348.592 454.943 348.592Z" fill="#34334B"/>
<path d="M508.298 340.906C508.298 340.906 501.448 350.944 496.604 351.788C491.759 352.632 482.805 355.13 488.022 359.262C493.238 363.394 509.579 361.882 516.309 360.513C523.038 359.143 537.779 355.538 536.047 352.973C534.316 350.409 529.691 337.476 525.658 337.586C521.625 337.695 508.298 340.906 508.298 340.906Z" fill="#34334B"/>
<path d="M449.498 197.338C449.498 197.338 443.201 240.462 444.668 248.291C446.136 256.119 447.115 268.351 447.115 268.351C447.115 268.351 446.136 278.625 447.115 283.518C448.093 288.411 453.965 334.892 453.965 335.87C453.965 336.849 452.986 339.784 453.965 342.231C454.943 344.677 456.9 342.72 453.965 346.634C451.029 350.548 452.986 351.527 453.475 351.527C453.965 351.527 473.046 353.484 474.025 351.527C475.003 349.57 473.535 349.08 474.025 346.634C474.514 344.188 475.003 343.698 475.982 343.209C476.96 342.72 478.917 343.698 477.45 341.252C475.982 338.806 472.557 335.87 473.535 334.402C474.514 332.934 473.046 322.171 473.046 322.171C473.046 322.171 472.068 298.196 471.578 283.518C471.089 268.84 475.982 253.673 475.982 253.673C476.591 265.682 481.052 277.177 488.703 286.454C501.424 301.621 507.784 329.999 507.784 329.999C507.784 329.999 510.72 334.402 509.252 338.316C507.784 342.231 503.381 339.784 507.784 342.231C512.188 344.677 527.355 341.252 528.823 339.784C530.291 338.316 526.866 336.359 527.844 332.445C528.823 328.531 532.737 329.51 529.312 327.553C525.887 325.595 524.909 326.085 524.909 324.128C524.909 322.171 516.102 279.604 502.402 267.372L501.424 222.849C501.424 222.849 513.656 191.535 500.935 188.6C488.213 185.664 449.498 197.338 449.498 197.338Z" fill="#4E4C82"/>
<path d="M458.368 81.4496C458.368 81.4496 466.686 101.999 464.729 104.935C462.772 107.87 488.703 95.1492 488.703 95.1492C488.703 95.1492 480.385 74.5998 480.385 72.1535C480.385 69.7072 458.368 81.4496 458.368 81.4496Z" fill="#FCD2B1"/>
<path d="M464.484 86.5873C474.482 86.5873 482.587 78.4824 482.587 68.4843C482.587 58.4863 474.482 50.3813 464.484 50.3813C454.486 50.3813 446.381 58.4863 446.381 68.4843C446.381 78.4824 454.486 86.5873 464.484 86.5873Z" fill="#FCD2B1"/>
<path d="M488.703 86.8319C488.703 86.8319 475.982 85.3641 469.621 93.1924C463.261 101.021 462.282 102.978 462.282 102.978C462.282 102.978 447.115 127.441 450.05 139.673C450.766 140.777 451.419 141.921 452.008 143.098C452.986 145.055 452.986 172.454 452.008 176.858C451.029 181.261 450.051 182.729 451.029 189.089C452.008 195.45 443.201 205.725 453.475 207.682C463.75 209.639 471.578 208.171 475.003 203.767C478.428 199.364 475.493 196.428 486.256 196.428C497.02 196.428 503.87 189.089 503.87 189.089C503.87 189.089 498.488 183.218 500.445 182.24C502.402 181.261 500.445 178.815 499.467 176.368C498.488 173.922 498.488 171.965 499.956 171.965C501.424 171.965 500.445 170.986 499.467 168.54C498.488 166.094 516.591 124.016 505.827 111.785C495.063 99.5529 489.681 92.7031 489.681 92.7031C489.681 92.7031 491.638 85.3641 488.703 86.8319Z" fill="white"/>
<path d="M460.814 133.312V154.84L445.158 206.703C445.158 206.703 434.883 233.613 445.158 233.613C455.433 233.613 454.882 207.928 454.882 207.928L476.96 169.029C476.96 169.029 485.767 138.205 484.789 135.759C483.81 133.312 460.814 133.312 460.814 133.312Z" fill="#FCD2B1"/>
<path d="M469.132 101.51C469.132 101.51 454.454 107.381 458.368 123.038C462.282 138.694 458.368 138.205 458.368 138.205C458.368 138.205 478.428 136.248 484.789 140.652L486.256 134.78C486.256 134.78 492.128 101.021 469.132 101.51Z" fill="white"/>
<path d="M458.302 54.894C457.173 55.2948 455.961 55.4082 454.777 55.2238C453.592 55.0395 452.472 54.5633 451.518 53.8382C449.673 52.3186 448.891 49.515 449.976 47.3858C450.913 45.5472 452.917 44.5386 454.838 43.7863C459.077 42.1284 463.542 41.1202 468.081 40.796C470.246 40.6421 472.519 40.6665 474.45 41.6552C475.406 42.1445 476.236 42.8505 477.183 43.3573C478.923 44.2891 480.948 44.4963 482.829 45.096C484.753 45.7238 486.52 46.7574 488.01 48.1272C489.5 49.4969 490.679 51.1707 491.466 53.0353C491.977 54.3016 492.335 55.6248 492.53 56.9764C493.092 60.6769 492.699 64.4598 491.388 67.9656C489.303 73.5186 484.928 78.3732 484.682 84.2998C482.004 82.3574 481.011 78.8514 478.866 76.3339C477.27 74.473 475.09 73.2085 472.682 72.7469C472.015 72.7063 471.375 72.4728 470.838 72.0748C470.465 71.6286 470.231 71.0824 470.165 70.5042L468.333 61.8547C467.96 60.0944 467.489 58.1753 466.042 57.1056C465.142 56.5293 464.12 56.1693 463.057 56.0536C460.53 55.6122 457.972 55.3789 455.408 55.3562" fill="#34334B"/>
</svg>
