<svg width="98" height="102" viewBox="0 0 98 102" fill="none" xmlns="http://www.w3.org/2000/svg">
<path opacity="0.23" d="M51.7345 83.9733C74.9231 83.9733 93.7211 65.1752 93.7211 41.9866C93.7211 18.7981 74.9231 0 51.7345 0C28.5459 0 9.74783 18.7981 9.74783 41.9866C9.74783 65.1752 28.5459 83.9733 51.7345 83.9733Z" fill="#D3D3D3"/>
<path opacity="0.23" d="M61.3639 82.864C58.2711 83.5905 55.0489 83.9743 51.7344 83.9743C28.5453 83.9743 9.74841 65.1751 9.74841 41.986C9.74841 18.7969 28.5453 0 51.7344 0C55.0489 0 58.2711 0.383783 61.3639 1.1103C42.8151 5.46121 29.0051 22.1096 29.0051 41.986C29.0051 61.8625 42.8151 78.5131 61.3639 82.864Z" fill="#D3D3D3"/>
<path d="M82.3769 78.9605L86.43 94.5329C87.4133 98.311 84.562 101.999 80.6581 101.999H51.7344H22.8108C18.9069 101.999 16.0554 98.311 17.0389 94.5329L21.092 78.9605L51.7344 73.4106L82.3769 78.9605Z" fill="#072735"/>
<path d="M35.2097 102H22.8096C18.9061 102 16.0554 98.3118 17.0385 94.5335L21.0918 78.9606L51.7328 73.4111L82.3759 78.9606L83.9767 85.1114H38.8201C34.7382 85.1114 31.1715 87.8684 30.1433 91.8187L29.4367 94.5335C28.4535 98.3118 31.3041 102 35.2097 102Z" fill="#072735"/>
<path d="M82.3769 78.9608H21.092C18.0269 78.9608 15.5421 76.4761 15.5421 73.4109C15.5421 70.3458 18.0269 67.8611 21.092 67.8611H82.3771C85.4423 67.8611 87.927 70.3458 87.927 73.4109C87.9268 76.4761 85.4421 78.9608 82.3769 78.9608Z" fill="#072735"/>
<path d="M36.7382 78.9602H21.0914C18.0273 78.9602 15.5419 76.4749 15.5419 73.4108C15.5419 71.8777 16.1638 70.4903 17.1674 69.4868C18.173 68.4811 19.5604 67.8613 21.0914 67.8613H36.7382C35.2051 67.8613 33.8178 68.4811 32.8142 69.4868C31.8086 70.4903 31.1888 71.8777 31.1888 73.4108C31.1888 76.4749 33.6721 78.9602 36.7382 78.9602Z" fill="#072735"/>
<path d="M91.0381 29.5311L94.9184 28.2449C97.9519 27.2393 97.9519 22.9483 94.9184 21.9427L91.0381 20.6565C90.0425 20.3265 89.2616 19.5454 88.9316 18.55L87.6454 14.6697C86.6398 11.6362 82.3488 11.6362 81.3432 14.6697L80.057 18.55C79.727 19.5456 78.9459 20.3265 77.9505 20.6565L74.0702 21.9427C71.0367 22.9483 71.0367 27.2393 74.0702 28.2449L77.9505 29.5311C78.9461 29.8611 79.727 30.6422 80.057 31.6376L81.3432 35.5179C82.3488 38.5514 86.6398 38.5514 87.6454 35.5179L88.9316 31.6376C89.2616 30.6422 90.0425 29.8611 91.0381 29.5311Z" fill="#FF8C4A"/>
<path d="M71.0897 44.9951L73.7078 44.1272C75.7546 43.4487 75.7546 40.5535 73.7078 39.875L71.0897 39.0071C70.4179 38.7844 69.8911 38.2573 69.6684 37.5858L68.8005 34.9677C68.122 32.9209 65.2268 32.9209 64.5483 34.9677L63.6804 37.5858C63.4577 38.2576 62.9307 38.7844 62.2592 39.0071L59.641 39.875C57.5943 40.5535 57.5943 43.4487 59.641 44.1272L62.2592 44.9951C62.9309 45.2178 63.4577 45.7448 63.6804 46.4163L64.5483 49.0345C65.2268 51.0812 68.122 51.0812 68.8005 49.0345L69.6684 46.4163C69.8909 45.7446 70.4179 45.2178 71.0897 44.9951Z" fill="#FF8C4A"/>
<path d="M24.9025 22.1419L29.7946 20.5201C33.6193 19.2522 33.6193 13.8423 29.7946 12.5744L24.9025 10.9527C23.6473 10.5366 22.6626 9.55195 22.2466 8.29675L20.6249 3.40465C19.3569 -0.42004 13.947 -0.42004 12.6791 3.40465L11.0574 8.29675C10.6414 9.55195 9.65668 10.5366 8.40149 10.9527L3.50939 12.5744C-0.315304 13.8423 -0.315304 19.2522 3.50939 20.5201L8.40149 22.1419C9.65668 22.5579 10.6414 23.5426 11.0574 24.7978L12.6791 29.6899C13.947 33.5146 19.3569 33.5146 20.6249 29.6899L22.2466 24.7978C22.6626 23.5426 23.6473 22.5579 24.9025 22.1419Z" fill="#FF8C4A"/>
</svg>
