<svg width="557" height="396" viewBox="0 0 557 396" fill="none" xmlns="http://www.w3.org/2000/svg">
<path d="M23.7407 274.525C43.1618 224.804 99.4022 200.67 149.357 220.621C199.312 240.572 209.845 255.784 190.424 305.505C171.003 355.226 114.763 379.36 64.8076 359.409C14.8526 339.458 4.31966 324.246 23.7407 274.525Z" fill="#D3D3D3" fill-opacity="0.23"/>
<path d="M367.592 73.7671C402.4 33.2984 463.461 29.1784 503.975 64.5646C544.489 99.9509 549.382 117.795 514.573 158.263C479.764 198.732 418.704 202.852 378.19 167.466C337.676 132.08 332.783 114.236 367.592 73.7671Z" fill="#D3D3D3" fill-opacity="0.23"/>
<path d="M86.8638 297.13C86.2238 297.59 85.4038 297.92 84.4038 298.12C83.4238 298.32 82.4138 298.42 81.3738 298.42C80.1138 298.42 78.9138 298.23 77.7738 297.85C76.6538 297.45 75.6638 296.82 74.8037 295.96C73.9438 295.08 73.2538 293.95 72.7338 292.57C72.2338 291.17 71.9838 289.48 71.9838 287.5C71.9838 285.44 72.2638 283.72 72.8237 282.34C73.4038 280.94 74.1438 279.82 75.0438 278.98C75.9638 278.12 76.9838 277.51 78.1038 277.15C79.2238 276.77 80.3438 276.58 81.4638 276.58C82.6638 276.58 83.6738 276.66 84.4938 276.82C85.3338 276.98 86.0238 277.17 86.5638 277.39L85.7538 280.87C85.2938 280.65 84.7438 280.49 84.1038 280.39C83.4838 280.29 82.7238 280.24 81.8238 280.24C80.1638 280.24 78.8238 280.83 77.8038 282.01C76.8038 283.19 76.3038 285.02 76.3038 287.5C76.3038 288.58 76.4238 289.57 76.6638 290.47C76.9038 291.35 77.2638 292.11 77.7438 292.75C78.2438 293.37 78.8538 293.86 79.5738 294.22C80.3138 294.56 81.1638 294.73 82.1238 294.73C83.0238 294.73 83.7838 294.64 84.4038 294.46C85.0238 294.28 85.5638 294.05 86.0238 293.77L86.8638 297.13ZM89.4016 277H101.852V280.66H93.5116V285.55H101.102V289.21H93.5116V294.34H102.002V298H89.4016V277ZM110.295 287.05L108.645 283.75H108.495L108.975 287.05V298H105.075V276.85H108.075L116.025 288.04L117.615 291.25H117.765L117.285 288.04V277H121.185V298.15H118.185L110.295 287.05ZM135.142 293.35H128.692L127.102 298H122.992L130.552 276.85H133.582L141.142 298H136.822L135.142 293.35ZM129.742 290.05H134.242L132.682 285.37L132.052 282.07H131.902L131.272 285.4L129.742 290.05Z" fill="#98999A"/>
<path d="M393.615 121.03H392.535V130H388.425V109H392.535V118.3L393.495 117.88L399.285 109H403.965L397.845 117.82L396.225 118.96L397.905 120.13L404.895 130H399.825L393.615 121.03ZM412.874 121.33L413.414 124.9H413.564L414.164 121.3L418.184 109H422.504L414.704 130.15H411.764L403.904 109H408.674L412.874 121.33ZM432.32 125.35H425.87L424.28 130H420.17L427.73 108.85H430.76L438.32 130H434L432.32 125.35ZM426.92 122.05H431.42L429.86 117.37L429.23 114.07H429.08L428.45 117.4L426.92 122.05ZM453.424 130H440.134V109H444.244V126.34H453.424V130ZM455.964 109H460.074V130H455.964V109ZM479.009 112.66H472.889V130H468.779V112.66H462.629V109H479.009V112.66ZM489.156 125.35H482.706L481.116 130H477.006L484.566 108.85H487.596L495.156 130H490.836L489.156 125.35ZM483.756 122.05H488.256L486.696 117.37L486.066 114.07H485.916L485.286 117.4L483.756 122.05Z" fill="#98999A"/>
<path d="M357.231 318.497L382.035 323.737L374.439 353.734L350.043 347.993L357.231 318.497Z" fill="#FCD2B1"/>
<path d="M378.539 321.962C379.193 328.045 378.906 334.192 377.689 340.188C376.234 347.237 373.665 355.475 373.665 355.475C373.665 355.475 376.872 374.159 381.423 373.726C382.384 373.624 389.3 324.263 389.3 324.263L378.539 321.962Z" fill="#34334B"/>
<path d="M389.317 324.28L394.268 325.257L387.913 375L381.44 373.743L389.317 324.28Z" fill="#34334B"/>
<path d="M389.317 324.28L381.44 373.743" stroke="#34334B" stroke-width="0.3" stroke-miterlimit="10" stroke-linecap="round"/>
<path d="M374.694 353.114C374.694 353.114 370.603 348.774 368.57 351.084C365.439 354.651 372.193 354.141 374.184 353.921C374.199 353.926 374.212 353.936 374.221 353.949C374.23 353.961 374.235 353.977 374.235 353.993C374.235 354.009 374.23 354.024 374.221 354.037C374.212 354.05 374.199 354.06 374.184 354.065C372.755 354.685 368.791 356.613 369.931 358.405C371.292 360.571 374.601 354.626 374.601 354.626" stroke="#34334B" stroke-width="0.3" stroke-miterlimit="10"/>
<path d="M183.811 312.704L155.681 317.945L164.298 347.942L191.96 342.2L183.811 312.704Z" fill="#FCD2B1"/>
<path d="M159.653 316.17C158.902 322.253 159.219 328.42 160.589 334.395C162.239 341.444 165.157 349.683 165.157 349.683C165.157 349.683 161.516 368.367 156.352 367.934C155.264 367.832 147.429 318.471 147.429 318.471L159.653 316.17Z" fill="#34334B"/>
<path d="M147.421 318.488L141.815 319.465L149.02 369.208L156.352 367.951L147.421 318.488Z" fill="#34334B"/>
<path d="M147.421 318.488L156.353 367.951" stroke="#34334B" stroke-width="0.3" stroke-miterlimit="10" stroke-linecap="round"/>
<path d="M164.008 347.322C164.008 347.322 168.644 342.982 170.95 345.292C174.497 348.859 166.841 348.349 164.587 348.128C164.569 348.126 164.551 348.131 164.536 348.141C164.521 348.151 164.51 348.166 164.505 348.183C164.5 348.2 164.501 348.218 164.508 348.235C164.515 348.251 164.528 348.265 164.544 348.273C166.169 348.893 170.66 350.821 169.384 352.613C167.845 354.778 164.093 348.833 164.093 348.833" stroke="#34334B" stroke-width="0.3" stroke-miterlimit="10"/>
<path d="M275.612 132.425L277.79 151.432C268.584 152.62 259.315 153.255 250.033 153.335L247.482 120.501L245.78 110.029C245.78 101.536 247.235 90.2151 254.227 85.8667C257.179 84.0407 266.893 81.0172 269.972 80.9832C280.112 80.8728 282.29 90.4529 284.535 100.322C286.994 111.413 288.151 127.465 275.612 132.425Z" fill="#FCD2B1"/>
<path d="M137.307 131.151C137.22 140.307 137.666 149.461 138.642 158.566C144.597 164.511 150.704 164.188 156.693 160.672C154.141 143.245 151.495 122.454 151.495 122.454C151.495 122.454 153.843 110.658 158.173 108.254C158.011 107.826 157.717 107.46 157.333 107.21C156.949 106.959 156.496 106.837 156.038 106.861C152.286 107.515 150.083 111.057 150.083 111.057C150.083 111.057 147.446 93.4424 145.966 94.2662C144.486 95.09 144.86 104.458 144.86 104.458C144.86 104.458 142.776 90.4189 141.594 91.7183C141.143 92.2109 141.594 91.7183 141.449 104.101C141.449 104.101 138.157 93.4509 137.477 95.4382C136.626 97.9351 137.621 106.182 137.621 106.182C137.621 106.182 134.984 97.9691 134.517 99.6167C134.219 100.644 135.52 109.749 136.533 116.433C137.268 121.268 137.516 126.165 137.273 131.049L137.307 131.151Z" fill="#FCD2B1"/>
<path d="M361.297 159.747C367.438 161.59 372.032 161.292 378.309 162.21C379.033 162.312 379.739 162.439 380.462 162.549C375.247 146.353 369.999 133.58 369.999 133.58C369.999 133.58 369.361 121.18 373.078 117.673C372.807 117.285 372.419 116.994 371.971 116.841C371.523 116.689 371.038 116.682 370.586 116.823C366.996 118.429 365.72 122.522 365.72 122.522C365.72 122.522 358.617 105.536 357.341 106.759C356.065 107.982 358.804 117.189 358.804 117.189C358.804 117.189 353.156 103.668 352.297 105.231C351.965 105.842 352.297 105.231 355.291 117.664C355.291 117.664 349.294 107.838 349.116 110.021C348.894 112.738 351.991 120.739 351.991 120.739C351.991 120.739 347.261 113.197 347.21 114.955C347.159 116.713 356.44 138.158 356.44 138.158C356.44 138.158 359.519 153.377 361.297 159.747Z" fill="#FCD2B1"/>
<path d="M377.57 143.256L356.363 145.888C356.754 146.644 362.122 187.393 364.963 195.665C364.963 195.665 307.502 141.914 278.249 144.827C278.249 144.827 273.919 149.846 265.039 150.865C259.629 151.447 254.177 150.255 249.506 147.468C240.345 147.91 231.26 153.549 227.551 156.861C211.882 170.866 190.854 193.381 171.579 203.445C159.585 170.909 157.467 148.81 154.566 126.159C150.407 127.518 138.923 128.07 134.797 129.506L132.858 152.436C133.411 218.435 156.676 235.293 159.372 236.041C165.148 239.854 199.352 234.096 233.854 193.907C229.678 218.953 226.709 252.143 221.273 279.635L319.199 277.367C319.199 277.367 310.82 253.986 310.82 248.942C310.82 223.854 303.088 199.326 303.088 199.326C303.088 199.326 364.606 243.26 387.556 241.179C410.506 239.098 381.057 150.449 377.57 143.256Z" fill="#FF8C4A"/>
<path d="M351.183 302.445L179.099 350.855L167.785 312.806C167.785 312.806 314.946 254.774 353.607 255.326C366.758 255.513 374.711 266.715 372.168 280.304C370.109 291.056 361.731 299.481 351.183 302.445Z" fill="#34334B"/>
<path d="M188.065 257.636L369.429 318.233L357.937 352.205C357.937 352.205 171.579 310.267 166.628 302.258C161.678 294.249 152.891 257.084 188.065 257.636Z" fill="#34334B"/>
<path d="M181.616 308.441L240.191 333.682L257.91 328.697L181.616 308.441Z" fill="#34334B"/>
<path d="M238.524 101.935C238.524 101.935 238.039 87.0557 262.929 86.045C284.459 85.1957 287.274 93.1536 289.197 98.606C291.119 104.058 264.936 118.904 264.936 118.904L238.524 101.935Z" fill="#34334B"/>
<path d="M278.368 90.283C278.368 90.283 293.416 90.1301 289.529 111.566L282.068 102.394L278.368 90.283Z" fill="#34334B"/>
<path d="M278.513 115.83C278.709 119.516 282.188 122.361 286.279 122.182C290.371 122.004 293.527 118.879 293.331 115.193C293.135 111.507 289.656 108.662 285.565 108.84C281.473 109.018 278.317 112.152 278.513 115.83Z" fill="#FCD2B1"/>
<path d="M268.841 140.807C280.223 140.315 289.205 133.733 288.661 123.49L287.572 103.056C287.334 98.5976 283.081 95.124 278.13 95.3363L254.763 96.347C249.812 96.5593 245.95 100.39 246.189 104.84L247.124 122.386C247.677 132.637 259.246 141.224 268.841 140.807Z" fill="#FCD2B1"/>
<path d="M248.434 116.679C248.434 116.679 259.714 109.885 254.763 96.347L243.135 96.848C243.135 96.848 241.434 94.5465 239.043 97.6973C236.653 100.848 242.072 115.643 242.072 115.643L248.434 116.679Z" fill="#34334B"/>
<path d="M251.582 109.256L255.758 98.9713C255.758 98.9713 283.387 102.054 290.167 95.0305C296.682 88.2956 291.366 78.1721 285.845 77.1274C281.533 76.2781 276.871 79.8876 273.579 81.5183C270.287 83.1489 262.419 81.6457 260.045 81.5183C257.672 81.3909 247.422 79.514 244.351 89.2214C244.351 89.2214 227.696 94.7757 244.964 119.991C244.964 120 251.726 116.297 251.582 109.256Z" fill="#34334B"/>
<path d="M237.436 118.14C237.521 121.928 241 124.934 245.21 124.858C249.421 124.781 252.764 121.647 252.679 117.86C252.594 114.072 249.115 111.065 244.904 111.133C240.694 111.201 237.351 114.343 237.436 118.14Z" fill="#FCD2B1"/>
<path d="M254.202 107.778C254.202 107.778 253.462 121.427 256.847 125.384C260.233 129.342 261.951 125.265 273.97 123.575C285.99 121.885 289.001 126.803 289.001 126.803C289.001 126.803 288.457 140.553 272.72 141.241C260.513 141.767 248.051 139.202 250.382 121.588C252.713 103.974 246.044 99.7017 246.044 99.7017L254.202 107.778Z" fill="#34334B"/>
</svg>
