<svg width="333" height="393" viewBox="0 0 333 393" fill="none" xmlns="http://www.w3.org/2000/svg">
<path d="M62.9118 320.508C77.336 320.508 89.0291 308.815 89.0291 294.39C89.0291 279.966 77.336 268.273 62.9118 268.273C48.4876 268.273 36.7944 279.966 36.7944 294.39C36.7944 308.815 48.4876 320.508 62.9118 320.508Z" fill="#4E4C82"/>
<path d="M44.8403 296.013V294.585C44.8403 293.871 45.2621 293.255 45.911 292.996L53.1135 290.14C54.2491 289.686 55.4495 290.53 55.4495 291.73C55.4495 292.476 54.9953 293.125 54.2815 293.352L48.4741 295.299L54.2815 297.246C54.9953 297.473 55.4495 298.122 55.4495 298.868V298.9C55.4495 300.101 54.2166 300.944 53.1135 300.49L45.911 297.635C45.2945 297.343 44.8403 296.727 44.8403 296.013Z" fill="white"/>
<path d="M66.7725 285.76C67.8756 285.76 68.5894 286.896 68.1027 287.902L60.0567 304.74C59.7971 305.259 59.278 305.584 58.7265 305.584C57.6234 305.584 56.9096 304.448 57.3963 303.442L65.4423 286.604C65.7019 286.085 66.221 285.76 66.7725 285.76Z" fill="white"/>
<path d="M71.5093 297.278L77.3168 295.331L71.5093 293.385C70.828 293.158 70.3413 292.509 70.3413 291.763V291.73C70.3413 290.53 71.5742 289.686 72.6773 290.14L79.8798 292.996C80.5287 293.255 80.9505 293.871 80.9505 294.585V296.013C80.9505 296.727 80.5287 297.343 79.8798 297.603L72.6773 300.458C71.5417 300.912 70.3413 300.068 70.3413 298.868C70.3413 298.154 70.828 297.505 71.5093 297.278Z" fill="white"/>
<path d="M160.278 316.365C174.702 316.365 186.395 304.671 186.395 290.247C186.395 275.823 174.702 264.13 160.278 264.13C145.853 264.13 134.16 275.823 134.16 290.247C134.16 304.671 145.853 316.365 160.278 316.365Z" fill="#4E4C82" fill-opacity="0.5"/>
<path d="M154.213 298.059L155.73 298.92L159.267 300.618C160.363 301.145 161.057 301.762 161.347 302.469C161.641 303.169 161.556 304.003 161.092 304.969C160.628 305.935 160.029 306.526 159.295 306.742C158.565 306.95 157.652 306.792 156.556 306.265L153.018 304.567L151.398 303.922L152.25 302.148L153.766 303.009L157.304 304.707C157.902 304.995 158.373 305.105 158.715 305.039C159.061 304.966 159.345 304.698 159.567 304.237C159.788 303.775 159.818 303.39 159.655 303.081C159.496 302.765 159.118 302.464 158.519 302.176L154.982 300.478L153.361 299.833L154.213 298.059ZM161.3 299.933L156.378 297.569L154.758 296.925L155.61 295.15L157.126 296.012L162.048 298.375L163.723 299.046L162.871 300.82L161.3 299.933ZM163.652 297.253L158.004 292.797L156.524 291.86L157.412 290.01L158.763 291.218L164.41 295.673L165.94 296.647L165.046 298.508L163.652 297.253ZM161.031 283.861L162.547 284.722L166.085 286.42C167.181 286.947 167.874 287.564 168.164 288.271C168.458 288.971 168.373 289.804 167.909 290.771C167.445 291.737 166.846 292.328 166.113 292.544C165.383 292.752 164.469 292.593 163.373 292.067L159.836 290.369L158.215 289.724L159.067 287.95L160.584 288.811L164.121 290.509C164.72 290.797 165.19 290.907 165.533 290.841C165.879 290.768 166.162 290.5 166.384 290.038C166.606 289.577 166.635 289.192 166.473 288.883C166.314 288.567 165.935 288.266 165.337 287.978L161.799 286.28L160.179 285.635L161.031 283.861ZM172.748 280.251L171.74 282.349L169.759 282.316L168.167 282.444L169.068 283.755L170.353 285.237L169.351 287.325L168.253 285.454L166.419 282.869L163.367 283.014L161.295 283.311L162.302 281.212L164.203 281.273L165.576 281.186L164.78 280.072L163.523 278.67L164.525 276.582L165.595 278.374L167.368 280.782L170.595 280.575L172.748 280.251Z" fill="white"/>
<path d="M102.273 315.329C116.697 315.329 128.39 303.636 128.39 289.211C128.39 274.787 116.697 263.094 102.273 263.094C87.8484 263.094 76.1553 274.787 76.1553 289.211C76.1553 303.636 87.8484 315.329 102.273 315.329Z" fill="#EB8245"/>
<path d="M93.8953 284.81C95.1033 284.81 95.9873 285.182 96.5473 285.926C97.1153 286.662 97.3993 287.778 97.3993 289.274C97.3993 290.786 97.1153 291.922 96.5473 292.682C95.9793 293.434 95.0953 293.81 93.8953 293.81H90.7993L90.9193 292.01V286.55L90.7993 284.81H93.8953ZM93.8953 292.154C94.3193 292.154 94.6553 292.062 94.9033 291.878C95.1513 291.686 95.3273 291.382 95.4313 290.966C95.5433 290.55 95.5993 289.986 95.5993 289.274C95.5993 288.53 95.5433 287.958 95.4313 287.558C95.3273 287.158 95.1513 286.878 94.9033 286.718C94.6633 286.55 94.3273 286.466 93.8953 286.466H92.6473V292.154H93.8953ZM105.33 293.81H103.23L102.954 292.01V291.986L99.8817 292.01L99.6057 293.81H97.7457L98.3337 292.01L99.8097 286.61L100.17 284.81H102.822L103.182 286.61L104.742 292.01L105.33 293.81ZM102.474 290.342L101.382 286.502L100.338 290.354L102.474 290.342ZM111.606 286.514L111.474 286.55L110.394 286.406H109.29V292.01L109.41 293.81H107.442L107.562 292.01V286.406H106.458L105.378 286.55L105.246 286.514L105.51 284.81H111.342L111.606 286.514ZM119.099 293.81H116.999L116.723 292.01V291.986L113.651 292.01L113.375 293.81H111.515L112.103 292.01L113.579 286.61L113.939 284.81H116.591L116.951 286.61L118.511 292.01L119.099 293.81ZM116.243 290.342L115.151 286.502L114.107 290.354L116.243 290.342Z" fill="white"/>
<path d="M254.399 378.322C254.7 379.796 254.906 382.081 253.757 384.134C252.492 386.395 250.379 386.952 244.35 388.907C235.822 391.671 233.585 392.474 229.967 392.423C227.816 392.392 224.153 392.251 223.574 390.505C223.106 389.097 224.753 386.948 227.516 385.178C232.055 382.892 238.222 380.607 242.761 378.322" fill="#34334B"/>
<path d="M253.828 378.251H243.388L237.687 246.159H259.53C260.029 263.377 259.985 281.739 259.165 301.114C258.205 323.831 256.299 358.596 253.828 378.251Z" fill="#FCD2B1"/>
<path d="M283.394 378.251H272.955L267.253 246.159H289.096C289.596 263.377 289.551 281.739 288.732 301.114C287.771 323.831 285.865 358.596 283.394 378.251Z" fill="#FCD2B1"/>
<path d="M228.846 10.286C228.045 11.2295 221.918 18.6641 222.095 28.7212C222.246 37.2041 226.791 48.8863 225.597 55.5525C224.872 59.6069 223.872 60.5901 221.861 65.8725C219.499 72.0814 213.458 87.9552 216.491 99.5836C220.295 114.166 238.764 123.596 253.616 125.498C277.485 128.555 304.021 113.705 305.684 98.4367C307.124 85.2131 288.893 80.966 287.238 59.2216C286.526 49.8644 289.583 46.461 287.472 34.2246C286.648 29.451 285.239 20.0048 279.066 12.4382C270.527 1.97201 257.327 0.367235 252.59 0.0697389C252.185 0.0442392 251.792 0.0158985 251.241 0.00513197C242.59 -0.169399 234.071 4.12475 228.846 10.286Z" fill="#34334B"/>
<path d="M233.338 83.7325C228.063 83.1216 223.398 87.1664 223.256 92.4755L221.679 151.559C221.619 153.833 223.777 155.851 226.622 156.18C229.561 156.521 232.179 154.942 232.525 152.621L241.244 94.0485C241.996 88.9939 238.415 84.3201 233.338 83.7325Z" fill="#FCD2B1"/>
<path d="M223.914 146.913L180.103 185.289L183.998 190.444L230.702 155.621C232.36 154.385 232.209 151.395 230.364 148.954C228.461 146.435 225.521 145.505 223.914 146.913Z" fill="#FCD2B1"/>
<path d="M245.927 57.3479L247.58 76.3984H267.937L269.59 34.6487L245.927 57.3479Z" fill="#FCD2B1"/>
<path d="M268.022 74.2822C288.525 79.7754 297.431 87.5199 297.431 87.5199C261.115 107.577 225.173 87.5199 225.173 87.5199C230.04 83.1074 247.264 74.2822 247.264 74.2822H268.022Z" fill="#FCD2B1"/>
<path d="M226.995 118.434C229.62 125.343 232.772 125.583 236.711 134.221C238.888 138.997 239.886 143.225 240.384 145.947C255.835 145.947 271.286 145.947 286.737 145.947C286.492 141.078 286.5 135.798 286.906 130.173C288.168 112.72 292.805 98.2412 297.431 87.5195C294.447 85.4846 290.922 83.3386 286.852 81.3004C282.608 79.1743 278.619 77.5899 275.081 76.3982C275.081 76.3982 257.366 93.8757 243.244 76.3982C243.244 76.3982 231.026 81.5502 227.99 85.3582C227.076 88.502 226.034 92.9225 225.557 98.2905C224.955 105.056 224.378 111.545 226.995 118.434Z" fill="#FF8C4A"/>
<path d="M240.383 145.947C240.383 145.947 224.566 240.518 202.707 281.603C202.707 281.603 219.768 289.355 240.383 281.603C240.383 281.603 274.964 294.781 297.43 280.828C297.43 280.828 322.933 281.603 332.041 274.626C332.041 274.626 316.108 216.131 286.737 145.947H240.383Z" fill="#34334B"/>
<path d="M180.457 185.156C180.457 185.156 173.167 186.651 170.01 193.378C166.852 200.104 173.729 198.275 176.338 193.561C178.946 188.847 184.167 194.25 185.714 189.338C185.714 189.338 186.055 185.955 180.457 185.156Z" fill="#FCD2B1"/>
<path d="M118.891 390.871C123.147 390.871 126.598 387.421 126.598 383.164C126.598 378.908 123.147 375.457 118.891 375.457C114.634 375.457 111.184 378.908 111.184 383.164C111.184 387.421 114.634 390.871 118.891 390.871Z" fill="#34334B"/>
<path d="M118.891 390.871C123.147 390.871 126.598 387.421 126.598 383.164C126.598 378.908 123.147 375.457 118.891 375.457C114.634 375.457 111.184 378.908 111.184 383.164C111.184 387.421 114.634 390.871 118.891 390.871Z" fill="#34334B"/>
<path opacity="0.1" d="M118.891 388.614C121.9 388.614 124.34 386.174 124.34 383.164C124.34 380.154 121.9 377.715 118.891 377.715C115.881 377.715 113.441 380.154 113.441 383.164C113.441 386.174 115.881 388.614 118.891 388.614Z" fill="#34334B"/>
<path opacity="0.11" d="M118.891 390.871C123.147 390.871 126.598 387.421 126.598 383.164C126.598 378.908 123.147 375.457 118.891 375.457C114.634 375.457 111.184 378.908 111.184 383.164C111.184 387.421 114.634 390.871 118.891 390.871Z" fill="#34334B"/>
<path d="M51.6439 390.871C55.9004 390.871 59.351 387.421 59.351 383.164C59.351 378.908 55.9004 375.457 51.6439 375.457C47.3874 375.457 43.9368 378.908 43.9368 383.164C43.9368 387.421 47.3874 390.871 51.6439 390.871Z" fill="#34334B"/>
<path d="M51.6439 390.871C55.9004 390.871 59.351 387.421 59.351 383.164C59.351 378.908 55.9004 375.457 51.6439 375.457C47.3874 375.457 43.9368 378.908 43.9368 383.164C43.9368 387.421 47.3874 390.871 51.6439 390.871Z" fill="#34334B"/>
<path opacity="0.1" d="M51.6441 388.614C54.6539 388.614 57.0937 386.174 57.0937 383.164C57.0937 380.154 54.6539 377.715 51.6441 377.715C48.6344 377.715 46.1946 380.154 46.1946 383.164C46.1946 386.174 48.6344 388.614 51.6441 388.614Z" fill="#34334B"/>
<path opacity="0.11" d="M51.6439 390.871C55.9004 390.871 59.351 387.421 59.351 383.164C59.351 378.908 55.9004 375.457 51.6439 375.457C47.3874 375.457 43.9368 378.908 43.9368 383.164C43.9368 387.421 47.3874 390.871 51.6439 390.871Z" fill="#34334B"/>
<path d="M183.816 390.871C188.072 390.871 191.523 387.421 191.523 383.164C191.523 378.908 188.072 375.457 183.816 375.457C179.559 375.457 176.108 378.908 176.108 383.164C176.108 387.421 179.559 390.871 183.816 390.871Z" fill="#34334B"/>
<path d="M120.399 318.791C126.591 304.727 132.784 290.662 138.977 276.599C148.796 254.299 158.614 231.999 168.433 209.7C170.701 204.55 172.968 199.4 175.236 194.25C174.734 194.539 174.23 194.827 173.728 195.116C191.483 195.116 209.24 195.116 226.995 195.116C229.54 195.116 232.083 195.116 234.628 195.116C234.066 194.379 233.505 193.642 232.943 192.905C227.734 206.914 222.524 220.923 217.315 234.933C209.005 257.281 200.694 279.63 192.384 301.978C190.467 307.134 188.55 312.29 186.633 317.445C187.194 317.018 187.756 316.59 188.318 316.163C168.043 316.163 147.768 316.163 127.493 316.163C124.626 316.163 121.759 316.163 118.892 316.163C116.644 316.163 116.64 319.656 118.892 319.656C139.166 319.656 159.441 319.656 179.716 319.656C182.583 319.656 185.45 319.656 188.318 319.656C189.141 319.656 189.731 319.104 190.002 318.374C195.212 304.364 200.421 290.355 205.63 276.346C213.94 253.997 222.251 231.649 230.561 209.3C232.478 204.145 234.395 198.989 236.312 193.833C236.715 192.751 235.682 191.622 234.628 191.622C216.872 191.622 199.116 191.622 181.36 191.622C178.816 191.622 176.272 191.622 173.728 191.622C173.167 191.622 172.459 191.943 172.219 192.488C166.027 206.552 159.834 220.616 153.641 234.68C143.822 256.98 134.004 279.279 124.185 301.579C121.917 306.728 119.65 311.878 117.382 317.028C116.485 319.066 119.494 320.846 120.399 318.791Z" fill="#34334B"/>
<path d="M187.814 373.711C167.757 373.711 147.7 373.711 127.642 373.711C124.725 373.711 121.808 373.711 118.89 373.711C119.473 374.293 120.055 374.875 120.637 375.458C120.637 356.508 120.637 337.558 120.637 318.609C120.055 319.191 119.473 319.773 118.89 320.356C138.948 320.356 159.005 320.356 179.062 320.356C181.979 320.356 184.897 320.356 187.814 320.356C187.232 319.773 186.65 319.191 186.067 318.609C186.067 337.558 186.067 356.508 186.067 375.458C186.067 377.705 189.56 377.709 189.56 375.458C189.56 356.508 189.56 337.558 189.56 318.609C189.56 317.664 188.76 316.862 187.814 316.862C167.756 316.862 147.699 316.862 127.642 316.862C124.724 316.862 121.807 316.862 118.89 316.862C117.946 316.862 117.143 317.662 117.143 318.609C117.143 337.558 117.143 356.508 117.143 375.458C117.143 376.402 117.943 377.205 118.89 377.205C138.947 377.205 159.004 377.205 179.061 377.205C181.979 377.205 184.896 377.205 187.814 377.205C190.062 377.204 190.066 373.711 187.814 373.711Z" fill="#34334B"/>
<path d="M187.814 374.409C170.743 374.409 153.672 374.409 136.6 374.409C109.523 374.409 82.4453 374.409 55.3675 374.409C49.1235 374.409 42.8795 374.409 36.6354 374.409C34.3875 374.409 34.3835 377.903 36.6354 377.903C53.7066 377.903 70.7778 377.903 87.849 377.903C114.927 377.903 142.004 377.903 169.082 377.903C175.326 377.903 181.57 377.903 187.814 377.903C190.062 377.903 190.066 374.409 187.814 374.409Z" fill="#34334B"/>
<path d="M154.551 233.588C137.308 233.588 120.065 233.588 102.821 233.588C75.4539 233.588 48.0871 233.588 20.7203 233.588C14.389 233.588 8.05773 233.588 1.72702 233.588C0.369301 233.588 -0.404748 235.062 0.218577 236.216C13.2404 260.322 26.2628 284.428 39.2846 308.534C41.1319 311.953 42.9787 315.372 44.826 318.792C45.1156 319.328 45.7349 319.657 46.3344 319.657C66.8441 319.657 87.3538 319.657 107.863 319.657C124.534 319.657 141.205 319.657 157.875 319.657C167.622 319.657 177.369 319.657 187.116 319.657C187.951 319.657 188.516 319.102 188.801 318.375C198.244 294.257 207.688 270.139 217.132 246.022C218.466 242.615 219.8 239.207 221.135 235.8C221.557 234.721 220.488 233.589 219.45 233.589C200.529 233.589 181.608 233.589 162.688 233.589C159.975 233.588 157.263 233.588 154.551 233.588C152.303 233.588 152.299 237.081 154.551 237.081C173.471 237.081 192.392 237.081 211.313 237.081C214.025 237.081 216.737 237.081 219.449 237.081C218.888 236.344 218.326 235.607 217.765 234.87C208.321 258.988 198.877 283.105 189.433 307.222C188.099 310.63 186.765 314.037 185.431 317.445C185.992 317.017 186.554 316.59 187.115 316.162C166.59 316.162 146.065 316.162 125.539 316.162C108.581 316.162 91.623 316.162 74.6651 316.162C65.2212 316.162 55.7778 316.162 46.3339 316.162C46.8365 316.451 47.3397 316.739 47.8423 317.028C34.8205 292.922 21.7981 268.816 8.77626 244.71C6.92895 241.291 5.08221 237.872 3.2349 234.452C2.73228 235.328 2.22907 236.205 1.72645 237.081C18.9693 237.081 36.2122 237.081 53.4557 237.081C80.8225 237.081 108.19 237.081 135.557 237.081C141.888 237.081 148.219 237.081 154.55 237.081C156.798 237.082 156.802 233.588 154.551 233.588Z" fill="#34334B"/>
<path d="M20.5021 235.996C33.5239 260.102 46.5463 284.207 59.5681 308.313C61.4155 311.733 63.2622 315.152 65.1095 318.571C65.9113 320.055 68.1746 318.734 67.3722 317.249C54.3503 293.143 41.3279 269.037 28.3061 244.931C26.4588 241.512 24.6121 238.092 22.7648 234.673C21.9629 233.189 19.7003 234.511 20.5021 235.996Z" fill="#34334B"/>
<path d="M46.8275 235.996C59.8493 260.102 72.8717 284.207 85.8936 308.313C87.7409 311.733 89.5876 315.152 91.4349 318.571C92.2367 320.055 94.5 318.734 93.6976 317.249C80.6758 293.143 67.6534 269.037 54.6315 244.931C52.7842 241.512 50.9375 238.092 49.0902 234.673C48.2878 233.189 46.0251 234.511 46.8275 235.996Z" fill="#34334B"/>
<path d="M69.1304 235.996C82.1523 260.102 95.1747 284.207 108.196 308.313C110.044 311.733 111.891 315.152 113.738 318.571C114.54 320.055 116.803 318.734 116.001 317.249C102.979 293.143 89.9563 269.037 76.9345 244.931C75.0872 241.512 73.2404 238.092 71.3931 234.673C70.5913 233.189 68.328 234.511 69.1304 235.996Z" fill="#34334B"/>
<path d="M204.989 234.673C191.967 258.779 178.944 282.884 165.922 306.991C164.075 310.41 162.228 313.829 160.381 317.248C159.58 318.732 161.841 320.057 162.644 318.571C175.666 294.465 188.688 270.359 201.71 246.253C203.557 242.834 205.404 239.415 207.251 235.996C208.052 234.512 205.791 233.187 204.989 234.673Z" fill="#34334B"/>
<path d="M179.216 234.673C166.194 258.779 153.172 282.884 140.15 306.991C138.303 310.41 136.456 313.829 134.609 317.248C133.807 318.732 136.068 320.057 136.871 318.571C149.893 294.465 162.916 270.359 175.937 246.253C177.785 242.834 179.631 239.415 181.479 235.996C182.28 234.512 180.018 233.187 179.216 234.673Z" fill="#34334B"/>
<path d="M122.163 234.673C109.141 258.779 96.1191 282.884 83.0973 306.991C81.25 310.41 79.4032 313.829 77.5559 317.248C76.7547 318.732 79.0156 320.057 79.8186 318.571C92.8404 294.465 105.863 270.359 118.885 246.253C120.732 242.834 122.579 239.415 124.426 235.996C125.227 234.512 122.966 233.187 122.163 234.673Z" fill="#34334B"/>
<path d="M128.635 235.334C128.635 259.474 128.635 283.614 128.635 307.754C128.635 311.139 128.635 314.524 128.635 317.909C128.635 319.595 131.255 319.598 131.255 317.909C131.255 293.769 131.255 269.629 131.255 245.489C131.255 242.104 131.255 238.719 131.255 235.334C131.255 233.648 128.635 233.646 128.635 235.334Z" fill="#34334B"/>
<path d="M28.0316 284.278C52.7492 284.278 77.4669 284.278 102.185 284.278C111.533 284.278 120.917 284.041 130.263 284.278C140.138 284.529 150.034 285.374 159.897 285.923C172.973 286.653 186.05 287.381 199.126 288.111C200.249 288.173 200.246 286.426 199.126 286.364C176.284 285.09 153.404 283.246 130.539 282.54C106.888 281.809 83.1029 282.531 59.4409 282.531C48.9713 282.531 38.5012 282.531 28.0316 282.531C26.9073 282.531 26.9056 284.278 28.0316 284.278Z" fill="#34334B"/>
<path d="M17.3682 265.163C44.5441 265.163 71.7194 265.163 98.8952 265.163C109.335 265.163 119.812 264.905 130.25 265.163C141.157 265.433 152.089 266.373 162.983 266.98C177.315 267.779 191.647 268.578 205.979 269.377C207.102 269.44 207.098 267.693 205.979 267.63C180.862 266.23 155.705 264.212 130.563 263.426C121.972 263.157 113.332 263.416 104.737 263.416C87.0736 263.416 69.4097 263.416 51.7463 263.416C40.2868 263.416 28.8278 263.416 17.3682 263.416C16.244 263.416 16.2423 265.163 17.3682 265.163Z" fill="#34334B"/>
<path d="M183.816 390.871C188.072 390.871 191.523 387.421 191.523 383.164C191.523 378.908 188.072 375.457 183.816 375.457C179.559 375.457 176.108 378.908 176.108 383.164C176.108 387.421 179.559 390.871 183.816 390.871Z" fill="#34334B"/>
<path opacity="0.1" d="M183.816 388.614C186.826 388.614 189.266 386.174 189.266 383.164C189.266 380.154 186.826 377.715 183.816 377.715C180.807 377.715 178.367 380.154 178.367 383.164C178.367 386.174 180.807 388.614 183.816 388.614Z" fill="#34334B"/>
<path d="M80.7274 390.871C84.9839 390.871 88.4345 387.421 88.4345 383.164C88.4345 378.908 84.9839 375.457 80.7274 375.457C76.4709 375.457 73.0203 378.908 73.0203 383.164C73.0203 387.421 76.4709 390.871 80.7274 390.871Z" fill="#34334B"/>
<path d="M80.7274 390.871C84.9839 390.871 88.4345 387.421 88.4345 383.164C88.4345 378.908 84.9839 375.457 80.7274 375.457C76.4709 375.457 73.0203 378.908 73.0203 383.164C73.0203 387.421 76.4709 390.871 80.7274 390.871Z" fill="#34334B"/>
<path opacity="0.1" d="M80.7269 388.614C83.7366 388.614 86.1765 386.174 86.1765 383.164C86.1765 380.154 83.7366 377.715 80.7269 377.715C77.7172 377.715 75.2773 380.154 75.2773 383.164C75.2773 386.174 77.7172 388.614 80.7269 388.614Z" fill="#34334B"/>
<path d="M242.761 378.321C242.761 378.321 236.336 381.33 231.311 385.296C230.64 385.826 230.861 386.913 231.694 387.105C234.445 387.737 240.985 387.377 254.399 378.321C252.902 377.971 250.959 377.66 248.682 377.651C246.312 377.642 244.296 377.963 242.761 378.321Z" fill="#FCD2B1"/>
<path d="M284.549 378.322C284.85 379.796 285.057 382.081 283.908 384.134C282.642 386.395 280.529 386.952 274.501 388.907C265.972 391.671 263.736 392.474 260.117 392.423C257.966 392.392 254.304 392.251 253.724 390.505C253.256 389.097 254.903 386.948 257.666 385.178C262.205 382.892 268.372 380.607 272.912 378.322" fill="#34334B"/>
<path d="M272.912 378.322C272.912 378.322 266.486 381.33 261.461 385.296C260.79 385.826 261.012 386.913 261.845 387.105C264.596 387.737 271.136 387.377 284.549 378.321C283.132 377.987 281.356 377.697 279.301 377.651C276.732 377.594 274.551 377.936 272.912 378.322Z" fill="#FCD2B1"/>
<path d="M291.214 83.6507C285.606 83.0013 280.649 87.3011 280.498 92.9444L278.822 155.748C278.757 158.166 281.052 160.311 284.076 160.661C287.2 161.023 289.983 159.344 290.35 156.878L299.619 94.6172C300.418 89.2436 296.611 84.2757 291.214 83.6507Z" fill="#FCD2B1"/>
<path d="M281.197 150.81L234.627 191.602L238.768 197.082L288.413 160.067C290.175 158.753 290.014 155.575 288.054 152.979C286.031 150.302 282.906 149.314 281.197 150.81Z" fill="#FCD2B1"/>
<path d="M234.859 190.449C234.859 190.449 226.244 190.022 220.757 196.661C215.269 203.3 223.518 203.232 227.808 198.693C232.097 194.155 236.398 201.728 239.552 196.661C239.552 196.661 240.912 192.963 234.859 190.449Z" fill="#FCD2B1"/>
<path d="M246.692 66.158C248.425 66.1201 250.913 65.9546 253.844 65.359C256.583 64.802 259.105 64.2892 261.57 62.8652C263.017 62.0294 266.487 59.6993 268.816 54.2395C268.217 56.7521 267.266 58.6606 266.487 59.9486C265.69 61.2672 263.015 65.3392 257.869 67.6229C256.148 68.3867 254.474 69.1296 252.209 68.8808C249.365 68.568 247.445 66.8958 246.692 66.158Z" fill="#FCD2B1"/>
<path d="M273.527 32.0049C273.66 30.8109 274.816 18.4986 264.561 10.9405C262.966 9.76521 255.478 4.55705 245.837 6.12273C243.952 6.42873 239.836 7.16424 236.091 10.1466C224.112 19.6846 229.415 41.5333 230.318 44.9785C232.354 52.7389 235.623 56.8841 236.555 58.0168C238.507 60.3871 244.507 67.6738 252.284 66.9887C255.428 66.7116 257.598 65.2429 260.181 63.4941C266.694 59.0855 269.586 53.0308 270.657 50.7302C274.173 43.1755 274.05 36.2129 273.527 32.0049Z" fill="#FCD2B1"/>
<path d="M272.603 30.0109C274.667 29.0765 278.361 31.6071 278.955 35.0762C279.804 40.0283 273.901 44.3411 271.763 43.2208C269.218 41.8875 269.362 31.4768 272.603 30.0109Z" fill="#FCD2B1"/>
<path d="M241.696 21.4844C241.696 21.4844 250.874 34.8412 270.701 36.6074C270.701 36.6074 269.758 30.9148 274.518 29.9622C274.518 29.9622 278.649 4.41154 251.452 3.49355C251.452 3.49355 224.072 2.02477 227.193 29.9288C227.193 29.9293 233.251 29.0113 241.696 21.4844Z" fill="#34334B"/>
<path d="M266.297 36.0776C266.297 36.0776 275.115 50.2888 270.257 63.9731C270.257 63.9731 275.064 48.4115 271.674 36.8488C268.284 25.2861 266.297 36.0776 266.297 36.0776Z" fill="#34334B"/>
</svg>
