<svg width="56" height="55" viewBox="0 0 56 55" fill="none" xmlns="http://www.w3.org/2000/svg">
<path d="M33.6751 32.2383L33.4097 32.241L33.4018 32.2393L27.6446 32.3399L25.7929 32.3682L25.785 32.3665L21.5474 32.4442L18.1999 32.5003L7.92558 32.67L7.92853 7.01929L12.5899 7.0133L12.5978 7.01495L28.1408 7.02365L33.5793 7.02223L33.5822 15.474L33.5815 18.3791L33.6049 21.8439L33.6267 25.3167L33.6614 30.5552L33.6751 32.2383Z" fill="#FF8C4A"/>
<path d="M12.5944 3.90698L28.1421 3.90513L28.1429 10.1239L12.5952 10.1257L12.5944 3.90698Z" fill="#4E4C82"/>
<path d="M51.0865 30.3101L39.9043 53.4009L16.8134 42.2187L17.9572 39.8661L21.5474 32.4441L27.9956 19.1278L32.199 21.162L33.6049 21.8438L46.1912 27.9414L51.0865 30.3101Z" fill="#FF8C4A"/>
<path d="M47.5436 25.144L46.1912 27.9415L44.8309 30.7374L33.6266 25.3167L30.837 23.9659L32.199 21.1621L33.5514 18.3646L33.5815 18.3791L44.8522 23.8386L47.5436 25.144Z" fill="#4E4C82"/>
<path opacity="0.1" d="M33.5815 18.3791L33.5514 18.3645L32.199 21.1621L27.9956 19.1279L21.5474 32.4441L18.1999 32.5002L22.6285 23.3573L22.9081 22.7699L22.9098 22.762L25.868 16.6651L26.4335 15.4999L26.4481 15.4698L26.5003 15.4973L28.3653 16.3988L30.6435 17.5024L31.9959 14.7048L33.5822 15.4739L33.5815 18.3791Z" fill="#FF8C4A"/>
<path d="M27.9022 29.3384L28.6567 27.9022L44.3323 36.138L43.5777 37.5742L27.9022 29.3384Z" fill="white"/>
<path d="M31.3981 36.2544L32.1861 34.8383L38.1238 38.1424L37.3358 39.5585L31.3981 36.2544Z" fill="white"/>
<path d="M25.4645 32.9543L26.2525 31.5383L29.2214 33.1903L28.4334 34.6064L25.4645 32.9543Z" fill="white"/>
<path d="M22.9147 37.4087L23.6692 35.9725L39.3448 44.2083L38.5902 45.6445L22.9147 37.4087Z" fill="white"/>
<path d="M25.825 15.4812L28.3079 15.4167L28.3934 17.071L25.9105 17.1355L25.825 15.4812Z" fill="white"/>
<path d="M11.6375 15.9197L23.3034 15.616L23.3868 17.4001L11.7209 17.7039L11.6375 15.9197Z" fill="white"/>
<path d="M17.8948 21.7627L22.8613 21.7287L22.9171 23.4235L17.9506 23.4575L17.8948 21.7627Z" fill="white"/>
<path d="M12.0765 21.8989L16.2119 21.8702L16.2679 23.5532L12.1326 23.5819L12.0765 21.8989Z" fill="white"/>
</svg>
