<svg width="50" height="45" viewBox="0 0 50 45" fill="none" xmlns="http://www.w3.org/2000/svg">
<path d="M7.60549 41.7516C7.77281 41.7516 7.90848 41.6159 7.90848 41.4485C7.90848 41.2812 7.77281 41.1455 7.60549 41.1455C7.43816 41.1455 7.30249 41.2812 7.30249 41.4485C7.30249 41.616 7.43816 41.7516 7.60549 41.7516Z" fill="#98999A"/>
<path d="M5.34888 39.4954C5.34888 39.6628 5.48455 39.7985 5.65187 39.7985C5.81919 39.7985 5.95487 39.6628 5.95487 39.4954C5.95487 39.3281 5.81919 39.1924 5.65187 39.1924C5.48455 39.1924 5.34888 39.3281 5.34888 39.4954Z" fill="#98999A"/>
<path d="M6.66554 40.738C6.83287 40.738 6.96854 40.6023 6.96854 40.4349C6.96854 40.2675 6.83287 40.1318 6.66554 40.1318C6.49822 40.1318 6.36255 40.2675 6.36255 40.4349C6.36245 40.6023 6.49813 40.738 6.66554 40.738Z" fill="#98999A"/>
<path d="M5.65187 41.1455C5.48455 41.1455 5.34888 41.2812 5.34888 41.4485C5.34888 41.6159 5.48455 41.7516 5.65187 41.7516C5.81919 41.7516 5.95487 41.6159 5.95487 41.4485C5.95487 41.2812 5.81919 41.1455 5.65187 41.1455Z" fill="#98999A"/>
<path d="M6.66554 42.6911C6.83287 42.6911 6.96854 42.5554 6.96854 42.3881C6.96854 42.2206 6.83287 42.085 6.66554 42.085C6.49822 42.085 6.36255 42.2206 6.36255 42.3881C6.36245 42.5555 6.49813 42.6911 6.66554 42.6911Z" fill="#98999A"/>
<path d="M4.71187 38.1782C4.59583 38.1782 4.4962 38.2443 4.44531 38.34V38.6226C4.4962 38.7183 4.59583 38.7843 4.71187 38.7843C4.8792 38.7843 5.01487 38.6485 5.01487 38.4812C5.01497 38.3139 4.87929 38.1782 4.71187 38.1782Z" fill="#98999A"/>
<path d="M4.71187 40.1318C4.59583 40.1318 4.4962 40.1979 4.44531 40.2936V40.5762C4.4962 40.6719 4.59583 40.7379 4.71187 40.7379C4.8792 40.7379 5.01487 40.6022 5.01487 40.4348C5.01497 40.2675 4.87929 40.1318 4.71187 40.1318Z" fill="#98999A"/>
<path d="M4.71187 42.085C4.59583 42.085 4.4962 42.151 4.44531 42.2467V42.5293C4.4962 42.625 4.59583 42.6911 4.71187 42.6911C4.8792 42.6911 5.01487 42.5553 5.01487 42.388C5.01497 42.2206 4.87929 42.085 4.71187 42.085Z" fill="#98999A"/>
<path d="M48.3271 39.4954C48.3271 39.6628 48.4628 39.7985 48.6301 39.7985C48.7975 39.7985 48.9331 39.6628 48.9331 39.4954C48.9331 39.3281 48.7975 39.1924 48.6301 39.1924C48.4628 39.1924 48.3271 39.3281 48.3271 39.4954Z" fill="#98999A"/>
<path d="M48.6301 41.1455C48.4628 41.1455 48.3271 41.2812 48.3271 41.4485C48.3271 41.6159 48.4628 41.7516 48.6301 41.7516C48.7975 41.7516 48.9331 41.6159 48.9331 41.4485C48.9331 41.2812 48.7975 41.1455 48.6301 41.1455Z" fill="#98999A"/>
<path d="M46.6765 39.1924C46.5092 39.1924 46.3735 39.3281 46.3735 39.4954C46.3735 39.6628 46.5092 39.7985 46.6765 39.7985C46.8439 39.7985 46.9795 39.6628 46.9795 39.4954C46.9795 39.3281 46.8439 39.1924 46.6765 39.1924Z" fill="#98999A"/>
<path d="M47.69 40.1318C47.5226 40.1318 47.387 40.2675 47.387 40.4349C47.387 40.6023 47.5226 40.738 47.69 40.738C47.8573 40.738 47.993 40.6023 47.993 40.4349C47.993 40.2675 47.8573 40.1318 47.69 40.1318Z" fill="#98999A"/>
<path d="M46.6765 41.1455C46.5092 41.1455 46.3735 41.2812 46.3735 41.4485C46.3735 41.6159 46.5092 41.7516 46.6765 41.7516C46.8439 41.7516 46.9795 41.6159 46.9795 41.4485C46.9795 41.2812 46.8439 41.1455 46.6765 41.1455Z" fill="#98999A"/>
<path d="M47.69 42.085C47.5226 42.085 47.387 42.2206 47.387 42.3881C47.387 42.5554 47.5226 42.6912 47.69 42.6912C47.8573 42.6912 47.993 42.5554 47.993 42.3881C47.993 42.2206 47.8573 42.085 47.69 42.085Z" fill="#98999A"/>
<path d="M45.7366 38.1782C45.6779 38.1782 45.6235 38.1957 45.5771 38.2246V38.738C45.6235 38.7669 45.6779 38.7844 45.7366 38.7844C45.9039 38.7844 46.0396 38.6486 46.0396 38.4813C46.0396 38.3139 45.9039 38.1782 45.7366 38.1782Z" fill="#98999A"/>
<path d="M45.7366 40.1318C45.6779 40.1318 45.6235 40.1493 45.5771 40.1782V40.6916C45.6235 40.7205 45.6779 40.738 45.7366 40.738C45.9039 40.738 46.0396 40.6023 46.0396 40.4349C46.0396 40.2675 45.9039 40.1318 45.7366 40.1318Z" fill="#98999A"/>
<path d="M45.7366 42.085C45.6779 42.085 45.6235 42.1024 45.5771 42.1314V42.6448C45.6235 42.6737 45.6779 42.6912 45.7366 42.6912C45.9039 42.6912 46.0396 42.5554 46.0396 42.3881C46.0396 42.2206 45.9039 42.085 45.7366 42.085Z" fill="#98999A"/>
<path d="M47.578 37.3727V2.02515C47.578 0.908402 46.6696 0 45.5529 0C44.4363 0 43.5278 0.908499 43.5278 2.02515V7.95447H6.47192V2.02515C6.47192 0.908402 5.56342 0 4.44677 0C3.33012 0 2.42172 0.908499 2.42172 2.02515V37.3727C1.0263 37.7651 0 39.0481 0 40.5671V43.7265C0 43.9388 0.172206 44.1111 0.384654 44.1111H8.50899C8.72144 44.1111 8.89365 43.9388 8.89365 43.7265V40.5671C8.89365 39.048 7.86735 37.765 6.47202 37.3727V20.5191H43.5279V37.3727C42.1326 37.7651 41.1063 39.048 41.1063 40.5671V43.7265C41.1063 43.9388 41.2785 44.1111 41.4909 44.1111H49.6153C49.8278 44.1111 50 43.9388 50 43.7265V40.5671C49.9997 39.0481 48.9733 37.7651 47.578 37.3727ZM3.19093 2.02515C3.19093 1.33262 3.75434 0.769211 4.44677 0.769211C5.13931 0.769211 5.70271 1.33271 5.70271 2.02515V37.2518C5.66032 37.2501 5.61793 37.2486 5.57515 37.2486H3.3185C3.27572 37.2486 3.23332 37.2502 3.19093 37.2518V2.02515ZM6.53805 38.2073C6.43461 38.2554 6.36252 38.3597 6.36252 38.4814C6.36252 38.6487 6.4982 38.7845 6.66552 38.7845C6.83284 38.7845 6.96852 38.6487 6.96852 38.4814C6.96852 38.464 6.96617 38.4473 6.96344 38.4307C7.27728 38.6354 7.54354 38.9069 7.74144 39.2255C7.70041 39.2047 7.6546 39.1919 7.60547 39.1919C7.43815 39.1919 7.30248 39.3275 7.30248 39.4949C7.30248 39.6623 7.43815 39.798 7.60547 39.798C7.75951 39.798 7.88542 39.6825 7.90456 39.5336C8.04541 39.8497 8.12434 40.1993 8.12434 40.5672V43.3419H7.90241C7.87448 43.2034 7.75218 43.0991 7.60547 43.0991C7.45866 43.0991 7.33637 43.2034 7.30853 43.3419H5.94886C5.92092 43.2034 5.79863 43.0991 5.65192 43.0991C5.50511 43.0991 5.38282 43.2034 5.35498 43.3419H0.769211V40.5672C0.769211 39.1614 1.91282 38.0179 3.3185 38.0179H5.57505C5.91565 38.0179 6.24072 38.0855 6.53805 38.2073ZM32.1732 19.7499H17.8265V8.72369H32.1732V19.7499ZM44.2969 2.02515C44.2969 1.33262 44.8603 0.769211 45.5528 0.769211C46.2453 0.769211 46.8087 1.33271 46.8087 2.02515V37.2518C46.7663 37.2501 46.7239 37.2486 46.6811 37.2486H44.4246C44.3818 37.2486 44.3394 37.2502 44.2969 37.2518V2.02515ZM49.2305 43.3419H48.9271C48.8992 43.2034 48.7769 43.0991 48.6302 43.0991C48.4834 43.0991 48.3611 43.2034 48.3332 43.3419H46.9737C46.9457 43.2034 46.8234 43.0991 46.6767 43.0991C46.5299 43.0991 46.4076 43.2034 46.3798 43.3419H41.8755V40.5672C41.8755 39.1614 43.0191 38.0179 44.4248 38.0179H46.6813C47.0072 38.0179 47.3186 38.08 47.6052 38.1918C47.4795 38.2288 47.3872 38.3437 47.3872 38.4814C47.3872 38.6487 47.5229 38.7845 47.6902 38.7845C47.8575 38.7845 47.9932 38.6487 47.9932 38.4814C47.9932 38.4419 47.9851 38.4043 47.9713 38.3697C48.724 38.8133 49.2305 39.6319 49.2305 40.5671V43.3419Z" fill="#98999A"/>
</svg>
