<svg width="50" height="50" viewBox="0 0 50 50" fill="none" xmlns="http://www.w3.org/2000/svg">
<path d="M48.4375 14.8438C48.8695 14.8438 49.2188 14.4937 49.2188 14.0625V1.5625C49.2188 1.13125 48.8695 0.78125 48.4375 0.78125H1.5625C1.13047 0.78125 0.78125 1.13125 0.78125 1.5625V14.0625C0.78125 14.4937 1.13047 14.8438 1.5625 14.8438H2.34375V44.5312H1.5625C1.13047 44.5312 0.78125 44.8813 0.78125 45.3125V48.4375C0.78125 48.8687 1.13047 49.2188 1.5625 49.2188H7.8125C8.24453 49.2188 8.59375 48.8687 8.59375 48.4375V45.3125C8.59375 44.8813 8.24453 44.5312 7.8125 44.5312H7.03125V36.7188H19.5312V46.875C19.5312 48.1672 20.5828 49.2188 21.875 49.2188C23.1672 49.2188 24.2188 48.1672 24.2188 46.875V40.625C24.2188 40.1945 24.5688 39.8438 25 39.8438C25.4312 39.8438 25.7812 40.1945 25.7812 40.625V46.875C25.7812 48.1672 26.8328 49.2188 28.125 49.2188C29.4172 49.2188 30.4688 48.1672 30.4688 46.875V36.7188H42.9688V44.5312H42.1875C41.7555 44.5312 41.4062 44.8813 41.4062 45.3125V48.4375C41.4062 48.8687 41.7555 49.2188 42.1875 49.2188H48.4375C48.8695 49.2188 49.2188 48.8687 49.2188 48.4375V45.3125C49.2188 44.8813 48.8695 44.5312 48.4375 44.5312H47.6562V14.8438H48.4375ZM2.34375 2.34375H47.6562V13.2812H2.34375V2.34375ZM42.9688 32.0312H30.4688V28.4484L35.318 23.5992C35.718 23.2 35.9375 22.6687 35.9375 22.1039V21.6461C35.9375 21.0813 35.718 20.55 35.318 20.1508C34.918 19.7516 34.3875 19.5312 33.8227 19.5312H33.3648C32.8 19.5312 32.2695 19.7516 31.8695 20.1508L29.782 22.2375C29.4437 22.5766 29.0734 22.8719 28.682 23.1273C28.8164 22.732 28.9062 22.3156 28.9062 21.875C28.9062 19.7211 27.1539 17.9688 25 17.9688C22.8461 17.9688 21.0938 19.7211 21.0938 21.875C21.0938 22.3156 21.1836 22.732 21.318 23.1273C20.9258 22.8719 20.5562 22.5766 20.218 22.2375L18.1305 20.1508C17.7305 19.7516 17.2 19.5312 16.6352 19.5312H16.1773C15.6125 19.5312 15.082 19.7516 14.682 20.1508C14.282 20.55 14.0625 21.0813 14.0625 21.6461V22.1039C14.0625 22.6687 14.282 23.2 14.682 23.5992L19.5312 28.4484V32.0312H7.03125V14.8438H42.9688V32.0312ZM20.8648 27.5727L15.7867 22.4945C15.682 22.3898 15.625 22.2516 15.625 22.1039V21.6461C15.625 21.4984 15.682 21.3602 15.7867 21.2555C15.8914 21.1516 16.0305 21.0938 16.1773 21.0938H16.6352C16.782 21.0938 16.9211 21.1516 17.0258 21.2555L19.1133 23.3422C20.6859 24.9156 22.7758 25.7812 25 25.7812C27.2242 25.7812 29.3141 24.9156 30.8867 23.3422L32.9742 21.2555C33.0789 21.1516 33.218 21.0938 33.3648 21.0938H33.8227C33.9695 21.0938 34.1086 21.1516 34.2133 21.2555C34.318 21.3602 34.375 21.4984 34.375 21.6461V22.1039C34.375 22.2516 34.318 22.3898 34.2133 22.4945L29.1352 27.5727C28.9883 27.7187 28.9062 27.918 28.9062 28.125V32.0312H21.0938V28.125C21.0938 27.918 21.0117 27.7187 20.8648 27.5727V27.5727ZM22.6562 21.875C22.6562 20.5828 23.7078 19.5312 25 19.5312C26.2922 19.5312 27.3438 20.5828 27.3438 21.875C27.3438 23.1672 26.2922 24.2188 25 24.2188C23.7078 24.2188 22.6562 23.1672 22.6562 21.875ZM7.03125 47.6562H2.34375V46.0938H7.03125V47.6562ZM3.90625 44.5312V14.8438H5.46875V44.5312H3.90625ZM28.9062 46.875C28.9062 47.3055 28.5562 47.6562 28.125 47.6562C27.6938 47.6562 27.3438 47.3055 27.3438 46.875V40.625C27.3438 39.3328 26.2922 38.2812 25 38.2812C23.7078 38.2812 22.6562 39.3328 22.6562 40.625V46.875C22.6562 47.3055 22.3062 47.6562 21.875 47.6562C21.4438 47.6562 21.0938 47.3055 21.0938 46.875V36.7188H28.9062V46.875ZM7.03125 35.1562V33.5938H42.9688V35.1562H7.03125ZM47.6562 47.6562H42.9688V46.0938H47.6562V47.6562ZM46.0938 44.5312H44.5312V14.8438H46.0938V44.5312Z" fill="#98999A"/>
<path d="M10.1562 4.6875V11.7188H11.7188V8.59375H14.8438V7.03125H11.7188V5.46875H14.8438V3.90625H10.9375C10.5055 3.90625 10.1562 4.25625 10.1562 4.6875Z" fill="#98999A"/>
<path d="M16.4062 3.90625H17.9688V11.7188H16.4062V3.90625Z" fill="#98999A"/>
<path d="M22.6562 7.62812L21.0117 4.33828C20.85 4.01406 20.4836 3.84453 20.1336 3.92734C19.7805 4.01016 19.5312 4.325 19.5312 4.6875V11.7188H21.0938V7.99688L22.7383 11.2867C22.8727 11.5562 23.1469 11.7188 23.4375 11.7188C23.4969 11.7188 23.557 11.7117 23.6164 11.6977C23.9695 11.6148 24.2188 11.3 24.2188 10.9375V3.90625H22.6562V7.62812Z" fill="#98999A"/>
<path d="M25.7812 3.90625H27.3438V11.7188H25.7812V3.90625Z" fill="#98999A"/>
<path d="M28.9062 6.25C28.9062 7.54219 29.9578 8.59375 31.25 8.59375C31.6812 8.59375 32.0312 8.94453 32.0312 9.375C32.0312 9.80547 31.6812 10.1562 31.25 10.1562H28.9062V11.7188H31.25C32.5422 11.7188 33.5938 10.6672 33.5938 9.375C33.5938 8.08281 32.5422 7.03125 31.25 7.03125C30.8188 7.03125 30.4688 6.68047 30.4688 6.25C30.4688 5.81953 30.8188 5.46875 31.25 5.46875H33.5938V3.90625H31.25C29.9578 3.90625 28.9062 4.95781 28.9062 6.25Z" fill="#98999A"/>
<path d="M38.2812 7.03125H36.7188V3.90625H35.1562V11.7188H36.7188V8.59375H38.2812V11.7188H39.8438V3.90625H38.2812V7.03125Z" fill="#98999A"/>
</svg>
