<svg width="620" height="339" viewBox="0 0 620 339" fill="none" xmlns="http://www.w3.org/2000/svg">
<path d="M563.384 114.478C554.411 114.478 547.138 121.753 547.138 130.724C547.138 137.922 551.824 144.017 558.307 146.15V156.109H560.338V159.155H566.43V156.109H568.461V146.15C574.944 144.017 579.63 137.922 579.63 130.724C579.63 121.753 572.357 114.478 563.384 114.478Z" fill="#FF8C4A"/>
<path d="M563.385 105.34C562.823 105.34 562.369 105.794 562.369 106.355V110.417C562.369 110.978 562.823 111.432 563.385 111.432C563.946 111.432 564.4 110.978 564.4 110.417V106.355C564.4 105.794 563.946 105.34 563.385 105.34Z" fill="#FF8C4A"/>
<path d="M587.753 129.709H583.691C583.13 129.709 582.676 130.163 582.676 130.724C582.676 131.286 583.13 131.74 583.691 131.74H587.753C588.314 131.74 588.768 131.286 588.768 130.724C588.768 130.163 588.314 129.709 587.753 129.709Z" fill="#FF8C4A"/>
<path d="M543.077 129.709H539.015C538.454 129.709 538 130.163 538 130.724C538 131.286 538.454 131.74 539.015 131.74H543.077C543.638 131.74 544.092 131.286 544.092 130.724C544.092 130.163 543.638 129.709 543.077 129.709Z" fill="#FF8C4A"/>
<path d="M579.899 112.775L577.027 115.646C576.63 116.043 576.63 116.685 577.027 117.082C577.225 117.28 577.485 117.379 577.745 117.379C578.005 117.379 578.265 117.28 578.463 117.082L581.334 114.21C581.731 113.813 581.731 113.172 581.334 112.775C580.937 112.377 580.295 112.379 579.899 112.775Z" fill="#FF8C4A"/>
<path d="M548.307 144.367L545.435 147.239C545.038 147.636 545.038 148.277 545.435 148.674C545.633 148.872 545.893 148.972 546.153 148.972C546.413 148.972 546.673 148.872 546.871 148.674L549.743 145.803C550.14 145.406 550.14 144.764 549.743 144.367C549.346 143.97 548.704 143.97 548.307 144.367Z" fill="#FF8C4A"/>
<path d="M578.463 144.367C578.066 143.97 577.424 143.97 577.027 144.367C576.63 144.764 576.63 145.406 577.027 145.803L579.899 148.674C580.097 148.872 580.357 148.972 580.617 148.972C580.877 148.972 581.136 148.872 581.334 148.674C581.731 148.277 581.731 147.636 581.334 147.239L578.463 144.367Z" fill="#FF8C4A"/>
<path d="M546.871 112.775C546.474 112.378 545.832 112.378 545.435 112.775C545.038 113.172 545.038 113.813 545.435 114.21L548.307 117.082C548.505 117.28 548.765 117.379 549.025 117.379C549.285 117.379 549.545 117.28 549.743 117.082C550.14 116.685 550.14 116.043 549.743 115.646L546.871 112.775Z" fill="#FF8C4A"/>
<path d="M552.216 131.74C551.654 131.74 551.2 131.286 551.2 130.724C551.2 124.006 556.666 118.54 563.385 118.54C563.946 118.54 564.4 118.994 564.4 119.555C564.4 120.117 563.946 120.571 563.385 120.571C557.786 120.571 553.231 125.126 553.231 130.724C553.231 131.286 552.777 131.74 552.216 131.74Z" fill="#FCD2B1"/>
<path d="M558.308 149.001V156.109H560.338V159.155H566.431V156.109H568.461V149.001H558.308Z" fill="#34334B"/>
<path d="M619.167 286.964C576.859 279.434 530.594 280.685 482.064 286.964C504.184 268.29 523.274 249.617 501.155 230.943C544.301 239.845 550.344 238.944 598.341 230.943C587.208 249.617 608.034 268.29 619.167 286.964Z" fill="#FF8C4A"/>
<path opacity="0.2" d="M619.167 286.964C576.859 279.434 530.594 280.685 482.064 286.964C504.184 268.29 523.274 249.617 501.155 230.943C544.301 239.845 550.344 238.944 598.341 230.943C587.208 249.617 608.034 268.29 619.167 286.964Z" fill="#34334B"/>
<path d="M608.847 278.997C572.908 272.986 533.608 273.985 492.384 278.997C511.173 264.091 527.39 249.186 508.6 234.28C545.251 241.386 550.385 240.666 591.156 234.28C581.7 249.186 599.39 264.091 608.847 278.997Z" fill="#FF8C4A"/>
<path d="M595.159 254.981C605.734 254.981 614.308 246.407 614.308 235.832C614.308 225.256 605.734 216.683 595.159 216.683C584.583 216.683 576.01 225.256 576.01 235.832C576.01 246.407 584.583 254.981 595.159 254.981Z" fill="#34334B"/>
<path d="M508.232 213.621L521.5 215.833L528.134 234.997L508.969 246.791L486.855 213.621H507.495H508.232Z" fill="#FCD2B1"/>
<path d="M545.825 243.106C562.923 243.106 576.783 229.245 576.783 212.147C576.783 195.049 562.923 181.189 545.825 181.189C528.727 181.189 514.866 195.049 514.866 212.147C514.866 229.245 528.727 243.106 545.825 243.106Z" fill="#FCD2B1"/>
<path d="M374.815 99.3695C374.815 99.3695 299.63 107.478 286.362 106.003C273.094 104.529 267.197 103.055 267.197 103.055C267.197 103.055 258.352 114.849 262.774 120.009C265.251 122.982 268.249 125.479 271.62 127.38C271.62 127.38 279.728 125.168 285.625 127.38C291.522 129.591 351.228 139.173 361.547 130.328C371.867 121.483 374.815 99.3695 374.815 99.3695Z" fill="#34334B"/>
<path d="M379.976 263.745C379.976 263.745 330.589 249.74 321.744 187.822V181.926C321.744 181.926 311.972 199.068 308.476 202.565C304.422 206.619 290.048 243.106 290.785 246.791C291.522 250.477 290.785 251.951 290.785 251.951L269.409 249.74V243.106C269.409 243.106 280.834 208.83 281.571 200.722C282.309 192.614 309.95 136.225 309.95 136.225C309.95 136.225 320.27 114.849 337.96 136.225C355.651 157.601 357.125 172.343 357.125 172.343L379.975 216.57L379.976 263.745Z" fill="#34334B"/>
<path d="M269.408 100.844L245.821 92.7355C245.821 92.7355 223.708 76.5191 228.867 92.7355C234.027 108.952 257.615 144.333 264.249 140.648C270.883 136.962 278.861 127.814 277.083 126.491C275.305 125.168 263.511 115.586 269.408 100.844Z" fill="#34334B"/>
<path d="M272.259 238.754L253.218 248.053C253.218 248.053 230.192 251.595 243.033 258.238C255.875 264.88 291.3 271.965 293.071 265.766C294.843 259.566 294.14 249.277 292.277 249.551C290.414 249.824 277.573 251.153 272.259 238.754Z" fill="#34334B"/>
<path d="M370.393 215.096C370.393 215.096 360.81 256.374 377.027 265.219C393.243 274.064 506.758 275.538 515.603 259.322C524.448 243.106 520.026 243.106 520.026 243.106L496.438 216.57L515.603 215.096C515.603 215.096 515.603 209.199 508.969 208.462C502.335 207.724 481.696 200.353 464.005 205.513C446.315 210.673 435.995 195.194 435.995 195.194L370.393 215.096Z" fill="#4E4C82"/>
<path d="M357.861 86.1014L345.33 154.653L431.572 144.333L447.051 82.4159L357.861 86.1014Z" fill="#34334B"/>
<path d="M360.442 88.6815L350.122 149.861L428.624 140.648L443.735 84.996L360.442 88.6815Z" fill="white"/>
<path d="M348.279 155.39L345.33 154.653L343.856 157.601L367.444 223.204L369.662 222.356L370.392 218.044L348.279 155.39Z" fill="#B3B3B3"/>
<path d="M345.33 153.915L368.918 222.467L458.108 209.199L431.572 144.333L345.33 153.915Z" fill="#D0CDE1"/>
<path d="M357.124 151.704V155.39L422.726 148.019L421.989 144.333L357.124 151.704Z" fill="#34334B"/>
<path d="M358.599 159.075L368.918 187.823L435.995 179.715L424.202 152.441L358.599 159.075Z" fill="#34334B"/>
<path d="M442.629 199.616L440.418 193.719C440.418 193.719 423.464 164.235 414.619 170.132C405.773 176.029 433.046 204.776 433.046 204.776H441.892L442.629 199.616Z" fill="#FCD2B1"/>
<path d="M386.608 204.039L384.397 195.194C384.397 195.194 378.5 167.921 388.82 169.395C399.139 170.869 402.088 196.668 402.088 196.668L401.351 202.565L386.608 204.039Z" fill="#FCD2B1"/>
<path d="M404.299 200.353C404.299 200.353 385.134 197.405 384.397 201.828C383.66 206.25 379.974 272.59 398.402 274.801C416.83 277.013 508.231 286.595 498.649 263.745C489.067 240.894 474.324 243.843 474.324 243.843L411.67 250.477L404.299 200.353Z" fill="#4E4C82"/>
<path d="M462.163 208.83L442.63 195.194L429.73 205.145L445.947 222.835L462.163 208.83Z" fill="#4E4C82"/>
<path opacity="0.2" d="M409.827 222.098L412.775 250.108L463.636 247.16L419.409 246.423L409.827 222.098Z" fill="#34334B"/>
<path d="M561.107 254.628C581.462 254.628 597.963 238.127 597.963 217.772C597.963 197.418 581.462 180.917 561.107 180.917C540.753 180.917 524.252 197.418 524.252 217.772C524.252 238.127 540.753 254.628 561.107 254.628Z" fill="#34334B"/>
<path d="M371.498 110.058L417.199 108.467L421.621 91.63L374.447 93.0536L371.498 110.058Z" fill="#FF8C4A"/>
<path d="M359.705 119.64L428.993 117.429L429.73 114.48L360.442 116.92L359.705 119.64Z" fill="#D3D3D3" fill-opacity="0.23"/>
<path d="M358.23 127.011L427.519 124.8L428.256 121.851L358.967 124.291L358.23 127.011Z" fill="#D3D3D3" fill-opacity="0.23"/>
<path d="M357.493 132.908L426.781 130.697L427.519 127.748L358.23 130.187L357.493 132.908Z" fill="#D3D3D3" fill-opacity="0.23"/>
<path d="M150.039 283.633L147.348 261.433L71.3294 241.924L80.0749 215.687C73.983 198.214 63.2876 189.648 43.7473 198.196L10.1355 219.076C6.869 221.106 4.20786 223.975 2.43052 227.386C0.653177 230.796 -0.175026 234.621 0.0325363 238.461V238.461C0.237983 242.316 1.48056 246.044 3.62912 249.252C5.77767 252.459 8.75246 255.027 12.2394 256.684C49.8673 274.52 97.8251 281.345 150.039 283.633Z" fill="#FCD2B1"/>
<path d="M145.33 290.361L168.876 286.997L190.898 291.492C192.248 291.767 193.641 291.746 194.981 291.43C196.321 291.115 197.577 290.512 198.662 289.663C199.746 288.815 200.634 287.741 201.263 286.516C201.892 285.29 202.247 283.943 202.304 282.568V282.568C202.368 281.029 202.058 279.497 201.399 278.105C200.741 276.713 199.754 275.501 198.524 274.574L164.014 248.574C161.055 246.344 157.397 245.242 153.698 245.466C149.999 245.689 146.501 247.224 143.832 249.795L135.239 258.07C141.388 261.885 145.961 267.609 148.694 275.561C142.784 278.81 141.662 283.743 145.33 290.361Z" fill="#34334B"/>
<path d="M122.842 57.2842C110.816 57.2842 101.066 47.535 101.066 35.5088C101.066 23.4826 110.816 13.7334 122.842 13.7334C134.868 13.7334 144.617 23.4826 144.617 35.5088C144.617 47.535 134.868 57.2842 122.842 57.2842Z" fill="#FCD2B1"/>
<path d="M88.8197 78.45L137.593 98.9684C133.629 79.0656 131.653 60.9351 137.593 49.8589L106.311 46.1589C107.863 54.6709 99.949 66.0703 88.8197 78.45Z" fill="#FCD2B1"/>
<path d="M171.566 282.961L189.73 281.615C200.857 235.214 206.554 191.355 204.068 151.328C203.716 145.485 201.115 140.005 196.81 136.038C192.506 132.071 186.832 129.925 180.979 130.052C175.355 130.18 169.981 132.399 165.906 136.277L142.417 158.629C131.942 168.52 123.811 180.627 118.617 194.065C111.965 211.488 114.353 221.255 130.234 219.597C140.158 218.49 149.285 213.638 155.752 206.03L172.912 186.087L171.566 282.961Z" fill="#FCD2B1"/>
<path d="M185.633 338.099C188.013 337.944 190.326 337.243 192.392 336.05C194.458 334.857 196.222 333.204 197.546 331.22C198.871 329.235 199.721 326.973 200.03 324.607C200.339 322.241 200.1 319.836 199.33 317.578L195.785 307.179L193.094 280.942C188.949 272.484 183.078 273.749 176.276 280.27C171.951 279.845 171.022 275.521 171.566 269.506L157.929 287.865C156.761 289.436 156.037 291.291 155.831 293.238C155.624 295.184 155.944 297.15 156.756 298.931L170.481 329.039C171.789 331.908 173.939 334.311 176.645 335.929C179.351 337.548 182.486 338.305 185.633 338.099V338.099Z" fill="#34334B"/>
<path d="M13.8112 216.697C38.7022 230.824 46.5036 231.234 71.3298 241.251L92.8572 229.142C118.14 238.491 135.875 225.675 155.085 206.606C142.514 185.667 148.074 158.457 140.285 158.842L47.1114 188.105L43.075 198.196L13.8112 216.697Z" fill="#34334B"/>
<path d="M43.7478 194.833C76.6465 209.073 112.069 193.996 142.303 160.86L162.322 80.0091C162.559 79.1185 162.611 78.1889 162.475 77.2775C162.338 76.3662 162.016 75.4924 161.529 74.7101C161.042 73.9278 160.4 73.2536 159.643 72.7289C158.885 72.2043 158.028 71.8404 157.125 71.6597L133.894 67.0135L122.458 85.1773L99.5846 64.9954L75.2938 72.9366C72.064 73.9925 69.1818 75.906 66.9551 78.4727C64.7284 81.0394 63.2409 84.1629 62.6514 87.5093L43.7478 194.833Z" fill="#4E4C82"/>
<path opacity="0.2" d="M96.0025 263.374C97.778 262.698 99.3654 261.605 100.631 260.189C101.898 258.772 102.805 257.072 103.279 255.232C103.752 253.392 103.777 251.465 103.352 249.614C102.927 247.762 102.064 246.039 100.835 244.59L85.4564 226.451L74.6927 232.506L80.2353 255.102C80.6364 256.738 81.3804 258.269 82.4181 259.595C83.4558 260.92 84.7634 262.01 86.2543 262.793C87.7452 263.575 89.3853 264.031 91.0659 264.131C92.7465 264.232 94.4292 263.974 96.0025 263.374Z" fill="#34334B"/>
<path d="M96.0025 260.683C97.778 260.007 99.3654 258.915 100.631 257.498C101.898 256.081 102.805 254.381 103.279 252.541C103.752 250.701 103.777 248.775 103.352 246.923C102.927 245.071 102.064 243.348 100.835 241.899L85.4564 223.76L74.6927 229.815L80.2354 252.412C80.6365 254.047 81.3804 255.578 82.4181 256.904C83.4558 258.229 84.7634 259.32 86.2543 260.102C87.7452 260.884 89.3853 261.34 91.0659 261.44C92.7465 261.541 94.4292 261.283 96.0025 260.683V260.683Z" fill="#FCD2B1"/>
<path d="M72.0019 235.197L88.1475 224.433L64.6018 161.869L73.3473 73.7409L65.3694 78.7271C61.0879 81.403 57.3945 84.9209 54.5135 89.0672C51.6324 93.2135 49.6237 97.9018 48.6092 102.848L35.6743 165.905C41.3341 194.97 50.7676 220.544 72.0019 235.197Z" fill="#4E4C82"/>
<path opacity="0.2" d="M81.7559 135.296L73.6829 175.66L80.3229 199.267L81.7559 135.296Z" fill="#34334B"/>
<path d="M144.137 33.6415C144.137 33.6415 156.686 -7.42545 118.335 1.18738C112.386 2.52331 107.247 5.98112 103.159 10.5039C102.793 10.8994 102.344 11.21 101.845 11.4139C101.346 11.6178 100.809 11.71 100.27 11.6841C94.1438 11.6841 90.3596 33.5762 102.612 43.2032C102.612 43.2032 100.112 30.2486 104.657 25.8345C105.474 25.0875 106.158 24.2068 106.679 23.2301C109.637 17.2636 119.58 15.3052 126.437 15.8131C129.937 16.0725 130.244 22.1761 134.119 21.3236C142.937 19.3837 145.752 29.5986 144.137 33.6415Z" fill="#34334B"/>
<path d="M105.537 94.5943L105.79 96.4536L107.357 107.927L109.924 126.716L110.566 131.42C110.615 131.779 110.793 132.108 111.066 132.347C111.339 132.585 111.689 132.716 112.051 132.716H129.165C129.527 132.716 129.877 132.585 130.15 132.348C130.423 132.11 130.601 131.782 130.651 131.424L131.304 126.716L133.914 107.927L135.509 96.4453L135.765 94.5979C135.795 94.3856 135.778 94.1695 135.717 93.9642C135.656 93.7588 135.552 93.5689 135.411 93.4073C135.271 93.2456 135.097 93.1161 134.902 93.0273C134.707 92.9384 134.495 92.8925 134.281 92.8925H107.022C106.808 92.8925 106.596 92.9384 106.402 93.027C106.207 93.1156 106.033 93.2448 105.893 93.406C105.752 93.5672 105.647 93.7566 105.586 93.9616C105.525 94.1665 105.508 94.3823 105.537 94.5943V94.5943Z" fill="white"/>
<path d="M132.475 87.9146H108.739C108.542 87.9146 108.347 87.9534 108.165 88.0287C107.984 88.104 107.818 88.2144 107.679 88.3536C107.54 88.4928 107.43 88.6581 107.354 88.8399C107.279 89.0218 107.24 89.2167 107.24 89.4135V91.3937C107.24 91.7912 107.398 92.1725 107.679 92.4536C107.96 92.7346 108.341 92.8926 108.739 92.8926H132.475C132.872 92.8926 133.253 92.7347 133.535 92.4536C133.816 92.1724 133.974 91.7912 133.974 91.3936V89.4135C133.974 89.2167 133.935 89.0217 133.86 88.8399C133.784 88.658 133.674 88.4928 133.535 88.3536C133.395 88.2144 133.23 88.104 133.048 88.0287C132.866 87.9534 132.672 87.9146 132.475 87.9146V87.9146Z" fill="#FF8C4A"/>
<path d="M103.392 95.3816C114.835 96.6305 126.379 96.6305 137.821 95.3816C138.018 95.3816 138.213 95.3428 138.395 95.2675C138.577 95.1922 138.742 95.0818 138.881 94.9426C139.021 94.8034 139.131 94.6382 139.206 94.4564C139.282 94.2745 139.32 94.0796 139.32 93.8828V91.9025C139.32 91.7057 139.282 91.5108 139.206 91.3289C139.131 91.1471 139.021 90.9819 138.881 90.8427C138.742 90.7035 138.577 90.5931 138.395 90.5178C138.213 90.4425 138.018 90.4037 137.821 90.4037C126.388 91.8095 114.826 91.8095 103.392 90.4037C102.995 90.4037 102.614 90.5616 102.332 90.8427C102.051 91.1238 101.893 91.505 101.893 91.9025V93.8828C101.893 94.2803 102.051 94.6615 102.332 94.9426C102.614 95.2237 102.995 95.3816 103.392 95.3816V95.3816Z" fill="#FF8C4A"/>
<path d="M121.302 118.384C117.729 118.384 114.833 115.487 114.833 111.914C114.833 108.342 117.729 105.445 121.302 105.445C124.875 105.445 127.771 108.342 127.771 111.914C127.771 115.487 124.875 118.384 121.302 118.384Z" fill="white"/>
<path d="M104.671 125.525C104.474 127.415 104.734 129.324 105.428 131.093C106.122 132.861 107.23 134.438 108.659 135.69C110.088 136.942 111.797 137.833 113.641 138.288C115.486 138.743 117.413 138.749 119.26 138.305L142.384 132.754L141.831 120.416L119.161 115.179C117.521 114.8 115.819 114.774 114.168 115.102C112.517 115.431 110.954 116.107 109.584 117.085C108.214 118.063 107.067 119.322 106.22 120.777C105.373 122.232 104.845 123.85 104.671 125.525V125.525Z" fill="#FCD2B1"/>
<path d="M135.912 134.96L198.316 136.52C200.568 136.576 202.806 136.14 204.873 135.243C206.941 134.346 208.787 133.009 210.285 131.326C211.782 129.642 212.895 127.652 213.545 125.494C214.194 123.337 214.366 121.063 214.047 118.832V118.832C213.548 115.337 211.87 112.117 209.292 109.705L179.91 82.2191C174.461 77.1213 167.671 73.6832 160.337 72.3081L150.039 70.3773L143.984 116.123L178.967 112.087L137.93 116.796L135.912 134.96Z" fill="#4E4C82"/>
</svg>
