<svg width="236" height="192" viewBox="0 0 236 192" fill="none" xmlns="http://www.w3.org/2000/svg">
<path d="M8.15084 101.333C14.9916 51.3223 76.0641 7.81228 145.037 17.7811C214.01 27.7499 232.764 51.2195 225.923 101.23C219.083 151.24 157.623 183.7 88.6504 173.731C19.6774 163.762 1.31008 151.343 8.15084 101.333Z" fill="#F5F5F5"/>
<path fill-rule="evenodd" clip-rule="evenodd" d="M57.0182 139.953C58.5389 138.755 55.1541 111.408 54.2263 111.76C52.1383 112.516 41.5597 113.517 40.0052 115.509C39.137 116.654 39.3149 118.983 39.3375 120.371C39.4092 124.783 39.8544 137.819 42.7335 139.786C44.3846 140.867 55.4516 141.201 57.0182 139.953Z" fill="#4E4C82"/>
<path fill-rule="evenodd" clip-rule="evenodd" d="M42.5455 115.533C40.5353 116.092 40.7514 119.36 40.9456 121.526C41.1721 124.644 41.4966 127.77 42.0768 130.763C42.5797 133.451 41.7738 137.948 44.5479 137.744C45.9349 137.642 46.1295 135.553 45.9214 133.587L45.3938 130.547C45.4042 130.398 45.4111 130.298 45.3725 130.145C45.3238 125.888 44.382 121.718 43.8008 117.323C43.667 116.413 43.6145 116.459 43.4426 116.097C43.3198 115.738 43.0428 115.468 42.5455 115.533Z" fill="#34334B"/>
<path fill-rule="evenodd" clip-rule="evenodd" d="M51.114 122.055C50.6856 120.402 52.136 118.898 52.793 117.706C54.569 114.556 63.1739 102.295 64.2318 102.821C66.721 104.037 62.3116 111.479 60.3243 115.661C58.4742 119.514 57.4062 123.724 54.3584 124.106C53.517 124.231 51.5903 123.896 51.114 122.055Z" fill="#FCD2B1"/>
<path fill-rule="evenodd" clip-rule="evenodd" d="M53.6653 115.925L56.008 111.885L61.1013 115.218L57.9155 122.484C57.9155 122.484 53.3637 118.121 53.6653 115.925Z" fill="white"/>
<path d="M52.7864 138.442L47.5447 130.476C46.3255 125.677 45.5342 124.188 47.105 119.989C47.5038 118.922 48.8647 118.235 49.4087 117.031C50.545 114.489 52.2973 114.843 53.6894 115.476C56.8466 116.916 57.4216 117.84 57.8156 119.759L59.8264 133.747C60.2074 136.556 54.8844 140.043 52.7864 138.442Z" fill="#FCD2B1"/>
<path d="M58.8499 125.716C58.8499 125.716 61.7487 133.663 59.2176 142.723L50.4547 142.384C45.3114 139.72 45.3122 134.8 48.7886 127.616C52.5414 122.302 58.8499 125.716 58.8499 125.716Z" fill="#FCD2B1"/>
<path d="M52.1597 119.923C51.0127 120.238 49.8764 119.535 49.6057 118.371L48.7 114.387C48.4293 113.223 49.1528 112.037 50.2997 111.722C51.4467 111.408 52.583 112.111 52.8538 113.275L53.7594 117.259C54.0301 118.423 53.3067 119.609 52.1597 119.923Z" fill="#FCD2B1"/>
<path d="M53.4337 156.781C52.4189 154.574 52.9976 151.681 53.0098 150.799C53.0098 150.799 53.0981 148.535 52.1959 143.655C51.3682 139.297 52.8613 130.11 57.1915 133.738C60.2397 136.275 60.4031 144.689 59.8161 152.098C59.4545 156.597 59.7519 164.248 59.1079 164.261C55.8021 164.276 53.4337 156.781 53.4337 156.781Z" fill="#FCD2B1"/>
<path fill-rule="evenodd" clip-rule="evenodd" d="M53.8704 132.572C53.8704 132.572 56.7913 132.519 59.9826 131.17C59.8219 131.178 61.8295 149.173 61.5316 149.596C61.2337 150.019 51.6741 150.33 51.3784 149.994C51.3291 149.938 49.4117 144.253 50.0648 140.019C50.6949 135.788 53.8956 133.008 53.8704 132.572Z" fill="#FF8C4A"/>
<path d="M35.5391 151.479C36.2217 149.157 38.5226 147.276 39.1032 146.603C39.1032 146.603 40.6359 144.909 43.1338 140.592C45.3478 136.724 53.4476 132.532 54.3023 137.955C54.89 141.781 48.5119 146.385 43.2631 151.73C40.0809 154.984 35.342 161.071 34.8586 160.689C32.4274 158.706 35.5391 151.479 35.5391 151.479Z" fill="#FCD2B1"/>
<path fill-rule="evenodd" clip-rule="evenodd" d="M58.2019 163.03C58.0214 162.79 56.9656 161.279 58.6979 162.034C59.5894 162.403 60.645 161.952 61.4608 161.549C63.2583 160.653 64.0923 162.038 64.7277 163.356C63.6489 165.709 56.9789 166.76 56.4803 166.659C55.9274 165.114 56.401 164.425 55.9291 163.884C55.9187 163.422 57.5744 163.038 58.2019 163.03Z" fill="#34334B"/>
<path fill-rule="evenodd" clip-rule="evenodd" d="M35.2558 159.83C35.3623 159.576 36.0793 158.043 36.3544 159.88C36.5123 160.818 37.4459 161.58 38.2143 162.148C39.9128 163.395 39.1851 164.681 38.4095 165.763C35.8627 165.728 31.4737 160.207 31.2962 159.724C32.3061 158.625 33.1349 158.776 33.3426 158.144C33.7259 157.953 34.8795 159.278 35.2558 159.83Z" fill="#34334B"/>
<path fill-rule="evenodd" clip-rule="evenodd" d="M56.1178 139.54C56.5717 138.246 56.3961 135.442 56.3961 135.442C56.3961 135.442 54.4772 134.771 53.9975 134.603C46.7321 132.048 48.1155 134.107 39.6529 143.757C40.1112 145.634 44.1375 149.379 47.1123 151.333C49.3958 150.139 54.1093 145.371 56.1178 139.54Z" fill="#FF8C4A"/>
<path fill-rule="evenodd" clip-rule="evenodd" d="M49.2432 117.158C49.2432 117.158 51.7514 118.674 52.9272 117.951C54.8121 116.819 53.8978 115.275 54.0259 115.355C54.132 115.444 56.3226 115.547 57.665 117.887C59.2634 120.673 60.4835 131.065 60.5454 131.458C60.6073 131.851 58.8879 134.248 55.5597 134.618C47.9121 135.463 46.1982 135.146 45.9219 135.072C45.6756 135.013 45.0738 121.796 46.9455 118.974C47.4024 118.273 48.4941 117.453 49.2432 117.158Z" fill="white"/>
<path fill-rule="evenodd" clip-rule="evenodd" d="M35.1148 139.082C35.1148 139.082 40.3667 128.737 47.1535 125.773C49.9175 124.578 51.4843 121.57 49.9802 119.232C48.4761 116.894 44.747 118.47 39.803 124.003C32.7159 131.85 31.1503 141.996 35.1148 139.082Z" fill="#FCD2B1"/>
<path fill-rule="evenodd" clip-rule="evenodd" d="M35.326 138.731C34.7292 139.68 34.8212 139.927 34.7586 140.743C34.6573 141.276 34.4733 140.783 34.3451 140.483C34.372 141.316 34.5128 142.767 34.2807 142.771C34.0486 142.774 33.7533 141.893 33.6369 141.044C33.6369 141.044 33.4467 143.262 33.2509 143.318C32.7529 143.503 32.8342 141.127 32.8342 141.127C32.4526 142.161 32.4457 143.171 32.1242 143.158C31.66 143.165 31.9971 139.686 32.6201 137.869C32.9317 136.96 33.7049 135.814 33.7049 135.814C33.7049 135.814 35.5894 138.32 35.326 138.731Z" fill="#FCD2B1"/>
<path fill-rule="evenodd" clip-rule="evenodd" d="M52.0966 119.664C52.0966 119.664 49.293 115.061 42.4205 120.63L39.5027 123.17L43.5702 128.906C43.5273 128.842 53.7513 123.378 52.0966 119.664Z" fill="white"/>
<path fill-rule="evenodd" clip-rule="evenodd" d="M64.9972 106.054C65.5813 104.599 66.5478 104.123 67.2285 103.818C67.6572 103.562 67.1865 103.541 66.8965 103.513C67.6151 103.286 68.8926 102.977 68.8338 102.76C68.7749 102.544 67.9429 102.537 67.1865 102.686C67.1865 102.686 69.0312 101.837 69.027 101.639C69.0522 101.12 67.0436 101.916 67.0436 101.916C67.8252 101.248 68.6866 100.936 68.5899 100.641C68.4723 100.208 65.5896 101.575 64.2029 102.704C63.5095 103.268 62.7363 104.333 62.7363 104.333C62.7363 104.333 64.8082 106.519 64.9972 106.054Z" fill="#FCD2B1"/>
<path d="M55.9164 109.012C56.5295 113.125 53.9854 114.118 52.2237 114.886C49.6144 116.042 41.5694 115.02 40.9564 110.907C40.3434 106.794 44.8605 102.933 47.5794 102.256C50.3115 101.563 55.3034 104.9 55.9164 109.012Z" fill="#FCD2B1"/>
<path d="M46.5814 112.547C47.8048 112.557 48.699 113.041 48.5962 113.566C48.2893 115.343 47.5497 116.066 46.3263 116.056C45.1029 116.045 44.5259 115.276 44.5989 114.294C44.6588 113.328 45.3581 112.536 46.5814 112.547Z" fill="#FCD2B1"/>
<path fill-rule="evenodd" clip-rule="evenodd" d="M48.0693 115.236C48.0693 115.236 47.0012 118.298 42.2865 115.645C38.3264 113.392 39.8671 111.791 39.5766 111.238C37.0507 106.298 38.8606 103.418 42.1068 101.56C43.6051 100.703 43.2483 99.018 44.7767 97.9408C45.3139 97.5658 48.0692 97.6076 47.7227 100.504C47.7278 100.591 48.6629 98.9317 49.0816 98.737C51.5082 97.5729 53.7891 102.001 51.7511 103.19C48.674 104.996 46.7825 106.484 45.9917 109.14C45.1229 111.931 48.6477 111.892 48.0582 113.578C48.023 113.711 47.1095 113.537 46.9808 113.543C46.7235 113.555 45.737 113.603 45.4796 113.615C44.7933 113.648 44.4494 116.588 48.0693 115.236Z" fill="#34334B"/>
<path fill-rule="evenodd" clip-rule="evenodd" d="M54.018 116.153C54.018 116.153 56.6998 118.582 57.806 120.782C58.0616 121.334 58.3592 121.881 58.5728 122.44C58.9709 123.365 59.4002 124.775 59.4002 124.775C59.4515 125.11 59.3323 124.05 59.4974 125.691C59.7045 127.327 60.3508 128.757 60.0607 131.339L60.2031 131.712C60.2031 131.712 60.9752 130.042 61.1642 129.039C61.3585 127.79 60.9744 125.835 60.9963 125.979C60.7201 124.451 58.9787 118.374 55.4657 116.106C53.6107 114.887 54.014 115.567 53.8117 115.643C53.4835 115.736 54.1512 116.185 54.018 116.153Z" fill="#4E4C82"/>
<path fill-rule="evenodd" clip-rule="evenodd" d="M44.7162 117.819C44.7162 117.819 46.4295 118.646 46.4765 118.64C46.7971 118.849 45.9772 117.898 47.5085 119.409C49.8683 121.615 50.015 125.343 49.9947 127.068C49.9088 129.916 48.4618 132.041 46.5524 134.28C45.1301 135.945 46.4883 134.795 45.531 135.434L44.7856 135.891C44.7856 135.891 46.3842 135.671 48.0484 134.326C52.0051 131.045 52.8855 124.035 51.2496 120.614C50.2525 118.523 48.1339 116.942 45.7291 116.919L44.3101 117.369C43.6511 117.764 44.8573 117.8 44.7162 117.819Z" fill="#4E4C82"/>
<path d="M89.2218 32.9508C91.7107 31.0846 92.1725 27.5062 90.2531 24.9584C88.3338 22.4105 84.7602 21.858 82.2713 23.7243C79.7823 25.5905 79.3206 29.1689 81.2399 31.7167C83.1593 34.2645 86.7329 34.8171 89.2218 32.9508Z" fill="#34334B"/>
<path d="M87.5998 39.2508C89.6517 37.7122 90.0304 34.7594 88.4455 32.6556C86.8607 30.5517 83.9124 30.0935 81.8605 31.6322C79.8085 33.1708 79.4298 36.1236 81.0147 38.2274C82.5995 40.3313 85.5478 40.7895 87.5998 39.2508Z" fill="#4E4C82"/>
<path d="M82.6827 48.8882L83.3007 56.3504C83.4242 57.9469 84.3475 57.6664 85.8154 57.5219C87.0823 57.4346 88.2475 57.0941 88.2667 55.748L87.1683 46.3234L82.6827 48.8882Z" fill="#FCD2B1"/>
<path d="M92.0784 38.26C92.3966 42.5709 89.3868 46.2099 85.317 46.447C81.2472 46.6841 77.7252 43.3824 77.4102 39.1146C77.0921 34.8037 80.1432 31.7252 84.213 31.4881C88.2828 31.251 91.7635 33.9922 92.0784 38.26Z" fill="#34334B"/>
<path d="M93.7175 42.1608C93.8002 43.2816 92.9767 44.2387 91.8744 44.3029C90.772 44.3671 89.8148 43.5137 89.7321 42.393C89.6493 41.2722 90.4729 40.3151 91.5752 40.2509C92.6776 40.1866 93.6348 41.04 93.7175 42.1608Z" fill="#FCD2B1"/>
<path d="M78.0829 44.9599C79.1835 44.8958 80.0087 43.9367 79.9261 42.8178C79.8435 41.6988 78.8843 40.8437 77.7838 40.9078C76.6832 40.972 75.858 41.931 75.9406 43.0499C76.0232 44.1689 76.9824 45.024 78.0829 44.9599Z" fill="#FCD2B1"/>
<path d="M90.8657 38.5191C91.0149 41.0862 90.7604 43.3673 90.5083 44.9502C90.2562 46.533 89.2901 47.6704 87.8824 48.6109L87.6352 48.7974C86.1443 49.7855 84.2168 49.9221 82.6197 49.0829C81.0226 48.2436 79.8392 47.1227 79.4 45.4859C78.6225 42.4692 78.342 39.1231 78.342 39.1231C78.342 39.1231 77.3622 32.6257 84.1463 32.4294C90.9304 32.2331 90.8657 38.5191 90.8657 38.5191Z" fill="#FCD2B1"/>
<path d="M88.5473 33.006C88.5473 33.006 87.3375 40.394 77.7611 40.2C77.7611 40.2 77.727 33.0027 82.3091 32.1716C82.3091 32.1716 86.8023 31.3011 88.5473 33.006Z" fill="#34334B"/>
<path d="M86.1929 32.3353C86.1929 32.3353 86.8267 37.3668 91.0169 40.0455L91.4781 37.6232C91.4781 37.6232 91.8315 32.5879 86.1929 32.3353Z" fill="#34334B"/>
<path d="M79.586 38.9292L78.6554 42.1172L78.0078 39.0045L79.586 38.9292Z" fill="#34334B"/>
<path d="M89.624 38.4515L90.8989 41.2719L91.2041 38.3759L89.624 38.4515Z" fill="#34334B"/>
<path d="M82.4539 162.642L81.5513 151.76L86.4411 151.225L86.8798 162.655L82.4539 162.642Z" fill="#FCD2B1"/>
<path d="M87.5896 160.226C87.5896 160.226 83.8392 162.1 81.7935 159.583L73.5531 165.116L89.1995 164.086L87.5896 160.226Z" fill="#34334B"/>
<path d="M73.3812 166.626L89.228 165.97L89.1196 164.28L73.2728 164.936L73.3812 166.626Z" fill="#34334B"/>
<path d="M116.343 160.96L113.43 150.219L108.464 150.245L111.917 161.476L116.343 160.96Z" fill="#FCD2B1"/>
<path d="M110.66 159.259C110.66 159.259 114.717 160.683 116.275 157.958L125.452 162.486L109.782 163.263L110.66 159.259Z" fill="#34334B"/>
<path d="M125.485 162.647L109.62 162.978L109.7 164.772L125.565 164.442L125.485 162.647Z" fill="#34334B"/>
<path d="M89.4311 152.69L88.1934 91.2426L89.2309 91.097L107.379 151.721L114.752 150.478L101.897 91.9498C101.897 91.9498 98.5212 81.6044 93.1714 75.5498L82.8053 75.2638C82.8053 75.2638 74.7321 86.0375 75.6303 96.9145C76.5286 107.792 81.4185 153.142 81.4185 153.142" fill="#FF8C4A"/>
<path d="M74.1672 61.0705L70.666 79.7181C70.3397 81.1725 71.3585 82.5931 72.7989 82.7279C73.9008 82.8386 75.2399 82.0656 75.5468 80.9603L80.4326 62.8858C80.988 61.0701 79.9773 59.1269 78.2179 58.619C76.4138 58.07 74.5492 59.1778 74.1672 61.0705Z" fill="#FCD2B1"/>
<path d="M70.1099 80.4754L69.3518 99.4361L72.8504 99.0311L75.0247 80.8029C75.1796 79.358 74.1173 77.6893 72.7406 77.5629C71.3225 77.4392 70.1381 78.9955 70.1099 80.4754Z" fill="#FCD2B1"/>
<path d="M69.3446 98.1907C69.3446 98.1907 64.8726 104.989 70.1649 108.015C70.5141 108.206 70.9689 108.129 71.1962 107.811L71.2346 107.765C71.5003 107.4 71.5033 106.882 71.1861 106.56C70.4556 105.75 69.4557 104.139 71.0532 101.995C71.0532 101.995 71.9084 102.235 71.7457 103.973C71.6946 104.408 72.0599 104.813 72.4731 104.74C72.7645 104.719 72.9982 104.486 73.1006 104.177C73.3917 103.034 73.8454 100.152 72.0993 98.6386L69.3446 98.1907Z" fill="#FCD2B1"/>
<path d="M92.0265 57.7471L118.452 79.985L121.164 76.2332L96.5131 54.0841C95.406 52.8724 93.0139 52.5517 91.8279 53.6559L91.9493 53.5192C90.8063 54.6214 90.8359 56.5831 92.0265 57.7471Z" fill="#FCD2B1"/>
<path d="M83.3292 54.2261L77.0137 59.3237L83.5709 74.9941L94.0454 75.294L94.325 60.5263L93.2566 52.8225L83.3292 54.2261Z" fill="#FCD2B1"/>
<path d="M80.5224 56.2636C80.5224 56.2636 82.198 60.4949 86.1152 59.3572C90.0324 58.2194 89.7923 53.2549 89.7923 53.2549L94.9346 52.5652L94.301 72.1698L81.1191 72.9392L76.15 58.7266L80.5224 56.2636Z" fill="#4E4C82"/>
<path d="M157.798 165.326L156.48 150.889L150.88 150.954L152.854 166L157.798 165.326Z" fill="#FCD2B1"/>
<path d="M151.688 163.345C151.688 163.345 156.387 164.997 158.161 161.812L169.758 167.047L150.867 168.074L151.688 163.345Z" fill="#34334B"/>
<path d="M169.727 167.324L150.489 167.307L150.602 169.819L169.84 169.836L169.727 167.324Z" fill="white"/>
<path d="M113.491 167.816L117.509 153.125L123.163 152.422L118.585 167.799L113.491 167.816Z" fill="#FCD2B1"/>
<path d="M119.811 164.823C119.811 164.823 115.565 167.021 113.076 164.093L102.865 170.662L121.721 169.389L119.811 164.823Z" fill="#34334B"/>
<path d="M102.644 172.369L121.855 171.848L121.706 169.581L102.494 170.102L102.644 172.369Z" fill="white"/>
<path d="M151.476 90.5468L160.635 157.541L147.883 158.414L139.299 101.716L124.758 158.547L110.712 157.89L126.375 92.0101L151.476 90.5468Z" fill="#34334B"/>
<path d="M127.348 72.18C127.348 72.18 121.795 88.1045 119.659 105.011L116.193 104.51C116.193 104.51 116.731 84.2387 120.263 68.9734L127.348 72.18Z" fill="#FCD2B1"/>
<path d="M115.605 103.242C115.605 103.242 110.341 111.352 116.679 115.08C117.114 115.307 117.609 115.228 117.914 114.861L117.953 114.815C118.297 114.401 118.25 113.8 117.886 113.395C116.976 112.425 115.781 110.439 117.672 107.884C117.672 107.884 118.695 108.155 118.524 110.283C118.48 110.804 118.893 111.293 119.433 111.253C119.765 111.229 120.077 110.948 120.176 110.595C120.485 109.191 121.059 105.782 118.912 103.909L115.605 103.242Z" fill="#FCD2B1"/>
<path d="M126.953 56.7869C126.953 56.7869 122.277 58.4512 119.252 68.2213L128.496 73.2756L130.047 68.0194L126.953 56.7869Z" fill="#FF8C4A"/>
<path d="M150.699 69.4876C150.699 69.4876 157.915 84.6007 162.155 101.122L165.288 100.182C165.288 100.182 162.07 80.115 156.768 65.4016L150.699 69.4876Z" fill="#FCD2B1"/>
<path d="M164.66 99.009C164.66 99.009 170.665 106.351 165.421 110.911C165.07 111.195 164.572 111.186 164.256 110.861L164.211 110.82C163.851 110.455 163.804 109.852 164.059 109.401C164.721 108.317 165.55 106.181 163.424 103.901C163.424 103.901 162.543 104.308 162.996 106.399C163.119 106.91 162.788 107.453 162.293 107.487C161.963 107.509 161.654 107.27 161.545 106.931C161.025 105.581 160.021 102.271 161.719 100.12L164.66 99.009Z" fill="#FCD2B1"/>
<path d="M149.891 53.9509C149.891 53.9509 154.401 55.0861 158.466 64.4642L150.61 70.5191L148.489 65.4655L149.891 53.9509Z" fill="#FF8C4A"/>
<path d="M142.481 51.1895L145.891 55.9022C147.055 56.2694 148.608 58.5693 148.577 59.9182C148.586 60.048 148.554 60.1803 148.605 60.3077L153.379 90.2311L126.959 94.9768L126.168 58.8261C125.894 57.9295 126.115 57.4821 126.888 57.0898L132.834 54.1817L142.481 51.1895Z" fill="#FF8C4A"/>
<path d="M139.048 53.4938L138.212 45.897L132.486 46.0553L132.784 54.9865C132.813 55.9839 133.596 55.7213 134.559 55.622L137.698 55.2662C138.538 55.2175 139.155 54.3998 139.048 53.4938Z" fill="#FCD2B1"/>
<path d="M132.819 47.7769L138.886 51.0178L138.37 45.9389L132.819 47.7769Z" fill="#FCD2B1"/>
<path d="M145.196 40.0993C145.289 41.3499 144.388 42.3985 143.202 42.4676C142.016 42.5367 140.968 41.6017 140.876 40.3511C140.783 39.1005 141.684 38.0519 142.87 37.9828C144.059 37.9568 145.107 38.8919 145.196 40.0993Z" fill="#FCD2B1"/>
<path d="M125.518 41.0828C125.611 42.3334 126.659 43.2684 127.845 43.1993C129.031 43.1302 129.931 42.0816 129.839 40.831C129.746 39.5804 128.699 38.6454 127.513 38.7145C126.327 38.7836 125.429 39.8753 125.518 41.0828Z" fill="#FCD2B1"/>
<path d="M141.935 36.2608C142.102 39.1326 141.861 41.6314 141.536 43.436C141.252 45.1951 140.206 46.4235 138.678 47.5007L138.388 47.6892C136.777 48.814 134.677 48.9151 132.904 47.9969C131.131 47.0787 129.897 45.8291 129.403 43.9767C128.521 40.6593 128.26 36.9193 128.26 36.9193C128.26 36.9193 127.194 29.6837 134.574 29.4592C141.998 29.2327 141.935 36.2608 141.935 36.2608Z" fill="#FCD2B1"/>
<path d="M128.797 39.8158C128.797 39.8158 129.989 34.6077 128.712 31.3106C128.712 31.3106 125.457 33.3039 128.797 39.8158Z" fill="#34334B"/>
<path d="M141.989 39.187C141.989 39.187 139.774 34.1491 140.693 30.7431C140.651 30.7452 144.176 31.9649 141.989 39.187Z" fill="#34334B"/>
<path d="M128.551 32.1983C128.551 32.1983 138.665 36.5477 142.021 32.3796C142.021 32.3796 144.776 29.0575 141.191 26.8715C137.606 24.6854 130.29 29.4096 130.29 29.4096C130.29 29.4096 128.59 29.9453 128.551 32.1983Z" fill="#34334B"/>
<path d="M128.503 32.1129C128.503 32.1129 126.47 28.9775 131.269 27.0051C131.269 27.0051 132.588 28.2499 131.014 30.0841C129.481 31.9154 128.503 32.1129 128.503 32.1129Z" fill="#34334B"/>
<path d="M134.587 53.4009L129.642 55.6881L136.767 57.275L141.855 51.4849L134.587 53.4009Z" fill="#FCD2B1"/>
<path d="M150.456 54.0869C150.456 54.0869 146.491 51.3979 143.166 51.1639C142.016 53.5733 141.127 55.0546 141.133 55.1851C141.14 55.3156 143.116 58.361 143.116 58.361C143.116 58.361 147.73 59.1005 147.949 59.1337C148.169 59.1668 149.4 59.3698 149.4 59.3698C149.4 59.3698 149.758 58.6551 150.091 58.334C150.425 58.0128 150.456 54.0869 150.456 54.0869Z" fill="#FF8C4A"/>
<path fill-rule="evenodd" clip-rule="evenodd" d="M176.062 111.44C176.29 109.673 175.735 106.635 178.651 104.837C179.423 104.381 180.369 100.711 185.823 102.531C194.406 105.401 194.454 111.377 195.107 111.984C197.488 114.199 196.153 116.835 195.081 117.78C195.168 117.766 196.565 119.814 195.588 121.21C193.907 123.628 192.717 121.902 192.254 121.786C193.189 122.621 193.845 124.489 192.377 126.433C191.217 127.941 189.117 126.777 188.142 126.389C187.592 126.15 187.09 125.656 186.605 125.269C186.695 125.831 186.658 124.217 186.402 124.699C185.481 126.305 182.813 127.568 181.868 125.006C182.063 124.974 181.628 125.869 181.571 125.933C181.241 126.371 180.417 126.644 179.928 126.643C178.614 126.639 177.927 125.407 177.699 123.99C177.829 123.968 177.517 124.239 177.456 124.277C177.252 124.393 177.031 124.539 176.792 124.578C176.164 124.682 175.618 124.058 175.16 123.557C174.355 122.701 173.897 121.651 174.263 120.465C174.302 120.294 174.78 119.666 174.775 119.64C174.45 119.693 174.156 119.248 173.914 118.985C173.295 118.319 172.841 117.295 172.882 116.3C172.913 115.527 173.213 114.764 173.583 114.154C174.317 112.907 175.798 113.679 176.062 111.44Z" fill="#34334B"/>
<path fill-rule="evenodd" clip-rule="evenodd" d="M180.008 145.606C178.304 144.569 178.585 117.342 179.601 117.56C181.819 118.113 192.84 118.068 194.666 119.885C195.681 120.939 195.781 123.215 195.917 124.565C196.356 128.921 197.394 141.794 194.678 144.01C193.163 145.286 181.802 146.679 180.008 145.606Z" fill="#FF8C4A"/>
<path fill-rule="evenodd" clip-rule="evenodd" d="M192.936 121.177C195.025 121.569 195.13 124.745 195.149 126.915C195.232 129.961 195.235 133.064 194.909 136.084C194.654 138.739 195.955 143.107 193.08 143.101C191.643 143.097 191.245 141.074 191.271 139.164L191.509 136.157C191.487 136.027 191.464 135.898 191.485 135.762C191.112 131.562 191.643 127.403 191.786 123.081C191.854 122.184 191.898 122.177 192.02 121.848C192.179 121.469 192.396 121.17 192.936 121.177Z" fill="#FF8C4A"/>
<path fill-rule="evenodd" clip-rule="evenodd" d="M183.346 125.273C183.589 123.482 181.909 122.092 181.036 120.892C178.772 117.789 168.255 105.797 167.202 106.446C164.735 107.991 170.256 115.334 172.866 119.501C175.28 123.374 176.909 127.652 180.174 127.756C181.068 127.825 183.078 127.273 183.346 125.273Z" fill="#FCD2B1"/>
<path d="M183.315 142.779L187.929 133.746C188.653 128.526 189.301 126.858 187.122 122.618C186.567 121.537 185.029 121 184.3 119.77C182.793 117.24 180.968 117.816 179.562 118.644C176.364 120.56 175.88 121.597 175.694 123.67L175.269 138.706C175.195 141.724 181.288 144.733 183.315 142.779Z" fill="#FCD2B1"/>
<path d="M175.365 129.951C175.365 129.951 173.088 138.6 176.671 147.935L185.936 146.754C191.114 143.461 190.631 138.269 186.239 131.022C181.718 125.758 175.365 129.951 175.365 129.951Z" fill="#FCD2B1"/>
<path d="M181.927 123.234C183.188 123.425 184.31 122.54 184.448 121.29L184.924 116.976C185.071 115.71 184.155 114.547 182.91 114.367C181.665 114.186 180.526 115.061 180.389 116.311L179.912 120.625C179.775 121.876 180.681 123.054 181.927 123.234Z" fill="#FCD2B1"/>
<path d="M177.155 169.587C179.531 165.94 182.436 158.565 180.684 156.566C180.684 156.566 182.309 153.868 183.495 148.762C184.573 144.201 181.237 135.252 176.606 138.846C173.339 141.367 175.014 149.444 175.233 157.266C175.345 162.021 176.786 170.124 177.155 169.587Z" fill="#FCD2B1"/>
<path d="M193.573 161.516C193.901 158.858 192.318 155.888 191.986 154.935C191.986 154.935 191.115 152.516 190.44 146.981C189.837 142.038 183.096 134.01 179.717 139.064C177.327 142.615 182.049 150.269 185.191 158.113C187.1 162.877 189.389 171.241 190.067 171.077C193.581 170.243 193.573 161.516 193.573 161.516Z" fill="#FCD2B1"/>
<path fill-rule="evenodd" clip-rule="evenodd" d="M176.292 167.605C176.341 167.267 176.644 165.36 175.353 166.943C174.696 167.751 173.494 167.884 172.581 167.904C170.485 167.964 170.341 169.692 170.357 171.241C172.43 172.857 179.099 170.458 179.516 170.082C179.314 168.358 178.569 167.989 178.783 167.203C178.58 166.793 176.886 167.286 176.292 167.605Z" fill="#FF8C4A"/>
<path fill-rule="evenodd" clip-rule="evenodd" d="M191.061 168.665C191.136 168.36 191.584 166.636 190.098 167.947C189.343 168.617 188.047 168.601 187.068 168.515C184.818 168.329 184.553 169.906 184.47 171.337C186.585 173.066 193.884 171.619 194.355 171.321C194.25 169.708 193.477 169.281 193.756 168.581C193.617 168.177 191.719 168.439 191.061 168.665Z" fill="#FF8C4A"/>
<path fill-rule="evenodd" clip-rule="evenodd" d="M178.599 136.512C178.675 136.333 178.751 136.155 178.872 136.019C179.789 134.709 183.175 133.543 183.175 133.543C183.175 133.543 185.3 134.4 185.792 134.681C192.181 138.256 193.213 144.75 193.837 148.733C192.219 149.858 185.769 151.085 181.416 151.252C181.132 151.571 173.524 150.76 173.524 150.76C173.524 150.76 173.358 146.493 173.671 142.29C173.878 139.226 174.633 135.918 174.587 135.876C176.035 136.243 177.472 136.435 178.599 136.512Z" fill="#4E4C82"/>
<path fill-rule="evenodd" clip-rule="evenodd" d="M179.665 118.838C179.665 118.838 177.222 121.746 176.501 124.137C176.32 124.713 176.141 125.332 176.004 125.95C175.762 126.965 175.629 128.412 175.629 128.412C175.648 128.76 175.545 127.674 175.725 129.368C175.86 131.02 175.476 132.566 176.383 135.055L176.32 135.451C176.32 135.451 175.083 133.937 174.686 132.952C174.193 131.753 174.166 129.746 174.173 129.876C174.171 128.305 174.717 121.994 178.099 119.086C179.893 117.562 179.591 118.274 179.849 118.306C180.194 118.377 179.585 118.929 179.665 118.838Z" fill="#FF8C4A"/>
<path fill-rule="evenodd" clip-rule="evenodd" d="M184.68 120.029C184.68 120.029 182.163 121.847 180.833 121.224C178.72 120.207 179.519 118.487 179.426 118.58C179.312 118.666 177.581 119.283 176.383 121.863C174.965 124.951 174.14 135.73 174.106 136.148C174.093 136.573 176.152 138.93 179.733 138.991C187.95 139.156 189.647 136.53 189.951 136.428C190.206 136.335 189.579 124.493 187.305 121.693C186.75 121.033 185.502 120.267 184.68 120.029Z" fill="white"/>
<path fill-rule="evenodd" clip-rule="evenodd" d="M200.991 137.633C200.991 137.633 193.908 136.675 190.68 127.46C189.459 124.031 187.136 119.824 185.094 121.824C183.052 123.823 183.408 128.116 188.027 134.053C192.794 140.149 203.866 141.902 200.991 137.633Z" fill="#FCD2B1"/>
<path fill-rule="evenodd" clip-rule="evenodd" d="M200.054 139.433C200.965 139.428 201.199 139.629 201.892 139.962C202.344 140.168 201.954 139.718 201.759 139.494C202.445 139.9 203.63 140.759 203.723 140.565C203.816 140.371 203.121 139.694 202.481 139.191C202.481 139.191 204.383 140.162 204.507 140.018C204.794 139.706 202.759 138.609 202.759 138.609C203.686 138.8 204.582 139.285 204.644 139.041C204.759 138.627 201.767 137.289 200.061 136.885C199.243 136.696 198.069 136.794 198.069 136.794C198.069 136.794 199.611 139.497 200.054 139.433Z" fill="#FCD2B1"/>
<path fill-rule="evenodd" clip-rule="evenodd" d="M166.905 109.884C166.117 108.426 165.101 108.03 164.368 107.769C163.896 107.588 164.432 107.484 164.7 107.433C163.938 107.248 162.549 107.078 162.563 106.815C162.578 106.552 163.474 106.485 164.242 106.538C164.242 106.538 162.205 105.878 162.17 105.636C162.156 104.999 164.363 105.651 164.363 105.651C163.503 105.059 162.53 104.773 162.594 104.489C162.693 103.996 165.809 105.218 167.416 106.257C168.185 106.76 169.115 107.835 169.115 107.835C169.115 107.835 167.194 110.337 166.905 109.884Z" fill="#FCD2B1"/>
<path d="M176.796 112.321C176.663 116.737 179.483 117.424 181.422 118.024C184.314 118.898 192.642 116.757 192.775 112.342C192.908 107.927 187.664 104.48 184.715 104.109C181.752 103.725 176.929 107.906 176.796 112.321Z" fill="#FCD2B1"/>
<path d="M186.959 114.863C185.679 115.035 184.801 115.652 184.966 116.215C185.525 118.035 186.397 118.719 187.678 118.546C188.959 118.374 189.475 117.473 189.273 116.465C189.082 115.443 188.24 114.69 186.959 114.863Z" fill="#FCD2B1"/>
<path fill-rule="evenodd" clip-rule="evenodd" d="M182.261 103.977C181.375 106.601 181.572 109.54 182.947 112.094C183.399 112.943 183.576 113.828 184.048 114.685C184.945 116.33 186.419 116.829 187.28 116.044C188.303 115.128 189.136 116.328 189.043 116.956C188.858 118.138 189.569 118.007 189.801 117.953C190.034 117.899 190.262 117.647 190.446 117.524C191.5 116.941 192.225 115.854 192.697 114.739C193.205 113.515 193.708 111.18 193.235 109.904C191.672 105.721 186.874 102.938 186.224 102.749C184.965 102.386 182.585 102.876 182.087 104.351" fill="#34334B"/>
<path fill-rule="evenodd" clip-rule="evenodd" d="M187.79 120.717C187.79 120.717 186.267 121.793 186.227 121.839C185.943 122.114 186.567 121.037 185.337 122.754C183.472 125.33 184.06 128.881 184.499 130.563C185.165 133.237 187.065 135.024 189.438 136.832C191.182 138.146 189.636 137.303 190.688 137.733L191.519 138.042C191.519 138.042 189.896 138.119 187.998 137.118C183.409 134.717 181.065 128.151 181.974 124.572C182.492 122.409 184.309 120.489 186.683 120.071L188.147 120.22C188.847 120.492 187.662 120.723 187.79 120.717Z" fill="#FF8C4A"/>
<path fill-rule="evenodd" clip-rule="evenodd" d="M196.88 143.154C196.348 143.398 196.031 143.981 196.067 144.59C196.232 146.065 196.508 148.756 196.634 150.234C196.709 150.841 197.171 151.386 197.763 151.488C198.868 151.696 200.53 152.052 201.4 152.228C201.755 152.298 202.103 152.238 202.405 152.049C203.233 151.529 205.046 150.482 206.067 149.909C206.483 149.671 206.766 149.177 206.777 148.697C206.773 147.301 206.762 144.466 206.786 142.894C206.787 142.24 206.322 141.651 205.689 141.507C204.739 141.291 203.428 140.918 202.716 140.778C202.4 140.706 202.088 140.721 201.784 140.867C200.756 141.309 198.249 142.521 196.88 143.154Z" fill="#FCD2B1"/>
<path fill-rule="evenodd" clip-rule="evenodd" d="M201.905 152.691C201.803 151.695 201.667 150.746 201.527 149.751C201.448 149.117 201.37 148.484 201.291 147.85C201.204 147.081 200.951 146.091 201.092 145.357C201.234 144.623 201.823 144.371 202.333 144.077C203.133 143.589 203.89 143.011 204.608 142.435C205.255 141.908 205.898 141.335 206.545 140.807C206.759 140.616 207.121 140.374 207.4 140.59C208.357 141.368 208.225 143.42 208.226 144.603C208.227 146.377 208.33 149.147 207.286 150.555C206.661 151.4 205.672 151.897 204.837 152.432L201.905 152.691Z" fill="#FCD2B1"/>
<path fill-rule="evenodd" clip-rule="evenodd" d="M201.662 139.307L201.619 139.309L201.576 139.311L201.533 139.313L201.49 139.315L201.447 139.317L201.404 139.319L201.361 139.321L201.318 139.323L201.275 139.325L201.232 139.328L201.189 139.33L201.148 139.375L201.108 139.421L201.065 139.423L201.024 139.469L200.984 139.514L200.943 139.56L200.903 139.605L200.863 139.651L200.822 139.696L200.782 139.742L200.741 139.788L200.701 139.833L200.66 139.879L200.62 139.924L200.58 139.97L200.539 140.016L200.499 140.061L200.458 140.107L200.418 140.152L200.42 140.196L200.423 140.239L200.425 140.283L200.428 140.326L200.431 140.37L200.433 140.414L200.436 140.457L200.438 140.501L200.441 140.544L200.443 140.588L200.406 140.677L200.368 140.766L200.33 140.855L200.292 140.944L200.254 141.033L200.259 141.12L200.264 141.207L200.227 141.296L200.232 141.383L200.237 141.47L200.242 141.557L200.247 141.644L200.252 141.731L200.257 141.819L200.263 141.906L200.268 141.993L200.27 142.036L200.275 142.123L200.281 142.21L200.286 142.297L200.291 142.384L200.296 142.471L200.301 142.558L200.306 142.645L200.314 142.776L200.276 142.865L200.2 143.043L200.076 143.136L199.983 143.01L199.886 142.84L199.838 142.755L199.831 142.625L199.825 142.538L199.82 142.451L199.815 142.364L199.81 142.277L199.805 142.189L199.8 142.102L199.795 142.015L199.792 141.972L199.787 141.885L199.782 141.798L199.777 141.711L199.772 141.624L199.766 141.537L199.761 141.45L199.756 141.363L199.751 141.276L199.746 141.189L199.741 141.102L199.779 141.012L199.816 140.923L199.854 140.834L199.892 140.745L199.93 140.656L199.968 140.567L199.965 140.523L199.963 140.48L199.96 140.436L199.958 140.393L199.955 140.349L199.995 140.304L200.036 140.258L200.076 140.213L200.117 140.167L200.157 140.121L200.198 140.076L200.238 140.03L200.278 139.985L200.319 139.939L200.359 139.893L200.4 139.848L200.44 139.802L200.481 139.757L200.521 139.711L200.562 139.665L200.602 139.62L200.642 139.574L200.683 139.529L200.723 139.483L200.764 139.437L200.804 139.392L200.845 139.346L200.885 139.301L200.925 139.255L200.966 139.209L201.006 139.164L201.047 139.118L201.087 139.073L201.13 139.071L201.173 139.069L201.216 139.066L201.259 139.064L201.302 139.062L201.345 139.06L201.388 139.058L201.431 139.056L201.474 139.054L201.517 139.052L201.56 139.05L201.603 139.048L201.646 139.046L201.689 139.044L201.732 139.042L201.775 139.039L201.818 139.037L201.861 139.035L201.904 139.033L201.947 139.031L201.99 139.029L202.033 139.027L202.076 139.025L202.119 139.023L202.162 139.021L202.205 139.019L202.248 139.017L202.291 139.015L202.334 139.012L202.377 139.01L202.42 139.008L202.463 139.006L202.506 139.004L202.549 139.002L202.595 139.044L202.641 139.085L202.686 139.126L202.732 139.168L202.777 139.209L202.823 139.251L202.868 139.292L202.914 139.334L202.96 139.375L203.005 139.417L203.051 139.458L203.096 139.499L203.142 139.541L203.187 139.582L203.19 139.626L203.193 139.669L203.195 139.713L203.241 139.754L203.289 139.839L203.337 139.924L203.385 140.009L203.433 140.094L203.481 140.179L203.53 140.264L203.578 140.349L203.626 140.434L203.674 140.519L203.722 140.604L203.727 140.691L203.732 140.778L203.738 140.865L203.743 140.952L203.748 141.039L203.753 141.126L203.758 141.213L203.763 141.3L203.768 141.387L203.774 141.474L203.779 141.561L203.784 141.648L203.789 141.735L203.794 141.822L203.799 141.909L203.804 141.996L203.812 142.127L203.82 142.257L203.828 142.388L203.833 142.475L203.835 142.519L203.636 142.79L203.365 142.585L203.362 142.541L203.357 142.454L203.349 142.324L203.342 142.193L203.334 142.063L203.329 141.976L203.324 141.889L203.319 141.802L203.313 141.715L203.308 141.628L203.303 141.541L203.298 141.454L203.293 141.366L203.288 141.279L203.283 141.192L203.277 141.105L203.272 141.018L203.267 140.931L203.262 140.844L203.257 140.757L203.252 140.67L203.204 140.585L203.158 140.544L203.112 140.502L203.067 140.461L203.021 140.419L202.976 140.378L202.93 140.337L202.885 140.295L202.839 140.254L202.793 140.212L202.748 140.171L202.745 140.127L202.743 140.084L202.74 140.04L202.738 139.997L202.735 139.953L202.692 139.955L202.649 139.957L202.606 139.959L202.563 139.962L202.52 139.964L202.477 139.966L202.434 139.968L201.662 139.307Z" fill="#FCD2B1"/>
</svg>
