<svg width="237" height="192" viewBox="0 0 237 192" fill="none" xmlns="http://www.w3.org/2000/svg">
<path d="M8.90279 101.5C15.7435 51.4898 76.8161 7.97976 145.789 17.9486C214.762 27.9174 233.516 51.387 226.675 101.397C219.835 151.407 158.375 183.867 89.4024 173.898C20.4294 163.93 2.06203 151.51 8.90279 101.5Z" fill="#D3D3D3" fill-opacity="0.23"/>
<path fill-rule="evenodd" clip-rule="evenodd" d="M57.7698 140.216C59.2338 139.045 55.5028 111.724 54.6036 112.061C52.5794 112.782 42.2796 113.616 40.795 115.579C39.9664 116.707 40.1766 119.032 40.2204 120.416C40.3597 124.817 40.9991 137.822 43.8375 139.828C45.4646 140.932 56.2618 141.437 57.7698 140.216Z" fill="#4E4C82"/>
<path fill-rule="evenodd" clip-rule="evenodd" d="M43.5539 115.697C41.6381 116.261 41.7808 119.53 41.9237 121.696C42.079 124.816 42.3271 127.942 42.82 130.936C43.2455 133.623 42.3962 138.125 45.0292 137.912C46.3457 137.806 46.5698 135.717 46.41 133.75L45.9677 130.71C45.9804 130.561 45.9889 130.461 45.9552 130.308C45.9901 126.049 45.1768 121.879 44.7096 117.484C44.6001 116.574 44.5494 116.62 44.3934 116.258C44.2838 115.899 44.0265 115.63 43.5539 115.697Z" fill="#34334B"/>
<path fill-rule="evenodd" clip-rule="evenodd" d="M52.5118 122.18C52.0378 120.487 53.3642 118.996 53.9449 117.802C55.5178 114.647 63.2559 102.409 64.2869 102.973C66.712 104.277 62.7922 111.726 61.058 115.925C59.4421 119.795 58.587 124.047 55.691 124.353C54.8923 124.458 53.0389 124.064 52.5118 122.18Z" fill="#FCD2B1"/>
<path fill-rule="evenodd" clip-rule="evenodd" d="M54.5278 115.988L56.6545 111.944L61.6514 115.442L58.8136 122.738C58.8136 122.738 54.3055 118.209 54.5278 115.988Z" fill="white"/>
<path d="M54.3384 138.587L48.6815 130.529C47.1714 125.709 46.2985 124.206 47.5596 120.037C47.8797 118.978 49.1669 118.315 49.6201 117.121C50.565 114.6 52.3039 114.986 53.7086 115.643C56.8946 117.14 57.5184 118.074 58.0306 120L60.9214 134.02C61.4796 136.835 56.498 140.225 54.3384 138.587Z" fill="#FCD2B1"/>
<path d="M58.1799 125.949C58.1799 125.949 61.8181 134.088 60.5473 143.173L52.3706 142.538C47.2776 139.67 46.6923 134.691 49.0644 127.536C51.9157 122.282 58.1799 125.949 58.1799 125.949Z" fill="#FCD2B1"/>
<path d="M53.1541 120.107C52.0474 120.401 50.887 119.679 50.5476 118.51L49.4067 114.51C49.0674 113.341 49.7031 112.168 50.8098 111.874C51.9165 111.579 53.0769 112.302 53.4163 113.471L54.5572 117.471C54.8966 118.64 54.2608 119.813 53.1541 120.107Z" fill="#FCD2B1"/>
<path d="M53.9734 157.008C53.1865 154.809 53.8762 151.901 53.9384 151.017C53.9384 151.017 54.1494 148.745 53.6192 143.864C53.1258 139.507 55.0053 130.275 58.6989 133.854C61.3001 136.355 60.9591 144.79 59.9998 152.226C59.4127 156.742 59.2369 164.408 58.6554 164.43C55.674 164.49 53.9734 157.008 53.9734 157.008Z" fill="#FCD2B1"/>
<path fill-rule="evenodd" clip-rule="evenodd" d="M54.4437 132.606C54.4437 132.606 57.231 132.619 60.2366 131.326C60.0834 131.33 62.5515 149.584 62.2801 150.005C62.0086 150.426 52.8907 150.526 52.5981 150.179C52.5493 150.122 50.5444 144.325 51.0383 140.057C51.5103 135.788 54.4812 133.048 54.4437 132.606Z" fill="#FF8C4A"/>
<path d="M36.3588 151.575C36.9521 149.243 39.2104 147.381 39.7716 146.71C39.7716 146.71 41.2567 145.024 43.6095 140.707C45.6932 136.839 53.7485 132.73 54.8534 138.212C55.6173 142.08 49.3309 146.629 44.225 151.943C41.1302 155.177 36.5752 161.246 36.0669 160.855C33.5082 158.818 36.3588 151.575 36.3588 151.575Z" fill="#FCD2B1"/>
<path fill-rule="evenodd" clip-rule="evenodd" d="M59.0953 163.223C58.9381 162.986 58.0277 161.483 59.6548 162.212C60.4936 162.567 61.5555 162.095 62.3804 161.674C64.1986 160.74 64.9029 162.119 65.4192 163.435C64.1878 165.823 57.617 167.001 57.1396 166.909C56.7211 165.363 57.2352 164.661 56.8178 164.124C56.8435 163.659 58.484 163.243 59.0953 163.223Z" fill="#34334B"/>
<path fill-rule="evenodd" clip-rule="evenodd" d="M35.9526 159.946C36.0499 159.688 36.7102 158.139 37.0264 160.027C37.205 160.992 38.1362 161.797 38.9012 162.398C40.5918 163.721 39.9147 165.018 39.1855 166.105C36.698 165.999 32.2698 160.229 32.084 159.73C33.0415 158.633 33.8546 158.81 34.0409 158.168C34.4102 157.983 35.5709 159.371 35.9526 159.946Z" fill="#34334B"/>
<path fill-rule="evenodd" clip-rule="evenodd" d="M56.4934 139.848C56.8824 138.537 56.6051 135.666 56.6051 135.666C56.6051 135.666 54.7249 134.929 54.2549 134.745C47.135 131.941 48.5511 134.082 40.7427 143.728C41.2576 145.658 45.2926 149.594 48.2425 151.669C50.4037 150.509 54.776 145.757 56.4934 139.848Z" fill="#FF8C4A"/>
<path fill-rule="evenodd" clip-rule="evenodd" d="M49.1046 117.107C49.1046 117.107 51.6342 118.734 52.6558 118.042C54.2965 116.961 53.2609 115.363 53.3904 115.449C53.5002 115.542 55.5696 115.725 57.0985 118.146C58.9192 121.029 61.2557 131.611 61.3588 132.011C61.4619 132.412 60.1216 134.782 57.0379 135.039C49.9512 135.622 48.3051 135.24 48.0371 135.156C47.799 135.086 45.7196 121.662 47.1544 118.867C47.5033 118.172 48.4348 117.379 49.1046 117.107Z" fill="white"/>
<path fill-rule="evenodd" clip-rule="evenodd" d="M36.6371 139.31C36.6371 139.31 41.1676 128.85 47.5506 126.071C50.1509 124.952 51.5064 121.912 49.9397 119.437C48.3729 116.961 44.863 118.433 40.3844 123.94C33.9603 131.746 32.9685 142.153 36.6371 139.31Z" fill="#FCD2B1"/>
<path fill-rule="evenodd" clip-rule="evenodd" d="M35.9441 138.938C35.4362 139.877 35.5465 140.127 35.5518 140.944C35.496 141.477 35.2753 140.978 35.125 140.676C35.2194 141.511 35.476 142.969 35.2486 142.968C35.0213 142.967 34.6596 142.077 34.4762 141.224C34.4762 141.224 34.4708 143.444 34.2833 143.497C33.81 143.672 33.6957 141.291 33.6957 141.291C33.4059 142.32 33.4816 143.334 33.1652 143.314C32.7105 143.312 32.7571 139.83 33.2198 138.02C33.4512 137.115 34.116 135.981 34.116 135.981C34.116 135.981 36.1688 138.53 35.9441 138.938Z" fill="#FCD2B1"/>
<path fill-rule="evenodd" clip-rule="evenodd" d="M52.8149 119.679C52.8149 119.679 50.5482 115.08 43.5536 120.828L40.569 123.446L43.9377 129.167C43.9026 129.103 54.0675 123.402 52.8149 119.679Z" fill="white"/>
<path fill-rule="evenodd" clip-rule="evenodd" d="M65.5512 106.268C66.2257 104.787 67.1794 104.287 67.8487 103.965C68.2755 103.698 67.8323 103.686 67.5605 103.664C68.259 103.42 69.4928 103.081 69.4553 102.864C69.4179 102.647 68.6318 102.657 67.9041 102.823C67.9041 102.823 69.7195 101.929 69.7322 101.728C69.7996 101.205 67.8336 102.049 67.8336 102.049C68.6287 101.359 69.4694 101.026 69.4027 100.731C69.3278 100.296 66.4875 101.735 65.0816 102.903C64.3786 103.487 63.5581 104.578 63.5581 104.578C63.5581 104.578 65.3334 106.741 65.5512 106.268Z" fill="#FCD2B1"/>
<path d="M56.6694 109.245C57.2734 113.361 54.7275 114.331 52.9642 115.083C50.3526 116.215 42.3104 115.121 41.7064 111.005C41.1024 106.889 45.6275 103.07 48.3477 102.417C51.0811 101.749 56.0655 105.129 56.6694 109.245Z" fill="#FCD2B1"/>
<path d="M47.3373 112.714C48.5603 112.736 49.4532 113.227 49.3494 113.752C49.0387 115.526 48.2977 116.243 47.0746 116.222C45.8516 116.2 45.2763 115.426 45.3515 114.444C45.4134 113.478 46.1142 112.693 47.3373 112.714Z" fill="#FCD2B1"/>
<path fill-rule="evenodd" clip-rule="evenodd" d="M48.98 115.585C48.98 115.585 48.045 118.67 43.4189 115.867C39.5324 113.488 40.968 111.897 40.671 111.328C38.0839 106.253 39.7396 103.369 42.8112 101.557C44.2288 100.721 43.833 99.0015 45.2729 97.9426C45.7791 97.5742 48.4361 97.6802 48.1915 100.614C48.1991 100.703 49.0492 99.0387 49.4468 98.8506C51.7498 97.7242 54.0848 102.274 52.1572 103.435C49.247 105.199 47.4697 106.666 46.7895 109.345C46.0381 112.16 49.4343 112.202 48.9182 113.901C48.8883 114.035 48.0025 113.837 47.8787 113.84C47.631 113.847 46.6816 113.872 46.4339 113.879C45.7735 113.897 45.5326 116.875 48.98 115.585Z" fill="#34334B"/>
<path fill-rule="evenodd" clip-rule="evenodd" d="M54.7727 116.181C54.7727 116.181 57.2624 118.696 58.3705 120.937C58.6295 121.5 58.9245 122.058 59.1476 122.625C59.5553 123.566 60.023 124.994 60.023 124.994C60.0901 125.333 59.9151 124.264 60.1693 125.918C60.4594 127.567 61.1166 129.022 61.0397 131.609L61.1884 131.987C61.1884 131.987 61.745 130.332 61.841 129.328C61.925 128.079 61.4597 126.104 61.4885 126.249C61.1456 124.706 59.2245 118.55 56.0248 116.173C54.3338 114.897 54.7296 115.591 54.5593 115.662C54.281 115.746 54.8903 116.216 54.7727 116.181Z" fill="#4E4C82"/>
<path fill-rule="evenodd" clip-rule="evenodd" d="M45.2175 117.809C45.2175 117.809 46.8175 118.698 46.8594 118.693C47.1625 118.914 46.3591 117.929 47.8415 119.502C50.1177 121.804 50.5029 125.572 50.6016 127.313C50.7175 130.186 49.5577 132.286 47.9889 134.487C46.8202 136.124 47.9661 135.005 47.1467 135.62L46.5061 136.059C46.5061 136.059 47.9317 135.886 49.3402 134.581C52.6831 131.391 53.0008 124.341 51.2946 120.836C50.2542 118.694 48.2377 117.031 46.0692 116.933L44.8209 117.342C44.2538 117.72 45.3433 117.794 45.2175 117.809Z" fill="#4E4C82"/>
<path d="M90.1286 33.3017C92.5321 31.5372 92.8554 27.959 90.8506 25.3096C88.8459 22.6601 85.2723 21.9427 82.8688 23.7072C80.4653 25.4717 80.142 29.0499 82.1467 31.6993C84.1515 34.3488 87.7251 35.0662 90.1286 33.3017Z" fill="#34334B"/>
<path d="M88.4795 39.5697C90.4609 38.115 90.7253 35.1623 89.0699 32.9746C87.4146 30.7869 84.4665 30.1927 82.485 31.6473C80.5036 33.1019 80.2393 36.0546 81.8946 38.2423C83.55 40.43 86.4981 41.0243 88.4795 39.5697Z" fill="#4E4C82"/>
<path d="M83.5385 48.8525L84.4953 56.4884C84.6921 58.1216 85.5103 57.8838 86.8272 57.8129C87.9658 57.7898 88.9991 57.5034 88.9444 56.1327L87.449 46.4723L83.5385 48.8525Z" fill="#FCD2B1"/>
<path d="M92.5129 38.6915C93.0074 43.1605 90.2749 46.8038 86.3749 46.8887C82.4749 46.9737 78.9462 43.4218 78.4566 38.9975C77.9621 34.5284 80.7589 31.4661 84.659 31.3812C88.559 31.2963 92.0234 34.2671 92.5129 38.6915Z" fill="#34334B"/>
<path d="M94.3876 42.4024C94.5162 43.5643 93.7665 44.5213 92.7098 44.5443C91.6531 44.5673 90.6957 43.6475 90.5672 42.4856C90.4386 41.3237 91.1882 40.3667 92.2449 40.3437C93.3016 40.3207 94.259 41.2405 94.3876 42.4024Z" fill="#FCD2B1"/>
<path d="M78.9184 45.2013C79.9734 45.1783 80.7245 44.2194 80.5961 43.0595C80.4677 41.8995 79.5085 40.9778 78.4535 41.0008C77.3985 41.0237 76.6473 41.9827 76.7757 43.1426C76.9041 44.3026 77.8634 45.2243 78.9184 45.2013Z" fill="#FCD2B1"/>
<path d="M91.3121 38.79C91.534 41.3985 91.3585 43.7077 91.1642 45.3083C90.9698 46.9089 90.0744 48.041 88.7481 48.9632L88.5158 49.1468C87.1107 50.1155 85.2594 50.21 83.6964 49.3217C82.1334 48.4334 80.96 47.2687 80.4873 45.5976C79.6469 42.5183 79.2748 39.1161 79.2748 39.1161C79.2748 39.1161 78.1335 32.4998 84.6581 32.456C91.1827 32.4121 91.3121 38.79 91.3121 38.79Z" fill="#FCD2B1"/>
<path d="M89.1005 33.2116C89.1005 33.2116 88.1433 40.7871 78.7489 40.3654C78.7489 40.3654 78.4925 32.9573 82.9589 32.2082C82.9589 32.2082 87.3369 31.4165 89.1005 33.2116Z" fill="#34334B"/>
<path d="M86.9452 32.3926C86.9452 32.3926 87.7053 37.5016 91.7976 40.3089L92.1652 37.8667C92.1652 37.8667 92.3498 32.7761 86.9452 32.3926Z" fill="#34334B"/>
<path d="M80.2545 39.0965L79.4691 42.2932L78.7599 39.1376L80.2545 39.0965Z" fill="#34334B"/>
<path d="M90.3761 38.5845L91.6763 41.4625L91.8788 38.5434L90.3761 38.5845Z" fill="#34334B"/>
<path d="M83.6207 162.811L82.3136 151.757L86.7539 151.392L87.6619 162.985L83.6207 162.811Z" fill="#FCD2B1"/>
<path d="M88.1082 160.465C88.1082 160.465 84.5433 162.387 82.3671 159.475L74.627 165.283L89.9438 164.86L88.1082 160.465Z" fill="#34334B"/>
<path d="M74.2648 166.793L89.9803 166.337L89.7405 164.447L74.025 164.904L74.2648 166.793Z" fill="#34334B"/>
<path d="M117.085 161.384L113.879 150.314L109.216 150.15L112.951 161.741L117.085 161.384Z" fill="#FCD2B1"/>
<path d="M111.449 158.974C111.449 158.974 115.532 160.757 116.885 157.78L126.205 163.276L110.848 163.414L111.449 158.974Z" fill="#34334B"/>
<path d="M126.099 162.815L110.372 162.99L110.591 164.94L126.317 164.765L126.099 162.815Z" fill="#34334B"/>
<path d="M92.2493 153.211L88.4984 90.8771L89.4477 90.7669L108.737 152.876L115.474 151.882L101.149 92.0885C101.149 92.0885 97.6 81.4796 92.4159 75.149L82.8573 74.485C82.8573 74.485 75.8803 85.1148 77.1697 96.1732C78.4592 107.232 84.8895 153.38 84.8895 153.38" fill="#FF8C4A"/>
<path d="M74.6252 61.0501L72.1852 79.8364C71.9458 81.2997 72.9457 82.7781 74.2799 82.9677C75.301 83.1205 76.5035 82.3856 76.7398 81.2757L80.4813 63.1215C80.9168 61.3003 79.9022 59.2921 78.2579 58.7122C76.5705 58.0891 74.8974 59.1443 74.6252 61.0501Z" fill="#FCD2B1"/>
<path d="M70.7081 80.4527L71.0665 99.6035L74.0675 99.3614L74.9717 81.0196C75.0283 79.5649 74.0214 77.8254 72.8252 77.6314C71.5935 77.4383 70.6534 78.9564 70.7081 80.4527Z" fill="#FCD2B1"/>
<path d="M69.9293 98.1593C69.9293 98.1593 66.1329 104.898 71.1928 108.298C71.5262 108.513 71.9438 108.46 72.1381 108.145L72.1714 108.1C72.399 107.74 72.3752 107.208 72.0647 106.859C71.3461 105.987 70.3369 104.277 71.7076 102.161C71.7076 102.161 72.5126 102.455 72.4508 104.232C72.4257 104.676 72.785 105.113 73.1642 105.06C73.4332 105.055 73.6379 104.829 73.717 104.516C73.9281 103.358 74.2011 100.422 72.5052 98.771L69.9293 98.1593Z" fill="#FCD2B1"/>
<path d="M92.8941 57.3957L119.289 80.7305L121.81 76.9615L97.1437 53.759C96.0291 52.4953 93.6926 52.1117 92.5734 53.2119L92.6872 53.0751C91.6099 54.1742 91.6998 56.1788 92.8941 57.3957Z" fill="#FCD2B1"/>
<path d="M83.7641 54.022L77.9891 59.0046L84.9061 75.3385L94.869 76.0565L94.4858 60.9165L93.1324 52.9708L83.7641 54.022Z" fill="#FCD2B1"/>
<path d="M81.202 55.9861C81.202 55.9861 82.9987 60.4279 86.7112 59.4065C90.4236 58.3851 89.9736 53.2421 89.9736 53.2421L94.8827 52.7325L95.1408 72.9795L82.5125 73.2531L77.1108 58.3599L81.202 55.9861Z" fill="#4E4C82"/>
<path d="M158.533 165.77L156.523 151.052L151.633 150.839L154.252 166.207L158.533 165.77Z" fill="#FCD2B1"/>
<path d="M152.498 162.883C152.498 162.883 157.239 165.017 158.713 161.485L170.511 168.07L152.085 168.223L152.498 162.883Z" fill="#34334B"/>
<path d="M170.267 167.475L151.242 167.632L151.567 170.003L170.592 169.846L170.267 167.475Z" fill="white"/>
<path d="M114.995 167.97L117.905 152.999L123.145 152.589L119.752 168.238L114.995 167.97Z" fill="#FCD2B1"/>
<path d="M120.213 165.092C120.213 165.092 116.235 167.366 113.553 163.901L104.092 170.829L122.463 170.39L120.213 165.092Z" fill="#34334B"/>
<path d="M103.598 172.537L122.608 172.037L122.256 169.748L103.246 170.248L103.598 172.537Z" fill="white"/>
<path d="M149.773 90.5531L161.382 159.571L149.325 159.969L138.711 101.525L127.397 159.204L114.045 157.984L126.028 91.0744L149.773 90.5531Z" fill="#34334B"/>
<path d="M126.638 72.4153C126.638 72.4153 122.599 88.2967 121.624 105.348L118.542 104.664C118.542 104.664 117.928 84.1168 120.221 68.8021L126.638 72.4153Z" fill="#FCD2B1"/>
<path d="M116.156 103.168C116.156 103.168 111.712 111.206 117.767 115.387C118.181 115.645 118.635 115.591 118.898 115.231L118.931 115.186C119.228 114.78 119.154 114.16 118.795 113.723C117.904 112.676 116.695 110.57 118.31 108.051C118.31 108.051 119.27 108.386 119.223 110.563C119.21 111.096 119.617 111.62 120.114 111.61C120.42 111.603 120.694 111.331 120.766 110.974C120.98 109.549 121.332 106.079 119.249 104.036L116.156 103.168Z" fill="#FCD2B1"/>
<path d="M127.209 56.8677C127.209 56.8677 122.866 58.3878 120.424 68.2532L129.36 73.7735L130.602 68.4631L127.209 56.8677Z" fill="#FF8C4A"/>
<path d="M151.606 69.1542C151.606 69.1542 158.727 84.7845 163.296 101.704L166.009 100.896C166.009 100.896 162.162 80.4344 156.749 65.2964L151.606 69.1542Z" fill="#FCD2B1"/>
<path d="M165.082 99.0606C165.082 99.0606 170.992 106.876 166.364 111.273C166.053 111.546 165.592 111.511 165.284 111.163L165.241 111.119C164.89 110.727 164.817 110.108 165.031 109.66C165.591 108.584 166.254 106.442 164.176 104.002C164.176 104.002 163.381 104.373 163.902 106.535C164.04 107.064 163.761 107.602 163.304 107.612C163 107.618 162.703 107.358 162.585 107.006C162.039 105.598 160.949 102.162 162.416 100.047L165.082 99.0606Z" fill="#FCD2B1"/>
<path d="M150.513 53.8436C150.513 53.8436 154.81 55.1634 159.017 64.8645L151.854 70.7486L149.652 65.5235L150.513 53.8436Z" fill="#FF8C4A"/>
<path d="M142.073 51.0565L145.482 55.996C146.592 56.4152 148.151 58.8216 148.181 60.1968C148.195 60.3296 148.17 60.4633 148.223 60.5953L154.006 91.3128L129.379 95.1443L127.07 58.2248C126.774 57.2994 126.962 56.8514 127.672 56.4805L133.134 53.7406L142.073 51.0565Z" fill="#FF8C4A"/>
<path d="M139.726 53.8504L138.61 46.0576L133.218 45.9995L133.885 55.1348C133.955 56.1549 134.682 55.9167 135.586 55.8522L138.529 55.6092C139.32 55.5917 139.866 54.78 139.726 53.8504Z" fill="#FCD2B1"/>
<path d="M133.617 47.8545L139.639 51.3148L138.978 46.1017L133.617 47.8545Z" fill="#FCD2B1"/>
<path d="M145.858 40.3476C146.002 41.6432 145.183 42.691 144.047 42.7157C142.911 42.7403 141.864 41.733 141.721 40.4374C141.577 39.1418 142.396 38.094 143.531 38.0694C144.672 38.0894 145.719 39.0967 145.858 40.3476Z" fill="#FCD2B1"/>
<path d="M126.363 41.169C126.507 42.4646 127.554 43.4719 128.69 43.4472C129.825 43.4226 130.644 42.3748 130.5 41.0792C130.356 39.7837 129.309 38.7764 128.174 38.8011C127.038 38.8257 126.224 39.9181 126.363 41.169Z" fill="#FCD2B1"/>
<path d="M142.345 36.5416C142.595 39.459 142.439 41.9887 142.183 43.8122C141.963 45.5903 140.995 46.8127 139.559 47.8705L139.286 48.0551C137.771 49.1593 135.755 49.2137 134.022 48.2415C132.288 47.2692 131.064 45.9731 130.531 44.0823C129.582 40.6963 129.216 36.8959 129.216 36.8959C129.216 36.8959 127.968 29.5305 135.058 29.472C142.19 29.4125 142.345 36.5416 142.345 36.5416Z" fill="#FCD2B1"/>
<path d="M129.678 40.019C129.678 40.019 130.437 34.8189 129.205 31.4666C129.205 31.4666 126.555 33.374 129.678 40.019Z" fill="#34334B"/>
<path d="M142.89 39.3888C142.89 39.3888 140.77 34.2549 141.392 30.8574C141.357 30.8583 144.413 32.1919 142.89 39.3888Z" fill="#34334B"/>
<path d="M129.61 32.1354C129.61 32.1354 139.716 37.3926 142.725 33.05C142.725 33.05 145.201 29.5931 141.58 27.0307C137.959 24.4683 131.13 29.203 131.13 29.203C131.13 29.203 129.51 29.6935 129.61 32.1354Z" fill="#34334B"/>
<path d="M129.486 32.2957C129.486 32.2957 127.397 28.9336 131.799 27.1516C131.799 27.1516 133.109 28.5145 131.732 30.3299C130.394 32.1446 129.486 32.2957 129.486 32.2957Z" fill="#34334B"/>
<path d="M135.318 53.4889L130.508 55.7662L137.596 57.5865L142.434 51.6524L135.318 53.4889Z" fill="#FCD2B1"/>
<path d="M151.208 54.2544C151.208 54.2544 147.243 51.5654 143.918 51.3313C142.768 53.7407 141.879 55.222 141.886 55.3526C141.892 55.4831 143.868 58.5285 143.868 58.5285C143.868 58.5285 148.482 59.268 148.702 59.3011C148.921 59.3343 150.152 59.5373 150.152 59.5373C150.152 59.5373 150.51 58.8225 150.844 58.5014C151.177 58.1803 151.208 54.2544 151.208 54.2544Z" fill="#FF8C4A"/>
<path fill-rule="evenodd" clip-rule="evenodd" d="M177.044 111.204C177.135 109.403 176.398 106.271 179.023 104.539C179.72 104.1 180.354 100.378 185.629 102.446C193.93 105.706 194.395 111.828 195.054 112.473C197.456 114.832 196.382 117.481 195.437 118.409C195.518 118.397 196.98 120.547 196.156 121.941C194.74 124.354 193.496 122.542 193.05 122.406C193.991 123.295 194.742 125.234 193.493 127.169C192.505 128.671 190.441 127.4 189.494 126.965C188.958 126.7 188.449 126.176 187.964 125.761C188.089 126.34 187.941 124.686 187.733 125.17C186.976 126.78 184.548 127.974 183.476 125.314C183.657 125.289 183.31 126.189 183.261 126.253C182.981 126.69 182.222 126.938 181.76 126.918C180.52 126.866 179.785 125.578 179.471 124.118C179.592 124.101 179.316 124.367 179.261 124.403C179.077 124.514 178.879 124.656 178.656 124.687C178.07 124.769 177.512 124.11 177.044 123.58C176.224 122.673 175.718 121.581 175.98 120.38C176.005 120.206 176.412 119.581 176.406 119.554C176.103 119.596 175.794 119.129 175.547 118.851C174.916 118.145 174.416 117.08 174.385 116.063C174.36 115.272 174.59 114.501 174.895 113.891C175.501 112.642 176.953 113.488 177.044 111.204Z" fill="#34334B"/>
<path fill-rule="evenodd" clip-rule="evenodd" d="M181.865 145.773C180.214 144.672 179.206 117.059 180.172 117.309C182.284 117.932 192.648 118.199 194.45 120.094C195.454 121.192 195.654 123.504 195.845 124.878C196.462 129.309 198.04 142.398 195.589 144.569C194.224 145.82 183.603 146.912 181.865 145.773Z" fill="#FF8C4A"/>
<path fill-rule="evenodd" clip-rule="evenodd" d="M192.883 121.305C194.68 121.755 195.01 124.944 195.191 127.121C195.493 130.18 195.731 133.293 195.685 136.313C195.67 138.969 197.103 143.387 194.671 143.302C193.455 143.259 192.964 141.219 192.841 139.303L192.814 136.294C192.785 136.163 192.757 136.032 192.764 135.896C192.129 131.673 192.262 127.515 192.055 123.183C192.045 122.285 192.081 122.28 192.16 121.953C192.265 121.577 192.426 121.283 192.883 121.305Z" fill="#FF8C4A"/>
<path fill-rule="evenodd" clip-rule="evenodd" d="M184.046 125.703C184.243 123.893 182.579 122.454 181.703 121.222C179.434 118.036 168.944 105.692 167.935 106.33C165.573 107.849 171.104 115.391 173.733 119.66C176.167 123.629 177.846 127.993 181.021 128.159C181.891 128.246 183.832 127.724 184.046 125.703Z" fill="#FCD2B1"/>
<path d="M183.079 142.943L188.205 133.898C189.288 128.676 190.037 127.007 188.24 122.77C187.784 121.69 186.336 121.156 185.72 119.928C184.449 117.4 182.641 117.98 181.22 118.811C177.986 120.735 177.442 121.774 177.111 123.848L175.596 138.887C175.303 141.906 180.975 144.903 183.079 142.943Z" fill="#FCD2B1"/>
<path d="M177.221 130.158C177.221 130.158 174.371 138.923 176.974 148.273L185.784 146.913C190.924 143.497 190.895 138.27 187.359 131.04C183.54 125.813 177.221 130.158 177.221 130.158Z" fill="#FCD2B1"/>
<path d="M182.376 123.404C183.587 123.592 184.74 122.705 184.962 121.454L185.733 117.138C185.966 115.871 185.161 114.711 183.965 114.532C182.769 114.354 181.601 115.231 181.378 116.482L180.607 120.798C180.385 122.049 181.18 123.225 182.376 123.404Z" fill="#FCD2B1"/>
<path d="M179.08 169.771C180.968 166.169 183.117 158.835 181.468 156.778C181.468 156.778 182.747 154.11 183.51 149.01C184.207 144.455 180.784 135.368 176.911 138.856C174.177 141.301 176.093 149.465 176.715 157.334C177.074 162.116 178.785 170.301 179.08 169.771Z" fill="#FCD2B1"/>
<path d="M194.594 161.792C194.565 159.149 192.811 156.152 192.404 155.194C192.404 155.194 191.345 152.763 190.085 147.228C188.96 142.286 182.045 134.132 179.665 139.096C177.98 142.584 183.068 150.321 186.783 158.212C189.04 163.006 192.063 171.396 192.643 171.247C195.647 170.494 194.594 161.792 194.594 161.792Z" fill="#FCD2B1"/>
<path fill-rule="evenodd" clip-rule="evenodd" d="M177.092 167.776C177.149 167.439 177.501 165.533 176.174 167.112C175.499 167.918 174.3 168.048 173.39 168.065C171.302 168.119 171.113 169.846 171.089 171.396C173.11 173.017 179.811 170.637 180.236 170.262C180.08 168.538 179.349 168.166 179.582 167.381C179.391 166.971 177.692 167.459 177.092 167.776Z" fill="#FF8C4A"/>
<path fill-rule="evenodd" clip-rule="evenodd" d="M191.812 168.848C191.886 168.543 192.332 166.824 190.848 168.12C190.093 168.782 188.797 168.755 187.818 168.659C185.568 168.451 185.304 170.026 185.223 171.455C187.34 173.204 194.637 171.828 195.108 171.534C195.001 169.92 194.227 169.487 194.506 168.789C194.367 168.384 192.469 168.628 191.812 168.848Z" fill="#FF8C4A"/>
<path fill-rule="evenodd" clip-rule="evenodd" d="M179.281 136.427C179.349 136.246 179.418 136.066 179.532 135.928C180.385 134.609 183.653 133.493 183.653 133.493C183.653 133.493 185.752 134.421 186.241 134.721C192.586 138.533 193.797 145.209 194.531 149.304C192.987 150.418 186.732 151.524 182.49 151.593C182.224 151.913 174.775 150.904 174.775 150.904C174.775 150.904 174.48 146.528 174.653 142.23C174.76 139.097 175.392 135.726 175.347 135.682C176.77 136.092 178.178 136.322 179.281 136.427Z" fill="#4E4C82"/>
<path fill-rule="evenodd" clip-rule="evenodd" d="M180.006 119.005C180.006 119.005 177.82 121.881 177.221 124.272C177.07 124.848 176.922 125.468 176.814 126.086C176.619 127.103 176.539 128.557 176.539 128.557C176.568 128.908 176.439 127.812 176.657 129.521C176.833 131.187 176.522 132.735 177.442 135.259L177.395 135.656C177.395 135.656 176.198 134.107 175.799 133.107C175.303 131.889 175.218 129.869 175.229 130.001C175.179 128.419 175.496 122.078 178.555 119.221C180.179 117.725 179.92 118.436 180.161 118.473C180.484 118.552 179.934 119.095 180.006 119.005Z" fill="#FF8C4A"/>
<path fill-rule="evenodd" clip-rule="evenodd" d="M186.105 120.056C186.105 120.056 183.583 121.948 182.375 121.347C180.455 120.367 181.345 118.611 181.251 118.707C181.136 118.796 179.451 119.458 178.116 122.091C176.534 125.242 174.912 136.151 174.847 136.574C174.802 137.004 176.564 139.34 179.945 139.323C187.703 139.31 189.513 136.62 189.808 136.509C190.056 136.41 190.388 124.459 188.457 121.68C187.984 121.025 186.864 120.278 186.105 120.056Z" fill="white"/>
<path fill-rule="evenodd" clip-rule="evenodd" d="M201.638 138.292C201.638 138.292 195.006 137.014 191.304 127.491C189.909 123.947 187.433 119.563 185.697 121.513C183.961 123.463 184.623 127.85 189.358 134.093C194.243 140.505 204.63 142.762 201.638 138.292Z" fill="#FCD2B1"/>
<path fill-rule="evenodd" clip-rule="evenodd" d="M200.978 139.57C201.852 139.584 202.096 139.79 202.794 140.138C203.248 140.354 202.83 139.896 202.621 139.667C203.319 140.088 204.54 140.973 204.61 140.781C204.681 140.588 203.949 139.896 203.286 139.379C203.286 139.379 205.206 140.392 205.311 140.25C205.557 139.943 203.498 138.802 203.498 138.802C204.406 139.013 205.314 139.517 205.35 139.275C205.421 138.863 202.419 137.459 200.742 137.019C199.938 136.812 198.819 136.885 198.819 136.885C198.819 136.885 200.558 139.624 200.978 139.57Z" fill="#FCD2B1"/>
<path fill-rule="evenodd" clip-rule="evenodd" d="M167.932 110.127C167.024 108.627 166.025 108.193 165.306 107.904C164.841 107.705 165.333 107.619 165.579 107.575C164.842 107.363 163.518 107.145 163.501 106.879C163.484 106.614 164.318 106.577 165.046 106.656C165.046 106.656 163.056 105.92 162.996 105.674C162.91 105.03 165.057 105.762 165.057 105.762C164.181 105.135 163.235 104.814 163.262 104.528C163.298 104.033 166.365 105.373 167.994 106.477C168.774 107.012 169.771 108.13 169.771 108.13C169.771 108.13 168.255 110.595 167.932 110.127Z" fill="#FCD2B1"/>
<path d="M177.554 112.435C177.354 116.847 180.16 117.554 182.086 118.167C184.961 119.06 193.31 116.979 193.51 112.566C193.711 108.154 188.528 104.673 185.588 104.282C182.635 103.877 177.755 108.023 177.554 112.435Z" fill="#FCD2B1"/>
<path d="M187.738 115.03C186.454 115.194 185.568 115.804 185.724 116.367C186.255 118.19 187.116 118.879 188.4 118.715C189.683 118.552 190.214 117.655 190.027 116.647C189.852 115.625 189.021 114.867 187.738 115.03Z" fill="#FCD2B1"/>
<path fill-rule="evenodd" clip-rule="evenodd" d="M183.763 104.18C182.674 106.842 182.598 109.803 183.689 112.354C184.045 113.202 184.136 114.091 184.512 114.947C185.224 116.59 186.595 117.067 187.493 116.26C188.559 115.318 189.251 116.514 189.104 117.149C188.82 118.344 189.515 118.199 189.743 118.141C189.971 118.083 190.213 117.824 190.401 117.697C191.466 117.09 192.26 115.981 192.815 114.848C193.414 113.605 194.108 111.242 193.769 109.963C192.645 105.772 188.288 103.051 187.681 102.871C186.504 102.528 184.174 103.064 183.562 104.56" fill="#34334B"/>
<path fill-rule="evenodd" clip-rule="evenodd" d="M188.213 120.833C188.213 120.833 186.805 121.886 186.769 121.931C186.508 122.203 187.065 121.129 185.954 122.835C184.268 125.395 184.933 128.993 185.399 130.7C186.111 133.415 187.964 135.26 190.264 137.137C191.956 138.502 190.466 137.617 191.475 138.074L192.271 138.405C192.271 138.405 190.738 138.447 188.911 137.395C184.494 134.87 182.075 128.189 182.826 124.597C183.251 122.424 184.912 120.527 187.146 120.157L188.536 120.339C189.207 120.629 188.092 120.836 188.213 120.833Z" fill="#FF8C4A"/>
<path fill-rule="evenodd" clip-rule="evenodd" d="M197.668 143.145C197.159 143.381 196.869 143.968 196.923 144.59C197.129 146.098 197.48 148.849 197.649 150.359C197.74 150.979 198.205 151.546 198.783 151.664C199.862 151.902 201.486 152.304 202.335 152.504C202.682 152.584 203.018 152.53 203.305 152.345C204.092 151.834 205.819 150.808 206.792 150.248C207.188 150.015 207.447 149.518 207.443 149.028C207.395 147.605 207.296 144.714 207.271 143.111C207.251 142.444 206.783 141.833 206.163 141.672C205.235 141.429 203.951 141.018 203.257 140.859C202.947 140.778 202.645 140.786 202.355 140.927C201.37 141.354 198.976 142.531 197.668 143.145Z" fill="#FCD2B1"/>
<path fill-rule="evenodd" clip-rule="evenodd" d="M203.231 152.663C203.081 151.657 202.902 150.695 202.717 149.688C202.61 149.048 202.502 148.407 202.394 147.767C202.27 146.989 201.982 145.979 202.071 145.254C202.16 144.529 202.688 144.319 203.14 144.062C203.849 143.631 204.512 143.107 205.141 142.582C205.705 142.101 206.265 141.574 206.83 141.093C207.016 140.917 207.336 140.7 207.604 140.937C208.528 141.787 208.522 143.834 208.589 145.019C208.689 146.796 208.939 149.58 208.059 150.915C207.531 151.716 206.649 152.141 205.912 152.617L203.231 152.663Z" fill="#FCD2B1"/>
<path fill-rule="evenodd" clip-rule="evenodd" d="M202.363 139.436L202.321 139.437L202.279 139.438L202.237 139.439L202.195 139.44L202.154 139.441L202.112 139.443L202.07 139.444L202.028 139.445L201.987 139.446L201.945 139.447L201.903 139.448L201.865 139.494L201.827 139.539L201.786 139.54L201.748 139.586L201.71 139.632L201.672 139.677L201.634 139.723L201.596 139.768L201.558 139.814L201.52 139.86L201.482 139.905L201.445 139.951L201.407 139.996L201.369 140.042L201.331 140.087L201.293 140.133L201.255 140.179L201.217 140.224L201.179 140.27L201.183 140.314L201.187 140.359L201.191 140.403L201.195 140.448L201.199 140.492L201.202 140.537L201.206 140.581L201.21 140.626L201.214 140.67L201.218 140.714L201.184 140.805L201.15 140.895L201.116 140.985L201.082 141.075L201.048 141.165L201.055 141.254L201.063 141.343L201.029 141.433L201.037 141.522L201.044 141.611L201.052 141.699L201.06 141.788L201.067 141.877L201.075 141.966L201.083 142.055L201.09 142.144L201.094 142.189L201.102 142.278L201.11 142.367L201.117 142.455L201.125 142.544L201.133 142.633L201.141 142.722L201.148 142.811L201.16 142.945L201.126 143.035L201.058 143.215L200.94 143.307L200.845 143.176L200.746 143L200.697 142.912L200.685 142.779L200.677 142.69L200.67 142.601L200.662 142.512L200.654 142.423L200.647 142.334L200.639 142.245L200.631 142.156L200.627 142.112L200.62 142.023L200.612 141.934L200.604 141.845L200.597 141.756L200.589 141.667L200.581 141.578L200.573 141.489L200.566 141.4L200.558 141.312L200.55 141.223L200.584 141.133L200.618 141.042L200.652 140.952L200.687 140.862L200.721 140.772L200.755 140.682L200.751 140.638L200.747 140.593L200.743 140.549L200.739 140.504L200.735 140.46L200.773 140.414L200.811 140.369L200.849 140.323L200.887 140.278L200.925 140.232L200.963 140.186L201.001 140.141L201.039 140.095L201.076 140.05L201.114 140.004L201.152 139.958L201.19 139.913L201.228 139.867L201.266 139.822L201.304 139.776L201.342 139.731L201.38 139.685L201.418 139.639L201.455 139.594L201.493 139.548L201.531 139.503L201.569 139.457L201.607 139.411L201.645 139.366L201.683 139.32L201.721 139.275L201.759 139.229L201.797 139.184L201.838 139.182L201.88 139.181L201.922 139.18L201.964 139.179L202.005 139.178L202.047 139.177L202.089 139.176L202.131 139.175L202.172 139.174L202.214 139.172L202.256 139.171L202.298 139.17L202.339 139.169L202.381 139.168L202.423 139.167L202.465 139.166L202.506 139.165L202.548 139.164L202.59 139.162L202.632 139.161L202.673 139.16L202.715 139.159L202.757 139.158L202.799 139.157L202.84 139.156L202.882 139.155L202.924 139.153L202.966 139.152L203.007 139.151L203.049 139.15L203.091 139.149L203.133 139.148L203.174 139.147L203.216 139.146L203.262 139.189L203.307 139.232L203.353 139.276L203.399 139.319L203.444 139.362L203.49 139.406L203.535 139.449L203.581 139.493L203.627 139.536L203.672 139.579L203.718 139.623L203.763 139.666L203.809 139.709L203.855 139.753L203.859 139.797L203.862 139.842L203.866 139.886L203.912 139.929L203.961 140.017L204.011 140.105L204.06 140.193L204.11 140.281L204.159 140.369L204.209 140.456L204.258 140.544L204.307 140.632L204.357 140.72L204.406 140.808L204.414 140.897L204.422 140.986L204.429 141.074L204.437 141.163L204.445 141.252L204.453 141.341L204.46 141.43L204.468 141.519L204.476 141.608L204.483 141.697L204.491 141.786L204.499 141.875L204.507 141.964L204.514 142.053L204.522 142.142L204.53 142.231L204.541 142.364L204.553 142.498L204.564 142.631L204.572 142.72L204.576 142.764L204.39 143.037L204.12 142.821L204.117 142.777L204.109 142.688L204.097 142.554L204.086 142.421L204.074 142.287L204.066 142.198L204.059 142.11L204.051 142.021L204.043 141.932L204.036 141.843L204.028 141.754L204.02 141.665L204.013 141.576L204.005 141.487L203.997 141.398L203.989 141.309L203.982 141.22L203.974 141.131L203.966 141.042L203.959 140.953L203.951 140.864L203.901 140.777L203.856 140.733L203.81 140.69L203.765 140.647L203.719 140.603L203.673 140.56L203.628 140.516L203.582 140.473L203.537 140.43L203.491 140.386L203.445 140.343L203.442 140.299L203.438 140.254L203.434 140.21L203.43 140.165L203.426 140.121L203.384 140.122L203.343 140.123L203.301 140.124L203.259 140.125L203.217 140.126L203.176 140.127L203.134 140.128L202.363 139.436Z" fill="#FCD2B1"/>
</svg>
