<svg width="509" height="342" viewBox="0 0 509 342" fill="none" xmlns="http://www.w3.org/2000/svg">
<path d="M281.396 124.827C292.339 149.454 284.701 186.129 260.074 197.067C235.436 208.049 203.104 189.153 192.161 164.509C181.218 139.871 187.107 99.3145 211.746 88.3491C236.378 77.395 270.453 100.2 281.419 124.827" fill="#FCD2B1"/>
<path d="M266.68 95.5409C266.68 95.5409 270.217 97.8649 249.645 107.527C229.018 117.184 232.385 118.605 232.385 118.605C232.385 118.605 230.744 117.15 234.359 130.614L227.76 143.199L222.181 128.86C222.181 128.86 207.871 145.021 208.836 162.207C208.858 162.941 208.937 163.663 209.033 164.396C211.447 182.378 200.036 164.396 200.036 164.396L190.374 165.27L191.011 158.101C191.011 158.101 175.832 125.431 195.05 100.617C214.29 75.7931 216.473 76.3346 235.115 81.9865C253.757 87.6271 269.794 88.2758 266.708 95.5409" fill="#34334B"/>
<path d="M245.473 326.197C245.473 334.376 238.839 341.01 230.649 341.01H219.56C211.386 341.01 204.753 334.376 204.753 326.197V319.649C204.753 311.464 211.386 304.842 219.56 304.842H230.649C238.839 304.842 245.473 311.464 245.473 319.649V326.197Z" fill="#34334B"/>
<path d="M461.618 326.197C461.618 334.376 454.985 341.01 446.806 341.01H435.717C427.543 341.01 420.904 334.376 420.904 326.197V319.649C420.904 311.464 427.543 304.842 435.717 304.842H446.806C454.985 304.842 461.618 311.464 461.618 319.649V326.197Z" fill="#34334B"/>
<path d="M307.947 187.993H170.59L98.3838 304.853C120.068 318.289 145.08 325.389 170.59 325.351C246.45 325.351 307.947 263.854 307.947 187.993Z" fill="#D3D3D3" fill-opacity="0.23"/>
<path d="M0.0568014 168.205C0.0456904 191.623 6.02651 214.655 17.4303 235.11C28.8342 255.564 45.2817 272.761 65.2084 285.064L137.414 168.205L18.1366 100.046C6.25409 120.794 0.0201349 144.295 0.0568014 168.205V168.205Z" fill="#D3D3D3" fill-opacity="0.23"/>
<path d="M146.727 1.07143e-05C122.509 -0.00955525 98.719 6.38658 77.7709 18.5396C56.8229 30.6925 39.4619 48.17 27.4492 69.1988L146.727 137.357L176.338 3.21051C166.612 1.07386 156.684 -0.00258131 146.727 1.07143e-05Z" fill="#D3D3D3" fill-opacity="0.23"/>
<path d="M329.089 319.373H260.334L260.14 319.091L206.713 241.557L207.785 240.817L261.018 318.07H329.089V319.373Z" fill="#4E4C82"/>
<mask id="path-9-inside-1" fill="white">
<path d="M501.387 178.526C354.223 206.52 211.966 160.041 197.425 156.031C195.518 155.856 180.559 147.485 178.67 147.141C178.636 147.203 177.75 154.39 177.716 154.446C58.7555 348.145 335.304 340.756 335.304 340.756C562.96 329.13 501.387 178.531 501.387 178.531"/>
</mask>
<path d="M501.387 178.526C354.223 206.52 211.966 160.041 197.425 156.031C195.518 155.856 180.559 147.485 178.67 147.141C178.636 147.203 177.75 154.39 177.716 154.446C58.7555 348.145 335.304 340.756 335.304 340.756C562.96 329.13 501.387 178.531 501.387 178.531" fill="#FEFEFE"/>
<path d="M197.425 156.031L197.691 155.067L197.605 155.043L197.516 155.035L197.425 156.031ZM178.67 147.141L178.849 146.158L178.138 146.028L177.792 146.662L178.67 147.141ZM177.716 154.446L178.568 154.969L178.574 154.96L177.716 154.446ZM335.304 340.756L335.331 341.755L335.343 341.755L335.355 341.754L335.304 340.756ZM501.2 177.543C354.301 205.487 212.269 159.088 197.691 155.067L197.159 156.995C211.663 160.995 354.145 207.553 501.573 179.508L501.2 177.543ZM197.516 155.035C197.525 155.036 197.507 155.035 197.45 155.021C197.397 155.007 197.326 154.987 197.234 154.957C197.052 154.896 196.817 154.807 196.531 154.689C195.961 154.453 195.232 154.119 194.388 153.715C192.701 152.907 190.605 151.839 188.496 150.759C186.394 149.683 184.278 148.594 182.571 147.754C181.718 147.334 180.956 146.971 180.344 146.7C179.772 146.448 179.222 146.226 178.849 146.158L178.49 148.125C178.49 148.125 178.491 148.125 178.492 148.126C178.494 148.126 178.495 148.126 178.498 148.127C178.503 148.128 178.509 148.129 178.518 148.132C178.536 148.136 178.559 148.143 178.588 148.152C178.648 148.17 178.725 148.197 178.819 148.232C179.009 148.303 179.248 148.403 179.536 148.53C180.11 148.783 180.843 149.132 181.687 149.548C183.376 150.38 185.473 151.459 187.585 152.54C189.69 153.618 191.81 154.697 193.523 155.518C194.379 155.929 195.146 156.28 195.767 156.537C196.076 156.665 196.36 156.774 196.607 156.856C196.836 156.931 197.096 157.005 197.333 157.027L197.516 155.035ZM177.792 146.662C177.752 146.735 177.73 146.797 177.724 146.817C177.714 146.845 177.707 146.868 177.704 146.881C177.697 146.908 177.692 146.93 177.689 146.941C177.684 146.964 177.681 146.985 177.679 146.997C177.674 147.024 177.669 147.055 177.665 147.086C177.655 147.148 177.643 147.234 177.629 147.336C177.601 147.542 177.564 147.831 177.519 148.173C177.431 148.857 177.316 149.765 177.201 150.67C177.086 151.576 176.971 152.48 176.883 153.161C176.839 153.502 176.802 153.785 176.775 153.983C176.761 154.083 176.751 154.158 176.743 154.207C176.739 154.233 176.737 154.245 176.737 154.248C176.736 154.251 176.738 154.241 176.741 154.225C176.743 154.219 176.747 154.198 176.755 154.172C176.758 154.159 176.766 154.135 176.776 154.105C176.783 154.085 176.809 154.014 176.859 153.931L178.574 154.96C178.624 154.877 178.65 154.806 178.657 154.785C178.668 154.754 178.676 154.729 178.68 154.715C178.688 154.686 178.693 154.662 178.696 154.651C178.701 154.627 178.705 154.605 178.707 154.593C178.712 154.565 178.717 154.534 178.721 154.503C178.731 154.441 178.743 154.356 178.756 154.253C178.784 154.048 178.822 153.76 178.866 153.418C178.955 152.734 179.07 151.827 179.185 150.922C179.3 150.016 179.415 149.111 179.503 148.429C179.547 148.088 179.584 147.805 179.611 147.605C179.625 147.505 179.635 147.43 179.643 147.38C179.647 147.355 179.649 147.342 179.649 147.338C179.65 147.335 179.648 147.344 179.645 147.358C179.644 147.365 179.64 147.383 179.633 147.407C179.63 147.419 179.624 147.441 179.615 147.468C179.608 147.487 179.587 147.548 179.547 147.62L177.792 146.662ZM176.864 153.923C147.05 202.469 141.87 238.651 151.208 265.601C160.541 292.54 184.269 309.932 211.519 321.163C238.783 332.399 269.745 337.541 293.856 339.879C305.918 341.049 316.281 341.518 323.629 341.695C327.304 341.783 330.226 341.798 332.231 341.791C333.233 341.788 334.006 341.779 334.53 341.771C334.792 341.767 334.991 341.763 335.125 341.76C335.192 341.759 335.243 341.758 335.278 341.757C335.295 341.756 335.308 341.756 335.317 341.756C335.321 341.756 335.325 341.756 335.327 341.756C335.329 341.755 335.331 341.755 335.304 340.756C335.277 339.756 335.277 339.756 335.275 339.756C335.273 339.756 335.27 339.756 335.266 339.756C335.258 339.757 335.246 339.757 335.23 339.757C335.197 339.758 335.148 339.759 335.083 339.761C334.952 339.763 334.757 339.767 334.499 339.771C333.983 339.779 333.218 339.788 332.224 339.791C330.236 339.798 327.332 339.783 323.678 339.695C316.367 339.519 306.054 339.053 294.049 337.888C270.024 335.559 239.284 330.442 212.281 319.313C185.264 308.179 162.159 291.1 153.098 264.946C144.04 238.804 148.903 203.273 178.568 154.969L176.864 153.923ZM335.355 341.754C392.371 338.843 431.385 327.226 457.811 311.361C484.26 295.484 498.058 275.376 504.665 255.601C511.263 235.85 510.669 216.489 508.438 202.091C507.323 194.888 505.795 188.915 504.546 184.739C503.921 182.65 503.365 181.01 502.964 179.889C502.764 179.328 502.602 178.898 502.49 178.605C502.434 178.459 502.39 178.348 502.36 178.272C502.345 178.234 502.333 178.205 502.325 178.185C502.321 178.175 502.318 178.168 502.316 178.162C502.315 178.16 502.314 178.157 502.313 178.156C502.313 178.154 502.312 178.153 501.387 178.531C500.461 178.91 500.461 178.91 500.461 178.91C500.462 178.911 500.462 178.912 500.463 178.914C500.464 178.918 500.467 178.924 500.47 178.932C500.477 178.949 500.487 178.975 500.501 179.009C500.528 179.078 500.569 179.183 500.623 179.322C500.73 179.601 500.886 180.017 501.081 180.562C501.471 181.653 502.016 183.26 502.63 185.312C503.858 189.417 505.363 195.3 506.462 202.397C508.662 216.6 509.233 235.616 502.768 254.967C496.311 274.295 482.817 294.017 456.782 309.646C430.726 325.289 392.065 336.856 335.253 339.757L335.355 341.754Z" fill="#D3D3D3" fill-opacity="0.23" mask="url(#path-9-inside-1)"/>
<mask id="path-11-inside-2" fill="white">
<path d="M260.927 172.456C226.175 165.197 202.874 157.757 197.425 156.251C195.519 156.076 180.56 147.694 178.67 147.35C178.636 147.412 177.751 154.61 177.717 154.666C58.756 348.365 335.299 340.976 335.299 340.976C379.708 338.714 413.128 331.15 438.133 320.461C369.098 313.94 225.747 286.668 260.927 172.451"/>
</mask>
<path d="M260.927 172.456C226.175 165.197 202.874 157.757 197.425 156.251C195.519 156.076 180.56 147.694 178.67 147.35C178.636 147.412 177.751 154.61 177.717 154.666C58.756 348.365 335.299 340.976 335.299 340.976C379.708 338.714 413.128 331.15 438.133 320.461C369.098 313.94 225.747 286.668 260.927 172.451" fill="#D3D3D3" fill-opacity="0.23"/>
<path d="M197.425 156.251L197.692 155.287L197.605 155.263L197.516 155.255L197.425 156.251ZM178.67 147.35L178.849 146.366L178.138 146.237L177.792 146.871L178.67 147.35ZM177.717 154.666L178.569 155.189L178.574 155.18L177.717 154.666ZM335.299 340.976L335.326 341.975L335.338 341.975L335.35 341.974L335.299 340.976ZM438.133 320.461L438.526 321.38L438.227 319.465L438.133 320.461ZM261.132 171.478C226.421 164.227 203.172 156.802 197.692 155.287L197.159 157.215C202.576 158.712 225.93 166.167 260.723 173.435L261.132 171.478ZM197.516 155.255C197.526 155.256 197.507 155.255 197.451 155.241C197.398 155.227 197.326 155.207 197.235 155.177C197.052 155.116 196.818 155.027 196.532 154.909C195.962 154.672 195.233 154.338 194.389 153.933C192.702 153.124 190.606 152.055 188.497 150.974C186.395 149.896 184.279 148.806 182.572 147.964C181.719 147.544 180.957 147.18 180.345 146.91C179.773 146.657 179.223 146.434 178.849 146.366L178.491 148.334C178.491 148.334 178.491 148.334 178.493 148.334C178.494 148.334 178.496 148.335 178.498 148.335C178.503 148.336 178.51 148.338 178.518 148.34C178.536 148.345 178.559 148.351 178.589 148.361C178.649 148.379 178.725 148.405 178.819 148.441C179.009 148.512 179.248 148.612 179.536 148.739C180.11 148.993 180.843 149.342 181.687 149.758C183.376 150.591 185.473 151.671 187.585 152.754C189.69 153.833 191.81 154.914 193.523 155.736C194.379 156.147 195.147 156.499 195.767 156.756C196.076 156.885 196.36 156.994 196.607 157.075C196.836 157.151 197.096 157.225 197.334 157.247L197.516 155.255ZM177.792 146.871C177.752 146.944 177.731 147.006 177.724 147.026C177.714 147.054 177.708 147.077 177.704 147.09C177.697 147.117 177.692 147.139 177.69 147.15C177.685 147.173 177.681 147.194 177.679 147.206C177.674 147.233 177.67 147.264 177.665 147.295C177.656 147.357 177.644 147.443 177.63 147.545C177.602 147.752 177.564 148.041 177.52 148.383C177.431 149.069 177.316 149.978 177.201 150.884C177.086 151.792 176.972 152.697 176.883 153.38C176.839 153.721 176.802 154.004 176.775 154.203C176.762 154.303 176.751 154.378 176.744 154.427C176.74 154.453 176.738 154.465 176.737 154.468C176.737 154.471 176.738 154.461 176.742 154.446C176.743 154.439 176.748 154.419 176.755 154.392C176.759 154.379 176.766 154.355 176.777 154.325C176.784 154.305 176.81 154.234 176.859 154.151L178.574 155.18C178.624 155.097 178.65 155.025 178.658 155.005C178.669 154.974 178.676 154.949 178.68 154.934C178.688 154.905 178.694 154.882 178.696 154.871C178.701 154.846 178.705 154.825 178.707 154.812C178.712 154.785 178.717 154.753 178.722 154.723C178.731 154.661 178.743 154.575 178.757 154.473C178.785 154.267 178.823 153.978 178.867 153.636C178.955 152.951 179.071 152.042 179.185 151.136C179.3 150.228 179.415 149.322 179.503 148.639C179.547 148.298 179.585 148.014 179.612 147.814C179.625 147.714 179.636 147.639 179.643 147.589C179.647 147.563 179.649 147.55 179.65 147.547C179.65 147.544 179.649 147.552 179.646 147.567C179.644 147.573 179.64 147.592 179.634 147.616C179.631 147.628 179.624 147.65 179.615 147.677C179.609 147.696 179.587 147.756 179.548 147.829L177.792 146.871ZM176.865 154.143C147.05 202.689 141.87 238.871 151.207 265.821C160.54 292.76 184.267 310.152 211.516 321.383C238.78 332.619 269.741 337.761 293.851 340.099C305.913 341.269 316.276 341.738 323.625 341.915C327.299 342.003 330.221 342.018 332.226 342.011C333.228 342.008 334.001 341.999 334.525 341.991C334.787 341.987 334.986 341.983 335.12 341.98C335.187 341.979 335.238 341.978 335.273 341.977C335.29 341.976 335.303 341.976 335.312 341.976C335.316 341.976 335.32 341.976 335.322 341.976C335.324 341.975 335.326 341.975 335.299 340.976C335.272 339.976 335.271 339.976 335.27 339.976C335.268 339.976 335.265 339.976 335.261 339.976C335.253 339.977 335.241 339.977 335.225 339.977C335.192 339.978 335.143 339.979 335.078 339.981C334.947 339.983 334.752 339.987 334.494 339.991C333.978 339.999 333.213 340.008 332.219 340.011C330.231 340.018 327.327 340.003 323.673 339.915C316.363 339.739 306.049 339.273 294.044 338.108C270.02 335.779 239.281 330.662 212.279 319.533C185.262 308.399 162.158 291.32 153.097 265.166C144.04 239.024 148.903 203.493 178.569 155.189L176.865 154.143ZM335.35 341.974C379.841 339.708 413.385 332.128 438.526 321.38L437.74 319.541C412.872 330.172 379.574 337.719 335.248 339.977L335.35 341.974ZM438.227 319.465C403.736 316.207 350.811 307.772 310.929 285.965C290.999 275.067 274.404 260.871 264.956 242.391C255.522 223.937 253.152 201.091 261.883 172.745L259.972 172.156C251.112 200.92 253.468 224.314 263.175 243.301C272.868 262.261 289.83 276.707 309.969 287.719C350.226 309.732 403.494 318.194 438.039 321.456L438.227 319.465Z" fill="#D3D3D3" fill-opacity="0.23" mask="url(#path-11-inside-2)"/>
<path d="M420.272 47.0879L420.391 46.8792L419.584 43.4046C419.584 43.4046 402.549 41.6052 401.946 41.5206C401.32 41.436 383.157 42.6713 382.779 42.6713C382.424 42.6713 373.026 44.7866 373.026 44.7866L374.589 47.8325C373.438 47.1613 372.338 46.3998 371.312 45.5311C372.897 53.6705 380.06 59.8132 388.668 59.8132H405.042C413.633 59.8132 420.808 53.6705 422.387 45.5311C421.711 46.0952 421 46.6028 420.272 47.0879" fill="#34334B"/>
<path d="M467.627 135.319C467.627 139.775 464.011 143.385 459.555 143.385H453.548C449.081 143.385 445.471 139.775 445.471 135.319V131.759C445.471 127.315 449.081 123.693 453.548 123.693H459.555C464.011 123.693 467.627 127.315 467.627 131.759V135.319Z" fill="#34334B"/>
<path d="M459.261 8.8758C452.751 2.98536 443.909 0 432.97 0C403.844 0 394.102 22.5482 393 34.4847L404.75 35.3326C404.845 34.3191 407.311 10.5717 432.993 10.5717C443.591 10.5717 450.749 14.0889 454.876 21.3089C458.193 27.079 458.215 33.1099 458.215 33.2102V183H469.999V33.2504C470.016 32.6633 470.016 18.6046 459.278 8.8758" fill="#34334B"/>
<path d="M508.972 177.815C507.088 170.657 499.158 168.672 493.635 169.027C490.821 169.518 488.029 169.98 485.225 170.415C331.8 194.28 185.031 148.269 169.813 144.157C168.137 144.011 166.457 143.813 164.804 143.56C164.606 143.672 164.398 143.757 164.206 143.842C165.65 143.215 163.963 144.97 164.155 144.614C163.518 145.742 162.858 146.865 162.384 148.066C162.017 148.986 162.237 152.145 163.208 154.198C163.303 154.429 163.416 154.672 163.512 154.92C164.307 155.174 165.114 155.444 165.921 155.766C186.266 161.497 329.95 204.901 482.078 183.89C484.847 183.529 487.611 183.123 490.409 182.694C496.168 180.568 502.13 180.568 507.669 179.49C508.025 178.932 508.453 178.368 508.955 177.815" fill="#FF8C4A"/>
<path d="M382.262 47.1725H411.418C419.112 47.1725 426.151 49.9421 431.628 54.5166C429.457 43.4384 419.704 35.0677 407.994 35.0677H385.68C373.964 35.0677 364.217 43.4384 362.062 54.5166C367.523 49.9421 374.562 47.1725 382.262 47.1725Z" fill="#34334B"/>
<path d="M381.689 72.2902C381.689 74.5916 383.229 76.4643 385.125 76.4643C387.009 76.4643 388.548 74.5916 388.548 72.2902C388.548 69.9889 387.009 64.2975 385.125 64.2975C383.229 64.2975 381.689 69.9945 381.689 72.2902Z" fill="#CCE9FF"/>
<path d="M392.805 90.2275C392.805 92.5514 394.333 94.4128 396.245 94.4128C398.141 94.4128 399.669 92.5514 399.669 90.2275C399.669 87.9261 398.141 82.246 396.245 82.246C394.339 82.246 392.805 87.943 392.805 90.2275" fill="#CCE9FF"/>
<path d="M385.188 114.804C385.188 117.116 386.716 118.978 388.6 118.978C390.501 118.978 392.041 117.116 392.041 114.804C392.041 112.502 390.501 106.822 388.6 106.822C386.716 106.822 385.188 112.519 385.188 114.804Z" fill="#CCE9FF"/>
<path d="M402.395 133.948C402.395 136.249 403.923 138.133 405.818 138.133C407.731 138.133 409.254 136.249 409.254 133.948C409.254 131.635 407.725 125.966 405.818 125.966C403.923 125.966 402.395 131.607 402.395 133.948Z" fill="#CCE9FF"/>
<path d="M404.638 72.2902C404.638 74.5916 406.2 76.4643 408.084 76.4643C409.985 76.4643 411.514 74.5916 411.514 72.2902C411.514 69.9889 409.985 64.2975 408.084 64.2975C406.2 64.2975 404.638 69.9945 404.638 72.2902Z" fill="#CCE9FF"/>
<path d="M403.464 110.838C403.464 113.151 404.992 115.024 406.899 115.024C408.794 115.024 410.334 113.151 410.334 110.838C410.334 108.537 408.794 102.857 406.899 102.857C404.987 102.857 403.464 108.554 403.464 110.838Z" fill="#CCE9FF"/>
<path d="M378.296 138.122C378.296 140.435 379.825 142.296 381.72 142.296C383.604 142.296 385.166 140.435 385.166 138.122C385.166 135.809 383.604 130.129 381.72 130.129C379.825 130.129 378.296 135.826 378.296 138.122Z" fill="#CCE9FF"/>
<path d="M392.238 162.264C392.238 164.565 393.767 166.438 395.662 166.438C397.546 166.438 399.086 164.565 399.086 162.264C399.086 159.951 397.546 154.271 395.662 154.271C393.767 154.271 392.238 159.968 392.238 162.264Z" fill="#CCE9FF"/>
<path d="M241.355 21.385C240.991 31.9082 231.978 45.2001 221.455 44.836C210.931 44.472 202.859 30.589 203.223 20.0657C203.587 9.54243 212.394 1.29448 222.949 1.65962C233.503 2.02477 241.719 10.8617 241.355 21.385Z" fill="#FF8C4A"/>
<path d="M221.745 53.4916C219.795 53.4242 218.016 51.9992 216.5 49.2508C215.421 47.2922 216.488 41.5344 217.628 35.4382C217.931 33.8373 218.203 32.2663 218.469 30.8501C217.254 26.5627 217.658 23.8188 218.274 23.0344C218.502 22.7324 218.814 22.6503 219.089 22.7837C219.636 23.0816 219.905 24.2684 219.84 26.1564C219.797 27.3944 219.587 28.9676 219.31 30.7243C219.392 31.037 219.505 31.3508 219.617 31.6955C220.628 34.7053 221.765 34.0939 222.145 33.8592C223.061 33.3641 223.979 31.9084 224.688 30.2286C224.573 26.3821 224.947 23.6371 225.408 22.8474C225.64 22.4216 225.919 22.4003 226.043 22.4046C226.475 22.4505 226.672 23.0461 226.727 23.2339C227.233 24.7388 226.629 27.8477 225.516 30.4742C225.67 34.9727 226.509 41.1684 228.885 47.727L229 48.0099L228.836 48.2521C228.705 48.4645 225.65 53.4718 221.841 53.402C221.807 53.4938 221.776 53.4927 221.745 53.4916ZM218.969 32.5098C218.779 33.5258 218.588 34.5728 218.395 35.6507C217.404 41.0083 216.266 47.0425 217.141 48.6222C218.542 51.1187 220.109 52.4124 221.812 52.4404C224.755 52.4802 227.326 48.9126 227.979 47.9436C225.917 42.1705 224.995 36.5608 224.716 32.0889C224.021 33.3663 223.211 34.3919 222.39 34.8283C221.63 35.2978 220.134 35.5559 218.969 32.5098ZM218.774 23.8264C218.543 24.2213 218.208 25.852 218.76 28.691C218.886 27.7348 218.978 26.8703 219.003 26.1584C219.053 24.7037 218.859 24.0463 218.774 23.8264ZM225.936 23.7024C225.729 24.315 225.49 25.8561 225.444 28.0856C226.001 26.3076 226.247 24.5808 225.936 23.7024Z" fill="white"/>
<path d="M221.066 56.0713C217.228 55.9385 214.14 52.9188 213.963 49.1011L213.565 41.7743L215.49 42.5845C219.43 44.2393 223.826 44.3604 227.842 42.9189L229.505 42.3257L228.602 49.6076C228.161 53.4039 224.873 56.203 221.066 56.0713Z" fill="#34334B"/>
</svg>
