<svg width="236" height="192" viewBox="0 0 236 192" fill="none" xmlns="http://www.w3.org/2000/svg">
<path d="M8.23004 101.333C15.0708 51.3226 76.1438 7.81227 145.117 17.7811C214.091 27.75 232.845 51.2198 226.004 101.23C219.163 151.241 157.704 183.701 88.7302 173.732C19.7567 163.763 1.38924 151.344 8.23004 101.333Z" fill="#D3D3D3" fill-opacity="0.23"/>
<path d="M106 136H131V149H106V136Z" fill="#4E4C82" fill-opacity="0.5"/>
<path d="M99 149H136.917V155.25H99V149Z" fill="#4E4C82" fill-opacity="0.5"/>
<path d="M65 55H172V136H65V55Z" fill="#4E4C82" fill-opacity="0.5"/>
<path d="M111.354 89.8514L85.5684 115.637L89.9875 120.057L111.354 98.6904L118.333 105.67V96.8306L111.354 89.8514Z" fill="white"/>
<path d="M134.167 71.0416V77.2916H142.664L120.729 99.2264L118.333 96.8306V105.67L120.729 108.065L146.667 82.1277V89.7916H152.917V71.0416H134.167Z" fill="white"/>
</svg>
