<svg width="31" height="61" viewBox="0 0 31 61" fill="none" xmlns="http://www.w3.org/2000/svg">
<path d="M30.3133 14.9484H30.044V5.9786C30.044 4.5958 29.4947 3.26965 28.5169 2.29187C27.5391 1.31409 26.2129 0.764771 24.8301 0.764771H5.7236C5.03891 0.76477 4.36092 0.899631 3.72835 1.16165C3.09578 1.42367 2.52101 1.80772 2.03686 2.29187C1.55271 2.77602 1.16866 3.35078 0.906643 3.98336C0.644624 4.61593 0.509765 5.29392 0.509766 5.97861V55.4273C0.509765 56.112 0.644624 56.7899 0.906643 57.4225C1.16866 58.0551 1.55271 58.6298 2.03686 59.114C2.52101 59.5981 3.09578 59.9822 3.72835 60.2442C4.36092 60.5062 5.03891 60.6411 5.7236 60.6411H24.8301C26.2129 60.6411 27.5391 60.0918 28.5169 59.114C29.4947 58.1362 30.044 56.8101 30.044 55.4273V21.322H30.3133V14.9484Z" fill="#4E4C82" fill-opacity="0.5"/>
<path d="M28.877 5.62105V55.3111C28.877 56.3438 28.4668 57.3342 27.7366 58.0644C27.0064 58.7946 26.0159 59.2049 24.9832 59.2049H5.83997C4.80727 59.2049 3.81687 58.7946 3.08664 58.0644C2.35641 57.3342 1.94617 56.3438 1.94617 55.3111V5.62105C1.94617 4.69023 2.31593 3.79753 2.97412 3.13934C3.63231 2.48115 4.52501 2.11139 5.45583 2.11139H8.15859C8.05651 2.36667 8.01106 2.64105 8.02535 2.9156C8.03965 3.19016 8.11336 3.45834 8.2414 3.70163C8.39725 3.9703 8.61798 4.19559 8.88341 4.35689C9.14883 4.51819 9.45047 4.61035 9.76072 4.62494H20.8983C21.2086 4.61036 21.5102 4.51818 21.7757 4.35686C22.0411 4.19554 22.2618 3.97022 22.4177 3.70152C22.5457 3.45823 22.6193 3.19007 22.6336 2.91554C22.6479 2.64101 22.6024 2.36665 22.5004 2.11139H25.3674C26.2982 2.1114 27.1909 2.48116 27.8491 3.13935C28.5073 3.79754 28.877 4.69024 28.877 5.62105V5.62105Z" fill="white"/>
<path d="M25.8667 16.194H4.88074V18.2796H25.8667V16.194Z" fill="#4E4C82" fill-opacity="0.5"/>
<path d="M25.8667 21.1066H4.88074V21.8965H25.8667V21.1066Z" fill="#4E4C82" fill-opacity="0.5"/>
<path d="M25.8667 23.5175H4.88074V24.3074H25.8667V23.5175Z" fill="#4E4C82" fill-opacity="0.5"/>
<path d="M15.7242 25.9591H4.88074V26.749H15.7242V25.9591Z" fill="#4E4C82" fill-opacity="0.5"/>
<path d="M25.8667 28.444H4.88074V29.2339H25.8667V28.444Z" fill="#4E4C82" fill-opacity="0.5"/>
<path d="M25.8667 30.9288H4.88074V31.7187H25.8667V30.9288Z" fill="#4E4C82" fill-opacity="0.5"/>
<path d="M15.361 33.4137H4.88074V34.2036H15.361V33.4137Z" fill="#4E4C82" fill-opacity="0.5"/>
<path d="M25.8667 35.8986H4.88074V36.6885H25.8667V35.8986Z" fill="#4E4C82" fill-opacity="0.5"/>
<path d="M25.8667 38.3836H4.88074V39.1735H25.8667V38.3836Z" fill="#4E4C82" fill-opacity="0.5"/>
<path d="M25.8919 41.4313H19.2648V43.6101H25.8919V41.4313Z" fill="#4E4C82" fill-opacity="0.5"/>
</svg>
