<svg width="60" height="53" viewBox="0 0 60 53" fill="none" xmlns="http://www.w3.org/2000/svg">
<path d="M42.9648 12.4896C42.9648 15.5246 45.4252 17.985 48.4603 17.985C51.4953 17.985 53.9557 15.5246 53.9557 12.4896C53.9557 9.45453 51.4953 6.99414 48.4603 6.99414C45.4266 6.99744 42.9681 9.4559 42.9648 12.4896ZM51.9574 12.4896C51.9574 14.421 50.3917 15.9867 48.4603 15.9867C46.5289 15.9867 44.9632 14.421 44.9632 12.4896C44.9632 10.5582 46.5289 8.99248 48.4603 8.99248C50.3917 8.99248 51.9574 10.5582 51.9574 12.4896Z" fill="#98999A"/>
<path d="M24.9797 3.99668C24.9797 6.20398 26.7691 7.99335 28.9764 7.99335C31.1837 7.99335 32.9731 6.20398 32.9731 3.99668C32.9731 1.78937 31.1837 0 28.9764 0C26.7691 0 24.9797 1.78937 24.9797 3.99668ZM30.9747 3.99668C30.9747 5.10033 30.0801 5.99501 28.9764 5.99501C27.8728 5.99501 26.9781 5.10033 26.9781 3.99668C26.9781 2.89302 27.8728 1.99834 28.9764 1.99834C30.0801 1.99834 30.9747 2.89302 30.9747 3.99668Z" fill="#98999A"/>
<path d="M42.5591 32.0732C43.446 33.4858 45.1084 34.2097 46.7467 33.8967L56.7383 31.8984C58.1535 31.6336 59.3169 30.6281 59.7839 29.2662C60.2508 27.9043 59.9492 26.3965 58.9943 25.3191C58.0394 24.2416 56.5788 23.761 55.1707 24.0609L47.9077 25.5127L41.3731 14.8875C40.6483 13.7032 39.3575 12.9833 37.969 12.9891H28.9764C28.6658 12.9925 28.3567 13.0321 28.0552 13.107L23.3821 5.51334C22.807 4.56842 21.7795 3.99311 20.6733 3.9966H14.1188C13.2737 3.99851 12.4634 4.33346 11.8637 4.92882L8.21671 8.57579C7.38493 9.37579 7.05093 10.5631 7.34362 11.6795C7.63631 12.7958 8.50992 13.6665 9.62721 13.9555C10.7445 14.2444 11.9307 13.9065 12.728 13.0721L15.4327 10.3583H17.6389L14.1138 15.6389L9.1929 18.1089L4.87949 15.4111C4.16164 14.9629 3.29512 14.8182 2.47061 15.009C1.6461 15.1997 0.931169 15.7103 0.483144 16.4283C0.0357779 17.1439 -0.108503 18.0081 0.0821304 18.8302C0.272764 19.6524 0.782647 20.3649 1.4993 20.8106L7.33345 24.4626C8.27506 25.0442 9.45048 25.0975 10.4409 24.6035L16.299 21.6699L20.3956 23.7142C20.703 24.3818 21.1976 24.9459 21.8194 25.3378L24.711 31.133L22.2011 32.388L16.1061 28.5802C14.2344 27.4103 11.7686 27.9793 10.5987 29.8511C9.42886 31.7229 9.99788 34.1886 11.8697 35.3585L19.863 40.3544C21.0477 41.0807 22.5215 41.1508 23.7698 40.5402L31.9739 36.4416L38.9881 39.9477L43.3845 48.7484C44.0581 50.1065 45.4455 50.9634 46.9615 50.9575H25.9789C25.4271 50.9575 24.9798 51.4049 24.9798 51.9567C24.9798 52.5085 25.4271 52.9559 25.9789 52.9559H58.9515C59.5033 52.9559 59.9507 52.5085 59.9507 51.9567C59.9507 51.4049 59.5033 50.9575 58.9515 50.9575H46.9685C47.5868 50.9554 48.1963 50.8112 48.75 50.5359C49.698 50.0617 50.4189 49.2303 50.7539 48.2246C51.0889 47.219 51.0107 46.1214 50.5365 45.1733L45.5407 35.1817C45.1528 34.4093 44.5263 33.7825 43.7542 33.3941L37.8111 30.4236L39.7535 27.51L42.5591 32.0732ZM15.8494 19.6596L9.5546 22.8109C9.18106 22.9963 8.73874 22.9782 8.38157 22.763L2.55642 19.115C2.28942 18.9497 2.0994 18.6847 2.0285 18.3788C1.9576 18.0729 2.01167 17.7513 2.17873 17.4854C2.52656 16.9289 3.25917 16.7591 3.81637 17.1057L8.60239 20.1032C8.89808 20.2882 9.26884 20.3056 9.58058 20.1492L15.2459 17.3115C15.401 17.2338 15.5332 17.1171 15.6295 16.9728L20.3057 9.96863C20.4832 9.67343 20.512 9.31207 20.3836 8.99244C20.2314 8.61389 19.8644 8.36589 19.4564 8.36596H15.0181C14.7522 8.36575 14.4973 8.47147 14.3096 8.65972L11.3181 11.6622C10.8485 12.1204 10.0992 12.1204 9.62954 11.6622C9.16815 11.1994 9.16815 10.4505 9.62954 9.98762L13.2765 6.34065C13.5009 6.11914 13.8035 5.99494 14.1188 5.99494H20.6733C21.0845 5.99361 21.4665 6.20733 21.6805 6.55847L26.2877 14.0522C26.2437 14.0922 26.1938 14.1222 26.1508 14.1651L24.5521 15.7638L22.8415 12.9831C22.6626 12.6936 22.3485 12.5152 22.0082 12.5095C21.6654 12.4922 21.3403 12.663 21.1599 12.9551L18.662 16.712C18.5032 16.9507 18.4547 17.2462 18.5287 17.5232C18.6026 17.8002 18.792 18.032 19.0487 18.1598L21.126 19.192C20.5591 19.7706 20.1835 20.5093 20.0499 21.3082L16.7426 19.6586C16.4613 19.5184 16.1304 19.5188 15.8494 19.6596ZM20.9531 16.8749L21.9613 15.3591L23.1043 17.2076L22.6117 17.6992L20.9531 16.8749ZM24.3503 25.9423C25.1607 25.8688 25.9286 25.5463 26.5485 25.0191L28.6297 29.1757L26.4975 30.2418L24.3503 25.9423ZM30.0775 27.61L28.0522 23.5593L30.6321 20.9825H34.4988L30.0775 27.61ZM38.9521 25.104L35.521 30.2568C35.3621 30.4952 35.3132 30.7905 35.3868 31.0674C35.4604 31.3444 35.6494 31.5764 35.9057 31.7046L42.8609 35.1817C43.2466 35.3758 43.5594 35.689 43.7532 36.0749L48.749 46.0666C48.9863 46.5407 49.0255 47.0896 48.8579 47.5925C48.6904 48.0955 48.3299 48.5113 47.8557 48.7484C46.8675 49.2227 45.6812 48.8274 45.175 47.8551L40.6258 38.7567C40.5293 38.5631 40.3725 38.406 40.1791 38.3091L32.4216 34.4303C32.1399 34.2904 31.809 34.2904 31.5273 34.4303L22.8815 38.7567C22.2567 39.065 21.5174 39.0315 20.9231 38.6678L12.9298 33.6719C12.3229 33.2934 11.9642 32.6198 11.9886 31.905C12.013 31.1901 12.4169 30.5426 13.0482 30.2064C13.6795 29.8701 14.4422 29.8962 15.049 30.2747L21.6166 34.3803C21.9118 34.5646 22.2816 34.582 22.5928 34.4263L30.3693 30.5375C30.5244 30.4598 30.6566 30.3431 30.753 30.1988L37.1596 20.5928C37.3666 20.2411 37.3604 19.8034 37.1437 19.4577C36.9617 19.1635 36.6404 18.9843 36.2944 18.9841H30.2184C29.9534 18.9842 29.6993 19.0895 29.512 19.2769L25.3934 23.3945C24.6029 24.1496 23.3583 24.1496 22.5678 23.3945C22.3661 23.1905 22.2107 22.9455 22.1122 22.6761L22.1062 22.6561C21.8354 21.9301 22.0161 21.1129 22.5678 20.5688L23.536 19.6006L23.548 19.5896L27.5646 15.573C27.9379 15.1967 28.4464 14.9858 28.9764 14.9875H37.969C38.6624 14.9863 39.3062 15.3469 39.6675 15.9387L46.5668 27.1493C46.7858 27.5057 47.2037 27.688 47.6139 27.606L55.5563 26.0173C56.2563 25.8768 56.9781 26.1205 57.4498 26.6565C57.9214 27.1925 58.0713 27.9394 57.843 28.6158C57.6146 29.2923 57.0427 29.7956 56.3427 29.936L46.351 31.9344C45.53 32.0953 44.695 31.7322 44.2527 31.0221L40.6297 25.135C40.4512 24.8448 40.1371 24.6655 39.7964 24.6594C39.458 24.6522 39.1399 24.8204 38.9551 25.104H38.9521Z" fill="#98999A"/>
<path d="M21.9824 50.9575H19.984C19.4322 50.9575 18.9849 51.4049 18.9849 51.9567C18.9849 52.5085 19.4322 52.9559 19.984 52.9559H21.9824C22.5342 52.9559 22.9815 52.5085 22.9815 51.9567C22.9815 51.4049 22.5342 50.9575 21.9824 50.9575Z" fill="#98999A"/>
</svg>
