<svg width="65" height="58" viewBox="0 0 65 58" fill="none" xmlns="http://www.w3.org/2000/svg">
<path d="M46.5453 13.5305C46.5453 16.8185 49.2107 19.4839 52.4987 19.4839C55.7866 19.4839 58.4521 16.8185 58.4521 13.5305C58.4521 10.2426 55.7866 7.57715 52.4987 7.57715C49.2122 7.58073 46.5489 10.2441 46.5453 13.5305ZM56.2872 13.5305C56.2872 15.6229 54.591 17.319 52.4987 17.319C50.4063 17.319 48.7102 15.6229 48.7102 13.5305C48.7102 11.4382 50.4063 9.74201 52.4987 9.74201C54.591 9.74201 56.2872 11.4382 56.2872 13.5305Z" fill="white"/>
<path d="M27.0614 4.32973C27.0614 6.72098 28.9999 8.65946 31.3911 8.65946C33.7824 8.65946 35.7209 6.72098 35.7209 4.32973C35.7209 1.93849 33.7824 0 31.3911 0C28.9999 0 27.0614 1.93849 27.0614 4.32973ZM33.556 4.32973C33.556 5.52535 32.5868 6.4946 31.3911 6.4946C30.1955 6.4946 29.2263 5.52535 29.2263 4.32973C29.2263 3.13411 30.1955 2.16487 31.3911 2.16487C32.5868 2.16487 33.556 3.13411 33.556 4.32973Z" fill="white"/>
<path d="M46.1057 34.7455C47.0665 36.2757 48.8675 37.06 50.6422 36.7209L61.4665 34.5561C62.9996 34.2692 64.26 33.1799 64.7658 31.7045C65.2717 30.2292 64.945 28.5957 63.9105 27.4285C62.876 26.2612 61.2937 25.7405 59.7682 26.0655L51.9 27.6382L44.8209 16.1276C44.0356 14.8446 42.6373 14.0648 41.133 14.071H31.3911C31.0546 14.0747 30.7197 14.1175 30.3931 14.1987L25.3306 5.97225C24.7076 4.94859 23.5945 4.32534 22.3961 4.32912H15.2954C14.3799 4.33119 13.5021 4.69405 12.8523 5.33903L8.90144 9.28991C8.00034 10.1566 7.6385 11.4429 7.95559 12.6522C8.27267 13.8616 9.21908 14.8048 10.4295 15.1179C11.6399 15.4309 12.925 15.0648 13.7886 14.1609L16.7188 11.221H19.1088L15.29 16.9416L9.95897 19.6174L5.28611 16.6948C4.50845 16.2093 3.56972 16.0525 2.6765 16.2592C1.78328 16.4659 1.00877 17.0189 0.523406 17.7968C0.0387594 18.572 -0.117545 19.5082 0.0889746 20.3989C0.295494 21.2895 0.847867 22.0614 1.62424 22.5443L7.94457 26.5006C8.96464 27.1307 10.238 27.1884 11.3109 26.6532L17.6572 23.4752L22.0952 25.6898C22.4283 26.4131 22.9641 27.0241 23.6377 27.4488L26.7702 33.7269L24.0512 35.0865L17.4483 30.9613C15.4206 29.6939 12.7493 30.3104 11.482 32.3382C10.2146 34.3659 10.831 37.0372 12.8588 38.3045L21.5183 43.7167C22.8017 44.5036 24.3983 44.5795 25.7506 43.918L34.6384 39.4779L42.2371 43.2761L46.9998 52.8102C47.7296 54.2816 49.2326 55.2098 50.8749 55.2035H28.1438C27.546 55.2035 27.0614 55.6881 27.0614 56.2859C27.0614 56.8837 27.546 57.3683 28.1438 57.3683H63.8641C64.4619 57.3683 64.9466 56.8837 64.9466 56.2859C64.9466 55.6881 64.4619 55.2035 63.8641 55.2035H50.8825C51.5524 55.2012 52.2127 55.0449 52.8125 54.7467C53.8395 54.233 54.6204 53.3323 54.9834 52.2428C55.3464 51.1533 55.2616 49.9643 54.7479 48.9373L49.3357 38.1129C48.9155 37.2762 48.2368 36.5972 47.4003 36.1765L40.962 32.9584L43.0663 29.802L46.1057 34.7455ZM17.1701 21.2973L10.3508 24.7113C9.94614 24.9122 9.46696 24.8926 9.08004 24.6594L2.76945 20.7074C2.4802 20.5283 2.27435 20.2412 2.19754 19.9098C2.12073 19.5784 2.17931 19.23 2.36029 18.942C2.73711 18.3392 3.53077 18.1552 4.1344 18.5306L9.31926 21.7779C9.63959 21.9784 10.0412 21.9972 10.379 21.8277L16.5164 18.7536C16.6844 18.6695 16.8277 18.543 16.932 18.3867L21.9978 10.7988C22.1901 10.479 22.2214 10.0875 22.0822 9.74128C21.9174 9.33119 21.5197 9.06252 21.0777 9.0626H16.2696C15.9816 9.06237 15.7054 9.1769 15.5021 9.38083L12.2613 12.6335C11.7526 13.1299 10.9408 13.1299 10.432 12.6335C9.93216 12.1321 9.93216 11.3208 10.432 10.8194L14.3829 6.86851C14.626 6.62854 14.9538 6.49399 15.2954 6.49398H22.3961C22.8416 6.49255 23.2554 6.72408 23.4872 7.10448L28.4783 15.2227C28.4307 15.266 28.3766 15.2985 28.33 15.345L26.5981 17.0769L24.745 14.0645C24.5511 13.7509 24.2109 13.5576 23.8423 13.5514C23.4708 13.5327 23.1186 13.7177 22.9233 14.0342L20.2172 18.1042C20.0452 18.3628 19.9926 18.6828 20.0727 18.9829C20.1529 19.283 20.358 19.5342 20.6361 19.6726L22.8865 20.7908C22.2724 21.4176 21.8654 22.2178 21.7207 23.0834L18.1378 21.2963C17.8331 21.1444 17.4746 21.1448 17.1701 21.2973ZM22.6992 18.2806L23.7914 16.6385L25.0297 18.641L24.496 19.1736L22.6992 18.2806ZM26.3795 28.1037C27.2575 28.024 28.0893 27.6747 28.7608 27.1035L31.0155 31.6064L28.7056 32.7614L26.3795 28.1037ZM32.584 29.9103L30.3899 25.5221L33.1847 22.7305H37.3738L32.584 29.9103ZM42.1982 27.1955L38.4811 32.7776C38.3089 33.036 38.256 33.3558 38.3357 33.6558C38.4154 33.9559 38.6201 34.2072 38.8978 34.3461L46.4326 38.1129C46.8504 38.3233 47.1894 38.6626 47.3993 39.0806L52.8114 49.905C53.0685 50.4185 53.1109 51.0132 52.9294 51.5581C52.7479 52.1029 52.3574 52.5534 51.8437 52.8102C50.7731 53.3241 49.4879 52.8958 48.9396 51.8425L44.0112 41.9859C43.9067 41.7761 43.7369 41.6059 43.5274 41.5009L35.1234 37.2989C34.8182 37.1474 34.4597 37.1474 34.1546 37.2989L24.7883 41.9859C24.1114 42.3199 23.3105 42.2836 22.6667 41.8895L14.0073 36.4774C13.3499 36.0673 12.9612 35.3376 12.9876 34.5632C13.0141 33.7888 13.4517 33.0873 14.1355 32.723C14.8194 32.3588 15.6457 32.387 16.3031 32.7971L23.4179 37.2448C23.7377 37.4444 24.1384 37.4633 24.4755 37.2946L32.9001 33.0818C33.0681 32.9976 33.2114 32.8712 33.3157 32.7148L40.2563 22.3083C40.4805 21.9273 40.4738 21.4532 40.239 21.0787C40.0418 20.7599 39.6937 20.5658 39.3189 20.5656H32.7366C32.4496 20.5657 32.1743 20.6798 31.9713 20.8828L27.5095 25.3435C26.6532 26.1616 25.3048 26.1616 24.4484 25.3435C24.2299 25.1225 24.0616 24.857 23.9548 24.5652L23.9483 24.5436C23.655 23.7571 23.8508 22.8717 24.4484 22.2824L25.4973 21.2335L25.5103 21.2216L29.8617 16.8702C30.2661 16.4626 30.817 16.2341 31.3911 16.2359H41.133C41.8842 16.2346 42.5817 16.6252 42.9732 17.2664L50.4474 29.4113C50.6847 29.7974 51.1374 29.9948 51.5818 29.9059L60.186 28.1849C60.9444 28.0327 61.7263 28.2966 62.2373 28.8773C62.7482 29.458 62.9106 30.2671 62.6632 31C62.4158 31.7328 61.7963 32.278 61.0379 32.4302L50.2136 34.595C49.3242 34.7693 48.4196 34.3761 47.9405 33.6068L44.0156 27.2291C43.8222 26.9146 43.4819 26.7204 43.1128 26.7138C42.7462 26.7061 42.4015 26.8882 42.2014 27.1955H42.1982Z" fill="white"/>
<path d="M23.8142 55.2031H21.6493C21.0515 55.2031 20.5669 55.6877 20.5669 56.2856C20.5669 56.8834 21.0515 57.368 21.6493 57.368H23.8142C24.412 57.368 24.8966 56.8834 24.8966 56.2856C24.8966 55.6877 24.412 55.2031 23.8142 55.2031Z" fill="white"/>
</svg>
