<svg width="40" height="50" viewBox="0 0 40 50" fill="none" xmlns="http://www.w3.org/2000/svg">
<path d="M36.7709 28.7474C38.167 28.9241 39.442 27.9349 39.6183 26.5388C39.795 25.1423 38.8058 23.8673 37.4097 23.691C33.0061 23.0643 29.5067 19.6744 28.7402 15.2933C28.3802 13.3244 26.6644 11.8947 24.6627 11.8955H17.5557C9.89828 11.9121 3.42794 17.5761 2.39808 25.1639C2.22263 26.5604 3.21226 27.8349 4.60878 28.0108C6.00529 28.1863 7.27987 27.1966 7.45573 25.8001C8.11562 21.0755 11.9534 17.4347 16.7062 17.0245V30.5799C16.7038 32.8926 15.9804 35.1473 14.637 37.0295C13.0003 39.3331 10.5337 40.9113 7.75643 41.4314C6.3707 41.6894 4.94889 41.6865 3.5644 41.4231C2.57643 41.2331 1.56896 41.6375 0.985801 42.4575C0.403056 43.2771 0.35204 44.3617 0.855565 45.2327C1.20729 45.8395 1.80165 46.2663 2.48891 46.4057C10.1948 47.9432 17.8896 43.7147 20.7232 36.3858C21.0302 35.5819 21.2703 34.7545 21.4416 33.9113C22.4487 34.0805 23.4831 33.9138 24.386 33.4364C27.2438 34.1282 29.7087 35.9295 31.2351 38.4426C32.7618 40.9552 33.2243 43.9731 32.5208 46.8279C32.2853 47.8047 32.6407 48.8291 33.4304 49.45C34.2201 50.0714 35.2994 50.1751 36.1932 49.7159C36.8157 49.3957 37.2716 48.8246 37.4454 48.1464C39.5229 39.9461 34.9165 31.5326 26.8883 28.8656L26.8995 23.1746C29.35 26.2335 32.8858 28.2294 36.7709 28.7474ZM26.8995 15.0257C26.9792 15.2012 27.036 15.3862 27.0692 15.5761C27.963 20.6869 32.0439 24.6417 37.1803 25.3746C37.6245 25.4239 37.9572 25.8059 37.9447 26.2526C37.946 26.487 37.8448 26.7097 37.6677 26.8627C37.4839 27.0233 37.2396 27.0967 36.9974 27.0631C33.0032 26.5272 29.4549 24.2418 27.3139 20.8275L26.9045 20.1481L26.8995 15.0257ZM25.2006 13.6504V27.1821H18.4051V19.341C20.8543 18.925 22.6478 16.8051 22.6523 14.3206V13.5911H24.6644C24.8448 13.5911 25.0248 13.6114 25.2006 13.6504ZM5.77303 25.5716C5.7245 26.017 5.34084 26.3501 4.89289 26.336C4.65938 26.3372 4.43665 26.236 4.28402 26.0593C4.12392 25.8756 4.05092 25.6321 4.08244 25.3907C4.99534 18.6442 10.7477 13.6064 17.5557 13.5911H20.9534V14.3206C20.9476 15.8652 19.9008 17.2116 18.4051 17.5977V16.1394C18.4051 15.6703 18.0248 15.2899 17.5557 15.2899C11.6167 15.307 6.59426 19.6894 5.77303 25.5716ZM2.3201 44.3775C2.1936 44.1506 2.17286 43.8797 2.26328 43.6367C2.4014 43.2315 2.82321 42.9963 3.24088 43.0913C3.76058 43.1875 4.28609 43.251 4.81409 43.2816V44.9805C4.14466 44.9469 3.47813 44.8677 2.81948 44.7425C2.60836 44.6981 2.42628 44.5649 2.3201 44.3775ZM6.51297 44.9872V43.2866C7.03142 43.2559 7.54781 43.1958 8.05963 43.1058C11.2749 42.504 14.1306 40.6765 16.024 38.0091C16.272 37.6591 16.4939 37.2974 16.7038 36.9295L18.2284 37.6939C15.7967 41.9386 11.3952 44.6782 6.51297 44.9855V44.9872ZM35.4184 48.2049C35.1803 48.3211 34.9028 48.3248 34.6614 48.2153C34.2732 48.0606 34.0638 47.6383 34.1758 47.2356C34.2952 46.7462 34.3856 46.2501 34.4458 45.7499H36.1525C36.082 46.4164 35.965 47.0768 35.8025 47.7267C35.749 47.9337 35.6092 48.1079 35.4184 48.2049ZM36.238 44.051H34.5391C34.4918 40.302 32.7996 36.7632 29.9107 34.3725L30.9302 33.0137C34.2442 35.7271 36.1878 39.7682 36.238 44.051ZM29.5515 32.0203L28.5378 33.3696C27.2765 32.5761 25.8846 32.0125 24.4267 31.7047C24.369 31.6919 24.3106 31.6856 24.2517 31.6856C24.092 31.686 23.9352 31.7313 23.8 31.8167C22.9895 32.3293 21.9812 32.4173 21.0945 32.0527C20.8527 31.9532 20.5789 31.9706 20.3516 32.0992C20.1243 32.2281 19.9692 32.4546 19.9306 32.713C19.7801 33.7582 19.5146 34.7835 19.1388 35.7707C19.0878 35.9042 19.026 36.0307 18.9692 36.1614L17.452 35.4032C18.0795 33.8714 18.4022 32.2319 18.4018 30.5765V28.8777H25.1861L25.1787 29.472C25.1737 29.8544 25.4246 30.1925 25.7917 30.2987C27.1218 30.6877 28.3881 31.2675 29.5515 32.0203Z" fill="#98999A"/>
<path d="M19.2547 10.1933H23.973C24.3886 10.1937 24.7432 9.8934 24.8117 9.48403L25.6076 4.70593C25.6719 4.4915 25.7179 4.27209 25.7453 4.05019C25.866 3.94857 25.9564 3.81584 26.0066 3.66611C26.2895 2.81667 26.1468 1.88304 25.623 1.15678C25.0995 0.430527 24.2588 0 23.3633 0H22.0825C20.5006 0.00290336 19.0971 1.0141 18.5935 2.51348L17.82 2.47698C16.9399 2.43384 16.0697 2.67565 15.3376 3.16591L15.2663 3.2136C14.5425 3.69473 13.6163 3.75238 12.8387 3.36375L12.0792 4.89174C13.4032 5.55247 14.9784 5.45541 16.2111 4.63708L16.2816 4.58938C16.7105 4.29822 17.2231 4.15637 17.7408 4.18623L18.4052 4.21651V9.35213C18.4098 9.81833 18.7889 10.1933 19.2547 10.1933ZM22.0858 1.69888H23.36C23.7097 1.69639 24.039 1.86479 24.2418 2.14973C24.3281 2.26918 24.3895 2.40481 24.4226 2.54832H20.4558C20.8266 2.01659 21.4338 1.69929 22.0825 1.69888H22.0858ZM20.1041 4.2472H23.9714L23.9672 4.26255C23.9556 4.29863 23.9465 4.33554 23.9411 4.37287L23.2538 8.4944H20.1041V4.2472Z" fill="#98999A"/>
</svg>
