<svg width="236" height="192" viewBox="0 0 236 192" fill="none" xmlns="http://www.w3.org/2000/svg">
<path d="M8.23003 101.333C15.0708 51.3226 76.1438 7.81227 145.117 17.7811C214.091 27.75 232.845 51.2198 226.004 101.23C219.163 151.241 157.704 183.701 88.7302 173.732C19.7567 163.763 1.38923 151.344 8.23003 101.333Z" fill="#D3D3D3" fill-opacity="0.23"/>
<path d="M148.899 54.0709L124.17 57.7641C121.448 58.1702 118.928 59.4401 116.981 61.3867L68.8814 109.48C68.2849 110.077 67.8118 110.785 67.489 111.564C67.1661 112.343 67 113.179 67 114.022C67 114.866 67.1661 115.701 67.489 116.48C67.8118 117.259 68.2849 117.968 68.8814 118.564L91.5898 141.272C92.1862 141.869 92.8943 142.342 93.6736 142.665C94.4529 142.988 95.2881 143.154 96.1316 143.154C96.9751 143.154 97.8104 142.988 98.5897 142.665C99.369 142.342 100.077 141.869 100.673 141.272L148.794 93.1515C150.726 91.2196 151.992 88.7222 152.407 86.022L154.334 73.5197L156.198 61.4011C156.352 60.4061 156.269 59.3889 155.957 58.4317C155.645 57.4745 155.112 56.6041 154.402 55.8907C153.691 55.1773 152.823 54.6409 151.867 54.3248C150.911 54.0087 149.894 53.9217 148.899 54.0709V54.0709ZM147.227 69.7413C146.416 70.5645 145.337 71.071 144.186 71.1696C143.034 71.2683 141.885 70.9527 140.945 70.2795C140.006 69.6064 139.337 68.62 139.06 67.4978C138.783 66.3757 138.916 65.1915 139.434 64.1584C139.953 63.1254 140.823 62.3112 141.888 61.8626C142.953 61.414 144.144 61.3604 145.245 61.7114C146.346 62.0624 147.286 62.7949 147.895 63.7772C148.504 64.7594 148.743 65.9269 148.568 67.0694C148.416 68.0797 147.946 69.0154 147.227 69.7413V69.7413Z" fill="#4E4C82" fill-opacity="0.5"/>
<path d="M99.5366 115.158C99.0893 114.711 98.5582 114.356 97.9737 114.114C97.3892 113.872 96.7627 113.747 96.13 113.747C95.4973 113.747 94.8709 113.872 94.2863 114.114C93.7018 114.356 93.1708 114.711 92.7234 115.158L90.4529 117.429C90.3038 117.578 90.1267 117.696 89.9317 117.777C89.7368 117.858 89.5279 117.9 89.3168 117.9C89.1058 117.9 88.8969 117.858 88.7019 117.777C88.507 117.696 88.3299 117.578 88.1808 117.429L85.9103 115.158C85.761 115.009 85.6425 114.832 85.5617 114.637C85.4809 114.442 85.4393 114.233 85.4393 114.022C85.4393 113.811 85.4809 113.602 85.5617 113.407C85.6425 113.212 85.761 113.035 85.9103 112.886L90.4513 108.345C90.7438 108.042 90.9056 107.637 90.902 107.216C90.8983 106.795 90.7295 106.392 90.4317 106.094C90.134 105.796 89.7313 105.627 89.3103 105.624C88.8892 105.62 88.4836 105.782 88.1808 106.075L83.6397 110.617C83.1923 111.065 82.8374 111.596 82.5953 112.18C82.3531 112.765 82.2285 113.391 82.2285 114.024C82.2285 114.656 82.3531 115.283 82.5953 115.867C82.8374 116.452 83.1923 116.983 83.6397 117.43L85.9103 119.701C86.3576 120.148 86.8887 120.503 87.4732 120.745C88.0577 120.987 88.6842 121.112 89.3168 121.112C89.9495 121.112 90.576 120.987 91.1605 120.745C91.745 120.503 92.2761 120.148 92.7234 119.701L94.9939 117.43C95.1431 117.281 95.3202 117.163 95.5151 117.082C95.71 117.001 95.919 116.959 96.13 116.959C96.341 116.959 96.55 117.001 96.7449 117.082C96.9398 117.163 97.1169 117.281 97.2661 117.43L99.5366 119.699C99.6859 119.848 99.8043 120.025 99.8851 120.22C99.9659 120.415 100.008 120.624 100.008 120.835C100.008 121.046 99.9659 121.255 99.8851 121.45C99.8043 121.645 99.6859 121.822 99.5366 121.971L94.9956 126.514C94.8422 126.662 94.7199 126.839 94.6357 127.035C94.5515 127.231 94.5073 127.442 94.5054 127.655C94.5035 127.868 94.5442 128.08 94.6249 128.277C94.7056 128.474 94.8249 128.654 94.9756 128.804C95.1264 128.955 95.3057 129.074 95.503 129.155C95.7004 129.236 95.9118 129.277 96.125 129.275C96.3382 129.273 96.5489 129.229 96.7449 129.144C96.9408 129.06 97.1179 128.938 97.2661 128.785L101.809 124.244C102.256 123.796 102.611 123.265 102.853 122.681C103.095 122.096 103.22 121.47 103.22 120.837C103.22 120.204 103.095 119.578 102.853 118.993C102.611 118.409 102.256 117.878 101.809 117.43L99.5366 115.158Z" fill="white"/>
<path d="M117.866 105.363L100.834 95.1442C100.527 94.9601 100.168 94.8839 99.8124 94.9275C99.4572 94.9711 99.1268 95.1322 98.8735 95.3851L96.6014 97.6572C96.3485 97.9104 96.1875 98.2409 96.1438 98.5961C96.1002 98.9513 96.1765 99.3109 96.3605 99.6178L106.579 116.65C106.688 116.831 106.831 116.988 107.001 117.114C107.17 117.239 107.363 117.33 107.568 117.381C107.772 117.432 107.985 117.443 108.193 117.412C108.402 117.38 108.603 117.309 108.783 117.2C108.964 117.091 109.122 116.948 109.247 116.779C109.373 116.609 109.464 116.417 109.515 116.212C109.566 116.007 109.576 115.795 109.545 115.586C109.514 115.377 109.442 115.177 109.333 114.996L106.571 110.394L111.61 105.355L116.212 108.117C116.393 108.226 116.594 108.298 116.802 108.329C117.011 108.36 117.224 108.35 117.428 108.298C117.633 108.247 117.825 108.157 117.995 108.031C118.164 107.906 118.308 107.748 118.416 107.567C118.525 107.386 118.597 107.186 118.628 106.977C118.659 106.769 118.649 106.556 118.598 106.351C118.547 106.147 118.456 105.954 118.33 105.784C118.205 105.615 118.047 105.472 117.866 105.363V105.363ZM104.868 107.557L99.7583 99.0462L100.256 98.5484L108.767 103.658L104.868 107.557Z" fill="white"/>
<path d="M127.728 93.7793L122.05 99.4572L109.561 86.9678C109.413 86.8144 109.236 86.6921 109.04 86.6079C108.844 86.5238 108.633 86.4795 108.42 86.4776C108.207 86.4757 107.995 86.5164 107.798 86.5971C107.601 86.6779 107.421 86.7971 107.271 86.9479C107.12 87.0986 107.001 87.2779 106.92 87.4752C106.839 87.6726 106.799 87.884 106.8 88.0972C106.802 88.3104 106.847 88.5212 106.931 88.7171C107.015 88.913 107.137 89.0902 107.291 89.2383L120.915 102.863C121.216 103.164 121.625 103.333 122.05 103.333C122.476 103.333 122.885 103.164 123.186 102.863L129.999 96.0498C130.291 95.747 130.453 95.3414 130.45 94.9204C130.446 94.4993 130.277 94.0966 129.979 93.7989C129.682 93.5012 129.279 93.3323 128.858 93.3286C128.437 93.325 128.031 93.4868 127.728 93.7793V93.7793Z" fill="white"/>
<path d="M138.418 83.0899L133.875 87.6326L129.334 83.0899L131.605 80.8194C131.897 80.5166 132.059 80.1109 132.055 79.6899C132.052 79.2689 131.883 78.8662 131.585 78.5684C131.287 78.2707 130.885 78.1018 130.464 78.0982C130.043 78.0945 129.637 78.2564 129.334 78.5489L127.064 80.8194L122.521 76.2784L127.064 71.7357C127.217 71.5876 127.339 71.4104 127.423 71.2145C127.508 71.0186 127.552 70.8079 127.554 70.5947C127.556 70.3815 127.515 70.17 127.434 69.9727C127.353 69.7753 127.234 69.5961 127.083 69.4453C126.933 69.2945 126.753 69.1753 126.556 69.0946C126.359 69.0138 126.147 68.9732 125.934 68.975C125.721 68.9769 125.51 69.0212 125.314 69.1053C125.118 69.1895 124.941 69.3118 124.793 69.4652L119.115 75.1431C118.814 75.4442 118.645 75.8526 118.645 76.2784C118.645 76.7041 118.814 77.1125 119.115 77.4136L132.74 91.0383C133.041 91.3394 133.449 91.5085 133.875 91.5085C134.301 91.5085 134.709 91.3394 135.01 91.0383L140.688 85.3604C140.842 85.2123 140.964 85.0351 141.048 84.8392C141.132 84.6433 141.177 84.4326 141.178 84.2194C141.18 84.0062 141.14 83.7947 141.059 83.5974C140.978 83.4001 140.859 83.2208 140.708 83.07C140.557 82.9192 140.378 82.8 140.181 82.7193C139.983 82.6385 139.772 82.5979 139.559 82.5998C139.346 82.6016 139.135 82.6459 138.939 82.7301C138.743 82.8142 138.566 82.9366 138.418 83.0899V83.0899Z" fill="white"/>
<path d="M154.705 71.0837L156.195 61.4011C156.399 60.0686 156.179 58.7056 155.565 57.5053C154.952 56.305 153.976 55.3281 152.776 54.7131L151.119 65.4957L150.917 66.8092C152.386 68.0364 153.663 69.4773 154.705 71.0837V71.0837Z" fill="#4E4C82" fill-opacity="0.5"/>
<path d="M155.722 72.7216C155.401 72.1452 155.052 71.6104 154.705 71.0886C153.665 69.479 152.39 68.0348 150.921 66.8045C149.096 65.198 146.767 64.2805 144.337 64.2112C143.911 64.2112 143.503 64.3804 143.202 64.6815C142.9 64.9826 142.731 65.3911 142.731 65.8169C142.731 66.2428 142.9 66.6512 143.202 66.9524C143.503 67.2535 143.911 67.4227 144.337 67.4227C145.506 67.5109 146.642 67.8438 147.674 68.3999C148.706 68.9559 149.609 69.7226 150.325 70.6502C151.325 71.7697 152.2 72.9958 152.933 74.3065C153.278 74.9102 153.596 75.5702 153.914 76.2334C157.022 82.6547 158.789 91.565 158.789 101.143C158.789 119.421 152.17 134.864 144.337 134.864C138.413 134.864 132.832 125.676 130.765 112.52C130.744 112.387 130.69 111.923 130.614 111.332L127.798 114.15C130.33 128.717 136.755 138.075 144.337 138.075C154.241 138.075 162 121.857 162 101.143C162 90.0396 159.71 79.6761 155.722 72.7216Z" fill="white"/>
</svg>
