<svg width="554" height="358" viewBox="0 0 554 358" fill="none" xmlns="http://www.w3.org/2000/svg">
<path d="M24.6747 149.606C25.2044 182.31 37.4279 185.851 52.4389 182.44C69.5872 178.543 83.662 166.33 90.5989 150.17L95.383 139.026C98.5635 131.617 98.6706 123.248 95.6806 115.76C92.6907 108.273 86.8487 102.279 79.4398 99.0987H79.4398C75.7713 97.5239 71.8285 96.6871 67.8366 96.636C63.8446 96.5849 59.8817 97.3206 56.1741 98.8011C52.4665 100.282 49.0868 102.478 46.228 105.264C43.3692 108.051 41.0872 111.373 39.5124 115.042C24.1179 121.089 21.0775 133.609 24.6747 149.606Z" fill="#34334B"/>
<path d="M121.198 83.7824L125.805 75.986C126.368 75.0339 126.707 73.9668 126.799 72.8647C126.89 71.7627 126.731 70.6542 126.332 69.6225C125.934 68.5908 125.307 67.6627 124.499 66.9078C123.691 66.1529 122.723 65.5908 121.666 65.2637V65.2637C120.551 64.9184 119.37 64.8446 118.221 65.0484C117.071 65.2522 115.987 65.7278 115.059 66.4355C114.131 67.1432 113.385 68.0624 112.884 69.1167C112.383 70.171 112.142 71.3297 112.179 72.4963L112.45 80.8768L90.7979 140.215L102.605 142.68L121.198 83.7824Z" fill="#FCD2B1"/>
<path d="M7.28491 230.062L1.61386 237.122C0.921351 237.985 0.433069 238.992 0.185654 240.07C-0.0617604 241.148 -0.0618861 242.268 0.185286 243.346C0.432457 244.424 0.92051 245.432 1.61283 246.294C2.30515 247.156 3.18376 247.851 4.18274 248.325V248.325C5.23715 248.826 6.39594 249.067 7.56255 249.029C8.72915 248.991 9.86978 248.675 10.8894 248.106C11.9089 247.538 12.7779 246.734 13.4239 245.762C14.07 244.79 14.4743 243.678 14.6032 242.518L15.5291 234.184L45.4144 178.536L34.0786 174.413L7.28491 230.062Z" fill="#FCD2B1"/>
<path d="M42.3228 288.802L43.1575 298.829L43.3533 301.168L98.8574 295.83C100.771 295.614 102.606 294.95 104.214 293.892C105.823 292.834 107.158 291.411 108.113 289.739C109.068 288.067 109.615 286.193 109.71 284.27C109.804 282.347 109.444 280.429 108.658 278.672L90.7575 240.244L84.5744 226.97L57.7807 220.787C35.6862 237.698 55.565 256.361 80.5759 275.24C81.5549 275.982 82.5442 276.724 83.5438 277.466L42.3228 288.802Z" fill="#34334B"/>
<path d="M23.6202 323.524C24.2964 323.62 24.9862 323.541 25.6233 323.295C26.2604 323.048 26.8235 322.642 27.2585 322.116L45.4142 300.138L44.3836 289.832L38.1931 286.118C37.6867 285.814 37.1203 285.624 36.5331 285.562C35.9459 285.499 35.352 285.564 34.7928 285.754C34.2336 285.944 33.7224 286.253 33.2948 286.661C32.8671 287.068 32.5333 287.563 32.3165 288.113L20.4748 318.112C20.2537 318.672 20.1623 319.275 20.2076 319.876C20.2529 320.476 20.4336 321.059 20.7363 321.58C21.039 322.1 21.4557 322.546 21.9551 322.882C22.4546 323.219 23.0239 323.438 23.6202 323.524V323.524Z" fill="#34334B"/>
<path opacity="0.2" d="M39.231 286.741L40.2615 299.107L43.1573 298.829L95.7656 293.769C97.6788 293.553 99.5142 292.889 101.122 291.831C102.731 290.773 104.067 289.35 105.022 287.678C105.976 286.006 106.523 284.132 106.618 282.209C106.713 280.286 106.352 278.368 105.566 276.611L90.7573 243.459V240.244L84.5741 226.97L57.7805 220.787C35.686 237.698 55.5648 256.361 80.5757 275.24L80.452 275.405L39.231 286.741Z" fill="#34334B"/>
<path d="M18.4678 319.401C19.1441 319.498 19.8338 319.419 20.4709 319.173C21.108 318.926 21.6711 318.52 22.1062 317.993L40.2618 296.016L39.2313 285.71L33.0408 281.996C32.5344 281.692 31.9679 281.502 31.3807 281.439C30.7935 281.377 30.1997 281.442 29.6405 281.632C29.0812 281.822 28.5701 282.131 28.1424 282.539C27.7148 282.946 27.381 283.441 27.1641 283.991L15.3225 313.99C15.1013 314.55 15.0099 315.153 15.0552 315.754C15.1005 316.354 15.2813 316.937 15.584 317.458C15.8866 317.978 16.3033 318.424 16.8028 318.76C17.3023 319.097 17.8715 319.316 18.4678 319.401V319.401Z" fill="#34334B"/>
<path d="M37.1699 284.68L38.2004 297.046L93.7046 291.707C95.6177 291.491 97.453 290.827 99.0613 289.769C100.67 288.711 102.006 287.288 102.961 285.617C103.916 283.945 104.464 282.072 104.559 280.149C104.654 278.227 104.295 276.308 103.509 274.551L88.6963 241.398V222.848L52.6278 216.665C29.6639 234.24 52.0386 253.709 78.391 273.344L37.1699 284.68Z" fill="#34334B"/>
<path d="M72.2079 139.376C80.7451 139.376 87.6658 132.455 87.6658 123.918C87.6658 115.381 80.7451 108.46 72.2079 108.46C63.6707 108.46 56.75 115.381 56.75 123.918C56.75 132.455 63.6707 139.376 72.2079 139.376Z" fill="#FCD2B1"/>
<path d="M51.5977 149.681L73.2387 164.108L91.7882 159.986L81.4829 149.681V134.223L64.9945 133.192C64.6483 139.365 61.1112 145.014 51.5977 149.681Z" fill="#FCD2B1"/>
<path d="M48.5061 221.818L88.6966 226.97L97.9713 183.688C102.28 172.199 99.8079 162.049 91.8306 152.985C91.5255 151.459 90.7128 150.082 89.5249 149.078C88.3369 148.074 86.8438 147.501 85.2889 147.454L81.4829 147.62C81.9134 161.287 71.8438 157.995 56.7503 146.589L54.9277 147.136C52.5716 147.843 50.5489 149.374 49.2295 151.45C47.9101 153.526 47.3824 156.008 47.7429 158.441L49.4048 169.659C50.1095 174.106 51.2042 178.483 52.6762 182.738C56.7967 195.053 55.3243 208.09 48.5061 221.818Z" fill="#4E4C82"/>
<path d="M29.9565 175.444L48.506 181.627L56.7502 151.742L53.9573 150.472C51.6417 149.42 49.0124 149.288 46.6029 150.103C44.1934 150.918 42.1843 152.619 40.9831 154.861L29.9565 175.444Z" fill="#4E4C82"/>
<path d="M84.5742 147.62L94.8797 158.955L107.246 139.375L91.7877 131.131L84.5742 147.62Z" fill="#4E4C82"/>
<path d="M54.1738 119.28C63.8875 122.943 74.2541 122.563 85.0896 119.28V106.914H54.1738V119.28Z" fill="#34334B"/>
<path d="M536.281 331.56L525.624 336.001L454.579 239.201L403.071 337.777L389.75 335.113L428.825 199.238H474.116L536.281 331.56Z" fill="#34334B"/>
<path d="M550.578 354.142C549.987 354.303 549.371 354.345 548.763 354.267C548.156 354.189 547.57 353.991 547.039 353.686L524.565 340.746C523.958 340.397 523.44 339.912 523.051 339.331C522.661 338.749 522.411 338.086 522.319 337.392C522.227 336.698 522.297 335.992 522.521 335.329C522.746 334.666 523.121 334.064 523.616 333.569L525.624 331.56L536.281 330.672L552.572 346.312C553.165 346.881 553.596 347.596 553.821 348.386C554.047 349.176 554.059 350.012 553.856 350.808C553.654 351.604 553.243 352.332 552.667 352.917C552.092 353.503 551.371 353.925 550.578 354.142Z" fill="#34334B"/>
<path d="M376.341 357.694C376.932 357.855 377.548 357.898 378.156 357.819C378.763 357.741 379.349 357.544 379.88 357.238L402.354 344.298C402.961 343.949 403.479 343.465 403.868 342.883C404.258 342.301 404.508 341.638 404.6 340.944C404.691 340.25 404.622 339.544 404.398 338.881C404.173 338.218 403.798 337.616 403.303 337.121L401.295 335.113L390.638 334.224L374.347 349.864C373.754 350.433 373.323 351.149 373.098 351.939C372.872 352.728 372.86 353.564 373.063 354.36C373.265 355.156 373.676 355.884 374.251 356.47C374.827 357.055 375.548 357.478 376.341 357.694V357.694Z" fill="#34334B"/>
<path d="M398.63 58.0359L394.19 60.7001L384.988 45.7473C384.423 44.8289 384.087 43.7881 384.009 42.7127C383.93 41.6372 384.111 40.5587 384.537 39.5679C384.963 38.5772 385.62 37.7034 386.455 37.0201C387.289 36.3369 388.275 35.8642 389.33 35.6421C390.268 35.4446 391.238 35.4499 392.174 35.6579C393.11 35.8658 393.991 36.2714 394.757 36.8476C395.523 37.4237 396.158 38.1571 396.617 38.9985C397.077 39.8399 397.351 40.7698 397.422 41.726L398.63 58.0359Z" fill="#FCD2B1"/>
<path d="M521.634 174.451L523.476 169.611L539.954 175.673C540.966 176.045 541.873 176.655 542.6 177.452C543.327 178.249 543.851 179.208 544.13 180.25C544.408 181.292 544.431 182.385 544.198 183.438C543.965 184.491 543.482 185.472 542.79 186.299V186.299C542.175 187.035 541.409 187.63 540.545 188.045C539.681 188.461 538.738 188.687 537.78 188.708C536.821 188.729 535.869 188.545 534.988 188.168C534.106 187.791 533.315 187.229 532.669 186.522L521.634 174.451Z" fill="#FCD2B1"/>
<path d="M451.915 111.32C459.272 111.32 465.236 105.356 465.236 97.9989C465.236 90.6419 459.272 84.6779 451.915 84.6779C444.558 84.6779 438.594 90.6419 438.594 97.9989C438.594 105.356 444.558 111.32 451.915 111.32Z" fill="#FCD2B1"/>
<path d="M463.46 126.417H444.81V105.992L460.796 104.215L463.46 126.417Z" fill="#FCD2B1"/>
<path d="M476.78 204.567H426.161C427.946 176.323 429.359 149.029 426.161 133.522L429.104 119.393C429.512 117.436 430.641 115.703 432.268 114.541C433.895 113.378 435.9 112.87 437.884 113.118L444.81 113.984C449.5 122.23 455.169 122.15 461.683 114.872H470.026C471.138 114.872 472.239 115.094 473.265 115.525C474.29 115.955 475.219 116.586 475.998 117.381C476.777 118.175 477.389 119.116 477.799 120.15C478.21 121.184 478.41 122.289 478.388 123.401C480.561 133.352 481.284 143.565 480.534 153.723L476.78 204.567Z" fill="#FF8C4A"/>
<path d="M391.526 58.0357L398.63 54.4837L436.818 117.537L426.161 133.521L391.526 58.0357Z" fill="#FF8C4A"/>
<path d="M521.735 176.978L527.806 171.856L495.545 126.649C492.388 122.227 488.037 118.795 483.001 116.756C477.965 114.717 472.452 114.155 467.108 115.136L466.09 115.323L478.289 136.671L494.356 148.836L521.735 176.978Z" fill="#FF8C4A"/>
<path d="M467.321 90.1353C467.321 90.1353 469.81 84.6591 463.338 82.1699C463.338 82.1699 457.862 73.2088 446.909 79.1829C446.909 79.1829 439.442 82.1699 439.442 90.1353C439.442 98.1006 436.953 99.5941 436.953 99.5941C436.953 99.5941 440.659 95.7913 441.655 92.8043C442.651 89.8172 450.394 89.1396 453.381 92.1266C456.368 95.1136 463.836 94.6157 463.836 94.6157L463.338 105.568C463.338 105.568 465.827 99.0963 466.823 99.0963C467.818 99.0963 468.814 90.1353 467.321 90.1353Z" fill="#34334B"/>
<rect x="117.505" y="26.1759" width="265" height="72.8312" rx="5" transform="rotate(-5.57429 117.505 26.1759)" fill="white"/>
<rect x="118.051" y="26.625" width="264" height="71.8312" rx="4.5" transform="rotate(-5.57429 118.051 26.625)" stroke="#D3D3D3" stroke-opacity="0.23"/>
<path d="M191.737 60.7094C191.676 60.0722 191.388 59.5772 190.873 59.2243C190.377 58.8696 189.755 58.5669 189.008 58.3164C188.279 58.044 187.481 57.7783 186.612 57.5191C185.762 57.2382 184.955 56.8829 184.191 56.4531C183.445 56.0015 182.797 55.4201 182.247 54.7089C181.718 53.9957 181.397 53.0518 181.286 51.8771C181.189 50.8616 181.275 49.9695 181.544 49.2007C181.811 48.412 182.229 47.7395 182.799 47.1831C183.389 46.6249 184.101 46.1857 184.934 45.8656C185.768 45.5454 186.712 45.3352 187.767 45.2351C188.982 45.1199 190.137 45.1208 191.233 45.2378C192.327 45.3349 193.241 45.5494 193.976 45.8815L193.018 49.438C192.553 49.2008 191.873 49.0142 190.976 48.8783C190.077 48.7225 189.12 48.6928 188.104 48.7892C187.149 48.8798 186.43 49.1389 185.948 49.5663C185.486 49.9918 185.286 50.5232 185.346 51.1603C185.403 51.7576 185.679 52.2337 186.175 52.5884C186.69 52.9413 187.313 53.2539 188.042 53.5263C188.791 53.7967 189.59 54.0724 190.441 54.3534C191.311 54.6324 192.119 54.9977 192.865 55.4493C193.629 55.879 194.276 56.4505 194.805 57.1636C195.353 57.855 195.68 58.7582 195.786 59.8731C195.892 60.9881 195.794 61.9717 195.493 62.824C195.21 63.6544 194.756 64.3705 194.13 64.9723C193.524 65.5723 192.755 66.047 191.824 66.3965C190.913 66.7441 189.89 66.9718 188.755 67.0795C187.262 67.2212 185.934 67.2065 184.773 67.0354C183.612 66.8644 182.749 66.665 182.185 66.4372L183.168 62.8182C183.398 62.9169 183.689 63.0199 184.041 63.1271C184.412 63.2325 184.823 63.3241 185.272 63.402C185.721 63.4799 186.189 63.536 186.674 63.5703C187.18 63.6028 187.691 63.5944 188.209 63.5453C189.423 63.43 190.33 63.1431 190.93 62.6844C191.547 62.204 191.816 61.5456 191.737 60.7094ZM212.292 47.0064L206.2 47.5845L207.838 64.847L203.746 65.2352L202.108 47.9727L195.986 48.5537L195.64 44.91L211.947 43.3628L212.292 47.0064ZM214.098 43.3696C214.548 43.2465 215.029 43.1306 215.541 43.0217C216.071 42.8911 216.593 42.7813 217.107 42.6923C217.641 42.6015 218.156 42.5225 218.652 42.4554C219.148 42.3882 219.605 42.3348 220.023 42.2952C220.998 42.2026 221.963 42.2015 222.915 42.2919C223.888 42.3804 224.764 42.6087 225.542 42.9769C226.34 43.3431 226.995 43.8937 227.507 44.6287C228.036 45.3418 228.356 46.2758 228.466 47.4306C228.628 49.1429 228.362 50.5744 227.668 51.7252C226.973 52.8759 225.979 53.7236 224.685 54.2683L226.236 55.0553L231.771 62.5761L227.052 63.0238L221.527 55.2912L219.34 55.1069L220.153 63.6784L216.062 64.0667L214.098 43.3696ZM220.667 45.9104C220.249 45.9501 219.832 45.9998 219.416 46.0593C219.019 46.117 218.714 46.1861 218.501 46.2666L219.076 52.3294L220.809 52.1651C221.943 52.0574 222.825 51.7126 223.453 51.1307C224.081 50.5488 224.338 49.6605 224.224 48.4659C224.139 47.5699 223.795 46.8995 223.19 46.4546C222.583 45.9898 221.742 45.8084 220.667 45.9104ZM242.784 56.8603L236.363 57.4695L235.219 62.2489L231.127 62.6372L236.656 40.8676L239.672 40.5814L249.196 60.9227L244.896 61.3308L242.784 56.8603ZM237.096 54.0851L241.576 53.66L239.581 49.1483L238.642 45.9226L238.493 45.9368L238.18 49.3114L237.096 54.0851ZM261.874 42.3019L255.782 42.88L257.42 60.1425L253.328 60.5307L251.69 43.2682L245.568 43.8492L245.222 40.2055L261.529 38.6583L261.874 42.3019ZM263.66 38.4561L276.054 37.28L276.4 40.9237L268.097 41.7115L268.559 46.5796L276.115 45.8627L276.461 49.5063L268.905 50.2232L269.389 55.3303L277.841 54.5283L278.187 58.172L265.644 59.3622L263.66 38.4561ZM270.137 32.7186L274.886 32.268L274.971 33.164L270.441 36.2456L267.365 36.5375L270.137 32.7186ZM287.59 46.2806L295.385 45.541L296.269 54.8592C295.499 55.6354 294.542 56.2385 293.397 56.6686C292.272 57.0967 291.143 57.3646 290.008 57.4723C288.674 57.5989 287.41 57.5079 286.215 57.1993C285.04 56.8889 283.994 56.3353 283.074 55.5386C282.153 54.722 281.388 53.6494 280.78 52.3209C280.172 50.9924 279.778 49.3824 279.598 47.4909C279.411 45.5198 279.531 43.8208 279.959 42.3941C280.404 40.9456 281.044 39.7498 281.878 38.8067C282.731 37.8419 283.717 37.1155 284.836 36.6276C285.953 36.1199 287.109 35.8093 288.303 35.6959C289.498 35.5826 290.552 35.573 291.465 35.6672C292.398 35.7595 293.142 35.8797 293.699 36.0278L293.188 39.5417C292.672 39.3898 292.1 39.2934 291.473 39.2524C290.845 39.1915 290.053 39.2064 289.097 39.2971C288.241 39.3783 287.467 39.5823 286.774 39.9092C286.082 40.236 285.496 40.7236 285.015 41.3719C284.552 41.9985 284.214 42.7838 284.003 43.7281C283.811 44.6704 283.777 45.7986 283.902 47.1127C284.021 48.3671 284.263 49.439 284.629 50.3284C284.993 51.198 285.452 51.9078 286.006 52.4579C286.559 52.988 287.177 53.3613 287.86 53.5777C288.564 53.7922 289.294 53.8636 290.05 53.7918C290.568 53.7427 291.07 53.6348 291.556 53.4681C292.041 53.2815 292.44 53.0427 292.754 52.7518L292.38 48.8095L287.825 48.7595L287.59 46.2806ZM297.881 35.209L301.973 34.8208L303.957 55.7269L299.865 56.1151L297.881 35.209ZM317.828 49.7399L311.407 50.3491L310.263 55.1285L306.171 55.5168L311.7 33.7472L314.716 33.461L324.24 53.8023L319.939 54.2104L317.828 49.7399ZM312.14 46.9647L316.62 46.5396L314.625 42.0279L313.686 38.8022L313.537 38.8164L313.224 42.191L312.14 46.9647Z" fill="#98999A"/>
</svg>
