<svg width="554" height="376" viewBox="0 0 554 376" fill="none" xmlns="http://www.w3.org/2000/svg">
<mask id="path-1-inside-1" fill="white">
<path d="M254.376 360.071C252.584 360.058 250.771 360.046 248.99 359.993L249.046 358.274C250.808 358.326 252.61 358.349 254.377 358.351C256.152 358.351 257.961 358.323 259.755 358.268L259.813 359.986C257.999 360.042 256.17 360.071 254.376 360.071ZM238.192 359.345C234.615 359.02 231.004 358.581 227.457 358.04L227.741 356.342C231.249 356.877 234.823 357.312 238.361 357.633L238.192 359.345ZM270.61 359.326L270.439 357.615C273.976 357.291 277.549 356.851 281.057 356.311L281.343 358.009C277.797 358.555 274.185 358.999 270.61 359.326H270.61ZM216.832 356.077C213.33 355.317 209.807 354.437 206.361 353.462L206.87 351.813C210.28 352.778 213.765 353.648 217.229 354.399L216.832 356.077ZM291.966 356.034L291.567 354.358C295.039 353.6 298.523 352.726 301.923 351.759L302.434 353.408C298.998 354.385 295.476 355.268 291.966 356.034H291.966ZM196.086 350.207C192.708 349.019 189.327 347.711 186.039 346.317L186.766 344.745C190.019 346.123 193.363 347.418 196.706 348.593L196.086 350.207ZM312.703 350.14L312.082 348.526C315.405 347.354 318.737 346.06 321.988 344.68L322.717 346.252C319.43 347.648 316.062 348.956 312.703 350.14H312.703ZM176.277 341.816C173.097 340.228 169.922 338.514 166.84 336.726L167.772 335.254C170.821 337.026 173.962 338.719 177.108 340.291L176.277 341.816ZM332.451 341.753L331.619 340.229C334.758 338.658 337.892 336.964 340.933 335.195L341.866 336.664C338.792 338.453 335.624 340.165 332.451 341.753H332.451ZM157.766 331.067C154.821 329.1 151.902 327.013 149.09 324.867L150.21 323.521C152.993 325.646 155.881 327.71 158.794 329.657L157.766 331.067ZM350.925 331.006L349.896 329.597C352.809 327.648 355.693 325.584 358.468 323.462L359.589 324.805C356.784 326.95 353.869 329.036 350.925 331.006V331.006ZM140.846 318.148C138.184 315.834 135.567 313.41 133.068 310.944L134.357 309.746C136.83 312.186 139.419 314.585 142.054 316.875L140.846 318.148ZM367.825 318.088L366.616 316.815C369.244 314.53 371.832 312.13 374.308 309.684L375.597 310.88C373.096 313.353 370.48 315.778 367.825 318.088V318.088ZM125.786 303.282C123.455 300.665 121.182 297.943 119.03 295.192L120.468 294.161C122.597 296.883 124.846 299.577 127.152 302.165L125.786 303.282ZM382.878 303.21L381.511 302.095C383.817 299.504 386.066 296.808 388.195 294.082L389.633 295.112C387.482 297.867 385.209 300.592 382.878 303.21V303.21ZM112.828 286.707C110.863 283.826 108.972 280.851 107.207 277.864L108.771 277.017C110.516 279.972 112.388 282.917 114.332 285.767L112.828 286.707ZM395.838 286.614L394.332 285.675C396.278 282.819 398.149 279.87 399.895 276.908L401.46 277.753C399.695 280.748 397.803 283.729 395.838 286.614V286.614ZM102.19 268.695C100.627 265.6 99.1506 262.419 97.8015 259.24L99.4655 258.593C100.8 261.737 102.261 264.884 103.808 267.946L102.19 268.695ZM406.478 268.561L404.861 267.814C406.406 264.747 407.868 261.591 409.205 258.432L410.869 259.077C409.519 262.27 408.041 265.461 406.478 268.561V268.561ZM94.0517 249.521C92.9153 246.255 91.8772 242.913 90.9658 239.589L92.7035 239.153C93.6047 242.44 94.6319 245.747 95.756 248.977L94.0517 249.521ZM414.612 249.339L412.907 248.798C414.025 245.571 415.048 242.264 415.947 238.97L417.686 239.405C416.776 242.735 415.742 246.077 414.612 249.339V249.339ZM88.5558 229.49C87.8695 226.116 87.2888 222.676 86.8296 219.264L88.6111 219.044C89.0655 222.42 89.64 225.823 90.3189 229.161L88.5558 229.49ZM420.083 229.302L418.32 228.976C418.994 225.639 419.565 222.233 420.015 218.855L421.797 219.073C421.342 222.488 420.765 225.929 420.083 229.302V229.302ZM85.791 208.953C85.5608 205.526 85.4419 202.041 85.438 198.598L87.2344 198.596C87.2383 202.004 87.3559 205.451 87.584 208.842L85.791 208.953ZM422.823 208.761L421.03 208.652C421.254 205.263 421.367 201.816 421.367 198.408L421.366 198.031H423.163L423.164 198.402C423.164 201.852 423.049 205.336 422.823 208.761ZM87.559 188.351L85.766 188.245C85.9888 184.81 86.3296 181.341 86.7792 177.931L88.5615 178.146C88.1164 181.52 87.7791 184.953 87.559 188.351ZM421.006 187.786C420.772 184.387 420.422 180.955 419.965 177.586L421.746 177.364C422.208 180.77 422.563 184.238 422.799 187.674L421.006 187.786ZM90.244 168.025L88.48 167.7C89.1576 164.325 89.9602 160.925 90.8645 157.596L92.6031 158.028C91.7083 161.322 90.9145 164.686 90.244 168.025ZM418.244 167.471C417.559 164.129 416.753 160.769 415.847 157.481L417.584 157.043C418.5 160.366 419.315 163.762 420.007 167.14L418.244 167.471ZM95.6319 148.197L93.9258 147.658C95.0534 144.39 96.3086 141.112 97.6572 137.915L99.3229 138.559C97.9888 141.722 96.7472 144.964 95.6319 148.197ZM412.784 147.661C411.656 144.433 410.404 141.199 409.063 138.05L410.726 137.401C412.083 140.584 413.348 143.853 414.488 147.115L412.784 147.661ZM103.656 129.17L102.037 128.424C103.595 125.323 105.28 122.229 107.045 119.227L108.61 120.071C106.864 123.04 105.198 126.102 103.656 129.17ZM404.71 128.701C403.163 125.647 401.49 122.597 399.736 119.636L401.299 118.788C403.071 121.781 404.763 124.864 406.326 127.951L404.71 128.701ZM114.163 111.297L112.657 110.359C114.616 107.476 116.699 104.615 118.849 101.855L120.29 102.883C118.162 105.614 116.101 108.445 114.163 111.297ZM394.163 110.892C392.219 108.05 390.152 105.228 388.017 102.505L389.454 101.473C391.611 104.226 393.702 107.078 395.667 109.95L394.163 110.892ZM126.964 94.8628L125.595 93.7493C127.922 91.1288 130.368 88.5457 132.865 86.0722L134.157 87.2672C131.686 89.7147 129.266 92.2705 126.964 94.8628ZM381.322 94.5084C379.013 91.9232 376.585 89.375 374.108 86.9346L375.395 85.7363C377.9 88.2023 380.353 90.7778 382.687 93.3907L381.322 94.5084ZM141.84 80.1263L140.63 78.8549C143.289 76.5368 146.057 74.2732 148.858 72.1276L149.98 73.4704C147.209 75.5933 144.47 77.8329 141.84 80.1263V80.1263ZM366.402 79.8144C363.768 77.5315 361.022 75.2986 358.237 73.1782L359.357 71.832C362.17 73.9755 364.946 76.2319 367.607 78.5396L366.402 79.8144ZM158.545 67.3255L157.515 65.9172C160.454 63.945 163.5 62.0384 166.567 60.2497L167.501 61.7184C164.467 63.4882 161.454 65.3747 158.545 67.3255ZM349.647 67.0517C346.722 65.1031 343.699 63.2229 340.662 61.4632L341.592 59.9919C344.662 61.7701 347.718 63.6705 350.673 65.6401L349.647 67.0517ZM176.81 56.6732L175.975 55.1499C179.151 53.5552 182.425 52.0377 185.704 50.6399L186.435 52.2111C183.19 53.5938 179.952 55.0953 176.81 56.6732ZM331.319 56.4372C328.165 54.8652 324.914 53.3708 321.657 51.9953L322.382 50.4216C325.674 51.8118 328.96 53.3225 332.149 54.9114L331.319 56.4372ZM196.335 48.3533L195.712 46.7401C199.08 45.5472 202.534 44.4438 205.978 43.4608L206.491 45.1093C203.084 46.0813 199.667 47.173 196.335 48.3533H196.335ZM311.712 48.158C308.373 46.9887 304.952 45.9088 301.544 44.9489L302.051 43.2987C305.496 44.2691 308.954 45.3608 312.329 46.5432L311.712 48.158ZM216.843 42.4998L216.443 40.8236C219.938 40.0569 223.511 39.3889 227.063 38.8367L227.35 40.5347C223.836 41.0806 220.301 41.7415 216.843 42.4998ZM291.181 42.3746C287.718 41.6273 284.18 40.9781 280.667 40.4449L280.949 38.7461C284.499 39.2852 288.075 39.9415 291.576 40.6968L291.181 42.3746ZM237.967 39.2184L237.794 37.507C241.36 37.1757 244.993 36.9494 248.591 36.8348L248.65 38.5537C245.09 38.6671 241.496 38.8909 237.967 39.2184V39.2184ZM270.045 39.1651C266.511 38.8489 262.916 38.6373 259.36 38.5361L259.414 36.8172C263.007 36.9196 266.64 37.1333 270.212 37.4529L270.045 39.1651Z"/>
</mask>
<path d="M254.376 360.071C252.584 360.058 250.771 360.046 248.99 359.993L249.046 358.274C250.808 358.326 252.61 358.349 254.377 358.351C256.152 358.351 257.961 358.323 259.755 358.268L259.813 359.986C257.999 360.042 256.17 360.071 254.376 360.071ZM238.192 359.345C234.615 359.02 231.004 358.581 227.457 358.04L227.741 356.342C231.249 356.877 234.823 357.312 238.361 357.633L238.192 359.345ZM270.61 359.326L270.439 357.615C273.976 357.291 277.549 356.851 281.057 356.311L281.343 358.009C277.797 358.555 274.185 358.999 270.61 359.326H270.61ZM216.832 356.077C213.33 355.317 209.807 354.437 206.361 353.462L206.87 351.813C210.28 352.778 213.765 353.648 217.229 354.399L216.832 356.077ZM291.966 356.034L291.567 354.358C295.039 353.6 298.523 352.726 301.923 351.759L302.434 353.408C298.998 354.385 295.476 355.268 291.966 356.034H291.966ZM196.086 350.207C192.708 349.019 189.327 347.711 186.039 346.317L186.766 344.745C190.019 346.123 193.363 347.418 196.706 348.593L196.086 350.207ZM312.703 350.14L312.082 348.526C315.405 347.354 318.737 346.06 321.988 344.68L322.717 346.252C319.43 347.648 316.062 348.956 312.703 350.14H312.703ZM176.277 341.816C173.097 340.228 169.922 338.514 166.84 336.726L167.772 335.254C170.821 337.026 173.962 338.719 177.108 340.291L176.277 341.816ZM332.451 341.753L331.619 340.229C334.758 338.658 337.892 336.964 340.933 335.195L341.866 336.664C338.792 338.453 335.624 340.165 332.451 341.753H332.451ZM157.766 331.067C154.821 329.1 151.902 327.013 149.09 324.867L150.21 323.521C152.993 325.646 155.881 327.71 158.794 329.657L157.766 331.067ZM350.925 331.006L349.896 329.597C352.809 327.648 355.693 325.584 358.468 323.462L359.589 324.805C356.784 326.95 353.869 329.036 350.925 331.006V331.006ZM140.846 318.148C138.184 315.834 135.567 313.41 133.068 310.944L134.357 309.746C136.83 312.186 139.419 314.585 142.054 316.875L140.846 318.148ZM367.825 318.088L366.616 316.815C369.244 314.53 371.832 312.13 374.308 309.684L375.597 310.88C373.096 313.353 370.48 315.778 367.825 318.088V318.088ZM125.786 303.282C123.455 300.665 121.182 297.943 119.03 295.192L120.468 294.161C122.597 296.883 124.846 299.577 127.152 302.165L125.786 303.282ZM382.878 303.21L381.511 302.095C383.817 299.504 386.066 296.808 388.195 294.082L389.633 295.112C387.482 297.867 385.209 300.592 382.878 303.21V303.21ZM112.828 286.707C110.863 283.826 108.972 280.851 107.207 277.864L108.771 277.017C110.516 279.972 112.388 282.917 114.332 285.767L112.828 286.707ZM395.838 286.614L394.332 285.675C396.278 282.819 398.149 279.87 399.895 276.908L401.46 277.753C399.695 280.748 397.803 283.729 395.838 286.614V286.614ZM102.19 268.695C100.627 265.6 99.1506 262.419 97.8015 259.24L99.4655 258.593C100.8 261.737 102.261 264.884 103.808 267.946L102.19 268.695ZM406.478 268.561L404.861 267.814C406.406 264.747 407.868 261.591 409.205 258.432L410.869 259.077C409.519 262.27 408.041 265.461 406.478 268.561V268.561ZM94.0517 249.521C92.9153 246.255 91.8772 242.913 90.9658 239.589L92.7035 239.153C93.6047 242.44 94.6319 245.747 95.756 248.977L94.0517 249.521ZM414.612 249.339L412.907 248.798C414.025 245.571 415.048 242.264 415.947 238.97L417.686 239.405C416.776 242.735 415.742 246.077 414.612 249.339V249.339ZM88.5558 229.49C87.8695 226.116 87.2888 222.676 86.8296 219.264L88.6111 219.044C89.0655 222.42 89.64 225.823 90.3189 229.161L88.5558 229.49ZM420.083 229.302L418.32 228.976C418.994 225.639 419.565 222.233 420.015 218.855L421.797 219.073C421.342 222.488 420.765 225.929 420.083 229.302V229.302ZM85.791 208.953C85.5608 205.526 85.4419 202.041 85.438 198.598L87.2344 198.596C87.2383 202.004 87.3559 205.451 87.584 208.842L85.791 208.953ZM422.823 208.761L421.03 208.652C421.254 205.263 421.367 201.816 421.367 198.408L421.366 198.031H423.163L423.164 198.402C423.164 201.852 423.049 205.336 422.823 208.761ZM87.559 188.351L85.766 188.245C85.9888 184.81 86.3296 181.341 86.7792 177.931L88.5615 178.146C88.1164 181.52 87.7791 184.953 87.559 188.351ZM421.006 187.786C420.772 184.387 420.422 180.955 419.965 177.586L421.746 177.364C422.208 180.77 422.563 184.238 422.799 187.674L421.006 187.786ZM90.244 168.025L88.48 167.7C89.1576 164.325 89.9602 160.925 90.8645 157.596L92.6031 158.028C91.7083 161.322 90.9145 164.686 90.244 168.025ZM418.244 167.471C417.559 164.129 416.753 160.769 415.847 157.481L417.584 157.043C418.5 160.366 419.315 163.762 420.007 167.14L418.244 167.471ZM95.6319 148.197L93.9258 147.658C95.0534 144.39 96.3086 141.112 97.6572 137.915L99.3229 138.559C97.9888 141.722 96.7472 144.964 95.6319 148.197ZM412.784 147.661C411.656 144.433 410.404 141.199 409.063 138.05L410.726 137.401C412.083 140.584 413.348 143.853 414.488 147.115L412.784 147.661ZM103.656 129.17L102.037 128.424C103.595 125.323 105.28 122.229 107.045 119.227L108.61 120.071C106.864 123.04 105.198 126.102 103.656 129.17ZM404.71 128.701C403.163 125.647 401.49 122.597 399.736 119.636L401.299 118.788C403.071 121.781 404.763 124.864 406.326 127.951L404.71 128.701ZM114.163 111.297L112.657 110.359C114.616 107.476 116.699 104.615 118.849 101.855L120.29 102.883C118.162 105.614 116.101 108.445 114.163 111.297ZM394.163 110.892C392.219 108.05 390.152 105.228 388.017 102.505L389.454 101.473C391.611 104.226 393.702 107.078 395.667 109.95L394.163 110.892ZM126.964 94.8628L125.595 93.7493C127.922 91.1288 130.368 88.5457 132.865 86.0722L134.157 87.2672C131.686 89.7147 129.266 92.2705 126.964 94.8628ZM381.322 94.5084C379.013 91.9232 376.585 89.375 374.108 86.9346L375.395 85.7363C377.9 88.2023 380.353 90.7778 382.687 93.3907L381.322 94.5084ZM141.84 80.1263L140.63 78.8549C143.289 76.5368 146.057 74.2732 148.858 72.1276L149.98 73.4704C147.209 75.5933 144.47 77.8329 141.84 80.1263V80.1263ZM366.402 79.8144C363.768 77.5315 361.022 75.2986 358.237 73.1782L359.357 71.832C362.17 73.9755 364.946 76.2319 367.607 78.5396L366.402 79.8144ZM158.545 67.3255L157.515 65.9172C160.454 63.945 163.5 62.0384 166.567 60.2497L167.501 61.7184C164.467 63.4882 161.454 65.3747 158.545 67.3255ZM349.647 67.0517C346.722 65.1031 343.699 63.2229 340.662 61.4632L341.592 59.9919C344.662 61.7701 347.718 63.6705 350.673 65.6401L349.647 67.0517ZM176.81 56.6732L175.975 55.1499C179.151 53.5552 182.425 52.0377 185.704 50.6399L186.435 52.2111C183.19 53.5938 179.952 55.0953 176.81 56.6732ZM331.319 56.4372C328.165 54.8652 324.914 53.3708 321.657 51.9953L322.382 50.4216C325.674 51.8118 328.96 53.3225 332.149 54.9114L331.319 56.4372ZM196.335 48.3533L195.712 46.7401C199.08 45.5472 202.534 44.4438 205.978 43.4608L206.491 45.1093C203.084 46.0813 199.667 47.173 196.335 48.3533H196.335ZM311.712 48.158C308.373 46.9887 304.952 45.9088 301.544 44.9489L302.051 43.2987C305.496 44.2691 308.954 45.3608 312.329 46.5432L311.712 48.158ZM216.843 42.4998L216.443 40.8236C219.938 40.0569 223.511 39.3889 227.063 38.8367L227.35 40.5347C223.836 41.0806 220.301 41.7415 216.843 42.4998ZM291.181 42.3746C287.718 41.6273 284.18 40.9781 280.667 40.4449L280.949 38.7461C284.499 39.2852 288.075 39.9415 291.576 40.6968L291.181 42.3746ZM237.967 39.2184L237.794 37.507C241.36 37.1757 244.993 36.9494 248.591 36.8348L248.65 38.5537C245.09 38.6671 241.496 38.8909 237.967 39.2184V39.2184ZM270.045 39.1651C266.511 38.8489 262.916 38.6373 259.36 38.5361L259.414 36.8172C263.007 36.9196 266.64 37.1333 270.212 37.4529L270.045 39.1651Z" fill="#D3D3D3" fill-opacity="0.23" stroke="#D3D3D3" stroke-width="2" mask="url(#path-1-inside-1)"/>
<path d="M289.728 41.044C289.728 63.0686 271.072 80.9599 248.013 80.9599C224.953 80.9599 206.297 63.0686 206.297 41.044C206.297 19.0195 224.953 1.12823 248.013 1.12823C271.072 1.12823 289.728 19.0195 289.728 41.044Z" fill="white" stroke="#D3D3D3"/>
<path d="M402.004 319.655C402.004 341.68 383.348 359.571 360.289 359.571C337.229 359.571 318.573 341.68 318.573 319.655C318.573 297.631 337.229 279.739 360.289 279.739C383.348 279.739 402.004 297.631 402.004 319.655Z" fill="white" stroke="#D3D3D3"/>
<path d="M199.01 326.534C199.01 348.559 180.354 366.45 157.294 366.45C134.234 366.45 115.578 348.559 115.578 326.534C115.578 304.51 134.234 286.618 157.294 286.618C180.354 286.618 199.01 304.51 199.01 326.534Z" fill="white" stroke="#D3D3D3"/>
<mask id="path-5-inside-2" fill="white">
<path d="M266.103 37.8219L251.378 37.8219C250.039 37.8219 248.755 37.3127 247.808 36.4062C246.862 35.4998 246.33 34.2705 246.33 32.9886V18.8913C246.33 18.8384 246.319 18.7861 246.298 18.7372C246.276 18.6883 246.245 18.6439 246.206 18.6065C246.167 18.5691 246.121 18.5394 246.07 18.5192C246.019 18.499 245.964 18.4886 245.909 18.4886H236.232C234.447 18.4886 232.735 19.1675 231.473 20.3761C230.21 21.5846 229.501 23.2238 229.501 24.933V57.1552C229.501 58.8644 230.21 60.5036 231.473 61.7121C232.735 62.9207 234.447 63.5997 236.232 63.5997L259.793 63.5997C261.578 63.5997 263.29 62.9207 264.552 61.7121C265.815 60.5036 266.524 58.8644 266.524 57.1552V38.2247C266.524 38.1718 266.513 38.1194 266.492 38.0705C266.471 38.0216 266.44 37.9773 266.401 37.9399C266.362 37.9025 266.315 37.8728 266.264 37.8525C266.213 37.8323 266.159 37.8219 266.103 37.8219V37.8219ZM256.427 53.933L239.598 53.933C239.152 53.933 238.724 53.7633 238.408 53.4611C238.093 53.159 237.915 52.7492 237.915 52.3219C237.915 51.8946 238.093 51.4848 238.408 51.1827C238.724 50.8805 239.152 50.7108 239.598 50.7108L256.427 50.7108C256.873 50.7108 257.301 50.8805 257.617 51.1827C257.932 51.4848 258.11 51.8946 258.11 52.3219C258.11 52.7492 257.932 53.159 257.617 53.4611C257.301 53.7633 256.873 53.933 256.427 53.933ZM256.427 45.8774H239.598C239.152 45.8774 238.724 45.7077 238.408 45.4056C238.093 45.1034 237.915 44.6936 237.915 44.2663C237.915 43.839 238.093 43.4292 238.408 43.1271C238.724 42.825 239.152 42.6552 239.598 42.6552H256.427C256.873 42.6552 257.301 42.825 257.617 43.1271C257.932 43.4292 258.11 43.839 258.11 44.2663C258.11 44.6936 257.932 45.1034 257.617 45.4056C257.301 45.7077 256.873 45.8774 256.427 45.8774Z"/>
</mask>
<path d="M266.103 37.8219L251.378 37.8219C250.039 37.8219 248.755 37.3127 247.808 36.4062C246.862 35.4998 246.33 34.2705 246.33 32.9886V18.8913C246.33 18.8384 246.319 18.7861 246.298 18.7372C246.276 18.6883 246.245 18.6439 246.206 18.6065C246.167 18.5691 246.121 18.5394 246.07 18.5192C246.019 18.499 245.964 18.4886 245.909 18.4886H236.232C234.447 18.4886 232.735 19.1675 231.473 20.3761C230.21 21.5846 229.501 23.2238 229.501 24.933V57.1552C229.501 58.8644 230.21 60.5036 231.473 61.7121C232.735 62.9207 234.447 63.5997 236.232 63.5997L259.793 63.5997C261.578 63.5997 263.29 62.9207 264.552 61.7121C265.815 60.5036 266.524 58.8644 266.524 57.1552V38.2247C266.524 38.1718 266.513 38.1194 266.492 38.0705C266.471 38.0216 266.44 37.9773 266.401 37.9399C266.362 37.9025 266.315 37.8728 266.264 37.8525C266.213 37.8323 266.159 37.8219 266.103 37.8219V37.8219ZM256.427 53.933L239.598 53.933C239.152 53.933 238.724 53.7633 238.408 53.4611C238.093 53.159 237.915 52.7492 237.915 52.3219C237.915 51.8946 238.093 51.4848 238.408 51.1827C238.724 50.8805 239.152 50.7108 239.598 50.7108L256.427 50.7108C256.873 50.7108 257.301 50.8805 257.617 51.1827C257.932 51.4848 258.11 51.8946 258.11 52.3219C258.11 52.7492 257.932 53.159 257.617 53.4611C257.301 53.7633 256.873 53.933 256.427 53.933ZM256.427 45.8774H239.598C239.152 45.8774 238.724 45.7077 238.408 45.4056C238.093 45.1034 237.915 44.6936 237.915 44.2663C237.915 43.839 238.093 43.4292 238.408 43.1271C238.724 42.825 239.152 42.6552 239.598 42.6552H256.427C256.873 42.6552 257.301 42.825 257.617 43.1271C257.932 43.4292 258.11 43.839 258.11 44.2663C258.11 44.6936 257.932 45.1034 257.617 45.4056C257.301 45.7077 256.873 45.8774 256.427 45.8774Z" fill="white"/>
<path d="M246.33 32.9886H247.33H246.33ZM246.33 18.8913L245.33 18.8913V18.8913H246.33ZM245.909 18.4886L245.909 19.4886L245.909 19.4886L245.909 18.4886ZM236.232 18.4886V19.4886V18.4886ZM229.501 24.933L228.501 24.933V24.933H229.501ZM229.501 57.1552L228.501 57.1552L229.501 57.1552ZM236.232 63.5997V64.5997V63.5997ZM259.793 63.5997V62.5997V63.5997ZM266.524 38.2247L267.524 38.2247L267.524 38.2246L266.524 38.2247ZM266.103 36.8219L251.378 36.8219V38.8219L266.103 38.8219V36.8219ZM251.378 36.8219C250.291 36.8219 249.256 36.4079 248.5 35.6839L247.117 37.1286C248.254 38.2174 249.788 38.8219 251.378 38.8219V36.8219ZM248.5 35.6839C247.745 34.9613 247.33 33.9908 247.33 32.9886L245.33 32.9886C245.33 34.5501 245.978 36.0383 247.117 37.1286L248.5 35.6839ZM247.33 32.9886V18.8913H245.33V32.9886H247.33ZM247.33 18.8913C247.33 18.7007 247.29 18.5132 247.215 18.3401L245.38 19.1343C245.347 19.0589 245.33 18.9762 245.33 18.8913L247.33 18.8913ZM247.215 18.3401C247.14 18.1669 247.032 18.0124 246.898 17.8842L245.515 19.3289C245.459 19.2755 245.412 19.2097 245.38 19.1343L247.215 18.3401ZM246.898 17.8842C246.764 17.7561 246.608 17.6567 246.439 17.5896L245.701 19.4488C245.634 19.4222 245.57 19.3821 245.515 19.3289L246.898 17.8842ZM246.439 17.5896C246.269 17.5225 246.089 17.4886 245.909 17.4886L245.909 19.4886C245.839 19.4886 245.768 19.4754 245.701 19.4488L246.439 17.5896ZM245.909 17.4886H236.232V19.4886H245.909V17.4886ZM236.232 17.4886C234.196 17.4886 232.234 18.2627 230.781 19.6537L232.164 21.0984C233.236 20.0723 234.699 19.4886 236.232 19.4886L236.232 17.4886ZM230.781 19.6537C229.327 21.0461 228.501 22.9442 228.501 24.933L230.501 24.933C230.501 23.5034 231.094 22.1231 232.164 21.0984L230.781 19.6537ZM228.501 24.933V57.1552H230.501V24.933H228.501ZM228.501 57.1552C228.501 59.144 229.327 61.0421 230.781 62.4345L232.164 60.9898C231.094 59.9651 230.501 58.5848 230.501 57.1552L228.501 57.1552ZM230.781 62.4345C232.234 63.8255 234.196 64.5997 236.232 64.5997L236.232 62.5997C234.699 62.5997 233.236 62.0159 232.164 60.9898L230.781 62.4345ZM236.232 64.5997H259.793V62.5997L236.232 62.5997V64.5997ZM259.793 64.5997C261.829 64.5997 263.791 63.8255 265.244 62.4345L263.861 60.9898C262.789 62.0159 261.326 62.5997 259.793 62.5997V64.5997ZM265.244 62.4345C266.698 61.0421 267.524 59.144 267.524 57.1552H265.524C265.524 58.5848 264.931 59.9651 263.861 60.9898L265.244 62.4345ZM267.524 57.1552V38.2247H265.524V57.1552H267.524ZM267.524 38.2246C267.524 38.0341 267.485 37.8467 267.41 37.6734L265.574 38.4677C265.542 38.3921 265.524 38.3094 265.524 38.2247L267.524 38.2246ZM267.41 37.6734C267.335 37.4999 267.226 37.3455 267.092 37.2175L265.709 38.6622C265.654 38.609 265.607 38.5433 265.574 38.4677L267.41 37.6734ZM267.092 37.2175C266.959 37.0895 266.802 36.9901 266.633 36.9229L265.896 38.7822C265.828 38.7555 265.765 38.7154 265.709 38.6622L267.092 37.2175ZM266.633 36.9229C266.464 36.8559 266.284 36.8219 266.103 36.8219L266.103 38.8219C266.033 38.8219 265.963 38.8088 265.896 38.7822L266.633 36.9229ZM256.427 52.933L239.598 52.933V54.933L256.427 54.933V52.933ZM239.598 52.933C239.403 52.933 239.225 52.8585 239.1 52.7388L237.717 54.1835C238.223 54.668 238.9 54.933 239.598 54.933V52.933ZM239.1 52.7388C238.976 52.6205 238.915 52.4695 238.915 52.3219H236.915C236.915 53.0288 237.209 53.6975 237.717 54.1835L239.1 52.7388ZM238.915 52.3219C238.915 52.1742 238.976 52.0233 239.1 51.905L237.717 50.4603C237.209 50.9463 236.915 51.6149 236.915 52.3219H238.915ZM239.1 51.905C239.225 51.7853 239.403 51.7108 239.598 51.7108V49.7108C238.9 49.7108 238.223 49.9758 237.717 50.4603L239.1 51.905ZM239.598 51.7108L256.427 51.7108V49.7108H239.598V51.7108ZM256.427 51.7108C256.622 51.7108 256.8 51.7853 256.925 51.905L258.308 50.4603C257.802 49.9758 257.125 49.7108 256.427 49.7108V51.7108ZM256.925 51.905C257.049 52.0233 257.11 52.1742 257.11 52.3219H259.11C259.11 51.6149 258.816 50.9463 258.308 50.4603L256.925 51.905ZM257.11 52.3219C257.11 52.4695 257.049 52.6205 256.925 52.7388L258.308 54.1835C258.816 53.6975 259.11 53.0288 259.11 52.3219H257.11ZM256.925 52.7388C256.8 52.8585 256.622 52.933 256.427 52.933V54.933C257.125 54.933 257.802 54.668 258.308 54.1835L256.925 52.7388ZM256.427 44.8774H239.598V46.8774H256.427V44.8774ZM239.598 44.8774C239.403 44.8774 239.225 44.8029 239.1 44.6832L237.717 46.1279C238.223 46.6125 238.9 46.8774 239.598 46.8774V44.8774ZM239.1 44.6832C238.976 44.5649 238.915 44.414 238.915 44.2663H236.915C236.915 44.9733 237.209 45.6419 237.717 46.1279L239.1 44.6832ZM238.915 44.2663C238.915 44.1187 238.976 43.9677 239.1 43.8494L237.717 42.4048C237.209 42.8907 236.915 43.5594 236.915 44.2663H238.915ZM239.1 43.8494C239.225 43.7297 239.403 43.6552 239.598 43.6552V41.6552C238.9 41.6552 238.223 41.9202 237.717 42.4048L239.1 43.8494ZM239.598 43.6552H256.427V41.6552H239.598V43.6552ZM256.427 43.6552C256.622 43.6552 256.8 43.7297 256.925 43.8494L258.308 42.4048C257.802 41.9202 257.125 41.6552 256.427 41.6552V43.6552ZM256.925 43.8494C257.049 43.9677 257.11 44.1187 257.11 44.2663H259.11C259.11 43.5594 258.816 42.8907 258.308 42.4048L256.925 43.8494ZM257.11 44.2663C257.11 44.414 257.049 44.5649 256.925 44.6832L258.308 46.1279C258.816 45.6419 259.11 44.9733 259.11 44.2663H257.11ZM256.925 44.6832C256.8 44.8029 256.622 44.8774 256.427 44.8774V46.8774C257.125 46.8774 257.802 46.6125 258.308 46.1279L256.925 44.6832Z" fill="#D3D3D3" mask="url(#path-5-inside-2)"/>
<mask id="path-7-inside-3" fill="white">
<path d="M265.18 34.2561L250.054 19.7752C250.025 19.7472 249.988 19.7282 249.947 19.7205C249.906 19.7128 249.864 19.7168 249.826 19.732C249.787 19.7471 249.755 19.7728 249.732 19.8058C249.708 19.8387 249.696 19.8775 249.696 19.9172V32.9884C249.696 33.4157 249.873 33.8254 250.189 34.1276C250.504 34.4297 250.932 34.5995 251.379 34.5995H265.032C265.073 34.5993 265.114 34.5874 265.148 34.5653C265.183 34.5431 265.21 34.5117 265.225 34.475C265.241 34.4383 265.245 34.398 265.237 34.359C265.229 34.3201 265.21 34.2843 265.18 34.2561L265.18 34.2561Z"/>
</mask>
<path d="M265.18 34.2561L250.054 19.7752C250.025 19.7472 249.988 19.7282 249.947 19.7205C249.906 19.7128 249.864 19.7168 249.826 19.732C249.787 19.7471 249.755 19.7728 249.732 19.8058C249.708 19.8387 249.696 19.8775 249.696 19.9172V32.9884C249.696 33.4157 249.873 33.8254 250.189 34.1276C250.504 34.4297 250.932 34.5995 251.379 34.5995H265.032C265.073 34.5993 265.114 34.5874 265.148 34.5653C265.183 34.5431 265.21 34.5117 265.225 34.475C265.241 34.4383 265.245 34.398 265.237 34.359C265.229 34.3201 265.21 34.2843 265.18 34.2561L265.18 34.2561Z" fill="white"/>
<path d="M250.054 19.7752L250.746 19.0529L250.744 19.0509L250.054 19.7752ZM249.696 19.9172L248.696 19.9128V19.9172L249.696 19.9172ZM249.696 32.9884L248.696 32.9884L249.696 32.9884ZM265.032 34.5995V35.5995L265.036 35.5995L265.032 34.5995ZM265.18 34.2561L265.872 33.5338L264.487 34.9764L265.18 34.2561ZM265.872 33.5338L250.746 19.0529L249.363 20.4976L264.489 34.9785L265.872 33.5338ZM250.744 19.0509C250.572 18.8874 250.359 18.7807 250.133 18.7379L249.761 20.7031C249.616 20.6757 249.478 20.6071 249.365 20.4996L250.744 19.0509ZM250.133 18.7379C249.907 18.6952 249.673 18.7171 249.458 18.8022L250.194 20.6618C250.056 20.7165 249.906 20.7304 249.761 20.7031L250.133 18.7379ZM249.458 18.8022C249.242 18.8874 249.051 19.0344 248.913 19.2314L250.55 20.3801C250.458 20.5112 250.333 20.6069 250.194 20.6618L249.458 18.8022ZM248.913 19.2314C248.774 19.4288 248.697 19.6659 248.696 19.9128L250.696 19.9216C250.695 20.0891 250.642 20.2487 250.55 20.3801L248.913 19.2314ZM248.696 19.9172V32.9884H250.696V19.9172L248.696 19.9172ZM248.696 32.9884C248.696 33.6953 248.99 34.364 249.497 34.8499L250.88 33.4052C250.757 33.2869 250.696 33.136 250.696 32.9884L248.696 32.9884ZM249.497 34.8499C250.003 35.3345 250.681 35.5995 251.379 35.5995V33.5995C251.184 33.5995 251.005 33.525 250.88 33.4052L249.497 34.8499ZM251.379 35.5995H265.032V33.5995H251.379V35.5995ZM265.036 35.5995C265.265 35.5985 265.492 35.533 265.689 35.4064L264.607 33.7242C264.736 33.6418 264.882 33.6001 265.028 33.5995L265.036 35.5995ZM265.689 35.4064C265.887 35.2795 266.047 35.0952 266.143 34.8715L264.307 34.0785C264.372 33.9283 264.479 33.8068 264.607 33.7242L265.689 35.4064ZM266.143 34.8715C266.24 34.6475 266.267 34.3981 266.217 34.1568L264.258 34.5613C264.224 34.3978 264.242 34.2292 264.307 34.0785L266.143 34.8715ZM266.217 34.1568C266.167 33.916 266.045 33.7008 265.874 33.5358L264.487 34.9764C264.374 34.8677 264.292 34.7242 264.258 34.5613L266.217 34.1568ZM264.489 34.9784L264.489 34.9785L265.872 33.5338L265.872 33.5338L264.489 34.9784Z" fill="#D3D3D3" mask="url(#path-7-inside-3)"/>
<path d="M367.632 312.681L367.978 312.32L367.632 312.681C367.915 312.952 368.087 313.304 368.125 313.676C368.164 314.048 368.067 314.423 367.847 314.739C367.627 315.054 367.296 315.291 366.907 315.405C366.518 315.518 366.1 315.498 365.725 315.35C365.351 315.201 365.047 314.935 364.86 314.602C364.674 314.269 364.615 313.887 364.692 313.52C364.768 313.152 364.976 312.817 365.285 312.573C365.596 312.329 365.988 312.194 366.395 312.193C366.627 312.193 366.855 312.237 367.068 312.321C367.28 312.405 367.472 312.528 367.632 312.681Z" fill="white" stroke="#D3D3D3"/>
<path d="M378.051 302.693C378.195 302.833 378.297 303.002 378.35 303.186V303.187L378.364 303.245C378.921 305.572 378.317 309.24 376.596 313.329L376.595 313.333C374.986 317.252 372.596 320.835 369.556 323.881C368.686 324.718 367.754 325.494 366.768 326.204L366.543 326.366L366.562 326.643C366.664 328.16 366.408 329.68 365.811 331.09C364.811 333.279 363.024 334.698 361.181 335.617C359.335 336.538 357.466 336.941 356.369 337.11L356.367 337.11C356.279 337.124 356.189 337.131 356.1 337.131C356.051 337.13 356.001 337.128 355.952 337.123C355.741 337.102 355.537 337.042 355.352 336.946C355.167 336.85 355.004 336.721 354.874 336.567C354.743 336.413 354.646 336.237 354.588 336.049C354.529 335.862 354.51 335.666 354.531 335.472L354.534 335.445V335.436L355.118 330.309L355.175 329.807L354.672 329.755L354.492 329.737L354.491 329.737C353.943 329.682 353.435 329.448 353.051 329.079L353.051 329.078L350.419 326.557L350.419 326.557C350.035 326.19 349.797 325.711 349.741 325.202C349.737 325.165 349.734 325.141 349.731 325.117C349.728 325.09 349.725 325.065 349.721 325.024L349.67 324.525L349.172 324.577L343.806 325.138H343.797L343.773 325.14C343.525 325.164 343.275 325.133 343.043 325.05C342.811 324.967 342.604 324.834 342.437 324.664C342.271 324.494 342.149 324.291 342.08 324.072C342.01 323.853 341.995 323.622 342.034 323.397L342.035 323.395C342.399 321.273 343.743 316.306 348.32 314.373C349.805 313.794 351.408 313.548 353.009 313.654L353.271 313.671L353.434 313.465C354.176 312.526 354.987 311.637 355.859 310.806C359.072 307.894 362.847 305.606 366.974 304.07L366.974 304.07L366.979 304.068C371.306 302.409 375.119 301.832 377.468 302.38L377.47 302.381C377.693 302.432 377.894 302.541 378.051 302.693ZM370.222 317.524L370.222 317.523L370.275 317.473L370.277 317.471C371.282 316.494 371.844 315.171 371.834 313.79C371.823 312.409 371.239 311.094 370.219 310.132L370.218 310.131C370.218 310.131 370.218 310.131 370.218 310.131C369.457 309.404 368.491 308.911 367.443 308.712C366.394 308.513 365.307 308.616 364.319 309.008C363.33 309.401 362.482 310.067 361.883 310.925C361.285 311.784 360.964 312.795 360.965 313.832C360.965 314.869 361.287 315.88 361.886 316.738C362.486 317.596 363.335 318.261 364.324 318.652C365.313 319.044 366.4 319.146 367.448 318.946C368.497 318.745 369.462 318.252 370.222 317.524Z" fill="white" stroke="#D3D3D3"/>
<path d="M350.127 331.798L350.127 331.798L351.481 330.337L351.755 330.755C351.755 330.755 351.755 330.755 351.755 330.755C351.925 330.644 352.135 330.594 352.345 330.619L352.404 330.123L352.345 330.619C352.573 330.646 352.775 330.758 352.909 330.923C353.043 331.087 353.101 331.29 353.075 331.49L353.075 331.491C352.955 332.46 352.496 333.365 351.768 334.059L351.768 334.06L351.761 334.066C351.633 334.189 351.367 334.443 350.729 334.729C350.067 335.024 348.993 335.358 347.247 335.595C346.243 335.728 345.232 335.812 344.22 335.847H344.195H344.194L344.172 335.847L344.172 335.847C344.059 335.844 343.948 335.82 343.845 335.776C343.743 335.733 343.652 335.671 343.577 335.595C343.502 335.52 343.444 335.432 343.406 335.337C343.369 335.244 343.351 335.145 343.353 335.046C343.39 334.077 343.478 333.111 343.618 332.152C343.864 330.485 344.211 329.462 344.517 328.834C344.812 328.228 345.075 327.975 345.205 327.851C345.207 327.849 345.209 327.847 345.211 327.845C345.937 327.15 346.886 326.704 347.911 326.58C348.076 326.56 348.242 326.587 348.39 326.655C348.537 326.724 348.658 326.83 348.739 326.958C348.82 327.086 348.86 327.232 348.856 327.378C348.852 327.524 348.804 327.667 348.716 327.791L348.705 327.807L348.695 327.823L347.676 329.509L347.676 329.509C347.476 329.841 347.398 330.229 347.456 330.611C347.513 330.993 347.703 331.341 347.988 331.602C348.274 331.862 348.639 332.02 349.024 332.055C349.41 332.09 349.798 332.001 350.127 331.798Z" fill="white" stroke="#D3D3D3"/>
<path d="M142.764 347.997H139.706C139.223 347.997 138.764 347.813 138.429 347.492C138.095 347.172 137.912 346.743 137.912 346.3V333.123C137.912 332.681 138.095 332.251 138.429 331.931C138.764 331.611 139.223 331.427 139.706 331.427H142.764C143.247 331.427 143.706 331.611 144.041 331.931C144.375 332.251 144.558 332.681 144.558 333.123V346.3C144.558 346.743 144.375 347.172 144.041 347.492C143.706 347.813 143.247 347.997 142.764 347.997Z" fill="white" stroke="#D3D3D3"/>
<path d="M164.175 347.997H161.117C160.634 347.997 160.175 347.813 159.84 347.492C159.506 347.172 159.323 346.743 159.323 346.3V324.338C159.323 323.896 159.506 323.467 159.84 323.147C160.175 322.826 160.634 322.642 161.117 322.642H164.175C164.658 322.642 165.117 322.826 165.452 323.147C165.786 323.467 165.969 323.896 165.969 324.338V346.3C165.969 346.743 165.786 347.172 165.452 347.492C165.117 347.813 164.658 347.997 164.175 347.997Z" fill="white" stroke="#D3D3D3"/>
<path d="M174.881 347.997H171.822C171.34 347.997 170.881 347.813 170.546 347.492C170.212 347.172 170.028 346.743 170.028 346.301V314.09C170.028 313.647 170.212 313.218 170.546 312.898C170.881 312.577 171.34 312.393 171.822 312.393H174.881C175.364 312.393 175.822 312.577 176.157 312.898C176.492 313.218 176.675 313.647 176.675 314.09V346.301C176.675 346.743 176.492 347.172 176.157 347.492C175.822 347.813 175.364 347.997 174.881 347.997Z" fill="white" stroke="#D3D3D3"/>
<path d="M153.471 347.997H150.412C149.93 347.997 149.471 347.813 149.136 347.492C148.802 347.172 148.618 346.743 148.618 346.3V306.769C148.618 306.326 148.802 305.897 149.136 305.577C149.471 305.256 149.93 305.073 150.412 305.073H153.471C153.954 305.073 154.412 305.256 154.747 305.577C155.081 305.897 155.265 306.326 155.265 306.769V346.3C155.265 346.52 155.22 346.738 155.131 346.942C155.043 347.147 154.913 347.334 154.747 347.492C154.581 347.651 154.384 347.778 154.164 347.865C153.945 347.952 153.709 347.997 153.471 347.997Z" fill="white" stroke="#D3D3D3"/>
<path d="M109.13 143.424C109.286 143.275 109.409 143.098 109.494 142.903C109.578 142.709 109.621 142.5 109.621 142.289C109.621 142.079 109.578 141.87 109.494 141.675C109.409 141.481 109.286 141.304 109.13 141.155V143.424ZM109.13 143.424L104.103 148.236L109.13 143.424ZM102.919 148.206H102.918C102.681 148.206 102.451 148.139 102.257 148.015C102.063 147.891 101.915 147.717 101.829 147.517C101.743 147.318 101.721 147.101 101.764 146.891C101.808 146.681 101.916 146.485 102.079 146.329L105.921 142.65L106.299 142.289L105.921 141.928L102.079 138.25L102.079 138.25C101.861 138.041 101.743 137.762 101.743 137.477C101.743 137.191 101.861 136.912 102.079 136.703C102.298 136.494 102.6 136.372 102.918 136.372C103.237 136.372 103.538 136.494 103.757 136.703L104.081 136.366L103.757 136.703L108.784 141.516L108.785 141.516C108.893 141.62 108.977 141.741 109.035 141.874C109.092 142.006 109.121 142.147 109.121 142.289C109.121 142.431 109.092 142.572 109.035 142.705C108.977 142.837 108.893 142.959 108.785 143.062L108.784 143.062L103.757 147.875L103.757 147.876C103.649 147.979 103.519 148.063 103.375 148.12C103.231 148.177 103.076 148.206 102.919 148.206Z" fill="white" stroke="#D3D3D3"/>
<path d="M74.9316 151.915V151.915V150.312C74.9444 147.903 75.9491 145.592 77.7351 143.881C79.5217 142.17 81.9459 141.199 84.4821 141.185H106.27C106.588 141.185 106.89 141.306 107.109 141.516C107.327 141.725 107.445 142.004 107.445 142.289C107.445 142.575 107.327 142.854 107.109 143.063C106.89 143.272 106.588 143.394 106.27 143.394L84.4858 143.394L84.4829 143.394C82.5828 143.404 80.7596 144.132 79.4102 145.425C78.06 146.718 77.293 148.474 77.283 150.313H77.283V150.315V151.915V151.915C77.283 152.057 77.2539 152.198 77.1966 152.33C77.1393 152.463 77.0547 152.584 76.9465 152.688C76.8382 152.792 76.7085 152.875 76.5643 152.932C76.42 152.989 76.2647 153.019 76.1074 153.019L76.1073 153.519L76.1073 153.019C75.95 153.019 75.7946 152.989 75.6504 152.932C75.5061 152.875 75.3764 152.792 75.2682 152.688C75.16 152.584 75.0754 152.463 75.0181 152.33C74.9608 152.198 74.9316 152.057 74.9316 151.915Z" fill="white" stroke="#D3D3D3"/>
<path d="M89.5133 165.853H89.5127C89.3555 165.853 89.2003 165.823 89.0562 165.766C88.9122 165.709 88.7827 165.626 88.6747 165.522L88.6742 165.522L83.6472 160.709L83.6471 160.709C83.5389 160.605 83.4543 160.484 83.397 160.351C83.3397 160.219 83.3105 160.078 83.3105 159.936C83.3105 159.794 83.3397 159.653 83.397 159.52C83.4543 159.388 83.5389 159.266 83.6471 159.163L83.6472 159.163L88.6739 154.35C88.674 154.35 88.6741 154.35 88.6742 154.35C88.6742 154.35 88.6742 154.35 88.6742 154.35C88.8933 154.141 89.1945 154.02 89.5128 154.02C89.8312 154.02 90.1325 154.141 90.3513 154.351C90.5694 154.56 90.6877 154.838 90.6879 155.124C90.688 155.409 90.5701 155.687 90.3523 155.896C90.3522 155.896 90.3522 155.896 90.3521 155.897L86.5103 159.575L86.1331 159.936L86.5103 160.297L90.3524 163.975C90.5153 164.131 90.6236 164.327 90.6672 164.537C90.7108 164.747 90.6887 164.965 90.6025 165.164C90.5162 165.363 90.3686 165.537 90.1748 165.661C89.9808 165.785 89.7506 165.853 89.5133 165.853Z" fill="white" stroke="#D3D3D3"/>
<path d="M24.6747 167.606C25.2044 200.31 37.4279 203.851 52.4389 200.44C69.5872 196.543 83.662 184.33 90.5989 168.17L95.383 157.026C98.5635 149.617 98.6706 141.248 95.6806 133.761C92.6907 126.273 86.8487 120.279 79.4398 117.099H79.4398C75.7713 115.524 71.8285 114.687 67.8366 114.636C63.8446 114.585 59.8817 115.321 56.1741 116.801C52.4665 118.282 49.0868 120.478 46.228 123.264C43.3692 126.051 41.0872 129.373 39.5124 133.042C24.1179 139.089 21.0775 151.609 24.6747 167.606Z" fill="#34334B"/>
<path d="M121.198 101.782L125.805 93.986C126.368 93.0339 126.707 91.9668 126.799 90.8648C126.89 89.7627 126.731 88.6542 126.332 87.6225C125.934 86.5909 125.307 85.6628 124.499 84.9079C123.691 84.1529 122.723 83.5908 121.666 83.2637V83.2637C120.551 82.9184 119.37 82.8446 118.221 83.0484C117.071 83.2523 115.987 83.7278 115.059 84.4355C114.131 85.1432 113.385 86.0625 112.884 87.1167C112.383 88.171 112.142 89.3297 112.179 90.4964L112.45 98.8769L90.7979 158.215L102.605 160.68L121.198 101.782Z" fill="#FCD2B1"/>
<path d="M7.28491 248.062L1.61386 255.122C0.921351 255.985 0.433069 256.992 0.185654 258.07C-0.0617604 259.148 -0.0618861 260.268 0.185286 261.346C0.432457 262.424 0.92051 263.432 1.61283 264.294C2.30515 265.156 3.18376 265.851 4.18274 266.325V266.325C5.23715 266.826 6.39594 267.067 7.56255 267.029C8.72915 266.991 9.86978 266.675 10.8894 266.106C11.9089 265.538 12.7779 264.735 13.4239 263.762C14.07 262.79 14.4743 261.678 14.6032 260.518L15.5291 252.184L45.4144 196.536L34.0786 192.414L7.28491 248.062Z" fill="#FCD2B1"/>
<path d="M42.3228 306.802L43.1575 316.829L43.3533 319.168L98.8574 313.83C100.771 313.615 102.606 312.95 104.214 311.892C105.823 310.834 107.158 309.411 108.113 307.739C109.068 306.067 109.615 304.194 109.71 302.271C109.804 300.348 109.444 298.429 108.658 296.672L90.7575 258.244L84.5744 244.97L57.7807 238.787C35.6862 255.698 55.565 274.361 80.5759 293.24C81.5549 293.982 82.5442 294.724 83.5438 295.466L42.3228 306.802Z" fill="#34334B"/>
<path d="M23.6202 341.524C24.2964 341.62 24.9862 341.541 25.6233 341.295C26.2604 341.048 26.8235 340.642 27.2585 340.116L45.4142 318.138L44.3836 307.832L38.1931 304.118C37.6867 303.814 37.1203 303.624 36.5331 303.562C35.9459 303.499 35.352 303.564 34.7928 303.754C34.2336 303.944 33.7224 304.253 33.2948 304.661C32.8671 305.068 32.5333 305.563 32.3165 306.113L20.4748 336.112C20.2537 336.672 20.1623 337.275 20.2076 337.876C20.2529 338.476 20.4336 339.059 20.7363 339.58C21.039 340.1 21.4557 340.546 21.9551 340.883C22.4546 341.219 23.0239 341.438 23.6202 341.524V341.524Z" fill="#34334B"/>
<path opacity="0.2" d="M39.231 304.741L40.2615 317.107L43.1573 316.829L95.7656 311.769C97.6788 311.553 99.5142 310.889 101.122 309.831C102.731 308.773 104.067 307.35 105.022 305.678C105.976 304.006 106.523 302.132 106.618 300.209C106.713 298.286 106.352 296.368 105.566 294.611L90.7573 261.459V258.244L84.5741 244.97L57.7805 238.787C35.686 255.698 55.5648 274.361 80.5757 293.24L80.452 293.405L39.231 304.741Z" fill="#34334B"/>
<path d="M18.4678 337.401C19.1441 337.498 19.8338 337.419 20.4709 337.173C21.108 336.926 21.6711 336.52 22.1062 335.994L40.2618 314.016L39.2313 303.71L33.0408 299.996C32.5344 299.692 31.9679 299.502 31.3807 299.439C30.7935 299.377 30.1997 299.442 29.6405 299.632C29.0812 299.822 28.5701 300.131 28.1424 300.539C27.7148 300.946 27.381 301.441 27.1641 301.991L15.3225 331.99C15.1013 332.55 15.0099 333.153 15.0552 333.754C15.1005 334.354 15.2813 334.937 15.584 335.458C15.8866 335.978 16.3033 336.424 16.8028 336.76C17.3023 337.097 17.8715 337.316 18.4678 337.401V337.401Z" fill="#34334B"/>
<path d="M37.1699 302.68L38.2004 315.046L93.7046 309.707C95.6177 309.491 97.453 308.827 99.0613 307.769C100.67 306.711 102.006 305.288 102.961 303.617C103.916 301.945 104.464 300.072 104.559 298.149C104.654 296.227 104.295 294.308 103.509 292.551L88.6963 259.398V240.848L52.6278 234.665C29.6639 252.24 52.0386 271.709 78.391 291.344L37.1699 302.68Z" fill="#34334B"/>
<path d="M72.2079 157.376C80.7451 157.376 87.6658 150.455 87.6658 141.918C87.6658 133.381 80.7451 126.46 72.2079 126.46C63.6707 126.46 56.75 133.381 56.75 141.918C56.75 150.455 63.6707 157.376 72.2079 157.376Z" fill="#FCD2B1"/>
<path d="M51.5977 167.681L73.2387 182.108L91.7882 177.986L81.4829 167.681V152.223L64.9945 151.192C64.6483 157.365 61.1112 163.014 51.5977 167.681Z" fill="#FCD2B1"/>
<path d="M48.5061 239.818L88.6966 244.97L97.9713 201.688C102.28 190.199 99.8079 180.049 91.8306 170.985C91.5255 169.459 90.7128 168.082 89.5249 167.078C88.3369 166.074 86.8438 165.501 85.2889 165.454L81.4829 165.62C81.9134 179.287 71.8438 175.995 56.7503 164.589L54.9277 165.136C52.5716 165.843 50.5489 167.374 49.2295 169.45C47.9101 171.527 47.3824 174.008 47.7429 176.441L49.4048 187.659C50.1095 192.107 51.2042 196.483 52.6762 200.739C56.7967 213.053 55.3243 226.09 48.5061 239.818Z" fill="#4E4C82"/>
<path d="M29.9565 193.444L48.506 199.627L56.7502 169.742L53.9573 168.472C51.6417 167.42 49.0124 167.288 46.6029 168.103C44.1934 168.918 42.1843 170.619 40.9831 172.861L29.9565 193.444Z" fill="#4E4C82"/>
<path d="M84.5742 165.62L94.8797 176.955L107.246 157.375L91.7877 149.132L84.5742 165.62Z" fill="#4E4C82"/>
<path d="M54.1738 137.28C63.8875 140.943 74.2541 140.563 85.0896 137.28V124.914H54.1738V137.28Z" fill="#34334B"/>
<path d="M536.281 349.56L525.624 354.001L454.579 257.201L403.071 355.777L389.75 353.113L428.825 217.238H474.116L536.281 349.56Z" fill="#34334B"/>
<path d="M550.578 372.142C549.987 372.303 549.371 372.345 548.763 372.267C548.156 372.189 547.57 371.991 547.039 371.686L524.565 358.746C523.958 358.397 523.44 357.913 523.051 357.331C522.661 356.749 522.411 356.086 522.319 355.392C522.227 354.698 522.297 353.992 522.521 353.329C522.746 352.666 523.121 352.064 523.616 351.569L525.624 349.56L536.281 348.672L552.572 364.312C553.165 364.881 553.596 365.596 553.821 366.386C554.047 367.176 554.059 368.012 553.856 368.808C553.654 369.604 553.243 370.332 552.667 370.917C552.092 371.503 551.371 371.925 550.578 372.142Z" fill="#34334B"/>
<path d="M376.341 375.694C376.932 375.855 377.548 375.898 378.156 375.819C378.763 375.741 379.349 375.544 379.88 375.238L402.354 362.298C402.961 361.949 403.479 361.465 403.868 360.883C404.258 360.301 404.508 359.638 404.6 358.944C404.691 358.25 404.622 357.544 404.398 356.881C404.173 356.218 403.798 355.616 403.303 355.121L401.295 353.113L390.638 352.225L374.347 367.864C373.754 368.433 373.323 369.149 373.098 369.939C372.872 370.728 372.86 371.564 373.063 372.36C373.265 373.156 373.676 373.884 374.251 374.47C374.827 375.055 375.548 375.478 376.341 375.694V375.694Z" fill="#34334B"/>
<path d="M389.164 94.0449L385.665 97.8623L372.59 86.1454C371.787 85.4258 371.168 84.5236 370.787 83.515C370.406 82.5063 370.273 81.4208 370.399 80.3499C370.525 79.279 370.907 78.2541 371.512 77.3617C372.118 76.4694 372.929 75.7357 373.877 75.2225C374.72 74.7662 375.651 74.4955 376.608 74.4286C377.564 74.3616 378.524 74.4999 379.423 74.8342C380.321 75.1685 381.138 75.6912 381.818 76.367C382.498 77.0428 383.026 77.8562 383.366 78.7527L389.164 94.0449Z" fill="#FCD2B1"/>
<path d="M521.634 192.451L523.476 187.611L539.954 193.673C540.966 194.045 541.873 194.655 542.6 195.452C543.327 196.249 543.851 197.208 544.13 198.25C544.408 199.292 544.431 200.385 544.198 201.438C543.965 202.491 543.482 203.472 542.79 204.299V204.299C542.175 205.035 541.409 205.63 540.545 206.045C539.681 206.461 538.738 206.687 537.78 206.708C536.821 206.729 535.869 206.545 534.988 206.168C534.106 205.791 533.315 205.229 532.669 204.522L521.634 192.451Z" fill="#FCD2B1"/>
<path d="M451.915 129.32C459.272 129.32 465.236 123.356 465.236 115.999C465.236 108.642 459.272 102.678 451.915 102.678C444.558 102.678 438.594 108.642 438.594 115.999C438.594 123.356 444.558 129.32 451.915 129.32Z" fill="#FCD2B1"/>
<path d="M463.46 144.417H444.81V123.992L460.796 122.215L463.46 144.417Z" fill="#FCD2B1"/>
<path d="M476.78 222.567H426.161C427.946 194.323 429.359 167.029 426.161 151.522L429.104 137.393C429.512 135.436 430.641 133.703 432.268 132.541C433.895 131.378 435.9 130.87 437.884 131.118L444.81 131.984C449.5 140.23 455.169 140.15 461.683 132.872H470.026C471.138 132.872 472.239 133.094 473.265 133.525C474.29 133.955 475.219 134.586 475.998 135.381C476.777 136.175 477.389 137.116 477.799 138.15C478.21 139.184 478.41 140.289 478.388 141.401C480.561 151.352 481.284 161.565 480.534 171.723L476.78 222.567Z" fill="#FF8C4A"/>
<path d="M382.888 97.2721L388.724 91.8838L442.945 141.824L437.156 160.142L382.888 97.2721Z" fill="#FF8C4A"/>
<path d="M521.735 194.978L527.806 189.856L495.545 144.649C492.388 140.227 488.037 136.795 483.001 134.756C477.965 132.717 472.452 132.155 467.108 133.136L466.09 133.323L478.289 154.671L494.356 166.836L521.735 194.978Z" fill="#FF8C4A"/>
<path d="M467.321 108.135C467.321 108.135 469.81 102.659 463.338 100.17C463.338 100.17 457.862 91.2089 446.909 97.1829C446.909 97.1829 439.442 100.17 439.442 108.135C439.442 116.101 436.953 117.594 436.953 117.594C436.953 117.594 440.659 113.791 441.655 110.804C442.651 107.817 450.394 107.14 453.381 110.127C456.368 113.114 463.836 112.616 463.836 112.616L463.338 123.568C463.338 123.568 465.827 117.096 466.823 117.096C467.818 117.096 468.814 108.135 467.321 108.135Z" fill="#34334B"/>
<path d="M190.938 200.986C190.938 200.346 190.698 199.826 190.218 199.426C189.758 199.026 189.168 198.666 188.448 198.346C187.748 198.006 186.978 197.666 186.138 197.326C185.318 196.966 184.548 196.536 183.828 196.036C183.128 195.516 182.538 194.876 182.058 194.116C181.598 193.356 181.368 192.386 181.368 191.206C181.368 190.186 181.538 189.306 181.878 188.566C182.218 187.806 182.698 187.176 183.318 186.676C183.958 186.176 184.708 185.806 185.568 185.566C186.428 185.326 187.388 185.206 188.448 185.206C189.668 185.206 190.818 185.316 191.898 185.536C192.978 185.736 193.868 186.036 194.568 186.436L193.278 189.886C192.838 189.606 192.178 189.356 191.298 189.136C190.418 188.896 189.468 188.776 188.448 188.776C187.488 188.776 186.748 188.966 186.228 189.346C185.728 189.726 185.478 190.236 185.478 190.876C185.478 191.476 185.708 191.976 186.168 192.376C186.648 192.776 187.238 193.146 187.938 193.486C188.658 193.826 189.428 194.176 190.248 194.536C191.088 194.896 191.858 195.336 192.558 195.856C193.278 196.356 193.868 196.986 194.328 197.746C194.808 198.486 195.048 199.416 195.048 200.536C195.048 201.656 194.858 202.626 194.478 203.446C194.118 204.246 193.598 204.916 192.918 205.456C192.258 205.996 191.448 206.396 190.488 206.656C189.548 206.916 188.508 207.046 187.368 207.046C185.868 207.046 184.548 206.906 183.408 206.626C182.268 206.346 181.428 206.066 180.888 205.786L182.208 202.276C182.428 202.396 182.708 202.526 183.048 202.666C183.408 202.806 183.808 202.936 184.248 203.056C184.688 203.176 185.148 203.276 185.628 203.356C186.128 203.436 186.638 203.476 187.158 203.476C188.378 203.476 189.308 203.276 189.948 202.876C190.608 202.456 190.938 201.826 190.938 200.986ZM212.696 189.286H206.576V206.626H202.466V189.286H196.316V185.626H212.696V189.286ZM214.837 185.836C215.297 185.756 215.787 185.686 216.307 185.626C216.847 185.546 217.377 185.486 217.897 185.446C218.437 185.406 218.957 185.376 219.457 185.356C219.957 185.336 220.417 185.326 220.837 185.326C221.817 185.326 222.777 185.416 223.717 185.596C224.677 185.776 225.527 186.086 226.267 186.526C227.027 186.966 227.627 187.576 228.067 188.356C228.527 189.116 228.757 190.076 228.757 191.236C228.757 192.956 228.357 194.356 227.557 195.436C226.757 196.516 225.687 197.266 224.347 197.686L225.817 198.616L230.617 206.626H225.877L221.107 198.406L218.947 198.016V206.626H214.837V185.836ZM221.137 188.986C220.717 188.986 220.297 188.996 219.877 189.016C219.477 189.036 219.167 189.076 218.947 189.136V195.226H220.687C221.827 195.226 222.737 194.966 223.417 194.446C224.097 193.926 224.437 193.066 224.437 191.866C224.437 190.966 224.157 190.266 223.597 189.766C223.037 189.246 222.217 188.986 221.137 188.986ZM242.12 201.976H235.67L234.08 206.626H229.97L237.53 185.476H240.56L248.12 206.626H243.8L242.12 201.976ZM236.72 198.676H241.22L239.66 193.996L239.03 190.696H238.88L238.25 194.026L236.72 198.676ZM262.5 189.286H256.38V206.626H252.27V189.286H246.12V185.626H262.5V189.286ZM264.641 185.626H277.091V189.286H268.751V194.176H276.341V197.836H268.751V202.966H277.241V206.626H264.641V185.626ZM271.631 180.526H276.401V181.426L271.601 184.066H268.511L271.631 180.526ZM287.725 195.676H295.555V205.036C294.715 205.736 293.705 206.246 292.525 206.566C291.365 206.886 290.215 207.046 289.075 207.046C287.735 207.046 286.485 206.836 285.325 206.416C284.185 205.996 283.195 205.346 282.355 204.466C281.515 203.566 280.855 202.426 280.375 201.046C279.895 199.666 279.655 198.026 279.655 196.126C279.655 194.146 279.935 192.466 280.495 191.086C281.075 189.686 281.825 188.556 282.745 187.696C283.685 186.816 284.735 186.186 285.895 185.806C287.055 185.406 288.235 185.206 289.435 185.206C290.635 185.206 291.685 185.296 292.585 185.476C293.505 185.656 294.235 185.846 294.775 186.046L293.935 189.496C293.435 189.296 292.875 189.146 292.255 189.046C291.635 188.926 290.845 188.866 289.885 188.866C289.025 188.866 288.235 188.996 287.515 189.256C286.795 189.516 286.165 189.946 285.625 190.546C285.105 191.126 284.695 191.876 284.395 192.796C284.115 193.716 283.975 194.836 283.975 196.156C283.975 197.416 284.115 198.506 284.395 199.426C284.675 200.326 285.065 201.076 285.565 201.676C286.065 202.256 286.645 202.686 287.305 202.966C287.985 203.246 288.705 203.386 289.465 203.386C289.985 203.386 290.495 203.326 290.995 203.206C291.495 203.066 291.915 202.866 292.255 202.606V198.646L287.725 198.166V195.676ZM299.016 185.626H303.126V206.626H299.016V185.626ZM317.501 201.976H311.051L309.461 206.626H305.351L312.911 185.476H315.941L323.501 206.626H319.181L317.501 201.976ZM312.101 198.676H316.601L315.041 193.996L314.411 190.696H314.261L313.631 194.026L312.101 198.676Z" fill="#D3D3D3"/>
</svg>
