<svg width="455" height="386" viewBox="0 0 455 386" fill="none" xmlns="http://www.w3.org/2000/svg">
<path d="M211.474 362.101C211.474 362.101 195.701 334.151 171.931 326.096C161.956 322.718 157.73 320.851 151.775 312.163" stroke="white" stroke-width="2" stroke-miterlimit="10"/>
<path d="M158.194 336.603C161.76 335.368 169.853 325.332 169.853 325.332C169.853 325.332 157.279 322.455 153.712 323.689C152.056 324.322 150.71 325.575 149.96 327.182C149.21 328.79 149.114 330.626 149.692 332.302C150.271 333.979 151.479 335.365 153.06 336.168C154.642 336.97 156.474 337.126 158.169 336.603L158.194 336.603Z" fill="white"/>
<path d="M182.026 350.742C185.748 350.129 195.434 341.607 195.434 341.607C195.434 341.607 183.525 336.646 179.801 337.259C178.916 337.405 178.068 337.724 177.306 338.198C176.544 338.672 175.882 339.291 175.36 340.021C174.837 340.75 174.463 341.575 174.259 342.449C174.055 343.323 174.026 344.229 174.172 345.114C174.318 346 174.637 346.848 175.111 347.61C175.585 348.372 176.204 349.033 176.933 349.556C177.663 350.078 178.488 350.452 179.362 350.656C180.236 350.86 181.141 350.89 182.027 350.744L182.026 350.742Z" fill="white"/>
<path d="M147.497 302.542C150.585 304.706 155.635 316.583 155.635 316.583C155.635 316.583 142.748 315.903 139.657 313.74C138.914 313.229 138.279 312.575 137.79 311.817C137.3 311.058 136.966 310.211 136.806 309.323C136.646 308.434 136.663 307.523 136.857 306.642C137.051 305.761 137.417 304.926 137.935 304.187C138.453 303.448 139.112 302.819 139.875 302.336C140.637 301.853 141.487 301.526 142.377 301.373C143.266 301.221 144.177 301.246 145.057 301.447C145.937 301.649 146.768 302.022 147.502 302.546L147.497 302.542Z" fill="white"/>
<path d="M210.372 361.427C210.372 361.427 206.63 322.679 184.225 302.067C174.826 293.415 168.297 282.103 165.968 269.528C164.871 263.567 164.324 257.518 164.333 251.458" stroke="#34334B" stroke-width="2" stroke-miterlimit="10"/>
<path d="M150.301 238.385C152.011 242.631 164.658 251.844 164.658 251.844C164.658 251.844 167.382 236.435 165.673 232.188C165.271 231.171 164.672 230.243 163.91 229.457C163.148 228.672 162.238 228.045 161.233 227.613C160.228 227.181 159.147 226.952 158.053 226.94C156.959 226.927 155.874 227.131 154.859 227.539C153.844 227.948 152.92 228.554 152.14 229.321C151.36 230.088 150.74 231.002 150.315 232.01C149.889 233.018 149.668 234.101 149.663 235.195C149.658 236.289 149.869 237.373 150.285 238.385H150.301Z" fill="#4E4C82"/>
<path d="M147.067 267.019C150.81 269.652 166.436 270.513 166.436 270.513C166.436 270.513 160.351 256.098 156.608 253.462C155.718 252.831 154.713 252.381 153.649 252.14C152.585 251.898 151.484 251.869 150.409 252.054C149.334 252.239 148.306 252.634 147.384 253.217C146.462 253.8 145.664 254.56 145.037 255.452C144.409 256.344 143.963 257.351 143.725 258.416C143.487 259.48 143.462 260.581 143.651 261.656C143.839 262.73 144.238 263.757 144.824 264.677C145.411 265.597 146.173 266.392 147.067 267.016L147.067 267.019Z" fill="#4E4C82"/>
<path d="M163.822 306.978C168.396 307.361 182.304 300.216 182.304 300.216C182.304 300.216 169.773 290.834 165.211 290.463C164.113 290.347 163.004 290.451 161.947 290.769C160.891 291.088 159.908 291.614 159.058 292.317C158.207 293.02 157.505 293.886 156.994 294.864C156.482 295.841 156.171 296.911 156.078 298.011C155.986 299.111 156.114 300.218 156.455 301.267C156.796 302.317 157.343 303.288 158.064 304.123C158.786 304.958 159.666 305.641 160.655 306.131C161.644 306.622 162.72 306.91 163.822 306.978V306.978Z" fill="#4E4C82"/>
<path d="M183.302 334.361C187.736 335.509 202.662 330.818 202.662 330.818C202.662 330.818 191.895 319.464 187.465 318.316C186.41 318.038 185.311 317.972 184.23 318.12C183.149 318.269 182.108 318.629 181.167 319.18C180.226 319.732 179.402 320.464 178.745 321.334C178.087 322.204 177.607 323.196 177.333 324.252C177.06 325.308 176.997 326.408 177.149 327.488C177.302 328.568 177.666 329.608 178.221 330.547C178.775 331.486 179.51 332.307 180.383 332.962C181.256 333.616 182.249 334.092 183.306 334.362L183.302 334.361Z" fill="#4E4C82"/>
<path d="M182.913 264.828C181.058 269.016 168.107 277.795 168.107 277.795C168.107 277.795 165.903 262.303 167.753 258.12C168.194 257.124 168.826 256.225 169.614 255.474C170.402 254.723 171.33 254.135 172.345 253.742C173.361 253.35 174.443 253.162 175.531 253.188C176.62 253.214 177.692 253.454 178.687 253.894C179.683 254.335 180.582 254.967 181.333 255.755C182.084 256.543 182.672 257.471 183.064 258.486C183.457 259.502 183.645 260.584 183.619 261.672C183.593 262.761 183.353 263.833 182.913 264.828V264.828Z" fill="#4E4C82"/>
<path d="M205.286 297.138C202.267 300.578 187.282 305.083 187.282 305.083C187.282 305.083 189.815 289.641 192.834 286.206C194.284 284.555 196.331 283.547 198.524 283.405C200.717 283.262 202.876 283.997 204.527 285.447C206.178 286.897 207.186 288.943 207.328 291.136C207.471 293.329 206.736 295.489 205.286 297.14V297.138Z" fill="#4E4C82"/>
<path d="M222.729 331.529C220.317 335.43 206.324 342.404 206.324 342.404C206.324 342.404 206.208 326.758 208.603 322.858C209.173 321.929 209.92 321.122 210.801 320.482C211.683 319.842 212.682 319.382 213.741 319.129C214.801 318.875 215.9 318.832 216.975 319.003C218.051 319.174 219.083 319.556 220.011 320.125C220.94 320.695 221.747 321.442 222.386 322.323C223.026 323.205 223.486 324.204 223.74 325.263C223.994 326.323 224.036 327.422 223.865 328.497C223.694 329.573 223.313 330.605 222.743 331.533L222.729 331.529Z" fill="#4E4C82"/>
<path d="M279.485 385.622C375.851 385.622 453.971 380.507 453.971 374.197C453.971 367.887 375.851 362.772 279.485 362.772C183.12 362.772 105 367.887 105 374.197C105 380.507 183.12 385.622 279.485 385.622Z" fill="white"/>
<path opacity="0.1" d="M413.355 111.913C413.355 111.913 428.047 107.207 429.55 111.913H413.355Z" fill="#34334B"/>
<path d="M284.392 129.587C284.392 129.587 287.713 112.167 298.403 112.078L306.212 128.153L301.004 131.744C301.004 131.744 289.688 132.104 284.392 129.587Z" fill="#D0CDE1"/>
<path opacity="0.502" d="M306.211 128.148L301.004 131.744C301.004 131.744 293.064 131.996 287.348 130.595C286.331 130.358 285.341 130.02 284.392 129.587C284.399 129.491 284.419 129.397 284.452 129.307C284.451 129.285 284.451 129.263 284.452 129.241C284.943 127.055 285.62 124.914 286.474 122.843C286.801 122.062 287.175 121.255 287.577 120.451C289.141 117.439 291.341 114.487 294.349 113.025C295.462 112.478 296.674 112.161 297.912 112.092H298.389L298.557 112.447L301.201 117.878L306.211 128.148Z" fill="#34334B"/>
<path d="M394.936 200.532C394.936 200.532 406.145 199.455 407.149 200.261C408.153 201.068 414.514 205.202 418.283 202.596C422.052 199.99 419.539 190.921 419.539 190.561C419.539 190.201 419.184 177.363 419.184 177.363L412.445 168.293L404.006 152.415L386.763 150.71L387.23 175.93L387.142 188.862L394.936 200.532Z" fill="#D0CDE1"/>
<path opacity="0.503" d="M394.936 200.532C394.936 200.532 406.145 199.455 407.149 200.261C408.153 201.068 414.514 205.202 418.283 202.596C422.052 199.99 419.539 190.921 419.539 190.561C419.539 190.201 419.184 177.363 419.184 177.363L412.445 168.293L404.006 152.415L386.763 150.71L387.23 175.93L387.142 188.862L394.936 200.532Z" fill="#34334B"/>
<path d="M296.152 111.63C296.152 111.63 295.26 122.586 288.432 122.764C288.432 122.764 286.499 121.596 283.897 119.653C277.901 115.165 268.383 106.539 271.012 98.5156C274.786 87.0223 293.103 108.216 293.103 108.216L294.504 109.794L296.152 111.63Z" fill="#FCD2B1"/>
<path opacity="0.1" d="M296.152 111.629C296.152 111.629 295.26 122.586 288.432 122.763C288.432 122.763 286.499 121.596 283.897 119.653L283.313 118.905C284.47 119.509 285.746 119.852 287.05 119.909C288.764 119.946 290.693 119.311 291.93 116.836C292.64 115.426 293.264 113.974 293.798 112.488C294.126 111.618 294.357 110.715 294.489 109.795L296.152 111.629Z" fill="#34334B"/>
<path d="M293.19 131.473L291.654 129.498L286.47 122.843L283.835 119.443C284.992 120.05 286.267 120.395 287.572 120.452C289.286 120.489 291.215 119.854 292.457 117.374C293.167 115.964 293.791 114.512 294.325 113.026C295.18 110.602 295.161 109.353 294.864 108.935C294.567 108.517 296.769 110.565 297.83 111.569L297.867 111.606C298.17 111.886 298.366 112.073 298.366 112.073L298.549 112.438L301.15 117.64L301.178 117.86C301.415 119.513 302.293 129.988 293.19 131.473Z" fill="white"/>
<path d="M346.982 362.622C346.982 362.622 339.441 367.563 335.67 366.825C331.899 366.087 328.034 368.086 328.034 368.086C325.436 370.925 322.159 373.058 318.511 374.284C312.407 376.348 303.88 375.54 299.032 373.92C296.734 373.158 296.552 372.169 297.654 370.954C298.882 369.595 301.699 367.956 304.959 366.017C311.151 362.337 317.797 355.061 317.797 355.061C317.797 355.061 317.886 353.268 318.964 352.46C319.625 351.895 320.232 351.269 320.776 350.591C321.739 349.452 322.645 348.256 322.645 348.256L344.828 348.976C344.828 348.976 345.207 350.578 345.5 352.212C345.748 353.553 345.941 354.916 345.813 355.444C345.543 356.607 346.444 357.686 346.444 357.686L346.841 361.352L346.982 362.622Z" fill="#34334B"/>
<path d="M393.419 368.815C393.152 369.888 392.831 371.817 392.684 372.723C392.635 373.031 392.609 373.218 392.609 373.218C392.609 373.218 390.811 377.169 380.845 378.608C370.879 380.047 370.879 375.283 370.879 375.283C370.879 375.283 370.916 374.769 370.982 373.999C371.155 371.897 371.514 367.877 371.776 367.021C372.135 365.854 371.509 360.735 371.509 360.735L371.402 355.383L371.327 351.647L387.853 349.938C387.958 351.174 388.136 352.402 388.386 353.618C388.489 354.285 388.736 354.923 389.11 355.486C390.006 356.48 390.548 360.875 390.548 360.875C390.548 360.875 393.769 367.376 393.419 368.815Z" fill="#34334B"/>
<path opacity="0.1" d="M344.846 348.971C344.846 348.971 345.224 350.573 345.519 352.207C343.123 352.648 332.647 354.463 330.028 353.193C327.067 351.754 320.687 350.946 320.687 350.946L320.794 350.582C321.757 349.442 322.662 348.247 322.662 348.247L344.846 348.971Z" fill="#34334B"/>
<path opacity="0.1" d="M388.375 353.636C384.172 352.926 375.009 354.645 371.394 355.383L371.319 351.647L387.843 349.938C387.947 351.18 388.125 352.415 388.375 353.636V353.636Z" fill="#34334B"/>
<path d="M397.72 217.504L397.361 230.165C397.361 230.165 397.828 249.472 396.464 252.526C395.1 255.58 395.115 267.882 395.115 267.882C395.115 267.882 396.016 273.719 395.026 274.971C394.036 276.223 394.755 280.902 395.493 283.326C396.231 285.75 395.577 291.77 395.577 291.77L395.4 325.713C395.4 325.713 394.415 334.512 393.154 335.773C392.792 336.146 392.535 336.608 392.409 337.113C392.284 337.617 392.294 338.146 392.439 338.645C392.439 338.645 391.362 343.67 391.631 344.57C391.901 345.47 392.439 347.531 390.375 348.517C388.311 349.503 388.844 352.65 388.844 352.65C383.907 351.483 369.901 354.63 369.901 354.63C369.901 354.63 367.099 348.881 365.945 345.019C364.791 341.157 367.655 338.733 369.537 338.48C371.418 338.228 368.191 334.884 368.191 334.884C368.191 334.884 368.551 334.417 367.653 331.204C366.755 327.991 367.83 319.706 368.12 317.553C368.41 315.4 369.736 304.981 369.736 304.981C369.736 304.981 369.021 291.783 369.559 291.241C370.096 290.7 371.893 285.492 370.997 283.769C370.1 282.046 368.662 270.837 368.662 270.225C368.662 269.614 367.494 255.047 367.494 255.047C367.494 255.047 366.421 244.899 366.686 242.746C366.952 240.593 365.967 232.602 365.967 232.602C365.967 225.952 362.11 218.769 362.11 218.769L362.012 219.026L353.666 240.976C353.666 240.976 352.321 247.617 351.149 251.391C350.414 253.952 349.829 256.555 349.398 259.185L349.319 259.652C349.286 259.853 349.258 260.026 349.239 260.157L349.184 260.521C349.184 260.521 349.809 265.28 348.824 266.807C347.839 268.335 346.718 272.911 346.718 274.186C346.718 275.461 346.803 280.3 346.803 280.3C346.803 280.3 347.167 289.907 346.177 290.985C345.187 292.064 345.71 292.961 345.71 292.961C345.71 292.961 347.33 300.232 346.611 302.118C345.892 304.004 346.434 308.4 346.434 308.4C346.434 308.4 345.009 322.289 344.851 323.017C344.692 323.745 343.683 329.303 344.757 329.752C345.831 330.2 347.9 332.894 347.9 332.894C347.9 332.894 348.367 344.659 346.737 345.556C345.107 346.452 346.013 351.034 346.013 351.034C346.013 351.034 332.997 353.551 330.032 352.111C327.066 350.672 320.691 349.865 320.691 349.865L321.584 346.914C321.535 347.016 320.939 347.974 320.514 344.298C320.047 340.436 323.839 342.323 323.839 342.323C323.839 342.323 326.8 343.042 322.036 338.372C317.273 333.702 319.612 328.943 319.882 328.943C320.151 328.943 320.778 322.03 320.778 322.03C320.778 322.03 321.586 317.897 320.956 314.665C320.325 311.433 319.793 301.374 319.793 301.374C319.793 301.374 320.26 293.743 319.433 290.959C318.607 288.176 319.972 283.146 320.241 281.974C320.511 280.802 319.433 270.123 319.433 270.123C319.433 270.123 320.335 265.098 319.793 261.418C319.251 257.738 320.334 244.175 320.334 244.175L321.95 228.548C321.95 228.548 323.113 223.7 322.936 221.725C322.758 219.75 324.281 212.852 324.281 212.852C324.281 212.852 324.104 210.335 325 208.543C325.897 206.75 326.261 200.823 326.261 200.823L334.882 181.063L339.085 163.642L396.109 163.104C396.109 163.104 396.319 164.612 396.66 167.358C397.001 170.105 397.496 174.172 398.061 179.188C398.556 183.746 399.098 189.107 399.628 195.067C401.312 214.09 397.72 217.504 397.72 217.504Z" fill="#34334B"/>
<path d="M392.424 60.2616L379.128 74.4546C379.128 74.4546 362.072 67.6267 363.865 65.2918C364.561 64.3859 364.449 61.5554 364.047 58.3871C363.417 53.4181 362.072 47.6876 362.072 47.6876C362.072 47.6876 391.882 42.8395 389.365 47.8648C388.431 49.7051 388.608 51.8486 389.178 53.8289C389.906 56.1335 391.002 58.3051 392.424 60.2597V60.2616Z" fill="#FCD2B1"/>
<path opacity="0.1" d="M389.365 47.8668C388.431 49.7071 388.011 49.8844 388.585 51.8647C384.686 56.0678 379.712 60.6216 373.566 60.6216C370.263 60.6267 367.004 59.8623 364.048 58.389C363.417 53.42 362.072 47.6895 362.072 47.6895C362.072 47.6895 391.882 42.8415 389.365 47.8668Z" fill="#34334B"/>
<path d="M394.936 38.7089C394.936 44.378 392.684 49.8149 388.676 53.8236C384.667 57.8323 379.23 60.0843 373.561 60.0843C367.892 60.0843 362.455 57.8323 358.446 53.8236C354.438 49.8149 352.186 44.378 352.186 38.7089C352.186 38.606 352.186 38.5032 352.186 38.4009C352.226 32.7329 354.517 27.3133 358.554 23.3343C362.591 19.3554 368.043 17.143 373.711 17.1838C379.379 17.2247 384.798 19.5154 388.777 23.5522C392.756 27.5889 394.968 33.0409 394.928 38.7089H394.936Z" fill="#FCD2B1"/>
<path opacity="0.1" d="M398.033 179.708C395.203 179.731 385.774 179.81 375.237 179.978H375.111L371.629 180.037H371.522C359.029 180.238 346.718 177.795 341.777 178.262C331.269 179.248 345.547 168.562 345.547 168.562C353.377 170.463 361.431 171.277 369.482 170.982L372.504 170.827C382.053 170.286 391.651 169.389 396.658 167.885C397.006 170.657 397.491 174.711 398.033 179.708Z" fill="#34334B"/>
<path d="M398.033 179.17C395.203 179.17 385.774 179.273 375.237 179.437H375.111L371.627 179.498H371.52C359.027 179.698 346.716 177.256 341.775 177.718C331.267 178.703 345.545 168.022 345.545 168.022C353.375 169.92 361.429 170.734 369.48 170.441L372.502 170.282C382.051 169.744 391.649 168.844 396.656 167.34C397.006 170.115 397.491 174.154 398.033 179.17Z" fill="#FF8C4A"/>
<path opacity="0.1" d="M367.817 66.1885L351.293 73.9131L338.544 172.511C338.544 172.511 346.085 169.102 350.395 171.255C354.704 173.408 367.992 171.437 367.992 171.437C367.992 171.437 377.692 170.895 379.13 171.976C380.569 173.056 397.445 167.488 397.445 167.488C397.445 167.488 400.499 160.66 398.165 159.586C395.83 158.512 398.884 147.91 398.884 147.91L397.446 76.7871L394.574 67.6297L386.853 62.9565L378.941 69.2428L375.205 69.7814L367.817 66.1885Z" fill="#34334B"/>
<path d="M367.817 65.1097L351.293 72.8342L338.544 171.441C338.544 171.441 346.085 168.027 350.395 170.185C354.704 172.342 367.992 170.362 367.992 170.362C367.992 170.362 377.692 169.823 379.13 170.901C380.569 171.978 397.445 166.413 397.445 166.413C397.445 166.413 400.499 159.59 398.165 158.511C395.83 157.432 398.884 146.835 398.884 146.835L397.446 75.7029L394.574 66.5455L386.853 61.8727L378.941 68.1634L375.205 68.6957L367.817 65.1097Z" fill="white"/>
<path opacity="0.1" d="M367.546 69.6908C367.546 69.6908 372.305 75.3464 372.216 76.5138C372.128 77.6813 371.95 80.4647 371.95 80.4647L368.354 87.7412C368.354 87.7412 366.379 96.811 366.379 98.6978C366.379 100.585 363.236 116.912 363.236 116.912L359.465 142.056L354.706 175.013L359.554 183.364L365.303 178.516L372.934 119.783L374.55 108.2C374.55 108.2 376.255 87.3666 376.255 85.2134C376.255 83.0602 375.27 77.4002 375.27 77.4002C375.27 77.4002 376.437 72.0105 381.285 70.7545C386.133 69.4984 380.926 70.4837 380.926 70.4837L378.124 68.2374L375.7 69.2276C375.7 69.2276 368.984 67.1782 367.546 69.6908Z" fill="#34334B"/>
<path d="M367.009 69.1629C367.009 69.1629 371.768 74.8185 371.679 75.9859C371.591 77.1534 371.408 79.9368 371.408 79.9368L367.817 87.2133C367.817 87.2133 365.865 96.2728 365.865 98.1557C365.865 100.039 362.722 116.37 362.722 116.37L358.925 141.552L354.189 174.486L359.041 182.842L364.763 177.98L372.402 119.261L374.018 107.678C374.018 107.678 375.723 86.8446 375.723 84.6869C375.723 82.5293 374.737 76.8738 374.737 76.8738C374.737 76.8738 375.905 71.487 380.753 70.228C385.601 68.969 380.393 69.9616 380.393 69.9616L377.591 67.7154L375.205 68.6948C375.205 68.6948 368.447 66.638 367.009 69.1629Z" fill="#34334B"/>
<path opacity="0.1" d="M363.866 59.7244C363.866 59.7244 363.147 60.2631 362.969 63.8531C362.792 67.4431 360.276 75.5286 360.276 75.5286C360.276 75.5286 369.616 69.0601 374.287 69.7795L363.866 59.7244Z" fill="#34334B"/>
<path d="M363.866 58.6456C363.866 58.6456 363.147 59.1843 362.969 62.7787C362.792 66.3731 360.276 74.4541 360.276 74.4541C360.276 74.4541 369.616 67.9901 374.287 68.7099L363.866 58.6456Z" fill="white"/>
<path opacity="0.1" d="M389.37 56.8479L374.64 69.7799C374.64 69.7799 387.035 77.145 388.651 78.9427C390.267 80.7404 391.883 61.3385 391.883 61.3385L389.37 56.8479Z" fill="#34334B"/>
<path d="M389.907 55.7735L375.205 68.6963C375.205 68.6963 387.595 76.0565 389.216 77.8537C390.837 79.6509 392.452 60.2514 392.452 60.2514L389.907 55.7735Z" fill="white"/>
<path opacity="0.1" d="M364.403 59.7249C364.403 59.7249 362.787 58.9169 361.26 61.2523C359.733 63.5877 356.86 64.6616 356.86 64.6616C356.86 64.6616 340.515 67.2678 339.889 69.4205L332.258 69.8877C332.258 69.8877 329.564 70.2427 329.292 75.9032C329.02 81.5636 327.569 82.0866 327.569 82.0866C327.569 82.0866 324.426 87.6535 324.692 90.5256C324.958 93.3977 322.268 94.835 322.268 94.835L333.477 124.021C333.477 124.021 333.836 136.057 331.767 140.456C329.699 144.855 325.842 164.344 325.842 164.344C325.842 164.344 327.463 163.984 327.369 165.058C327.276 166.132 325.394 177.902 325.394 177.902C325.394 177.902 324.855 182.572 323.96 184.188C323.065 185.804 322.97 194.248 322.97 194.248L321.532 200.352C321.532 200.352 324.945 207.988 330.153 206.89C335.36 205.793 344.85 185.454 344.85 185.454L350.866 163.453L355.536 141.722L356.881 126.997L359.039 94.3987L362.182 72.8455C362.182 72.8455 365.664 61.2542 364.403 59.7249Z" fill="#34334B"/>
<path d="M363.865 58.6461C363.865 58.6461 362.249 57.8381 360.723 60.1735C359.196 62.5089 356.323 63.5872 356.323 63.5872C356.323 63.5872 339.977 66.1885 339.351 68.3461L331.716 68.8133C331.716 68.8133 329.022 69.1727 328.755 74.8288C328.487 80.4848 327.046 81.0259 327.046 81.0259C327.046 81.0259 323.903 86.5929 324.174 89.465C324.444 92.3371 321.75 93.7743 321.75 93.7743L332.958 122.961C332.958 122.961 333.318 134.996 331.254 139.395C329.19 143.794 325.328 163.283 325.328 163.283C325.328 163.283 326.944 162.924 326.856 164.002C326.767 165.081 324.88 176.841 324.88 176.841C324.88 176.841 324.342 181.511 323.442 183.127C322.542 184.743 322.457 193.187 322.457 193.187L321.03 199.272C321.03 199.272 324.443 206.908 329.651 205.81C334.858 204.713 344.288 184.35 344.288 184.35L350.308 162.349L354.978 140.614L356.327 125.888L358.482 93.29L361.625 71.7368C361.625 71.7368 365.122 60.173 363.865 58.6461Z" fill="#34334B"/>
<path opacity="0.1" d="M306.211 128.148L301.004 131.746C301.004 131.746 293.064 131.998 287.348 130.597L284.452 129.309L283.869 129.056L284.467 129.243C287.469 130.135 289.819 130.116 291.654 129.5C299.023 127.02 298.192 114.85 297.926 112.094C297.898 111.818 297.877 111.627 297.865 111.571C297.864 111.56 297.864 111.549 297.865 111.538L297.907 111.608C298.008 111.774 298.122 111.93 298.25 112.075C298.353 112.192 298.46 112.313 298.577 112.426L301.179 117.628L301.207 117.848L306.211 128.148Z" fill="#34334B"/>
<path d="M324.262 93.0373L321.749 93.7567L321.39 98.8942C321.39 98.8942 318.424 98.427 317.616 101.948C316.808 105.47 315.375 107.086 315.375 107.086C315.375 107.086 310.433 111.219 310.163 114.717L307.113 116.585C307.113 116.585 300.012 114.932 298.403 112.08C298.403 112.08 301.635 135.249 284.392 129.589C284.392 129.589 303.699 138.033 304.596 139.2C305.492 140.367 311.424 143.777 316.808 140.905C322.193 138.033 323.365 133.614 323.365 133.614C323.365 133.614 328.573 126.338 328.755 125.259C328.937 124.18 332.958 122.924 332.958 122.924L340.683 104.242L324.262 93.0373Z" fill="#34334B"/>
<path opacity="0.1" d="M387.305 67.6267L389.906 55.7759C389.906 55.7759 391.074 59.6382 392.242 60.5349L396.104 63.4956C396.104 63.4956 399.966 65.2938 401.311 65.2938C402.657 65.2938 409.933 67.162 410.829 68.1659C411.726 69.1698 415.322 68.4367 415.322 68.4367C415.322 68.4367 418.283 69.422 420.889 70.0527C423.495 70.6834 424.752 74.9938 424.21 76.6984C423.993 77.5472 423.995 78.4372 424.215 79.285C424.436 80.1329 424.868 80.911 425.471 81.5465C426.545 82.6238 427.087 86.1281 427.087 86.1281C428.407 86.5581 429.504 87.4933 430.137 88.7294C431.038 90.7049 430.768 95.0157 430.768 95.0157L417.387 113.874C417.387 113.874 417.565 121.151 417.028 122.747C416.491 124.344 418.896 151.843 418.896 151.843L421.698 199.078C421.698 199.078 418.018 202.221 417.21 202.581C416.402 202.94 415.59 185.875 415.59 185.25C415.59 184.624 394.849 154.178 394.849 154.178C394.849 154.178 392.047 149.686 392.047 148.7C392.047 147.714 389.441 138.64 389.441 138.64L385.488 121.129L387.305 67.6267Z" fill="#34334B"/>
<path d="M431.879 93.9854C431.879 94.6019 431.846 95.0137 431.846 95.0137L418.477 113.858C418.477 113.858 418.664 121.13 418.122 122.731C417.809 123.665 418.496 133.333 419.131 141.268C419.598 146.997 420.009 151.827 420.009 151.827L421.191 171.862L422.788 199.062C422.788 199.062 419.108 202.204 418.3 202.564C417.492 202.924 416.684 185.859 416.684 185.229C416.684 184.599 395.939 154.162 395.939 154.162C395.939 154.162 393.137 149.67 393.137 148.684C393.137 147.698 390.535 138.624 390.535 138.624L386.584 121.111L388.378 67.5949L389.905 55.7441C389.905 55.7441 392.151 59.6064 393.319 60.4986C394.486 61.3909 397.177 63.4643 397.177 63.4643C397.177 63.4643 401.039 65.2624 402.389 65.2624C403.738 65.2624 411.01 67.1306 411.906 68.1345C412.803 69.1384 416.399 68.4053 416.399 68.4053C416.399 68.4053 419.36 69.3906 421.961 70.0214C424.563 70.6521 425.824 74.9624 425.287 76.6622C425.068 77.5112 425.069 78.4018 425.288 79.2505C425.508 80.0992 425.94 80.8782 426.543 81.5146C427.62 82.592 428.159 86.0914 428.159 86.0914C429.481 86.5244 430.579 87.4628 431.213 88.702C431.841 90.0952 431.902 92.5858 431.879 93.9854Z" fill="#34334B"/>
<path opacity="0.1" d="M322.109 333.256C322.576 333.256 341.416 333.975 341.056 337.029C340.696 340.084 322.109 333.256 322.109 333.256Z" fill="#34334B"/>
<path opacity="0.1" d="M326.331 338.374C326.331 338.374 338.992 340.438 335.672 342.325C332.351 344.212 326.331 338.374 326.331 338.374Z" fill="#34334B"/>
<path opacity="0.1" d="M373.384 331.28C373.384 331.28 394.4 333.079 391.258 335.409C388.116 337.74 380.661 338.102 380.301 338.211C379.941 338.32 373.384 331.28 373.384 331.28Z" fill="#34334B"/>
<path opacity="0.1" d="M370.871 340.532C370.871 340.532 382.546 342.507 382.901 344.735C383.256 346.963 370.871 340.532 370.871 340.532Z" fill="#34334B"/>
<path opacity="0.1" d="M377.334 286.469C377.334 286.469 388.019 288.982 388.65 290.672L377.334 286.469Z" fill="#34334B"/>
<path opacity="0.1" d="M336.115 294.194C336.115 294.194 330.548 295.81 335.938 299.042C341.327 302.274 336.115 294.194 336.115 294.194Z" fill="#34334B"/>
<path opacity="0.1" d="M360.812 207.893C361.442 207.893 371.231 204.661 374.64 206.1C378.05 207.538 382.276 207.533 382.276 207.533L360.812 207.893Z" fill="#34334B"/>
<path opacity="0.1" d="M362.073 218.144L361.975 219.031L353.629 240.981C353.629 240.981 352.284 247.622 351.112 251.395C350.377 253.957 349.792 256.56 349.361 259.19L356.774 213.231L362.073 218.144Z" fill="#34334B"/>
<path d="M375.112 179.437L371.627 179.498H371.52L369.479 170.446C370.483 170.397 371.487 170.344 372.5 170.283L375.112 179.437Z" fill="#34334B"/>
<path d="M417.475 168.478L415.238 170.319L407.767 176.46C407.767 176.46 387.559 187.239 381.993 177.002C377.084 167.984 399.996 161.544 405.512 160.138C406.264 159.946 406.687 159.853 406.687 159.853L417.475 168.478Z" fill="#FCD2B1"/>
<path opacity="0.1" d="M331.179 80.1988C331.179 80.1988 335.13 81.9921 336.027 84.5082C336.924 87.0243 331.179 80.1988 331.179 80.1988Z" fill="#34334B"/>
<path opacity="0.1" d="M318.966 107.137C318.966 107.137 313.217 114.142 315.552 116.837C317.888 119.532 318.966 107.137 318.966 107.137Z" fill="#34334B"/>
<path opacity="0.1" d="M421.698 84.1497C421.698 84.1497 416.309 84.6884 416.131 89.3572L421.698 84.1497Z" fill="#34334B"/>
<path opacity="0.1" d="M371.767 157.786C372.306 157.247 384.699 138.927 387.571 140.543L371.767 157.786Z" fill="#34334B"/>
<path opacity="0.1" d="M394.937 38.7084C394.941 42.2281 394.073 45.6941 392.411 48.7963L392.252 48.7683C390.897 48.4833 390.192 46.9001 389.155 45.9193C388.52 45.3135 387.71 44.922 386.841 44.7997C385.971 44.6775 385.086 44.8306 384.307 45.2376C383.521 45.7087 382.882 46.3896 382.461 47.2038C382.041 48.018 381.855 48.9334 381.926 49.8472C381.244 46.9702 381.458 43.9115 380.79 41.0296C380.122 38.1477 378.11 35.234 375.359 35.1826C374.173 35.1826 372.786 35.6233 371.931 34.7154C371.413 34.1767 371.305 33.3144 370.918 32.6836C368.951 29.5006 362.978 31.1097 360.522 32.7394C358.158 34.3065 355.233 36.9803 352.197 38.3813C352.238 32.7133 354.528 27.2938 358.565 23.3148C360.564 21.3446 362.931 19.7874 365.532 18.7321C368.132 17.6768 370.915 17.144 373.722 17.1643C376.528 17.1845 379.303 17.7573 381.888 18.85C384.474 19.9426 386.818 21.5338 388.788 23.5326C390.759 25.5314 392.316 27.8986 393.371 30.4992C394.426 33.0998 394.959 35.8828 394.939 38.6893L394.937 38.7084Z" fill="#34334B"/>
<path d="M370.917 32.1611C371.309 32.8105 371.412 33.6601 371.931 34.1929C372.785 35.0802 374.173 34.6272 375.359 34.6601C378.109 34.709 380.123 37.6257 380.79 40.5071C381.458 43.3885 381.257 46.4428 381.925 49.3217C381.855 48.4084 382.041 47.4937 382.463 46.6805C382.884 45.8672 383.524 45.1878 384.311 44.7185C385.088 44.3121 385.973 44.1588 386.841 44.2803C387.71 44.4017 388.518 44.7918 389.154 45.3958C390.191 46.381 390.896 47.9598 392.251 48.2449C393.605 48.5299 394.913 47.2312 395.398 45.8022C395.884 44.3733 395.866 42.8087 396.174 41.3283C396.785 38.5262 398.611 36.2354 399.625 33.571C400.828 30.3293 400.794 26.7581 399.531 23.5394C398.859 21.8534 397.855 20.3358 397.197 18.6498C396.16 16.0906 390.411 12.6441 389.154 10.2058C387.039 6.12418 388.402 8.66916 384.311 10.2058C382.359 10.9404 379.799 8.32833 377.82 8.97767C375.162 9.82779 372.328 9.18775 369.576 8.80481C366.825 8.42186 363.795 8.38464 361.585 10.2058C359.045 12.2841 358.349 16.1929 355.981 18.4769C354.977 19.4343 353.729 20.0439 352.67 20.9332C351.611 21.8225 350.699 23.1369 350.802 24.5805C350.96 26.4487 352.782 28.1299 352.109 29.8531C351.866 30.351 351.528 30.7968 351.115 31.1655C349.112 33.2612 347.623 35.7936 346.767 38.563C351.572 40.0619 356.775 34.7658 360.535 32.263C362.969 30.5916 368.951 28.9991 370.917 32.1611Z" fill="#34334B"/>
<path opacity="0.1" d="M417.475 168.478L415.238 170.319C413.267 167.049 405.174 160.478 405.174 160.478L405.524 160.142C406.276 159.951 406.699 159.857 406.699 159.857L417.475 168.478Z" fill="#34334B"/>
<path d="M419.633 165.151C419.633 165.151 418.83 167.15 417.998 168.887C417.166 170.625 416.265 172.184 416.218 170.91C416.13 168.393 405.715 159.949 405.715 159.949L407.116 158.577L408.755 156.989L419.633 165.151Z" fill="white"/>
<path opacity="0.1" d="M419.993 151.859L421.174 171.894C418.372 167.555 410.727 156.436 405.798 156.795L417.747 143.06C418.243 142.505 418.7 141.916 419.115 141.297C419.572 147.03 419.993 151.859 419.993 151.859Z" fill="#34334B"/>
<path opacity="0.1" d="M419.632 165.151C419.632 165.151 418.829 167.15 417.998 168.887C414.869 164.595 410.563 159.524 407.126 158.576L408.765 156.987L419.632 165.151Z" fill="#34334B"/>
<path d="M428.613 92.5143L431.845 95.027C431.845 95.027 437.232 95.1205 437.77 99.6086C438.309 104.097 443.249 106.147 443.249 106.147C443.249 106.147 446.929 109.827 446.929 111.534C446.929 113.24 449.731 116.298 449.731 116.564C449.731 116.829 452.424 122.313 452.066 123.298C451.707 124.283 454.938 128.598 453.934 130.214C453.121 131.664 452.401 133.163 451.776 134.703C451.776 134.703 447.573 142.787 445.401 144.314C443.229 145.841 433.371 158.68 433.371 158.68C433.371 158.68 422.774 170.892 422.774 174.666C422.774 174.666 412.442 157.424 406.34 157.853L418.282 144.113C418.282 144.113 420.351 141.871 420.439 140.522C420.528 139.172 426.183 132.98 428.878 132.709C428.878 132.709 429.346 129.028 428.159 128.938C426.972 128.847 426.004 125.972 426.004 125.972C426.004 125.972 418.102 116.632 418.013 110.705C417.924 104.779 428.613 92.5143 428.613 92.5143Z" fill="#34334B"/>
<path opacity="0.1" d="M433.373 101.033C433.373 101.033 425.825 106.6 427.447 108.393C429.069 110.186 433.373 101.033 433.373 101.033Z" fill="#34334B"/>
<path opacity="0.1" d="M346.982 362.622C346.982 362.622 339.441 367.563 335.67 366.825C331.899 366.087 328.034 368.086 328.034 368.086C325.436 370.925 322.159 373.058 318.511 374.284C312.407 376.348 303.88 375.54 299.032 373.92C296.734 373.158 296.552 372.168 297.654 370.954C302.927 372.005 314.71 374.093 317.886 372.574C322.014 370.599 327.941 366.288 327.941 366.288C327.941 366.288 335.67 365.211 336.744 365.211C337.51 365.211 343.474 362.75 346.841 361.334L346.982 362.622Z" fill="#34334B"/>
<path opacity="0.1" d="M334.906 99.9539C334.906 99.9539 334.906 120.428 333.154 122.45C331.403 124.472 334.906 99.9539 334.906 99.9539Z" fill="#34334B"/>
<path opacity="0.1" d="M415.859 106.553L418.46 113.869C418.46 113.869 419.497 106.689 415.859 106.553Z" fill="#34334B"/>
<g opacity="0.1">
<path opacity="0.1" d="M352.363 28.0652C353.022 26.3792 351.298 24.7309 351.074 22.9278C350.845 23.4373 350.745 23.9957 350.785 24.5531C350.901 25.912 351.906 27.1872 352.186 28.4433C352.257 28.3232 352.317 28.1965 352.363 28.0648V28.0652Z" fill="#34334B"/>
<path opacity="0.1" d="M382.169 47.4045C381.525 44.5697 381.702 41.5712 381.058 38.7412C380.413 35.9112 378.381 32.9407 375.631 32.8942C374.445 32.8942 373.057 33.3286 372.198 32.427C371.684 31.8947 371.577 31.026 371.189 30.3953C369.223 27.2122 363.25 28.8282 360.788 30.456C357.113 32.8986 352.069 38.0032 347.361 36.8446C347.132 37.3911 346.92 37.942 346.75 38.5096C351.555 40.0086 356.758 34.7125 360.517 32.2096C362.969 30.5799 368.952 28.9403 370.918 32.1489C371.31 32.7982 371.413 33.6478 371.932 34.1806C372.786 35.068 374.174 34.615 375.36 34.6478C378.11 34.6968 380.124 37.6134 380.791 40.4948C381.459 43.3763 381.258 46.4305 381.926 49.3095C381.88 48.6658 381.963 48.0195 382.171 47.4085L382.169 47.4045Z" fill="#34334B"/>
<path opacity="0.1" d="M395.67 44.0325C395.203 45.4614 393.9 46.7694 392.518 46.4751C391.136 46.1808 390.458 44.6069 389.426 43.626C388.79 43.0209 387.98 42.6302 387.111 42.5088C386.241 42.3873 385.356 42.5412 384.578 42.9487C383.829 43.3961 383.214 44.0356 382.795 44.8008C382.376 45.566 382.169 46.4293 382.196 47.3012C382.555 46.2022 383.309 45.2753 384.312 44.6999C385.089 44.2935 385.973 44.1402 386.842 44.2617C387.71 44.3831 388.519 44.7732 389.155 45.3772C390.192 46.3625 390.897 47.9412 392.251 48.2263C393.606 48.5113 394.913 47.2126 395.399 45.7836C395.656 44.9446 395.822 44.0804 395.894 43.2058C395.836 43.4856 395.761 43.7616 395.67 44.0325V44.0325Z" fill="#34334B"/>
<path opacity="0.1" d="M399.891 31.7997C398.882 34.4617 397.051 36.7594 396.445 39.5615C396.323 40.1266 396.253 40.7059 396.183 41.2847C396.8 38.4827 398.616 36.2036 399.625 33.5509C400.074 32.3499 400.354 31.0924 400.458 29.8145C400.32 30.4893 400.131 31.1528 399.893 31.7992L399.891 31.7997Z" fill="#34334B"/>
</g>
<path d="M277.629 98.7592L277.594 98.7766C277.503 98.8229 277.466 98.9348 277.512 99.0265L278.862 101.705C278.908 101.797 279.02 101.834 279.112 101.788L279.146 101.77C279.238 101.724 279.275 101.612 279.229 101.521L277.879 98.8416C277.833 98.7499 277.721 98.713 277.629 98.7592Z" fill="#34334B"/>
<path d="M273.802 93.618L263.541 98.7884C263 99.061 262.783 99.7206 263.055 100.262L274.585 123.142C274.858 123.683 275.517 123.901 276.058 123.628L286.319 118.458C286.86 118.185 287.077 117.525 286.805 116.984L275.275 94.1039C275.002 93.5629 274.343 93.3453 273.802 93.618Z" fill="#34334B"/>
<path d="M272.422 95.1063C272.363 95.1329 272.309 95.1717 272.266 95.2202C272.222 95.2687 272.189 95.3258 272.169 95.3879C272.148 95.45 272.141 95.5156 272.148 95.5805C272.155 95.6455 272.175 95.7083 272.207 95.7649L272.256 95.8536C272.289 95.9105 272.309 95.9736 272.315 96.0387C272.321 96.1039 272.314 96.1696 272.293 96.2317C272.273 96.2938 272.239 96.3509 272.195 96.3992C272.151 96.4475 272.097 96.486 272.037 96.5122L266.858 99.1228C266.801 99.1552 266.738 99.1754 266.673 99.1821C266.609 99.1888 266.543 99.1817 266.481 99.1615C266.419 99.1412 266.362 99.1082 266.313 99.0645C266.265 99.0208 266.226 98.9674 266.199 98.9078L266.15 98.8143C266.124 98.7547 266.085 98.7013 266.036 98.6576C265.988 98.614 265.931 98.5809 265.869 98.5607C265.807 98.5404 265.741 98.5334 265.676 98.54C265.611 98.5467 265.548 98.5669 265.492 98.5993L264.483 99.1037C264.372 99.1587 264.274 99.2351 264.193 99.3284C264.112 99.4217 264.05 99.5302 264.012 99.6474C263.973 99.7647 263.958 99.8885 263.968 100.012C263.977 100.135 264.011 100.255 264.067 100.365L275.085 122.235C275.14 122.346 275.217 122.444 275.31 122.525C275.403 122.606 275.512 122.668 275.629 122.706C275.746 122.745 275.87 122.76 275.993 122.75C276.116 122.741 276.236 122.707 276.346 122.651L285.383 118.097C285.493 118.042 285.591 117.966 285.672 117.873C285.752 117.78 285.813 117.672 285.852 117.555C285.891 117.438 285.906 117.315 285.897 117.193C285.888 117.07 285.854 116.95 285.799 116.841L274.795 94.9667C274.74 94.8572 274.663 94.7597 274.57 94.6798C274.477 94.5998 274.369 94.5391 274.252 94.5009C274.135 94.4627 274.012 94.4479 273.89 94.4574C273.768 94.4668 273.648 94.5003 273.539 94.5559L272.422 95.1063Z" fill="#4E4C82"/>
<path opacity="0.1" d="M214.585 351.862H196.727V354.69H214.585V351.862Z" fill="#34334B"/>
<path d="M254.418 96.8472V152.552C254.419 153.287 254.276 154.014 253.995 154.693C253.715 155.371 253.303 155.988 252.784 156.507C252.265 157.026 251.648 157.438 250.969 157.718C250.291 157.999 249.563 158.142 248.829 158.141H242.826V91.2632H248.828C249.562 91.2619 250.289 91.4053 250.967 91.6854C251.646 91.9654 252.262 92.3764 252.781 92.895C253.3 93.4136 253.712 94.0295 253.993 94.7074C254.274 95.3853 254.418 96.112 254.417 96.8458L254.418 96.8472Z" fill="#D0CDE1"/>
<path opacity="0.2" d="M249.86 98.4025V151.249C249.521 151.305 249.177 151.333 248.832 151.332H247.973V98.3188H248.834C249.178 98.3183 249.521 98.3463 249.86 98.4025V98.4025Z" fill="#34334B"/>
<path d="M227.918 177.796H206.277V351.317H227.918V177.796Z" fill="#D0CDE1"/>
<path d="M191.078 348.595H240.627C246.067 348.595 251.284 350.756 255.131 354.603C258.978 358.45 261.139 363.667 261.139 369.107V372.263H170.565V369.107C170.565 363.667 172.727 358.45 176.573 354.603C180.42 350.756 185.637 348.595 191.078 348.595V348.595Z" fill="#D0CDE1"/>
<path opacity="0.1" d="M227.918 201.685H206.277V222.499H227.918V201.685Z" fill="#34334B"/>
<path opacity="0.1" d="M227.918 200.269H206.277V221.083H227.918V200.269Z" fill="#34334B"/>
<path d="M230.171 200.974H204.271V221.789H230.171V200.974Z" fill="#D0CDE1"/>
<path d="M239.575 164.723V173.362C239.575 174.426 239.365 175.48 238.958 176.463C238.551 177.446 237.954 178.34 237.201 179.092C236.449 179.845 235.555 180.442 234.572 180.849C233.589 181.256 232.535 181.466 231.471 181.466H202.744C200.595 181.466 198.534 180.612 197.014 179.092C195.494 177.572 194.64 175.511 194.64 173.362V164.723C194.642 162.575 195.496 160.516 197.016 158.998C198.536 157.48 200.596 156.628 202.744 156.629H231.471C233.619 156.628 235.679 157.48 237.199 158.998C238.719 160.516 239.573 162.575 239.575 164.723H239.575Z" fill="#D0CDE1"/>
<path opacity="0.1" d="M239.575 164.723V165.605C236.937 169.063 233.537 171.866 229.639 173.795C225.74 175.724 221.45 176.728 217.1 176.728C212.751 176.728 208.46 175.724 204.562 173.795C200.663 171.866 197.263 169.063 194.625 165.605V164.723C194.626 162.575 195.481 160.516 197.001 158.998C198.521 157.48 200.581 156.628 202.729 156.629H231.456C232.521 156.627 233.576 156.834 234.56 157.24C235.545 157.645 236.44 158.241 237.194 158.993C237.948 159.744 238.547 160.637 238.955 161.621C239.364 162.604 239.574 163.658 239.575 164.723V164.723Z" fill="#34334B"/>
<path d="M191.117 84.2374H243.083C243.689 84.2374 244.269 84.4779 244.697 84.9061C245.126 85.3342 245.366 85.9149 245.366 86.5204V151.534C245.366 158.031 242.785 164.263 238.191 168.857C233.596 173.451 227.365 176.032 220.868 176.032H213.333C206.835 176.032 200.604 173.451 196.01 168.857C191.416 164.263 188.834 158.031 188.834 151.534V86.5204C188.834 85.9149 189.075 85.3342 189.503 84.9061C189.931 84.4779 190.512 84.2374 191.117 84.2374V84.2374Z" fill="#D0CDE1"/>
<path d="M200.515 58.6055H233.276C238.08 58.6055 241.975 61.6353 241.975 65.3732V84.7624C241.975 86.1095 240.572 87.2011 238.841 87.2011H194.951C193.22 87.2011 191.817 86.1091 191.817 84.7624V65.3702C191.817 61.6328 195.712 58.6025 200.516 58.6025L200.515 58.6055Z" fill="#D0CDE1"/>
<path opacity="0.2" d="M234.12 73.4522H198.886V76.0525H234.12V73.4522Z" fill="#34334B"/>
<path opacity="0.1" d="M239.57 92.5834H194.63V125.196H239.57V92.5834Z" fill="#34334B"/>
<path d="M239.57 91.8728H194.63V124.485H239.57V91.8728Z" fill="#4E4C82"/>
<g opacity="0.1">
<path opacity="0.1" d="M204.605 130.074H195.269C195.055 130.074 194.882 130.248 194.882 130.461V133.296C194.882 133.51 195.055 133.683 195.269 133.683H204.605C204.819 133.683 204.992 133.51 204.992 133.296V130.461C204.992 130.248 204.819 130.074 204.605 130.074Z" fill="#34334B"/>
<path opacity="0.1" d="M216.045 130.074H206.709C206.495 130.074 206.322 130.248 206.322 130.461V133.296C206.322 133.51 206.495 133.683 206.709 133.683H216.045C216.259 133.683 216.432 133.51 216.432 133.296V130.461C216.432 130.248 216.259 130.074 216.045 130.074Z" fill="#34334B"/>
<path opacity="0.1" d="M227.486 130.074H218.15C217.936 130.074 217.763 130.248 217.763 130.461V133.296C217.763 133.51 217.936 133.683 218.15 133.683H227.486C227.699 133.683 227.873 133.51 227.873 133.296V130.461C227.873 130.248 227.699 130.074 227.486 130.074Z" fill="#34334B"/>
<path opacity="0.1" d="M238.931 130.074H229.594C229.381 130.074 229.208 130.248 229.208 130.461V133.296C229.208 133.51 229.381 133.683 229.594 133.683H238.931C239.144 133.683 239.317 133.51 239.317 133.296V130.461C239.317 130.248 239.144 130.074 238.931 130.074Z" fill="#34334B"/>
<path opacity="0.1" d="M204.605 137.14H195.269C195.055 137.14 194.882 137.314 194.882 137.527V140.362C194.882 140.576 195.055 140.749 195.269 140.749H204.605C204.819 140.749 204.992 140.576 204.992 140.362V137.527C204.992 137.314 204.819 137.14 204.605 137.14Z" fill="#34334B"/>
<path opacity="0.1" d="M216.045 137.14H206.709C206.495 137.14 206.322 137.314 206.322 137.527V140.362C206.322 140.576 206.495 140.749 206.709 140.749H216.045C216.259 140.749 216.432 140.576 216.432 140.362V137.527C216.432 137.314 216.259 137.14 216.045 137.14Z" fill="#34334B"/>
<path opacity="0.1" d="M227.486 137.14H218.15C217.936 137.14 217.763 137.314 217.763 137.527V140.362C217.763 140.576 217.936 140.749 218.15 140.749H227.486C227.699 140.749 227.873 140.576 227.873 140.362V137.527C227.873 137.314 227.699 137.14 227.486 137.14Z" fill="#34334B"/>
<path opacity="0.1" d="M204.605 144.029H195.269C195.055 144.029 194.882 144.203 194.882 144.416V147.251C194.882 147.465 195.055 147.638 195.269 147.638H204.605C204.819 147.638 204.992 147.465 204.992 147.251V144.416C204.992 144.203 204.819 144.029 204.605 144.029Z" fill="#34334B"/>
<path opacity="0.1" d="M216.045 144.029H206.709C206.495 144.029 206.322 144.203 206.322 144.416V147.251C206.322 147.465 206.495 147.638 206.709 147.638H216.045C216.259 147.638 216.432 147.465 216.432 147.251V144.416C216.432 144.203 216.259 144.029 216.045 144.029Z" fill="#34334B"/>
<path opacity="0.1" d="M227.486 144.029H218.15C217.936 144.029 217.763 144.203 217.763 144.416V147.251C217.763 147.465 217.936 147.638 218.15 147.638H227.486C227.699 147.638 227.873 147.465 227.873 147.251V144.416C227.873 144.203 227.699 144.029 227.486 144.029Z" fill="#34334B"/>
<path opacity="0.1" d="M204.605 151.63H195.269C195.055 151.63 194.882 151.803 194.882 152.016V154.851C194.882 155.065 195.055 155.238 195.269 155.238H204.605C204.819 155.238 204.992 155.065 204.992 154.851V152.016C204.992 151.803 204.819 151.63 204.605 151.63Z" fill="#34334B"/>
<path opacity="0.1" d="M216.045 151.63H206.709C206.495 151.63 206.322 151.803 206.322 152.016V154.851C206.322 155.065 206.495 155.238 206.709 155.238H216.045C216.259 155.238 216.432 155.065 216.432 154.851V152.016C216.432 151.803 216.259 151.63 216.045 151.63Z" fill="#34334B"/>
<path opacity="0.1" d="M227.486 151.63H218.15C217.936 151.63 217.763 151.803 217.763 152.016V154.851C217.763 155.065 217.936 155.238 218.15 155.238H227.486C227.699 155.238 227.873 155.065 227.873 154.851V152.016C227.873 151.803 227.699 151.63 227.486 151.63Z" fill="#34334B"/>
<path opacity="0.1" d="M238.931 137.14H229.594C229.381 137.14 229.208 137.314 229.208 137.527V140.362C229.208 140.576 229.381 140.749 229.594 140.749H238.931C239.144 140.749 239.317 140.576 239.317 140.362V137.527C239.317 137.314 239.144 137.14 238.931 137.14Z" fill="#34334B"/>
<path opacity="0.1" d="M237.823 143.642H230.792C230.26 143.642 229.828 144.074 229.828 144.606V155.538C229.828 156.071 230.26 156.503 230.792 156.503H237.823C238.356 156.503 238.788 156.071 238.788 155.538V144.606C238.788 144.074 238.356 143.642 237.823 143.642Z" fill="#34334B"/>
</g>
<path d="M204.605 129.364H195.269C195.056 129.364 194.882 129.537 194.882 129.751V132.586C194.882 132.799 195.056 132.972 195.269 132.972H204.605C204.819 132.972 204.992 132.799 204.992 132.586V129.751C204.992 129.537 204.819 129.364 204.605 129.364Z" fill="white"/>
<path d="M216.046 129.364H206.71C206.496 129.364 206.323 129.537 206.323 129.751V132.586C206.323 132.799 206.496 132.972 206.71 132.972H216.046C216.26 132.972 216.433 132.799 216.433 132.586V129.751C216.433 129.537 216.26 129.364 216.046 129.364Z" fill="white"/>
<path d="M227.486 129.364H218.15C217.936 129.364 217.763 129.537 217.763 129.751V132.586C217.763 132.799 217.936 132.972 218.15 132.972H227.486C227.699 132.972 227.873 132.799 227.873 132.586V129.751C227.873 129.537 227.699 129.364 227.486 129.364Z" fill="white"/>
<path d="M238.932 129.364H229.595C229.382 129.364 229.208 129.537 229.208 129.751V132.586C229.208 132.799 229.382 132.972 229.595 132.972H238.932C239.145 132.972 239.318 132.799 239.318 132.586V129.751C239.318 129.537 239.145 129.364 238.932 129.364Z" fill="#34334B"/>
<path d="M204.605 136.43H195.269C195.056 136.43 194.882 136.603 194.882 136.817V139.652C194.882 139.865 195.056 140.038 195.269 140.038H204.605C204.819 140.038 204.992 139.865 204.992 139.652V136.817C204.992 136.603 204.819 136.43 204.605 136.43Z" fill="white"/>
<path d="M216.046 136.43H206.71C206.496 136.43 206.323 136.603 206.323 136.817V139.652C206.323 139.865 206.496 140.038 206.71 140.038H216.046C216.26 140.038 216.433 139.865 216.433 139.652V136.817C216.433 136.603 216.26 136.43 216.046 136.43Z" fill="white"/>
<path d="M227.486 136.43H218.15C217.936 136.43 217.763 136.603 217.763 136.817V139.652C217.763 139.865 217.936 140.038 218.15 140.038H227.486C227.699 140.038 227.873 139.865 227.873 139.652V136.817C227.873 136.603 227.699 136.43 227.486 136.43Z" fill="white"/>
<path d="M204.605 143.319H195.269C195.056 143.319 194.882 143.492 194.882 143.706V146.541C194.882 146.754 195.056 146.928 195.269 146.928H204.605C204.819 146.928 204.992 146.754 204.992 146.541V143.706C204.992 143.492 204.819 143.319 204.605 143.319Z" fill="white"/>
<path d="M216.046 143.319H206.71C206.496 143.319 206.323 143.492 206.323 143.706V146.541C206.323 146.754 206.496 146.928 206.71 146.928H216.046C216.26 146.928 216.433 146.754 216.433 146.541V143.706C216.433 143.492 216.26 143.319 216.046 143.319Z" fill="white"/>
<path d="M227.486 143.319H218.15C217.936 143.319 217.763 143.492 217.763 143.706V146.541C217.763 146.754 217.936 146.928 218.15 146.928H227.486C227.699 146.928 227.873 146.754 227.873 146.541V143.706C227.873 143.492 227.699 143.319 227.486 143.319Z" fill="white"/>
<path d="M204.605 150.919H195.269C195.056 150.919 194.882 151.092 194.882 151.306V154.141C194.882 154.354 195.056 154.528 195.269 154.528H204.605C204.819 154.528 204.992 154.354 204.992 154.141V151.306C204.992 151.092 204.819 150.919 204.605 150.919Z" fill="white"/>
<path d="M216.046 150.919H206.71C206.496 150.919 206.323 151.092 206.323 151.306V154.141C206.323 154.354 206.496 154.528 206.71 154.528H216.046C216.26 154.528 216.433 154.354 216.433 154.141V151.306C216.433 151.092 216.26 150.919 216.046 150.919Z" fill="white"/>
<path d="M227.486 150.919H218.15C217.936 150.919 217.763 151.092 217.763 151.306V154.141C217.763 154.354 217.936 154.528 218.15 154.528H227.486C227.699 154.528 227.873 154.354 227.873 154.141V151.306C227.873 151.092 227.699 150.919 227.486 150.919Z" fill="white"/>
<path d="M238.932 136.43H229.595C229.382 136.43 229.208 136.603 229.208 136.817V139.652C229.208 139.865 229.382 140.038 229.595 140.038H238.932C239.145 140.038 239.318 139.865 239.318 139.652V136.817C239.318 136.603 239.145 136.43 238.932 136.43Z" fill="#34334B"/>
<path d="M237.824 142.936H230.793C230.261 142.936 229.829 143.368 229.829 143.901V154.833C229.829 155.366 230.261 155.797 230.793 155.797H237.824C238.357 155.797 238.789 155.366 238.789 154.833V143.901C238.789 143.368 238.357 142.936 237.824 142.936Z" fill="#4E4C82"/>
<path d="M221.881 120.524H217.038V121.104H221.881V120.524Z" fill="white"/>
<path d="M228.664 120.524H223.821V121.104H228.664V120.524Z" fill="white"/>
<path d="M235.448 120.524H230.604V121.104H235.448V120.524Z" fill="white"/>
<path d="M84.1816 142.063C85.4001 142.063 86.5912 142.425 87.6043 143.102C88.6174 143.779 89.407 144.741 89.8733 145.866C90.3396 146.992 90.4616 148.231 90.2239 149.426C89.9862 150.621 89.3994 151.719 88.5379 152.58C87.6763 153.442 86.5785 154.029 85.3835 154.266C84.1884 154.504 82.9497 154.382 81.824 153.916C80.6983 153.449 79.7361 152.66 79.0592 151.647C78.3823 150.634 78.0209 149.442 78.0209 148.224C78.0209 146.59 78.67 145.023 79.8254 143.868C80.9807 142.712 82.5477 142.063 84.1816 142.063V142.063ZM83.3533 144.288C83.2493 144.29 83.1482 144.323 83.063 144.383C82.9777 144.443 82.912 144.526 82.8742 144.623C82.7831 144.84 82.7361 145.073 82.7361 145.308C82.7361 145.543 82.7831 145.776 82.8742 145.992C82.9477 146.23 83.0464 146.46 83.1685 146.677C83.1685 146.677 83.2438 146.787 82.9974 146.787H81.4162C81.3491 146.791 81.2835 146.808 81.2237 146.839C81.1639 146.87 81.1111 146.913 81.0686 146.965C81.0262 147.017 80.995 147.077 80.977 147.142C80.9591 147.207 80.9548 147.274 80.9644 147.341C80.9606 147.449 80.991 147.555 81.0512 147.645C81.1114 147.735 81.1984 147.803 81.2998 147.841V147.875C81.2088 147.918 81.1306 147.985 81.073 148.068C81.0154 148.15 80.9803 148.247 80.9712 148.347C80.9577 148.461 80.9897 148.575 81.0603 148.665C81.1309 148.755 81.2343 148.813 81.3477 148.826C81.3477 148.826 81.3477 148.826 81.3477 148.861C81.2668 148.905 81.2005 148.972 81.1568 149.054C81.113 149.135 81.0938 149.227 81.1013 149.319C81.0993 149.412 81.1296 149.502 81.1871 149.575C81.2446 149.647 81.3256 149.697 81.4162 149.716V149.751C81.3587 149.794 81.3133 149.851 81.2845 149.917C81.2557 149.983 81.2445 150.055 81.2518 150.127C81.2506 150.219 81.2822 150.309 81.3408 150.38C81.3794 150.426 81.4276 150.463 81.4821 150.488C81.5366 150.512 81.5959 150.525 81.6557 150.524H85.0783C85.0783 150.524 85.2563 150.524 85.2563 150.284V148.053C85.2589 147.503 85.1045 146.964 84.8114 146.499C84.577 146.151 84.3112 145.826 84.0173 145.527C83.9694 145.472 83.7914 145.322 83.7914 145.233C83.7914 145.144 83.7914 144.952 83.7914 144.623C83.7875 144.571 83.7727 144.521 83.7479 144.475C83.7231 144.429 83.6889 144.389 83.6475 144.358C83.6062 144.326 83.5586 144.303 83.5079 144.291C83.4572 144.279 83.4045 144.278 83.3533 144.288ZM87.2483 147.546H85.8792C85.8289 147.548 85.7812 147.569 85.7456 147.604C85.71 147.64 85.6893 147.688 85.6876 147.738V150.853C85.6866 150.878 85.6909 150.903 85.7002 150.927C85.7095 150.951 85.7236 150.972 85.7416 150.99C85.7596 151.008 85.7811 151.022 85.8048 151.032C85.8284 151.041 85.8538 151.045 85.8792 151.044H87.2483C87.2991 151.044 87.3478 151.024 87.3838 150.988C87.4197 150.952 87.4399 150.903 87.4399 150.853V147.752C87.4408 147.726 87.4366 147.7 87.4275 147.675C87.4183 147.651 87.4045 147.628 87.3867 147.609C87.3689 147.59 87.3475 147.575 87.3237 147.564C87.3 147.553 87.2743 147.547 87.2483 147.546Z" fill="#5E90FF"/>
<path d="M92.8271 139.182C92.8908 139.246 92.9665 139.297 93.0499 139.331C93.1333 139.366 93.2228 139.384 93.3131 139.384C93.4035 139.384 93.493 139.366 93.5764 139.331C93.6598 139.297 93.7355 139.246 93.7991 139.182L94.1756 138.846C97.2218 136.046 98.9673 134.232 98.9673 131.967C98.9673 130.118 97.8036 128.688 95.9622 128.688C95.4541 128.691 94.9528 128.805 94.493 129.021C94.0332 129.237 93.626 129.551 93.2995 129.941C92.973 129.551 92.5657 129.237 92.1059 129.021C91.6461 128.805 91.1448 128.691 90.6367 128.688C88.8022 128.688 87.6316 130.118 87.6316 131.967C87.6316 134.232 89.3909 136.074 92.4233 138.846L92.8271 139.182Z" fill="#FF8C4A"/>
<path d="M74.2974 225.718C74.2974 225.718 70.1902 262.683 61.2915 277.057C60.1487 280.879 59.2343 284.764 58.5534 288.694C58.5534 288.694 56.4999 314.022 53.7618 321.551C51.0237 329.081 48.9701 349.617 48.9701 349.617C48.9701 349.617 39.3869 360.569 35.9643 351.67C38.1146 339.935 38.8044 327.979 38.0178 316.075C38.0178 316.075 37.3333 304.438 40.7559 296.224C40.7559 296.224 42.1249 288.694 40.7559 283.218C39.3869 277.742 46.2321 251.046 46.2321 251.046L51.7082 224.349L74.2974 225.718Z" fill="#FCD2B1"/>
<path d="M31.1727 358.515C31.1727 358.515 35.2798 366.045 59.238 368.783C71.6621 370.2 71.7511 367.941 68.9582 365.436C66.3707 363.108 61.2916 360.569 61.2916 360.569C61.2916 360.569 52.3928 354.408 51.0238 350.301C49.6548 346.194 44.8631 349.617 44.8631 349.617C38.0179 359.884 36.6489 346.879 35.2798 348.248C34.431 349.096 33.0483 352.861 32.1242 355.586C31.5629 357.215 31.1727 358.515 31.1727 358.515Z" fill="#FF8C4A"/>
<path opacity="0.1" d="M31.1727 358.515C31.1727 358.515 35.2798 366.045 59.238 368.783C71.6621 370.2 71.7511 367.941 68.9582 365.436C67.0005 366.682 63.0577 367.236 55.1309 363.992C43.7268 359.323 35.4647 356.626 32.1242 355.586C31.5629 357.215 31.1727 358.515 31.1727 358.515Z" fill="#34334B"/>
<path opacity="0.1" d="M38.0176 316.075C38.0176 316.075 37.3331 304.438 40.7557 296.224C40.7557 296.224 42.1247 288.694 40.7557 283.218C39.3866 277.742 46.2318 251.046 46.2318 251.046L51.708 224.349L56.438 224.637L51.0235 251.046C51.0235 251.046 44.1783 277.742 45.5473 283.218C46.9163 288.694 45.5473 296.224 45.5473 296.224C42.1247 304.438 42.8092 316.075 42.8092 316.075C43.5958 327.979 42.906 339.935 40.7557 351.67C41.1212 352.791 41.8123 353.778 42.7408 354.504C40.1875 355.661 37.4768 355.599 35.964 351.67C38.1144 339.935 38.8042 327.979 38.0176 316.075V316.075Z" fill="#FCD2B1"/>
<path d="M42.4674 75.4664C47.0383 75.4612 51.5196 76.7344 55.4048 79.1423C60.5224 77.9706 65.8859 78.5663 70.6217 80.8323C75.3575 83.0982 79.1865 86.901 81.485 91.6211C86.8654 96.4127 90.3838 104.12 90.3838 112.793C90.3838 127.353 80.5746 139.147 68.4792 139.147C59.7036 139.147 52.1397 132.946 48.6281 123.985C45.24 124.863 41.7039 125.009 38.2551 124.413C34.8063 123.817 31.524 122.494 28.6266 120.531C25.7292 118.567 23.2832 116.01 21.4514 113.027C19.6196 110.045 18.4441 106.707 18.0031 103.235C17.562 99.7631 17.8656 96.237 18.8936 92.8915C19.9215 89.5461 21.6504 86.4579 23.9649 83.8327C26.2795 81.2075 29.1267 79.1054 32.317 77.6664C35.5073 76.2273 38.9676 75.4844 42.4674 75.487V75.4664Z" fill="#34334B"/>
<path d="M22.2735 229.141L20.2199 234.617C20.2199 234.617 18.1664 270.897 18.8509 274.319C19.5354 277.742 16.1128 290.063 16.1128 290.063C16.1128 290.063 9.26763 306.492 11.3212 328.396L10.6367 347.563C10.6367 347.563 7.89859 355.093 9.26763 356.462C10.6367 357.831 20.9045 355.093 20.9045 355.093C20.9045 355.093 19.5354 340.718 24.3271 331.819C29.1187 322.92 31.8568 300.331 31.8568 300.331C31.8568 300.331 38.702 286.641 38.702 281.165C38.702 275.688 49.6543 231.195 49.6543 231.195L22.2735 229.141Z" fill="#FCD2B1"/>
<path d="M75.6662 228.457C75.6662 228.457 74.9817 203.814 72.2436 196.284C69.5056 188.754 69.1633 185.4 69.1633 185.4C69.1633 185.4 27.7156 192.889 24.293 190.151C24.293 190.151 23.6085 199.734 22.924 200.419C22.2395 201.103 19.5014 218.216 20.1859 226.43C20.8704 234.645 20.1859 234.645 20.1859 234.645C20.1859 234.645 48.2512 238.752 48.9357 234.645C49.6203 230.538 51.6738 230.538 51.6738 230.538C51.6738 230.538 77.0353 229.826 75.6662 228.457Z" fill="#34334B"/>
<g opacity="0.1">
<path opacity="0.1" d="M53.077 228.457C53.077 228.457 70.4022 227.991 75.6182 227.088C75.6525 227.977 75.6662 228.457 75.6662 228.457C77.0352 229.826 51.708 230.51 51.708 230.51C51.3621 230.547 51.0341 230.682 50.7633 230.9C51.6327 228.47 53.077 228.457 53.077 228.457Z" fill="#34334B"/>
<path opacity="0.1" d="M22.9587 200.391C23.6432 199.707 24.3277 190.123 24.3277 190.123C24.6798 190.352 25.0808 190.495 25.4983 190.541C25.245 193.43 24.8137 197.879 24.3277 198.338C23.6432 199.022 20.9051 216.135 21.5896 224.349C22.2741 232.564 21.5896 232.564 21.5896 232.564C21.5896 232.564 43.7886 235.815 49.1826 233.645C49.1005 233.946 49.032 234.261 48.9704 234.617C48.2859 238.724 20.2206 234.617 20.2206 234.617C20.2206 234.617 20.9051 234.617 20.2206 226.403C19.5361 218.189 22.2741 201.076 22.9587 200.391Z" fill="#34334B"/>
</g>
<path d="M45.5132 118.584C44.9245 119.916 44.0283 121.089 42.8983 122.007C42.167 122.54 41.3245 122.9 40.4341 123.061C41.9743 123.944 43.6376 124.608 45.1778 125.498C47.6968 126.942 49.8394 128.921 52.1941 130.639C54.5489 132.357 57.2801 133.746 60.1825 133.733C59.1621 132.352 58.522 130.727 58.3262 129.022C58.1304 127.316 58.3857 125.589 59.0667 124.013C59.5596 122.904 60.2783 121.829 60.2988 120.59C60.2988 118.632 58.5602 117.167 56.9379 116.065C55.619 115.175 54.2842 114.313 52.9334 113.478C51.8655 112.793 50.2638 111.424 48.9221 111.472C47.423 111.527 47.423 112.711 47.1492 113.93C46.7969 115.542 46.2474 117.106 45.5132 118.584V118.584Z" fill="#FCD2B1"/>
<path opacity="0.1" d="M45.5132 118.584C44.9245 119.916 44.0283 121.089 42.8983 122.007C42.167 122.54 41.3245 122.9 40.4341 123.061C41.9743 123.944 43.6376 124.608 45.1778 125.498C47.6968 126.942 49.8394 128.921 52.1941 130.639C54.5489 132.357 57.2801 133.746 60.1825 133.733C59.1621 132.352 58.522 130.727 58.3262 129.022C58.1304 127.316 58.3857 125.589 59.0667 124.013C59.5596 122.904 60.2783 121.829 60.2988 120.59C60.2988 118.632 58.5602 117.167 56.9379 116.065C55.619 115.175 54.2842 114.313 52.9334 113.478C51.8655 112.793 50.2638 111.424 48.9221 111.472C47.423 111.527 47.423 112.711 47.1492 113.93C46.7969 115.542 46.2474 117.106 45.5132 118.584V118.584Z" fill="#FCD2B1"/>
<path d="M29.4611 158.985C20.766 158.985 13.7172 151.936 13.7172 143.241C13.7172 134.546 20.766 127.497 29.4611 127.497C38.1563 127.497 45.2051 134.546 45.2051 143.241C45.2051 151.936 38.1563 158.985 29.4611 158.985Z" fill="#FCD2B1"/>
<path d="M7.2144 366.73C7.2144 368.099 9.95248 371.521 9.95248 371.521C18.1667 372.89 26.381 369.468 26.381 369.468C27.75 368.783 25.6964 364.676 25.6964 364.676C25.6964 364.676 25.6485 364.553 25.5527 364.347C25.1762 363.451 24.0673 360.993 22.9584 359.884C21.5893 358.515 20.7747 352.882 20.7747 352.882C16.5307 345.879 8.98048 355.894 8.98048 355.894C8.98048 355.894 8.02214 361.041 7.51559 364.293C7.37379 365.099 7.27326 365.913 7.2144 366.73V366.73Z" fill="#FF8C4A"/>
<path opacity="0.1" d="M7.2144 366.73C7.2144 368.099 9.95248 371.521 9.95248 371.521C18.1667 372.89 26.381 369.468 26.381 369.468C27.75 368.783 25.6964 364.676 25.6964 364.676C25.6964 364.676 25.6485 364.553 25.5527 364.347C22.4039 365.716 16.3527 367.893 10.637 367.414L7.51559 364.293C7.37379 365.099 7.27326 365.913 7.2144 366.73Z" fill="#34334B"/>
<path d="M60.9494 125.785C52.4433 125.785 45.5477 118.89 45.5477 110.384C45.5477 101.878 52.4433 94.9821 60.9494 94.9821C69.4555 94.9821 76.3511 101.878 76.3511 110.384C76.3511 118.89 69.4555 125.785 60.9494 125.785Z" fill="#FCD2B1"/>
<path d="M73.3804 141.167C76.7483 144.391 77.3027 149.497 77.6587 154.173L78.1721 160.977C78.36 162.809 78.4081 164.654 78.3158 166.494C78.2268 167.644 78.0283 168.78 77.9188 169.916C77.7887 171.285 77.7819 172.655 77.7751 174.024L77.7135 184.093C77.7135 186.146 77.6587 188.351 76.6045 190.137C75.5504 191.924 73.1203 193.074 71.3406 192.013C70.1769 191.328 69.6361 189.959 69.1707 188.679C67.6647 184.531 66.1451 180.321 65.7481 175.927C65.6043 174.414 65.5906 172.894 65.4537 171.381C65.3168 169.869 65.0567 168.287 64.8239 166.747C63.8519 160.333 63.4138 153.858 62.9826 147.396C62.8525 145.479 61.1275 137.943 63.6329 137.128C64.8582 136.717 67.3909 137.977 68.5477 138.401C70.3302 138.984 71.9747 139.925 73.3804 141.167V141.167Z" fill="#FCD2B1"/>
<path opacity="0.1" d="M73.3804 141.167C76.7483 144.391 77.3027 149.497 77.6587 154.173L78.1721 160.977C78.36 162.809 78.4081 164.654 78.3158 166.494C78.2268 167.644 78.0283 168.78 77.9188 169.916C77.7887 171.285 77.7819 172.655 77.7751 174.024L77.7135 184.093C77.7135 186.146 77.6587 188.351 76.6045 190.137C75.5504 191.924 73.1203 193.074 71.3406 192.013C70.1769 191.328 69.6361 189.959 69.1707 188.679C67.6647 184.531 66.1451 180.321 65.7481 175.927C65.6043 174.414 65.5906 172.894 65.4537 171.381C65.3168 169.869 65.0567 168.287 64.8239 166.747C63.8519 160.333 63.4138 153.858 62.9826 147.396C62.8525 145.479 61.1275 137.943 63.6329 137.128C64.8582 136.717 67.3909 137.977 68.5477 138.401C70.3302 138.984 71.9747 139.925 73.3804 141.167V141.167Z" fill="#FCD2B1"/>
<path d="M41.4401 120.302C41.4401 120.302 53.0769 129.201 59.9221 131.255C59.9221 131.255 63.9813 135.889 64.7138 136.998C65.4462 138.107 66.7673 150.421 68.1364 153.159C69.5054 155.898 72.928 162.058 68.1364 168.219C68.1364 168.219 66.7673 174.38 67.4518 176.433C68.1364 178.487 70.6212 186.016 68.3486 186.365C66.076 186.715 59.2376 191.493 53.0769 190.124C46.9162 188.754 23.9848 195.257 23.9848 195.257C23.9848 195.257 20.22 160.005 17.4819 153.844L23.6426 151.79C23.6426 151.79 40.7556 141.523 30.4878 125.779C30.4878 125.779 40.0711 123.725 41.4401 120.302Z" fill="#FF8C4A"/>
<path d="M83.9285 161.531L69.7932 171.539C69.612 171.67 69.394 171.741 69.1703 171.741C68.9465 171.741 68.7285 171.67 68.5473 171.539L64.7277 168.671C64.6008 168.578 64.4964 168.457 64.4222 168.319C64.3481 168.18 64.3062 168.026 64.2997 167.869C64.2931 167.712 64.322 167.555 64.3843 167.411C64.4465 167.266 64.5405 167.138 64.6593 167.035L75.5363 157.335C75.6793 157.21 75.8527 157.125 76.0391 157.089C76.2255 157.053 76.4181 157.067 76.5973 157.13L83.6752 159.662C83.857 159.729 84.0171 159.845 84.1383 159.996C84.2596 160.147 84.3373 160.329 84.3634 160.521C84.3894 160.713 84.3627 160.908 84.2861 161.086C84.2095 161.264 84.0859 161.418 83.9285 161.531Z" fill="#34334B"/>
<path d="M79.1778 191.705C80.3415 188.282 80.5058 184.627 80.6564 181.019L80.8618 176.228C80.9439 174.352 81.0123 172.408 80.3552 170.649C79.4106 168.13 77.049 166.33 74.4889 165.508C71.8863 164.787 69.1659 164.591 66.4869 164.933C66.1284 164.928 65.7762 165.028 65.4737 165.221C65.2003 165.476 65.0055 165.803 64.9124 166.165C64.3306 167.794 63.7625 169.67 64.5907 171.197C64.9973 171.858 65.547 172.419 66.1993 172.839C68.0954 174.208 70.3065 175.112 72.1067 176.591C72.4641 176.793 72.7355 177.119 72.8703 177.507C73.005 177.895 72.994 178.318 72.8392 178.699C72.6132 179.659 72.3064 180.597 71.9219 181.505C71.7659 181.96 71.4974 182.367 71.1416 182.69C70.8062 182.957 70.3681 183.073 70.0327 183.333C69.2797 183.935 67.7258 184.743 67.7943 185.702C68.0544 189.247 70.149 193.081 70.9773 196.531C72.5859 203.253 78.1716 194.641 79.1778 191.705Z" fill="#FCD2B1"/>
<g opacity="0.1">
<path opacity="0.1" d="M57.1836 190.124C57.3079 190.151 57.4336 190.171 57.5601 190.185C56.0754 190.452 54.5532 190.431 53.0765 190.124L52.6521 190.055C54.1585 189.87 55.6834 189.893 57.1836 190.124V190.124Z" fill="#34334B"/>
<path opacity="0.1" d="M21.2467 152.817C23.6973 158.341 27.3184 188.241 27.9756 194.183C25.5524 194.812 23.9848 195.257 23.9848 195.257C23.9848 195.257 20.22 160.005 17.4819 153.844L21.2467 152.817Z" fill="#34334B"/>
</g>
<path d="M28.927 143.72C28.8791 145.123 27.7291 146.198 26.675 147.142C25.2229 148.361 23.8911 149.715 22.6979 151.188C20.9742 153.604 19.6371 156.274 18.7346 159.101C17.4274 162.649 16.3258 166.269 15.4352 169.944C24.2381 173.983 34.0541 173.791 43.3636 176.46C47.3761 177.498 51.0211 179.631 53.8915 182.621C56.6296 185.681 58.2861 189.884 57.7385 193.971C57.7224 194.211 57.6523 194.445 57.5331 194.655C57.3785 194.823 57.188 194.954 56.9759 195.038C56.7638 195.122 56.5354 195.157 56.3078 195.141C53.9921 195.144 51.7419 194.373 49.9144 192.951C48.1069 191.546 46.467 189.938 45.0269 188.159C44.1219 186.995 42.9107 186.106 41.529 185.592C36.4841 184.052 31.1107 184.148 25.833 184.052C18.0224 183.902 10.2278 183.285 2.49087 182.204C1.85932 182.196 1.25366 181.951 0.793274 181.519C0.529329 181.112 0.391231 180.635 0.396241 180.15C-0.370421 169.882 3.44238 159.834 7.39205 150.305C8.97558 146.49 10.5888 142.689 12.2316 138.901C13.7992 135.293 15.4488 131.618 18.1527 128.763C19.1419 127.662 20.3494 126.778 21.6985 126.169C23.1522 125.652 24.6749 125.354 26.2163 125.286C28.7564 124.954 31.3254 124.906 33.8761 125.142C34.1568 126.511 34.6565 127.73 34.6086 129.105C34.4648 133.808 32.4112 138.21 30.3919 142.46C30.0702 143.076 29.3309 143.097 28.927 143.72Z" fill="#FCD2B1"/>
<path opacity="0.1" d="M56.8011 152.543C57.9859 154.56 58.5922 156.865 58.5534 159.204C58.5468 160.133 58.3991 161.057 58.1153 161.942C57.2665 164.42 55.0281 166.241 52.557 167.11" stroke="#34334B" stroke-miterlimit="10"/>
<path d="M47.9432 95.3175C48.8032 95.3209 49.6576 95.4572 50.476 95.7214C52.7554 92.2988 58.1152 89.8414 64.3717 89.8414C72.6886 89.8414 79.4312 94.1333 79.4312 99.4246C79.4312 104.716 72.6886 109.008 64.3717 109.008C61.2561 109.042 58.1712 108.39 55.336 107.098C54.6986 108.421 53.7184 109.548 52.4974 110.363C51.2764 111.179 49.8592 111.652 48.3933 111.733C46.9275 111.815 45.4665 111.502 44.1625 110.828C42.8585 110.153 41.7591 109.142 40.9787 107.898C40.1983 106.654 39.7655 105.224 39.7252 103.757C39.685 102.289 40.0388 100.838 40.7499 99.5533C41.461 98.2689 42.5033 97.1985 43.7684 96.4535C45.0335 95.7086 46.4751 95.3163 47.9432 95.3175V95.3175Z" fill="#34334B"/>
<path opacity="0.1" d="M47.2587 109.692C48.8033 109.691 50.3163 109.254 51.6239 108.432C52.9316 107.61 53.9809 106.436 54.6515 105.045C57.4867 106.337 60.5716 106.989 63.6872 106.954C72.0041 106.954 78.7466 102.669 78.7466 97.3711C78.7456 97.0548 78.7205 96.739 78.6713 96.4265C79.1646 97.3492 79.4254 98.3783 79.4312 99.4247C79.4312 104.723 72.6886 109.008 64.3717 109.008C61.2561 109.042 58.1712 108.39 55.336 107.098C54.5814 108.65 53.3571 109.925 51.8368 110.742C50.3165 111.559 48.5776 111.877 46.8667 111.649C45.1559 111.422 43.5601 110.662 42.3059 109.476C41.0517 108.29 40.2027 106.74 39.8796 105.045C40.5492 106.434 41.5964 107.607 42.9014 108.429C44.2064 109.251 45.7164 109.689 47.2587 109.692V109.692Z" fill="#34334B"/>
<path opacity="0.1" d="M81.485 95.7282C79.1818 91.0051 75.3459 87.2019 70.6032 84.9393C65.8604 82.6767 60.4908 82.0882 55.3706 83.27C51.7861 81.0595 47.6948 79.8045 43.4873 79.6248C39.2798 79.445 35.0965 80.3466 31.3366 82.2434C27.5766 84.1402 24.3655 86.969 22.0096 90.4597C19.6538 93.9504 18.2318 97.9867 17.8795 102.183C17.8247 101.499 17.7905 100.814 17.7905 100.13C17.7917 95.7437 18.9634 91.4375 21.1848 87.6557C23.4061 83.8738 26.5965 80.7533 30.4267 78.6164C34.2569 76.4794 38.588 75.4034 42.9729 75.4995C47.3579 75.5956 51.6377 76.8602 55.3706 79.1628C60.4908 77.9811 65.8604 78.5696 70.6032 80.8322C75.3459 83.0948 79.1818 86.8979 81.485 91.6211C86.8654 96.4127 90.3838 104.12 90.3838 112.793C90.3838 113.478 90.3838 114.162 90.3085 114.847C89.8088 107.002 86.4683 100.13 81.485 95.7282Z" fill="#34334B"/>
<path d="M101.979 109.891C103.198 109.891 104.389 110.252 105.402 110.929C106.415 111.606 107.205 112.568 107.671 113.694C108.137 114.82 108.259 116.058 108.022 117.253C107.784 118.449 107.197 119.546 106.336 120.408C105.474 121.269 104.376 121.856 103.181 122.094C101.986 122.332 100.748 122.21 99.6219 121.743C98.4962 121.277 97.534 120.487 96.8571 119.474C96.1801 118.461 95.8188 117.27 95.8188 116.052V116.052C95.8188 114.418 96.4679 112.851 97.6232 111.695C98.7786 110.54 100.346 109.891 101.979 109.891V109.891ZM101.151 112.116C101.047 112.118 100.946 112.151 100.861 112.211C100.776 112.27 100.71 112.354 100.672 112.451C100.581 112.668 100.534 112.9 100.534 113.136C100.534 113.371 100.581 113.603 100.672 113.82C100.746 114.058 100.844 114.288 100.966 114.505C100.966 114.505 101.042 114.614 100.795 114.614H99.214C99.1469 114.618 99.0814 114.636 99.0216 114.667C98.9617 114.697 98.909 114.74 98.8665 114.792C98.824 114.844 98.7928 114.905 98.7749 114.969C98.7569 115.034 98.7526 115.102 98.7622 115.169C98.7584 115.277 98.7888 115.383 98.849 115.473C98.9093 115.562 98.9963 115.631 99.0976 115.668V115.702C99.0066 115.746 98.9285 115.812 98.8709 115.895C98.8133 115.978 98.7782 116.074 98.7691 116.175C98.7555 116.288 98.7876 116.402 98.8582 116.492C98.9288 116.582 99.0321 116.64 99.1455 116.654C99.1455 116.654 99.1455 116.654 99.1455 116.688C99.0646 116.733 98.9983 116.8 98.9546 116.881C98.9109 116.962 98.8916 117.055 98.8991 117.147C98.8971 117.239 98.9275 117.33 98.985 117.402C99.0425 117.475 99.1235 117.525 99.214 117.544V117.578C99.1565 117.621 99.1112 117.679 99.0824 117.745C99.0536 117.811 99.0423 117.883 99.0497 117.955C99.0485 118.047 99.08 118.137 99.1387 118.208C99.1773 118.254 99.2255 118.29 99.28 118.315C99.3344 118.34 99.3937 118.352 99.4536 118.352H102.876C102.876 118.352 103.054 118.352 103.054 118.112V115.88C103.057 115.331 102.902 114.792 102.609 114.327C102.375 113.979 102.109 113.654 101.815 113.355C101.767 113.3 101.589 113.149 101.589 113.06C101.589 112.971 101.589 112.78 101.589 112.451C101.585 112.399 101.571 112.349 101.546 112.303C101.521 112.257 101.487 112.217 101.445 112.185C101.404 112.153 101.356 112.131 101.306 112.119C101.255 112.107 101.202 112.106 101.151 112.116ZM105.046 115.374H103.677C103.627 115.376 103.579 115.396 103.543 115.432C103.508 115.468 103.487 115.515 103.485 115.566V118.68C103.484 118.706 103.489 118.731 103.498 118.755C103.507 118.778 103.521 118.8 103.539 118.818C103.557 118.836 103.579 118.85 103.603 118.859C103.626 118.868 103.652 118.873 103.677 118.872H105.046C105.097 118.872 105.146 118.852 105.182 118.816C105.218 118.78 105.238 118.731 105.238 118.68V115.579C105.239 115.553 105.234 115.527 105.225 115.503C105.216 115.478 105.202 115.456 105.185 115.437C105.167 115.418 105.145 115.402 105.122 115.392C105.098 115.381 105.072 115.375 105.046 115.374V115.374Z" fill="#5E90FF"/>
<path d="M87.3511 109.063C87.4147 109.127 87.4904 109.178 87.5738 109.212C87.6572 109.247 87.7467 109.265 87.8371 109.265C87.9274 109.265 88.0169 109.247 88.1003 109.212C88.1837 109.178 88.2594 109.127 88.3231 109.063L88.6996 108.727C91.7457 105.928 93.4912 104.114 93.4912 101.848C93.4912 99.9996 92.3275 98.569 90.4862 98.569C89.978 98.5723 89.4767 98.686 89.0169 98.9023C88.5571 99.1186 88.1499 99.4323 87.8234 99.8217C87.4969 99.4323 87.0896 99.1186 86.6298 98.9023C86.17 98.686 85.6687 98.5723 85.1606 98.569C83.3261 98.569 82.1555 99.9996 82.1555 101.848C82.1555 104.114 83.9148 105.955 86.9472 108.727L87.3511 109.063Z" fill="#FF8C4A"/>
<path d="M101.027 33.0262C103.214 33.0248 105.352 33.6721 107.171 34.886C108.99 36.0999 110.408 37.826 111.246 39.8459C112.084 41.8658 112.304 44.0888 111.878 46.2337C111.452 48.3786 110.4 50.3491 108.854 51.8958C107.308 53.4426 105.338 54.4961 103.194 54.9233C101.049 55.3504 98.8258 55.1318 96.8054 54.2953C94.7849 53.4588 93.058 52.0419 91.8429 50.2237C90.6279 48.4056 89.9794 46.2679 89.9794 44.0812C89.9785 42.6297 90.2636 41.1924 90.8184 39.8511C91.3732 38.5099 92.1869 37.2912 93.2129 36.2645C94.2389 35.2379 95.4571 34.4235 96.798 33.8678C98.1389 33.3122 99.5761 33.0262 101.027 33.0262ZM99.549 37.0032C99.3625 37.0105 99.1822 37.072 99.0302 37.1802C98.8782 37.2884 98.7611 37.4387 98.6933 37.6125C98.3609 38.3861 98.3486 39.2599 98.6591 40.0425C98.7944 40.4649 98.971 40.8731 99.1861 41.261C99.1861 41.261 99.3231 41.4663 98.8781 41.4595H96.051C95.9304 41.4686 95.8129 41.5023 95.7058 41.5587C95.5988 41.6151 95.5045 41.6929 95.4287 41.7872C95.353 41.8816 95.2975 41.9905 95.2656 42.1072C95.2337 42.2239 95.2261 42.346 95.2433 42.4657C95.2373 42.6568 95.2916 42.8449 95.3985 43.0034C95.5054 43.1619 95.6594 43.2827 95.8389 43.3488C95.8432 43.3526 95.8467 43.3573 95.8491 43.3626C95.8515 43.368 95.8528 43.3737 95.8528 43.3795C95.8528 43.3854 95.8515 43.3911 95.8491 43.3964C95.8467 43.4018 95.8432 43.4065 95.8389 43.4104C95.6757 43.4889 95.5358 43.6084 95.4326 43.7571C95.3294 43.9059 95.2665 44.0789 95.2502 44.2592C95.2387 44.3603 95.2474 44.4627 95.2757 44.5605C95.3039 44.6583 95.3512 44.7496 95.4148 44.8291C95.4784 44.9086 95.557 44.9747 95.6462 45.0238C95.7355 45.0728 95.8335 45.1037 95.9347 45.1148C95.9462 45.118 95.9561 45.1254 95.9624 45.1355C95.9687 45.1457 95.9711 45.1578 95.9689 45.1696V45.1696C95.8241 45.2467 95.7045 45.3639 95.6244 45.5071C95.5443 45.6503 95.5071 45.8135 95.5171 45.9773C95.5184 46.1432 95.575 46.304 95.6779 46.4341C95.7808 46.5643 95.9241 46.6565 96.0853 46.696C96.0973 46.7006 96.1074 46.7093 96.1136 46.7206C96.1199 46.7319 96.122 46.745 96.1195 46.7576V46.7576C96.0096 46.8311 95.9233 46.9349 95.871 47.0564C95.8188 47.1778 95.8029 47.3118 95.8252 47.4422C95.825 47.5356 95.844 47.6281 95.8809 47.714C95.9178 47.7998 95.972 47.8772 96.0399 47.9413C96.1079 48.0055 96.1883 48.055 96.2762 48.0869C96.364 48.1188 96.4575 48.1323 96.5508 48.1267H102.616C102.616 48.1267 102.944 48.1267 102.944 47.6818V43.6978C102.942 42.7158 102.667 41.7537 102.15 40.9187C101.719 40.305 101.243 39.7239 100.726 39.18C100.637 39.091 100.316 38.8104 100.316 38.6598C100.316 38.5092 100.316 38.1532 100.316 37.5714C100.287 37.3955 100.191 37.2378 100.048 37.1317C99.9044 37.0256 99.7256 36.9795 99.549 37.0032ZM106.511 42.8354H104.074C103.981 42.8354 103.892 42.8721 103.827 42.9376C103.761 43.0031 103.725 43.0919 103.725 43.1845V48.7496C103.725 48.8422 103.761 48.931 103.827 48.9965C103.892 49.0619 103.981 49.0987 104.074 49.0987H106.504C106.549 49.0987 106.594 49.0896 106.636 49.072C106.678 49.0544 106.716 49.0286 106.748 48.9961C106.78 48.9636 106.805 48.925 106.822 48.8827C106.839 48.8404 106.847 48.7951 106.846 48.7496V43.1776C106.846 43.088 106.811 43.002 106.748 42.938C106.685 42.874 106.6 42.8372 106.511 42.8354V42.8354Z" fill="#5E90FF"/>
<path d="M112.972 89.2595C113.211 89.474 113.521 89.5927 113.842 89.5927C114.163 89.5927 114.472 89.474 114.711 89.2595L115.396 88.6571C120.872 83.6533 124 80.4018 124 76.3358C124 73.0295 121.912 70.4763 118.627 70.4763C117.713 70.476 116.811 70.6757 115.983 71.0612C115.156 71.4467 114.422 72.0087 113.835 72.7078C113.247 72.0094 112.513 71.4479 111.686 71.0624C110.858 70.677 109.956 70.4769 109.043 70.4763C105.758 70.4763 103.67 73.0295 103.67 76.3358C103.67 80.3813 106.819 83.6327 112.274 88.6571L112.972 89.2595Z" fill="#FF8C4A"/>
<path d="M77.2685 30.4524C77.6486 30.8065 78.1488 31.0034 78.6683 31.0034C79.1878 31.0034 79.688 30.8065 80.0682 30.4524L81.1429 29.4804C89.9389 21.4099 95.0181 16.1665 95.0181 9.6293C95.0181 4.29689 91.6434 0.176086 86.352 0.176086C84.8859 0.184447 83.439 0.511379 82.1117 1.13426C80.7844 1.75715 79.6083 2.66109 78.6649 3.7835C77.7229 2.66127 76.548 1.75737 75.2218 1.13445C73.8956 0.511537 72.4498 0.18452 70.9846 0.176086C65.6864 0.176086 62.3186 4.2832 62.3186 9.6293C62.3186 16.1528 67.3977 21.3962 76.1938 29.4804L77.2685 30.4524Z" fill="#FF8C4A"/>
</svg>
