<svg width="65" height="65" viewBox="0 0 65 65" fill="none" xmlns="http://www.w3.org/2000/svg">
<path d="M20.9158 37.531V33.7956H9.04719V41.8027H11.9406C11.7895 41.4357 11.703 41.0362 11.703 40.6188C11.703 39.7695 12.0522 38.9957 12.6099 38.4379C13.1713 37.8765 13.9415 37.531 14.7908 37.531H20.9158ZM33.7956 44.0878V55.9564H41.8027V53.0594C41.4357 53.2142 41.0362 53.297 40.6188 53.297C39.7695 53.297 38.9958 52.9515 38.438 52.3901C37.8766 51.8323 37.5312 51.0585 37.5312 50.2092V44.0878H33.7956ZM31.8918 55.9564V44.0878H30.931C30.3408 44.0878 29.6821 43.9979 29.0308 43.6884C28.3687 43.3789 27.7424 42.8571 27.2459 42.0113C26.7853 41.2232 26.1195 40.5754 25.3205 40.1256C24.5432 39.683 23.6363 39.4347 22.6719 39.4347H14.7908C14.4669 39.4347 14.1718 39.5679 13.9558 39.7838C13.7436 39.9998 13.6103 40.2948 13.6103 40.6188C13.6103 40.9426 13.7434 41.2377 13.9558 41.4536C14.1718 41.6696 14.4668 41.8026 14.7908 41.8026H21.729C22.2545 41.8026 22.679 42.2273 22.679 42.7527C22.679 43.2817 22.2544 43.7064 21.729 43.7064C17.1839 43.7064 12.6386 43.7064 8.09352 43.7064H5.9343C5.61044 43.7064 5.3154 43.8396 5.09933 44.0555C4.88706 44.2715 4.75033 44.5665 4.75033 44.8904C4.75033 45.2142 4.88706 45.5094 5.09933 45.7253C5.31527 45.9413 5.62834 46.078 5.9343 46.0745H16.536C17.065 46.0745 17.4897 46.4991 17.4897 47.0245C17.4897 47.5498 17.065 47.9781 16.536 47.9781C12.0556 47.9781 7.57161 47.9781 3.08763 47.9781C2.76377 47.9781 2.4686 48.1113 2.25266 48.3272C2.03671 48.5396 1.90354 48.8382 1.90354 49.1622C1.90354 49.4862 2.03671 49.7811 2.25266 49.9971C2.4686 50.2093 2.76364 50.3462 3.08763 50.3462H16.536C17.065 50.3462 17.4897 50.7708 17.4897 51.2962C17.4897 51.8216 17.065 52.2498 16.536 52.2498H4.54518C4.22132 52.2498 3.92628 52.383 3.71033 52.5953C3.49438 52.8112 3.36121 53.1063 3.36121 53.4337C3.36121 53.7575 3.49438 54.0527 3.71033 54.2687C3.92628 54.4809 4.22132 54.6141 4.54518 54.6141H9.54383H16.5362C17.0652 54.6141 17.4898 55.0423 17.4898 55.5678C17.4898 56.0932 17.0652 56.5214 16.5362 56.5214H9.54383C9.21997 56.5214 8.92493 56.6546 8.70898 56.867C8.49304 57.083 8.35986 57.378 8.35986 57.702C8.35986 58.026 8.49304 58.3246 8.70898 58.5368C8.92493 58.7528 9.21997 58.8859 9.54383 58.8859H14.8124C15.3378 58.8859 15.7661 59.3141 15.7661 59.8396C15.7661 60.3651 15.3378 60.7896 14.8124 60.7896H9.54383C8.69464 60.7896 7.92073 60.4442 7.36303 59.8863C6.8052 59.3249 6.4562 58.5548 6.4562 57.702C6.4562 57.2844 6.54253 56.885 6.69373 56.5216H4.54518C3.69599 56.5216 2.92221 56.1726 2.36438 55.6147C1.80299 55.0533 1.45742 54.2832 1.45742 53.4339C1.45742 52.9049 1.5906 52.412 1.82457 51.9765C1.479 51.8218 1.16962 51.6058 0.906826 51.343C0.349121 50.7814 0 50.0114 0 49.1621C0 48.3092 0.349121 47.5391 0.906953 46.9813C1.46479 46.4199 2.23488 46.0745 3.0842 46.0745C2.93313 45.7073 2.84667 45.3079 2.84667 44.8904C2.84667 44.0411 3.19579 43.2674 3.7535 42.7096C4.31488 42.1482 5.08498 41.8027 5.9343 41.8027H7.13984V30.7656C7.13984 30.3517 7.04628 29.9774 6.86639 29.6212C6.6757 29.236 6.38054 28.8618 6.00996 28.4875C5.4666 27.9369 5.00589 27.2892 4.68559 26.5731C4.38331 25.893 4.21053 25.1588 4.21053 24.3921V19.1273C4.21053 18.5983 4.63887 18.1736 5.1642 18.1736C5.68966 18.1736 6.11432 18.5983 6.11432 19.1273V24.3921C6.11432 24.8889 6.22578 25.3638 6.42015 25.7993C6.63965 26.2887 6.96719 26.7457 7.36303 27.1452C7.87046 27.6599 8.28077 28.1925 8.57226 28.7754C8.87821 29.3908 9.04731 30.0457 9.04731 30.7656V31.892H20.9159V30.9312C20.9159 30.341 21.0058 29.6824 21.3117 29.031C21.6213 28.3689 22.143 27.7427 22.9924 27.2462C23.7768 26.7856 24.4282 26.1197 24.8781 25.3208C25.3171 24.5436 25.5654 23.6365 25.5654 22.6722V21.866V14.7911C25.5654 14.4672 25.4323 14.172 25.2163 13.9561C25.0039 13.7438 24.7089 13.6106 24.3813 13.6106C24.0575 13.6106 23.7623 13.7438 23.5465 13.9561C23.3342 14.172 23.2011 14.4671 23.2011 14.7911V21.7293C23.2011 22.2548 22.7727 22.6793 22.2474 22.6793C21.7219 22.6793 21.2937 22.2546 21.2937 21.7293C21.2937 17.1841 21.2937 12.6389 21.2937 8.09377V5.9343C21.2937 5.61044 21.1605 5.3154 20.9483 5.09933C20.7323 4.88706 20.4373 4.75021 20.1134 4.75021C19.7859 4.75021 19.4909 4.88693 19.2785 5.09933C19.0625 5.31527 18.9293 5.61031 18.9293 5.9343V16.5362C18.9293 17.0652 18.5011 17.4898 17.9757 17.4898C17.4502 17.4898 17.0257 17.0652 17.0257 16.5362C17.0257 12.0557 17.0257 7.57174 17.0257 3.08775C17.0257 2.7639 16.889 2.46873 16.6767 2.25278C16.4607 2.03684 16.1657 1.90366 15.8417 1.90366C15.5179 1.90366 15.2191 2.03684 15.0069 2.25278C14.7909 2.46873 14.6579 2.7639 14.6579 3.08775V16.5362C14.6579 17.0652 14.2295 17.4898 13.7041 17.4898C13.1788 17.4898 12.7541 17.0652 12.7541 16.5362V4.54518C12.7541 4.22132 12.6209 3.92628 12.4051 3.71033C12.1891 3.49438 11.8941 3.36121 11.5703 3.36121C11.2464 3.36121 10.9512 3.49426 10.7353 3.71033C10.5193 3.92628 10.3862 4.22132 10.3862 4.54518V9.54383V16.5362C10.3862 17.0652 9.9615 17.4898 9.43249 17.4898C8.90703 17.4898 8.4825 17.0652 8.4825 16.5362V9.54383C8.4825 9.21997 8.34933 8.9248 8.13338 8.70898C7.91743 8.49304 7.62239 8.35999 7.29841 8.35999C6.97455 8.35999 6.67951 8.49316 6.46356 8.70898C6.24762 8.92493 6.11444 9.21997 6.11444 9.54383V14.8124C6.11444 15.3378 5.68979 15.7661 5.16433 15.7661C4.63899 15.7661 4.21065 15.3378 4.21065 14.8124V9.54383C4.21065 8.69464 4.55965 7.92073 5.11761 7.36303C5.67544 6.8052 6.44909 6.4562 7.29841 6.4562C7.71583 6.4562 8.11891 6.54253 8.4825 6.69373V4.54518C8.4825 3.69586 8.82794 2.92221 9.38933 2.36438C9.94716 1.80299 10.7208 1.45755 11.5701 1.45755C12.0955 1.45755 12.5921 1.59072 13.024 1.8247C13.1788 1.47926 13.3947 1.16975 13.661 0.90708C14.2185 0.349121 14.9923 0 15.8416 0C16.6909 0 17.4646 0.349121 18.0224 0.906953C18.5802 1.46466 18.9257 2.23488 18.9292 3.0842C19.2928 2.933 19.6922 2.84667 20.1133 2.84667C20.9625 2.84667 21.7327 3.19579 22.2941 3.7535C22.8519 4.31488 23.2011 5.08498 23.2011 5.9343V7.13984H34.2347C34.6486 7.13984 35.0264 7.04628 35.3792 6.86639C35.7642 6.6757 36.1385 6.38054 36.5164 6.00996C37.067 5.4666 37.7112 5.00589 38.4309 4.68559C39.1111 4.38331 39.8416 4.21053 40.6081 4.21053H45.8767C46.4021 4.21053 46.8268 4.63874 46.8268 5.1642C46.8268 5.68966 46.4021 6.11419 45.8767 6.11419H40.6081C40.1115 6.11419 39.6401 6.22578 39.2047 6.42015C38.7116 6.63965 38.2547 6.96719 37.8551 7.36303C37.3442 7.87046 36.8115 8.28077 36.2286 8.57226C35.6131 8.87821 34.9582 9.04731 34.2348 9.04731H33.1084V20.9159H34.0691C34.6593 20.9159 35.3178 21.0058 35.9729 21.3117C36.6314 21.6213 37.2577 22.143 37.7542 22.9924C38.2148 23.7768 38.8842 24.4283 39.6796 24.8781C40.4568 25.3171 41.3674 25.5654 42.3282 25.5654H43.1344H50.2095C50.5333 25.5654 50.8285 25.4323 51.0443 25.2164C51.2602 25.0042 51.3934 24.709 51.3934 24.3815C51.3934 24.0576 51.2602 23.7626 51.0443 23.5466C50.8284 23.3344 50.5333 23.2012 50.2095 23.2012H43.2745C42.7455 23.2012 42.3208 22.7729 42.3208 22.2475C42.3208 21.7222 42.7455 21.2938 43.2745 21.2938H56.91H59.0657C59.3896 21.2938 59.6846 21.1607 59.9007 20.9484C60.1166 20.7325 60.2498 20.4374 60.2498 20.1136C60.2498 19.786 60.1166 19.491 59.9007 19.2786C59.6847 19.0626 59.3717 18.9222 59.0657 18.9295H48.464C47.9385 18.9295 47.5103 18.5013 47.5103 17.9758C47.5103 17.4503 47.9386 17.0258 48.464 17.0258H61.9124C62.2362 17.0258 62.535 16.8891 62.7473 16.6767C62.9633 16.4607 63.0963 16.1657 63.0963 15.8417C63.0963 15.5179 62.9632 15.2191 62.7473 15.0069C62.535 14.7909 62.2364 14.6578 61.9124 14.6578C57.4319 14.6578 52.948 14.6578 48.464 14.6578C47.9385 14.6578 47.5103 14.2295 47.5103 13.7041C47.5103 13.1786 47.9386 12.754 48.464 12.754H60.4585C60.7824 12.754 61.0774 12.6208 61.2934 12.4048C61.5057 12.1889 61.6389 11.8939 61.6389 11.57C61.6389 11.2461 61.5057 10.951 61.2934 10.735C61.0774 10.5191 60.7824 10.386 60.4585 10.386H55.4563H48.464C47.9385 10.386 47.5103 9.96138 47.5103 9.43236C47.5103 8.9069 47.9386 8.48237 48.464 8.48237H55.4563C55.7802 8.48237 56.0789 8.3492 56.2911 8.13325C56.5071 7.9173 56.6403 7.62227 56.6403 7.29828C56.6403 6.97442 56.5071 6.67938 56.2911 6.46344C56.0789 6.24749 55.7802 6.11432 55.4563 6.11432H50.1877C49.6623 6.11432 49.2378 5.68966 49.2378 5.16433C49.2378 4.63887 49.6624 4.21065 50.1877 4.21065H55.4563C56.3092 4.21065 57.0793 4.55978 57.6371 5.11761C58.1985 5.67544 58.5441 6.44909 58.5441 7.29841C58.5441 7.71583 58.4613 8.11891 58.3101 8.4825H60.4585C61.3077 8.4825 62.0779 8.82794 62.6393 9.38933C63.1971 9.94716 63.5463 10.7208 63.5463 11.5701C63.5463 12.0955 63.4131 12.5921 63.1791 13.024C63.521 13.1788 63.8305 13.3947 64.0967 13.661C64.6544 14.2189 65 14.9925 65 15.8418C65 16.6912 64.6544 17.4648 64.0967 18.0226C63.5353 18.5805 62.7652 18.9259 61.9159 18.9295C62.0707 19.2931 62.1535 19.6925 62.1535 20.1136C62.1535 20.9628 61.808 21.733 61.2466 22.2944C60.6888 22.8522 59.9151 23.2013 59.0658 23.2013H57.8603V32.1585V34.2349C57.8603 34.6488 57.9575 35.0267 58.1339 35.3794C58.3281 35.7645 58.6196 36.1387 58.9903 36.5167C59.5373 37.0673 59.9944 37.7114 60.3147 38.4311C60.6169 39.1113 60.7897 39.8418 60.7897 40.6084V45.8768C60.7897 46.4023 60.3651 46.8269 59.8397 46.8269C59.3143 46.8269 58.8861 46.4023 58.8861 45.8768V40.6084C58.8861 40.1116 58.7746 39.6402 58.5802 39.2048C58.3643 38.7117 58.0332 38.2548 57.6374 37.8553C57.1335 37.3443 56.7232 36.8116 56.4318 36.2286C56.1223 35.6133 55.9567 34.9583 55.9567 34.2349V33.1085H44.0882V34.0693C44.0882 34.6595 43.9983 35.3181 43.6888 35.9731C43.3792 36.6316 42.8575 37.2578 42.0118 37.7543C41.2237 38.2149 40.5759 38.8843 40.1261 39.6797C39.6834 40.4569 39.4351 41.3675 39.4351 42.3283V43.1345V50.2095C39.4351 50.5333 39.5682 50.8285 39.7841 51.0444C40 51.2604 40.295 51.3935 40.619 51.3935C40.943 51.3935 41.2381 51.2604 41.454 51.0444C41.67 50.8285 41.803 50.5334 41.803 50.2095V43.2745C41.803 42.7455 42.2277 42.3208 42.753 42.3208C43.282 42.3208 43.7067 42.7455 43.7067 43.2745V56.91V59.0657C43.7067 59.3896 43.8398 59.6847 44.0557 59.9007C44.2716 60.1166 44.5666 60.2498 44.8905 60.2498C45.2144 60.2498 45.5095 60.1166 45.7255 59.9007C45.9414 59.6847 46.0781 59.3717 46.0745 59.0657V48.464C46.0745 47.9385 46.4991 47.5103 47.0246 47.5103C47.55 47.5103 47.9783 47.9386 47.9783 48.464V61.9124C47.9783 62.2362 48.1114 62.535 48.3274 62.7472C48.5396 62.9632 48.8384 63.0963 49.1622 63.0963C49.4861 63.0963 49.7811 62.9632 49.9971 62.7472C50.2095 62.535 50.3462 62.2362 50.3462 61.9124C50.3462 57.4319 50.3462 52.948 50.3462 48.464C50.3462 47.9385 50.7708 47.5103 51.2962 47.5103C51.8216 47.5103 52.2498 47.9386 52.2498 48.464V60.4584C52.2498 60.7822 52.383 61.0773 52.5953 61.2932C52.8112 61.5056 53.1063 61.6388 53.4338 61.6388C53.7577 61.6388 54.0527 61.5056 54.2687 61.2932C54.4809 61.0773 54.6141 60.7822 54.6141 60.4584V55.4562V48.4638C54.6141 47.9384 55.0424 47.5102 55.5678 47.5102C56.0932 47.5102 56.5214 47.9385 56.5214 48.4638V55.4562C56.5214 55.78 56.6545 56.0788 56.8669 56.2911C57.0828 56.507 57.378 56.6401 57.7018 56.6401C58.0257 56.6401 58.3244 56.507 58.5367 56.2911C58.7526 56.0788 58.8858 55.78 58.8858 55.4562V50.1876C58.8858 49.6622 59.3142 49.2376 59.8395 49.2376C60.3648 49.2376 60.7895 49.6623 60.7895 50.1876V55.4562C60.7895 56.309 60.444 57.0793 59.8862 57.637C59.3248 58.1984 58.5547 58.5438 57.7017 58.5438C57.2843 58.5438 56.8848 58.461 56.5213 58.31V60.4584C56.5213 61.3077 56.1722 62.0778 55.6145 62.6392C55.0531 63.1971 54.283 63.5461 53.4337 63.5461C52.9047 63.5461 52.4116 63.413 51.9763 63.1791C51.8215 63.521 51.6056 63.8304 51.3428 64.0967C50.7814 64.6544 50.0113 65 49.162 65C48.3091 65 47.539 64.6544 46.9812 64.0967C46.4198 63.5353 46.0742 62.7651 46.0742 61.9159C45.7071 62.0707 45.3077 62.1535 44.8902 62.1535C44.0409 62.1535 43.2673 61.8079 42.7094 61.2466C42.1481 60.6888 41.8025 59.9151 41.8025 59.0658V57.8603H32.8453H30.7653C30.3514 57.8603 29.9772 57.9575 29.6208 58.1337C29.2358 58.3281 28.8615 58.6196 28.4873 58.9903C27.9367 59.5373 27.289 59.9944 26.5728 60.3147C25.8927 60.6169 25.1586 60.7897 24.392 60.7897H19.127C18.598 60.7897 18.1733 60.3651 18.1733 59.8397C18.1733 59.3143 18.598 58.8861 19.127 58.8861H24.392C24.8887 58.8861 25.3637 58.7745 25.799 58.5801C26.2884 58.3642 26.7455 58.0331 27.145 57.6372C27.6597 57.1334 28.1922 56.7232 28.7752 56.4317C29.3905 56.1222 30.0456 55.9566 30.7653 55.9566H31.8918V55.9564ZM31.2044 20.9158V9.04719H23.2009V11.9404C23.5644 11.7894 23.9638 11.7029 24.3812 11.7029C25.2342 11.7029 26.0043 12.0519 26.5657 12.6097C27.1235 13.1711 27.469 13.9414 27.469 14.7907V20.9157H31.2044V20.9158ZM44.0878 31.2044H55.9564V23.2009H53.0594C53.2142 23.5644 53.297 23.9638 53.297 24.3812C53.297 25.2342 52.9514 26.0043 52.3901 26.5657C51.8323 27.1235 51.0585 27.469 50.2093 27.469H44.0879V31.2044H44.0878ZM37.531 42.1841C37.5562 40.9462 37.8945 39.7729 38.4739 38.7509C39.0892 37.6605 39.9745 36.75 41.0505 36.1203C41.5292 35.8396 41.8099 35.5085 41.9718 35.1667C42.1337 34.8211 42.1841 34.4325 42.1841 34.069V27.469C40.9462 27.4438 39.7729 27.1055 38.7509 26.5298C37.6605 25.9144 36.75 25.0255 36.1203 23.9531C35.8396 23.4745 35.5085 23.1901 35.1667 23.0318C34.8211 22.8663 34.4325 22.8196 34.069 22.8196H32.1581H27.469C27.4438 24.0539 27.1055 25.2271 26.5298 26.2528C25.9144 27.3396 25.0255 28.2537 23.9531 28.8834C23.4745 29.1641 23.1903 29.4951 23.0318 29.8333C22.8663 30.1825 22.8196 30.5675 22.8196 30.931V32.8454V37.531C24.0539 37.5562 25.2271 37.8945 26.2528 38.4739C27.3396 39.0892 28.2537 39.9745 28.8834 41.0505C29.1641 41.5292 29.4951 41.8099 29.8335 41.9718C30.1826 42.1337 30.5676 42.1841 30.9311 42.1841H32.8456H37.531Z" fill="#98999A"/>
</svg>
