<svg width="35" height="35" viewBox="0 0 35 35" fill="none" xmlns="http://www.w3.org/2000/svg">
<path d="M17.5 0.000366211C7.83512 0.000366211 0 7.83549 0 17.5004C0 27.1652 7.83512 35.0004 17.5 35.0004C27.1649 35.0004 35 27.1652 35 17.5004C34.9892 7.84005 27.1603 0.0111898 17.5 0.000366211ZM32.635 23.6311L27.6582 24.4898C28.2279 22.4006 28.5355 20.2487 28.5739 18.0837H33.8188C33.753 19.9881 33.3523 21.866 32.635 23.6311V23.6311ZM1.18119 18.0837H6.42607C6.46452 20.2487 6.77214 22.4006 7.3418 24.4898L2.36495 23.6311C1.64775 21.866 1.24699 19.9881 1.18119 18.0837ZM2.36495 11.3697L7.3418 10.5109C6.77214 12.6001 6.46452 14.752 6.42607 16.917H1.18119C1.24699 15.0127 1.64775 13.1348 2.36495 11.3697ZM18.0833 9.36645C20.1794 9.39323 22.2703 9.58407 24.3368 9.93754L26.3958 10.2927C27.0284 12.4455 27.3688 14.6734 27.4078 16.917H18.0833V9.36645ZM24.5356 8.78768C22.4036 8.42338 20.2461 8.22656 18.0833 8.19979V1.19979C21.4275 1.52108 24.3325 4.58301 25.9788 9.03918L24.5356 8.78768ZM16.9167 8.19979C14.7539 8.22656 12.5969 8.42338 10.465 8.78768L9.02116 9.03748C10.6675 4.58016 13.5725 1.51709 16.9167 1.19722V8.19979ZM10.6638 9.93754C12.7299 9.58407 14.8206 9.39323 16.9167 9.36645V16.917H7.59216C7.63118 14.6734 7.97156 12.4455 8.60417 10.2927L10.6638 9.93754ZM7.59216 18.0837H16.9167V25.6343C14.8206 25.6075 12.7297 25.4167 10.6632 25.0632L8.60417 24.708C7.97156 22.5553 7.63118 20.3273 7.59216 18.0837V18.0837ZM10.4644 26.2131C12.5964 26.5779 14.7537 26.7756 16.9167 26.8041V33.8041C13.5725 33.4825 10.6675 30.4206 9.02116 25.9644L10.4644 26.2131ZM18.0833 26.8041C20.2461 26.7756 22.4031 26.5779 24.535 26.2131L25.9788 25.9633C24.3325 30.4206 21.4275 33.4836 18.0833 33.8035V26.8041ZM24.3362 25.0632C22.2701 25.4167 20.1794 25.6075 18.0833 25.6343V18.0837H27.4078C27.3688 20.3273 27.0284 22.5553 26.3958 24.708L24.3362 25.0632ZM28.5739 16.917C28.5355 14.752 28.2279 12.6001 27.6582 10.5109L32.635 11.3697C33.3523 13.1348 33.753 15.0127 33.8188 16.917H28.5739ZM32.0449 10.0839L27.2743 9.26078C26.4166 6.46289 24.8122 3.95182 22.6332 1.99817C26.7077 3.35795 30.0867 6.26066 32.0449 10.0839ZM12.3668 1.99817C10.1878 3.95182 8.58337 6.46289 7.72575 9.26078L2.95512 10.0839C4.91333 6.26066 8.29228 3.35795 12.3668 1.99817ZM2.95512 24.9168L7.72575 25.7399C8.58337 28.5378 10.1878 31.0489 12.3668 33.0026C8.29228 31.6428 4.91333 28.7401 2.95512 24.9168ZM22.6332 33.0026C24.8122 31.0489 26.4166 28.5378 27.2743 25.7399L32.0449 24.9168C30.0867 28.7401 26.7077 31.6428 22.6332 33.0026Z" fill="#98999A"/>
</svg>
