<svg width="458" height="280" viewBox="0 0 458 280" fill="none" xmlns="http://www.w3.org/2000/svg">
<path d="M106.484 86.1594C152.625 66.3119 211.022 69.6595 224.315 137.791C243.251 186.153 239.818 203.751 193.678 223.598C147.537 243.446 94.7819 220.33 75.8462 171.967C56.9106 123.604 60.3431 106.007 106.484 86.1594Z" fill="#D3D3D3" fill-opacity="0.23"/>
<path d="M102.696 168.509H112.691V153.182H121.093C131.965 153.182 138.289 146.696 138.289 137.255C138.289 127.86 132.08 121.236 121.347 121.236H102.696V168.509ZM112.691 145.172V129.407H119.431C125.201 129.407 127.994 132.546 127.994 137.255C127.994 141.941 125.201 145.172 119.477 145.172H112.691ZM144.781 168.509H154.776V151.751H162.07L171.026 168.509H182.059L172.018 150.135C177.396 147.827 180.374 143.141 180.374 136.678C180.374 127.283 174.165 121.236 163.432 121.236H144.781V168.509ZM154.776 143.718V129.407H161.516C167.286 129.407 170.079 131.969 170.079 136.678C170.079 141.364 167.286 143.718 161.562 143.718H154.776ZM187.437 168.509H219.383V160.268H197.432V148.981H217.652V140.74H197.432V129.476H219.291V121.236H187.437V168.509ZM268.947 137.786C267.631 126.868 259.368 120.59 248.427 120.59C235.939 120.59 226.406 129.407 226.406 144.872C226.406 160.291 235.778 169.155 248.427 169.155C260.545 169.155 267.862 161.099 268.947 152.397L258.837 152.351C257.89 157.406 253.92 160.314 248.588 160.314C241.41 160.314 236.539 154.982 236.539 144.872C236.539 135.039 241.34 129.43 248.658 129.43C254.128 129.43 258.075 132.592 258.837 137.786H268.947ZM243.787 106.509H235.408V106.832L244.757 116.989H252.074L261.445 106.832V106.509H253.066L248.427 112.141L243.787 106.509ZM319.555 144.872C319.555 129.407 309.953 120.59 297.419 120.59C284.816 120.59 275.283 129.407 275.283 144.872C275.283 160.268 284.816 169.155 297.419 169.155C309.953 169.155 319.555 160.337 319.555 144.872ZM309.422 144.872C309.422 154.89 304.667 160.314 297.419 160.314C290.148 160.314 285.416 154.89 285.416 144.872C285.416 134.854 290.148 129.43 297.419 129.43C304.667 129.43 309.422 134.854 309.422 144.872ZM335.222 154.336H343.97V153.551C344.017 149.05 345.632 146.95 349.279 144.757C353.596 142.195 356.412 138.802 356.412 133.377C356.412 125.298 349.903 120.59 340.739 120.59C332.36 120.59 325.528 124.975 325.32 134.208H334.738C334.876 130.446 337.669 128.438 340.693 128.438C343.809 128.438 346.325 130.515 346.325 133.723C346.325 136.747 344.132 138.755 341.293 140.556C337.415 143.003 335.245 145.472 335.222 153.551V154.336ZM339.769 169.109C342.724 169.109 345.286 166.639 345.309 163.569C345.286 160.545 342.724 158.075 339.769 158.075C336.723 158.075 334.207 160.545 334.23 163.569C334.207 166.639 336.723 169.109 339.769 169.109Z" fill="#4E4C82"/>
<path d="M60.5201 114.509C60.5201 114.509 69.483 128.724 66.282 132.573C63.0811 136.422 90.2971 136.518 90.2971 136.518C90.2971 136.518 86.209 115.839 87.4122 111.08L60.5201 114.509Z" fill="#FCD2B1"/>
<path d="M74.844 119.661C90.3658 119.661 102.949 107.078 102.949 91.5561C102.949 76.0343 90.3658 63.4514 74.844 63.4514C59.3222 63.4514 46.7393 76.0343 46.7393 91.5561C46.7393 107.078 59.3222 119.661 74.844 119.661Z" fill="#34334B"/>
<path d="M140.946 243.891V260.553L157.607 257.081L156.219 245.28L140.946 243.891Z" fill="#FCD2B1"/>
<path d="M199.954 246.668L246.466 254.305L234.664 271.66C234.664 271.66 202.037 260.552 193.706 260.552C185.376 260.552 199.954 246.668 199.954 246.668Z" fill="#FCD2B1"/>
<path d="M94.4342 213.346C94.4342 213.346 129.145 173.082 140.252 175.165C151.359 177.247 156.219 189.743 156.219 189.743L162.467 251.528C162.467 251.528 140.252 253.61 140.252 251.528C140.252 249.445 136.087 205.016 136.087 205.016C136.087 205.016 103.459 277.214 86.1036 229.313L94.4342 213.346Z" fill="#34334B"/>
<path d="M38.2031 240.42C38.2031 240.42 38.8973 276.79 59.7236 278.873C80.5499 280.955 103.459 263.329 103.459 263.329L140.946 245.37C140.946 245.37 185.375 268.883 198.565 262.635C198.565 262.635 212.45 248.057 203.425 243.892C194.4 239.726 202.731 243.892 202.731 243.892L149.277 216.123C149.277 216.123 138.863 213.346 120.814 220.983C102.765 228.619 78.4672 232.09 78.4672 232.09L38.2031 240.42Z" fill="#34334B"/>
<path d="M72.9136 121.711C84.4157 121.711 93.7399 112.386 93.7399 100.884C93.7399 89.3824 84.4157 80.0581 72.9136 80.0581C61.4116 80.0581 52.0873 89.3824 52.0873 100.884C52.0873 112.386 61.4116 121.711 72.9136 121.711Z" fill="#FCD2B1"/>
<path d="M102.765 159.198L101.376 188.355C101.376 188.355 102.07 226.536 95.8225 229.313C92.6639 230.715 86.3188 233.534 80.4527 236.616C76.0515 238.921 71.9209 241.364 69.6161 243.468C69.0051 243.988 68.4782 244.599 68.0542 245.28C65.2773 250.139 47.2279 249.445 43.0626 245.974C38.8974 242.503 41.6742 250.139 38.2031 251.528C34.8431 252.874 30.185 241.864 33.0382 225.425C33.1285 224.877 33.2326 224.322 33.3437 223.759C36.5301 207.827 31.5249 169.667 32.2954 154.922C32.3403 153.795 32.4586 152.673 32.6495 151.562C34.7321 140.454 61.3064 117.851 66.277 127.479C72.3998 139.364 86.4646 128.507 88.8804 123.099C102.765 122.405 107.624 139.066 107.624 139.066L102.765 159.198Z" fill="#FF8C4A"/>
<path d="M158.996 254.304C158.996 254.304 147.888 258.47 144.417 257.775C140.946 257.081 137.475 259.858 137.475 264.023C137.475 268.189 133.31 277.907 139.558 278.602C145.806 279.296 171.491 277.908 177.045 279.99C177.045 279.99 202.037 280.684 199.954 270.271C197.871 259.858 187.458 260.552 187.458 260.552C187.458 260.552 158.996 259.164 158.996 254.304Z" fill="#34334B"/>
<path d="M240.218 256.387C240.218 256.387 241.606 252.222 243.689 252.222C245.772 252.222 262.433 254.999 264.515 254.304C266.598 253.61 290.895 252.222 286.73 264.023C282.565 275.825 268.681 277.213 268.681 277.213C268.681 277.213 243.689 274.436 240.218 275.131C236.747 275.825 224.251 275.131 226.334 271.66C228.416 268.188 241.606 261.941 240.218 256.387Z" fill="#34334B"/>
<path d="M177.027 156.673L180.836 172.383C180.878 172.559 180.871 172.742 180.817 172.914L163.54 226.902C163.472 227.116 163.332 227.3 163.144 227.423C162.957 227.547 162.733 227.602 162.509 227.58C162.286 227.558 162.077 227.46 161.917 227.302C161.757 227.145 161.656 226.937 161.631 226.714L159.241 205.682C159.225 205.543 159.239 205.401 159.283 205.267L175.14 156.6C175.207 156.397 175.337 156.221 175.512 156.099C175.688 155.977 175.898 155.916 176.111 155.924C176.325 155.932 176.53 156.01 176.695 156.145C176.86 156.28 176.977 156.466 177.027 156.673Z" fill="#CAD1DD"/>
<path d="M175.626 158L179.143 171.479L163.905 220.708L160.388 205.471L175.626 158Z" fill="#D3D3D3"/>
<path d="M98.8529 231.257C99.439 233.015 159.803 230.671 160.389 230.085C160.9 229.351 161.332 228.565 161.678 227.74C162.229 226.568 162.733 225.396 162.733 225.396L160.389 206.42L100.611 204.298C100.611 204.298 99.1166 220.379 98.8118 227.74C98.708 228.911 98.7218 230.089 98.8529 231.257Z" fill="#3F3D56"/>
<path opacity="0.1" d="M152.77 208.987L153.942 225.397H127.57V208.987H152.77Z" fill="black"/>
<path opacity="0.1" d="M118.779 214.262L118.937 214.23L118.192 221.294H103.541V214.262H118.779Z" fill="black"/>
<path opacity="0.1" d="M98.8529 231.257C99.4389 233.015 159.803 230.671 160.389 230.085C160.9 229.351 161.332 228.565 161.678 227.74H98.8118C98.708 228.911 98.7217 230.089 98.8529 231.257Z" fill="#D3D3D3"/>
<path d="M79.5004 68.6647C83.8262 68.6647 87.3329 65.158 87.3329 60.8322C87.3329 56.5065 83.8262 52.9998 79.5004 52.9998C75.1747 52.9998 71.668 56.5065 71.668 60.8322C71.668 65.158 75.1747 68.6647 79.5004 68.6647Z" fill="#34334B"/>
<path d="M77.1451 69.3579C77.1451 69.3579 69.1427 82.6685 50.5345 87.6514C31.9264 92.6342 50.3826 120.597 50.3826 120.597C50.3826 120.597 43.6712 110.429 53.3514 99.6602C63.0316 88.8917 78.6095 81.5295 77.1451 69.3579Z" fill="#34334B"/>
<path opacity="0.1" d="M80.4528 236.616C78.7381 239.858 76.7249 243.225 76.3847 244.585C76.1556 245.509 73.6149 244.974 69.6162 243.468C61.5981 240.434 47.7 233.485 34.7321 226.536C34.1344 226.219 33.5674 225.847 33.0383 225.425C33.1285 224.877 33.2327 224.321 33.3437 223.759C36.5302 207.827 31.5249 169.666 32.2955 154.921L38.2032 152.95L50.0048 164.057V211.263C50.0048 211.263 80.55 227.924 82.6326 229.313C83.6947 230.021 82.2299 233.249 80.4528 236.616Z" fill="#4E4C82"/>
<path d="M106.236 198.768L124.979 208.487C124.979 208.487 136.087 196.685 143.029 205.71C149.971 214.735 122.897 217.511 122.897 217.511C122.897 217.511 99.2936 211.958 98.5994 204.321C97.9052 196.685 106.236 198.768 106.236 198.768Z" fill="#FCD2B1"/>
<path d="M74.9962 224.453L86.1036 227.23C86.1036 227.23 98.5994 211.958 111.789 217.511C124.979 223.065 95.1283 234.172 95.1283 234.172C95.1283 234.172 79.1615 242.503 72.9136 235.561C66.6657 228.619 74.9962 224.453 74.9962 224.453Z" fill="#FCD2B1"/>
<path d="M99.2936 132.818C99.9878 133.512 107.624 139.066 107.624 139.066C107.624 139.066 109.707 165.446 106.93 170.999C104.153 176.553 102.07 176.553 104.153 179.33C106.236 182.107 109.013 180.024 106.236 184.884C103.459 189.743 100.682 189.049 102.765 191.131C104.847 193.214 104.153 193.908 104.153 193.908L112.484 200.85C112.484 200.85 107.373 208.991 100.903 208.392C94.4342 207.792 88.8805 176.553 88.8805 176.553L99.2936 132.818Z" fill="#FF8C4A"/>
<path d="M38.2032 149.479L31.9553 151.561C31.9553 151.561 15.2943 212.652 34.7321 223.065C54.17 233.478 75.6905 243.891 76.3847 241.114C77.0789 238.338 84.7152 227.23 82.6325 225.842C80.5499 224.453 50.0047 207.792 50.0047 207.792V160.586L38.2032 149.479Z" fill="#FF8C4A"/>
<path opacity="0.1" d="M47.5747 174.817L46.1869 208.139L82.9798 225.495L48.9634 208.139L47.5747 174.817Z" fill="#4E4C82"/>
<path d="M88.2824 57.9728L58.8114 60.0688C58.1777 60.1139 57.5603 59.8577 57.1448 59.3771C56.7298 58.8964 56.5648 58.2487 56.7009 57.6283L62.7844 29.8697C62.8156 29.7271 62.8623 29.5887 62.9236 29.456L68.4988 17.3876L65.9253 4.62974C65.7431 3.72504 66.1988 2.81216 67.0311 2.41408C67.8639 2.01597 68.8599 2.23478 69.4494 2.94499L81.9766 18.035C82.3752 18.5147 82.529 19.1516 82.3926 19.7605L80.2843 29.2002L90.0257 55.2582C90.2482 55.8531 90.1771 56.5181 89.8338 57.0521C89.4905 57.5867 88.9156 57.9277 88.2824 57.9728Z" fill="#34334B"/>
<path d="M80.2843 29.1999L82.3932 19.7602C82.529 19.1519 82.3753 18.5144 81.9771 18.0346L69.568 3.08765L73.5461 59.0206L88.2824 57.9725C88.9156 57.9274 89.4905 57.5864 89.8338 57.0518C90.1771 56.5173 90.2482 55.8528 90.0257 55.2579L80.2843 29.1999Z" fill="#34334B"/>
<path d="M92.4499 69.1181L56.2634 71.6918C55.6302 71.7369 55.0122 71.4807 54.5967 71.0001C54.1818 70.5199 54.0173 69.8717 54.1529 69.2513L56.7009 57.6282L90.0258 55.258L94.1932 66.4035C94.4157 66.9984 94.3446 67.6634 94.0013 68.1975C93.658 68.7321 93.0831 69.0731 92.4499 69.1181Z" fill="#FF8C4A"/>
<path d="M90.0258 55.258L73.3633 56.4431L74.3564 70.405L92.4499 69.1182C93.0831 69.0731 93.6585 68.7321 94.0018 68.1975C94.3446 67.6635 94.4157 66.9985 94.1937 66.4035L90.0258 55.258Z" fill="#FF8C4A"/>
<path d="M101.846 68.45L46.8672 72.3602C45.7576 72.4391 44.7942 71.6036 44.7153 70.4941C44.6364 69.3846 45.4719 68.4211 46.5814 68.3422L101.56 64.432C102.67 64.3531 103.633 65.1886 103.712 66.2981C103.791 67.4076 102.955 68.371 101.846 68.45Z" fill="#34334B"/>
<path d="M101.56 64.432L74.07 66.3872L74.3558 70.4052L101.845 68.4501C102.955 68.3711 103.79 67.4077 103.712 66.2982C103.633 65.1887 102.67 64.3531 101.56 64.432Z" fill="#34334B"/>
</svg>
