<svg width="307" height="410" viewBox="0 0 307 410" fill="none" xmlns="http://www.w3.org/2000/svg">
<path d="M263.202 201.597C263.202 201.597 282.185 152.738 276.942 104.491C276.939 104.491 237.993 156.433 263.202 201.597Z" fill="#FCD2B1"/>
<path d="M33.5189 82.5463C33.5189 82.5463 19.4836 173.261 22.3974 174.963C22.3974 174.963 69.4 102.288 33.5189 82.5463Z" fill="#FCD2B1"/>
<path d="M34.4348 93.6422L35.7096 92.8733C35.5072 94.0014 32.2166 97.7828 29.2117 99.4041C27.9344 100.102 26.4648 100.55 24.8815 100.482C24.2314 100.459 23.5688 100.358 22.8884 100.143C22.337 99.5836 21.6667 98.2734 21.0344 96.7027C21.0243 96.6901 21.0243 96.6673 21.0142 96.6547C20.8649 96.2677 20.7182 95.8681 20.5665 95.4583C20.1668 94.3758 19.8127 93.2249 19.537 92.1651C19.5016 92.0513 19.4839 91.9375 19.4459 91.8363C19.0564 90.263 18.8516 88.9073 18.9856 88.1991C19.021 88.0398 19.0994 87.883 19.236 87.7337C19.4536 87.4707 19.8153 87.2304 20.2731 87.0002C20.9459 86.684 21.8336 86.4185 22.7771 86.1883H22.7897C23.4499 86.0289 24.1328 85.8898 24.8056 85.7886C24.8537 85.776 24.9093 85.7634 24.965 85.7532C25.5366 85.6597 26.0804 85.5812 26.5837 85.5104C26.8569 85.4775 27.1073 85.4548 27.3476 85.4194C28.1924 85.3258 28.7944 85.2803 28.9107 85.2803C29.4115 85.2954 34.7383 91.8515 34.4348 93.6422Z" fill="#34334B"/>
<path d="M30.3474 57.7233C30.3221 57.5968 30.3221 57.5462 30.3221 57.5462C29.5886 59.3926 21.09 68.0177 20.5589 68.5488C20.5336 68.5741 20.5336 68.5741 20.5336 68.5741L15.4218 56.6104L16.6359 69.5606V69.5859C16.6359 69.5859 16.6359 69.5859 16.6106 69.5859C15.9024 69.4088 3.7085 66.4495 2.6993 66.146C2.67147 66.146 2.67147 66.146 2.67147 66.146C1.45992 64.4007 0.599943 62.352 0.218014 60.1262C-0.186679 57.7739 -0.00964144 55.4722 0.597398 53.3223C2.16558 47.9348 6.69056 43.6096 12.5839 42.5979C18.7327 41.5356 24.6514 44.3431 27.8611 49.25C28.974 50.9194 29.7581 52.867 30.1147 54.9663C30.2715 55.9022 30.3474 56.8127 30.3474 57.7233Z" fill="#FF8C4A"/>
<path d="M53.0304 112.317L49.029 108.748L44.5217 104.749L33.7898 95.2031C33.7898 95.2031 28.4428 94.3507 27.3425 87.7239C27.2742 87.2736 27.216 86.8235 27.1756 86.3328C27.0997 86.4769 27.0061 86.6211 26.9024 86.7501C26.4623 87.3546 25.8654 87.772 25.2103 88.0224L25.1774 88.0274C25.1547 88.0299 25.1547 88.0299 25.1344 88.0325C25.1192 88.0325 25.1192 88.0325 25.0939 88.0375C25.0762 88.0401 25.0762 88.04 25.0611 88.04C25.0383 88.0426 25.0383 88.0426 25.0206 88.0654C24.4591 88.3056 23.8091 88.4195 23.1995 88.4195C21.9475 88.4625 20.6904 88.1564 19.876 87.7214C19.4232 87.4735 19.0843 87.1725 18.9704 86.8639C18.8566 86.5528 19.0741 86.1456 19.537 85.7257C20.6828 84.6507 23.3285 83.3937 26.1031 82.994C27.727 82.7209 29.4115 82.7816 30.8482 83.3279C35.702 85.192 35.3706 88.5257 35.3706 88.5257L45.7965 97.2898L46.0747 97.5225L46.2645 97.6692L46.267 97.6894L51.6368 102.194C51.6368 102.194 51.6368 102.194 51.6393 102.214C51.6595 102.364 51.8239 103.411 52.0768 105.151C52.2337 106.274 52.4436 107.678 52.651 109.35C52.78 110.268 52.9014 111.262 53.0304 112.317Z" fill="#FCD2B1"/>
<path d="M196.474 20.2742C195.95 19.2169 195.255 18.1774 194.407 17.2086C194.149 17.4337 193.879 17.6639 193.613 17.8941C193.451 18.0534 193.272 18.1925 193.107 18.3367C193.085 18.3519 193.064 18.367 193.054 18.3797C193.004 18.4328 192.953 18.4733 192.89 18.5163C192.849 18.5567 192.811 18.5972 192.763 18.6225C192.693 18.6782 192.617 18.7439 192.559 18.7971C192.384 18.9488 192.194 19.0955 192.017 19.2448C191.853 19.3813 191.686 19.5179 191.519 19.6545C191.456 19.6975 191.392 19.7506 191.332 19.8037L190.705 20.2995C190.684 20.3121 190.651 20.3374 190.634 20.3526L190.624 20.3652C190.391 20.5448 190.171 20.7092 189.951 20.8888C189.794 20.9976 189.637 21.1215 189.488 21.2328C189.311 21.3694 189.134 21.4959 188.967 21.6324C188.797 21.7589 188.628 21.8828 188.451 22.0068C188.097 22.2723 187.738 22.5354 187.391 22.7858L186.916 23.1222C186.736 23.2512 186.564 23.365 186.397 23.4738C186.134 23.6711 185.858 23.8532 185.593 24.0277C185.332 24.2199 185.067 24.3919 184.793 24.5639C184.548 24.7334 184.295 24.9029 184.047 25.0597C183.994 25.09 183.941 25.1204 183.89 25.1634C183.39 25.4795 182.881 25.7957 182.378 26.1018C181.847 26.4356 181.313 26.7644 180.779 27.0755C180.542 27.2096 180.299 27.3538 180.071 27.4879C179.998 27.5207 179.93 27.5612 179.869 27.5941C179.753 27.6674 179.634 27.7408 179.515 27.799C179.462 27.8293 179.409 27.8597 179.363 27.89C179.161 27.9962 178.956 28.1126 178.751 28.2315C178.546 28.3377 178.344 28.454 178.139 28.5628C177.734 28.7854 177.324 29.0105 176.915 29.2229C176.604 29.3899 176.29 29.5442 175.979 29.7111C175.827 29.787 175.675 29.8528 175.534 29.9286C175.276 30.0652 175.002 30.1892 174.744 30.3156C174.527 30.4244 174.322 30.5281 174.107 30.6369C173.887 30.733 173.675 30.8417 173.454 30.9505H173.432C173.164 31.0795 172.88 31.2161 172.6 31.3476C172.329 31.4741 172.046 31.6005 171.762 31.727C171.198 31.9825 170.644 32.2253 170.075 32.4681L169.911 32.5364C169.731 32.6173 169.542 32.6982 169.357 32.7817C169.172 32.8601 168.988 32.9309 168.801 33.0119C168.105 33.3078 167.402 33.5911 166.704 33.8643C166.484 33.9503 166.251 34.0388 166.038 34.1324C166.038 34.1324 166.038 34.1324 166.023 34.1324C165.51 34.3246 164.996 34.527 164.48 34.7192C164.217 34.8229 163.947 34.9266 163.681 35.0151C163.471 35.0885 163.251 35.172 163.044 35.2453C163.044 35.2453 163.044 35.2453 163.031 35.2453C158.607 36.854 154.247 38.1894 150.023 39.4718C149.879 39.5249 149.737 39.5679 149.603 39.6059C149.59 39.6084 149.59 39.6084 149.59 39.6084C145.523 40.8503 141.585 42.0366 137.801 43.3822C137.002 43.668 136.197 43.9639 135.411 44.2725C134.935 44.447 134.477 44.6342 134.03 44.8036C133.739 44.9326 133.433 45.0667 133.117 45.1957C133.069 45.2134 133.028 45.2311 132.998 45.2564C132.899 45.2918 132.801 45.3399 132.704 45.3879C132.315 45.5624 131.92 45.7522 131.543 45.9242C131.336 46.0304 131.144 46.1265 130.949 46.2176C130.906 46.2353 130.876 46.2504 130.84 46.2656L130.83 46.2681C130.673 46.344 130.517 46.4325 130.375 46.4983C130.059 46.6298 129.745 46.774 129.452 46.9156C129.399 46.9334 129.333 46.9637 129.28 46.994C129.108 47.0724 128.933 47.1635 128.759 47.2444C128.632 47.3178 128.491 47.381 128.362 47.4544C128.255 47.5126 128.136 47.5834 128.018 47.6466C127.919 47.6922 127.825 47.7503 127.729 47.8085C127.57 47.9097 127.411 47.9982 127.259 48.0968C127.12 48.1702 126.993 48.2562 126.864 48.3422C126.738 48.4256 126.614 48.5116 126.495 48.5976C126.432 48.6406 126.366 48.6836 126.318 48.7241C126.199 48.7975 126.095 48.8784 125.989 48.9593C125.852 49.0605 125.718 49.1566 125.589 49.2527C125.455 49.3615 125.342 49.4576 125.207 49.5664C125.162 49.5942 125.124 49.622 125.094 49.6625C125.071 49.6751 125.051 49.7004 125.033 49.7156C124.937 49.7839 124.853 49.8522 124.772 49.9331C124.737 49.9483 124.709 49.9761 124.689 50.0014C124.542 50.1127 124.408 50.2341 124.287 50.353C124.254 50.3783 124.234 50.396 124.203 50.4188C124.069 50.5528 123.925 50.6742 123.794 50.8032C123.338 51.218 122.901 51.6505 122.461 52.0755C122.306 52.2323 122.155 52.379 122.003 52.5358C121.765 52.7609 121.542 52.9962 121.307 53.2213C121.166 53.3553 121.037 53.4944 120.89 53.631C120.746 53.7651 120.604 53.8966 120.457 54.0408C120.222 54.2558 119.974 54.4708 119.726 54.6984C119.466 54.9159 119.208 55.1435 118.937 55.3611C118.679 55.5786 118.419 55.7835 118.135 55.9934C117.999 56.1022 117.852 56.2109 117.705 56.3121C117.25 56.6333 116.767 56.9722 116.246 57.3011C116.223 57.3162 116.213 57.3289 116.193 57.3415C113.297 59.7672 110.555 62.2156 109.849 63.7433C110.016 63.976 110.209 64.2163 110.424 64.4515C111.402 65.5669 112.869 66.7836 115.065 67.7118C119 69.3837 125.225 70.1653 135.049 68.033C136.592 67.6992 138.244 67.2944 139.984 66.8088C140.679 66.6065 141.403 66.3991 142.134 66.179C142.341 66.1082 142.549 66.0323 142.774 65.9716C143.004 65.8957 143.229 65.8325 143.459 65.7566C143.808 65.6428 144.152 65.5315 144.504 65.4051C144.782 65.3241 145.07 65.2305 145.341 65.1268C145.538 65.0585 145.738 64.9978 145.945 64.9245C146.231 64.8182 146.53 64.7221 146.828 64.6184C147.147 64.5097 147.463 64.3883 147.784 64.277C147.883 64.2416 147.971 64.2087 148.07 64.1733C152.459 62.5672 157.338 60.5234 162.745 57.9638C169.521 55.1511 175.286 52.1412 180.051 49.0554C180.623 48.6836 181.187 48.3144 181.738 47.9451C181.822 47.8894 181.905 47.8313 181.991 47.7756C181.991 47.7655 182.014 47.7604 182.011 47.7503C182.287 47.5657 182.542 47.3861 182.803 47.204C182.823 47.1888 182.838 47.1888 182.856 47.1711C183.109 46.9915 183.349 46.8119 183.59 46.6324C183.729 46.5337 183.853 46.4503 183.982 46.3541C184.108 46.2555 184.245 46.1568 184.366 46.0632C184.619 45.871 184.869 45.6788 185.11 45.4866C185.403 45.2665 185.676 45.049 185.954 44.8289C186.511 44.3787 187.05 43.931 187.566 43.4732C194.784 37.203 198.151 30.8342 197.814 25.2039C197.698 23.4839 197.258 21.8272 196.474 20.2742Z" fill="#4E4C82" fill-opacity="0.5"/>
<path d="M130.109 383.236C130.109 383.236 127.258 388.563 125.394 390.675C123.53 392.792 106.814 399.472 106.776 405.747C106.735 412.558 128.389 407.763 133.116 407.518C137.838 407.267 138.198 403.632 140.191 399.778C142.171 395.926 144.182 396.573 144.556 393.467C144.926 390.359 142.626 383.233 142.626 383.233H130.109V383.236Z" fill="#34334B"/>
<path d="M202.045 382.614C202.045 382.614 207.868 389.117 213.776 390.48C219.693 391.841 228.53 393.897 228.581 397.628C228.624 401.364 206.861 403.499 200.093 399.737C189.998 394.122 188.974 395.815 187.851 393.015C186.733 390.207 189.194 382.705 189.126 381.812C189.034 380.709 202.045 382.614 202.045 382.614Z" fill="#34334B"/>
<path d="M201.39 379.505C201.39 379.505 202.162 382.553 202.046 382.614C201.927 382.682 188.724 384.253 189.126 381.815C189.447 379.832 189.912 377.674 189.912 377.674L201.39 379.505Z" fill="#34334B"/>
<path d="M142.46 381.184C142.46 381.184 143.017 384.085 142.905 384.159C142.799 384.227 129.518 386.602 129.591 384.187C129.644 382.272 130.813 380.039 130.813 380.039L142.46 381.184Z" fill="#34334B"/>
<path d="M160.744 85.9283C156.687 86.4772 149.939 85.9182 145.323 82.6123C145.323 82.6123 145.31 81.9851 145.219 80.7305C145.014 77.9052 144.402 71.8855 142.634 62.6104C141.959 59.0314 163.433 72.0473 163.433 72.0473C163.433 72.0473 163.367 73.3019 163.334 74.9991C163.312 75.8894 163.284 76.9011 163.296 77.928C163.296 78.2822 163.312 78.6362 163.312 79.0005C163.334 79.9464 163.375 80.8469 163.446 81.6208C163.481 81.8738 163.547 82.2026 163.638 82.5466C163.81 83.2295 164.06 83.9453 164.166 84.1982C164.483 84.9368 163.046 85.6096 160.744 85.9283Z" fill="#FCD2B1"/>
<path d="M288.656 105.961C288.656 105.961 302.805 107.61 303.599 108.515C304.393 109.421 304.203 110.192 302.876 110.091C301.54 109.99 289.129 108.895 289.129 108.895C289.129 108.895 305.347 113.68 306.169 114.272C306.652 114.616 306.379 116.116 305.65 116.129C304.932 116.141 288.524 112.335 288.524 112.335C288.524 112.335 303.65 116.834 304.181 117.542C304.644 118.165 304.042 119.5 302.891 119.245C301.74 118.989 287.404 115.623 287.404 115.623C287.404 115.623 298.163 119.606 298.237 120.494C298.282 121.033 298.1 122.338 295.361 121.223C292.627 120.107 285.843 118.17 285.843 118.17L288.656 105.961Z" fill="#FCD2B1"/>
<path d="M271.931 106.628C271.931 106.628 276.638 106.873 278.08 104.491C279.304 102.465 282.299 100.626 283.217 100.062C284.444 99.3032 287.446 95.628 288.316 97.1026C289.186 98.5798 283.642 103.38 282.668 104.602C281.69 105.824 288.481 105.381 289.718 106.269C290.96 107.162 290.282 118.395 285.625 118.164C280.966 117.934 276.358 114.606 275.518 114.73C274.683 114.853 272.116 114.697 272.116 114.697L271.931 106.628Z" fill="#FCD2B1"/>
<path d="M174.744 39.1123C174.744 39.1123 179.464 47.8612 177.124 49.2245C175.192 50.3476 179.391 58.9296 179.939 60.3359C180.491 61.7422 176.436 62.759 175.574 63.6619C174.719 64.5599 172.164 75.6738 168.831 76.0076C165.499 76.344 150.468 71.1184 146.378 66.859C142.285 62.6022 138.926 43.3843 141.66 35.2803C144.392 27.1738 166.42 23.83 174.744 39.1123Z" fill="#FCD2B1"/>
<path d="M176.52 42.9318C176.52 42.9318 181.604 28.4236 173.267 25.6059C162.649 22.0168 146.873 29.8425 145.052 30.313C143.236 30.7809 132.921 31.4891 138.129 49.6042C142.601 65.157 143.229 65.8147 143.229 65.8147C143.229 65.8147 146.567 56.8052 148.457 55.4318C151.413 53.2869 157.891 53.8029 157.891 53.8029C157.891 53.8029 154.8 45.6079 159.629 44.4469C164.447 43.2885 165.036 50.234 176.52 42.9318Z" fill="#34334B"/>
<path d="M152.752 49.1111C152.327 47.9856 150.953 43.1545 146.803 45.9925C142.657 48.8278 149.385 57.9385 150.111 58.0523C150.834 58.1687 156.331 58.5683 152.752 49.1111Z" fill="#FCD2B1"/>
<path d="M163.299 77.9253C163.299 78.2844 163.304 78.6385 163.312 78.9952C151.024 74.8698 148.647 68.6628 148.647 68.6628C152.474 71.3718 163.329 74.9912 163.329 74.9912C163.304 75.8917 163.286 76.9059 163.299 77.9253Z" fill="#FCD2B1"/>
<path d="M29.1434 162.812C30.145 166.174 29.839 171.293 29.3508 176.774C23.4828 177.401 22.3977 174.963 22.3977 174.963C23.7888 173.107 25.7238 166.609 27.775 158.072C28.2202 159.678 28.6907 161.264 29.1434 162.812Z" fill="#34334B"/>
<path d="M268.898 122.252C259.739 150.416 264.57 186.087 263.088 192.011C261.262 199.308 263.202 201.597 263.202 201.597C254.701 203.514 248.954 200.595 243.314 195.739C242.816 195.319 242.333 194.887 241.857 194.426C234.436 187.385 229.253 177.207 225.318 171.235C223.132 167.919 219.085 163.953 214.548 160.055C213.501 159.155 212.418 158.254 211.323 157.366C201.878 149.685 191.655 142.937 191.655 142.937L193.248 161.616C193.248 161.616 201.299 215.238 206.403 281.873C207.757 313.909 209.504 342.789 210.286 359.986C210.301 360.044 210.301 360.103 210.301 360.158C210.402 365.574 210.458 370.971 210.471 376.341C210.433 376.417 210.392 376.493 210.321 376.568C210.321 378.658 210.309 380.674 210.283 380.674C203.894 378.883 194.581 380.021 194.308 380.036C194.283 380.044 194.26 380.069 194.24 380.089C192.13 381.468 166.66 382.517 159.196 382.657C152.599 382.77 139.96 381.081 135.913 380.57C135.332 380.491 134.919 380.443 134.737 380.421C133.829 380.33 128.563 380.557 123.694 380.661H123.376C123.365 380.661 123.365 380.661 123.353 380.661C120.538 380.706 117.894 380.706 116.344 380.57C112.105 380.183 110.496 369.79 110.496 369.79C109.768 371.95 106.351 378.415 105.427 380.15C105.276 380.421 105.2 380.57 105.2 380.57C99.5644 380.378 95.4846 379.93 94.4627 379.075C93.5168 378.266 94.4147 369.011 96.2965 355.575V355.562C96.342 347.185 101.378 285.745 105.814 233.014C108.493 201.116 110.956 172.396 111.958 160.518L107.795 140.357C107.795 140.357 104.97 142.18 101.026 144.722C99.787 145.519 98.4287 146.384 97.03 147.3C94.2098 149.123 91.1695 151.094 88.3316 152.94C86.771 153.952 84.3985 155.232 81.4695 156.666C69.139 162.719 47.1769 171.596 36.9634 174.938C34.5125 167.471 36.8648 155.072 34.0243 151.574C32.785 150.047 31.9174 146.604 31.2876 142.147C32.828 134.661 34.2874 126.865 35.4939 119.844C36.7358 112.628 37.7172 106.236 38.218 101.848C38.3672 100.489 38.481 99.3284 38.5493 98.3824C38.6859 96.3868 38.6631 94.6188 38.5265 93.081C38.051 87.5999 36.1464 84.8176 34.8312 83.5327C34.08 82.7916 33.521 82.5412 33.521 82.5412C33.521 82.5412 34.2621 81.9696 35.6052 81.8457C37.793 81.6408 41.625 82.5514 46.6052 88.7862C50.3765 93.5059 56.7605 99.8419 62.7095 105.381C68.5775 110.852 74.0283 115.524 76.1023 117.074C76.4185 117.325 76.6714 117.486 76.8055 117.565C90.3222 109.256 104.433 98.7846 115.76 91.8289C119.68 89.4261 123.259 87.4431 126.38 86.1076C129.868 84.6279 143.544 80.5684 143.544 80.5684L145.219 80.7277C145.31 81.9823 145.323 82.6095 145.323 82.6095C149.936 85.9129 156.684 86.4718 160.744 85.9255C163.046 85.6068 164.482 84.934 164.166 84.1954C164.06 83.9425 163.809 83.2267 163.637 82.5438L165.211 82.6905L165.474 82.7133C175.035 84.5723 184.373 90.3038 194.194 96.2983C213.329 107.969 226.026 124.129 229.772 124.381C233.695 122.009 237.297 119.902 240.6 118.043C242.641 116.892 244.579 115.845 246.412 114.876C272.889 100.823 277.688 104.448 277.688 104.448C273.858 109.681 271.01 115.767 268.898 122.252Z" fill="#34334B"/>
<path d="M194.317 380.083C194.292 380.083 194.26 380.083 194.238 380.093C194.26 380.071 194.282 380.046 194.305 380.041C194.307 380.046 194.317 380.071 194.317 380.083Z" fill="url(#paint0_linear)"/>
<path d="M21.7908 103.089C21.7908 103.089 28.7338 189.029 35.8867 203.835C35.4239 203.835 38.8486 207.632 38.8486 207.632L52.9977 280.34C52.9977 280.34 58.3194 283.588 60.9726 277.505C60.5907 277.884 47.9643 206.86 46.4416 203.443C44.9165 200.024 41.6663 198.696 40.2397 190.627C38.8183 182.561 28.4025 105.346 28.1166 102.356C27.8258 99.3586 21.7908 103.089 21.7908 103.089Z" fill="#34334B"/>
<path d="M194.408 17.2061C193.563 18.1495 192.728 19.0701 191.866 19.9504C191.646 20.1603 191.423 20.3854 191.208 20.608C190.945 20.8711 190.667 21.1341 190.394 21.3997L190.351 21.4503C190.095 21.688 189.84 21.9283 189.595 22.1686C187.951 23.7089 186.279 25.1254 184.609 26.4305C184.346 26.6253 184.083 26.8175 183.833 27.0097C183.39 27.3411 182.948 27.6648 182.51 27.9835C182.141 28.2466 181.764 28.5147 181.389 28.7701C181 29.0256 180.608 29.2962 180.206 29.5618C179.791 29.8325 179.376 30.093 178.961 30.351C178.772 30.4673 178.557 30.609 178.367 30.7253C178.152 30.8442 177.962 30.9706 177.747 31.0921C177.343 31.3374 176.935 31.5752 176.538 31.8104C176.131 32.033 175.724 32.2581 175.314 32.4807C175.253 32.5237 175.195 32.5414 175.147 32.5844C172.137 34.2082 169.112 35.569 166.107 36.7553C165.703 36.9096 165.285 37.079 164.858 37.2358C154.128 41.2878 143.601 43.1747 134.435 46.7891C133.613 47.1103 132.831 47.4644 132.075 47.8438C131.769 47.988 131.481 48.1398 131.19 48.3016C130.611 48.547 130.069 48.7999 129.561 49.0604C124.553 51.6834 113.968 60.1389 109.837 63.7306C110.54 62.2029 113.285 59.7545 116.181 57.3288C116.204 57.3162 116.214 57.3036 116.234 57.2884C118.31 55.5533 120.46 53.8459 121.993 52.5256C122.335 52.2297 122.641 51.9464 122.909 51.696C123.657 51.003 124.356 50.3403 125.023 49.7029C125.044 49.6902 125.064 49.665 125.084 49.6498C129.837 45.1172 132.442 42.2894 132.707 41.1993C133.193 39.2315 128.504 31.5322 128.284 31.1806C128.246 31.2312 127.975 31.7143 127.527 32.4402C126.005 34.9417 122.593 40.4531 120.741 42.4336C118.546 44.7581 118.839 43.9411 117.746 45.0464C117.625 45.1628 117.473 45.2285 117.301 45.2386C109.787 37.2889 121.669 10.5058 129.113 3.65134C129.414 3.38323 129.695 3.15307 129.983 2.9659C145.139 -6.23328 155.57 8.05491 163.173 17.4387C165.181 19.9175 166.975 22.0446 168.621 23.3295C176.521 29.496 194.408 17.2061 194.408 17.2061Z" fill="#34334B"/>
<path d="M27.1856 95.7898C27.5903 97.1304 27.8938 99.4321 28.1214 102.341C26.8314 103.049 25.3644 103.504 23.7962 103.428C22.8604 104.238 22.7061 105.047 21.5957 104.82C21.3403 103.201 19.9517 101.354 19.6987 99.7609V99.685C19.5975 99.255 19.5444 98.825 19.4711 98.4203C19.2687 97.2821 19.0917 96.1945 18.8894 95.0816C18.8894 94.9805 18.8641 94.8793 18.8388 94.7781C18.6111 93.387 18.3582 92.0211 18.1305 90.6806C18.1053 90.4024 18.0294 90.1241 18.0041 89.8712C17.8776 89.2895 17.8017 88.7077 17.7006 88.1513C17.5994 87.5695 17.4982 87.0131 17.397 86.4313C16.9417 83.9273 16.5118 81.6256 16.1577 79.5515C16.0312 78.8686 15.9047 78.211 15.8036 77.6039C15.7024 77.1487 15.6265 76.7187 15.5481 76.314C15.3735 75.3276 15.2193 74.4423 15.07 73.6582C11.2507 72.8741 5.53193 70.9012 2.62573 66.1207C2.62573 66.1207 2.65104 66.1208 2.67633 66.1461C2.67633 66.1461 2.67633 66.1461 2.70416 66.1461C3.71336 66.4496 15.9073 69.4089 16.6155 69.586C16.6408 69.586 16.6408 69.586 16.6408 69.586V69.5606L15.4267 56.6105L20.5385 68.5742C20.5385 68.5742 20.5384 68.5742 20.5637 68.5489C21.0949 68.0178 29.5935 59.3927 30.327 57.5463C30.327 57.5463 30.327 57.5969 30.3523 57.7234V57.7993C30.4535 59.2663 30.5546 66.9554 22.8148 72.1406C22.8907 72.6211 22.9691 73.127 23.045 73.6582C23.1437 74.4423 23.2727 75.3022 23.4219 76.2128C23.5231 76.9969 23.6495 77.8063 23.776 78.641C24.0315 80.1333 24.2819 81.6762 24.5373 83.2191C24.813 84.762 25.0685 86.3049 25.3442 87.7719C25.3973 87.9995 25.4454 88.2271 25.4985 88.4548C26.0473 91.3129 26.6316 93.9181 27.1856 95.7898Z" fill="#34334B"/>
<path d="M15.4766 94.8641C15.9496 97.1 18.6889 96.3816 21.3472 95.3269C23.4971 94.4745 25.728 93.6575 25.6167 91.9755C25.3637 88.2144 14.6672 91.0296 15.4766 94.8641Z" fill="#FCD2B1"/>
<path d="M16.7217 97.4062C17.9383 101.59 26.3585 96.7131 25.7186 94.6467C25.0837 92.5777 15.6164 93.6274 16.7217 97.4062Z" fill="#FCD2B1"/>
<path d="M18.0926 100.871C19.1422 104.478 26.3913 100.274 25.8399 98.4937C25.2961 96.7106 17.1441 97.6161 18.0926 100.871Z" fill="#FCD2B1"/>
<path d="M14.5238 91.2851C15.743 95.4687 24.1606 90.5921 23.5207 88.5231C22.8884 86.4541 13.421 87.5088 14.5238 91.2851Z" fill="#FCD2B1"/>
<defs>
<linearGradient id="paint0_linear" x1="194.279" y1="380.04" x2="194.279" y2="380.093" gradientUnits="userSpaceOnUse">
<stop stop-color="#4E4C82" stop-opacity="0.5"/>
<stop offset="1" stop-color="#450074"/>
</linearGradient>
</defs>
</svg>
