<svg width="68" height="66" viewBox="0 0 68 66" fill="none" xmlns="http://www.w3.org/2000/svg">
<path d="M15.2586 57.2316C14.5813 57.2316 14.0317 57.7808 14.0317 58.4584C14.0317 59.1358 14.581 59.6851 15.2586 59.6851C15.9362 59.6851 16.4855 59.1358 16.4855 58.4584C16.4855 57.7808 15.936 57.2316 15.2586 57.2316Z" fill="#98999A"/>
<path d="M7.72235 42.7024C7.2993 42.2794 6.61356 42.2794 6.19051 42.7024L4.96635 43.9266L3.74218 42.7024C3.31914 42.2794 2.63339 42.2794 2.21035 42.7024C1.78731 43.1255 1.78731 43.8112 2.21035 44.2342L3.43451 45.4584L2.21035 46.6826C1.78731 47.1056 1.78731 47.7914 2.21035 48.2144C2.42187 48.4259 2.6992 48.5318 2.97626 48.5318C3.25333 48.5318 3.53066 48.4259 3.74218 48.2144L4.96635 46.9903L6.19051 48.2144C6.40203 48.4259 6.67937 48.5318 6.95643 48.5318C7.23349 48.5318 7.51083 48.4259 7.72235 48.2144C8.14539 47.7914 8.14539 47.1056 7.72235 46.6826L6.49818 45.4584L7.72235 44.2342C8.14539 43.8112 8.14539 43.1257 7.72235 42.7024Z" fill="#98999A"/>
<path d="M23.3833 5.91671C23.3833 5.3179 22.8988 4.83337 22.3 4.83337H1.71663C1.11782 4.83337 0.633301 5.3179 0.633301 5.91671V23.25C0.633301 23.8489 1.11782 24.3334 1.71663 24.3334H4.79114L9.68943 28.4159C9.88822 28.5811 10.1347 28.6667 10.3833 28.6667C10.5388 28.6667 10.6964 28.6329 10.8424 28.5641C11.2234 28.3864 11.4666 28.0034 11.4666 27.5834V24.3334H22.3C22.8988 24.3334 23.3833 23.8489 23.3833 23.25V5.91671ZM21.2166 22.1667H10.3833C9.78449 22.1667 9.29997 22.6512 9.29997 23.25V25.2707L5.87745 22.4175C5.68272 22.2556 5.43734 22.1667 5.18357 22.1667H2.79997V7.00004H21.2166V22.1667Z" fill="#98999A"/>
<path d="M4.96664 12.4167H13.6333C14.2321 12.4167 14.7166 11.9321 14.7166 11.3333C14.7166 10.7345 14.2321 10.25 13.6333 10.25H4.96664C4.36782 10.25 3.8833 10.7345 3.8833 11.3333C3.8833 11.9321 4.36782 12.4167 4.96664 12.4167Z" fill="#98999A"/>
<path d="M4.96664 15.6667H19.05C19.6488 15.6667 20.1333 15.1821 20.1333 14.5833C20.1333 13.9845 19.6488 13.5 19.05 13.5H4.96664C4.36782 13.5 3.8833 13.9845 3.8833 14.5833C3.8833 15.1821 4.36782 15.6667 4.96664 15.6667Z" fill="#98999A"/>
<path d="M4.96663 18.9167H10.3833C10.9821 18.9167 11.4666 18.4321 11.4666 17.8333C11.4666 17.2345 10.9821 16.75 10.3833 16.75H4.96663C4.36782 16.75 3.8833 17.2345 3.8833 17.8333C3.8833 18.4321 4.36782 18.9167 4.96663 18.9167Z" fill="#98999A"/>
<path d="M19.0498 16.75H13.6331C13.0343 16.75 12.5498 17.2345 12.5498 17.8333C12.5498 18.4321 13.0343 18.9167 13.6331 18.9167H19.0498C19.6486 18.9167 20.1331 18.4321 20.1331 17.8333C20.1331 17.2345 19.6486 16.75 19.0498 16.75Z" fill="#98999A"/>
<path d="M66.7165 0.5H46.1331C45.5343 0.5 45.0498 0.984521 45.0498 1.58333V18.9167C45.0498 19.5155 45.5343 20 46.1331 20H49.2076L54.1059 24.0826C54.3047 24.2475 54.5515 24.3333 54.7998 24.3333C54.9553 24.3333 55.1129 24.2995 55.2589 24.2307C55.6397 24.053 55.8832 23.6701 55.8832 23.25V20H66.7165C67.3153 20 67.7998 19.5155 67.7998 18.9167V1.58333C67.7998 0.984521 67.3153 0.5 66.7165 0.5ZM65.6332 17.8333H54.7998C54.201 17.8333 53.7165 18.3179 53.7165 18.9167V20.9374L50.294 18.0841C50.0992 17.9222 49.8539 17.8333 49.6001 17.8333H47.2165V2.66667H65.6332V17.8333Z" fill="#98999A"/>
<path d="M49.3831 8.08329H58.0498C58.6486 8.08329 59.1332 7.59877 59.1332 6.99996C59.1332 6.40115 58.6486 5.91663 58.0498 5.91663H49.3831C48.7843 5.91663 48.2998 6.40115 48.2998 6.99996C48.2998 7.59877 48.7843 8.08329 49.3831 8.08329Z" fill="#98999A"/>
<path d="M49.3831 11.3334H63.4665C64.0653 11.3334 64.5498 10.8489 64.5498 10.2501C64.5498 9.65127 64.0653 9.16675 63.4665 9.16675H49.3831C48.7843 9.16675 48.2998 9.65127 48.2998 10.2501C48.2998 10.8489 48.7843 11.3334 49.3831 11.3334Z" fill="#98999A"/>
<path d="M49.3831 14.5833H54.7998C55.3986 14.5833 55.8831 14.0988 55.8831 13.5C55.8831 12.9011 55.3986 12.4166 54.7998 12.4166H49.3831C48.7843 12.4166 48.2998 12.9011 48.2998 13.5C48.2998 14.0988 48.7843 14.5833 49.3831 14.5833Z" fill="#98999A"/>
<path d="M63.4663 12.4166H58.0496C57.4508 12.4166 56.9663 12.9011 56.9663 13.5C56.9663 14.0988 57.4508 14.5833 58.0496 14.5833H63.4663C64.0651 14.5833 64.5496 14.0988 64.5496 13.5C64.5496 12.9011 64.0651 12.4166 63.4663 12.4166Z" fill="#98999A"/>
<path d="M60.2171 37.3333C60.2171 34.9435 58.2736 33 55.8838 33C54.5288 33 53.3325 33.6375 52.5374 34.6139L45.9672 30.8742C46.065 30.5134 46.1338 30.1413 46.1338 29.75C46.1338 27.3601 44.1903 25.4166 41.8005 25.4166C39.4106 25.4166 37.4671 27.3601 37.4671 29.75C37.4671 30.1413 37.5359 30.5134 37.6337 30.8742L31.0635 34.6139C30.2684 33.6375 29.0721 33 27.7171 33C25.3273 33 23.3838 34.9435 23.3838 37.3333C23.3838 39.3469 24.7699 41.0286 26.6338 41.5128V48.3205C24.7699 48.8047 23.3838 50.4863 23.3838 52.5C23.3838 54.8898 25.3273 56.8333 27.7171 56.8333C28.7189 56.8333 29.6308 56.478 30.3656 55.9049L37.6337 60.0421C37.5362 60.4029 37.4671 60.7753 37.4671 61.1666C37.4671 63.5565 39.4106 65.5 41.8005 65.5C44.1903 65.5 46.1338 63.5565 46.1338 61.1666C46.1338 60.7753 46.0647 60.4029 45.9672 60.0421L53.2353 55.9049C53.9701 56.4777 54.8817 56.8333 55.8838 56.8333C58.2736 56.8333 60.2171 54.8898 60.2171 52.5C60.2171 50.4863 58.831 48.8047 56.9671 48.3205V41.5128C58.831 41.0286 60.2171 39.3469 60.2171 37.3333ZM55.8838 35.1666C57.0782 35.1666 58.0505 36.1389 58.0505 37.3333C58.0505 38.5277 57.0782 39.5 55.8838 39.5C54.6894 39.5 53.7171 38.5277 53.7171 37.3333C53.7171 36.1389 54.6894 35.1666 55.8838 35.1666ZM41.8005 27.5833C42.9948 27.5833 43.9671 28.5556 43.9671 29.75C43.9671 30.9443 42.9948 31.9166 41.8005 31.9166C40.6061 31.9166 39.6338 30.9443 39.6338 29.75C39.6338 28.5556 40.6061 27.5833 41.8005 27.5833ZM25.5505 37.3333C25.5505 36.1389 26.5227 35.1666 27.7171 35.1666C28.9115 35.1666 29.8838 36.1389 29.8838 37.3333C29.8838 38.5277 28.9115 39.5 27.7171 39.5C26.5227 39.5 25.5505 38.5277 25.5505 37.3333ZM27.7171 54.6666C26.5227 54.6666 25.5505 53.6944 25.5505 52.5C25.5505 51.3056 26.5227 50.3333 27.7171 50.3333C28.9115 50.3333 29.8838 51.3056 29.8838 52.5C29.8838 53.6944 28.9115 54.6666 27.7171 54.6666ZM41.8005 63.3333C40.6061 63.3333 39.6338 62.361 39.6338 61.1666C39.6338 59.9723 40.6061 59 41.8005 59C42.9948 59 43.9671 59.9723 43.9671 61.1666C43.9671 62.361 42.9948 63.3333 41.8005 63.3333ZM41.8005 56.8333C40.5822 56.8333 39.4846 57.3419 38.6967 58.1534L31.7119 54.1775C31.9294 53.6613 32.0505 53.0945 32.0505 52.5C32.0505 50.4863 30.6643 48.8047 28.8005 48.3205V41.5128C30.6643 41.0286 32.0505 39.3469 32.0505 37.3333C32.0505 37.0784 32.0177 36.8317 31.9752 36.5888L38.6964 32.763C39.4843 33.5747 40.5822 34.0833 41.8005 34.0833C43.0187 34.0833 44.1166 33.5747 44.9045 32.763L51.6257 36.5888C51.5832 36.8317 51.5505 37.0784 51.5505 37.3333C51.5505 39.3469 52.9366 41.0286 54.8005 41.5128V48.3205C52.9366 48.8047 51.5505 50.4863 51.5505 52.5C51.5505 53.0947 51.6715 53.6613 51.889 54.1775L44.9042 58.1534C44.1164 57.3419 43.0187 56.8333 41.8005 56.8333ZM58.0505 52.5C58.0505 53.6944 57.0782 54.6666 55.8838 54.6666C54.6894 54.6666 53.7171 53.6944 53.7171 52.5C53.7171 51.3056 54.6894 50.3333 55.8838 50.3333C57.0782 50.3333 58.0505 51.3056 58.0505 52.5Z" fill="#98999A"/>
<path d="M21.217 36.25H11.467V30.8333C11.467 30.2345 10.9824 29.75 10.3836 29.75C9.78481 29.75 9.30029 30.2345 9.30029 30.8333V37.3333C9.30029 37.9321 9.78481 38.4167 10.3836 38.4167H21.217C21.8158 38.4167 22.3003 37.9321 22.3003 37.3333C22.3003 36.7345 21.8158 36.25 21.217 36.25Z" fill="#98999A"/>
<path d="M65.633 23.25H58.0496C57.4508 23.25 56.9663 23.7345 56.9663 24.3333C56.9663 24.9321 57.4508 25.4167 58.0496 25.4167H64.5496V51.4167H62.383C61.7842 51.4167 61.2996 51.9012 61.2996 52.5C61.2996 53.0988 61.7842 53.5833 62.383 53.5833H65.633C66.2318 53.5833 66.7163 53.0988 66.7163 52.5V24.3333C66.7163 23.7345 66.2318 23.25 65.633 23.25Z" fill="#98999A"/>
</svg>
