<svg width="62" height="65" viewBox="0 0 62 65" fill="none" xmlns="http://www.w3.org/2000/svg">
<path d="M50.182 31.4595V25.7013H7.0708V52.3296L27.2608 52.3298V50.4261H25.4576C25.4576 49.633 25.4576 44.8806 25.4576 44.088H28.2863V42.1842H25.4576V35.8472L33.6991 35.8466L33.6994 27.6051H40.0365V31.6601H41.9402V27.6051H48.2784V31.4595H50.182ZM17.2161 35.8464H23.5536V42.1842H17.2161V35.8464ZM25.4576 27.6051H31.7953V33.9428H25.4576V27.6051ZM17.2161 27.6051H23.5538V33.9428H17.2161V27.6051ZM8.97456 27.6051H15.3124V33.9428H8.97456V27.6051ZM8.97456 35.8464H15.3124V42.1842H8.97456V35.8464ZM15.3123 50.4258H8.97456V44.088H15.3124V50.4258H15.3123ZM17.2161 50.4258V44.088H23.5536V50.4258H17.2161Z" fill="#98999A"/>
<path d="M45.5459 33.9433C36.9836 33.9433 30.0176 40.9093 30.0176 49.4717C30.0176 53.375 31.4721 57.106 34.1132 59.9775L35.5145 58.6888C33.1974 56.1696 31.9213 52.8963 31.9213 49.4717C31.9213 41.9592 38.0333 35.8471 45.5459 35.8471C53.0586 35.8471 59.1706 41.959 59.1706 49.4717C59.1706 56.9843 53.0587 63.0962 45.5459 63.0962C42.351 63.0962 39.2459 61.9677 36.8025 59.9186L35.5791 61.3774C38.3648 63.7134 41.9044 65 45.5458 65C54.1082 65 61.0743 58.034 61.0743 49.4717C61.0743 40.9093 54.1083 33.9433 45.5459 33.9433Z" fill="#98999A"/>
<path d="M44.5342 38.9602V51.357H53.4377V49.4532H46.4379V38.9602H44.5342Z" fill="#98999A"/>
<path d="M1.90376 22.3012H7.07057V20.3974H1.90376V6.19916H6.04889V10.9319H6.04901V10.9323H13.6905V10.9319H13.6906V6.19916H18.5528V10.9319H18.5534V10.9323H26.1947V6.19916H31.0577V10.9323H38.699V10.9319H38.6997V6.19916H43.5619V10.9319H43.562V10.9323H51.2034V10.9319H51.2036V6.19916H55.3487V20.3974H8.97433V22.3012H55.3487V34.5703H57.2525V4.29539H51.2034V2.37069L49.4402 0H45.3251L43.5619 2.37069V4.29539H38.699V2.37069L36.9358 0H32.8209L31.0576 2.37069V4.29539H26.1946V2.37069L24.4315 0H20.3166L18.5533 2.37069V4.29539H13.6905V2.37069L11.9272 0H7.81228L6.04901 2.37069V4.29539H0V57.3229H28.5044V55.4191H1.90376V22.3012ZM46.2817 1.90376H48.4836L49.2997 3.00109V9.02815H45.4658V3.00109L46.2817 1.90376ZM32.9615 3.00109L33.7776 1.90376H35.9793L36.7954 3.00109V9.02815H32.9619V4.29539H32.9616V3.00109H32.9615ZM21.2731 1.90376H23.4749L24.291 3.00109V4.29539H24.2907V9.02815H20.4572V3.00109L21.2731 1.90376ZM8.76885 1.90376H10.9707L11.7868 3.00109V9.02815H7.95277V3.00109L8.76885 1.90376Z" fill="#98999A"/>
<path d="M35.2257 17.2695H33.322V15.3657H35.2257V17.2695ZM29.5145 17.2695H27.6107V15.3657H29.5145V17.2695ZM23.8032 17.2695H21.8994V15.3657H23.8032V17.2695Z" fill="#98999A"/>
<path d="M34.5405 49.4533H36.4443V51.3571H34.5405V49.4533Z" fill="#98999A"/>
<path d="M44.6074 58.6729H46.5112V60.5767H44.6074V58.6729Z" fill="#98999A"/>
</svg>
