<?xml version="1.0"?>
<svg xmlns="http://www.w3.org/2000/svg" xmlns:xlink="http://www.w3.org/1999/xlink" xmlns:svgjs="http://svgjs.com/svgjs" version="1.1" width="512" height="512" x="0" y="0" viewBox="0 0 340 340" style="enable-background:new 0 0 512 512" xml:space="preserve" class=""><g><path xmlns="http://www.w3.org/2000/svg" d="M150.529,33.988H116.713c-.029,0-.056.008-.085.009a3.95,3.95,0,0,0-.687.068c-.02,0-.039.011-.059.015a4.023,4.023,0,0,0-.614.187c-.069.026-.134.057-.2.087a3.966,3.966,0,0,0-.45.24c-.06.037-.121.071-.179.112a3.955,3.955,0,0,0-.55.449l-47.966,47.8a3.886,3.886,0,0,0-.454.551c-.04.057-.074.117-.111.176a3.875,3.875,0,0,0-.245.458c-.029.064-.059.127-.085.192a3.978,3.978,0,0,0-.2.662l0,.015a4.065,4.065,0,0,0-.069.7c0,.028-.008.054-.008.082V152.7a4,4,0,0,0,8,0V89.786h33.362a14.621,14.621,0,0,0,14.6-14.605V41.988h29.816a4,4,0,0,0,0-8ZM112.713,75.181a6.612,6.612,0,0,1-6.6,6.605H78.427l3.753-3.739,30.533-30.426Z" fill="#98999a" data-original="#000000" style=""/><path xmlns="http://www.w3.org/2000/svg" d="M106.636,297.062a4,4,0,1,0,0,8H210.378l-2.534,3.623a12.987,12.987,0,0,0,21.287,14.885l52.731-75.411v41.2a7.713,7.713,0,0,1-7.7,7.7h-13.03a4,4,0,0,0,0,8h13.03a15.722,15.722,0,0,0,15.7-15.7V236.719l29.823-42.65a31.543,31.543,0,0,0,5.2-12.425l2.759-14.926a4,4,0,0,0-5.908-4.206l-13.132,7.454a31.94,31.94,0,0,0-10.35,9.42l-8.395,12.006V102.556a4,4,0,1,0-8,0v98.017a3.951,3.951,0,0,0,.392,1.7l-66.282,94.79ZM304.814,183.97a23.892,23.892,0,0,1,7.741-7.046l5.664-3.215-1.2,6.481a23.606,23.606,0,0,1-3.891,9.3l-30.585,43.738h0l-59.971,85.763a4.987,4.987,0,1,1-8.174-5.716Z" fill="#98999a" data-original="#000000" style=""/><path xmlns="http://www.w3.org/2000/svg" d="M8.894,320.508c25.218,9.138,68.722,13.944,70.561,14.144a4.005,4.005,0,0,0,4.321-3.037l7.283-30.124a4,4,0,0,0-3.075-4.856l-4.6-.955,6.794-25.808c5.71.443,11.538.526,15.767.536a15.976,15.976,0,0,0,15.316-11.333l2.908-9.433a4,4,0,0,0-2.7-5.017c-10.576-3.1-21.629-9.382-29.038-14.11a21.7,21.7,0,0,1-8.915-11.42c-4.483-13.522-7.489-32.947-8.882-43.322a10.748,10.748,0,0,0-15.611-8.113l-3.314,1.724a11.935,11.935,0,0,0-17.946-4.6L23.8,175.151a14.55,14.55,0,0,0-5.851,12.485c.248,4.678.682,8.776.974,11.2l-4.369,3.441a14.475,14.475,0,0,0-5.5,12.607A105.573,105.573,0,0,0,22.7,258.216a9.339,9.339,0,0,1,1.081,6.52l-3.541,17.838-2.433-.5a4,4,0,0,0-4.72,3.061L6.349,315.892A4,4,0,0,0,8.894,320.508Zm8.135-106.292a6.5,6.5,0,0,1,2.474-5.655L20.22,208a91.952,91.952,0,0,0,6.593,21.669,4,4,0,0,0,7.254-3.374c-5.547-11.926-6.89-25.944-6.9-26.084,0-.024-.011-.047-.014-.071,0-.046,0-.091-.01-.137s-.834-5.822-1.2-12.786a6.569,6.569,0,0,1,2.632-5.641l3.779-2.806c.594,9.791,2.467,26.959,8.374,40.58a4,4,0,0,0,7.34-3.183c-6.671-15.383-7.771-36.643-7.952-43.16l2.422-1.8a3.911,3.911,0,0,1,6.222,2.741l.181,1.763c.091,1.077,1.729,20,6.021,36.135a4,4,0,1,0,7.731-2.056c-3.227-12.132-4.926-26.364-5.526-32.141l5.554-2.89a2.748,2.748,0,0,1,3.99,2.08c1.747,13.012,4.765,31.343,9.218,44.776a29.724,29.724,0,0,0,12.2,15.646c6.969,4.448,17.027,10.209,27.233,13.8l-1.746,5.662a8.016,8.016,0,0,1-7.681,5.69,181.666,181.666,0,0,1-18.341-.805,4.005,4.005,0,0,0-4.291,2.959l-7.764,29.49L28.071,284.2l3.555-17.906a17.328,17.328,0,0,0-2.013-12.1A97.409,97.409,0,0,1,17.029,214.216Zm3.024,76.491,62.259,12.921-5.478,22.659c-10.346-1.274-41.4-5.467-61.908-12.164Z" fill="#98999a" data-original="#000000" style=""/><path xmlns="http://www.w3.org/2000/svg" d="M323.1,13.967,291.79,17.293a4,4,0,0,0-3.559,4.356l.235,2.474-18.12,1.566a9.316,9.316,0,0,1-6.362-1.788A105.574,105.574,0,0,0,222.407,5.6a14.482,14.482,0,0,0-13.134,4.081l-3.9,3.966c-2.378-.555-6.4-1.436-11.026-2.2A14.555,14.555,0,0,0,181.3,15.9L168.07,30.14a10.755,10.755,0,0,0,3.737,17.238l-.893,1.336a11.905,11.905,0,0,0,6.979,18.167c11.931,3.006,28.651,7.734,40.545,13.187a21.707,21.707,0,0,1,10.375,10.111c3.888,7.885,8.925,19.56,10.844,30.41a4,4,0,0,0,4.692,3.232l9.693-1.857a15.978,15.978,0,0,0,12.943-13.983c.465-4.178,1.009-10,1.194-15.731l26.4-3.927L295.022,93A4,4,0,0,0,299,96.622a4.137,4.137,0,0,0,.508-.032l30.74-3.94a4,4,0,0,0,3.492-3.962c0-1.85-.009-45.618-6.331-71.686A4.008,4.008,0,0,0,323.1,13.967ZM263.655,84.835a4,4,0,0,0-3.412,3.941,182.02,182.02,0,0,1-1.209,18.319,8.017,8.017,0,0,1-6.5,7.012l-5.819,1.115c-2.448-10.536-7.073-21.166-10.731-28.581A29.723,29.723,0,0,0,221.772,72.8C209.326,67.09,192.1,62.211,179.847,59.123a3.907,3.907,0,0,1-2.283-5.963l2.561-3.83c5.673,1.229,19.622,4.473,31.342,9.014a4,4,0,0,0,2.891-7.459c-15.59-6.041-34.247-9.743-35.264-9.943l-3.727-.8a2.746,2.746,0,0,1-1.434-4.554l3.446-3.712c6.454.891,27.442,4.3,42.028,12.633a4,4,0,0,0,3.968-6.947c-12.893-7.364-29.752-11.106-39.419-12.768l3.2-3.45a6.568,6.568,0,0,1,5.894-2c6.883,1.129,12.521,2.581,12.578,2.6s.09.016.135.026c.025,0,.047.017.072.022.137.028,13.879,2.872,25.168,9.717a4,4,0,1,0,4.148-6.841,91.916,91.916,0,0,0-20.817-8.926l.64-.651a6.505,6.505,0,0,1,5.892-1.84,97.42,97.42,0,0,1,38.358,16.887,17.338,17.338,0,0,0,11.807,3.326l18.189-1.572,4.593,48.261Zm38.939,3.294-6.024-63.3L320.4,22.3c4.408,21.109,5.177,52.443,5.311,62.867Z" fill="#98999a" data-original="#000000" style=""/><path xmlns="http://www.w3.org/2000/svg" d="M174.929,96.888a64.3,64.3,0,0,0-31.294,119.943,3.553,3.553,0,0,1,1.741,3.077v27.369A26.755,26.755,0,0,0,172.1,274h7.492a26.754,26.754,0,0,0,26.724-26.724V233.706a4,4,0,0,0-4-4H188.662v-11.62a10.564,10.564,0,0,1,4.387-8.586c6.729-4.813,18.453-15.034,21.375-29.5.08-.447,1.918-11.055-2.273-20.819a22.381,22.381,0,0,0-14.414-12.692,22.132,22.132,0,0,0-18.767,2.946,4,4,0,0,0,4.529,6.595,14.167,14.167,0,0,1,12.013-1.857,14.406,14.406,0,0,1,9.287,8.163c3.223,7.507,1.766,16.164,1.767,16.164-2.362,11.689-12.4,20.359-18.17,24.488a18.578,18.578,0,0,0-7.734,15.093v11.62h-8.815v-11.62a18.576,18.576,0,0,0-7.734-15.093,54.047,54.047,0,0,1-13.5-13.543,4,4,0,1,0-6.676,4.407A62.075,62.075,0,0,0,159.46,209.5a10.564,10.564,0,0,1,4.387,8.586v11.62H153.376v-9.8a11.576,11.576,0,0,0-5.727-10,56.339,56.339,0,0,1-28.079-50.34c.829-29.737,25.712-54.268,55.47-54.684a56.3,56.3,0,0,1,57.106,56.293,56.51,56.51,0,0,1-28.152,48.76,11.519,11.519,0,0,0-5.677,9.974,4,4,0,0,0,8,0A3.5,3.5,0,0,1,208,216.865a64.537,64.537,0,0,0,32.145-55.685,64.3,64.3,0,0,0-65.217-64.292ZM153.376,237.706h44.941v9.571A18.745,18.745,0,0,1,179.593,266H172.1a18.746,18.746,0,0,1-18.725-18.724Z" fill="#98999a" data-original="#000000" style=""/><path xmlns="http://www.w3.org/2000/svg" d="M65.764,310.709a3.832,3.832,0,0,0-.75.23,4.581,4.581,0,0,0-.691.36,4.909,4.909,0,0,0-.609.5,4.008,4.008,0,0,0,0,5.66,4.909,4.909,0,0,0,.609.5,4.581,4.581,0,0,0,.691.36,3.832,3.832,0,0,0,.75.23,4.129,4.129,0,0,0,.78.08,4,4,0,1,0-.78-7.92Z" fill="#98999a" data-original="#000000" style=""/><path xmlns="http://www.w3.org/2000/svg" d="M318.954,72.129a4.579,4.579,0,0,0-.37-.69,4.919,4.919,0,0,0-.5-.61,3.68,3.68,0,0,0-.61-.49,3.519,3.519,0,0,0-.69-.37,3.832,3.832,0,0,0-.75-.23,3.926,3.926,0,0,0-4.1,1.7,3.828,3.828,0,0,0-.37.69,3.978,3.978,0,0,0-.23.75,4.129,4.129,0,0,0-.08.78,4.047,4.047,0,0,0,.08.78,3.766,3.766,0,0,0,.23.75,3.828,3.828,0,0,0,.37.69,3.914,3.914,0,0,0,3.32,1.78,3.387,3.387,0,0,0,.78-.08,3.809,3.809,0,0,0,.75-.22,4.143,4.143,0,0,0,.69-.37,4.335,4.335,0,0,0,.61-.5,3.987,3.987,0,0,0,1.17-2.83,4.114,4.114,0,0,0-.07-.78A4.99,4.99,0,0,0,318.954,72.129Z" fill="#98999a" data-original="#000000" style=""/><path xmlns="http://www.w3.org/2000/svg" d="M158.316,185.4a10.124,10.124,0,0,0,9.242,5.88c.187,0,.375,0,.564-.016a10.037,10.037,0,0,0,9.039-6.805l.094-.283a26.266,26.266,0,0,0-2.483-21.541c-6.728-11.331-17.634-10.152-19.644-9.827-13.492,1.178-17.829,13.33-17.435,23.419a4,4,0,0,0,7.994-.312c-.168-4.3.5-14.377,10.264-15.148a4.027,4.027,0,0,0,.5-.071,10.324,10.324,0,0,1,4.594.37C155.484,168.612,154.5,177.144,158.316,185.4Zm9.078-19.468q.253.377.5.788a18.275,18.275,0,0,1,1.75,14.994l-.058.176a2.028,2.028,0,0,1-1.89,1.386,2.118,2.118,0,0,1-2.118-1.235C163.014,176.5,163.628,171.092,167.394,165.93Z" fill="#98999a" data-original="#000000" style=""/></g></svg>
