<?xml version="1.0"?>
<svg xmlns="http://www.w3.org/2000/svg" xmlns:xlink="http://www.w3.org/1999/xlink" xmlns:svgjs="http://svgjs.com/svgjs" version="1.1" width="512" height="512" x="0" y="0" viewBox="0 0 340 340" style="enable-background:new 0 0 512 512" xml:space="preserve" class=""><g><path xmlns="http://www.w3.org/2000/svg" d="M251.67,151.505l-19.622,5.251a10.464,10.464,0,0,0,.425-3.844l-3.867-49.871a14.823,14.823,0,0,1,1.9-8.5l16.428-28.9a11.151,11.151,0,0,0-18.4-12.473l-23.1,28.9a8.385,8.385,0,0,1-5.815,3.106l-8.225.7h0a15.5,15.5,0,0,0-11.827,7.267l-7.663,12.4a11.83,11.83,0,0,0,3.112,15.739l8.092,5.859-2.4,34.214a10.369,10.369,0,0,0,3.277,8.305,64.393,64.393,0,0,0-28.626,17.488l-41.14,43.387a10.348,10.348,0,0,0-1.088-3.93l-5.413-10.575a25.61,25.61,0,0,0-25.626-13.707l-4.048.469a1.311,1.311,0,0,1-1.418-.989l-.409-1.7a82.535,82.535,0,0,0,27.882-9.646,12.309,12.309,0,0,0-11.3-21.849c-13.727,6.37-28.39,7.668-32.88,7.921a14.147,14.147,0,0,0-13.874,9.222,168.261,168.261,0,0,0-20.962,40.327,11.964,11.964,0,1,0,22.737,7.442c.293-.961.633-2.034,1.023-3.191a304.973,304.973,0,0,0,8.944,38.274,14.047,14.047,0,0,0,11.147,9.694L55.017,292.955a31.458,31.458,0,0,1-15.552,8.972l-30.4,7.261A4,4,0,0,0,10,317.08a4.055,4.055,0,0,0,.933-.11l30.394-7.262a39.431,39.431,0,0,0,19.5-11.249L161.158,192.641a56.412,56.412,0,0,1,26.364-15.686l66.216-17.722a4,4,0,0,0-2.068-7.728ZM82.136,264.354c-1.381-9.052-2.909-20.342-3.059-29.8a6.928,6.928,0,0,1,5.408-6.862,6.059,6.059,0,0,1,6.4,2.677l4.119,6.539a10.436,10.436,0,0,0,8.406,4.863c.045,0,.09,0,.136,0Zm23.649-31.544a2.438,2.438,0,0,1-4.011-.163l-4.119-6.538a14.061,14.061,0,0,0-14.889-6.225,14.953,14.953,0,0,0-11.688,14.8c.164,10.342,1.864,22.552,3.327,32.036a3.249,3.249,0,0,1-3.142,3.748H71.15a6,6,0,0,1-5.723-4.22,296.18,296.18,0,0,1-10.705-51.437,4,4,0,0,0-7.54-1.358,112.685,112.685,0,0,0-7.025,17.724,3.855,3.855,0,0,1-2.128,2.416,3.971,3.971,0,0,1-5.4-4.884,159.716,159.716,0,0,1,20.241-38.768,3.98,3.98,0,0,0,.563-1.115,6.166,6.166,0,0,1,3.841-3.975,6.276,6.276,0,0,1,2.418-.334,3.887,3.887,0,0,0,.445,0c4.6-.245,20.784-1.593,36.023-8.666a4.416,4.416,0,0,1,3.761.008,4.2,4.2,0,0,1,2.3,2.811,4.3,4.3,0,0,1-2.045,4.8,74.947,74.947,0,0,1-29.259,9.2,4,4,0,0,0-3.537,4.922l1.465,6.071a9.323,9.323,0,0,0,10.116,7.063l4.048-.47a17.566,17.566,0,0,1,17.583,9.4L106,230.238A2.421,2.421,0,0,1,105.785,232.81Zm95.154-67.728c.027-.088.062-.173.087-.263l6.048-21.971,4.895,14.3A10.5,10.5,0,0,0,214.7,161.4Zm21.878-8.953a2.552,2.552,0,0,1-3.279-1.574l-5.5-16.058a7.425,7.425,0,0,0-14.185.434L193.313,162.7a2.363,2.363,0,0,1-3.04,1.609,2.364,2.364,0,0,1-1.591-2.4l2.557-36.43a4,4,0,0,0-1.644-3.521L179.7,114.79a3.8,3.8,0,0,1-1-5.053l7.664-12.4a7.472,7.472,0,0,1,5.7-3.5l8.224-.7a16.413,16.413,0,0,0,11.389-6.083l23.1-28.9a3.151,3.151,0,0,1,4.554-.388,3.168,3.168,0,0,1,.646,3.914l-16.428,28.9a22.789,22.789,0,0,0-2.92,13.073l3.867,49.872A2.559,2.559,0,0,1,222.817,156.129Z" fill="#98999a" data-original="#000000" style=""/><path xmlns="http://www.w3.org/2000/svg" d="M328.966,130.817l-55.6,14.881V38.063c4.564-.254,13.129.037,20.7,4.643,9.294,5.656,20.23,4.035,26.729,2.216V74.329c-4.53,1.539-14.742,4.1-22.57-.668a39.122,39.122,0,0,0-11.061-4.524,4,4,0,0,0-1.9,7.771,31.1,31.1,0,0,1,8.8,3.587,28.5,28.5,0,0,0,14.983,3.916,45.945,45.945,0,0,0,17.415-3.7,4,4,0,0,0,2.331-3.636V39.289a4,4,0,0,0-5.661-3.639c-.145.065-14.6,6.5-24.909.222-13.468-8.2-28.932-5.455-29.584-5.336a4,4,0,0,0-3.272,3.934V150.909c0,.038.01.073.011.111a6.784,6.784,0,0,0,.108.816c.009.036.008.071.017.107.03.112.077.214.116.321.031.086.056.174.092.257a3.975,3.975,0,0,0,.32.589c.008.012.014.026.022.039a4.013,4.013,0,0,0,.462.559c.044.045.094.083.141.126a4.084,4.084,0,0,0,.4.331c.072.05.146.094.221.14a4.088,4.088,0,0,0,.4.218c.083.039.167.076.253.109a3.988,3.988,0,0,0,.466.145c.077.019.15.043.228.057a3.585,3.585,0,0,0,1.454,0c.06-.01.118-.021.176-.035s.1-.016.146-.029l60.631-16.227a4,4,0,0,0-2.068-7.729Z" fill="#98999a" data-original="#000000" style=""/><path xmlns="http://www.w3.org/2000/svg" d="M40.651,165.041a20.381,20.381,0,0,0,12.714,4.443,20.978,20.978,0,0,0,2.407-.139,20.542,20.542,0,1,0-15.121-4.3Zm2.925-23.888a12.458,12.458,0,0,1,8.386-4.67,12.745,12.745,0,0,1,1.453-.084,12.541,12.541,0,0,1,1.435,25,12.541,12.541,0,0,1-11.274-20.244Z" fill="#98999a" data-original="#000000" style=""/><path xmlns="http://www.w3.org/2000/svg" d="M104.77,60.89l11.373,4.821A10.78,10.78,0,0,1,122.19,72.3l5.359,16.437a4,4,0,0,0,7.606,0L140.514,72.3a10.787,10.787,0,0,1,6.047-6.588l11.373-4.82a4,4,0,0,0,0-7.366l-11.373-4.819a10.787,10.787,0,0,1-6.047-6.588L135.155,25.68a4,4,0,0,0-7.606,0L122.19,42.117a10.784,10.784,0,0,1-6.047,6.588L104.77,53.524a4,4,0,0,0,0,7.366Zm14.494-4.819A18.78,18.78,0,0,0,129.795,44.6l1.557-4.775,1.557,4.775A18.773,18.773,0,0,0,143.44,56.07l2.682,1.137-2.682,1.138a18.773,18.773,0,0,0-10.531,11.472l-1.557,4.775-1.557-4.775a18.777,18.777,0,0,0-10.53-11.472l-2.683-1.138Z" fill="#98999a" data-original="#000000" style=""/><path xmlns="http://www.w3.org/2000/svg" d="M190.829,79.034c.549,0,1.1-.022,1.66-.07a19.5,19.5,0,1,0-1.66.07Zm-.958-30.967q.493-.041.979-.041a11.5,11.5,0,1,1-.979.041Z" fill="#98999a" data-original="#000000" style=""/><path xmlns="http://www.w3.org/2000/svg" d="M193.305,102.3a4,4,0,0,0-4.89,2.845l-.8,3.011a4,4,0,1,0,7.734,2.045l.8-3.012A4,4,0,0,0,193.305,102.3Z" fill="#98999a" data-original="#000000" style=""/></g></svg>
