<svg width="66" height="65" viewBox="0 0 66 65" fill="none" xmlns="http://www.w3.org/2000/svg">
<path d="M10.484 16.6222V18.871H12.5808V16.6222C13.7916 16.2385 14.6775 15.1178 14.6775 13.7822C14.6775 12.6415 14.0443 11.6162 13.0232 11.1056L10.9799 10.0834C10.6737 9.93143 10.484 9.62425 10.484 9.28247C10.484 8.78868 10.8866 8.38715 11.3793 8.38715H11.6844C12.1782 8.38715 12.5808 8.78868 12.5808 9.28247V9.43554H14.6775V9.28247C14.6775 7.94683 13.7916 6.8261 12.5808 6.44239V4.1936H10.484V6.44239C9.27309 6.8261 8.38721 7.94683 8.38721 9.28247C8.38721 10.4231 9.02043 11.4484 10.0416 11.959L12.0849 12.9812C12.391 13.1332 12.5808 13.4404 12.5808 13.7822C12.5808 14.2759 12.1782 14.6775 11.6854 14.6775H11.3804C10.8866 14.6775 10.484 14.2759 10.484 13.7822V12.5807H8.38721V13.7822C8.38721 15.1178 9.27309 16.2385 10.484 16.6222Z" fill="#98999A"/>
<path d="M12.5808 48.3778V46.129H10.484V48.3778C9.27309 48.7615 8.38721 49.8823 8.38721 51.2179C8.38721 52.3585 9.02043 53.3828 10.0416 53.8944L12.0849 54.9166C12.391 55.0686 12.5808 55.3758 12.5808 55.7176C12.5808 56.2103 12.1782 56.6129 11.6854 56.6129H11.3804C10.8866 56.6129 10.484 56.2103 10.484 55.7176V54.5161H8.38721V55.7176C8.38721 57.0543 9.27309 58.175 10.484 58.5577V60.8064H12.5808V58.5577C13.7916 58.1739 14.6775 57.0532 14.6775 55.7176C14.6775 54.5769 14.0443 53.5527 13.0232 53.041L10.9799 52.0189C10.6737 51.8669 10.484 51.5597 10.484 51.2179C10.484 50.7252 10.8866 50.3226 11.3793 50.3226H11.6844C12.1782 50.3226 12.5808 50.7252 12.5808 51.2179V51.371H14.6775V51.2179C14.6775 49.8823 13.7916 48.7615 12.5808 48.3778Z" fill="#98999A"/>
<path d="M11.5323 23.0645C16.4723 23.0645 20.6836 19.9361 22.3233 15.5623L30.4085 17.767C30.4085 17.7859 30.4032 17.8037 30.4032 17.8226C30.4032 20.1353 32.284 22.0161 34.5968 22.0161C36.7827 22.0161 38.5618 20.3293 38.7526 18.1927L43.3519 17.4263C44.0061 18.8919 45.4706 19.9194 47.1774 19.9194C48.166 19.9194 49.0624 19.5619 49.7806 18.9873L61.3631 27.6743L57.4893 28.3201L57.8332 30.3885L65.1573 29.1672L63.9369 21.8431L61.8685 22.1881L62.487 25.8983L51.0512 17.3214C51.2556 16.8287 51.371 16.2909 51.371 15.7258C51.371 13.4131 49.4902 11.5323 47.1774 11.5323C44.9915 11.5323 43.2124 13.2191 43.0216 15.3557L38.4223 16.1221C37.7681 14.6565 36.3035 13.629 34.5968 13.629C33.042 13.629 31.699 14.4887 30.9746 15.7478L22.8779 13.5399C22.9932 12.8868 23.0645 12.2179 23.0645 11.5323C23.0645 5.17379 17.8907 0 11.5323 0C5.17379 0 0 5.17379 0 11.5323C0 17.8907 5.17379 23.0645 11.5323 23.0645ZM47.1774 13.629C48.3338 13.629 49.2742 14.5694 49.2742 15.7258C49.2742 16.8822 48.3338 17.8226 47.1774 17.8226C46.021 17.8226 45.0806 16.8822 45.0806 15.7258C45.0806 14.5694 46.021 13.629 47.1774 13.629ZM34.5968 15.7258C35.7531 15.7258 36.6935 16.6662 36.6935 17.8226C36.6935 18.979 35.7531 19.9194 34.5968 19.9194C33.4404 19.9194 32.5 18.979 32.5 17.8226C32.5 16.6662 33.4404 15.7258 34.5968 15.7258ZM11.5323 2.09677C16.7354 2.09677 20.9677 6.33016 20.9677 11.5323C20.9677 16.7344 16.7354 20.9677 11.5323 20.9677C6.32911 20.9677 2.09677 16.7344 2.09677 11.5323C2.09677 6.33016 6.32911 2.09677 11.5323 2.09677Z" fill="#98999A"/>
<path d="M16.7742 33.5484H14.2528C13.6238 32.3102 12.351 31.4516 10.8697 31.4516H8.00129C5.90137 31.4516 4.19355 33.1594 4.19355 35.2593C4.19355 35.6126 4.24282 35.9649 4.34032 36.3046L6.18758 42.7721L2.09677 48.2258C0.744355 50.03 0 52.2642 0 54.5161C0 60.2969 4.70306 65 10.4839 65H12.5806C14.0715 65 15.4889 64.6823 16.7742 64.1183V65H27.2581V25.1613H16.7742V33.5484ZM8.00129 33.5484H10.8697C11.8132 33.5484 12.5806 34.3158 12.5806 35.2593V37.7419H14.6774V35.6451H16.9545C18.0113 35.6451 18.871 36.5048 18.871 37.5616C18.871 38.0659 18.6665 38.5607 18.3101 38.9171L15.2918 41.9354H8.13024L6.35637 35.7279C6.31234 35.5759 6.29032 35.4176 6.29032 35.2593C6.29032 34.3158 7.05774 33.5484 8.00129 33.5484ZM10.4839 62.9032C5.85944 62.9032 2.09677 59.1405 2.09677 54.5161C2.09677 52.7139 2.69226 50.9264 3.77419 49.4828L7.8629 44.0322H15.2016L19.2903 49.4828C20.3723 50.9264 20.9677 52.7139 20.9677 54.5161C20.9677 59.1405 17.2051 62.9032 12.5806 62.9032H10.4839ZM25.1613 27.258V62.9032H18.871V62.8833C21.4112 60.9679 23.0645 57.9359 23.0645 54.5161C23.0645 52.2642 22.3202 50.03 20.9677 48.2258L17.1097 43.0824L19.7925 40.3996C20.5505 39.6426 20.9677 38.6341 20.9677 37.5616C20.9677 36.0467 20.1133 34.7404 18.871 34.0579V27.258H25.1613Z" fill="#98999A"/>
<path d="M29.355 65H39.8389V31.4517H29.355V65ZM31.4518 33.5484H37.7421V62.9033H31.4518V33.5484Z" fill="#98999A"/>
<path d="M41.9355 65H52.4194V26.2097H41.9355V65ZM44.0323 28.3065H50.3226V62.9033H44.0323V28.3065Z" fill="#98999A"/>
<path d="M54.5161 65H65V35.6451H54.5161V65ZM56.6129 37.7419H62.9032V62.9032H56.6129V37.7419Z" fill="#98999A"/>
</svg>
