<svg width="60" height="55" viewBox="0 0 60 55" fill="none" xmlns="http://www.w3.org/2000/svg">
<path d="M1.80771 0H57.7295C58.2273 0 58.6795 0.203233 59.0067 0.530608C59.3341 0.857857 59.5373 1.31001 59.5373 1.80784V12.3562C59.5373 12.8539 59.3341 13.3061 59.0067 13.6335C58.6795 13.9608 58.2273 14.1641 57.7295 14.1641H1.80771C1.30988 14.1641 0.85773 13.9608 0.530482 13.6335C0.203233 13.3061 0 12.8539 0 12.3562V1.80784C0 1.31001 0.203233 0.857857 0.530608 0.530608C0.857856 0.203233 1.30988 0 1.80771 0ZM57.7296 1.24041H1.80771C1.65231 1.24041 1.51058 1.30444 1.40745 1.40757C1.30431 1.51058 1.24028 1.65244 1.24028 1.80784V12.3562C1.24028 12.5116 1.30431 12.6534 1.40745 12.7565C1.51045 12.8596 1.65231 12.9237 1.80771 12.9237H57.7295C57.8849 12.9237 58.0266 12.8596 58.1297 12.7565C58.2329 12.6534 58.2969 12.5116 58.2969 12.3562V1.80784C58.2969 1.65244 58.2329 1.51071 58.1297 1.40757C58.0267 1.30444 57.8849 1.24041 57.7296 1.24041Z" fill="#98999A"/>
<path d="M36.6432 5.01807H39.5306C39.873 5.01807 40.1508 5.29583 40.1508 5.63827V8.52567C40.1508 8.86811 39.873 9.14587 39.5306 9.14587H36.6432C36.3007 9.14587 36.0229 8.86811 36.0229 8.52567V5.63827C36.0229 5.29571 36.3007 5.01807 36.6432 5.01807ZM38.9104 6.25847H37.2634V7.90547H38.9104V6.25847Z" fill="#98999A"/>
<path d="M42.899 5.01807H45.7864C46.1288 5.01807 46.4066 5.29583 46.4066 5.63827V8.52567C46.4066 8.86811 46.1288 9.14587 45.7864 9.14587H42.899C42.5566 9.14587 42.2788 8.86811 42.2788 8.52567V5.63827C42.2788 5.29571 42.5566 5.01807 42.899 5.01807ZM45.1662 6.25847H43.5192V7.90547H45.1662V6.25847Z" fill="#98999A"/>
<path d="M49.1549 5.01807H52.0423C52.3847 5.01807 52.6625 5.29583 52.6625 5.63827V8.52567C52.6625 8.86811 52.3847 9.14587 52.0423 9.14587H49.1549C48.8124 9.14587 48.5347 8.86811 48.5347 8.52567V5.63827C48.5347 5.29571 48.8124 5.01807 49.1549 5.01807ZM51.4221 6.25847H49.7751V7.90547H51.4221V6.25847Z" fill="#98999A"/>
<path d="M28.5311 7.70214C28.8735 7.70214 29.1513 7.42437 29.1513 7.08193C29.1513 6.7395 28.8735 6.46173 28.5311 6.46173H7.49471C7.15228 6.46173 6.87451 6.7395 6.87451 7.08193C6.87451 7.42437 7.15228 7.70214 7.49471 7.70214H28.5311Z" fill="#98999A"/>
<path d="M11.6213 13.5436C11.6213 13.2012 11.3435 12.9234 11.0011 12.9234C10.6586 12.9234 10.3809 13.2012 10.3809 13.5436V18.4942C10.3809 18.8366 10.6586 19.1144 11.0011 19.1144C11.3435 19.1144 11.6213 18.8366 11.6213 18.4942V13.5436Z" fill="#98999A"/>
<path d="M49.1569 13.5436C49.1569 13.2012 48.8791 12.9234 48.5367 12.9234C48.1943 12.9234 47.9165 13.2012 47.9165 13.5436V18.4942C47.9165 18.8366 48.1943 19.1144 48.5367 19.1144C48.8791 19.1144 49.1569 18.8366 49.1569 18.4942V13.5436Z" fill="#98999A"/>
<path d="M1.80771 17.874H57.7295C58.2273 17.874 58.6795 18.0773 59.0067 18.4046C59.3341 18.7319 59.5373 19.184 59.5373 19.6819V30.2301C59.5373 30.7279 59.3341 31.18 59.0067 31.5073C58.6795 31.8347 58.2273 32.038 57.7295 32.038H1.80771C1.30988 32.038 0.85773 31.8347 0.530482 31.5073C0.203233 31.18 0 30.7279 0 30.2301V19.6819C0 19.184 0.203233 18.7319 0.530608 18.4046C0.857856 18.0773 1.30988 17.874 1.80771 17.874ZM57.7296 19.1144H1.80771C1.65231 19.1144 1.51058 19.1785 1.40745 19.2816C1.30431 19.3846 1.24028 19.5265 1.24028 19.6819V30.2301C1.24028 30.3855 1.30431 30.5272 1.40745 30.6304C1.51045 30.7335 1.65231 30.7976 1.80771 30.7976H57.7295C57.8849 30.7976 58.0266 30.7335 58.1297 30.6304C58.2329 30.5272 58.2969 30.3855 58.2969 30.2301V19.6819C58.2969 19.5265 58.2329 19.3847 58.1297 19.2816C58.0267 19.1785 57.8849 19.1144 57.7296 19.1144Z" fill="#98999A"/>
<path d="M36.6432 22.8921H39.5306C39.873 22.8921 40.1508 23.1699 40.1508 23.5123V26.3997C40.1508 26.7421 39.873 27.0199 39.5306 27.0199H36.6432C36.3007 27.0199 36.0229 26.7421 36.0229 26.3997V23.5123C36.0229 23.1697 36.3007 22.8921 36.6432 22.8921ZM38.9104 24.1325H37.2634V25.7795H38.9104V24.1325Z" fill="#98999A"/>
<path d="M42.899 22.8921H45.7864C46.1288 22.8921 46.4066 23.1699 46.4066 23.5123V26.3997C46.4066 26.7421 46.1288 27.0199 45.7864 27.0199H42.899C42.5566 27.0199 42.2788 26.7421 42.2788 26.3997V23.5123C42.2788 23.1697 42.5566 22.8921 42.899 22.8921ZM45.1662 24.1325H43.5192V25.7795H45.1662V24.1325Z" fill="#98999A"/>
<path d="M49.1549 22.8921H52.0423C52.3847 22.8921 52.6625 23.1699 52.6625 23.5123V26.3997C52.6625 26.7421 52.3847 27.0199 52.0423 27.0199H49.1549C48.8124 27.0199 48.5347 26.7421 48.5347 26.3997V23.5123C48.5347 23.1697 48.8124 22.8921 49.1549 22.8921ZM51.4221 24.1325H49.7751V25.7795H51.4221V24.1325Z" fill="#98999A"/>
<path d="M28.5311 25.5762C28.8735 25.5762 29.1513 25.2985 29.1513 24.956C29.1513 24.6136 28.8735 24.3358 28.5311 24.3358H7.49471C7.15228 24.3358 6.87451 24.6136 6.87451 24.956C6.87451 25.2985 7.15228 25.5762 7.49471 25.5762H28.5311Z" fill="#98999A"/>
<path d="M11.6213 31.4177C11.6213 31.0753 11.3435 30.7975 11.0011 30.7975C10.6586 30.7975 10.3809 31.0753 10.3809 31.4177V36.3684C10.3809 36.7108 10.6586 36.9886 11.0011 36.9886C11.3435 36.9886 11.6213 36.7108 11.6213 36.3684V31.4177Z" fill="#98999A"/>
<path d="M49.1569 31.4177C49.1569 31.0753 48.8791 30.7975 48.5367 30.7975C48.1943 30.7975 47.9165 31.0753 47.9165 31.4177V36.3684C47.9165 36.7108 48.1943 36.9886 48.5367 36.9886C48.8791 36.9886 49.1569 36.7108 49.1569 36.3684V31.4177Z" fill="#98999A"/>
<path d="M1.80771 35.7482H57.7295C58.2273 35.7482 58.6795 35.9514 59.0067 36.2788C59.3341 36.6062 59.5373 37.0583 59.5373 37.556V48.1043C59.5373 48.6021 59.3341 49.0541 59.0067 49.3815C58.6795 49.7089 58.2273 49.9121 57.7295 49.9121H1.80771C1.30988 49.9121 0.85773 49.7089 0.530482 49.3815C0.203233 49.0541 0 48.602 0 48.1043V37.556C0 37.0583 0.203233 36.6062 0.530608 36.2788C0.857856 35.9514 1.30988 35.7482 1.80771 35.7482ZM57.7296 36.9886H1.80771C1.65231 36.9886 1.51058 37.0526 1.40745 37.1557C1.30431 37.2589 1.24028 37.4006 1.24028 37.556V48.1043C1.24028 48.2597 1.30431 48.4014 1.40745 48.5045C1.51045 48.6077 1.65231 48.6717 1.80771 48.6717H57.7295C57.8849 48.6717 58.0266 48.6077 58.1297 48.5045C58.2329 48.4014 58.2969 48.2597 58.2969 48.1043V37.556C58.2969 37.4007 58.2329 37.2589 58.1297 37.1557C58.0267 37.0526 57.8849 36.9886 57.7296 36.9886Z" fill="#98999A"/>
<path d="M36.6432 40.7661H39.5306C39.873 40.7661 40.1508 41.0439 40.1508 41.3863V44.2737C40.1508 44.6162 39.873 44.8939 39.5306 44.8939H36.6432C36.3007 44.8939 36.0229 44.6162 36.0229 44.2737V41.3863C36.0229 41.0439 36.3007 40.7661 36.6432 40.7661ZM38.9104 42.0065H37.2634V43.6535H38.9104V42.0065Z" fill="#98999A"/>
<path d="M42.899 40.7661H45.7864C46.1288 40.7661 46.4066 41.0439 46.4066 41.3863V44.2737C46.4066 44.6162 46.1288 44.8939 45.7864 44.8939H42.899C42.5566 44.8939 42.2788 44.6162 42.2788 44.2737V41.3863C42.2788 41.0439 42.5566 40.7661 42.899 40.7661ZM45.1662 42.0065H43.5192V43.6535H45.1662V42.0065Z" fill="#98999A"/>
<path d="M49.1549 40.7661H52.0423C52.3847 40.7661 52.6625 41.0439 52.6625 41.3863V44.2737C52.6625 44.6162 52.3847 44.8939 52.0423 44.8939H49.1549C48.8124 44.8939 48.5347 44.6162 48.5347 44.2737V41.3863C48.5347 41.0439 48.8124 40.7661 49.1549 40.7661ZM51.4221 42.0065H49.7751V43.6535H51.4221V42.0065Z" fill="#98999A"/>
<path d="M28.5311 43.4501C28.8735 43.4501 29.1513 43.1724 29.1513 42.8299C29.1513 42.4875 28.8735 42.2097 28.5311 42.2097H7.49471C7.15228 42.2097 6.87451 42.4875 6.87451 42.8299C6.87451 43.1724 7.15228 43.4501 7.49471 43.4501H28.5311Z" fill="#98999A"/>
<path d="M11.6213 49.2918C11.6213 48.9493 11.3435 48.6716 11.0011 48.6716C10.6586 48.6716 10.3809 48.9493 10.3809 49.2918V54.3798C10.3809 54.7222 10.6586 55 11.0011 55C11.3435 55 11.6213 54.7222 11.6213 54.3798V49.2918Z" fill="#98999A"/>
<path d="M49.1569 49.2918C49.1569 48.9493 48.8791 48.6716 48.5367 48.6716C48.1943 48.6716 47.9165 48.9493 47.9165 49.2918V54.3798C47.9165 54.7222 48.1943 55 48.5367 55C48.8791 55 49.1569 54.7222 49.1569 54.3798V49.2918Z" fill="#98999A"/>
<path d="M45.4431 53.6088C45.7855 53.6088 46.0633 53.331 46.0633 52.9886C46.0633 52.6461 45.7855 52.3683 45.4431 52.3683H14.0948C13.7524 52.3683 13.4746 52.6461 13.4746 52.9886C13.4746 53.331 13.7524 53.6088 14.0948 53.6088H45.4431Z" fill="#98999A"/>
</svg>
