<?xml version="1.0"?>
<svg xmlns="http://www.w3.org/2000/svg" xmlns:xlink="http://www.w3.org/1999/xlink" xmlns:svgjs="http://svgjs.com/svgjs" version="1.1" width="512" height="512" x="0" y="0" viewBox="0 0 64 64" style="enable-background:new 0 0 512 512" xml:space="preserve"><g><g xmlns="http://www.w3.org/2000/svg" id="Outline"><g><path d="M40,28h5a1,1,0,0,0,0-2H40a1,1,0,0,0,0,2Z" fill="#98999a" data-original="#000000" style=""/><path d="M61,26a1,1,0,0,0-1,1V60H9a5,5,0,1,1,5-5,1,1,0,0,0,2,0V28h3a1,1,0,0,0,0-2H16V23A7,7,0,0,0,2,23V55a7.008,7.008,0,0,0,7,7H61a1,1,0,0,0,1-1V27A1,1,0,0,0,61,26ZM4,23a5,5,0,0,1,10,0v27.1a6.991,6.991,0,0,0-10,0Z" fill="#98999a" data-original="#000000" style=""/><path d="M48.071,38.372l1.6,4v0l2.4,6a1,1,0,0,0,1.858,0l2.4-6v0l1.6-4a.988.988,0,0,0,.063-.334c0-.013.008-.024.008-.038V21a1,1,0,0,0-2,0V37H54V14h2v3a1,1,0,0,0,2,0V7A5,5,0,0,0,48,7V38c0,.014.007.025.008.039A.987.987,0,0,0,48.071,38.372ZM52.077,43h1.846L53,45.308Zm2.646-2H51.277l-.8-2h5.046ZM52,37H50V14h2ZM50,12V10h6v2Zm0-5a3,3,0,0,1,6,0V8H50Z" fill="#98999a" data-original="#000000" style=""/><path d="M24,21.7v.481a2.982,2.982,0,0,0,0,5.632V28a6.007,6.007,0,0,0,4.138,5.7,8.3,8.3,0,0,1-3.879,2.2l-1.525.382A4.931,4.931,0,0,0,23.93,46H26a1,1,0,0,0,0-2H23.93a2.931,2.931,0,0,1-.71-5.774l1.525-.381a10.3,10.3,0,0,0,5.779-3.871A6.005,6.005,0,0,0,36,28v-.184a2.982,2.982,0,0,0,0-5.632V21.7a8.972,8.972,0,0,0,1.747-11.269,1,1,0,0,0-1.723,1.017,6.972,6.972,0,0,1-1.65,9.009,1,1,0,0,0-.374.78V22h-.883l.877-7.89a1,1,0,0,0-1.31-1.059L30,13.946l-2.684-.895a1,1,0,0,0-1.31,1.059L26.883,22H26v-.76a1,1,0,0,0-.374-.78A6.993,6.993,0,0,1,33.549,8.975a1,1,0,1,0,1.017-1.723A8.994,8.994,0,0,0,24,21.7ZM30,32a4,4,0,0,1-4-4h8A4,4,0,0,1,30,32ZM28.167,15.443l1.517.506a1,1,0,0,0,.632,0l1.517-.506L31.105,22H28.9ZM28,24h7a1,1,0,0,1,0,2H25a1,1,0,0,1,0-2Z" fill="#98999a" data-original="#000000" style=""/><circle cx="18" cy="15" r="1" fill="#98999a" data-original="#000000" style=""/><circle cx="42" cy="15" r="1" fill="#98999a" data-original="#000000" style=""/><circle cx="30" cy="3" r="1" fill="#98999a" data-original="#000000" style=""/><path d="M19.108,9.866A1,1,0,1,0,18.742,8.5,1,1,0,0,0,19.108,9.866Z" fill="#98999a" data-original="#000000" style=""/><path d="M39.892,21.866a1,1,0,1,0-.366-1.366A1,1,0,0,0,39.892,21.866Z" fill="#98999a" data-original="#000000" style=""/><circle cx="36" cy="4.608" r="1" transform="translate(0.034 9.475) rotate(-15)" fill="#98999a" data-original="#000000" style=""/><path d="M40.892,9.866A1,1,0,1,0,39.526,9.5,1,1,0,0,0,40.892,9.866Z" fill="#98999a" data-original="#000000" style=""/><path d="M20.474,20.5a1,1,0,1,0-.366,1.366A1,1,0,0,0,20.474,20.5Z" fill="#98999a" data-original="#000000" style=""/><path d="M24.5,5.474a1,1,0,1,0-1.366-.366A1,1,0,0,0,24.5,5.474Z" fill="#98999a" data-original="#000000" style=""/><path d="M35,54h4a1,1,0,0,0,1-1V51.319a6.87,6.87,0,0,0,.974-.561l1.454.84a1,1,0,0,0,1.366-.366l2-3.464a1,1,0,0,0-.366-1.366l-1.452-.839c.016-.189.024-.376.024-.563s-.008-.374-.024-.563l1.452-.839a1,1,0,0,0,.366-1.366l-2-3.464a1,1,0,0,0-1.366-.366l-1.454.84A6.87,6.87,0,0,0,40,38.681V37a1,1,0,0,0-1-1H35a1,1,0,0,0-1,1v1.681a6.87,6.87,0,0,0-.974.561l-1.454-.84a1,1,0,0,0-1.366.366l-2,3.464a1,1,0,0,0,.366,1.366l1.452.839c-.016.189-.024.376-.024.563s.008.374.024.563l-1.452.839a1,1,0,1,0,1,1.732L31.6,46.96a1,1,0,0,0,.484-1.047,4.78,4.78,0,0,1,0-1.826A1,1,0,0,0,31.6,43.04l-1.166-.674,1-1.732,1.166.674a1,1,0,0,0,1.15-.106,4.994,4.994,0,0,1,1.58-.911A1,1,0,0,0,36,39.349V38h2v1.349a1,1,0,0,0,.666.942,4.994,4.994,0,0,1,1.58.911,1,1,0,0,0,1.15.106l1.166-.674,1,1.732L42.4,43.04a1,1,0,0,0-.484,1.047,4.78,4.78,0,0,1,0,1.826A1,1,0,0,0,42.4,46.96l1.166.674-1,1.732L41.4,48.692a1,1,0,0,0-1.15.106,4.994,4.994,0,0,1-1.58.911,1,1,0,0,0-.666.942V52H36V50.651a1,1,0,0,0-.666-.942,4.994,4.994,0,0,1-1.58-.911,1,1,0,0,0-1.15-.106l-2.032,1.174a1,1,0,1,0,1,1.732l1.454-.84a6.87,6.87,0,0,0,.974.561V53A1,1,0,0,0,35,54Z" fill="#98999a" data-original="#000000" style=""/><path d="M40,45a3,3,0,1,0-3,3A3,3,0,0,0,40,45Zm-4,0a1,1,0,1,1,1,1A1,1,0,0,1,36,45Z" fill="#98999a" data-original="#000000" style=""/><path d="M38,58H50a4,4,0,0,0,4-4V52a1,1,0,0,0-2,0v2a2,2,0,0,1-2,2H38a1,1,0,0,0,0,2Z" fill="#98999a" data-original="#000000" style=""/><path d="M20,54a3,3,0,1,0,3-3A3,3,0,0,0,20,54Zm4,0a1,1,0,1,1-1-1A1,1,0,0,1,24,54Z" fill="#98999a" data-original="#000000" style=""/></g></g></g></svg>
