<?xml version="1.0"?>
<svg xmlns="http://www.w3.org/2000/svg" xmlns:xlink="http://www.w3.org/1999/xlink" xmlns:svgjs="http://svgjs.com/svgjs" version="1.1" width="512" height="512" x="0" y="0" viewBox="0 0 60 60" style="enable-background:new 0 0 512 512" xml:space="preserve" class=""><g><path xmlns="http://www.w3.org/2000/svg" d="M7,24H33a3,3,0,0,0,3-3V11a3,3,0,0,0-3-3H7a3,3,0,0,0-3,3V21A3,3,0,0,0,7,24ZM6,11a1,1,0,0,1,1-1H33a1,1,0,0,1,1,1V21a1,1,0,0,1-1,1H7a1,1,0,0,1-1-1Z" fill="#98999a" data-original="#000000" style="" class=""/><path xmlns="http://www.w3.org/2000/svg" d="M33,44H7a3,3,0,0,0-3,3V57a3,3,0,0,0,3,3H33a3,3,0,0,0,3-3V47A3,3,0,0,0,33,44Zm1,13a1,1,0,0,1-1,1H7a1,1,0,0,1-1-1V47a1,1,0,0,1,1-1H33a1,1,0,0,1,1,1Z" fill="#98999a" data-original="#000000" style="" class=""/><path xmlns="http://www.w3.org/2000/svg" d="M10,15h1a1,1,0,0,0,0-2H10a1,1,0,0,0,0,2Z" fill="#98999a" data-original="#000000" style="" class=""/><path xmlns="http://www.w3.org/2000/svg" d="M15,15H30a1,1,0,0,0,0-2H15a1,1,0,0,0,0,2Z" fill="#98999a" data-original="#000000" style="" class=""/><path xmlns="http://www.w3.org/2000/svg" d="M10,19H20a1,1,0,0,0,0-2H10a1,1,0,0,0,0,2Z" fill="#98999a" data-original="#000000" style="" class=""/><path xmlns="http://www.w3.org/2000/svg" d="M21,33h1a1,1,0,0,0,0-2H21a1,1,0,0,0,0,2Z" fill="#98999a" data-original="#000000" style="" class=""/><path xmlns="http://www.w3.org/2000/svg" d="M41,31H26a1,1,0,0,0,0,2H41a1,1,0,0,0,0-2Z" fill="#98999a" data-original="#000000" style="" class=""/><path xmlns="http://www.w3.org/2000/svg" d="M31,35H21a1,1,0,0,0,0,2H31a1,1,0,0,0,0-2Z" fill="#98999a" data-original="#000000" style="" class=""/><path xmlns="http://www.w3.org/2000/svg" d="M10,51h1a1,1,0,0,0,0-2H10a1,1,0,0,0,0,2Z" fill="#98999a" data-original="#000000" style="" class=""/><path xmlns="http://www.w3.org/2000/svg" d="M30,49H15a1,1,0,0,0,0,2H30a1,1,0,0,0,0-2Z" fill="#98999a" data-original="#000000" style="" class=""/><path xmlns="http://www.w3.org/2000/svg" d="M20,53H10a1,1,0,0,0,0,2H20a1,1,0,0,0,0-2Z" fill="#98999a" data-original="#000000" style="" class=""/><path xmlns="http://www.w3.org/2000/svg" d="M51,3H37.414l1.293-1.293A1,1,0,0,0,37.293.293l-3,3a1,1,0,0,0,0,1.414l3,3a1,1,0,0,0,1.414-1.414L37.414,5H51a3,3,0,0,1,3,3V30a3,3,0,0,1-3,3h-.1A5.016,5.016,0,0,0,47,29.1V29a3,3,0,0,0-3-3H18a3,3,0,0,0-3,3V39a3,3,0,0,0,3,3H44a3,3,0,0,0,3-3v-.1A5.016,5.016,0,0,0,50.9,35H51a5.006,5.006,0,0,0,5-5V8A5.006,5.006,0,0,0,51,3ZM45,39a1,1,0,0,1-1,1H18a1,1,0,0,1-1-1V29a1,1,0,0,1,1-1H44a1,1,0,0,1,1,1Zm2-2.184V31.184a2.982,2.982,0,0,1,0,5.632Z" fill="#98999a" data-original="#000000" style="" class=""/></g></svg>
