<svg width="65" height="65" viewBox="0 0 65 65" fill="none" xmlns="http://www.w3.org/2000/svg">
<path d="M40.1172 38.8477C40.1172 34.6475 36.7001 31.2305 32.5 31.2305C28.2999 31.2305 24.8828 34.6475 24.8828 38.8477C24.8828 43.0478 28.2999 46.4648 32.5 46.4648C36.7001 46.4648 40.1172 43.0478 40.1172 38.8477ZM32.5 43.9258C29.6999 43.9258 27.4219 41.6477 27.4219 38.8477C27.4219 36.0476 29.6999 33.7695 32.5 33.7695C35.3001 33.7695 37.5781 36.0476 37.5781 38.8477C37.5781 41.6477 35.3001 43.9258 32.5 43.9258Z" fill="#98999A"/>
<path d="M19.2969 38.8477C19.2969 34.6475 15.8798 31.2305 11.6797 31.2305C7.47957 31.2305 4.0625 34.6475 4.0625 38.8477C4.0625 43.0478 7.47957 46.4648 11.6797 46.4648C15.8798 46.4648 19.2969 43.0478 19.2969 38.8477ZM11.6797 43.9258C8.87961 43.9258 6.60156 41.6477 6.60156 38.8477C6.60156 36.0476 8.87961 33.7695 11.6797 33.7695C14.4798 33.7695 16.7578 36.0476 16.7578 38.8477C16.7578 41.6477 14.4798 43.9258 11.6797 43.9258Z" fill="#98999A"/>
<path d="M60.9375 38.8477C60.9375 34.6475 57.5204 31.2305 53.3203 31.2305C49.1202 31.2305 45.7031 34.6475 45.7031 38.8477C45.7031 43.0478 49.1202 46.4648 53.3203 46.4648C57.5204 46.4648 60.9375 43.0478 60.9375 38.8477ZM53.3203 43.9258C50.5202 43.9258 48.2422 41.6477 48.2422 38.8477C48.2422 36.0476 50.5202 33.7695 53.3203 33.7695C56.1204 33.7695 58.3984 36.0476 58.3984 38.8477C58.3984 41.6477 56.1204 43.9258 53.3203 43.9258Z" fill="#98999A"/>
<path d="M53.3203 46.4648C48.7635 46.4648 44.8242 49.1017 42.9102 52.7452C41.001 49.1111 37.0716 46.4648 32.5 46.4648C27.9431 46.4648 24.0039 49.1017 22.0898 52.7452C20.1807 49.1111 16.2513 46.4648 11.6797 46.4648C5.35057 46.4648 0 51.5854 0 57.8906V63.7305C0 64.4315 0.568496 65 1.26953 65H63.7305C64.4315 65 65 64.4315 65 63.7305V57.8906C65 51.5859 59.6498 46.4648 53.3203 46.4648ZM32.5 49.0039C37.4547 49.0039 41.6406 53.0735 41.6406 57.8906V62.4609H23.3594V57.8906C23.3594 53.0735 27.5453 49.0039 32.5 49.0039ZM2.53906 57.8906C2.53906 53.0735 6.72496 49.0039 11.6797 49.0039C16.6344 49.0039 20.8203 53.0735 20.8203 57.8906V62.4609H2.53906V57.8906ZM62.4609 62.4609H44.1797V57.8906C44.1797 53.0735 48.3656 49.0039 53.3203 49.0039C58.275 49.0039 62.4609 53.0735 62.4609 57.8906V62.4609Z" fill="#98999A"/>
<path d="M32.5 7.61719C30.3999 7.61719 28.6914 9.32572 28.6914 11.4258C28.6914 13.5258 30.3999 15.2344 32.5 15.2344C34.6001 15.2344 36.3086 13.5258 36.3086 11.4258C36.3086 9.32572 34.6001 7.61719 32.5 7.61719ZM32.5 12.6953C31.8 12.6953 31.2305 12.1258 31.2305 11.4258C31.2305 10.7258 31.8 10.1562 32.5 10.1562C33.2 10.1562 33.7695 10.7258 33.7695 11.4258C33.7695 12.1258 33.2 12.6953 32.5 12.6953Z" fill="#98999A"/>
<path d="M18.5352 11.4258C18.5352 13.5258 20.2437 15.2344 22.3438 15.2344C24.4438 15.2344 26.1523 13.5258 26.1523 11.4258C26.1523 9.32572 24.4438 7.61719 22.3438 7.61719C20.2437 7.61719 18.5352 9.32572 18.5352 11.4258ZM23.6133 11.4258C23.6133 12.1258 23.0438 12.6953 22.3438 12.6953C21.6437 12.6953 21.0742 12.1258 21.0742 11.4258C21.0742 10.7258 21.6437 10.1562 22.3438 10.1562C23.0438 10.1562 23.6133 10.7258 23.6133 11.4258Z" fill="#98999A"/>
<path d="M46.4648 11.4258C46.4648 9.32572 44.7563 7.61719 42.6562 7.61719C40.5562 7.61719 38.8477 9.32572 38.8477 11.4258C38.8477 13.5258 40.5562 15.2344 42.6562 15.2344C44.7563 15.2344 46.4648 13.5258 46.4648 11.4258ZM41.3867 11.4258C41.3867 10.7258 41.9562 10.1562 42.6562 10.1562C43.3563 10.1562 43.9258 10.7258 43.9258 11.4258C43.9258 12.1258 43.3563 12.6953 42.6562 12.6953C41.9562 12.6953 41.3867 12.1258 41.3867 11.4258Z" fill="#98999A"/>
<path d="M32.5 2.53906C33.2011 2.53906 33.7695 1.97067 33.7695 1.26953C33.7695 0.568388 33.2011 0 32.5 0C31.7989 0 31.2305 0.568388 31.2305 1.26953C31.2305 1.97067 31.7989 2.53906 32.5 2.53906Z" fill="#98999A"/>
<path d="M33.8748 21.0759L32.5 24.2379L31.1252 21.0759C30.9236 20.6122 30.4663 20.3125 29.9609 20.3125H17.2656C12.3654 20.3125 8.37891 16.326 8.37891 11.4258C8.37891 6.52552 12.3654 2.53906 17.2656 2.53906H26.7871C27.4881 2.53906 28.0566 1.97057 28.0566 1.26953C28.0566 0.568496 27.4881 0 26.7871 0H17.2656C10.9654 0 5.83984 5.12561 5.83984 11.4258C5.83984 17.726 10.9654 22.8516 17.2656 22.8516H29.1285L31.3357 27.928C31.5373 28.3915 31.9945 28.6914 32.5 28.6914C33.0055 28.6914 33.4627 28.3917 33.6643 27.928L35.8715 22.8516H47.7344C54.0345 22.8516 59.1602 17.726 59.1602 11.4258C59.1602 5.12561 54.0345 0 47.7344 0H38.2129C37.5119 0 36.9434 0.568496 36.9434 1.26953C36.9434 1.97057 37.5119 2.53906 38.2129 2.53906H47.7344C52.6346 2.53906 56.6211 6.52552 56.6211 11.4258C56.6211 16.326 52.6346 20.3125 47.7344 20.3125H35.0391C34.5337 20.3125 34.0764 20.6122 33.8748 21.0759Z" fill="#98999A"/>
</svg>
