<svg width="65" height="65" viewBox="0 0 65 65" fill="none" xmlns="http://www.w3.org/2000/svg">
<path d="M36.8325 60.6621C49.9943 60.6621 60.6641 49.9924 60.6641 36.8306C60.6641 23.6688 49.9943 12.999 36.8325 12.999C23.6707 12.999 13.001 23.6688 13.001 36.8306C13.0159 49.9861 23.6768 60.6472 36.8325 60.6621ZM18.4172 35.7473H15.2227C15.7874 24.6531 24.655 15.7854 35.7493 15.2208V18.4153C35.7493 19.0135 36.2343 19.4985 36.8325 19.4985C37.4307 19.4985 37.9158 19.0135 37.9158 18.4153V15.2208C49.01 15.7854 57.8777 24.6531 58.4423 35.7473H54.1646C53.5663 35.7473 53.0813 36.2323 53.0813 36.8306C53.0813 37.4288 53.5663 37.9138 54.1646 37.9138H58.4423C57.8777 49.0079 49.01 57.8757 37.9158 58.4404V55.2459C37.9158 54.6476 37.4307 54.1626 36.8325 54.1626C36.2343 54.1626 35.7493 54.6476 35.7493 55.2459V58.4404C24.6551 57.8757 15.7874 49.0081 15.2227 37.9138H18.4172C19.0155 37.9138 19.5005 37.4288 19.5005 36.8306C19.5005 36.2323 19.0155 35.7473 18.4172 35.7473Z" fill="#98999A"/>
<path d="M61.2218 22.767C60.8989 22.2075 60.5567 21.6594 60.196 21.1234L62.8705 18.4489C63.2934 18.0259 63.2934 17.3402 62.8705 16.9171L56.7502 10.7968C56.3272 10.3739 55.6415 10.3739 55.2184 10.7968L52.5396 13.467C48.2063 10.5414 43.1405 8.88768 37.9157 8.6931V2.1665H45.4984C46.0967 2.1665 46.5817 1.68148 46.5817 1.08325C46.5817 0.485026 46.0967 0 45.4984 0H28.1664C27.5682 0 27.0831 0.485026 27.0831 1.08325C27.0831 1.68148 27.5682 2.1665 28.1664 2.1665H35.7492V8.70285C26.0882 9.0717 17.2933 14.3756 12.4592 22.7483H6.50136C5.90313 22.7483 5.4181 23.2333 5.4181 23.8315C5.4181 24.4298 5.90313 24.9148 6.50136 24.9148H13.0009C13.029 24.9148 13.0529 24.9007 13.081 24.8986C13.4714 24.9036 13.8335 24.6961 14.0267 24.3569C20.9188 11.7609 36.7169 7.13673 49.3131 14.0287C61.9093 20.9206 66.5331 36.719 59.6412 49.3151C52.7492 61.9111 36.951 66.5352 24.3548 59.6433C19.9958 57.2583 16.4116 53.6741 14.0266 49.3151C13.8352 48.9745 13.4737 48.7649 13.0831 48.768C13.0549 48.768 13.03 48.7518 13.0007 48.7518H6.50122C5.90299 48.7518 5.41797 49.2368 5.41797 49.835C5.41797 50.4332 5.90299 50.9183 6.50122 50.9183H12.4591C20.2329 64.3836 37.4507 68.9977 50.916 61.2239C64.3815 53.4501 68.9955 36.2323 61.2218 22.767ZM54.3097 14.7688L55.9842 13.0944L60.5728 17.683L58.896 19.3599C57.5473 17.6597 56.0085 16.1193 54.3097 14.7688Z" fill="#98999A"/>
<path d="M10.8345 36.8306C10.8345 36.2323 10.3494 35.7473 9.75122 35.7473H1.08521C0.486979 35.7473 0.00195312 36.2323 0.00195312 36.8306C0.00195312 37.4288 0.486979 37.9138 1.08521 37.9138H9.75122C10.3494 37.9138 10.8345 37.4288 10.8345 36.8306Z" fill="#98999A"/>
<path d="M3.25171 31.4143H10.8345C11.4327 31.4143 11.9177 30.9293 11.9177 30.3311C11.9177 29.7328 11.4327 29.2478 10.8345 29.2478H3.25171C2.65348 29.2478 2.16846 29.7328 2.16846 30.3311C2.16846 30.9293 2.65335 31.4143 3.25171 31.4143Z" fill="#98999A"/>
<path d="M11.9177 43.3301C11.9177 42.7319 11.4327 42.2468 10.8345 42.2468H3.25171C2.65348 42.2468 2.16846 42.7319 2.16846 43.3301C2.16846 43.9283 2.65348 44.4133 3.25171 44.4133H10.8345C11.4327 44.4133 11.9177 43.9283 11.9177 43.3301Z" fill="#98999A"/>
<path d="M33.9005 44.0959C34.3235 44.5188 35.0092 44.5188 35.4322 44.0959L50.4894 29.0387C50.9051 28.6084 50.8932 27.9227 50.4629 27.507C50.0431 27.1016 49.3776 27.1016 48.9577 27.507L34.6664 41.7983L28.221 35.353C27.7907 34.9374 27.1049 34.9492 26.6893 35.3795C26.2839 35.7993 26.2839 36.4648 26.6893 36.8847L33.9005 44.0959Z" fill="#98999A"/>
</svg>
